<?xml version="1.0" standalone="no"?>
<!DOCTYPE svg PUBLIC "-//W3C//DTD SVG 1.1//EN" "http://www.w3.org/Graphics/SVG/1.1/DTD/svg11.dtd" >
<svg xmlns="http://www.w3.org/2000/svg" xmlns:xlink="http://www.w3.org/1999/xlink" version="1.1">
<metadata>
Created by FontForge 20170731 at Wed Aug 11 02:40:25 2021
 By Aleksey,,,
Copyright (c) 2013 by Flanker. All rights reserved. Digital porting: Leonardo Di Lena. Special thanks to: Romesh Naik (:Nike) that gave me hope to create this font from original scans.
</metadata>
<defs>
<font id="Semplicita-BoldItalic" horiz-adv-x="1576" >
  <font-face 
    font-family="Semplicita"
    font-weight="700"
    font-style="italic"
    font-stretch="normal"
    units-per-em="2048"
    panose-1="2 11 3 2 2 1 2 2 3 4"
    ascent="1536"
    descent="-512"
    x-height="963"
    cap-height="1434"
    bbox="-410 -492 2382 2142"
    underline-thickness="102"
    underline-position="-307"
    unicode-range="U+0020-1F31D"
  />
<missing-glyph horiz-adv-x="1249" 
d="M100 1434h1049q0 -15 -1 -110.5t-1 -135.5v-942q0 -40 1 -135.5t1 -110.5h-1049q0 15 1 110.5t1 135.5v942q0 40 -1 135.5t-1 110.5zM195 1343v-1253h858v1253h-858z" />
    <glyph glyph-name="f_f" unicode="ff" horiz-adv-x="1474" 
d="M1507 1454l-34 -283q-41 9 -62 9q-150 0 -174 -176l-6 -41q42 0 119 1t90 1l-31 -258q-13 0 -90 1t-119 1l-113 -914q-26 -230 -28 -246h-363q20 133 33 246l139 1127q19 152 54 239q-65 27 -148 27q-102 0 -160 -43t-73 -141l-6 -41q42 0 118.5 1t89.5 1l-30 -258
q-13 0 -90 1t-119 1l-113 -914q-23 -207 -29 -246h-362q20 133 33 246l141 1147q66 533 676 533q139 0 293 -56q103 56 219 56q94 0 145 -21z" />
    <glyph glyph-name="f_i" unicode="fi" horiz-adv-x="1341" 
d="M1292 1368l-6 -37q-10 -90 -26 -246h-363l8 82q-3 1 -17 5t-26.5 7t-36.5 6t-51 3q-102 0 -160 -43t-73 -141l-6 -41q42 0 118.5 1t89.5 1l-30 -258q-13 0 -90 1t-119 1l-113 -914q-23 -207 -29 -246h-362q20 133 33 246l141 1147q66 533 678 533q146 0 271.5 -38
t168.5 -69zM1243 963q-2 -17 -15.5 -112t-17.5 -134l-57 -471q-23 -207 -27 -246h-362q2 18 14.5 113t16.5 133l57 471q4 36 15.5 131t13.5 115h362z" />
    <glyph glyph-name="f_l" unicode="fl" horiz-adv-x="1341" 
d="M907 1167q-3 1 -17 5t-27 7t-37.5 6t-51.5 3q-102 0 -160 -43t-73 -141l-6 -41q42 0 118.5 1t89.5 1l-30 -258q-13 0 -90 1t-119 1l-113 -914q-23 -207 -29 -246h-362q20 133 33 246l141 1147q66 533 678 533q146 0 271.5 -38t168.5 -69l-139 -1122q-23 -207 -27 -246
h-362q2 18 14.5 113t16.5 133z" />
    <glyph glyph-name="f_f_i" unicode="ffi" horiz-adv-x="2037" 
d="M1989 1368l-7 -37q-10 -90 -26 -246h-363l9 82q-3 1 -17 5t-27 7t-37 6t-51 3q-102 0 -160 -43t-73 -141l-6 -41q42 0 119 1t90 1l-31 -258q-13 0 -90 1t-119 1l-113 -914q-26 -230 -28 -246h-363q20 133 33 246l141 1147q16 129 58 217q-72 29 -154 29q-102 0 -160 -43
t-73 -141l-6 -41q42 0 118.5 1t89.5 1l-30 -258q-13 0 -90 1t-119 1l-113 -914q-23 -207 -29 -246h-362q20 133 33 246l141 1147q66 533 676 533q168 0 328 -70q149 70 370 70q146 0 272 -38t169 -69zM1939 963q-2 -18 -15 -113t-17 -133l-58 -471q-10 -90 -26 -246h-363
q2 18 14.5 113t16.5 133l57 471q4 36 15.5 131t13.5 115h362z" />
    <glyph glyph-name="f_f_l" unicode="ffl" horiz-adv-x="2037" 
d="M1604 1167q-3 1 -17.5 5t-27.5 7t-37.5 6t-51.5 3q-102 0 -160 -43t-73 -141l-6 -41q42 0 119 1t90 1l-31 -258q-13 0 -90 1t-119 1l-113 -914q-26 -230 -28 -246h-363q20 133 33 246l141 1147q16 129 58 217q-72 29 -154 29q-102 0 -160 -43t-73 -141l-6 -41
q42 0 118.5 1t89.5 1l-30 -258q-13 0 -90 1t-119 1l-113 -914q-23 -207 -29 -246h-362q20 133 33 246l141 1147q66 533 676 533q168 0 328 -70q149 70 370 70q146 0 272 -38t169 -69l-140 -1122q-10 -90 -26 -246h-363q2 18 14.5 113t16.5 133z" />
    <glyph glyph-name="f_j" unicode="fj" horiz-adv-x="1341" 
d="M1292 1368l-6 -37q-10 -90 -26 -246h-363l8 82q-3 1 -17 5t-26.5 7t-36.5 6t-51 3q-102 0 -160 -43t-73 -141l-6 -41q42 0 118.5 1t89.5 1l-30 -258q-13 0 -90 1t-119 1l-113 -914q-23 -207 -29 -246h-362q20 133 33 246l141 1147q66 533 678 533q146 0 271.5 -38
t168.5 -69zM1243 963q-2 -17 -15.5 -112t-17.5 -134l-112 -922q-23 -207 -29 -246h-362q17 109 32 246l113 922q4 36 15.5 131t13.5 115h362z" />
    <glyph glyph-name="f_f_j" unicode="ffj" horiz-adv-x="2037" 
d="M1989 1368l-7 -37q-10 -90 -26 -246h-363l9 82q-3 1 -17 5t-27 7t-37 6t-51 3q-102 0 -160 -43t-73 -141l-6 -41q42 0 119 1t90 1l-31 -258q-13 0 -90 1t-119 1l-113 -914q-26 -230 -28 -246h-363q20 133 33 246l141 1147q16 129 58 217q-72 29 -154 29q-102 0 -160 -43
t-73 -141l-6 -41q42 0 118.5 1t89.5 1l-30 -258q-13 0 -90 1t-119 1l-113 -914q-23 -207 -29 -246h-362q20 133 33 246l141 1147q66 533 676 533q168 0 328 -70q149 70 370 70q146 0 272 -38t169 -69zM1939 963q-2 -18 -15 -113t-17 -133l-113 -922q-23 -207 -29 -246h-362
q20 133 33 246l112 922q4 36 15.5 131t13.5 115h362z" />
    <glyph glyph-name="longs_longs_j" unicode="&#x17f;&#x17f;j" horiz-adv-x="2037" 
d="M1989 1368l-7 -37q-10 -90 -26 -246h-363l9 82q-3 1 -17 5t-27 7t-37 6t-51 3q-102 0 -160 -43t-73 -141l-150 -1209q-26 -230 -28 -246h-363q20 133 33 246l141 1147q16 129 58 217q-72 29 -154 29q-102 0 -160 -43t-73 -141l-150 -1209q-23 -207 -29 -246h-362
q20 133 33 246l141 1147q66 533 676 533q168 0 328 -70q149 70 370 70q146 0 272 -38t169 -69zM1939 963q-2 -18 -15 -113t-17 -133l-113 -922q-23 -207 -29 -246h-362q20 133 33 246l112 922q4 36 15.5 131t13.5 115h362z" />
    <glyph glyph-name="longs_j" unicode="&#x17f;j" horiz-adv-x="1341" 
d="M1292 1368l-6 -37q-10 -90 -26 -246h-363l8 82q-3 1 -17 5t-26.5 7t-36.5 6t-51 3q-102 0 -160 -43t-73 -141l-150 -1209q-23 -207 -29 -246h-362q20 133 33 246l141 1147q66 533 678 533q146 0 271.5 -38t168.5 -69zM1243 963q-2 -17 -15.5 -112t-17.5 -134l-112 -922
q-23 -207 -29 -246h-362q17 109 32 246l113 922q4 36 15.5 131t13.5 115h362z" />
    <glyph glyph-name="longs_longs" unicode="&#x17f;&#x17f;" horiz-adv-x="1474" 
d="M1507 1454l-34 -283q-41 9 -62 9q-150 0 -174 -176l-150 -1209q-26 -230 -28 -246h-363q20 133 33 246l139 1127q19 152 54 239q-65 27 -148 27q-102 0 -160 -43t-73 -141l-150 -1209q-23 -207 -29 -246h-362q20 133 33 246l141 1147q66 533 676 533q139 0 293 -56
q103 56 219 56q94 0 145 -21z" />
    <glyph glyph-name="longs_i" unicode="&#x17f;i" horiz-adv-x="1341" 
d="M1292 1368l-6 -37q-10 -90 -26 -246h-363l8 82q-3 1 -17 5t-26.5 7t-36.5 6t-51 3q-102 0 -160 -43t-73 -141l-150 -1209q-23 -207 -29 -246h-362q20 133 33 246l141 1147q66 533 678 533q146 0 271.5 -38t168.5 -69zM1243 963q-2 -17 -15.5 -112t-17.5 -134l-57 -471
q-23 -207 -27 -246h-362q2 18 14.5 113t16.5 133l57 471q4 36 15.5 131t13.5 115h362z" />
    <glyph glyph-name="longs_l" unicode="&#x17f;l" horiz-adv-x="1341" 
d="M907 1167q-3 1 -17 5t-27 7t-37.5 6t-51.5 3q-102 0 -160 -43t-73 -141l-150 -1209q-23 -207 -29 -246h-362q20 133 33 246l141 1147q66 533 678 533q146 0 271.5 -38t168.5 -69l-139 -1122q-23 -207 -27 -246h-362q2 18 14.5 113t16.5 133z" />
    <glyph glyph-name="longs_longs_i" unicode="&#x17f;&#x17f;i" horiz-adv-x="2037" 
d="M1989 1368l-7 -37q-10 -90 -26 -246h-363l9 82q-3 1 -17 5t-27 7t-37 6t-51 3q-102 0 -160 -43t-73 -141l-150 -1209q-26 -230 -28 -246h-363q20 133 33 246l141 1147q16 129 58 217q-72 29 -154 29q-102 0 -160 -43t-73 -141l-150 -1209q-23 -207 -29 -246h-362
q20 133 33 246l141 1147q66 533 676 533q168 0 328 -70q149 70 370 70q146 0 272 -38t169 -69zM1939 963q-2 -18 -15 -113t-17 -133l-58 -471q-10 -90 -26 -246h-363q2 18 14.5 113t16.5 133l57 471q4 36 15.5 131t13.5 115h362z" />
    <glyph glyph-name="longs_longs_l" unicode="&#x17f;&#x17f;l" horiz-adv-x="2037" 
d="M1604 1167q-3 1 -17.5 5t-27.5 7t-37.5 6t-51.5 3q-102 0 -160 -43t-73 -141l-150 -1209q-26 -230 -28 -246h-363q20 133 33 246l141 1147q16 129 58 217q-72 29 -154 29q-102 0 -160 -43t-73 -141l-150 -1209q-23 -207 -29 -246h-362q20 133 33 246l141 1147
q66 533 676 533q168 0 328 -70q149 70 370 70q146 0 272 -38t169 -69l-140 -1122q-10 -90 -26 -246h-363q2 18 14.5 113t16.5 133z" />
    <glyph glyph-name=".notdef" horiz-adv-x="1249" 
d="M100 1434h1049q0 -15 -1 -110.5t-1 -135.5v-942q0 -40 1 -135.5t1 -110.5h-1049q0 15 1 110.5t1 135.5v942q0 40 -1 135.5t-1 110.5zM195 1343v-1253h858v1253h-858z" />
    <glyph glyph-name=".null" horiz-adv-x="0" 
 />
    <glyph glyph-name="nonmarkingreturn" horiz-adv-x="682" 
 />
    <glyph glyph-name="space" unicode=" " horiz-adv-x="819" 
 />
    <glyph glyph-name="exclam" unicode="!" horiz-adv-x="643" 
d="M612 1434q-2 -19 -14 -114t-16 -132l-56 -451q-3 -25 -10 -82.5t-12 -101.5t-6 -61h-381q1 21 15 117t18 128l55 451q10 90 26 246h381zM301 410q89 0 147 -57t58 -142q0 -101 -79.5 -176.5t-180.5 -75.5q-88 0 -145.5 56t-57.5 141q0 102 77.5 178t180.5 76z" />
    <glyph glyph-name="quotedbl" unicode="&#x22;" horiz-adv-x="968" 
d="M535 1577l-33 -264q-7 -69 -31.5 -144.5t-56.5 -132.5h-203q-27 80 -27 191q0 57 4 86l33 264h314zM985 1577l-33 -264q-21 -158 -88 -277h-202q-27 80 -27 191q0 57 4 86l33 264h313z" />
    <glyph glyph-name="numbersign" unicode="#" horiz-adv-x="1327" 
d="M1286 1120v-258q-15 0 -108.5 1t-133.5 1l-69 -258q41 0 109.5 1t78.5 1v-258q-15 0 -110 1t-135 1h-13l-110 -424l-215 58l100 366h-219l-111 -424l-215 58l101 366q-74 -2 -195 -2v258q15 0 110.5 -1t135.5 -1h16l70 258q-42 0 -120 -1t-89 -1v258q15 0 110.5 -1
t135.5 -1h32l107 406l215 -58l-96 -348h219l106 406l215 -58l-96 -348q40 0 102.5 1t71.5 1zM600 864l-70 -258h218l69 258h-217z" />
    <glyph glyph-name="dollar" unicode="$" horiz-adv-x="1314" 
d="M1245 1243l-256 -213q-90 105 -192 135l-35 -286q13 -6 26 -9q46 -18 79 -32.5t77 -37.5t75 -45.5t64.5 -54.5t54 -66.5t33.5 -80t13 -96.5q0 -205 -146.5 -337.5t-388.5 -156.5q-13 -129 -16 -147h-176q4 25 20 147q-176 14 -304 95.5t-196 207.5l318 176
q31 -63 89 -110.5t130 -65.5l43 336q-61 18 -111 38t-107 54t-95.5 74t-64 100t-25.5 131q0 180 144.5 313t365.5 158q6 90 14 138h176q-10 -60 -18 -140q237 -33 409 -225zM721 543l-33 -275q66 15 101.5 53t35.5 87q0 83 -104 135zM627 1171q-57 -12 -90 -46.5t-33 -84.5
q0 -33 24 -57.5t70 -46.5z" />
    <glyph glyph-name="percent" unicode="%" horiz-adv-x="1474" 
d="M1337 1479l158 -144q-48 -45 -184 -186l-969 -1006q-20 -21 -60.5 -64.5t-72.5 -77.5t-45 -46l-158 143q39 36 184 187l969 1005q41 42 178 189zM1073 594q147 0 233.5 -81t86.5 -204q0 -154 -112.5 -262t-287.5 -108q-148 0 -234.5 81.5t-86.5 206.5q0 151 114.5 259
t286.5 108zM1049 397q-56 0 -100 -44t-44 -103q0 -48 32 -81.5t81 -33.5q57 0 99 45t42 105q0 47 -31.5 79.5t-78.5 32.5zM508 1495q147 0 233 -80.5t86 -204.5q0 -154 -112 -262t-287 -108q-148 0 -235 81.5t-87 206.5q0 151 115 259t287 108zM483 1298q-56 0 -99.5 -44
t-43.5 -103q0 -48 32 -81.5t81 -33.5q57 0 99 45t42 105q0 47 -32 79.5t-79 32.5z" />
    <glyph glyph-name="ampersand" unicode="&#x26;" horiz-adv-x="1622" 
d="M1528 0h-486l-98 121q-277 -162 -514 -162q-93 0 -170 30t-127 81.5t-77 117.5t-27 140q0 90 32 163.5t90.5 127t121 90t143.5 69.5q-101 132 -101 246q0 113 65.5 210t182 154.5t256.5 57.5q178 0 285.5 -98t107.5 -246q0 -238 -301 -385l144 -168q125 108 221 211
l194 -228q-77 -77 -227 -202zM567 295q81 0 193 53l-185 230q-70 -34 -107.5 -74.5t-37.5 -97.5q0 -48 36 -79.5t101 -31.5zM672 1077q0 -3 -1 -8t-1 -8q0 -38 21 -74.5t63 -87.5q143 65 143 186q0 45 -28 74t-72 29q-46 0 -82.5 -31.5t-42.5 -79.5z" />
    <glyph glyph-name="quotesingle" unicode="'" horiz-adv-x="518" 
d="M535 1577l-33 -264q-21 -158 -88 -277h-203q-27 80 -27 191q0 57 4 86l33 264h314z" />
    <glyph glyph-name="parenleft" unicode="(" horiz-adv-x="581" 
d="M324 639q-19 -149 -19 -266q0 -296 111 -609l-189 -96q-127 325 -127 682q0 678 365 1260l166 -97q-132 -223 -204.5 -426.5t-102.5 -447.5z" />
    <glyph glyph-name="parenright" unicode=")" horiz-adv-x="581" 
d="M266 639q17 133 17 264q0 297 -111 610l190 97q127 -336 127 -686q0 -353 -93.5 -661t-270.5 -595l-168 96q133 222 206 426t103 449z" />
    <glyph glyph-name="asterisk" unicode="*" horiz-adv-x="815" 
d="M449 1628h167l-12 -100q-8 -69 -33 -119l7 -4q33 38 100 78l90 51l68 -145l-93 -50q-70 -37 -118 -43v-8q51 -6 106 -41l80 -49l-100 -145l-78 51q-62 40 -84 78l-6 -4q12 -48 4 -119l-12 -101h-168l12 101q8 69 33 119l-6 4q-32 -37 -101 -78l-90 -51l-68 145l93 49
q65 34 118 41v8q-47 6 -106 43l-80 50l100 145l78 -51q62 -40 84 -78l6 4q-12 48 -4 119z" />
    <glyph glyph-name="plus" unicode="+" horiz-adv-x="1466" 
d="M889 1309q0 -15 -1 -110.5t-1 -135.5v-170h170q40 0 135.5 1t110.5 1v-311q-15 0 -110.5 1t-135.5 1h-170v-170q0 -40 1 -135.5t1 -110.5h-311q0 15 1 110.5t1 135.5v170h-170q-40 0 -135.5 -1t-110.5 -1v311q15 0 110.5 -1t135.5 -1h170v170q0 40 -1 135.5t-1 110.5h311
z" />
    <glyph glyph-name="comma" unicode="," horiz-adv-x="663" 
d="M-129 -246l317 645h365l-444 -645h-238z" />
    <glyph glyph-name="hyphen" unicode="-" horiz-adv-x="870" 
d="M88 662q7 0 55 -1.5t68 -1.5h461q20 0 68 1.5t55 1.5l-41 -332q-7 0 -55 1t-68 1h-461q-20 0 -68 -1t-55 -1z" />
    <glyph glyph-name="period" unicode="." horiz-adv-x="663" 
d="M307 410q89 0 147 -57t58 -142q0 -101 -79.5 -176.5t-180.5 -75.5q-88 0 -145.5 56t-57.5 141q0 102 77.5 178t180.5 76z" />
    <glyph glyph-name="slash" unicode="/" horiz-adv-x="907" 
d="M653 1645l254 -113q-7 -17 -46.5 -102.5t-55.5 -120.5l-561 -1264q-95 -217 -99 -225l-254 112q8 20 49.5 108t53.5 116l561 1263q12 28 50.5 117.5t47.5 108.5z" />
    <glyph glyph-name="zero" unicode="0" horiz-adv-x="1466" 
d="M840 1475q179 0 318 -86t212.5 -233t73.5 -329q0 -230 -105.5 -430t-288.5 -319t-397 -119q-136 0 -250 50t-191.5 137t-121 206t-43.5 256q0 172 63.5 332t170 277t253.5 187.5t306 70.5zM801 1155q-97 0 -182.5 -71t-137 -190t-51.5 -253q0 -154 72.5 -254t191.5 -100
q98 0 183 70.5t134.5 188.5t49.5 253q0 155 -71 255.5t-189 100.5z" />
    <glyph glyph-name="one" unicode="1" horiz-adv-x="1466" 
d="M1055 1434l-146 -1188q-10 -90 -26 -246h-381q2 19 14 114t16 132l109 880h-192l36 308h570z" />
    <glyph glyph-name="two" unicode="2" horiz-adv-x="1466" 
d="M942 0h-893q19 18 105.5 99.5t114 107.5t99 95t112 109.5t97.5 99t107 112.5q50 56 78 90t64.5 87t53.5 103.5t17 102.5q0 69 -33 109t-100 40q-169 0 -197 -229h-393q15 116 65.5 216t130.5 174t191.5 116.5t241.5 42.5q223 0 356 -125t133 -318q0 -149 -58.5 -255.5
t-189.5 -223.5l-182 -164q-80 -73 -117 -92l5 -8q47 14 147 14h78q40 0 137.5 1t112.5 1l-39 -307q-15 0 -109.5 1t-134.5 1z" />
    <glyph glyph-name="three" unicode="3" horiz-adv-x="1466" 
d="M840 1475q194 0 308 -102t114 -261q0 -126 -52.5 -208t-128.5 -111l-2 -11q91 -25 144 -102t53 -191q0 -122 -49 -223t-133 -167.5t-194.5 -103t-233.5 -36.5q-229 0 -372.5 135.5t-143.5 335.5q0 27 2 41h372q2 -86 44 -137t128 -51q99 0 156 60.5t57 150.5
q0 67 -46 108t-142 41h-51l30 242h25q91 0 139.5 44.5t48.5 123.5q0 53 -32 85.5t-90 32.5q-69 0 -117 -47.5t-56 -115.5h-339q16 125 91 231.5t199.5 171t270.5 64.5z" />
    <glyph glyph-name="four" unicode="4" horiz-adv-x="1466" 
d="M1251 1434l-102 -840q39 0 106.5 1t77.5 1l-37 -311q-116 0 -184 2q-28 -209 -33 -287h-356q1 24 37 287h-699l33 266l666 881h491zM797 594l39 317q6 51 20 124t21 89l-9 4q-34 -67 -127 -184l-182 -227q-39 -50 -76.5 -85t-54.5 -44l2 -8q35 14 174 14h193z" />
    <glyph glyph-name="five" unicode="5" horiz-adv-x="1466" 
d="M287 676l219 758h500q40 0 136 1t111 1l-39 -318q-15 0 -110 1t-135 1h-246l-27 -76q-23 -65 -39 -88l5 -6q13 10 53 17.5t78 7.5q196 0 324 -121.5t128 -312.5q0 -174 -88.5 -307.5t-240.5 -204t-341 -70.5q-157 0 -276 45t-176 100l96 342q155 -159 369 -159
q116 0 192 68t76 165q0 92 -79 152.5t-202 60.5q-158 0 -288 -57z" />
    <glyph glyph-name="six" unicode="6" horiz-adv-x="1466" 
d="M1194 1434q-32 -38 -71.5 -79.5t-96 -97.5t-74.5 -75l-114 -119q-78 -82 -121 -111l2 -6q72 37 178 37q188 0 306 -119t118 -301q0 -118 -44.5 -225t-127.5 -192.5t-214.5 -136t-293.5 -50.5q-135 0 -240 36t-169.5 99t-97 143.5t-32.5 174.5q0 73 24 153.5t56 143.5
t82.5 137t84 115.5t81.5 97.5l182 211q61 71 133 164h449zM729 705q-102 0 -179 -75.5t-77 -183.5q0 -84 57 -138t144 -54q102 0 178 73t76 181q0 86 -56.5 141.5t-142.5 55.5z" />
    <glyph glyph-name="seven" unicode="7" horiz-adv-x="1466" 
d="M1462 1376l-796 -1165q-131 -193 -142 -211h-440q3 4 64.5 87.5t91.5 127.5l581 827q39 55 84 82l-4 9q-30 -15 -104 -15h-287q-40 0 -136.5 -1t-111.5 -1l41 320q15 0 109.5 -1t134.5 -1h921z" />
    <glyph glyph-name="eight" unicode="8" horiz-adv-x="1466" 
d="M522 1401q132 74 318 74q117 0 205.5 -29.5t139 -80.5t75 -113t24.5 -134q0 -122 -70 -223t-184 -131v-8q104 -28 167 -112t63 -195q0 -99 -40 -187t-114.5 -156t-191.5 -107.5t-261 -39.5q-247 0 -372 106.5t-125 276.5q0 144 88 261.5t229 152.5v8q-84 24 -131 95
t-47 165q0 111 58.5 213t168.5 164zM733 606q-82 0 -138 -58.5t-56 -137.5q0 -65 40.5 -108.5t110.5 -43.5q82 0 138.5 59.5t56.5 137.5q0 64 -42 107.5t-110 43.5zM770 913q65 0 116.5 53t51.5 124q0 55 -36.5 91t-94.5 36q-69 0 -117.5 -50.5t-48.5 -119.5q0 -58 36 -96
t93 -38z" />
    <glyph glyph-name="nine" unicode="9" horiz-adv-x="1466" 
d="M160 942q28 224 221.5 378.5t458.5 154.5q251 0 395.5 -131t144.5 -334q0 -104 -53 -230t-121 -211l-299 -370q-30 -38 -86 -104t-80 -95h-432q13 16 187 197l178 186q29 34 48 51t54 41l-4 6q-19 -8 -63 -17t-93 -9q-112 0 -202 37t-145 98.5t-84 137t-29 157.5
q0 21 4 57zM547 963q-2 -8 -2 -27q0 -85 59.5 -142t149.5 -57q105 0 183.5 76t78.5 178q0 85 -59 143t-148 58q-97 0 -173.5 -67t-88.5 -162z" />
    <glyph glyph-name="colon" unicode=":" horiz-adv-x="663" 
d="M307 410q89 0 147 -57t58 -142q0 -101 -79.5 -176.5t-180.5 -75.5q-88 0 -145.5 56t-57.5 141q0 102 77.5 178t180.5 76zM381 1012q89 0 147 -57t58 -142q0 -101 -79.5 -176.5t-180.5 -75.5q-88 0 -145.5 56t-57.5 141q0 102 77.5 178t180.5 76z" />
    <glyph glyph-name="semicolon" unicode=";" horiz-adv-x="663" 
d="M524 369h-360l-291 -645h242zM381 1012q89 0 147 -57t58 -142q0 -101 -79.5 -176.5t-180.5 -75.5q-88 0 -145.5 56t-57.5 141q0 102 77.5 178t180.5 76z" />
    <glyph glyph-name="less" unicode="&#x3c;" horiz-adv-x="1097" 
d="M545 739v-8q28 -5 82 -29t96 -51l135 -88q114 -75 203 -127l-168 -258q-81 56 -207 137l-649 420l649 420q126 81 207 137l168 -258q-89 -52 -203 -127l-135 -88q-42 -27 -96 -51t-82 -29z" />
    <glyph glyph-name="equal" unicode="=" horiz-adv-x="1466" 
d="M1303 629v-312q-15 0 -110.5 1t-135.5 1h-647q-40 0 -135.5 -1t-110.5 -1v312q15 0 110.5 -1t135.5 -1h647q40 0 135.5 1t110.5 1zM1303 1161v-311q-15 0 -110.5 1t-135.5 1h-647q-40 0 -135.5 -1t-110.5 -1v311q15 0 110.5 -1t135.5 -1h647q40 0 135.5 1t110.5 1z" />
    <glyph glyph-name="greater" unicode="&#x3e;" horiz-adv-x="1097" 
d="M553 739q-28 5 -82 29t-96 51l-135 88q-114 75 -203 127l168 258q81 -56 207 -137l649 -420l-649 -420q-126 -81 -207 -137l-168 258q89 52 203 127l135 88q42 27 96 51t82 29v8z" />
    <glyph glyph-name="question" unicode="?" horiz-adv-x="1142" 
d="M401 848h93q91 0 164 55.5t73 132.5q0 50 -30.5 84.5t-79.5 34.5q-60 0 -99 -40t-47 -103h-381q14 108 65 197t128 146.5t172.5 88.5t199.5 31q201 0 328 -113.5t127 -282.5q0 -95 -36.5 -178t-93.5 -138t-122 -89t-127 -43h-2q-13 -135 -16 -152h-363q20 133 33 246z
M543 410q89 0 147 -57t58 -142q0 -101 -80 -176.5t-181 -75.5q-88 0 -145 56t-57 141q0 102 77.5 178t180.5 76z" />
    <glyph glyph-name="at" unicode="@" horiz-adv-x="2314" 
d="M1753 893l-57 -473q-7 -80 49 -80q79 0 140 108t61 248q0 262 -191.5 426t-497.5 164q-188 0 -351 -63.5t-275.5 -172t-177 -256.5t-64.5 -313q0 -145 54 -273.5t149.5 -223.5t235 -150t302.5 -55q139 0 249.5 23t246.5 73l74 -250q-261 -100 -570 -100q-228 0 -422 75.5
t-326 204.5t-206 304t-74 372q0 174 53.5 334t156 291.5t242.5 229t322 151t386 53.5q215 0 397 -63.5t307.5 -175t195.5 -267.5t70 -338q0 -146 -48.5 -270t-131 -207.5t-193 -130.5t-233.5 -47q-195 0 -299 125q-48 -50 -136.5 -87.5t-195.5 -37.5q-191 0 -310.5 113.5
t-119.5 314.5q0 130 48 243t134.5 195.5t214 130t279.5 47.5q184 0 317.5 -60.5t194.5 -131.5zM1341 451l31 256q-67 79 -180 79q-106 0 -180 -73t-74 -178q0 -85 51 -140t137 -55q133 0 215 111z" />
    <glyph glyph-name="A" unicode="A" 
d="M879 1483h41l460 -1260q50 -137 86 -223h-407q-6 22 -25 73.5t-24 69.5l-9 29h-522l-16 -29q-4 -8 -35.5 -62.5t-44.5 -80.5h-420q9 15 34.5 56t58 92.5t46.5 74.5zM709 463h129q56 0 71 -10l4 8q-10 5 -26 51l-37 104q-35 97 -35 152v4h-8q-7 -36 -74 -156l-59 -104
q-23 -42 -41 -51l4 -8q10 10 72 10z" />
    <glyph glyph-name="B" unicode="B" horiz-adv-x="1372" 
d="M252 1434h627q173 0 278 -89.5t105 -242.5q0 -148 -77 -232.5t-188 -109.5v-8q110 -24 174 -102.5t64 -196.5q0 -71 -17 -135.5t-54.5 -123t-92 -101.5t-136.5 -68t-181 -25h-676q7 64 174 1434zM530 602l-36 -295h153q85 0 137 46t52 118q0 59 -39 95t-109 36h-158z
M598 1159l-35 -287h113q186 0 186 164q0 55 -39 89t-112 34h-113z" />
    <glyph glyph-name="C" unicode="C" horiz-adv-x="1564" 
d="M1231 463l221 -264q-123 -114 -292 -177t-351 -63q-165 0 -298 50.5t-220 140t-133.5 209t-46.5 259.5q0 175 66 332.5t180.5 273t279.5 183.5t354 68q354 0 553 -232l-276 -254q-132 150 -318 150q-86 0 -165.5 -33t-141.5 -92t-99.5 -151t-37.5 -201
q0 -162 99.5 -260.5t246.5 -98.5q116 0 200 40t179 120z" />
    <glyph glyph-name="D" unicode="D" horiz-adv-x="1525" 
d="M254 1434h571q186 0 327.5 -81.5t215.5 -221t74 -314.5q0 -130 -38 -251.5t-111 -223.5t-173.5 -179t-233 -120t-280.5 -43h-526zM608 1110l-96 -782h131q162 0 283 133.5t121 316.5q0 146 -87.5 239t-228.5 93h-123z" />
    <glyph glyph-name="E" unicode="E" horiz-adv-x="1060" 
d="M80 0l174 1434h530q40 0 136.5 1t111.5 1l-43 -340q-15 0 -110.5 1t-135.5 1h-168l-24 -213h90q40 0 135.5 1t110.5 1l-43 -340q-15 0 -110.5 1t-135.5 1h-90l-25 -213h201q40 0 135.5 1t110.5 1l-43 -340q-15 0 -109.5 1t-134.5 1h-563z" />
    <glyph glyph-name="F" unicode="F" horiz-adv-x="1073" 
d="M109 246l145 1188h563q40 0 136.5 1t111.5 1l-43 -340q-15 0 -110.5 1t-135.5 1h-170l-24 -213h98q40 0 135.5 1t110.5 1l-43 -340q-15 0 -110.5 1t-135.5 1h-98l-37 -303q-23 -207 -27 -246h-397q2 18 14.5 113t16.5 133z" />
    <glyph glyph-name="G" unicode="G" horiz-adv-x="1712" 
d="M1139 442h-17q-40 0 -134 -1t-109 -1l39 324q15 0 110 -1t135 -1h461q0 -154 -56 -297.5t-158.5 -256.5t-261 -181t-347.5 -68q-159 0 -290 50.5t-218.5 139t-135.5 208.5t-48 259q0 170 69.5 328t187 274.5t280.5 186.5t341 70q188 0 329 -73t222 -202l-301 -250
q-97 180 -293 180q-125 0 -226.5 -67.5t-157.5 -178.5t-56 -241q0 -166 90.5 -265t245.5 -99q120 0 190 27.5t131 80.5q13 12 23.5 26t16 23t7.5 10l-4 9q-20 -13 -65 -13z" />
    <glyph glyph-name="H" unicode="H" horiz-adv-x="1622" 
d="M1540 1188l-117 -942q-10 -90 -26 -246h-398q2 18 14.5 113t16.5 133l41 327h-528l-41 -327q-23 -207 -27 -246h-397q2 18 14.5 113t16.5 133l116 942q23 207 27 246h397q-2 -18 -14.5 -113t-16.5 -133l-38 -307h528l39 307q23 207 27 246h397q-2 -18 -14.5 -113
t-16.5 -133z" />
    <glyph glyph-name="I" unicode="I" horiz-adv-x="720" 
d="M262 1434h397q-2 -19 -14 -114t-16 -132l-117 -942q-23 -207 -27 -246h-397q2 18 14.5 113t16.5 133l117 942q10 90 26 246z" />
    <glyph glyph-name="J" unicode="J" horiz-adv-x="1048" 
d="M-8 180l270 252q8 -56 35 -98.5t78 -42.5q37 0 66.5 33.5t35.5 81.5l96 782q23 207 27 246h397q-2 -19 -14 -114t-16 -132l-97 -782q-10 -83 -51 -161.5t-105.5 -143t-159.5 -103.5t-204 -39q-262 0 -358 221z" />
    <glyph glyph-name="K" unicode="K" horiz-adv-x="1533" 
d="M1094 1434h479q-42 -47 -125 -131t-109 -111l-428 -449l349 -485q31 -43 92 -129t92 -129h-506q-11 12 -24 33t-31.5 53t-32.5 53l-234 363q-16 24 -32.5 56t-25.5 53t-9 24l-10 -4q0 -1 1 -12t1 -21q0 -45 -13 -131l-26 -221q-23 -207 -27 -246h-397q2 18 14.5 113
t16.5 133l116 942q23 207 27 246h397q-13 -86 -31 -246l-26 -207q-16 -140 -29 -158l8 -4q0 1 9.5 14.5t33.5 44.5t56 68l315 371q67 78 109 117z" />
    <glyph glyph-name="L" unicode="L" horiz-adv-x="1052" 
d="M80 0l145 1188q23 207 27 246h397q-2 -18 -14.5 -113t-16.5 -133l-106 -856h203q40 0 136.5 1t111.5 1l-43 -336q-15 0 -109.5 1t-134.5 1h-596z" />
    <glyph glyph-name="M" unicode="M" horiz-adv-x="1986" 
d="M928 -33h-31l-231 527q-54 118 -56 143l-8 -2q-3 -31 -55 -156l-115 -276q-35 -80 -80 -203h-397q82 196 100 240l512 1255h31l330 -696q61 -127 61 -170h8q10 39 103 170l487 696h31l219 -1253l47 -242h-401q-6 34 -18.5 102.5t-18.5 102.5l-49 264q-22 110 -21 131
q0 14 2 18l-8 3q-16 -44 -92 -152z" />
    <glyph glyph-name="N" unicode="N" horiz-adv-x="1644" 
d="M260 1470h37l721 -634q17 -15 28.5 -25.5t22 -24t14 -18.5t16 -25.5t17.5 -27.5l8 2q0 3 -1 18t-1 27q0 49 8 106l39 320q23 207 27 246h397q-2 -19 -14 -114t-16 -132l-152 -1225h-37l-717 658q-42 38 -57 56.5t-43 63.5l-8 -2q0 -3 1 -18.5t1 -28.5q0 -61 -6 -104
l-43 -342q-7 -49 -27 -246h-397q2 18 14.5 113t16.5 133z" />
    <glyph glyph-name="O" unicode="O" horiz-adv-x="1785" 
d="M999 1475q152 0 284 -51.5t223.5 -140.5t143.5 -211.5t52 -260.5q0 -135 -46 -264.5t-129 -234.5t-192.5 -185t-244.5 -124t-277 -44q-204 0 -365.5 88t-250 240t-88.5 338q0 169 72.5 326t192.5 271.5t284.5 183.5t340.5 69zM954 1110q-117 0 -221 -60t-166.5 -162.5
t-62.5 -219.5q0 -147 100.5 -245.5t253.5 -98.5q179 0 313 131.5t134 310.5q0 146 -99.5 245t-251.5 99z" />
    <glyph glyph-name="P" unicode="P" horiz-adv-x="1269" 
d="M680 471h-215l-29 -225q-3 -21 -26 -246h-398q2 18 14.5 113t16.5 133l145 1188h625q197 0 303.5 -112.5t106.5 -295.5q0 -115 -31 -212.5t-94.5 -175.5t-170.5 -122.5t-247 -44.5zM502 770h135q92 0 146.5 59t54.5 150q0 68 -41 109.5t-117 41.5h-135z" />
    <glyph glyph-name="Q" unicode="Q" horiz-adv-x="1785" 
d="M1638 246l-36 -307q-218 0 -361 129q-204 -109 -428 -109q-204 0 -365.5 88t-250 240t-88.5 338q0 169 72.5 326t192.5 271.5t284.5 183.5t340.5 69q152 0 284 -51.5t223.5 -140.5t143.5 -211.5t52 -260.5q0 -295 -203 -535q68 -30 139 -30zM954 1110q-117 0 -221 -60
t-166.5 -162.5t-62.5 -219.5q0 -147 100.5 -245.5t253.5 -98.5q59 0 131 20q-70 57 -158 57l37 308q122 0 208.5 -45.5t160.5 -126.5q68 108 68 229q0 146 -99.5 245t-251.5 99z" />
    <glyph glyph-name="R" unicode="R" horiz-adv-x="1306" 
d="M254 1434h616q188 0 299 -111t111 -291q0 -164 -71.5 -280.5t-192.5 -171.5l104 -357l64 -223h-412q-9 35 -25.5 96t-23.5 86l-94 350h-92l-35 -286q-23 -207 -27 -246h-397q2 18 14.5 113t16.5 133zM610 1118l-39 -311h123q75 0 129 51t54 121q0 60 -37.5 99.5
t-98.5 39.5h-131z" />
    <glyph glyph-name="S" unicode="S" horiz-adv-x="1181" 
d="M1159 1243l-256 -213q-92 150 -211 150q-45 0 -73.5 -28t-28.5 -65q0 -26 11 -49.5t35.5 -46t44 -37.5t56 -39.5t51.5 -35.5q130 -97 173 -138q121 -117 132 -255q1 -15 1 -31q0 -143 -76.5 -257.5t-206.5 -176.5t-287 -62q-184 0 -313.5 83.5t-196.5 223.5l320 174
q33 -82 92 -132t139 -50q62 0 104 36t42 87q0 37 -27.5 74t-71.5 70.5t-97 70t-106 79t-97 90t-71.5 111t-27.5 134.5q0 119 70 226.5t188 173t250 65.5q263 0 438 -232z" />
    <glyph glyph-name="T" unicode="T" horiz-adv-x="1097" 
d="M1139 1436l-43 -340q-15 0 -110.5 1t-135.5 1h-45l-105 -852q-10 -90 -26 -246h-398q2 18 14.5 113t16.5 133l105 852h-45q-40 0 -135.5 -1t-110.5 -1l43 340q15 0 109.5 -1t134.5 -1h483q40 0 136.5 1t111.5 1z" />
    <glyph glyph-name="U" unicode="U" horiz-adv-x="1579" 
d="M649 1434q-2 -18 -14.5 -113t-16.5 -133l-83 -676q-3 -15 -3 -29q0 -96 64 -144t182 -48q128 0 223 61l103 836q10 90 26 246h398q-2 -18 -14.5 -113t-16.5 -133l-131 -1057q-36 -24 -65 -41t-89.5 -44t-122.5 -44t-155.5 -30t-196.5 -13q-315 0 -459.5 106t-144.5 338
q0 31 8 109l84 676q23 207 27 246h397z" />
    <glyph glyph-name="V" unicode="V" horiz-adv-x="1605" 
d="M743 -31h-32l-463 1198q-81 209 -107 267h434q26 -80 68 -191l121 -332q18 -50 35.5 -117.5t17.5 -86.5h8q3 20 31.5 82t63.5 122l196 334q85 144 107 189h442q-10 -17 -39 -62.5t-67.5 -105t-59.5 -92.5z" />
    <glyph glyph-name="W" unicode="W" horiz-adv-x="2195" 
d="M1098 717q-1 -19 -31 -84t-63 -121l-328 -569h-37l-428 1228q-84 242 -90 263h391q45 -141 66 -197l127 -348q15 -42 29 -113.5t14 -91.5h8q3 20 30 81t62 124l317 561h37l189 -561q20 -59 31.5 -120t11.5 -85h8q3 17 36 88t60 117l209 348q42 72 108 197h420
q-73 -117 -159 -263l-740 -1228h-37l-194 569q-17 50 -30 117t-13 88h-4z" />
    <glyph glyph-name="X" unicode="X" horiz-adv-x="1622" 
d="M1587 1434q-5 -6 -91.5 -113.5t-115.5 -142.5l-336 -412l304 -506q39 -66 159 -260h-475q-25 51 -82 160l-108 207q-15 29 -25.5 60t-14 48.5t-3.5 24.5h-8q-1 -6 -9.5 -24t-27.5 -49t-41 -60l-162 -207q-92 -116 -119 -160h-465q147 175 217 260l416 506l-250 412
q-18 30 -85.5 135.5t-76.5 120.5h486q41 -91 78 -156l55 -100q15 -28 26.5 -61.5t16 -54t4.5 -26.5h8q0 5 8.5 26t27.5 54.5t40 61.5l76 100q21 28 61 84t51 72h461z" />
    <glyph glyph-name="Y" unicode="Y" horiz-adv-x="1474" 
d="M481 0q2 18 14.5 113t16.5 133l55 446l-291 486q-13 22 -79 129.5t-76 126.5h465q57 -111 84 -158l69 -123q21 -38 37.5 -80.5t16.5 -60.5h8q0 8 27 52.5t61 88.5l96 125q83 109 123 156h446q-26 -34 -206 -252l-400 -482l-55 -454q-23 -207 -27 -246h-385z" />
    <glyph glyph-name="Z" unicode="Z" horiz-adv-x="1368" 
d="M807 319h158q40 0 135 1.5t110 1.5l-41 -324q-15 0 -109 1t-134 1h-971l682 948q54 76 95 121.5t56 52.5l-4 8q-27 -12 -219 -12h-129q-40 0 -136.5 -1t-111.5 -1l41 320q15 0 109.5 -1t134.5 -1h934l-672 -945q-42 -60 -90 -114t-63 -60l4 -8q30 12 221 12z" />
    <glyph glyph-name="bracketleft" unicode="[" horiz-adv-x="655" 
d="M0 -61l190 1556h322q40 0 84 1t59 1l-32 -266q-15 0 -59.5 1t-84.5 1h-55l-125 -1032h76q40 0 84 1t59 1l-33 -266q-15 0 -59 1t-84 1h-342z" />
    <glyph glyph-name="backslash" unicode="\" horiz-adv-x="907" 
d="M-35 1532l254 113q9 -19 47.5 -108.5t50.5 -117.5l562 -1263q15 -35 55 -121t47 -103l-254 -112q-9 20 -48 110t-50 115l-561 1264q-13 29 -54 116t-49 107z" />
    <glyph glyph-name="bracketright" unicode="]" horiz-adv-x="655" 
d="M682 1495l-190 -1556h-342q-40 0 -84.5 -1t-59.5 -1l33 266q15 0 59 -1t84 -1h76l125 1032h-55q-40 0 -84.5 -1t-59.5 -1l33 266q15 0 59 -1t84 -1h322z" />
    <glyph glyph-name="asciicircum" unicode="^" horiz-adv-x="1327" 
d="M700 883h-8q-18 -58 -129 -166l-223 -221l-223 227q132 124 194 186l443 432l336 -432q47 -59 149 -186l-281 -227l-170 221q-38 49 -62 95t-26 71z" />
    <glyph glyph-name="underscore" unicode="_" horiz-adv-x="1413" 
d="M1225 -84l-39 -332q-15 0 -110.5 1t-135.5 1h-717q-40 0 -135.5 -1t-110.5 -1l39 332q15 0 110.5 -1t135.5 -1h717q40 0 135.5 1t110.5 1z" />
    <glyph glyph-name="grave" unicode="`" horiz-adv-x="655" 
d="M150 1434l253 155l236 -344l-195 -119z" />
    <glyph glyph-name="a" unicode="a" horiz-adv-x="1216" 
d="M741 555l9 4q-7 21 -7 57q0 4 1 11t1 10q0 72 -48 110.5t-128 38.5q-146 0 -276 -69l-74 205q54 26 98 42t131.5 32t188.5 16q93 0 172.5 -16.5t144.5 -51t102.5 -94.5t37.5 -141q0 -20 -9 -99l-63 -516q-50 -32 -109.5 -59.5t-173.5 -55.5t-233 -28q-125 0 -216.5 25.5
t-143.5 70.5t-76.5 100t-24.5 121q0 164 121.5 271.5t333.5 107.5q90 0 155 -26.5t86 -65.5zM541 176q93 0 157 57l17 123q-16 36 -57.5 65.5t-98.5 29.5q-73 0 -117.5 -43t-44.5 -105q0 -56 38 -91.5t106 -35.5z" />
    <glyph glyph-name="b" unicode="b" horiz-adv-x="1363" 
d="M236 1464h362q-3 -22 -15.5 -123.5t-17.5 -138.5l-26 -207q-11 -70 -21 -94l6 -4q45 44 133 75.5t179 31.5q190 0 310 -113t120 -311q0 -131 -47.5 -245t-134 -197.5t-214 -131t-280.5 -47.5q-97 0 -185.5 19t-151 50t-106 62t-69.5 62l129 1050q23 221 29 262zM489 594
l-30 -256q26 -33 73 -56.5t107 -23.5q107 0 179.5 73.5t72.5 180.5q0 84 -50.5 138.5t-135.5 54.5q-134 0 -216 -111z" />
    <glyph glyph-name="c" unicode="c" horiz-adv-x="1249" 
d="M717 1004q150 0 254 -57t164 -142l-281 -201q-57 105 -172 105q-99 0 -167.5 -74.5t-68.5 -173.5q0 -85 52 -140t135 -55q63 0 118 33t91 82l262 -180q-35 -42 -80.5 -80.5t-109.5 -77t-149 -61.5t-177 -23q-227 0 -365.5 129.5t-138.5 331.5q0 156 84 290.5t230 214
t319 79.5z" />
    <glyph glyph-name="d" unicode="d" horiz-adv-x="1363" 
d="M975 1464h362q-18 -129 -32 -262l-129 -1050q-82 -72 -230.5 -132.5t-331.5 -60.5q-258 0 -400 127.5t-142 335.5q0 134 47 246t125 184t177 112t206 40q91 0 170.5 -32t111.5 -75l11 4q-5 15 -5 33q0 4 5 61l26 207q5 41 15.5 142t13.5 120zM840 338l30 256
q-53 111 -186 111q-101 0 -172.5 -75.5t-71.5 -178.5q0 -86 54.5 -139.5t144.5 -53.5q113 0 201 80z" />
    <glyph glyph-name="e" unicode="e" horiz-adv-x="1249" 
d="M1120 422h-700q-2 -10 -2 -33q0 -84 40.5 -130t119.5 -46q134 0 200 129l275 -166q-62 -90 -185 -153.5t-301 -63.5q-122 0 -217 34.5t-153.5 96t-88.5 140.5t-30 171q0 175 82.5 314.5t216.5 214t291 74.5q220 0 343.5 -124.5t123.5 -318.5q0 -34 -15 -139zM647 774
q-64 0 -117 -39t-71 -112h346q0 3 1 9t1 9q0 51 -41.5 92t-118.5 41z" />
    <glyph glyph-name="f" unicode="f" horiz-adv-x="757" 
d="M811 1454l-35 -283q-41 9 -61 9q-150 0 -174 -176l-6 -41q42 0 118.5 1t89.5 1l-30 -258q-13 0 -90 1t-119 1l-113 -914q-23 -207 -29 -246h-362q20 133 33 246l139 1127q18 146 63 254.5t111.5 173t146 95t173.5 30.5t145 -21z" />
    <glyph glyph-name="g" unicode="g" horiz-adv-x="1363" 
d="M1255 811l-104 -852q-18 -146 -105 -249.5t-217 -152.5t-292 -49q-333 0 -500 142l215 237q36 -37 62.5 -56.5t80 -35.5t127.5 -16q67 0 121 21.5t84.5 53.5t47.5 61t20 52q7 72 20 94l-8 5q-44 -44 -130 -75.5t-177 -31.5q-191 0 -312.5 114t-121.5 314q0 130 48.5 243
t135.5 196t215 130.5t280 47.5q97 0 185 -19t150.5 -50t105.5 -62t69 -62zM844 369l30 256q-68 80 -180 80q-106 0 -180 -73t-74 -179q0 -85 51.5 -140t137.5 -55q133 0 215 111z" />
    <glyph glyph-name="h" unicode="h" horiz-adv-x="1292" 
d="M612 1577q-1 -21 -15 -118t-17 -128l-35 -291q-5 -46 -23 -103.5t-26 -74.5l8 -4q43 59 136 102.5t200 43.5q147 0 237 -77t90 -235q0 -19 -4 -69l-47 -377q-10 -90 -26 -246h-363q2 18 14.5 113t16.5 133l35 286q2 14 2 41q0 69 -35 104.5t-96 35.5q-68 0 -119.5 -44
t-63.5 -143l-35 -280q-10 -90 -26 -246h-363q2 18 14.5 113t16.5 133l133 1085q4 36 15.5 131t13.5 115h362z" />
    <glyph glyph-name="i" unicode="i" horiz-adv-x="645" 
d="M547 963q-2 -17 -15.5 -112t-17.5 -134l-57 -471q-23 -207 -27 -246h-362q2 19 14 114t16 132l58 471q3 31 14.5 128t13.5 118h363zM432 1511q73 0 122.5 -49.5t49.5 -120.5q0 -87 -66 -153t-153 -66q-73 0 -123.5 50t-50.5 122q0 87 67.5 152t153.5 65z" />
    <glyph glyph-name="j" unicode="j" horiz-adv-x="645" 
d="M547 963q-2 -17 -15.5 -112t-17.5 -134l-113 -922q-26 -230 -28 -246h-363q20 133 33 246l113 922q3 31 14.5 128t13.5 118h363zM432 1511q73 0 122.5 -49.5t49.5 -120.5q0 -87 -66 -153t-153 -66q-73 0 -123.5 50t-50.5 122q0 87 67.5 152t153.5 65z" />
    <glyph glyph-name="k" unicode="k" horiz-adv-x="1370" 
d="M248 1577h362q-2 -18 -15 -113t-17 -133l-89 -725l267 238q23 20 127 119h467q-17 -15 -260 -224l-271 -231l230 -262q15 -17 98 -108.5t123 -137.5h-492q-18 20 -52 67.5t-52 67.5l-211 254l-19 -143q-3 -21 -26 -246h-363q2 18 14.5 113t16.5 133l133 1085
q4 36 15.5 131t13.5 115z" />
    <glyph glyph-name="l" unicode="l" horiz-adv-x="645" 
d="M260 1577h363q-2 -17 -15.5 -112t-17.5 -134l-133 -1085q-23 -207 -27 -246h-362q2 19 14 114t16 132l133 1085q4 36 15.5 131t13.5 115z" />
    <glyph glyph-name="m" unicode="m" horiz-adv-x="1906" 
d="M506 846l8 -4q31 61 123 111.5t207 50.5q58 0 103 -15t72 -36t47 -52.5t29 -56.5t15 -56h8q43 100 144 158t215 58q142 0 222.5 -74.5t80.5 -229.5q0 -48 -4 -77l-47 -377q-23 -207 -27 -246h-363q2 18 14.5 113t16.5 133l35 286q4 36 4 52q0 133 -111 133
q-63 0 -113 -40t-61 -132l-37 -299q-10 -90 -26 -246h-363q2 18 14.5 113t16.5 133l35 286q4 36 4 50q0 135 -117 135q-65 0 -111.5 -43t-56.5 -129l-37 -299q-10 -90 -26 -246h-363q2 18 14.5 113t16.5 133l57 471q4 36 15.5 131t13.5 115h356q-18 -105 -24 -117z" />
    <glyph glyph-name="n" unicode="n" horiz-adv-x="1286" 
d="M506 846l8 -4q32 63 115.5 112.5t199.5 49.5q144 0 237 -78t93 -236q0 -21 -4 -67l-47 -377q-23 -207 -27 -246h-362q2 18 14.5 113t16.5 133l34 286q2 14 2 43q0 69 -32.5 105.5t-91.5 36.5q-66 0 -117.5 -42.5t-61.5 -129.5l-37 -299q-10 -90 -26 -246h-363
q2 18 14.5 113t16.5 133l57 471q4 36 15.5 131t13.5 115h356q-18 -105 -24 -117z" />
    <glyph glyph-name="o" unicode="o" horiz-adv-x="1335" 
d="M717 1004q234 0 379 -131t145 -328q0 -117 -50.5 -225t-137 -187t-208.5 -126.5t-257 -47.5q-235 0 -381 131.5t-146 329.5q0 117 51.5 224.5t138.5 186.5t209 126t257 47zM680 717q-104 0 -181 -79t-77 -185q0 -89 56 -148t145 -59q106 0 182 79.5t76 186.5
q0 88 -56 146.5t-145 58.5z" />
    <glyph glyph-name="p" unicode="p" horiz-adv-x="1363" 
d="M362 -451h-362q7 50 35 263l123 999q82 72 230 132.5t331 60.5q257 0 399 -126.5t142 -334.5q0 -135 -46 -247t-123.5 -184.5t-176.5 -112.5t-207 -40q-91 0 -171 31.5t-114 75.5l-8 -5q2 -8 2 -38q0 -38 -2 -56l-21 -155q-4 -30 -15.5 -134.5t-15.5 -128.5zM494 625
l-31 -256q53 -111 186 -111q102 0 172 76.5t70 181.5q0 83 -54.5 136t-142.5 53q-60 0 -112.5 -23.5t-87.5 -56.5z" />
    <glyph glyph-name="q" unicode="q" horiz-adv-x="1363" 
d="M1102 -451h-363q1 7 35 263l21 155q8 77 20 94l-8 5q-43 -43 -130.5 -75t-178.5 -32q-191 0 -311.5 113.5t-120.5 314.5q0 174 82 313.5t237.5 221.5t357.5 82q97 0 185.5 -19t151 -50t106 -62t69.5 -62l-122 -999q-5 -40 -16.5 -141.5t-14.5 -121.5zM844 369l30 256
q-68 80 -180 80q-106 0 -180 -73t-74 -179q0 -85 51.5 -140t137.5 -55q133 0 215 111z" />
    <glyph glyph-name="r" unicode="r" horiz-adv-x="901" 
d="M899 958l-39 -321q-60 27 -125 27q-110 0 -181 -61.5t-83 -160.5l-25 -196q-10 -90 -26 -246h-363q2 18 14.5 113t16.5 133l57 471q4 36 15.5 131t13.5 115h356q-10 -98 -22 -140l10 -4q37 67 119 109.5t176 42.5q60 0 86 -13z" />
    <glyph glyph-name="s" unicode="s" horiz-adv-x="958" 
d="M934 877l-217 -211q-23 47 -70 86t-108 39q-51 0 -75 -22t-24 -48q0 -24 24.5 -46.5t63 -41.5t85.5 -40t94.5 -48t86 -59.5t63 -80t24.5 -104.5q0 -157 -123.5 -257.5t-343.5 -100.5q-315 0 -463 166l270 219q20 -35 45 -65t72.5 -58.5t99.5 -28.5q49 0 76 22t27 56
q0 24 -24 46t-62.5 42t-85 41.5t-93.5 49.5t-85.5 61t-62.5 80.5t-24 103.5q0 142 120.5 242t326.5 100q122 0 225.5 -40t157.5 -103z" />
    <glyph glyph-name="t" unicode="t" horiz-adv-x="735" 
d="M567 1229q-6 -60 -32 -246l-3 -20q41 0 110 1t79 1l-37 -308q-116 0 -188 2l-52 -413q-10 -90 -26 -246h-363q2 18 14.5 113t16.5 133l90 737q4 36 15.5 131t13.5 115h362z" />
    <glyph glyph-name="u" unicode="u" horiz-adv-x="1302" 
d="M1214 963q-2 -18 -15 -113t-17 -133l-78 -635q-67 -42 -211 -82.5t-311 -40.5q-482 0 -482 340q0 45 4 70l41 348q3 27 10 83.5t12.5 101t6.5 61.5h363q-1 -21 -15 -117.5t-18 -128.5l-35 -297q-2 -10 -2 -31q0 -65 40 -104t122 -39q72 0 141 33l53 438q4 36 15.5 131
t13.5 115h362z" />
    <glyph glyph-name="v" unicode="v" horiz-adv-x="1282" 
d="M463 0l-291 705q-14 35 -58 138.5t-51 119.5h402q43 -137 63 -187l47 -129q21 -59 37 -121t15 -80h8q5 18 36 81t64 120l74 129q2 3 104 187h392q-13 -22 -80.5 -128.5t-81.5 -129.5l-447 -705h-233z" />
    <glyph glyph-name="w" unicode="w" horiz-adv-x="1843" 
d="M926 528h-8q-4 -45 -89 -204l-172 -324h-245l-252 705q-15 43 -31.5 86t-35.5 92t-30 80h390q33 -127 53 -187l45 -137q53 -165 53 -205h8q3 17 35 86t60 119l178 324h172l110 -308q16 -42 34 -113t20 -91h8q6 37 94 204l63 121q15 27 31 58.5t35 70t29 58.5h387
q-106 -171 -156 -258l-414 -705h-225l-104 324q-20 58 -31.5 119t-11.5 85z" />
    <glyph glyph-name="x" unicode="x" horiz-adv-x="1495" 
d="M948 963h469q-30 -30 -250 -242l-213 -205l205 -252q36 -44 111.5 -133.5t109.5 -130.5h-477q-198 266 -198 311h-9q-3 -19 -39 -63.5t-116.5 -133t-102.5 -114.5h-471q49 49 145.5 137.5t133.5 124.5l260 254l-160 199q-175 208 -205 248h484l65 -103q22 -34 31.5 -50
t18 -36.5t10.5 -38.5h8q5 35 92 125z" />
    <glyph glyph-name="y" unicode="y" horiz-adv-x="1318" 
d="M1341 963q-12 -21 -172 -267l-622 -968q-23 -36 -64 -103t-47 -76h-395q12 16 43.5 64.5t73 113.5t53.5 83l219 348l-246 542q-100 210 -121 263h408q25 -72 64 -168l65 -164q21 -55 35 -109.5t14 -75.5h8q3 15 33.5 73.5t63.5 111.5l94 149q23 35 60.5 101.5t47.5 81.5
h385z" />
    <glyph glyph-name="z" unicode="z" horiz-adv-x="1073" 
d="M657 274h72q40 0 135.5 1t110.5 1l-35 -278q-15 0 -109.5 1t-134.5 1h-729l436 592q44 61 99 108l-4 9q-34 -21 -136 -21h-20q-40 0 -135.5 -1t-110.5 -1l33 279q15 0 110.5 -1t135.5 -1h672l-431 -590q-12 -17 -25.5 -32t-23.5 -25t-22 -20t-18 -14.5t-15 -11.5l-10 -6
l6 -8q24 18 149 18z" />
    <glyph glyph-name="braceleft" unicode="{" horiz-adv-x="671" 
d="M395 725q119 -20 119 -205q0 -52 -6 -98l-31 -254q-2 -10 -2 -31q0 -76 84 -76h19l-33 -274h-189q-95 0 -148.5 60t-53.5 167q0 20 4 60l35 288q6 40 6 80q0 62 -28.5 97.5t-104.5 42.5l36 295q43 3 74 17.5t49 32.5t30.5 49t17.5 56t10 64l32 264q17 133 89.5 210
t179.5 77h188l-33 -275h-18q-99 0 -111 -106l-26 -230q-31 -276 -189 -303v-8z" />
    <glyph glyph-name="bar" unicode="|" horiz-adv-x="602" 
d="M162 1669h278q0 -15 -1 -110.5t-1 -135.5v-1382q0 -40 1 -135.5t1 -110.5h-278q0 15 1 110.5t1 135.5v1382q0 40 -1 135.5t-1 110.5z" />
    <glyph glyph-name="braceright" unicode="}" horiz-adv-x="671" 
d="M303 725v8q-119 20 -119 201q0 28 9 102l26 230q2 10 2 30q0 76 -84 76h-18l33 275h188q95 0 149 -61.5t54 -168.5q0 -17 -4 -57l-33 -264q-6 -41 -6 -76q0 -64 28.5 -100.5t104.5 -42.5l-37 -295q-42 -3 -73 -17.5t-49.5 -33t-30.5 -49t-17.5 -56.5t-9.5 -64l-35 -288
q-17 -133 -89.5 -210t-178.5 -77h-187l31 274h18q99 0 111 107l31 254q31 276 186 303z" />
    <glyph glyph-name="asciitilde" unicode="~" horiz-adv-x="1486" 
d="M307 508l-272 49q49 162 189.5 267.5t301.5 105.5q22 0 58 -4l428 -58q6 -2 22 -2q61 0 113.5 42t69.5 106l272 -49q-49 -161 -189.5 -267t-300.5 -106q-23 0 -59 4l-424 59q-3 0 -10 1t-10 1q-61 0 -116.5 -43.5t-72.5 -105.5z" />
    <glyph glyph-name="uni00A0" unicode="&#xa0;" horiz-adv-x="819" 
 />
    <glyph glyph-name="exclamdown" unicode="&#xa1;" horiz-adv-x="643" 
d="M381 -451h-381q20 133 33 246l55 451q4 36 15.5 131t13.5 115h381q-2 -17 -15.5 -112t-17.5 -134l-55 -451q-23 -207 -29 -246zM322 573q-89 0 -147 57t-58 142q0 102 79 177t181 75q87 0 145 -56.5t58 -140.5q0 -102 -77.5 -178t-180.5 -76z" />
    <glyph glyph-name="cent" unicode="&#xa2;" horiz-adv-x="1249" 
d="M377 -209q21 164 26 193q-146 46 -232.5 164.5t-86.5 273.5q0 192 124 346.5t316 208.5q3 42 23 194h362q-1 -7 -11 -79.5t-15 -114.5q89 -28 154.5 -75t95.5 -97l-281 -201q-57 105 -168 105q-102 0 -171 -74t-69 -178q0 -80 54 -135.5t135 -55.5q122 0 207 115
l262 -178q-131 -162 -340 -219q-6 -43 -14 -115.5t-9 -77.5h-362z" />
    <glyph glyph-name="sterling" unicode="&#xa3;" horiz-adv-x="1370" 
d="M1309 1077l-373 -73q-3 68 -50.5 111.5t-140.5 43.5q-72 0 -133 -46.5t-61 -133.5q0 -49 20 -117h131q40 0 135.5 1t110.5 1l-37 -299q-15 0 -109 1t-134 1h-45q-13 -79 -55 -137.5t-105 -87.5l2 -6q45 20 110 20q60 0 174 -36.5t164 -36.5q141 0 285 112l66 -303
q-206 -133 -410 -133q-69 0 -138 23.5t-134.5 47t-126.5 23.5q-101 0 -181 -20.5t-194 -73.5l-78 322q82 24 141 75t84 105t25 106q-42 0 -125 -1t-96 -1l37 299q6 0 48.5 -1t71.5 -1q-20 86 -20 135q0 100 37.5 181.5t99 135.5t143.5 91t168.5 53.5t176.5 16.5
q142 0 242.5 -29.5t157 -86t83.5 -124.5t33 -158z" />
    <glyph glyph-name="currency" unicode="&#xa4;" horiz-adv-x="1556" 
d="M850 1200q123 0 217 -51l193 174l194 -221l-197 -170q29 -82 29 -162q0 -157 -84 -287l154 -168l-248 -221q-53 66 -150 172q-107 -49 -227 -49q-121 0 -221 49l-188 -172l-195 221l192 168q-24 71 -24 156q0 163 80 293q-52 65 -150 170l248 221l145 -174q108 51 232 51
zM817 926q-92 0 -162.5 -73t-70.5 -173q0 -80 51 -134t129 -54q92 0 162.5 72t70.5 171q0 82 -51 136.5t-129 54.5z" />
    <glyph glyph-name="yen" unicode="&#xa5;" horiz-adv-x="1474" 
d="M1313 915l-31 -258q-15 0 -110.5 1t-135.5 1h-92l-18 -147h92q40 0 135.5 1t110.5 1l-31 -258q-15 0 -110.5 1t-135.5 1h-92l-2 -12q-23 -207 -27 -246h-385q2 18 14.5 113t16.5 133l2 12h-92q-40 0 -135.5 -1t-110.5 -1l31 258q15 0 110.5 -1t135.5 -1h92l18 147h-92
q-40 0 -135.5 -1t-110.5 -1l31 258q9 0 73.5 -1t104.5 -1l-158 265q-13 22 -79 129.5t-76 126.5h465q57 -111 84 -158l69 -123q21 -38 37.5 -80.5t16.5 -60.5h8q0 8 27 52.5t61 88.5l96 125q83 109 123 156h446q-77 -100 -206 -252l-224 -269q41 0 110 1t79 1z" />
    <glyph glyph-name="brokenbar" unicode="&#xa6;" horiz-adv-x="602" 
d="M162 625h278q0 -15 -1 -110.5t-1 -135.5v-338q0 -40 1 -135.5t1 -110.5h-278q0 15 1 110.5t1 135.5v338q0 40 -1 135.5t-1 110.5zM162 1669h278q0 -15 -1 -110.5t-1 -135.5v-338q0 -40 1 -135t1 -110h-278q0 15 1 110t1 135v338q0 40 -1 135.5t-1 110.5z" />
    <glyph glyph-name="section" unicode="&#xa7;" horiz-adv-x="1294" 
d="M1190 594q-28 -238 -234 -332q111 -100 111 -227q0 -119 -72 -217.5t-199 -154.5t-282 -56q-224 0 -341.5 96.5t-117.5 263.5q0 22 4 62h369q0 -3 -1 -9.5t-1 -9.5q0 -54 36.5 -89.5t104.5 -35.5q65 0 108.5 40t43.5 100q0 16 -3.5 29.5t-12 24.5t-16.5 19t-25.5 15
t-29.5 12t-36.5 10.5t-40 8.5t-47 8.5t-49.5 9.5q-180 36 -272.5 115t-92.5 225q0 148 63 248.5t171 148.5q-107 93 -107 223q0 121 70.5 220t197.5 156.5t285 57.5q223 0 341 -97t118 -263q0 -21 -4 -61h-369v16q0 55 -36 91t-103 36q-66 0 -109 -39.5t-43 -99.5
q0 -16 3 -29.5t12 -24.5t17 -19t25.5 -15.5t29.5 -12t37 -10t40 -8.5t47 -9.5t49 -9.5q180 -36 272.5 -115t92.5 -227q0 -19 -4 -65zM827 582q0 4 1 12t1 12q0 56 -37 82.5t-120 52.5q-100 -8 -157.5 -52.5t-57.5 -129.5q0 -58 38 -85.5t121 -51.5q194 17 211 160z" />
    <glyph glyph-name="dieresis" unicode="&#xa8;" horiz-adv-x="1105" 
d="M401 1464q73 0 122.5 -50t49.5 -122q0 -87 -66.5 -152t-152.5 -65q-73 0 -122.5 49t-49.5 121q0 88 65.5 153.5t153.5 65.5zM913 1464q73 0 122.5 -50t49.5 -122q0 -87 -66.5 -152t-152.5 -65q-73 0 -122.5 49t-49.5 121q0 88 65.5 153.5t153.5 65.5z" />
    <glyph glyph-name="copyright" unicode="&#xa9;" horiz-adv-x="1679" 
d="M946 1475q189 0 343 -87.5t240.5 -239t86.5 -335.5q0 -169 -71 -327.5t-188 -273t-274.5 -184t-322.5 -69.5q-190 0 -344.5 88t-241 240.5t-86.5 337.5q0 168 72 325.5t189.5 272t275 183.5t321.5 69zM922 1270q-118 0 -230.5 -50.5t-197 -134.5t-136 -199.5
t-51.5 -238.5q0 -205 135.5 -344t341.5 -139q119 0 232 50.5t196.5 135t134 200t50.5 238.5q0 205 -135.5 343.5t-339.5 138.5zM905 1106q175 0 281 -137l-180 -138q-20 33 -53.5 51.5t-71.5 18.5q-76 0 -137.5 -63t-61.5 -146q0 -68 44 -114t108 -46q92 0 155 84l144 -141
q-64 -68 -147.5 -107.5t-176.5 -39.5q-150 0 -247 98.5t-97 245.5q0 115 62 216t163.5 159.5t214.5 58.5z" />
    <glyph glyph-name="ordfeminine" unicode="&#xaa;" horiz-adv-x="700" 
d="M524 1208l2 2q0 61 -23.5 89t-86.5 28q-82 0 -164 -37l-49 119q113 51 254 51q74 0 133 -16t99 -56t40 -100q0 -35 -2 -53l-37 -289q-47 -29 -126.5 -54.5t-182.5 -25.5q-144 0 -209.5 49.5t-65.5 128.5q0 95 71 155.5t200 60.5q54 0 94 -15.5t53 -38.5v2zM406 1001
q55 0 92 31l8 62q-9 18 -34 33.5t-60 15.5q-42 0 -68.5 -21.5t-26.5 -52.5q0 -30 23.5 -49t65.5 -19z" />
    <glyph glyph-name="guillemotleft" unicode="&#xab;" horiz-adv-x="1146" 
d="M684 250l-154 262l220 262q153 186 174 211l170 -137l-277 -336l195 -336l-205 -137q-23 37 -64 109.5t-59 101.5zM219 250l-153 262l219 262q153 186 174 211l170 -137l-277 -336l195 -336l-205 -137q-23 37 -64 109.5t-59 101.5z" />
    <glyph glyph-name="logicalnot" unicode="&#xac;" horiz-adv-x="1466" 
d="M410 893h893v-291q0 -40 1 -135.5t1 -110.5h-324q0 158 2 230h-573q-40 0 -135.5 -1t-110.5 -1v311q15 0 110.5 -1t135.5 -1z" />
    <glyph glyph-name="uni00AD" unicode="&#xad;" horiz-adv-x="870" 
d="M88 662q7 0 55 -1.5t68 -1.5h461q20 0 68 1.5t55 1.5l-41 -332q-7 0 -55 1t-68 1h-461q-20 0 -68 -1t-55 -1z" />
    <glyph glyph-name="registered" unicode="&#xae;" horiz-adv-x="1679" 
d="M555 1085h358q103 0 168.5 -69.5t65.5 -171.5q0 -157 -115 -209q-17 -10 -35 -10h-2l-2 -4q22 -11 31 -29l68 -125q13 -27 69 -119h-229q-6 13 -25.5 47.5t-27.5 50.5l-82 158h-25v-123q0 -22 1 -73.5t1 -59.5h-221q0 8 1 59.5t1 73.5v604zM772 918v-146h88
q29 0 49.5 21.5t20.5 50.5q0 31 -20.5 52.5t-49.5 21.5h-88zM840 1475q154 0 294 -60t241.5 -161.5t161.5 -242t60 -294.5t-60 -294.5t-161.5 -242t-241.5 -161.5t-294 -60t-294.5 60t-242 161.5t-161.5 242t-60 294.5t60 294.5t161.5 242t242 161.5t294.5 60zM840 1270
q-147 0 -271.5 -74t-197 -201.5t-72.5 -277.5t72.5 -277.5t197 -201.5t271.5 -74q110 0 210 44t172.5 118t115 176.5t42.5 214.5t-42.5 214.5t-115 176.5t-172.5 118t-210 44z" />
    <glyph glyph-name="macron" unicode="&#xaf;" horiz-adv-x="962" 
d="M293 1333q7 0 55 -1t68 -1h307q20 0 68 1t55 1l-31 -250q-7 0 -54 1t-67 1h-307q-20 0 -69 -1t-56 -1z" />
    <glyph glyph-name="degree" unicode="&#xb0;" horiz-adv-x="733" 
d="M471 1458q131 0 219 -86t88 -213q0 -99 -55.5 -186.5t-146 -139t-189.5 -51.5q-131 0 -219 85t-88 210q0 100 54.5 188.5t145 140.5t191.5 52zM449 1270q-68 0 -121.5 -50.5t-53.5 -117.5q0 -56 40 -93.5t98 -37.5q68 0 120 50.5t52 117.5q0 56 -38.5 93.5t-96.5 37.5z
" />
    <glyph glyph-name="plusminus" unicode="&#xb1;" horiz-adv-x="1466" 
d="M889 1513q0 -15 -1 -110t-1 -135v-170h170q40 0 135.5 1t110.5 1v-312q-15 0 -110.5 1.5t-135.5 1.5h-170v-170q0 -40 1 -135.5t1 -110.5h-311q0 15 1 110.5t1 135.5v170h-170q-40 0 -135.5 -1.5t-110.5 -1.5v312q15 0 110.5 -1t135.5 -1h170v170q0 40 -1 135t-1 110h311
zM1303 219v-311q-15 0 -110.5 1t-135.5 1h-647q-40 0 -135.5 -1t-110.5 -1v311q15 0 110.5 -1t135.5 -1h647q40 0 135.5 1t110.5 1z" />
    <glyph glyph-name="twosuperior" unicode="&#x2072;" horiz-adv-x="796" 
d="M94 860q235 204 348 320q33 34 51.5 56t37 56.5t18.5 63.5q0 67 -64 67q-43 0 -68.5 -30.5t-31.5 -81.5h-213q15 125 105 205.5t229 80.5q122 0 194 -64.5t72 -162.5q0 -69 -28 -121.5t-91 -105.5l-98 -82q-6 -5 -18.5 -14.5t-18.5 -14.5q28 4 53 4h172l-22 -176h-627z
" />
    <glyph glyph-name="twosuperior" unicode="&#xb2;" horiz-adv-x="796" 
d="M94 860q235 204 348 320q33 34 51.5 56t37 56.5t18.5 63.5q0 67 -64 67q-43 0 -68.5 -30.5t-31.5 -81.5h-213q15 125 105 205.5t229 80.5q122 0 194 -64.5t72 -162.5q0 -69 -28 -121.5t-91 -105.5l-98 -82q-6 -5 -18.5 -14.5t-18.5 -14.5q28 4 53 4h172l-22 -176h-627z
" />
    <glyph glyph-name="threesuperior" unicode="&#x2073;" horiz-adv-x="786" 
d="M514 1597q105 0 168 -52.5t63 -133.5q0 -57 -25.5 -96.5t-62.5 -59.5q44 -15 70.5 -55t26.5 -94q0 -120 -95 -193t-231 -73q-127 0 -204 70.5t-77 176.5q0 4 1.5 11.5t1.5 11.5h206q7 -94 88 -94q50 0 75.5 26.5t25.5 67.5q0 29 -22.5 47.5t-69.5 18.5h-27l16 135h15
q88 0 88 71q0 22 -16 37t-42 15q-33 0 -55.5 -24t-25.5 -58h-193q11 101 96 173t205 72z" />
    <glyph glyph-name="threesuperior" unicode="&#xb3;" horiz-adv-x="786" 
d="M514 1597q105 0 168 -52.5t63 -133.5q0 -57 -25.5 -96.5t-62.5 -59.5q44 -15 70.5 -55t26.5 -94q0 -120 -95 -193t-231 -73q-127 0 -204 70.5t-77 176.5q0 4 1.5 11.5t1.5 11.5h206q7 -94 88 -94q50 0 75.5 26.5t25.5 67.5q0 29 -22.5 47.5t-69.5 18.5h-27l16 135h15
q88 0 88 71q0 22 -16 37t-42 15q-33 0 -55.5 -24t-25.5 -58h-193q11 101 96 173t205 72z" />
    <glyph glyph-name="acute" unicode="&#xb4;" horiz-adv-x="655" 
d="M494 1589l213 -155l-369 -308l-166 119z" />
    <glyph glyph-name="mu" unicode="&#xb5;" horiz-adv-x="1302" 
d="M1214 963q-2 -18 -15 -113t-17 -133l-78 -635q-68 -42 -210.5 -82.5t-309.5 -40.5q-104 0 -168 41l-10 -4q2 -8 2 -39q0 -37 -2 -55l-13 -90q-4 -30 -15.5 -134.5t-15.5 -128.5h-362q7 50 35 263l110 905q4 36 15.5 131t13.5 115h363q-1 -21 -15 -117.5t-18 -128.5
l-35 -297q-2 -10 -2 -31q0 -66 39.5 -104.5t124.5 -38.5q70 0 139 33l53 438q4 36 15.5 131t13.5 115h362z" />
    <glyph glyph-name="paragraph" unicode="&#xb6;" horiz-adv-x="1382" 
d="M68 1075q19 149 141.5 254t279.5 105h691q38 0 97.5 1t68.5 1l-37 -287q-74 0 -125 2l-168 -1356q-23 -207 -27 -246h-270q2 18 14.5 113t16.5 133l168 1356h-195l-168 -1356q-23 -207 -27 -246h-270q2 18 14.5 113t16.5 133l112 922q-145 0 -240 90.5t-95 224.5
q0 29 2 43z" />
    <glyph glyph-name="periodcentered" unicode="&#xb7;" horiz-adv-x="1097" 
d="M592 963q89 0 147 -57t58 -142q0 -101 -79.5 -176.5t-180.5 -75.5q-88 0 -145.5 56t-57.5 141q0 102 77.5 178t180.5 76z" />
    <glyph glyph-name="cedilla" unicode="&#xb8;" horiz-adv-x="614" 
d="M-8 -328l252 262l147 -135l-278 -233z" />
    <glyph glyph-name="onesuperior" unicode="&#x2071;" horiz-adv-x="786" 
d="M635 1577l-57 -471q-4 -36 -15.5 -131t-13.5 -115h-217q2 17 15.5 112t17.5 134l36 303h-100l21 168h313z" />
    <glyph glyph-name="onesuperior" unicode="&#xb9;" horiz-adv-x="786" 
d="M635 1577l-57 -471q-4 -36 -15.5 -131t-13.5 -115h-217q2 17 15.5 112t17.5 134l36 303h-100l21 168h313z" />
    <glyph glyph-name="ordmasculine" unicode="&#xba;" horiz-adv-x="790" 
d="M504 1458q142 0 228.5 -75.5t86.5 -188.5q0 -134 -113 -232t-276 -98q-140 0 -227.5 76t-87.5 188q0 134 113.5 232t275.5 98zM483 1286q-63 0 -108 -41t-45 -98q0 -46 35 -78.5t88 -32.5q63 0 107 41.5t44 98.5q0 48 -33 79t-88 31z" />
    <glyph glyph-name="guillemotright" unicode="&#xbb;" horiz-adv-x="1146" 
d="M592 512l-219 -262q-12 -15 -75.5 -93.5t-96.5 -117.5l-172 137l276 336l-194 336l206 137q22 -36 62 -107.5t59 -103.5zM1057 512l-219 -262q-12 -15 -75 -93.5t-97 -117.5l-172 137l276 336l-195 336l207 137q22 -36 62 -107.5t59 -103.5z" />
    <glyph glyph-name="onequarter" unicode="&#xbc;" horiz-adv-x="1005" 
d="M365 776h319q40 0 135.5 1t110.5 1l-23 -188q-15 0 -110 1t-135 1h-320q-40 0 -135.5 -1t-110.5 -1l23 188q15 0 110.5 -1t135.5 -1zM723 1577l-57 -471q-4 -36 -15.5 -131t-13.5 -115h-217q2 17 15.5 112t17.5 134l36 303h-100l21 168h313zM707 492l-50 -408h99
l-21 -168h-98q-2 -12 -7.5 -66t-8.5 -75h-209q12 98 20 141h-360l16 141l350 435h269zM481 303q-28 -40 -47 -63l-90 -111q-22 -28 -47 -49q40 4 68 4h88l16 145q1 7 5 34t7 40z" />
    <glyph glyph-name="onehalf" unicode="&#xbd;" horiz-adv-x="1005" 
d="M365 776h319q40 0 135.5 1t110.5 1l-23 -188q-15 0 -110 1t-135 1h-320q-40 0 -135.5 -1t-110.5 -1l23 188q15 0 110.5 -1t135.5 -1zM63 -225q248 216 349 319q32 33 51 55.5t37 57t18 63.5q0 68 -63 68q-43 0 -69 -31t-32 -82h-213q15 125 105 206t229 81
q122 0 194 -64.5t72 -162.5q0 -69 -27.5 -122.5t-90.5 -105.5l-99 -82q-6 -5 -18.5 -14t-18.5 -14q28 4 54 4h172l-23 -176h-627zM723 1577l-57 -471q-4 -36 -15.5 -131t-13.5 -115h-217q2 17 15.5 112t17.5 134l36 303h-100l21 168h313z" />
    <glyph glyph-name="threequarters" unicode="&#xbe;" horiz-adv-x="1005" 
d="M365 776h319q40 0 135.5 1t110.5 1l-23 -188q-15 0 -110 1t-135 1h-320q-40 0 -135.5 -1t-110.5 -1l23 188q15 0 110.5 -1t135.5 -1zM629 1597q105 0 168 -52.5t63 -133.5q0 -57 -25.5 -96.5t-62.5 -59.5q44 -15 70 -54.5t26 -94.5q0 -120 -94.5 -193t-230.5 -73
q-127 0 -204 70.5t-77 176.5q0 4 1 11.5t1 11.5h207q7 -94 88 -94q50 0 75 26.5t25 67.5q0 29 -22.5 47.5t-69.5 18.5h-26l16 135h14q88 0 88 71q0 22 -15.5 37t-41.5 15q-33 0 -56 -24.5t-26 -57.5h-192q11 101 96 173t205 72zM707 492l-50 -408h99l-21 -168h-98
q-2 -12 -7.5 -66t-8.5 -75h-209q12 98 20 141h-360l16 141l350 435h269zM481 303q-28 -40 -47 -63l-90 -111q-22 -28 -47 -49q40 4 68 4h88l16 145q1 7 5 34t7 40z" />
    <glyph glyph-name="questiondown" unicode="&#xbf;" horiz-adv-x="1142" 
d="M713 135h-92q-91 0 -165.5 -55.5t-74.5 -132.5q0 -50 32 -84.5t81 -34.5q60 0 98.5 40t46.5 103h381q-14 -108 -65 -197t-128 -146.5t-172.5 -88.5t-199.5 -31q-201 0 -329 113t-128 283q0 77 24.5 146t63.5 119.5t89.5 90t102.5 62t101 30.5h2q13 135 16 152h363
q-20 -133 -33 -246zM627 1024q87 0 144.5 -56.5t57.5 -140.5q0 -102 -77.5 -178t-180.5 -76q-89 0 -146.5 57t-57.5 142q0 102 79 177t181 75z" />
    <glyph glyph-name="Agrave" unicode="&#xc0;" 
d="M879 1483h41l460 -1260q50 -137 86 -223h-407q-6 22 -25 73.5t-24 69.5l-9 29h-522l-16 -29q-4 -8 -35.5 -62.5t-44.5 -80.5h-420q9 15 34.5 56t58 92.5t46.5 74.5zM709 463h129q56 0 71 -10l4 8q-10 5 -26 51l-37 104q-35 97 -35 152v4h-8q-7 -36 -74 -156l-59 -104
q-23 -42 -41 -51l4 -8q10 10 72 10zM395 1806l254 156l236 -344l-195 -119z" />
    <glyph glyph-name="Aacute" unicode="&#xc1;" 
d="M879 1483h41l460 -1260q50 -137 86 -223h-407q-6 22 -25 73.5t-24 69.5l-9 29h-522l-16 -29q-4 -8 -35.5 -62.5t-44.5 -80.5h-420q9 15 34.5 56t58 92.5t46.5 74.5zM709 463h129q56 0 71 -10l4 8q-10 5 -26 51l-37 104q-35 97 -35 152v4h-8q-7 -36 -74 -156l-59 -104
q-23 -42 -41 -51l4 -8q10 10 72 10zM1260 1962l213 -156l-369 -307l-166 119z" />
    <glyph glyph-name="Acircumflex" unicode="&#xc2;" 
d="M879 1483h41l460 -1260q50 -137 86 -223h-407q-6 22 -25 73.5t-24 69.5l-9 29h-522l-16 -29q-4 -8 -35.5 -62.5t-44.5 -80.5h-420q9 15 34.5 56t58 92.5t46.5 74.5zM709 463h129q56 0 71 -10l4 8q-10 5 -26 51l-37 104q-35 97 -35 152v4h-8q-7 -36 -74 -156l-59 -104
q-23 -42 -41 -51l4 -8q10 10 72 10zM1313 1679l-154 -168l-241 140l-279 -140l-113 168l426 256z" />
    <glyph glyph-name="Atilde" unicode="&#xc3;" 
d="M879 1483h41l460 -1260q50 -137 86 -223h-407q-6 22 -25 73.5t-24 69.5l-9 29h-522l-16 -29q-4 -8 -35.5 -62.5t-44.5 -80.5h-420q9 15 34.5 56t58 92.5t46.5 74.5zM709 463h129q56 0 71 -10l4 8q-10 5 -26 51l-37 104q-35 97 -35 152v4h-8q-7 -36 -74 -156l-59 -104
q-23 -42 -41 -51l4 -8q10 10 72 10zM1169 1956l238 -41q-37 -120 -149.5 -204.5t-235.5 -84.5q-35 0 -51 4l-154 27q-3 0 -8 1t-8 1q-35 0 -69 -28t-44 -66l-237 41q35 119 147.5 203.5t235.5 84.5q17 0 53 -4l151 -26q4 -2 17 -2q37 0 70 28t44 66z" />
    <glyph glyph-name="Adieresis" unicode="&#xc4;" 
d="M879 1483h41l460 -1260q50 -137 86 -223h-407q-6 22 -25 73.5t-24 69.5l-9 29h-522l-16 -29q-4 -8 -35.5 -62.5t-44.5 -80.5h-420q9 15 34.5 56t58 92.5t46.5 74.5zM709 463h129q56 0 71 -10l4 8q-10 5 -26 51l-37 104q-35 97 -35 152v4h-8q-7 -36 -74 -156l-59 -104
q-23 -42 -41 -51l4 -8q10 10 72 10zM702 1966q73 0 122.5 -50t49.5 -122q0 -87 -66.5 -152t-152.5 -65q-73 0 -122.5 49t-49.5 121q0 88 65.5 153.5t153.5 65.5zM1214 1966q73 0 122.5 -50t49.5 -122q0 -87 -66.5 -152t-152.5 -65q-73 0 -122.5 49t-49.5 121
q0 88 65.5 153.5t153.5 65.5z" />
    <glyph glyph-name="Aring" unicode="&#xc5;" 
d="M879 1483h41l460 -1260q50 -137 86 -223h-407q-6 22 -25 73.5t-24 69.5l-9 29h-522l-16 -29q-4 -8 -35.5 -62.5t-44.5 -80.5h-420q9 15 34.5 56t58 92.5t46.5 74.5zM709 463h129q56 0 71 -10l4 8q-10 5 -26 51l-37 104q-35 97 -35 152v4h-8q-7 -36 -74 -156l-59 -104
q-23 -42 -41 -51l4 -8q10 10 72 10zM958 1997q112 0 176 -59t64 -150q0 -108 -84 -185t-215 -77q-112 0 -174.5 57.5t-62.5 147.5q0 110 82 188t214 78zM936 1825q-42 0 -66 -21.5t-24 -52.5q0 -24 20 -38.5t56 -14.5q40 0 65 20t25 49q0 26 -20 42t-56 16z" />
    <glyph glyph-name="AE" unicode="&#xc6;" horiz-adv-x="1861" 
d="M889 0l20 172h-397l-12 -16l-117 -156h-436q143 176 209 260l905 1174h524q40 0 136.5 1t111.5 1l-43 -340q-15 0 -110.5 1t-135.5 1h-160l-24 -213h82q40 0 135.5 1t110.5 1l-43 -340q-15 0 -110.5 1t-135.5 1h-82l-25 -213h193q40 0 135.5 1t110.5 1l-43 -340
q-15 0 -109.5 1t-134.5 1h-555zM723 451q4 4 25.5 8t46.5 4h149l23 186q13 120 37 164l-11 4q-13 -30 -25 -49.5t-55 -75.5l-139 -180q-23 -31 -55 -53z" />
    <glyph glyph-name="Ccedilla" unicode="&#xc7;" horiz-adv-x="1564" 
d="M1231 463l221 -264q-123 -114 -292 -177t-351 -63q-165 0 -298 50.5t-220 140t-133.5 209t-46.5 259.5q0 175 66 332.5t180.5 273t279.5 183.5t354 68q354 0 553 -232l-276 -254q-132 150 -318 150q-86 0 -165.5 -33t-141.5 -92t-99.5 -151t-37.5 -201
q0 -162 99.5 -260.5t246.5 -98.5q116 0 200 40t179 120zM801 -66l-252 -262l121 -106l278 233z" />
    <glyph glyph-name="Egrave" unicode="&#xc8;" horiz-adv-x="1060" 
d="M80 0l174 1434h530q40 0 136.5 1t111.5 1l-43 -340q-15 0 -110.5 1t-135.5 1h-168l-24 -213h90q40 0 135.5 1t110.5 1l-43 -340q-15 0 -110.5 1t-135.5 1h-90l-25 -213h201q40 0 135.5 1t110.5 1l-43 -340q-15 0 -109.5 1t-134.5 1h-563zM305 1806l254 156l236 -344
l-195 -119z" />
    <glyph glyph-name="Eacute" unicode="&#xc9;" horiz-adv-x="1060" 
d="M80 0l174 1434h530q40 0 136.5 1t111.5 1l-43 -340q-15 0 -110.5 1t-135.5 1h-168l-24 -213h90q40 0 135.5 1t110.5 1l-43 -340q-15 0 -110.5 1t-135.5 1h-90l-25 -213h201q40 0 135.5 1t110.5 1l-43 -340q-15 0 -109.5 1t-134.5 1h-563zM731 1962l213 -156l-369 -307
l-165 119z" />
    <glyph glyph-name="Ecircumflex" unicode="&#xca;" horiz-adv-x="1060" 
d="M80 0l174 1434h530q40 0 136.5 1t111.5 1l-43 -340q-15 0 -110.5 1t-135.5 1h-168l-24 -213h90q40 0 135.5 1t110.5 1l-43 -340q-15 0 -110.5 1t-135.5 1h-90l-25 -213h201q40 0 135.5 1t110.5 1l-43 -340q-15 0 -109.5 1t-134.5 1h-563zM1053 1679l-154 -168l-242 140
l-278 -140l-113 168l426 256z" />
    <glyph glyph-name="Edieresis" unicode="&#xcb;" horiz-adv-x="1060" 
d="M80 0l174 1434h530q40 0 136.5 1t111.5 1l-43 -340q-15 0 -110.5 1t-135.5 1h-168l-24 -213h90q40 0 135.5 1t110.5 1l-43 -340q-15 0 -110.5 1t-135.5 1h-90l-25 -213h201q40 0 135.5 1t110.5 1l-43 -340q-15 0 -109.5 1t-134.5 1h-563zM440 1966q73 0 122.5 -50
t49.5 -122q0 -87 -66.5 -152t-152.5 -65q-73 0 -122.5 49t-49.5 121q0 88 65.5 153.5t153.5 65.5zM952 1966q73 0 122.5 -50t49.5 -122q0 -87 -66.5 -152t-152.5 -65q-73 0 -122.5 49t-49.5 121q0 88 65.5 153.5t153.5 65.5z" />
    <glyph glyph-name="Igrave" unicode="&#xcc;" horiz-adv-x="720" 
d="M262 1434h397q-2 -19 -14 -114t-16 -132l-117 -942q-23 -207 -27 -246h-397q2 18 14.5 113t16.5 133l117 942q10 90 26 246zM121 1915l254 156l235 -345l-194 -118z" />
    <glyph glyph-name="Iacute" unicode="&#xcd;" horiz-adv-x="720" 
d="M262 1434h397q-2 -19 -14 -114t-16 -132l-117 -942q-23 -207 -27 -246h-397q2 18 14.5 113t16.5 133l117 942q10 90 26 246zM670 2071l213 -156l-369 -307l-166 118z" />
    <glyph glyph-name="Icircumflex" unicode="&#xce;" horiz-adv-x="720" 
d="M262 1434h397q-2 -19 -14 -114t-16 -132l-117 -942q-23 -207 -27 -246h-397q2 18 14.5 113t16.5 133l117 942q10 90 26 246zM885 1679l-154 -168l-242 140l-278 -140l-113 168l426 256z" />
    <glyph glyph-name="Idieresis" unicode="&#xcf;" horiz-adv-x="720" 
d="M262 1434h397q-2 -19 -14 -114t-16 -132l-117 -942q-23 -207 -27 -246h-397q2 18 14.5 113t16.5 133l117 942q10 90 26 246zM272 1966q73 0 122.5 -50t49.5 -122q0 -87 -66.5 -152t-152.5 -65q-73 0 -122.5 49t-49.5 121q0 88 65.5 153.5t153.5 65.5zM784 1966
q73 0 122.5 -50t49.5 -122q0 -87 -66.5 -152t-152.5 -65q-73 0 -122.5 49t-49.5 121q0 88 65.5 153.5t153.5 65.5z" />
    <glyph glyph-name="Eth" unicode="&#xd0;" horiz-adv-x="1566" 
d="M74 879q7 0 55 -1t68 -1h30l68 557h571q186 0 327.5 -81.5t215.5 -221t74 -314.5q0 -130 -38 -251.5t-111 -223.5t-173.5 -179t-233 -120t-280.5 -43h-526l65 549h-30q-20 0 -68 -1t-55 -1zM649 1110l-28 -233h77q20 0 68 1t55 1l-41 -332q-7 0 -55 1t-68 1h-77l-27 -221
h131q162 0 282.5 133.5t120.5 316.5q0 146 -87 239t-228 93h-123z" />
    <glyph glyph-name="Ntilde" unicode="&#xd1;" horiz-adv-x="1644" 
d="M260 1470h37l721 -634q17 -15 28.5 -25.5t22 -24t14 -18.5t16 -25.5t17.5 -27.5l8 2q0 3 -1 18t-1 27q0 49 8 106l39 320q23 207 27 246h397q-2 -19 -14 -114t-16 -132l-152 -1225h-37l-717 658q-42 38 -57 56.5t-43 63.5l-8 -2q0 -3 1 -18.5t1 -28.5q0 -61 -6 -104
l-43 -342q-7 -49 -27 -246h-397q2 18 14.5 113t16.5 133zM1178 1915l237 -41q-37 -120 -149.5 -204.5t-235.5 -84.5q-35 0 -51 4l-154 27q-3 0 -8 1t-8 1q-35 0 -69 -28t-44 -66l-237 41q35 119 147.5 203.5t235.5 84.5q17 0 53 -4l152 -26q4 -2 16 -2q37 0 70.5 28t44.5 66
z" />
    <glyph glyph-name="Ograve" unicode="&#xd2;" horiz-adv-x="1785" 
d="M995 1475q152 0 284 -51.5t223.5 -140.5t143.5 -211.5t52 -260.5q0 -135 -46 -264.5t-129 -234.5t-192.5 -185t-244.5 -124t-277 -44q-153 0 -285 51.5t-224 140.5t-144 212t-52 262q0 169 72.5 326t193 271.5t285 183.5t340.5 69zM950 1110q-117 0 -221 -60
t-166.5 -162.5t-62.5 -219.5q0 -147 100.5 -245.5t253.5 -98.5q179 0 312.5 131.5t133.5 310.5q0 146 -99 245t-251 99zM575 1806l254 156l236 -344l-195 -119z" />
    <glyph glyph-name="Oacute" unicode="&#xd3;" horiz-adv-x="1785" 
d="M995 1475q152 0 284 -51.5t223.5 -140.5t143.5 -211.5t52 -260.5q0 -135 -46 -264.5t-129 -234.5t-192.5 -185t-244.5 -124t-277 -44q-153 0 -285 51.5t-224 140.5t-144 212t-52 262q0 169 72.5 326t193 271.5t285 183.5t340.5 69zM950 1110q-117 0 -221 -60
t-166.5 -162.5t-62.5 -219.5q0 -147 100.5 -245.5t253.5 -98.5q179 0 312.5 131.5t133.5 310.5q0 146 -99 245t-251 99zM1268 1962l213 -156l-369 -307l-166 119z" />
    <glyph glyph-name="Ocircumflex" unicode="&#xd4;" horiz-adv-x="1785" 
d="M995 1475q152 0 284 -51.5t223.5 -140.5t143.5 -211.5t52 -260.5q0 -135 -46 -264.5t-129 -234.5t-192.5 -185t-244.5 -124t-277 -44q-153 0 -285 51.5t-224 140.5t-144 212t-52 262q0 169 72.5 326t193 271.5t285 183.5t340.5 69zM950 1110q-117 0 -221 -60
t-166.5 -162.5t-62.5 -219.5q0 -147 100.5 -245.5t253.5 -98.5q179 0 312.5 131.5t133.5 310.5q0 146 -99 245t-251 99zM1415 1679l-153 -168l-242 140l-279 -140l-112 168l426 256z" />
    <glyph glyph-name="Otilde" unicode="&#xd5;" horiz-adv-x="1785" 
d="M999 1475q152 0 284 -51.5t223.5 -140.5t143.5 -211.5t52 -260.5q0 -135 -46 -264.5t-129 -234.5t-192.5 -185t-244.5 -124t-277 -44q-204 0 -365.5 88t-250 240t-88.5 338q0 169 72.5 326t192.5 271.5t284.5 183.5t340.5 69zM954 1110q-117 0 -221 -60t-166.5 -162.5
t-62.5 -219.5q0 -147 100.5 -245.5t253.5 -98.5q179 0 313 131.5t134 310.5q0 146 -99.5 245t-251.5 99zM1249 1915l238 -41q-37 -120 -149.5 -204.5t-235.5 -84.5q-35 0 -51 4l-154 27q-3 0 -8 1t-8 1q-35 0 -69 -28t-44 -66l-238 41q35 119 147.5 203.5t235.5 84.5
q18 0 54 -4l151 -26q4 -2 17 -2q37 0 70 28t44 66z" />
    <glyph glyph-name="Odieresis" unicode="&#xd6;" horiz-adv-x="1785" 
d="M995 1475q152 0 284 -51.5t223.5 -140.5t143.5 -211.5t52 -260.5q0 -135 -46 -264.5t-129 -234.5t-192.5 -185t-244.5 -124t-277 -44q-153 0 -285 51.5t-224 140.5t-144 212t-52 262q0 169 72.5 326t193 271.5t285 183.5t340.5 69zM950 1110q-117 0 -221 -60
t-166.5 -162.5t-62.5 -219.5q0 -147 100.5 -245.5t253.5 -98.5q179 0 312.5 131.5t133.5 310.5q0 146 -99 245t-251 99zM803 1966q73 0 122.5 -50t49.5 -122q0 -87 -66.5 -152t-152.5 -65q-73 0 -122.5 49t-49.5 121q0 88 65.5 153.5t153.5 65.5zM1315 1966q73 0 122.5 -50
t49.5 -122q0 -87 -66.5 -152t-152.5 -65q-73 0 -122.5 49t-49.5 121q0 88 65.5 153.5t153.5 65.5z" />
    <glyph glyph-name="multiply" unicode="&#xd7;" horiz-adv-x="1466" 
d="M733 956l121 121q18 18 57 58.5t70 72t45 43.5l219 -219q-12 -14 -43.5 -45t-72 -70t-58.5 -57l-121 -121l121 -121q26 -27 93.5 -92.5t80.5 -79.5l-219 -219q-21 17 -172 174l-121 121l-121 -121q-19 -19 -58.5 -60t-70 -72t-43.5 -42l-219 219q11 13 42 43.5t72 70
t60 58.5l121 121l-121 121q-157 151 -174 172l219 219q14 -13 79.5 -80.5t92.5 -93.5z" />
    <glyph glyph-name="Oslash" unicode="&#xd8;" horiz-adv-x="1785" 
d="M999 1475q243 0 426 -127l129 116l168 -190l-123 -107q103 -159 103 -354q0 -170 -72 -327.5t-191.5 -273t-284 -184.5t-341.5 -69q-243 0 -426 127q-106 -94 -129 -117l-168 191l121 106q-102 158 -102 359q0 169 72.5 326t192.5 271.5t284.5 183.5t340.5 69zM954 1110
q-116 0 -219.5 -59.5t-166 -161t-62.5 -217.5q0 -69 20 -125l592 526q-73 37 -164 37zM1286 887l-594 -529q72 -34 166 -34q118 0 221.5 60.5t165.5 163.5t62 222q0 52 -21 117z" />
    <glyph glyph-name="Ugrave" unicode="&#xd9;" horiz-adv-x="1579" 
d="M649 1434q-2 -18 -14.5 -113t-16.5 -133l-83 -676q-3 -15 -3 -29q0 -96 64 -144t182 -48q128 0 223 61l103 836q10 90 26 246h398q-2 -18 -14.5 -113t-16.5 -133l-131 -1057q-36 -24 -65 -41t-89.5 -44t-122.5 -44t-155.5 -30t-196.5 -13q-315 0 -459.5 106t-144.5 338
q0 31 8 109l84 676q23 207 27 246h397zM565 1806l254 156l236 -344l-195 -119z" />
    <glyph glyph-name="Uacute" unicode="&#xda;" horiz-adv-x="1579" 
d="M649 1434q-2 -18 -14.5 -113t-16.5 -133l-83 -676q-3 -15 -3 -29q0 -96 64 -144t182 -48q128 0 223 61l103 836q10 90 26 246h398q-2 -18 -14.5 -113t-16.5 -133l-131 -1057q-36 -24 -65 -41t-89.5 -44t-122.5 -44t-155.5 -30t-196.5 -13q-315 0 -459.5 106t-144.5 338
q0 31 8 109l84 676q23 207 27 246h397zM1053 1962l213 -156l-369 -307l-166 119z" />
    <glyph glyph-name="Ucircumflex" unicode="&#xdb;" horiz-adv-x="1579" 
d="M649 1434q-2 -18 -14.5 -113t-16.5 -133l-83 -676q-3 -15 -3 -29q0 -96 64 -144t182 -48q128 0 223 61l103 836q10 90 26 246h398q-2 -18 -14.5 -113t-16.5 -133l-131 -1057q-36 -24 -65 -41t-89.5 -44t-122.5 -44t-155.5 -30t-196.5 -13q-315 0 -459.5 106t-144.5 338
q0 31 8 109l84 676q23 207 27 246h397zM1311 1679l-154 -168l-242 140l-278 -140l-113 168l426 256z" />
    <glyph glyph-name="Udieresis" unicode="&#xdc;" horiz-adv-x="1579" 
d="M649 1434q-2 -18 -14.5 -113t-16.5 -133l-83 -676q-3 -15 -3 -29q0 -96 64 -144t182 -48q128 0 223 61l103 836q10 90 26 246h398q-2 -18 -14.5 -113t-16.5 -133l-131 -1057q-36 -24 -65 -41t-89.5 -44t-122.5 -44t-155.5 -30t-196.5 -13q-315 0 -459.5 106t-144.5 338
q0 31 8 109l84 676q23 207 27 246h397zM698 1966q73 0 122.5 -50t49.5 -122q0 -87 -66.5 -152t-152.5 -65q-73 0 -122.5 49t-49.5 121q0 88 65.5 153.5t153.5 65.5zM1210 1966q73 0 122.5 -50t49.5 -122q0 -87 -66.5 -152t-152.5 -65q-73 0 -122.5 49t-49.5 121
q0 88 65.5 153.5t153.5 65.5z" />
    <glyph glyph-name="Yacute" unicode="&#xdd;" horiz-adv-x="1474" 
d="M481 0q2 18 14.5 113t16.5 133l55 446l-291 486q-13 22 -79 129.5t-76 126.5h465q57 -111 84 -158l69 -123q21 -38 37.5 -80.5t16.5 -60.5h8q0 8 27 52.5t61 88.5l96 125q83 109 123 156h446q-26 -34 -206 -252l-400 -482l-55 -454q-23 -207 -27 -246h-385zM1030 1962
l213 -156l-369 -307l-165 119z" />
    <glyph glyph-name="Thorn" unicode="&#xde;" horiz-adv-x="1269" 
d="M186 1434h398q-2 -14 -13.5 -101t-15.5 -129h215q199 0 311.5 -115.5t112.5 -297.5q0 -114 -31.5 -211t-95.5 -173.5t-170.5 -120.5t-245.5 -44h-215q-4 -42 -14 -135t-12 -107h-398q2 18 14.5 113t16.5 133l117 942q10 90 26 246zM473 541h135q92 0 146.5 60.5
t54.5 146.5q0 68 -41.5 110.5t-114.5 42.5h-135z" />
    <glyph glyph-name="germandbls" unicode="&#xdf;" horiz-adv-x="1548" 
d="M362 -451h-362q20 133 33 246l123 1004q19 152 68.5 274t130.5 212.5t200 140t268 49.5q229 0 363.5 -90.5t134.5 -241.5q0 -74 -31 -131t-75.5 -91t-88.5 -61.5t-75 -58t-31 -64.5q0 -32 33.5 -60.5t83.5 -50.5t108 -52.5t108 -64t83.5 -88t33.5 -120.5
q0 -157 -123 -257.5t-343 -100.5q-315 0 -463 166l270 219q20 -35 45 -65t72.5 -58.5t99.5 -28.5q49 0 75.5 22t26.5 56q0 32 -45 62.5t-109 60t-128 66.5t-109 97.5t-45 137.5q0 67 30 120t72 86.5t84.5 62.5t72.5 63.5t30 74.5q0 50 -48 82.5t-126 32.5q-122 0 -194 -83
t-91 -234l-133 -1088q-23 -207 -29 -246z" />
    <glyph glyph-name="agrave" unicode="&#xe0;" horiz-adv-x="1216" 
d="M741 555l9 4q-7 21 -7 57q0 4 1 11t1 10q0 72 -48 110.5t-128 38.5q-146 0 -276 -69l-74 205q54 26 98 42t131.5 32t188.5 16q93 0 172.5 -16.5t144.5 -51t102.5 -94.5t37.5 -141q0 -20 -9 -99l-63 -516q-50 -32 -109.5 -59.5t-173.5 -55.5t-233 -28q-125 0 -216.5 25.5
t-143.5 70.5t-76.5 100t-24.5 121q0 164 121.5 271.5t333.5 107.5q90 0 155 -26.5t86 -65.5zM541 176q93 0 157 57l17 123q-16 36 -57.5 65.5t-98.5 29.5q-73 0 -117.5 -43t-44.5 -105q0 -56 38 -91.5t106 -35.5zM373 1434l254 155l235 -344l-194 -119z" />
    <glyph glyph-name="aacute" unicode="&#xe1;" horiz-adv-x="1216" 
d="M754 1589l213 -155l-369 -308l-166 119zM741 555l9 4q-7 21 -7 57q0 4 1 11t1 10q0 72 -48 110.5t-128 38.5q-146 0 -276 -69l-74 205q54 26 98 42t131.5 32t188.5 16q93 0 172.5 -16.5t144.5 -51t102.5 -94.5t37.5 -141q0 -20 -9 -99l-63 -516q-50 -32 -109.5 -59.5
t-173.5 -55.5t-233 -28q-125 0 -216.5 25.5t-143.5 70.5t-76.5 100t-24.5 121q0 164 121.5 271.5t333.5 107.5q90 0 155 -26.5t86 -65.5zM541 176q93 0 157 57l17 123q-16 36 -57.5 65.5t-98.5 29.5q-73 0 -117.5 -43t-44.5 -105q0 -56 38 -91.5t106 -35.5z" />
    <glyph glyph-name="acircumflex" unicode="&#xe2;" horiz-adv-x="1216" 
d="M1083 1198l-153 -168l-242 139l-278 -139l-113 168l426 256zM741 555l9 4q-7 21 -7 57q0 4 1 11t1 10q0 72 -48 110.5t-128 38.5q-146 0 -276 -69l-74 205q54 26 98 42t131.5 32t188.5 16q93 0 172.5 -16.5t144.5 -51t102.5 -94.5t37.5 -141q0 -20 -9 -99l-63 -516
q-50 -32 -109.5 -59.5t-173.5 -55.5t-233 -28q-125 0 -216.5 25.5t-143.5 70.5t-76.5 100t-24.5 121q0 164 121.5 271.5t333.5 107.5q90 0 155 -26.5t86 -65.5zM541 176q93 0 157 57l17 123q-16 36 -57.5 65.5t-98.5 29.5q-73 0 -117.5 -43t-44.5 -105q0 -56 38 -91.5
t106 -35.5z" />
    <glyph glyph-name="atilde" unicode="&#xe3;" horiz-adv-x="1216" 
d="M901 1413l238 -41q-37 -120 -149.5 -204.5t-235.5 -84.5q-36 0 -52 4l-153 27q-3 0 -8.5 1t-8.5 1q-35 0 -68 -28t-44 -66l-238 41q35 119 147.5 204t235.5 85q17 0 53 -4l152 -27q4 -2 16 -2q37 0 70.5 28t44.5 66zM741 555l9 4q-7 21 -7 57q0 4 1 11t1 10
q0 72 -48 110.5t-128 38.5q-146 0 -276 -69l-74 205q54 26 98 42t131.5 32t188.5 16q93 0 172.5 -16.5t144.5 -51t102.5 -94.5t37.5 -141q0 -20 -9 -99l-63 -516q-50 -32 -109.5 -59.5t-173.5 -55.5t-233 -28q-125 0 -216.5 25.5t-143.5 70.5t-76.5 100t-24.5 121
q0 164 121.5 271.5t333.5 107.5q90 0 155 -26.5t86 -65.5zM541 176q93 0 157 57l17 123q-16 36 -57.5 65.5t-98.5 29.5q-73 0 -117.5 -43t-44.5 -105q0 -56 38 -91.5t106 -35.5z" />
    <glyph glyph-name="adieresis" unicode="&#xe4;" horiz-adv-x="1216" 
d="M455 1464q73 0 122.5 -50t49.5 -122q0 -87 -66.5 -152t-152.5 -65q-73 0 -122.5 49t-49.5 121q0 88 65.5 153.5t153.5 65.5zM967 1464q73 0 122.5 -50t49.5 -122q0 -87 -66.5 -152t-152.5 -65q-73 0 -122.5 49t-49.5 121q0 88 65.5 153.5t153.5 65.5zM741 555l9 4
q-7 21 -7 57q0 4 1 11t1 10q0 72 -48 110.5t-128 38.5q-146 0 -276 -69l-74 205q54 26 98 42t131.5 32t188.5 16q93 0 172.5 -16.5t144.5 -51t102.5 -94.5t37.5 -141q0 -20 -9 -99l-63 -516q-50 -32 -109.5 -59.5t-173.5 -55.5t-233 -28q-125 0 -216.5 25.5t-143.5 70.5
t-76.5 100t-24.5 121q0 164 121.5 271.5t333.5 107.5q90 0 155 -26.5t86 -65.5zM541 176q93 0 157 57l17 123q-16 36 -57.5 65.5t-98.5 29.5q-73 0 -117.5 -43t-44.5 -105q0 -56 38 -91.5t106 -35.5z" />
    <glyph glyph-name="aring" unicode="&#xe5;" horiz-adv-x="1216" 
d="M741 555l9 4q-7 21 -7 57q0 4 1 11t1 10q0 72 -48 110.5t-128 38.5q-146 0 -276 -69l-74 205q54 26 98 42t131.5 32t188.5 16q93 0 172.5 -16.5t144.5 -51t102.5 -94.5t37.5 -141q0 -20 -9 -99l-63 -516q-50 -32 -109.5 -59.5t-173.5 -55.5t-233 -28q-125 0 -216.5 25.5
t-143.5 70.5t-76.5 100t-24.5 121q0 164 121.5 271.5t333.5 107.5q90 0 155 -26.5t86 -65.5zM541 176q93 0 157 57l17 123q-16 36 -57.5 65.5t-98.5 29.5q-73 0 -117.5 -43t-44.5 -105q0 -56 38 -91.5t106 -35.5zM698 1536q112 0 176 -59t64 -150q0 -108 -84 -185t-215 -77
q-112 0 -175 57.5t-63 147.5q0 110 82.5 188t214.5 78zM676 1364q-42 0 -66 -21.5t-24 -52.5q0 -24 20 -38.5t56 -14.5q40 0 65 20.5t25 49.5q0 25 -20 41t-56 16z" />
    <glyph glyph-name="ae" unicode="&#xe6;" horiz-adv-x="1892" 
d="M1763 422h-700q-2 -10 -2 -33q0 -84 40.5 -130t119.5 -46q134 0 200 129l275 -166q-62 -90 -185 -153.5t-301 -63.5q-210 0 -340 102q-61 -40 -157.5 -71t-206.5 -31q-119 0 -208.5 25t-141.5 69t-77.5 99t-25.5 120q0 161 120.5 268t330.5 107q87 0 152.5 -27.5
t86.5 -68.5l9 4q-7 21 -7 59q0 4 1.5 12t1.5 11q0 71 -48 108t-129 37q-139 0 -266 -67l-74 205q53 25 94 40t125 29.5t187 14.5q238 0 356 -93q145 93 318 93q220 0 343.5 -124.5t123.5 -318.5q0 -34 -15 -139zM547 184q88 0 153 52l15 120q-16 37 -57.5 68t-98.5 31
q-71 0 -113.5 -43.5t-42.5 -106.5q0 -53 39.5 -87t104.5 -34zM1290 774q-64 0 -117 -39t-71 -112h346q0 3 1 9t1 9q0 51 -41.5 92t-118.5 41z" />
    <glyph glyph-name="ccedilla" unicode="&#xe7;" horiz-adv-x="1249" 
d="M717 1004q150 0 254 -57t164 -142l-281 -201q-57 105 -172 105q-99 0 -167.5 -74.5t-68.5 -173.5q0 -85 52 -140t135 -55q63 0 118 33t91 82l262 -180q-35 -42 -80.5 -80.5t-109.5 -77t-149 -61.5t-177 -23q-227 0 -365.5 129.5t-138.5 331.5q0 156 84 290.5t230 214
t319 79.5zM547 -66l-252 -262l121 -106l278 233z" />
    <glyph glyph-name="egrave" unicode="&#xe8;" horiz-adv-x="1249" 
d="M1120 422h-700q-2 -10 -2 -33q0 -84 40.5 -130t119.5 -46q134 0 200 129l275 -166q-62 -90 -185 -153.5t-301 -63.5q-122 0 -217 34.5t-153.5 96t-88.5 140.5t-30 171q0 175 82.5 314.5t216.5 214t291 74.5q220 0 343.5 -124.5t123.5 -318.5q0 -34 -15 -139zM647 774
q-64 0 -117 -39t-71 -112h346q0 3 1 9t1 9q0 51 -41.5 92t-118.5 41zM383 1434l254 155l235 -344l-194 -119z" />
    <glyph glyph-name="eacute" unicode="&#xe9;" horiz-adv-x="1249" 
d="M1120 422h-700q-2 -10 -2 -33q0 -84 40.5 -130t119.5 -46q134 0 200 129l275 -166q-62 -90 -185 -153.5t-301 -63.5q-122 0 -217 34.5t-153.5 96t-88.5 140.5t-30 171q0 175 82.5 314.5t216.5 214t291 74.5q220 0 343.5 -124.5t123.5 -318.5q0 -34 -15 -139zM647 774
q-64 0 -117 -39t-71 -112h346q0 3 1 9t1 9q0 51 -41.5 92t-118.5 41zM870 1589l213 -155l-368 -308l-166 119z" />
    <glyph glyph-name="ecircumflex" unicode="&#xea;" horiz-adv-x="1249" 
d="M1120 422h-700q-2 -10 -2 -33q0 -84 40.5 -130t119.5 -46q134 0 200 129l275 -166q-62 -90 -185 -153.5t-301 -63.5q-122 0 -217 34.5t-153.5 96t-88.5 140.5t-30 171q0 175 82.5 314.5t216.5 214t291 74.5q220 0 343.5 -124.5t123.5 -318.5q0 -34 -15 -139zM647 774
q-64 0 -117 -39t-71 -112h346q0 3 1 9t1 9q0 51 -41.5 92t-118.5 41zM1092 1198l-154 -168l-242 139l-278 -139l-113 168l426 256z" />
    <glyph glyph-name="edieresis" unicode="&#xeb;" horiz-adv-x="1249" 
d="M1120 422h-700q-2 -10 -2 -33q0 -84 40.5 -130t119.5 -46q134 0 200 129l275 -166q-62 -90 -185 -153.5t-301 -63.5q-122 0 -217 34.5t-153.5 96t-88.5 140.5t-30 171q0 175 82.5 314.5t216.5 214t291 74.5q220 0 343.5 -124.5t123.5 -318.5q0 -34 -15 -139zM647 774
q-64 0 -117 -39t-71 -112h346q0 3 1 9t1 9q0 51 -41.5 92t-118.5 41zM475 1464q73 0 122.5 -50t49.5 -122q0 -87 -66.5 -152t-152.5 -65q-73 0 -122.5 49t-49.5 121q0 88 65.5 153.5t153.5 65.5zM987 1464q73 0 122.5 -50t49.5 -122q0 -87 -66.5 -152t-152.5 -65
q-73 0 -122.5 49t-49.5 121q0 88 65.5 153.5t153.5 65.5z" />
    <glyph glyph-name="igrave" unicode="&#xec;" horiz-adv-x="604" 
d="M547 963q-2 -17 -15.5 -112t-17.5 -134l-57 -471q-23 -207 -27 -246h-362q2 19 14 114t16 132l58 471q3 31 14.5 128t13.5 118h363zM6 1434l254 155l236 -344l-195 -119z" />
    <glyph glyph-name="iacute" unicode="&#xed;" horiz-adv-x="604" 
d="M547 963q-2 -17 -15.5 -112t-17.5 -134l-57 -471q-23 -207 -27 -246h-362q2 19 14 114t16 132l58 471q3 31 14.5 128t13.5 118h363zM586 1589l213 -155l-369 -308l-166 119z" />
    <glyph glyph-name="icircumflex" unicode="&#xee;" horiz-adv-x="604" 
d="M547 963q-2 -17 -15.5 -112t-17.5 -134l-57 -471q-23 -207 -27 -246h-362q2 19 14 114t16 132l58 471q3 31 14.5 128t13.5 118h363zM766 1198l-154 -168l-241 139l-279 -139l-112 168l426 256z" />
    <glyph glyph-name="idieresis" unicode="&#xef;" horiz-adv-x="645" 
d="M266 1464q49 0 81 -46.5t32 -114.5q0 -90 -49.5 -159t-110.5 -69q-49 0 -79.5 45t-30.5 113q0 92 47.5 161.5t109.5 69.5zM584 1464q49 0 80.5 -46.5t31.5 -114.5q0 -90 -49 -159t-110 -69q-49 0 -80 45t-31 113q0 92 48 161.5t110 69.5zM547 963q-2 -17 -15.5 -112
t-17.5 -134l-57 -471q-23 -207 -27 -246h-362q2 19 14 114t16 132l58 471q3 31 14.5 128t13.5 118h363z" />
    <glyph glyph-name="eth" unicode="&#xf0;" horiz-adv-x="1335" 
d="M821 1638q5 -15 68 -174l92 43q19 9 65 33t70 35l58 -158q-7 -4 -62.5 -29.5t-73.5 -33.5l-86 -41l250 -586q39 -80 39 -186q0 -156 -86.5 -289.5t-237 -213t-329.5 -79.5q-235 0 -381 131.5t-146 329.5q0 117 52 225.5t134.5 185t188 122.5t209.5 46q16 0 29.5 -3.5
t21 -7.5t17 -9.5t12.5 -7.5l4 6q-39 27 -70 100l-34 82l-93 -43l-68 -34t-67 -33l-57 157q22 8 137 64l84 39l-72 159zM680 717q-100 0 -179 -79t-79 -183q0 -89 57 -149t144 -60q103 0 180.5 79.5t77.5 186.5q0 87 -57 146t-144 59z" />
    <glyph glyph-name="ntilde" unicode="&#xf1;" horiz-adv-x="1286" 
d="M506 846l8 -4q32 63 115.5 112.5t199.5 49.5q144 0 237 -78t93 -236q0 -21 -4 -67l-47 -377q-23 -207 -27 -246h-362q2 18 14.5 113t16.5 133l34 286q2 14 2 43q0 69 -32.5 105.5t-91.5 36.5q-66 0 -117.5 -42.5t-61.5 -129.5l-37 -299q-10 -90 -26 -246h-363
q2 18 14.5 113t16.5 133l57 471q4 36 15.5 131t13.5 115h356q-18 -105 -24 -117zM954 1413l238 -41q-37 -120 -149.5 -204.5t-235.5 -84.5q-35 0 -51 4l-154 27q-3 0 -8 1t-8 1q-35 0 -69 -28t-44 -66l-237 41q35 119 147 204t235 85q18 0 54 -4l151 -27q4 -2 17 -2
q37 0 70 28t44 66z" />
    <glyph glyph-name="ograve" unicode="&#xf2;" horiz-adv-x="1335" 
d="M717 1004q234 0 379 -131t145 -328q0 -117 -50.5 -225t-137 -187t-208.5 -126.5t-257 -47.5q-235 0 -381 131.5t-146 329.5q0 117 51.5 224.5t138.5 186.5t209 126t257 47zM680 717q-104 0 -181 -79t-77 -185q0 -89 56 -148t145 -59q106 0 182 79.5t76 186.5
q0 88 -56 146.5t-145 58.5zM403 1434l254 155l236 -344l-195 -119z" />
    <glyph glyph-name="oacute" unicode="&#xf3;" horiz-adv-x="1335" 
d="M717 1004q234 0 379 -131t145 -328q0 -117 -50.5 -225t-137 -187t-208.5 -126.5t-257 -47.5q-235 0 -381 131.5t-146 329.5q0 117 51.5 224.5t138.5 186.5t209 126t257 47zM680 717q-104 0 -181 -79t-77 -185q0 -89 56 -148t145 -59q106 0 182 79.5t76 186.5
q0 88 -56 146.5t-145 58.5zM885 1589l213 -155l-369 -308l-166 119z" />
    <glyph glyph-name="ocircumflex" unicode="&#xf4;" horiz-adv-x="1335" 
d="M717 1004q234 0 379 -131t145 -328q0 -117 -50.5 -225t-137 -187t-208.5 -126.5t-257 -47.5q-235 0 -381 131.5t-146 329.5q0 117 51.5 224.5t138.5 186.5t209 126t257 47zM680 717q-104 0 -181 -79t-77 -185q0 -89 56 -148t145 -59q106 0 182 79.5t76 186.5
q0 88 -56 146.5t-145 58.5zM1133 1198l-154 -168l-242 139l-278 -139l-113 168l426 256z" />
    <glyph glyph-name="otilde" unicode="&#xf5;" horiz-adv-x="1335" 
d="M717 1004q234 0 379 -131t145 -328q0 -117 -50.5 -225t-137 -187t-208.5 -126.5t-257 -47.5q-235 0 -381 131.5t-146 329.5q0 117 51.5 224.5t138.5 186.5t209 126t257 47zM680 717q-104 0 -181 -79t-77 -185q0 -89 56 -148t145 -59q106 0 182 79.5t76 186.5
q0 88 -56 146.5t-145 58.5zM963 1413l237 -41q-37 -120 -149.5 -204.5t-235.5 -84.5q-35 0 -51 4l-154 27q-3 0 -8 1t-8 1q-35 0 -69 -28t-44 -66l-237 41q35 119 147.5 204t235.5 85q17 0 53 -4l151 -27q4 -2 17 -2q37 0 70.5 28t44.5 66z" />
    <glyph glyph-name="odieresis" unicode="&#xf6;" horiz-adv-x="1335" 
d="M717 1004q234 0 379 -131t145 -328q0 -117 -50.5 -225t-137 -187t-208.5 -126.5t-257 -47.5q-235 0 -381 131.5t-146 329.5q0 117 51.5 224.5t138.5 186.5t209 126t257 47zM680 717q-104 0 -181 -79t-77 -185q0 -89 56 -148t145 -59q106 0 182 79.5t76 186.5
q0 88 -56 146.5t-145 58.5zM516 1464q73 0 122.5 -50t49.5 -122q0 -87 -66.5 -152t-152.5 -65q-73 0 -122.5 49t-49.5 121q0 88 65.5 153.5t153.5 65.5zM1028 1464q73 0 122.5 -50t49.5 -122q0 -87 -66.5 -152t-152.5 -65q-73 0 -122.5 49t-49.5 121q0 88 65.5 153.5
t153.5 65.5z" />
    <glyph glyph-name="divide" unicode="&#xf7;" horiz-adv-x="1466" 
d="M1303 895v-311q-15 0 -110.5 1t-135.5 1h-647q-40 0 -135.5 -1t-110.5 -1v311q15 0 110.5 -1t135.5 -1h647q40 0 135.5 1t110.5 1zM733 471q95 0 162.5 -65.5t67.5 -159.5t-67.5 -160t-162.5 -66t-162 66t-67 160t67 159.5t162 65.5zM733 1458q95 0 162.5 -65.5
t67.5 -159.5t-67.5 -159.5t-162.5 -65.5t-162 65.5t-67 159.5t67 159.5t162 65.5z" />
    <glyph glyph-name="oslash" unicode="&#xf8;" horiz-adv-x="1335" 
d="M717 1004q46 0 114 -11q18 23 47 61.5t49.5 65.5t30.5 39l279 -198l-102 -130q106 -118 106 -288q0 -156 -85.5 -290t-236.5 -214t-331 -80q-59 0 -117 10q-105 -136 -127 -166l-278 199q6 9 21 28.5t39.5 50.5t39.5 50q-105 120 -105 287q0 117 51.5 225t138.5 187
t209 126.5t257 47.5zM680 717q-104 0 -181 -79t-77 -185q0 -89 56 -148t145 -59q106 0 182 79.5t76 186.5q0 88 -56 146.5t-145 58.5z" />
    <glyph glyph-name="ugrave" unicode="&#xf9;" horiz-adv-x="1302" 
d="M1214 963q-2 -18 -15 -113t-17 -133l-78 -635q-67 -42 -211 -82.5t-311 -40.5q-482 0 -482 340q0 45 4 70l41 348q3 27 10 83.5t12.5 101t6.5 61.5h363q-1 -21 -15 -117.5t-18 -128.5l-35 -297q-2 -10 -2 -31q0 -65 40 -104t122 -39q72 0 141 33l53 438q4 36 15.5 131
t13.5 115h362zM326 1434l254 155l235 -344l-194 -119z" />
    <glyph glyph-name="uacute" unicode="&#xfa;" horiz-adv-x="1302" 
d="M1214 963q-2 -18 -15 -113t-17 -133l-78 -635q-67 -42 -211 -82.5t-311 -40.5q-482 0 -482 340q0 45 4 70l41 348q3 27 10 83.5t12.5 101t6.5 61.5h363q-1 -21 -15 -117.5t-18 -128.5l-35 -297q-2 -10 -2 -31q0 -65 40 -104t122 -39q72 0 141 33l53 438q4 36 15.5 131
t13.5 115h362zM813 1589l213 -155l-369 -308l-165 119z" />
    <glyph glyph-name="ucircumflex" unicode="&#xfb;" horiz-adv-x="1302" 
d="M1214 963q-2 -18 -15 -113t-17 -133l-78 -635q-67 -42 -211 -82.5t-311 -40.5q-482 0 -482 340q0 45 4 70l41 348q3 27 10 83.5t12.5 101t6.5 61.5h363q-1 -21 -15 -117.5t-18 -128.5l-35 -297q-2 -10 -2 -31q0 -65 40 -104t122 -39q72 0 141 33l53 438q4 36 15.5 131
t13.5 115h362zM1116 1198l-153 -168l-242 139l-279 -139l-112 168l426 256z" />
    <glyph glyph-name="udieresis" unicode="&#xfc;" horiz-adv-x="1302" 
d="M1214 963q-2 -18 -15 -113t-17 -133l-78 -635q-67 -42 -211 -82.5t-311 -40.5q-482 0 -482 340q0 45 4 70l41 348q3 27 10 83.5t12.5 101t6.5 61.5h363q-1 -21 -15 -117.5t-18 -128.5l-35 -297q-2 -10 -2 -31q0 -65 40 -104t122 -39q72 0 141 33l53 438q4 36 15.5 131
t13.5 115h362zM500 1464q73 0 122.5 -50t49.5 -122q0 -87 -66.5 -152t-152.5 -65q-73 0 -122.5 49t-49.5 121q0 88 65.5 153.5t153.5 65.5zM1012 1464q73 0 122.5 -50t49.5 -122q0 -87 -66.5 -152t-152.5 -65q-73 0 -122.5 49t-49.5 121q0 88 65.5 153.5t153.5 65.5z" />
    <glyph glyph-name="yacute" unicode="&#xfd;" horiz-adv-x="1318" 
d="M1341 963q-12 -21 -172 -267l-622 -968q-23 -36 -64 -103t-47 -76h-395q12 16 43.5 64.5t73 113.5t53.5 83l219 348l-246 542q-100 210 -121 263h408q25 -72 64 -168l65 -164q21 -55 35 -109.5t14 -75.5h8q3 15 33.5 73.5t63.5 111.5l94 149q23 35 60.5 101.5t47.5 81.5
h385zM842 1589l213 -155l-369 -308l-166 119z" />
    <glyph glyph-name="thorn" unicode="&#xfe;" horiz-adv-x="1359" 
d="M360 -451h-362q7 50 35 263l172 1396q23 220 31 262h362q-17 -92 -35 -262l-26 -213q-6 -59 -21 -94l6 -4q45 44 130 75.5t175 31.5q191 0 312 -117t121 -316q0 -265 -170.5 -438.5t-442.5 -173.5q-69 0 -135 22t-96 50l-8 -4q2 -6 2 -33q0 -42 -4 -62l-15 -120
q-5 -40 -16.5 -141.5t-14.5 -121.5zM487 594l-30 -256q27 -33 72.5 -56.5t105.5 -23.5q107 0 179.5 73.5t72.5 180.5q0 83 -52 138t-135 55q-131 0 -213 -111z" />
    <glyph glyph-name="ydieresis" unicode="&#xff;" horiz-adv-x="1318" 
d="M1341 963q-12 -21 -172 -267l-622 -968q-23 -36 -64 -103t-47 -76h-395q12 16 43.5 64.5t73 113.5t53.5 83l219 348l-246 542q-100 210 -121 263h408q25 -72 64 -168l65 -164q21 -55 35 -109.5t14 -75.5h8q3 15 33.5 73.5t63.5 111.5l94 149q23 35 60.5 101.5t47.5 81.5
h385zM524 1464q73 0 122.5 -50t49.5 -122q0 -87 -66.5 -152t-152.5 -65q-73 0 -122.5 49t-49.5 121q0 88 65.5 153.5t153.5 65.5zM1036 1464q73 0 122.5 -50t49.5 -122q0 -87 -66.5 -152t-152.5 -65q-73 0 -122.5 49t-49.5 121q0 88 65.5 153.5t153.5 65.5z" />
    <glyph glyph-name="Amacron" unicode="&#x100;" 
d="M879 1483h41l460 -1260q50 -137 86 -223h-407q-6 22 -25 73.5t-24 69.5l-9 29h-522l-16 -29q-4 -8 -35.5 -62.5t-44.5 -80.5h-420q9 15 34.5 56t58 92.5t46.5 74.5zM709 463h129q56 0 71 -10l4 8q-10 5 -26 51l-37 104q-35 97 -35 152v4h-8q-7 -36 -74 -156l-59 -104
q-23 -42 -41 -51l4 -8q10 10 72 10zM666 1876q7 0 54.5 -1t67.5 -1h308q20 0 68 1t55 1l-31 -250q-7 0 -54 1t-67 1h-307q-20 0 -69 -1t-56 -1z" />
    <glyph glyph-name="amacron" unicode="&#x101;" horiz-adv-x="1218" 
d="M399 1333q7 0 55 -1t68 -1h307q20 0 68 1t55 1l-30 -250q-7 0 -54 1t-67 1h-307q-20 0 -69 -1t-56 -1zM741 555l9 4q-7 21 -7 57q0 4 1 11t1 10q0 72 -48 110.5t-128 38.5q-146 0 -276 -69l-74 205q54 26 98 42t131.5 32t188.5 16q93 0 172.5 -16.5t144.5 -51
t102.5 -94.5t37.5 -141q0 -20 -9 -99l-63 -516q-50 -32 -109.5 -59.5t-173.5 -55.5t-233 -28q-125 0 -216.5 25.5t-143.5 70.5t-76.5 100t-24.5 121q0 164 121.5 271.5t333.5 107.5q90 0 155 -26.5t86 -65.5zM541 176q93 0 157 57l17 123q-16 36 -57.5 65.5t-98.5 29.5
q-73 0 -117.5 -43t-44.5 -105q0 -56 38 -91.5t106 -35.5z" />
    <glyph glyph-name="Abreve" unicode="&#x102;" 
d="M879 1483h41l460 -1260q50 -137 86 -223h-407q-6 22 -25 73.5t-24 69.5l-9 29h-522l-16 -29q-4 -8 -35.5 -62.5t-44.5 -80.5h-420q9 15 34.5 56t58 92.5t46.5 74.5zM709 463h129q56 0 71 -10l4 8q-10 5 -26 51l-37 104q-35 97 -35 152v4h-8q-7 -36 -74 -156l-59 -104
q-23 -42 -41 -51l4 -8q10 10 72 10zM547 1837l209 80q10 -62 57 -93.5t121 -31.5q73 0 127.5 33t79.5 92l192 -80q-52 -136 -168 -213.5t-262 -77.5t-241.5 77.5t-114.5 213.5z" />
    <glyph glyph-name="abreve" unicode="&#x103;" horiz-adv-x="1218" 
d="M291 1335l209 80q10 -62 57 -93.5t121 -31.5q73 0 127.5 33t79.5 92l192 -80q-52 -136 -168 -213.5t-262 -77.5t-241.5 77.5t-114.5 213.5zM741 555l9 4q-7 21 -7 57q0 4 1 11t1 10q0 72 -48 110.5t-128 38.5q-146 0 -276 -69l-74 205q54 26 98 42t131.5 32t188.5 16
q93 0 172.5 -16.5t144.5 -51t102.5 -94.5t37.5 -141q0 -20 -9 -99l-63 -516q-50 -32 -109.5 -59.5t-173.5 -55.5t-233 -28q-125 0 -216.5 25.5t-143.5 70.5t-76.5 100t-24.5 121q0 164 121.5 271.5t333.5 107.5q90 0 155 -26.5t86 -65.5zM541 176q93 0 157 57l17 123
q-16 36 -57.5 65.5t-98.5 29.5q-73 0 -117.5 -43t-44.5 -105q0 -56 38 -91.5t106 -35.5z" />
    <glyph glyph-name="Aogonek" unicode="&#x104;" 
d="M879 1483h41l460 -1260q50 -137 86 -223q-84 -80 -84 -158q0 -44 28 -66t73 -22q64 0 133 41l76 -209q-123 -78 -281 -78q-142 0 -218.5 68.5t-76.5 177.5q0 130 98 246h-155q-6 22 -25 73.5t-24 69.5l-9 29h-522l-16 -29q-4 -8 -35.5 -62.5t-44.5 -80.5h-420
q9 15 34.5 56t58 92.5t46.5 74.5zM709 463h129q56 0 71 -10l4 8q-10 5 -26 51l-37 104q-35 97 -35 152v4h-8q-7 -36 -74 -156l-59 -104q-23 -42 -41 -51l4 -8q10 10 72 10z" />
    <glyph glyph-name="aogonek" unicode="&#x105;" horiz-adv-x="1216" 
d="M741 555l9 4q-7 21 -7 57q0 4 1 11t1 10q0 72 -48 110.5t-128 38.5q-146 0 -276 -69l-74 205q54 26 98 42t131.5 32t188.5 16q93 0 172.5 -16.5t144.5 -51t102.5 -94.5t37.5 -141q0 -20 -9 -99l-63 -516q-99 -67 -153 -126.5t-54 -125.5q0 -44 27.5 -66t72.5 -22
q65 0 134 41l75 -209q-123 -78 -280 -78q-142 0 -218.5 68.5t-76.5 177.5q0 111 65 203q-52 -6 -108 -6q-125 0 -216.5 25.5t-143.5 70.5t-76.5 100t-24.5 121q0 164 121.5 271.5t333.5 107.5q90 0 155 -26.5t86 -65.5zM541 176q93 0 157 57l17 123q-16 36 -57.5 65.5
t-98.5 29.5q-73 0 -117.5 -43t-44.5 -105q0 -56 38 -91.5t106 -35.5z" />
    <glyph glyph-name="Cacute" unicode="&#x106;" horiz-adv-x="1564" 
d="M1231 463l221 -264q-123 -114 -292 -177t-351 -63q-165 0 -298 50.5t-220 140t-133.5 209t-46.5 259.5q0 175 66 332.5t180.5 273t279.5 183.5t354 68q354 0 553 -232l-276 -254q-132 150 -318 150q-86 0 -165.5 -33t-141.5 -92t-99.5 -151t-37.5 -201
q0 -162 99.5 -260.5t246.5 -98.5q116 0 200 40t179 120zM1157 1962l213 -156l-369 -307l-165 119z" />
    <glyph glyph-name="cacute" unicode="&#x107;" horiz-adv-x="1249" 
d="M717 1004q150 0 254 -57t164 -142l-281 -201q-57 105 -172 105q-99 0 -167.5 -74.5t-68.5 -173.5q0 -85 52 -140t135 -55q63 0 118 33t91 82l262 -180q-35 -42 -80.5 -80.5t-109.5 -77t-149 -61.5t-177 -23q-227 0 -365.5 129.5t-138.5 331.5q0 156 84 290.5t230 214
t319 79.5zM825 1589l213 -155l-368 -308l-166 119z" />
    <glyph glyph-name="Ccircumflex" unicode="&#x108;" horiz-adv-x="1564" 
d="M1231 463l221 -264q-123 -114 -292 -177t-351 -63q-165 0 -298 50.5t-220 140t-133.5 209t-46.5 259.5q0 175 66 332.5t180.5 273t279.5 183.5t354 68q354 0 553 -232l-276 -254q-132 150 -318 150q-86 0 -165.5 -33t-141.5 -92t-99.5 -151t-37.5 -201
q0 -162 99.5 -260.5t246.5 -98.5q116 0 200 40t179 120zM1415 1741l-153 -168l-242 139l-279 -139l-112 168l426 256z" />
    <glyph glyph-name="ccircumflex" unicode="&#x109;" horiz-adv-x="1249" 
d="M717 1004q150 0 254 -57t164 -142l-281 -201q-57 105 -172 105q-99 0 -167.5 -74.5t-68.5 -173.5q0 -85 52 -140t135 -55q63 0 118 33t91 82l262 -180q-35 -42 -80.5 -80.5t-109.5 -77t-149 -61.5t-177 -23q-227 0 -365.5 129.5t-138.5 331.5q0 156 84 290.5t230 214
t319 79.5zM1120 1198l-153 -168l-242 139l-279 -139l-112 168l426 256z" />
    <glyph glyph-name="Cdotaccent" unicode="&#x10a;" horiz-adv-x="1564" 
d="M1231 463l221 -264q-123 -114 -292 -177t-351 -63q-165 0 -298 50.5t-220 140t-133.5 209t-46.5 259.5q0 175 66 332.5t180.5 273t279.5 183.5t354 68q354 0 553 -232l-276 -254q-132 150 -318 150q-86 0 -165.5 -33t-141.5 -92t-99.5 -151t-37.5 -201
q0 -162 99.5 -260.5t246.5 -98.5q116 0 200 40t179 120zM1038 1946q73 0 122.5 -49.5t49.5 -120.5q0 -88 -66 -154t-153 -66q-73 0 -123.5 50.5t-50.5 122.5q0 87 67.5 152t153.5 65z" />
    <glyph glyph-name="cdotaccent" unicode="&#x10b;" horiz-adv-x="1249" 
d="M717 1004q150 0 254 -57t164 -142l-281 -201q-57 105 -172 105q-99 0 -167.5 -74.5t-68.5 -173.5q0 -85 52 -140t135 -55q63 0 118 33t91 82l262 -180q-35 -42 -80.5 -80.5t-109.5 -77t-149 -61.5t-177 -23q-227 0 -365.5 129.5t-138.5 331.5q0 156 84 290.5t230 214
t319 79.5zM760 1444q73 0 122.5 -49.5t49.5 -120.5q0 -87 -66 -153t-153 -66q-73 0 -123.5 50t-50.5 122q0 87 67.5 152t153.5 65z" />
    <glyph glyph-name="Ccaron" unicode="&#x10c;" horiz-adv-x="1564" 
d="M1231 463l221 -264q-123 -114 -292 -177t-351 -63q-165 0 -298 50.5t-220 140t-133.5 209t-46.5 259.5q0 175 66 332.5t180.5 273t279.5 183.5t354 68q354 0 553 -232l-276 -254q-132 150 -318 150q-86 0 -165.5 -33t-141.5 -92t-99.5 -151t-37.5 -201
q0 -162 99.5 -260.5t246.5 -98.5q116 0 200 40t179 120zM1307 1958l112 -168l-426 -256l-360 256l153 168l242 -139z" />
    <glyph glyph-name="ccaron" unicode="&#x10d;" horiz-adv-x="1249" 
d="M717 1004q150 0 254 -57t164 -142l-281 -201q-57 105 -172 105q-99 0 -167.5 -74.5t-68.5 -173.5q0 -85 52 -140t135 -55q63 0 118 33t91 82l262 -180q-35 -42 -80.5 -80.5t-109.5 -77t-149 -61.5t-177 -23q-227 0 -365.5 129.5t-138.5 331.5q0 156 84 290.5t230 214
t319 79.5zM1020 1456l113 -168l-426 -256l-361 256l154 168l241 -139z" />
    <glyph glyph-name="Dcaron" unicode="&#x10e;" horiz-adv-x="1525" 
d="M254 1434h571q186 0 327.5 -81.5t215.5 -221t74 -314.5q0 -130 -38 -251.5t-111 -223.5t-173.5 -179t-233 -120t-280.5 -43h-526zM608 1110l-96 -782h131q162 0 283 133.5t121 316.5q0 146 -87.5 239t-228.5 93h-123zM1055 1958l112 -168l-426 -256l-360 256l154 168
l241 -139z" />
    <glyph glyph-name="dcaron" unicode="&#x10f;" horiz-adv-x="1830" 
d="M975 1464h362q-18 -129 -32 -262l-129 -1050q-82 -72 -230.5 -132.5t-331.5 -60.5q-258 0 -400 127.5t-142 335.5q0 134 47 246t125 184t177 112t206 40q91 0 170.5 -32t111.5 -75l11 4q-5 15 -5 33q0 4 5 61l26 207q5 41 15.5 142t13.5 120zM840 338l30 256
q-53 111 -186 111q-101 0 -172.5 -75.5t-71.5 -178.5q0 -86 54.5 -139.5t144.5 -53.5q113 0 201 80zM1516 1270l36 307h316l-39 -324q-12 -99 -89.5 -207t-172.5 -169l-90 124q65 47 111.5 112t56.5 140l2 17h-131z" />
    <glyph glyph-name="Dcroat" unicode="&#x110;" horiz-adv-x="1566" 
d="M74 879q7 0 55 -1t68 -1h30l68 557h571q186 0 327.5 -81.5t215.5 -221t74 -314.5q0 -130 -38 -251.5t-111 -223.5t-173.5 -179t-233 -120t-280.5 -43h-526l65 549h-30q-20 0 -68 -1t-55 -1zM649 1110l-28 -233h77q20 0 68 1t55 1l-41 -332q-7 0 -55 1t-68 1h-77l-27 -221
h131q162 0 282.5 133.5t120.5 316.5q0 146 -87 239t-228 93h-123z" />
    <glyph glyph-name="dcroat" unicode="&#x111;" horiz-adv-x="1363" 
d="M975 1464h362q-1 -12 -7 -56.5t-9 -68.5q39 0 102.5 1t73.5 1l-24 -204q-109 0 -177 2l-120 -987q-82 -72 -230.5 -132.5t-331.5 -60.5q-258 0 -400 127.5t-142 335.5q0 134 47 246t125 184t177 112t206 40q91 0 170.5 -32t111.5 -75l11 4q-5 15 -5 33q0 4 5 61l18 144
h-121q-40 0 -135.5 -1t-110.5 -1l25 204q15 0 110.5 -1t135.5 -1h119zM840 338l30 256q-53 111 -186 111q-101 0 -172.5 -75.5t-71.5 -178.5q0 -86 54.5 -139.5t144.5 -53.5q113 0 201 80z" />
    <glyph glyph-name="Emacron" unicode="&#x112;" horiz-adv-x="1060" 
d="M80 0l174 1434h530q40 0 136.5 1t111.5 1l-43 -340q-15 0 -110.5 1t-135.5 1h-168l-24 -213h90q40 0 135.5 1t110.5 1l-43 -340q-15 0 -110.5 1t-135.5 1h-90l-25 -213h201q40 0 135.5 1t110.5 1l-43 -340q-15 0 -109.5 1t-134.5 1h-563zM403 1835q7 0 55 -1t68 -1h308
q20 0 67.5 1t54.5 1l-30 -250q-7 0 -54 1t-67 1h-307q-20 0 -69 -1t-56 -1z" />
    <glyph glyph-name="emacron" unicode="&#x113;" horiz-adv-x="1249" 
d="M1120 422h-700q-2 -10 -2 -33q0 -84 40.5 -130t119.5 -46q134 0 200 129l275 -166q-62 -90 -185 -153.5t-301 -63.5q-122 0 -217 34.5t-153.5 96t-88.5 140.5t-30 171q0 175 82.5 314.5t216.5 214t291 74.5q220 0 343.5 -124.5t123.5 -318.5q0 -34 -15 -139zM647 774
q-64 0 -117 -39t-71 -112h346q0 3 1 9t1 9q0 51 -41.5 92t-118.5 41zM428 1333q7 0 55 -1t68 -1h307q20 0 68 1t55 1l-31 -250q-7 0 -54 1t-67 1h-307q-20 0 -69 -1t-56 -1z" />
    <glyph glyph-name="Ebreve" unicode="&#x114;" horiz-adv-x="1060" 
d="M80 0l174 1434h530q40 0 136.5 1t111.5 1l-43 -340q-15 0 -110.5 1t-135.5 1h-168l-24 -213h90q40 0 135.5 1t110.5 1l-43 -340q-15 0 -110.5 1t-135.5 1h-90l-25 -213h201q40 0 135.5 1t110.5 1l-43 -340q-15 0 -109.5 1t-134.5 1h-563zM295 1837l209 80
q10 -62 57 -93.5t121 -31.5q73 0 127.5 33t79.5 92l192 -80q-52 -136 -168 -213.5t-262 -77.5t-241.5 77.5t-114.5 213.5z" />
    <glyph glyph-name="ebreve" unicode="&#x115;" horiz-adv-x="1249" 
d="M1120 422h-700q-2 -10 -2 -33q0 -84 40.5 -130t119.5 -46q134 0 200 129l275 -166q-62 -90 -185 -153.5t-301 -63.5q-122 0 -217 34.5t-153.5 96t-88.5 140.5t-30 171q0 175 82.5 314.5t216.5 214t291 74.5q220 0 343.5 -124.5t123.5 -318.5q0 -34 -15 -139zM647 774
q-64 0 -117 -39t-71 -112h346q0 3 1 9t1 9q0 51 -41.5 92t-118.5 41zM315 1335l209 80q10 -62 57 -93.5t121 -31.5q73 0 127.5 33t79.5 92l193 -80q-52 -136 -168 -213.5t-262 -77.5t-242 77.5t-115 213.5z" />
    <glyph glyph-name="Edotaccent" unicode="&#x116;" horiz-adv-x="1060" 
d="M80 0l174 1434h530q40 0 136.5 1t111.5 1l-43 -340q-15 0 -110.5 1t-135.5 1h-168l-24 -213h90q40 0 135.5 1t110.5 1l-43 -340q-15 0 -110.5 1t-135.5 1h-90l-25 -213h201q40 0 135.5 1t110.5 1l-43 -340q-15 0 -109.5 1t-134.5 1h-563zM698 1987q73 0 122.5 -49.5
t49.5 -120.5q0 -87 -66 -153.5t-153 -66.5q-73 0 -123.5 50t-50.5 122q0 87 67.5 152.5t153.5 65.5z" />
    <glyph glyph-name="edotaccent" unicode="&#x117;" horiz-adv-x="1249" 
d="M1120 422h-700q-2 -10 -2 -33q0 -84 40.5 -130t119.5 -46q134 0 200 129l275 -166q-62 -90 -185 -153.5t-301 -63.5q-122 0 -217 34.5t-153.5 96t-88.5 140.5t-30 171q0 175 82.5 314.5t216.5 214t291 74.5q220 0 343.5 -124.5t123.5 -318.5q0 -34 -15 -139zM647 774
q-64 0 -117 -39t-71 -112h346q0 3 1 9t1 9q0 51 -41.5 92t-118.5 41zM715 1444q73 0 122.5 -49.5t49.5 -120.5q0 -87 -66 -153t-153 -66q-73 0 -123.5 50t-50.5 122q0 87 67.5 152t153.5 65z" />
    <glyph glyph-name="Eogonek" unicode="&#x118;" horiz-adv-x="1060" 
d="M80 0l174 1434h530q40 0 136.5 1t111.5 1l-43 -340q-15 0 -110.5 1t-135.5 1h-168l-24 -213h90q40 0 135.5 1t110.5 1l-43 -340q-15 0 -110.5 1t-135.5 1h-90l-25 -213h201q40 0 135.5 1t110.5 1l-43 -340q-10 0 -79 1t-110 1q-82 -82 -82 -158q0 -44 28 -66t73 -22
q64 0 133 41l76 -209q-123 -78 -281 -78q-142 0 -218.5 68.5t-76.5 177.5q0 128 99 246h-369z" />
    <glyph glyph-name="eogonek" unicode="&#x119;" horiz-adv-x="1249" 
d="M1120 422h-700q-2 -10 -2 -33q0 -84 40.5 -130t119.5 -46q134 0 200 129l275 -166q-38 -58 -117 -115q-59 -42 -106.5 -100t-47.5 -119q0 -44 28 -66t73 -22q64 0 133 41l76 -209q-123 -78 -281 -78q-142 0 -218.5 68.5t-76.5 177.5q0 107 66 205h-15q-122 0 -217 34.5
t-153.5 96t-88.5 140.5t-30 171q0 175 82.5 314.5t216.5 214t291 74.5q220 0 343.5 -124.5t123.5 -318.5q0 -34 -15 -139zM647 774q-64 0 -117 -39t-71 -112h346q0 3 1 9t1 9q0 51 -41.5 92t-118.5 41z" />
    <glyph glyph-name="Ecaron" unicode="&#x11a;" horiz-adv-x="1060" 
d="M80 0l174 1434h530q40 0 136.5 1t111.5 1l-43 -340q-15 0 -110.5 1t-135.5 1h-168l-24 -213h90q40 0 135.5 1t110.5 1l-43 -340q-15 0 -110.5 1t-135.5 1h-90l-25 -213h201q40 0 135.5 1t110.5 1l-43 -340q-15 0 -109.5 1t-134.5 1h-563zM948 1958l113 -168l-426 -256
l-361 256l154 168l242 -139z" />
    <glyph glyph-name="ecaron" unicode="&#x11b;" horiz-adv-x="1249" 
d="M1120 422h-700q-2 -10 -2 -33q0 -84 40.5 -130t119.5 -46q134 0 200 129l275 -166q-62 -90 -185 -153.5t-301 -63.5q-122 0 -217 34.5t-153.5 96t-88.5 140.5t-30 171q0 175 82.5 314.5t216.5 214t291 74.5q220 0 343.5 -124.5t123.5 -318.5q0 -34 -15 -139zM647 774
q-64 0 -117 -39t-71 -112h346q0 3 1 9t1 9q0 51 -41.5 92t-118.5 41zM963 1456l112 -168l-426 -256l-360 256l153 168l242 -139z" />
    <glyph glyph-name="Gcircumflex" unicode="&#x11c;" horiz-adv-x="1712" 
d="M1139 442h-17q-40 0 -134 -1t-109 -1l39 324q15 0 110 -1t135 -1h461q0 -154 -56 -297.5t-158.5 -256.5t-261 -181t-347.5 -68q-159 0 -290 50.5t-218.5 139t-135.5 208.5t-48 259q0 170 69.5 328t187 274.5t280.5 186.5t341 70q188 0 329 -73t222 -202l-301 -250
q-97 180 -293 180q-125 0 -226.5 -67.5t-157.5 -178.5t-56 -241q0 -166 90.5 -265t245.5 -99q120 0 190 27.5t131 80.5q13 12 23.5 26t16 23t7.5 10l-4 9q-20 -13 -65 -13zM1386 1700l-153 -168l-242 139l-278 -139l-113 168l426 256z" />
    <glyph glyph-name="gcircumflex" unicode="&#x11d;" horiz-adv-x="1363" 
d="M1255 811l-104 -852q-18 -146 -105 -249.5t-217 -152.5t-292 -49q-333 0 -500 142l215 237q36 -37 62.5 -56.5t80 -35.5t127.5 -16q67 0 121 21.5t84.5 53.5t47.5 61t20 52q7 72 20 94l-8 5q-44 -44 -130 -75.5t-177 -31.5q-191 0 -312.5 114t-121.5 314q0 130 48.5 243
t135.5 196t215 130.5t280 47.5q97 0 185 -19t150.5 -50t105.5 -62t69 -62zM844 369l30 256q-68 80 -180 80q-106 0 -180 -73t-74 -179q0 -85 51.5 -140t137.5 -55q133 0 215 111zM1153 1198l-154 -168l-241 139l-279 -139l-112 168l426 256z" />
    <glyph glyph-name="Gbreve" unicode="&#x11e;" horiz-adv-x="1712" 
d="M1139 442h-17q-40 0 -134 -1t-109 -1l39 324q15 0 110 -1t135 -1h461q0 -154 -56 -297.5t-158.5 -256.5t-261 -181t-347.5 -68q-159 0 -290 50.5t-218.5 139t-135.5 208.5t-48 259q0 170 69.5 328t187 274.5t280.5 186.5t341 70q188 0 329 -73t222 -202l-301 -250
q-97 180 -293 180q-125 0 -226.5 -67.5t-157.5 -178.5t-56 -241q0 -166 90.5 -265t245.5 -99q120 0 190 27.5t131 80.5q13 12 23.5 26t16 23t7.5 10l-4 9q-20 -13 -65 -13zM639 1837l209 80q10 -62 57 -93.5t121 -31.5q73 0 127.5 33t79.5 92l192 -80q-52 -136 -168 -213.5
t-262 -77.5t-241.5 77.5t-114.5 213.5z" />
    <glyph glyph-name="gbreve" unicode="&#x11f;" horiz-adv-x="1363" 
d="M1255 811l-104 -852q-18 -146 -105 -249.5t-217 -152.5t-292 -49q-333 0 -500 142l215 237q36 -37 62.5 -56.5t80 -35.5t127.5 -16q67 0 121 21.5t84.5 53.5t47.5 61t20 52q7 72 20 94l-8 5q-44 -44 -130 -75.5t-177 -31.5q-191 0 -312.5 114t-121.5 314q0 130 48.5 243
t135.5 196t215 130.5t280 47.5q97 0 185 -19t150.5 -50t105.5 -62t69 -62zM844 369l30 256q-68 80 -180 80q-106 0 -180 -73t-74 -179q0 -85 51.5 -140t137.5 -55q133 0 215 111zM387 1335l209 80q10 -62 57 -93.5t121 -31.5q73 0 127.5 33t79.5 92l193 -80
q-52 -135 -168.5 -213t-262.5 -78t-241.5 77.5t-114.5 213.5z" />
    <glyph glyph-name="Gdotaccent" unicode="&#x120;" horiz-adv-x="1712" 
d="M1139 442h-17q-40 0 -134 -1t-109 -1l39 324q15 0 110 -1t135 -1h461q0 -154 -56 -297.5t-158.5 -256.5t-261 -181t-347.5 -68q-159 0 -290 50.5t-218.5 139t-135.5 208.5t-48 259q0 170 69.5 328t187 274.5t280.5 186.5t341 70q188 0 329 -73t222 -202l-301 -250
q-97 180 -293 180q-125 0 -226.5 -67.5t-157.5 -178.5t-56 -241q0 -166 90.5 -265t245.5 -99q120 0 190 27.5t131 80.5q13 12 23.5 26t16 23t7.5 10l-4 9q-20 -13 -65 -13zM1026 1946q73 0 122.5 -49.5t49.5 -120.5q0 -88 -66 -154t-153 -66q-73 0 -123.5 50.5t-50.5 122.5
q0 87 67.5 152t153.5 65z" />
    <glyph glyph-name="gdotaccent" unicode="&#x121;" horiz-adv-x="1363" 
d="M1255 811l-104 -852q-18 -146 -105 -249.5t-217 -152.5t-292 -49q-333 0 -500 142l215 237q36 -37 62.5 -56.5t80 -35.5t127.5 -16q67 0 121 21.5t84.5 53.5t47.5 61t20 52q7 72 20 94l-8 5q-44 -44 -130 -75.5t-177 -31.5q-191 0 -312.5 114t-121.5 314q0 130 48.5 243
t135.5 196t215 130.5t280 47.5q97 0 185 -19t150.5 -50t105.5 -62t69 -62zM844 369l30 256q-68 80 -180 80q-106 0 -180 -73t-74 -179q0 -85 51.5 -140t137.5 -55q133 0 215 111zM780 1444q73 0 122.5 -49.5t49.5 -120.5q0 -87 -66 -153t-153 -66q-73 0 -123.5 50t-50.5 122
q0 87 67.5 152t153.5 65z" />
    <glyph glyph-name="Hcircumflex" unicode="&#x124;" horiz-adv-x="1622" 
d="M1540 1188l-117 -942q-10 -90 -26 -246h-398q2 18 14.5 113t16.5 133l41 327h-528l-41 -327q-23 -207 -27 -246h-397q2 18 14.5 113t16.5 133l116 942q23 207 27 246h397q-2 -18 -14.5 -113t-16.5 -133l-38 -307h528l39 307q23 207 27 246h397q-2 -18 -14.5 -113
t-16.5 -133zM1337 1700l-153 -168l-242 139l-278 -139l-113 168l426 256z" />
    <glyph glyph-name="hcircumflex" unicode="&#x125;" horiz-adv-x="1292" 
d="M604 1516q-2 -18 -14.5 -113t-16.5 -133l-28 -230q-5 -46 -23 -103.5t-26 -74.5l8 -4q43 59 136 102.5t200 43.5q147 0 236 -76.5t89 -233.5q0 -21 -4 -71l-47 -377q-23 -207 -27 -246h-362q2 18 14.5 113t16.5 133l35 286q2 14 2 43q0 69 -34 103.5t-95 34.5
q-68 0 -119.5 -44t-63.5 -143l-35 -280q-10 -90 -26 -246h-363q2 18 14.5 113t16.5 133l127 1024q23 207 27 246h362zM1176 1741l-154 -168l-242 139l-278 -139l-113 168l426 256z" />
    <glyph glyph-name="Itilde" unicode="&#x128;" horiz-adv-x="720" 
d="M262 1434h397q-2 -19 -14 -114t-16 -132l-117 -942q-23 -207 -27 -246h-397q2 18 14.5 113t16.5 133l117 942q10 90 26 246zM743 1956l238 -41q-37 -120 -149.5 -204.5t-235.5 -84.5q-35 0 -51 4l-154 27q-3 0 -8 1t-8 1q-35 0 -69 -28t-44 -66l-237 41
q35 119 147.5 203.5t235.5 84.5q17 0 53 -4l151 -26q4 -2 17 -2q37 0 70 28t44 66z" />
    <glyph glyph-name="itilde" unicode="&#x129;" horiz-adv-x="645" 
d="M547 963q-2 -17 -15.5 -112t-17.5 -134l-57 -471q-23 -207 -27 -246h-362q2 19 14 114t16 132l58 471q3 31 14.5 128t13.5 118h363zM637 1413l237 -41q-37 -120 -149.5 -204.5t-235.5 -84.5q-35 0 -51 4l-153 27q-3 0 -8.5 1t-8.5 1q-35 0 -68 -28t-44 -66l-238 41
q35 119 147.5 204t235.5 85q17 0 53 -4l152 -27q4 -2 16 -2q37 0 70.5 28t44.5 66z" />
    <glyph glyph-name="Imacron" unicode="&#x12a;" horiz-adv-x="700" 
d="M252 1434h397q-2 -18 -14.5 -113t-16.5 -133l-116 -942q-23 -207 -27 -246h-397q2 18 14.5 113t16.5 133l116 942q23 207 27 246zM225 1835q7 0 55 -1t68 -1h307q20 0 68 1t55 1l-30 -250q-7 0 -54 1t-67 1h-308q-20 0 -68.5 -1t-55.5 -1z" />
    <glyph glyph-name="imacron" unicode="&#x12b;" horiz-adv-x="645" 
d="M547 963q-2 -17 -15.5 -112t-17.5 -134l-57 -471q-23 -207 -27 -246h-362q2 19 14 114t16 132l58 471q3 31 14.5 128t13.5 118h363zM133 1333q7 0 55 -1t68 -1h307q20 0 68 1t55 1l-31 -250q-7 0 -53.5 1t-66.5 1h-308q-20 0 -69 -1t-56 -1z" />
    <glyph glyph-name="Ibreve" unicode="&#x12c;" horiz-adv-x="720" 
d="M262 1434h397q-2 -19 -14 -114t-16 -132l-117 -942q-23 -207 -27 -246h-397q2 18 14.5 113t16.5 133l117 942q10 90 26 246zM121 1837l209 80q10 -62 57 -93.5t121 -31.5q73 0 127.5 33t79.5 92l192 -80q-52 -136 -168 -213.5t-262 -77.5t-241.5 77.5t-114.5 213.5z" />
    <glyph glyph-name="ibreve" unicode="&#x12d;" horiz-adv-x="645" 
d="M547 963q-2 -17 -15.5 -112t-17.5 -134l-57 -471q-23 -207 -27 -246h-362q2 19 14 114t16 132l58 471q3 31 14.5 128t13.5 118h363zM18 1335l209 80q10 -62 57.5 -93.5t121.5 -31.5q73 0 127 32.5t79 92.5l193 -80q-52 -136 -168 -213.5t-262 -77.5t-242 77.5t-115 213.5
z" />
    <glyph glyph-name="Iogonek" unicode="&#x12e;" horiz-adv-x="720" 
d="M262 1434h397q-2 -19 -14 -114t-16 -132l-117 -942q-23 -207 -27 -246q-84 -80 -84 -158q0 -44 28 -66t73 -22q64 0 133 41l76 -209q-123 -78 -281 -78q-142 0 -218.5 68.5t-76.5 177.5q0 130 98 246h-145q2 18 14.5 113t16.5 133l117 942q10 90 26 246z" />
    <glyph glyph-name="iogonek" unicode="&#x12f;" horiz-adv-x="645" 
d="M547 963q-2 -17 -15.5 -112t-17.5 -134l-57 -471q-23 -207 -27 -246q-84 -80 -84 -158q0 -44 27.5 -66t72.5 -22q65 0 134 41l75 -209q-123 -78 -280 -78q-142 0 -218.5 68.5t-76.5 177.5q0 130 98 246h-110q2 19 14 114t16 132l58 471q3 31 14.5 128t13.5 118h363z
M432 1511q73 0 122.5 -49.5t49.5 -120.5q0 -87 -66 -153t-153 -66q-73 0 -123.5 50t-50.5 122q0 87 67.5 152t153.5 65z" />
    <glyph glyph-name="Idotaccent" unicode="&#x130;" horiz-adv-x="720" 
d="M262 1434h397q-2 -19 -14 -114t-16 -132l-117 -942q-23 -207 -27 -246h-397q2 18 14.5 113t16.5 133l117 942q10 90 26 246zM528 1987q73 0 122.5 -49.5t49.5 -120.5q0 -87 -66 -153.5t-153 -66.5q-73 0 -123.5 50t-50.5 122q0 87 67.5 152.5t153.5 65.5z" />
    <glyph glyph-name="dotlessi" unicode="&#x131;" horiz-adv-x="645" 
d="M547 963q-2 -17 -15.5 -112t-17.5 -134l-57 -471q-23 -207 -27 -246h-362q2 19 14 114t16 132l58 471q3 31 14.5 128t13.5 118h363z" />
    <glyph glyph-name="Jcircumflex" unicode="&#x134;" horiz-adv-x="1048" 
d="M-8 180l270 252q8 -56 35 -98.5t78 -42.5q37 0 66.5 33.5t35.5 81.5l96 782q23 207 27 246h397q-2 -19 -14 -114t-16 -132l-97 -782q-10 -83 -51 -161.5t-105.5 -143t-159.5 -103.5t-204 -39q-262 0 -358 221zM1137 1700l-154 -168l-242 139l-278 -139l-113 168l426 256z
" />
    <glyph glyph-name="jcircumflex" unicode="&#x135;" horiz-adv-x="645" 
d="M786 1198l-153 -168l-242 139l-278 -139l-113 168l426 256zM-203 -471l35 283q35 -7 57 -7q79 0 123.5 47.5t57.5 147.5l86 717q3 25 10 83t12 102t6 61h363q-2 -17 -15.5 -112t-17.5 -134l-80 -656q-18 -146 -63 -254.5t-111 -173t-145.5 -95t-173.5 -30.5
q-93 0 -144 21z" />
    <glyph glyph-name="kgreenlandic" unicode="&#x138;" horiz-adv-x="1372" 
d="M174 963h363q-1 -21 -15 -117.5t-18 -128.5l-12 -111l266 238q23 20 127 119h467q-17 -15 -260 -224l-271 -231l230 -262q15 -17 98 -108.5t123 -137.5h-492q-18 20 -52.5 67.5t-51.5 67.5l-211 254l-19 -143q-3 -21 -26 -246h-363q2 18 14.5 113t16.5 133l57 471
q4 36 15.5 131t13.5 115z" />
    <glyph glyph-name="Lacute" unicode="&#x139;" horiz-adv-x="1052" 
d="M80 0l145 1188q23 207 27 246h397q-2 -18 -14.5 -113t-16.5 -133l-106 -856h203q40 0 136.5 1t111.5 1l-43 -336q-15 0 -109.5 1t-134.5 1h-596zM719 1962l213 -156l-369 -307l-166 119z" />
    <glyph glyph-name="lacute" unicode="&#x13a;" horiz-adv-x="645" 
d="M260 1577h363q-2 -17 -15.5 -112t-17.5 -134l-133 -1085q-23 -207 -27 -246h-362q2 19 14 114t16 132l133 1085q4 36 15.5 131t13.5 115zM602 2142l213 -155l-369 -308l-165 119z" />
    <glyph glyph-name="Lcaron" unicode="&#x13d;" horiz-adv-x="1427" 
d="M80 0l145 1188q23 207 27 246h397q-2 -18 -14.5 -113t-16.5 -133l-106 -856h203q40 0 136.5 1t111.5 1l-43 -336q-15 0 -109.5 1t-134.5 1h-596zM1085 1270l37 307h316l-39 -324q-12 -99 -89.5 -207t-172.5 -169l-90 124q65 46 111 111.5t56 140.5l3 17h-132z" />
    <glyph glyph-name="lcaron" unicode="&#x13e;" horiz-adv-x="1177" 
d="M260 1577h363q-2 -17 -15.5 -112t-17.5 -134l-133 -1085q-23 -207 -27 -246h-362q2 19 14 114t16 132l133 1085q4 36 15.5 131t13.5 115zM840 1270l37 307h315l-39 -324q-12 -99 -89.5 -207t-172.5 -169l-90 124q65 47 111.5 112t56.5 140l2 17h-131z" />
    <glyph glyph-name="Lslash" unicode="&#x141;" horiz-adv-x="1052" 
d="M80 0l63 524l-127 -84l-125 209l291 193l43 346q23 207 27 246h397q-3 -19 -14.5 -114.5t-16.5 -131.5l-8 -62l224 150l124 -209l-387 -256l-59 -479h203q40 0 136.5 1t111.5 1l-43 -336q-15 0 -109.5 1t-134.5 1h-596z" />
    <glyph glyph-name="lslash" unicode="&#x142;" horiz-adv-x="645" 
d="M260 1577h363q-1 -21 -15 -117.5t-18 -128.5l-21 -180l133 90l125 -209q-16 -12 -102 -67.5t-115 -75.5l-80 -53l-73 -590q-23 -207 -27 -246h-362q2 19 14 114t16 132l41 327l-133 -88l-125 209l297 197l53 440q4 36 15.5 131t13.5 115z" />
    <glyph glyph-name="Nacute" unicode="&#x143;" horiz-adv-x="1644" 
d="M260 1470h37l721 -634q17 -15 28.5 -25.5t22 -24t14 -18.5t16 -25.5t17.5 -27.5l8 2q0 3 -1 18t-1 27q0 49 8 106l39 320q23 207 27 246h397q-2 -19 -14 -114t-16 -132l-152 -1225h-37l-717 658q-42 38 -57 56.5t-43 63.5l-8 -2q0 -3 1 -18.5t1 -28.5q0 -61 -6 -104
l-43 -342q-7 -49 -27 -246h-397q2 18 14.5 113t16.5 133zM1034 1962l213 -156l-368 -307l-166 119z" />
    <glyph glyph-name="nacute" unicode="&#x144;" horiz-adv-x="1280" 
d="M506 846l8 -4q32 63 115.5 112.5t199.5 49.5q144 0 237 -78t93 -236q0 -21 -4 -67l-47 -377q-23 -207 -27 -246h-362q2 18 14.5 113t16.5 133l34 286q2 14 2 43q0 69 -32.5 105.5t-91.5 36.5q-66 0 -117.5 -42.5t-61.5 -129.5l-37 -299q-10 -90 -26 -246h-363
q2 18 14.5 113t16.5 133l57 471q4 36 15.5 131t13.5 115h356q-18 -105 -24 -117zM752 1589l213 -155l-369 -308l-166 119z" />
    <glyph glyph-name="Ncaron" unicode="&#x147;" horiz-adv-x="1644" 
d="M260 1470h37l721 -634q17 -15 28.5 -25.5t22 -24t14 -18.5t16 -25.5t17.5 -27.5l8 2q0 3 -1 18t-1 27q0 49 8 106l39 320q23 207 27 246h397q-2 -19 -14 -114t-16 -132l-152 -1225h-37l-717 658q-42 38 -57 56.5t-43 63.5l-8 -2q0 -3 1 -18.5t1 -28.5q0 -61 -6 -104
l-43 -342q-7 -49 -27 -246h-397q2 18 14.5 113t16.5 133zM1219 1958l112 -168l-426 -256l-360 256l153 168l242 -139z" />
    <glyph glyph-name="ncaron" unicode="&#x148;" horiz-adv-x="1286" 
d="M506 846l8 -4q32 63 115.5 112.5t199.5 49.5q144 0 237 -78t93 -236q0 -21 -4 -67l-47 -377q-23 -207 -27 -246h-362q2 18 14.5 113t16.5 133l34 286q2 14 2 43q0 69 -32.5 105.5t-91.5 36.5q-66 0 -117.5 -42.5t-61.5 -129.5l-37 -299q-10 -90 -26 -246h-363
q2 18 14.5 113t16.5 133l57 471q4 36 15.5 131t13.5 115h356q-18 -105 -24 -117zM954 1456l113 -168l-426 -256l-360 256l153 168l242 -139z" />
    <glyph glyph-name="Eng" unicode="&#x14a;" horiz-adv-x="1644" 
d="M532 -270l271 252q8 -56 34.5 -99t77.5 -43q37 0 67 34t36 81l37 301l-398 365q-42 38 -57 56.5t-43 63.5l-8 -2q0 -3 1 -18.5t1 -28.5q0 -61 -6 -104l-43 -342q-7 -49 -27 -246h-397q2 18 14.5 113t16.5 133l151 1224h37l721 -634q17 -15 28.5 -25.5t22 -24t14 -18.5
t16 -25.5t17.5 -27.5l8 2q0 3 -1 18t-1 27q0 49 8 106l39 320q23 207 27 246h397q-2 -19 -14 -114t-16 -132l-152 -1233q-10 -83 -51 -161.5t-105.5 -143t-159.5 -103.5t-204 -39q-263 0 -359 222z" />
    <glyph glyph-name="eng" unicode="&#x14b;" horiz-adv-x="1286" 
d="M446 -471l35 283q35 -7 58 -7q80 0 124.5 47t57.5 148l63 532q2 14 2 43q0 69 -32.5 105.5t-91.5 36.5q-66 0 -117.5 -46t-63.5 -145l-35 -280q-10 -90 -26 -246h-363q2 18 14.5 113t16.5 133l57 471q4 36 15.5 131t13.5 115h356q-18 -105 -24 -117l8 -4
q32 63 115.5 112.5t199.5 49.5q144 0 237 -78t93 -236q0 -21 -4 -67l-70 -562q-19 -147 -64 -255t-111 -172.5t-145 -95t-173 -30.5q-95 0 -146 21z" />
    <glyph glyph-name="Omacron" unicode="&#x14c;" horiz-adv-x="1785" 
d="M999 1475q152 0 284 -51.5t223.5 -140.5t143.5 -211.5t52 -260.5q0 -135 -46 -264.5t-129 -234.5t-192.5 -185t-244.5 -124t-277 -44q-204 0 -365.5 88t-250 240t-88.5 338q0 169 72.5 326t192.5 271.5t284.5 183.5t340.5 69zM954 1110q-117 0 -221 -60t-166.5 -162.5
t-62.5 -219.5q0 -147 100.5 -245.5t253.5 -98.5q179 0 313 131.5t134 310.5q0 146 -99.5 245t-251.5 99zM766 1835q7 0 55 -1t68 -1h307q20 0 68 1t55 1l-31 -250q-7 0 -54 1t-67 1h-307q-20 0 -69 -1t-56 -1z" />
    <glyph glyph-name="omacron" unicode="&#x14d;" horiz-adv-x="1335" 
d="M717 1004q234 0 379 -131t145 -328q0 -117 -50.5 -225t-137 -187t-208.5 -126.5t-257 -47.5q-235 0 -381 131.5t-146 329.5q0 117 51.5 224.5t138.5 186.5t209 126t257 47zM680 717q-104 0 -181 -79t-77 -185q0 -89 56 -148t145 -59q106 0 182 79.5t76 186.5
q0 88 -56 146.5t-145 58.5zM479 1333q7 0 55 -1t68 -1h307q20 0 68 1t55 1l-31 -250q-7 0 -53.5 1t-66.5 1h-308q-20 0 -68.5 -1t-55.5 -1z" />
    <glyph glyph-name="Obreve" unicode="&#x14e;" horiz-adv-x="1785" 
d="M999 1475q152 0 284 -51.5t223.5 -140.5t143.5 -211.5t52 -260.5q0 -135 -46 -264.5t-129 -234.5t-192.5 -185t-244.5 -124t-277 -44q-204 0 -365.5 88t-250 240t-88.5 338q0 169 72.5 326t192.5 271.5t284.5 183.5t340.5 69zM954 1110q-117 0 -221 -60t-166.5 -162.5
t-62.5 -219.5q0 -147 100.5 -245.5t253.5 -98.5q179 0 313 131.5t134 310.5q0 146 -99.5 245t-251.5 99zM651 1837l209 80q10 -62 57 -93.5t121 -31.5q73 0 127.5 33t79.5 92l193 -80q-52 -136 -168 -213.5t-262 -77.5t-242 77.5t-115 213.5z" />
    <glyph glyph-name="obreve" unicode="&#x14f;" horiz-adv-x="1335" 
d="M717 1004q234 0 379 -131t145 -328q0 -117 -50.5 -225t-137 -187t-208.5 -126.5t-257 -47.5q-235 0 -381 131.5t-146 329.5q0 117 51.5 224.5t138.5 186.5t209 126t257 47zM680 717q-104 0 -181 -79t-77 -185q0 -89 56 -148t145 -59q106 0 182 79.5t76 186.5
q0 88 -56 146.5t-145 58.5zM365 1335l208 80q10 -62 57.5 -93.5t121.5 -31.5q73 0 127 32.5t79 92.5l193 -80q-52 -136 -168 -213.5t-262 -77.5t-241.5 77.5t-114.5 213.5z" />
    <glyph glyph-name="Ohungarumlaut" unicode="&#x150;" horiz-adv-x="1785" 
d="M999 1475q152 0 284 -51.5t223.5 -140.5t143.5 -211.5t52 -260.5q0 -135 -46 -264.5t-129 -234.5t-192.5 -185t-244.5 -124t-277 -44q-204 0 -365.5 88t-250 240t-88.5 338q0 169 72.5 326t192.5 271.5t284.5 183.5t340.5 69zM954 1110q-117 0 -221 -60t-166.5 -162.5
t-62.5 -219.5q0 -147 100.5 -245.5t253.5 -98.5q179 0 313 131.5t134 310.5q0 146 -99.5 245t-251.5 99zM899 1552l-133 62l149 268l179 -82zM1198 1552l-133 62l149 268l179 -82z" />
    <glyph glyph-name="ohungarumlaut" unicode="&#x151;" horiz-adv-x="1335" 
d="M717 1004q234 0 379 -131t145 -328q0 -117 -50.5 -225t-137 -187t-208.5 -126.5t-257 -47.5q-235 0 -381 131.5t-146 329.5q0 117 51.5 224.5t138.5 186.5t209 126t257 47zM680 717q-104 0 -181 -79t-77 -185q0 -89 56 -148t145 -59q106 0 182 79.5t76 186.5
q0 88 -56 146.5t-145 58.5zM616 1071l-133 62l150 268l178 -82zM915 1071l-133 62l150 268l178 -82z" />
    <glyph glyph-name="OE" unicode="&#x152;" horiz-adv-x="2179" 
d="M1198 0l6 51q4 38 21 111l-4 2q-63 -95 -205.5 -150t-284.5 -55q-180 0 -325 86.5t-225.5 237t-80.5 335.5q0 169 68 327.5t179.5 274.5t262 185.5t308.5 69.5q142 0 270.5 -57t169.5 -150l4 2q-2 12 -2 35q0 11 4 61l8 68h531q40 0 136 1t111 1l-43 -340q-15 0 -110 1
t-135 1h-168l-25 -213h90q40 0 135.5 1t110.5 1l-43 -340q-15 0 -110.5 1t-135.5 1h-90l-24 -213h200q40 0 135.5 1t110.5 1l-43 -340q-15 0 -109.5 1t-134.5 1h-563zM938 1110q-111 0 -211.5 -60t-162.5 -162.5t-62 -219.5q0 -147 97 -245.5t243 -98.5q115 0 217.5 60
t164.5 162.5t62 219.5q0 146 -98.5 245t-249.5 99z" />
    <glyph glyph-name="oe" unicode="&#x153;" horiz-adv-x="2058" 
d="M1929 422h-700q-2 -10 -2 -33q0 -84 40.5 -130t118.5 -46q135 0 201 129l275 -166q-62 -90 -185 -153.5t-301 -63.5q-242 0 -372 133q-180 -133 -416 -133q-235 0 -381 131.5t-146 329.5q0 117 51.5 224.5t138.5 186.5t209 126t257 47q227 0 383 -136q161 136 377 136
q220 0 343.5 -124.5t123.5 -318.5q0 -34 -15 -139zM680 717q-104 0 -181 -79t-77 -185q0 -89 56 -148t145 -59q106 0 182 79.5t76 186.5q0 88 -56 146.5t-145 58.5zM1456 774q-64 0 -117 -39t-71 -112h346q0 3 1 9t1 9q0 51 -41.5 92t-118.5 41z" />
    <glyph glyph-name="Racute" unicode="&#x154;" horiz-adv-x="1306" 
d="M848 1962l213 -156l-369 -307l-166 119zM254 1434h616q188 0 299 -111t111 -291q0 -164 -71.5 -280.5t-192.5 -171.5l104 -357l64 -223h-412q-9 35 -25.5 96t-23.5 86l-94 350h-92l-35 -286q-23 -207 -27 -246h-397q2 18 14.5 113t16.5 133zM610 1118l-39 -311h123
q75 0 129 51t54 121q0 60 -37.5 99.5t-98.5 39.5h-131z" />
    <glyph glyph-name="racute" unicode="&#x155;" horiz-adv-x="901" 
d="M625 1589l213 -155l-369 -308l-166 119zM899 958l-39 -321q-60 27 -125 27q-110 0 -181 -61.5t-83 -160.5l-25 -196q-10 -90 -26 -246h-363q2 18 14.5 113t16.5 133l57 471q4 36 15.5 131t13.5 115h356q-10 -98 -22 -140l10 -4q37 67 119 109.5t176 42.5q60 0 86 -13z
" />
    <glyph glyph-name="Rcaron" unicode="&#x158;" horiz-adv-x="1306" 
d="M997 1999l113 -168l-426 -256l-360 256l153 168l242 -139zM254 1434h616q188 0 299 -111t111 -291q0 -164 -71.5 -280.5t-192.5 -171.5l104 -357l64 -223h-412q-9 35 -25.5 96t-23.5 86l-94 350h-92l-35 -286q-23 -207 -27 -246h-397q2 18 14.5 113t16.5 133zM610 1118
l-39 -311h123q75 0 129 51t54 121q0 60 -37.5 99.5t-98.5 39.5h-131z" />
    <glyph glyph-name="rcaron" unicode="&#x159;" horiz-adv-x="901" 
d="M811 1456l113 -168l-426 -256l-361 256l154 168l241 -139zM899 958l-39 -321q-60 27 -125 27q-110 0 -181 -61.5t-83 -160.5l-25 -196q-10 -90 -26 -246h-363q2 18 14.5 113t16.5 133l57 471q4 36 15.5 131t13.5 115h356q-10 -98 -22 -140l10 -4q37 67 119 109.5
t176 42.5q60 0 86 -13z" />
    <glyph glyph-name="Sacute" unicode="&#x15a;" horiz-adv-x="1181" 
d="M1159 1243l-256 -213q-92 150 -211 150q-45 0 -73.5 -28t-28.5 -65q0 -26 11 -49.5t35.5 -46t44 -37.5t56 -39.5t51.5 -35.5q130 -97 173 -138q121 -117 132 -255q1 -15 1 -31q0 -143 -76.5 -257.5t-206.5 -176.5t-287 -62q-184 0 -313.5 83.5t-196.5 223.5l320 174
q33 -82 92 -132t139 -50q62 0 104 36t42 87q0 37 -27.5 74t-71.5 70.5t-97 70t-106 79t-97 90t-71.5 111t-27.5 134.5q0 119 70 226.5t188 173t250 65.5q263 0 438 -232zM975 1962l213 -156l-369 -307l-166 119z" />
    <glyph glyph-name="sacute" unicode="&#x15b;" horiz-adv-x="958" 
d="M682 1589l213 -155l-369 -308l-166 119zM934 877l-217 -211q-23 47 -70 86t-108 39q-51 0 -75 -22t-24 -48q0 -24 24.5 -46.5t63 -41.5t85.5 -40t94.5 -48t86 -59.5t63 -80t24.5 -104.5q0 -157 -123.5 -257.5t-343.5 -100.5q-315 0 -463 166l270 219q20 -35 45 -65
t72.5 -58.5t99.5 -28.5q49 0 76 22t27 56q0 24 -24 46t-62.5 42t-85 41.5t-93.5 49.5t-85.5 61t-62.5 80.5t-24 103.5q0 142 120.5 242t326.5 100q122 0 225.5 -40t157.5 -103z" />
    <glyph glyph-name="Scircumflex" unicode="&#x15c;" horiz-adv-x="1181" 
d="M1159 1243l-256 -213q-92 150 -211 150q-45 0 -73.5 -28t-28.5 -65q0 -26 11 -49.5t35.5 -46t44 -37.5t56 -39.5t51.5 -35.5q130 -97 173 -138q121 -117 132 -255q1 -15 1 -31q0 -143 -76.5 -257.5t-206.5 -176.5t-287 -62q-184 0 -313.5 83.5t-196.5 223.5l320 174
q33 -82 92 -132t139 -50q62 0 104 36t42 87q0 37 -27.5 74t-71.5 70.5t-97 70t-106 79t-97 90t-71.5 111t-27.5 134.5q0 119 70 226.5t188 173t250 65.5q263 0 438 -232zM1133 1679l-154 -168l-242 140l-278 -140l-113 168l426 256z" />
    <glyph glyph-name="scircumflex" unicode="&#x15d;" horiz-adv-x="958" 
d="M965 1198l-154 -168l-242 139l-278 -139l-113 168l426 256zM934 877l-217 -211q-23 47 -70 86t-108 39q-51 0 -75 -22t-24 -48q0 -24 24.5 -46.5t63 -41.5t85.5 -40t94.5 -48t86 -59.5t63 -80t24.5 -104.5q0 -157 -123.5 -257.5t-343.5 -100.5q-315 0 -463 166l270 219
q20 -35 45 -65t72.5 -58.5t99.5 -28.5q49 0 76 22t27 56q0 24 -24 46t-62.5 42t-85 41.5t-93.5 49.5t-85.5 61t-62.5 80.5t-24 103.5q0 142 120.5 242t326.5 100q122 0 225.5 -40t157.5 -103z" />
    <glyph glyph-name="Scedilla" unicode="&#x15e;" horiz-adv-x="1181" 
d="M1159 1243l-256 -213q-92 150 -211 150q-45 0 -73.5 -28t-28.5 -65q0 -26 11 -49.5t35.5 -46t44 -37.5t56 -39.5t51.5 -35.5q130 -97 173 -138q121 -117 132 -255q1 -15 1 -31q0 -143 -76.5 -257.5t-206.5 -176.5t-287 -62q-184 0 -313.5 83.5t-196.5 223.5l320 174
q33 -82 92 -132t139 -50q62 0 104 36t42 87q0 37 -27.5 74t-71.5 70.5t-97 70t-106 79t-97 90t-71.5 111t-27.5 134.5q0 119 70 226.5t188 173t250 65.5q263 0 438 -232zM489 -66l-251 -262l120 -106l279 233z" />
    <glyph glyph-name="scedilla" unicode="&#x15f;" horiz-adv-x="958" 
d="M420 -66l-252 -262l121 -106l278 233zM934 877l-217 -211q-23 47 -70 86t-108 39q-51 0 -75 -22t-24 -48q0 -24 24.5 -46.5t63 -41.5t85.5 -40t94.5 -48t86 -59.5t63 -80t24.5 -104.5q0 -157 -123.5 -257.5t-343.5 -100.5q-315 0 -463 166l270 219q20 -35 45 -65
t72.5 -58.5t99.5 -28.5q49 0 76 22t27 56q0 24 -24 46t-62.5 42t-85 41.5t-93.5 49.5t-85.5 61t-62.5 80.5t-24 103.5q0 142 120.5 242t326.5 100q122 0 225.5 -40t157.5 -103z" />
    <glyph glyph-name="Scaron" unicode="&#x160;" horiz-adv-x="1181" 
d="M1159 1243l-256 -213q-92 150 -211 150q-45 0 -73.5 -28t-28.5 -65q0 -26 11 -49.5t35.5 -46t44 -37.5t56 -39.5t51.5 -35.5q130 -97 173 -138q121 -117 132 -255q1 -15 1 -31q0 -143 -76.5 -257.5t-206.5 -176.5t-287 -62q-184 0 -313.5 83.5t-196.5 223.5l320 174
q33 -82 92 -132t139 -50q62 0 104 36t42 87q0 37 -27.5 74t-71.5 70.5t-97 70t-106 79t-97 90t-71.5 111t-27.5 134.5q0 119 70 226.5t188 173t250 65.5q263 0 438 -232zM1020 1999l113 -168l-426 -256l-361 256l154 168l241 -139z" />
    <glyph glyph-name="scaron" unicode="&#x161;" horiz-adv-x="958" 
d="M934 877l-217 -211q-23 47 -70 86t-108 39q-51 0 -75 -22t-24 -48q0 -24 24.5 -46.5t63 -41.5t85.5 -40t94.5 -48t86 -59.5t63 -80t24.5 -104.5q0 -157 -123.5 -257.5t-343.5 -100.5q-315 0 -463 166l270 219q20 -35 45 -65t72.5 -58.5t99.5 -28.5q49 0 76 22t27 56
q0 24 -24 46t-62.5 42t-85 41.5t-93.5 49.5t-85.5 61t-62.5 80.5t-24 103.5q0 142 120.5 242t326.5 100q122 0 225.5 -40t157.5 -103zM823 1456l113 -168l-426 -256l-360 256l153 168l242 -139z" />
    <glyph glyph-name="Tcommaaccent" unicode="&#x162;" horiz-adv-x="1097" 
d="M1139 1436l-43 -340q-15 0 -110.5 1t-135.5 1h-45l-105 -852q-10 -90 -26 -246h-398q2 18 14.5 113t16.5 133l105 852h-45q-40 0 -135.5 -1t-110.5 -1l43 340q15 0 109.5 -1t134.5 -1h483q40 0 136.5 1t111.5 1zM461 -66l-252 -262l121 -106l278 233z" />
    <glyph glyph-name="tcommaaccent" unicode="&#x163;" horiz-adv-x="737" 
d="M569 1229q-6 -60 -32 -246l-2 -20q41 0 109.5 1t78.5 1l-37 -308q-116 0 -188 2l-52 -413q-10 -90 -26 -246h-363q2 18 14.5 113t16.5 133l90 737q4 36 15.5 131t13.5 115h362zM201 -66l-252 -262l121 -106l278 233z" />
    <glyph glyph-name="Tcaron" unicode="&#x164;" horiz-adv-x="1097" 
d="M1139 1436l-43 -340q-15 0 -110.5 1t-135.5 1h-45l-105 -852q-10 -90 -26 -246h-398q2 18 14.5 113t16.5 133l105 852h-45q-40 0 -135.5 -1t-110.5 -1l43 340q15 0 109.5 -1t134.5 -1h483q40 0 136.5 1t111.5 1zM946 1958l113 -168l-426 -256l-361 256l154 168l242 -139z
" />
    <glyph glyph-name="tcaron" unicode="&#x165;" horiz-adv-x="1230" 
d="M569 1229q-6 -60 -32 -246l-2 -20q41 0 109.5 1t78.5 1l-37 -308q-116 0 -188 2l-52 -413q-10 -90 -26 -246h-363q2 18 14.5 113t16.5 133l90 737q4 36 15.5 131t13.5 115h362zM911 1270l37 307h316l-39 -324q-12 -99 -89.5 -207t-172.5 -169l-91 124q65 47 111.5 112
t56.5 140l2 17h-131z" />
    <glyph glyph-name="Utilde" unicode="&#x168;" horiz-adv-x="1579" 
d="M649 1434q-2 -18 -14.5 -113t-16.5 -133l-83 -676q-3 -15 -3 -29q0 -96 64 -144t182 -48q128 0 223 61l103 836q10 90 26 246h398q-2 -18 -14.5 -113t-16.5 -133l-131 -1057q-36 -24 -65 -41t-89.5 -44t-122.5 -44t-155.5 -30t-196.5 -13q-315 0 -459.5 106t-144.5 338
q0 31 8 109l84 676q23 207 27 246h397zM1165 1915l238 -41q-37 -120 -149.5 -204.5t-235.5 -84.5q-35 0 -51 4l-154 27q-3 0 -8 1t-8 1q-35 0 -69 -28t-44 -66l-238 41q35 119 147.5 203.5t235.5 84.5q18 0 54 -4l151 -26q4 -2 17 -2q37 0 70 28t44 66z" />
    <glyph glyph-name="utilde" unicode="&#x169;" horiz-adv-x="1302" 
d="M1214 963q-2 -18 -15 -113t-17 -133l-78 -635q-67 -42 -211 -82.5t-311 -40.5q-482 0 -482 340q0 45 4 70l41 348q3 27 10 83.5t12.5 101t6.5 61.5h363q-1 -21 -15 -117.5t-18 -128.5l-35 -297q-2 -10 -2 -31q0 -65 40 -104t122 -39q72 0 141 33l53 438q4 36 15.5 131
t13.5 115h362zM965 1413l237 -41q-37 -120 -149.5 -204.5t-235.5 -84.5q-35 0 -51 4l-154 27q-3 0 -8 1t-8 1q-35 0 -69 -28t-44 -66l-237 41q35 119 147.5 204t235.5 85q17 0 53 -4l152 -27q4 -2 16 -2q37 0 70.5 28t44.5 66z" />
    <glyph glyph-name="Umacron" unicode="&#x16a;" horiz-adv-x="1579" 
d="M649 1434q-2 -18 -14.5 -113t-16.5 -133l-83 -676q-3 -15 -3 -29q0 -96 64 -144t182 -48q128 0 223 61l103 836q10 90 26 246h398q-2 -18 -14.5 -113t-16.5 -133l-131 -1057q-36 -24 -65 -41t-89.5 -44t-122.5 -44t-155.5 -30t-196.5 -13q-315 0 -459.5 106t-144.5 338
q0 31 8 109l84 676q23 207 27 246h397zM662 1835q7 0 54.5 -1t67.5 -1h308q20 0 67.5 1t54.5 1l-30 -250q-7 0 -54 1t-67 1h-307q-20 0 -69 -1t-56 -1z" />
    <glyph glyph-name="umacron" unicode="&#x16b;" horiz-adv-x="1302" 
d="M1214 963q-2 -18 -15 -113t-17 -133l-78 -635q-67 -42 -211 -82.5t-311 -40.5q-482 0 -482 340q0 45 4 70l41 348q3 27 10 83.5t12.5 101t6.5 61.5h363q-1 -21 -15 -117.5t-18 -128.5l-35 -297q-2 -10 -2 -31q0 -65 40 -104t122 -39q72 0 141 33l53 438q4 36 15.5 131
t13.5 115h362zM461 1333q7 0 55 -1t68 -1h307q20 0 68 1t55 1l-31 -250q-7 0 -54 1t-67 1h-307q-20 0 -69 -1t-56 -1z" />
    <glyph glyph-name="Ubreve" unicode="&#x16c;" horiz-adv-x="1579" 
d="M649 1434q-2 -18 -14.5 -113t-16.5 -133l-83 -676q-3 -15 -3 -29q0 -96 64 -144t182 -48q128 0 223 61l103 836q10 90 26 246h398q-2 -18 -14.5 -113t-16.5 -133l-131 -1057q-36 -24 -65 -41t-89.5 -44t-122.5 -44t-155.5 -30t-196.5 -13q-315 0 -459.5 106t-144.5 338
q0 31 8 109l84 676q23 207 27 246h397zM547 1837l209 80q10 -62 57 -93.5t121 -31.5q73 0 127.5 33t79.5 92l192 -80q-52 -136 -168 -213.5t-262 -77.5t-241.5 77.5t-114.5 213.5z" />
    <glyph glyph-name="ubreve" unicode="&#x16d;" horiz-adv-x="1302" 
d="M1214 963q-2 -18 -15 -113t-17 -133l-78 -635q-67 -42 -211 -82.5t-311 -40.5q-482 0 -482 340q0 45 4 70l41 348q3 27 10 83.5t12.5 101t6.5 61.5h363q-1 -21 -15 -117.5t-18 -128.5l-35 -297q-2 -10 -2 -31q0 -65 40 -104t122 -39q72 0 141 33l53 438q4 36 15.5 131
t13.5 115h362zM346 1335l209 80q10 -62 57 -93.5t121 -31.5q73 0 127.5 33t79.5 92l193 -80q-52 -135 -168.5 -213t-262.5 -78t-241.5 77.5t-114.5 213.5z" />
    <glyph glyph-name="Uring" unicode="&#x16e;" horiz-adv-x="1579" 
d="M649 1434q-2 -18 -14.5 -113t-16.5 -133l-83 -676q-3 -15 -3 -29q0 -96 64 -144t182 -48q128 0 223 61l103 836q10 90 26 246h398q-2 -18 -14.5 -113t-16.5 -133l-131 -1057q-36 -24 -65 -41t-89.5 -44t-122.5 -44t-155.5 -30t-196.5 -13q-315 0 -459.5 106t-144.5 338
q0 31 8 109l84 676q23 207 27 246h397zM958 1997q112 0 176 -59t64 -150q0 -108 -84 -185t-215 -77q-112 0 -174.5 57.5t-62.5 147.5q0 110 82 188t214 78zM936 1825q-42 0 -66 -21.5t-24 -52.5q0 -24 20 -38.5t56 -14.5q40 0 65 20t25 49q0 26 -20 42t-56 16z" />
    <glyph glyph-name="uring" unicode="&#x16f;" horiz-adv-x="1302" 
d="M1214 963q-2 -18 -15 -113t-17 -133l-78 -635q-67 -42 -211 -82.5t-311 -40.5q-482 0 -482 340q0 45 4 70l41 348q3 27 10 83.5t12.5 101t6.5 61.5h363q-1 -21 -15 -117.5t-18 -128.5l-35 -297q-2 -10 -2 -31q0 -65 40 -104t122 -39q72 0 141 33l53 438q4 36 15.5 131
t13.5 115h362zM766 1536q112 0 176 -59t64 -150q0 -108 -84 -185t-215 -77q-112 0 -175 57.5t-63 147.5q0 110 82.5 188t214.5 78zM743 1364q-42 0 -66 -21.5t-24 -52.5q0 -24 20 -38.5t56 -14.5q40 0 65 20.5t25 49.5q0 25 -20 41t-56 16z" />
    <glyph glyph-name="Uhungarumlaut" unicode="&#x170;" horiz-adv-x="1579" 
d="M649 1434q-2 -18 -14.5 -113t-16.5 -133l-83 -676q-3 -15 -3 -29q0 -96 64 -144t182 -48q128 0 223 61l103 836q10 90 26 246h398q-2 -18 -14.5 -113t-16.5 -133l-131 -1057q-36 -24 -65 -41t-89.5 -44t-122.5 -44t-155.5 -30t-196.5 -13q-315 0 -459.5 106t-144.5 338
q0 31 8 109l84 676q23 207 27 246h397zM784 1552l-133 62l150 268l178 -82zM1083 1552l-133 62l150 268l178 -82z" />
    <glyph glyph-name="uhungarumlaut" unicode="&#x171;" horiz-adv-x="1302" 
d="M1214 963q-2 -18 -15 -113t-17 -133l-78 -635q-67 -42 -211 -82.5t-311 -40.5q-482 0 -482 340q0 45 4 70l41 348q3 27 10 83.5t12.5 101t6.5 61.5h363q-1 -21 -15 -117.5t-18 -128.5l-35 -297q-2 -10 -2 -31q0 -65 40 -104t122 -39q72 0 141 33l53 438q4 36 15.5 131
t13.5 115h362zM588 1071l-133 62l149 268l178 -82zM887 1071l-133 62l149 268l178 -82z" />
    <glyph glyph-name="Uogonek" unicode="&#x172;" horiz-adv-x="1579" 
d="M1366 131q-13 -9 -52 -33t-61 -38.5t-55.5 -42t-52 -51t-33 -56.5t-14.5 -68q0 -44 27.5 -66t72.5 -22q64 0 133 41l76 -209q-123 -78 -281 -78q-142 0 -218.5 68.5t-76.5 177.5q0 110 74 213q-106 -8 -168 -8q-315 0 -459.5 106t-144.5 338q0 31 8 109l84 676
q23 207 27 246h397q-2 -18 -14.5 -113t-16.5 -133l-83 -676q-3 -15 -3 -29q0 -96 64 -144t182 -48q128 0 223 61l103 836q10 90 26 246h398q-2 -18 -14.5 -113t-16.5 -133z" />
    <glyph glyph-name="uogonek" unicode="&#x173;" horiz-adv-x="1302" 
d="M1214 963q-2 -18 -15 -113t-17 -133l-78 -635q-53 -38 -89 -69.5t-66.5 -78.5t-30.5 -92q0 -44 27.5 -66t72.5 -22q64 0 133 41l76 -209q-123 -78 -281 -78q-142 0 -218.5 68.5t-76.5 177.5t74 215q-78 -10 -143 -10q-482 0 -482 340q0 45 4 70l41 348q3 27 10 83.5
t12.5 101t6.5 61.5h363q-1 -21 -15 -117.5t-18 -128.5l-35 -297q-2 -10 -2 -31q0 -65 40 -104t122 -39q72 0 141 33l53 438q4 36 15.5 131t13.5 115h362z" />
    <glyph glyph-name="Wcircumflex" unicode="&#x174;" horiz-adv-x="2195" 
d="M1098 717q-1 -19 -31 -84t-63 -121l-328 -569h-37l-428 1228q-84 242 -90 263h391q45 -141 66 -197l127 -348q15 -42 29 -113.5t14 -91.5h8q3 20 30 81t62 124l317 561h37l189 -561q20 -59 31.5 -120t11.5 -85h8q3 17 36 88t60 117l209 348q42 72 108 197h420
q-73 -117 -159 -263l-740 -1228h-37l-194 569q-17 50 -30 117t-13 88h-4zM1608 1700l-154 -168l-242 139l-278 -139l-113 168l426 256z" />
    <glyph glyph-name="wcircumflex" unicode="&#x175;" horiz-adv-x="1843" 
d="M926 528h-8q-4 -45 -89 -204l-172 -324h-245l-252 705q-15 43 -31.5 86t-35.5 92t-30 80h390q33 -127 53 -187l45 -137q53 -165 53 -205h8q3 17 35 86t60 119l178 324h172l110 -308q16 -42 34 -113t20 -91h8q6 37 94 204l63 121q15 27 31 58.5t35 70t29 58.5h387
q-106 -171 -156 -258l-414 -705h-225l-104 324q-20 58 -31.5 119t-11.5 85zM1391 1198l-154 -168l-242 139l-278 -139l-113 168l426 256z" />
    <glyph glyph-name="Ycircumflex" unicode="&#x176;" horiz-adv-x="1474" 
d="M481 0q2 18 14.5 113t16.5 133l55 446l-291 486q-13 22 -79 129.5t-76 126.5h465q57 -111 84 -158l69 -123q21 -38 37.5 -80.5t16.5 -60.5h8q0 8 27 52.5t61 88.5l96 125q83 109 123 156h446q-26 -34 -206 -252l-400 -482l-55 -454q-23 -207 -27 -246h-385zM1264 1700
l-154 -168l-242 139l-278 -139l-113 168l426 256z" />
    <glyph glyph-name="ycircumflex" unicode="&#x177;" horiz-adv-x="1318" 
d="M1341 963q-12 -21 -172 -267l-622 -968q-23 -36 -64 -103t-47 -76h-395q12 16 43.5 64.5t73 113.5t53.5 83l219 348l-246 542q-100 210 -121 263h408q25 -72 64 -168l65 -164q21 -55 35 -109.5t14 -75.5h8q3 15 33.5 73.5t63.5 111.5l94 149q23 35 60.5 101.5t47.5 81.5
h385zM1137 1198l-154 -168l-242 139l-278 -139l-113 168l426 256z" />
    <glyph glyph-name="Ydieresis" unicode="&#x178;" horiz-adv-x="1474" 
d="M481 0q2 18 14.5 113t16.5 133l55 446l-291 486q-13 22 -79 129.5t-76 126.5h465q57 -111 84 -158l69 -123q21 -38 37.5 -80.5t16.5 -60.5h8q0 8 27 52.5t61 88.5l96 125q83 109 123 156h446q-26 -34 -206 -252l-400 -482l-55 -454q-23 -207 -27 -246h-385zM647 1966
q73 0 122.5 -50t49.5 -122q0 -87 -66.5 -152t-152.5 -65q-73 0 -122.5 49t-49.5 121q0 88 65.5 153.5t153.5 65.5zM1159 1966q73 0 122.5 -50t49.5 -122q0 -87 -66.5 -152t-152.5 -65q-73 0 -122.5 49t-49.5 121q0 88 65.5 153.5t153.5 65.5z" />
    <glyph glyph-name="Zacute" unicode="&#x179;" horiz-adv-x="1368" 
d="M807 319h158q40 0 135 1.5t110 1.5l-41 -324q-15 0 -109 1t-134 1h-971l682 948q54 76 95 121.5t56 52.5l-4 8q-27 -12 -219 -12h-129q-40 0 -136.5 -1t-111.5 -1l41 320q15 0 109.5 -1t134.5 -1h934l-672 -945q-42 -60 -90 -114t-63 -60l4 -8q30 12 221 12zM854 1962
l213 -156l-369 -307l-166 119z" />
    <glyph glyph-name="zacute" unicode="&#x17a;" horiz-adv-x="1073" 
d="M657 274h72q40 0 135.5 1t110.5 1l-35 -278q-15 0 -109.5 1t-134.5 1h-729l436 592q44 61 99 108l-4 9q-34 -21 -136 -21h-20q-40 0 -135.5 -1t-110.5 -1l33 279q15 0 110.5 -1t135.5 -1h672l-431 -590q-12 -17 -25.5 -32t-23.5 -25t-22 -20t-18 -14.5t-15 -11.5l-10 -6
l6 -8q24 18 149 18zM748 1589l213 -155l-369 -308l-166 119z" />
    <glyph glyph-name="Zdotaccent" unicode="&#x17b;" horiz-adv-x="1368" 
d="M807 319h158q40 0 135 1.5t110 1.5l-41 -324q-15 0 -109 1t-134 1h-971l682 948q54 76 95 121.5t56 52.5l-4 8q-27 -12 -219 -12h-129q-40 0 -136.5 -1t-111.5 -1l41 320q15 0 109.5 -1t134.5 -1h934l-672 -945q-42 -60 -90 -114t-63 -60l4 -8q30 12 221 12zM842 1946
q73 0 122.5 -49.5t49.5 -120.5q0 -88 -66 -154t-153 -66q-73 0 -123.5 50.5t-50.5 122.5q0 87 67.5 152t153.5 65z" />
    <glyph glyph-name="zdotaccent" unicode="&#x17c;" horiz-adv-x="1073" 
d="M657 274h72q40 0 135.5 1t110.5 1l-35 -278q-15 0 -109.5 1t-134.5 1h-729l436 592q44 61 99 108l-4 9q-34 -21 -136 -21h-20q-40 0 -135.5 -1t-110.5 -1l33 279q15 0 110.5 -1t135.5 -1h672l-431 -590q-12 -17 -25.5 -32t-23.5 -25t-22 -20t-18 -14.5t-15 -11.5l-10 -6
l6 -8q24 18 149 18zM639 1444q73 0 122.5 -49.5t49.5 -120.5q0 -87 -66 -153t-153 -66q-73 0 -123.5 50t-50.5 122q0 87 67.5 152t153.5 65z" />
    <glyph glyph-name="Zcaron" unicode="&#x17d;" horiz-adv-x="1368" 
d="M807 319h158q40 0 135 1.5t110 1.5l-41 -324q-15 0 -109 1t-134 1h-971l682 948q54 76 95 121.5t56 52.5l-4 8q-27 -12 -219 -12h-129q-40 0 -136.5 -1t-111.5 -1l41 320q15 0 109.5 -1t134.5 -1h934l-672 -945q-42 -60 -90 -114t-63 -60l4 -8q30 12 221 12zM1114 1999
l113 -168l-426 -256l-361 256l154 168l242 -139z" />
    <glyph glyph-name="zcaron" unicode="&#x17e;" horiz-adv-x="1073" 
d="M657 274h72q40 0 135.5 1t110.5 1l-35 -278q-15 0 -109.5 1t-134.5 1h-729l436 592q44 61 99 108l-4 9q-34 -21 -136 -21h-20q-40 0 -135.5 -1t-110.5 -1l33 279q15 0 110.5 -1t135.5 -1h672l-431 -590q-12 -17 -25.5 -32t-23.5 -25t-22 -20t-18 -14.5t-15 -11.5l-10 -6
l6 -8q24 18 149 18zM874 1456l113 -168l-426 -256l-360 256l153 168l242 -139z" />
    <glyph glyph-name="longs" unicode="&#x17f;" horiz-adv-x="675" 
d="M811 1454l-35 -283q-41 9 -61 9q-153 0 -174 -176l-150 -1209q-23 -207 -29 -246h-362q20 133 33 246l139 1127q18 146 63 254.5t111.5 173t146 95t173.5 30.5t145 -21z" />
    <glyph glyph-name="uni018E" unicode="&#x18e;" horiz-adv-x="1060" 
d="M981 1434l-174 -1434h-563q-40 0 -136.5 -1t-111.5 -1l43 340q15 0 110.5 -1t135.5 -1h200l25 213h-90q-40 0 -135.5 -1t-110.5 -1l43 340q15 0 110.5 -1t135.5 -1h90l25 213h-168q-40 0 -135.5 -1t-110.5 -1l43 340q15 0 109.5 -1t134.5 -1h530z" />
    <glyph glyph-name="Schwa" unicode="&#x18f;" horiz-adv-x="1712" 
d="M895 1130q-194 0 -338 -180l-240 250q112 128 272.5 201.5t348.5 73.5q152 0 282 -51t219 -139.5t139 -210t50 -259.5q0 -137 -42 -266t-121.5 -235t-186 -186t-242.5 -124.5t-284 -44.5q-157 0 -282.5 47t-205.5 129t-122 189t-42 231q0 80 25 207h1108
q0 159 -90.5 263.5t-247.5 104.5zM1137 463h-613q-43 0 -61 12l-8 -8q2 -2 5 -9.5t8.5 -22t14.5 -27.5q19 -27 39.5 -46.5t55 -40t88.5 -31.5t125 -11q107 0 196.5 48t149.5 136z" />
    <glyph glyph-name="uni0191" unicode="&#x191;" horiz-adv-x="1073" 
d="M-410 -270l271 252q8 -56 34 -99t76 -43q37 0 67 34t36 81l180 1479h563q40 0 136.5 1t111.5 1l-43 -340q-15 0 -110.5 1t-135.5 1h-170l-24 -213h98q40 0 135.5 1t110.5 1l-43 -340q-15 0 -110.5 1t-135.5 1h-98l-72 -594q-10 -83 -51 -161.5t-105.5 -143t-159.5 -103.5
t-204 -39q-261 0 -357 222z" />
    <glyph glyph-name="florin" unicode="&#x192;" horiz-adv-x="778" 
d="M811 1454l-35 -283q-35 7 -57 7q-80 0 -124.5 -47t-57.5 -148l-2 -20q42 0 118.5 1t89.5 1l-30 -260q-13 0 -90 1t-119 1l-80 -646q-19 -147 -64 -255t-111 -172.5t-145.5 -95t-173.5 -30.5q-92 0 -143 21l35 283q35 -7 57 -7q157 0 180 195l113 922q18 146 63 254.5
t111.5 173t146 95t173.5 30.5t145 -21z" />
    <glyph glyph-name="uni01B5" unicode="&#x1b5;" horiz-adv-x="1368" 
d="M195 858q7 0 54.5 -1t67.5 -1h254l66 92q52 73 93.5 118.5t57.5 55.5l-4 8q-27 -12 -219 -12h-129q-40 0 -136.5 -1t-111.5 -1l41 320q15 0 109.5 -1t134.5 -1h934l-412 -578h90q20 0 68 1t55 1l-34 -291q-7 0 -55 1t-68 1h-258l-58 -80q-42 -60 -90 -114t-63 -60l4 -8
q30 12 221 12h158q40 0 135 1.5t110 1.5l-41 -324q-15 0 -109 1t-134 1h-971l410 569h-82q-20 0 -68 -1t-55 -1z" />
    <glyph glyph-name="uni01B6" unicode="&#x1b6;" horiz-adv-x="1073" 
d="M127 606q7 0 55 -1t68 -1h162q37 50 90 96l-4 9q-34 -21 -136 -21h-20q-40 0 -135.5 -1t-110.5 -1l33 279q15 0 110.5 -1t135.5 -1h672l-263 -359h27q20 0 68 1t55 1l-27 -209q-7 0 -55 1t-68 1h-149l-19 -26q-17 -25 -37 -46t-33.5 -31.5t-28 -20.5t-15.5 -11l6 -8
q24 18 149 18h72q40 0 135.5 1t110.5 1l-35 -278q-15 0 -109.5 1t-134.5 1h-729l293 399h-37q-20 0 -68 -1t-55 -1z" />
    <glyph glyph-name="Acaron" unicode="&#x1cd;" 
d="M879 1483h41l460 -1260q50 -137 86 -223h-407q-6 22 -25 73.5t-24 69.5l-9 29h-522l-16 -29q-4 -8 -35.5 -62.5t-44.5 -80.5h-420q9 15 34.5 56t58 92.5t46.5 74.5zM709 463h129q56 0 71 -10l4 8q-10 5 -26 51l-37 104q-35 97 -35 152v4h-8q-7 -36 -74 -156l-59 -104
q-23 -42 -41 -51l4 -8q10 10 72 10zM1190 1999l113 -168l-426 -256l-361 256l154 168l241 -139z" />
    <glyph glyph-name="acaron" unicode="&#x1ce;" horiz-adv-x="1218" 
d="M975 1456l112 -168l-425 -256l-361 256l154 168l241 -139zM741 555l9 4q-7 21 -7 57q0 4 1 11t1 10q0 72 -48 110.5t-128 38.5q-146 0 -276 -69l-74 205q54 26 98 42t131.5 32t188.5 16q93 0 172.5 -16.5t144.5 -51t102.5 -94.5t37.5 -141q0 -20 -9 -99l-63 -516
q-50 -32 -109.5 -59.5t-173.5 -55.5t-233 -28q-125 0 -216.5 25.5t-143.5 70.5t-76.5 100t-24.5 121q0 164 121.5 271.5t333.5 107.5q90 0 155 -26.5t86 -65.5zM541 176q93 0 157 57l17 123q-16 36 -57.5 65.5t-98.5 29.5q-73 0 -117.5 -43t-44.5 -105q0 -56 38 -91.5
t106 -35.5z" />
    <glyph glyph-name="uni01CF" unicode="&#x1cf;" horiz-adv-x="720" 
d="M262 1434h397q-2 -19 -14 -114t-16 -132l-117 -942q-23 -207 -27 -246h-397q2 18 14.5 113t16.5 133l117 942q10 90 26 246zM764 1999l113 -168l-426 -256l-361 256l154 168l241 -139z" />
    <glyph glyph-name="uni01D0" unicode="&#x1d0;" horiz-adv-x="645" 
d="M547 963q-2 -17 -15.5 -112t-17.5 -134l-57 -471q-23 -207 -27 -246h-362q2 19 14 114t16 132l58 471q3 31 14.5 128t13.5 118h363zM657 1456l113 -168l-426 -256l-360 256l153 168l242 -139z" />
    <glyph glyph-name="uni01D1" unicode="&#x1d1;" horiz-adv-x="1785" 
d="M999 1475q152 0 284 -51.5t223.5 -140.5t143.5 -211.5t52 -260.5q0 -135 -46 -264.5t-129 -234.5t-192.5 -185t-244.5 -124t-277 -44q-204 0 -365.5 88t-250 240t-88.5 338q0 169 72.5 326t192.5 271.5t284.5 183.5t340.5 69zM954 1110q-117 0 -221 -60t-166.5 -162.5
t-62.5 -219.5q0 -147 100.5 -245.5t253.5 -98.5q179 0 313 131.5t134 310.5q0 146 -99.5 245t-251.5 99zM1290 1958l113 -168l-426 -256l-361 256l154 168l242 -139z" />
    <glyph glyph-name="uni01D2" unicode="&#x1d2;" horiz-adv-x="1335" 
d="M717 1004q234 0 379 -131t145 -328q0 -117 -50.5 -225t-137 -187t-208.5 -126.5t-257 -47.5q-235 0 -381 131.5t-146 329.5q0 117 51.5 224.5t138.5 186.5t209 126t257 47zM680 717q-104 0 -181 -79t-77 -185q0 -89 56 -148t145 -59q106 0 182 79.5t76 186.5
q0 88 -56 146.5t-145 58.5zM1004 1456l112 -168l-426 -256l-360 256l153 168l242 -139z" />
    <glyph glyph-name="uni01D3" unicode="&#x1d3;" horiz-adv-x="1585" 
d="M651 1434q-2 -19 -14 -114t-16 -132l-84 -676q-2 -10 -2 -29q0 -96 63.5 -144t181.5 -48q65 0 125.5 18t98.5 43l102 836q23 207 27 246h397q-2 -18 -14.5 -113t-16.5 -133l-131 -1057q-36 -24 -65 -41t-89.5 -44t-122.5 -44t-155.5 -30t-196.5 -13q-315 0 -459.5 106
t-144.5 338q0 31 8 109l84 676q23 207 27 246h397zM1194 1999l113 -168l-426 -256l-361 256l154 168l241 -139z" />
    <glyph glyph-name="uni01D4" unicode="&#x1d4;" horiz-adv-x="1306" 
d="M1219 963q-2 -17 -15.5 -112t-17.5 -134l-78 -635q-68 -42 -211.5 -82.5t-310.5 -40.5q-482 0 -482 340q0 39 5 70l41 348q3 25 10 83t12 102t6 61h363q-1 -21 -15 -117.5t-18 -128.5l-35 -297q-2 -10 -2 -31q0 -65 40 -104t122 -39q72 0 141 33l53 438q4 36 15.5 131
t13.5 115h363zM989 1456l113 -168l-426 -256l-361 256l154 168l242 -139z" />
    <glyph glyph-name="uni01DD" unicode="&#x1dd;" horiz-adv-x="1249" 
d="M98 541h701v30q0 86 -40.5 132.5t-119.5 46.5q-133 0 -199 -129l-274 165q62 90 184.5 154t300.5 64q121 0 216 -35t154 -96t89.5 -140.5t30.5 -171.5q0 -131 -48.5 -245t-130 -191.5t-188.5 -121.5t-223 -44q-222 0 -345.5 125.5t-123.5 321.5q0 37 5.5 80t10.5 55z
M571 188q64 0 117.5 39.5t71.5 112.5h-346q-2 -6 -2 -18q0 -52 40.5 -93t118.5 -41z" />
    <glyph glyph-name="uni01E2" unicode="&#x1e2;" horiz-adv-x="1861" 
d="M889 0l20 172h-397l-12 -16l-117 -156h-436q143 176 209 260l905 1174h524q40 0 136.5 1t111.5 1l-43 -340q-15 0 -110.5 1t-135.5 1h-160l-24 -213h82q40 0 135.5 1t110.5 1l-43 -340q-15 0 -110.5 1t-135.5 1h-82l-25 -213h193q40 0 135.5 1t110.5 1l-43 -340
q-15 0 -109.5 1t-134.5 1h-555zM723 451q4 4 25.5 8t46.5 4h149l23 186q13 120 37 164l-11 4q-13 -30 -25 -49.5t-55 -75.5l-139 -180q-23 -31 -55 -53zM926 1835q7 0 55 -1t68 -1h307q20 0 68 1t55 1l-31 -250q-7 0 -54 1t-67 1h-307q-20 0 -69 -1t-56 -1z" />
    <glyph glyph-name="uni01E3" unicode="&#x1e3;" horiz-adv-x="1892" 
d="M1763 422h-700q-2 -10 -2 -33q0 -84 40.5 -130t119.5 -46q134 0 200 129l275 -166q-62 -90 -185 -153.5t-301 -63.5q-210 0 -340 102q-61 -40 -157.5 -71t-206.5 -31q-119 0 -208.5 25t-141.5 69t-77.5 99t-25.5 120q0 161 120.5 268t330.5 107q87 0 152.5 -27.5
t86.5 -68.5l9 4q-7 21 -7 59q0 4 1.5 12t1.5 11q0 71 -48 108t-129 37q-139 0 -266 -67l-74 205q53 25 94 40t125 29.5t187 14.5q238 0 356 -93q145 93 318 93q220 0 343.5 -124.5t123.5 -318.5q0 -34 -15 -139zM547 184q88 0 153 52l15 120q-16 37 -57.5 68t-98.5 31
q-71 0 -113.5 -43.5t-42.5 -106.5q0 -53 39.5 -87t104.5 -34zM1290 774q-64 0 -117 -39t-71 -112h346q0 3 1 9t1 9q0 51 -41.5 92t-118.5 41zM758 1333q7 0 55 -1t68 -1h307q20 0 68 1t55 1l-31 -250q-7 0 -54 1t-67 1h-307q-20 0 -69 -1t-56 -1z" />
    <glyph glyph-name="Gcaron" unicode="&#x1e6;" horiz-adv-x="1712" 
d="M1139 442h-17q-40 0 -134 -1t-109 -1l39 324q15 0 110 -1t135 -1h461q0 -154 -56 -297.5t-158.5 -256.5t-261 -181t-347.5 -68q-159 0 -290 50.5t-218.5 139t-135.5 208.5t-48 259q0 170 69.5 328t187 274.5t280.5 186.5t341 70q188 0 329 -73t222 -202l-301 -250
q-97 180 -293 180q-125 0 -226.5 -67.5t-157.5 -178.5t-56 -241q0 -166 90.5 -265t245.5 -99q120 0 190 27.5t131 80.5q13 12 23.5 26t16 23t7.5 10l-4 9q-20 -13 -65 -13zM1278 1999l113 -168l-426 -256l-361 256l154 168l241 -139z" />
    <glyph glyph-name="gcaron" unicode="&#x1e7;" horiz-adv-x="1370" 
d="M1262 811l-105 -852q-18 -146 -105 -249.5t-217 -152.5t-292 -49q-333 0 -500 142l215 237q36 -37 62.5 -56.5t80 -35.5t127.5 -16q67 0 121 21.5t84.5 53.5t47.5 61t20 52q7 72 20 94l-8 5q-44 -44 -130 -75.5t-177 -31.5q-191 0 -312.5 114t-121.5 314q0 130 48.5 243
t135.5 196t215.5 130.5t280.5 47.5q97 0 185 -19t150.5 -50t105.5 -62t69 -62zM850 369l31 256q-68 80 -181 80q-106 0 -180 -73t-74 -179q0 -85 51.5 -140t137.5 -55q133 0 215 111zM1020 1456l113 -168l-426 -256l-361 256l154 168l241 -139z" />
    <glyph glyph-name="uni01E8" unicode="&#x1e8;" horiz-adv-x="1533" 
d="M1094 1434h479q-42 -47 -125 -131t-109 -111l-428 -449l349 -485q31 -43 92 -129t92 -129h-506q-11 12 -24 33t-31.5 53t-32.5 53l-234 363q-16 24 -32.5 56t-25.5 53t-9 24l-10 -4q0 -1 1 -12t1 -21q0 -45 -13 -131l-26 -221q-23 -207 -27 -246h-397q2 18 14.5 113
t16.5 133l116 942q23 207 27 246h397q-13 -86 -31 -246l-26 -207q-16 -140 -29 -158l8 -4q0 1 9.5 14.5t33.5 44.5t56 68l315 371q67 78 109 117zM1143 1999l112 -168l-426 -256l-360 256l154 168l241 -139z" />
    <glyph glyph-name="uni01E9" unicode="&#x1e9;" horiz-adv-x="1372" 
d="M250 1577h362q-2 -18 -15 -113t-17 -133l-88 -725l266 238q23 20 127 119h467q-17 -15 -260 -224l-271 -231l230 -262q15 -17 98 -108.5t123 -137.5h-492q-18 20 -52.5 67.5t-51.5 67.5l-211 254l-19 -143q-3 -21 -26 -246h-363q2 18 14.5 113t16.5 133l133 1085
q4 36 15.5 131t13.5 115zM1087 1999l113 -168l-426 -256l-360 256l153 168l242 -139z" />
    <glyph glyph-name="uni01EA" unicode="&#x1ea;" horiz-adv-x="1785" 
d="M999 1475q152 0 284 -51.5t223.5 -140.5t143.5 -211.5t52 -260.5q0 -234 -129 -435t-340 -313q-156 -118 -156 -221q0 -44 28 -66t73 -22q64 0 133 41l75 -209q-123 -78 -280 -78q-142 0 -218.5 68.5t-76.5 177.5q0 108 68 207q-23 -2 -66 -2q-204 0 -365.5 88t-250 240
t-88.5 338q0 169 72.5 326t192.5 271.5t284.5 183.5t340.5 69zM954 1110q-117 0 -221 -60t-166.5 -162.5t-62.5 -219.5q0 -147 100.5 -245.5t253.5 -98.5q179 0 313 131.5t134 310.5q0 146 -99.5 245t-251.5 99z" />
    <glyph glyph-name="uni01EB" unicode="&#x1eb;" horiz-adv-x="1335" 
d="M717 1004q234 0 379 -131t145 -328q0 -145 -73 -271.5t-199 -205.5q-162 -122 -162 -226q0 -44 27.5 -66t72.5 -22q64 0 133 41l76 -209q-123 -78 -280 -78q-142 0 -218.5 68.5t-76.5 177.5q0 108 65 205h-18q-235 0 -381 131.5t-146 329.5q0 117 51.5 224.5t138.5 186.5
t209 126t257 47zM680 717q-104 0 -181 -79t-77 -185q0 -89 56 -148t145 -59q106 0 182 79.5t76 186.5q0 88 -56 146.5t-145 58.5z" />
    <glyph glyph-name="uni01EC" unicode="&#x1ec;" horiz-adv-x="1785" 
d="M766 1835q7 0 55 -1t68 -1h307q20 0 68 1t55 1l-31 -250q-7 0 -54 1t-67 1h-307q-20 0 -69 -1t-56 -1zM999 1475q152 0 284 -51.5t223.5 -140.5t143.5 -211.5t52 -260.5q0 -234 -129 -435t-340 -313q-156 -118 -156 -221q0 -44 28 -66t73 -22q64 0 133 41l75 -209
q-123 -78 -280 -78q-142 0 -218.5 68.5t-76.5 177.5q0 108 68 207q-23 -2 -66 -2q-204 0 -365.5 88t-250 240t-88.5 338q0 169 72.5 326t192.5 271.5t284.5 183.5t340.5 69zM954 1110q-117 0 -221 -60t-166.5 -162.5t-62.5 -219.5q0 -147 100.5 -245.5t253.5 -98.5
q179 0 313 131.5t134 310.5q0 146 -99.5 245t-251.5 99z" />
    <glyph glyph-name="uni01ED" unicode="&#x1ed;" horiz-adv-x="1335" 
d="M479 1333q7 0 55 -1t68 -1h307q20 0 68 1t55 1l-31 -250q-7 0 -53.5 1t-66.5 1h-308q-20 0 -68.5 -1t-55.5 -1zM717 1004q234 0 379 -131t145 -328q0 -145 -73 -271.5t-199 -205.5q-162 -122 -162 -226q0 -44 27.5 -66t72.5 -22q64 0 133 41l76 -209q-123 -78 -280 -78
q-142 0 -218.5 68.5t-76.5 177.5q0 108 65 205h-18q-235 0 -381 131.5t-146 329.5q0 117 51.5 224.5t138.5 186.5t209 126t257 47zM680 717q-104 0 -181 -79t-77 -185q0 -89 56 -148t145 -59q106 0 182 79.5t76 186.5q0 88 -56 146.5t-145 58.5z" />
    <glyph glyph-name="uni01F0" unicode="&#x1f0;" horiz-adv-x="645" 
d="M-203 -471l35 283q35 -7 57 -7q79 0 123.5 47.5t57.5 147.5l86 717q3 25 10 83t12 102t6 61h363q-2 -17 -15.5 -112t-17.5 -134l-80 -656q-18 -146 -63 -254.5t-111 -173t-145.5 -95t-173.5 -30.5q-93 0 -144 21zM657 1456l113 -168l-426 -256l-360 256l153 168l242 -139
z" />
    <glyph glyph-name="Gacute" unicode="&#x1f4;" horiz-adv-x="1712" 
d="M1139 442h-17q-40 0 -134 -1t-109 -1l39 324q15 0 110 -1t135 -1h461q0 -154 -56 -297.5t-158.5 -256.5t-261 -181t-347.5 -68q-159 0 -290 50.5t-218.5 139t-135.5 208.5t-48 259q0 170 69.5 328t187 274.5t280.5 186.5t341 70q188 0 329 -73t222 -202l-301 -250
q-97 180 -293 180q-125 0 -226.5 -67.5t-157.5 -178.5t-56 -241q0 -166 90.5 -265t245.5 -99q120 0 190 27.5t131 80.5q13 12 23.5 26t16 23t7.5 10l-4 9q-20 -13 -65 -13zM1141 1962l213 -156l-369 -307l-166 119z" />
    <glyph glyph-name="gacute" unicode="&#x1f5;" horiz-adv-x="1370" 
d="M1262 811l-105 -852q-18 -146 -105 -249.5t-217 -152.5t-292 -49q-333 0 -500 142l215 237q36 -37 62.5 -56.5t80 -35.5t127.5 -16q67 0 121 21.5t84.5 53.5t47.5 61t20 52q7 72 20 94l-8 5q-44 -44 -130 -75.5t-177 -31.5q-191 0 -312.5 114t-121.5 314q0 130 48.5 243
t135.5 196t215.5 130.5t280.5 47.5q97 0 185 -19t150.5 -50t105.5 -62t69 -62zM850 369l31 256q-68 80 -181 80q-106 0 -180 -73t-74 -179q0 -85 51.5 -140t137.5 -55q133 0 215 111zM932 1589l213 -155l-369 -308l-166 119z" />
    <glyph glyph-name="uni01F8" unicode="&#x1f8;" horiz-adv-x="1644" 
d="M260 1470h37l721 -634q17 -15 28.5 -25.5t22 -24t14 -18.5t16 -25.5t17.5 -27.5l8 2q0 3 -1 18t-1 27q0 49 8 106l39 320q23 207 27 246h397q-2 -19 -14 -114t-16 -132l-152 -1225h-37l-717 658q-42 38 -57 56.5t-43 63.5l-8 -2q0 -3 1 -18.5t1 -28.5q0 -61 -6 -104
l-43 -342q-7 -49 -27 -246h-397q2 18 14.5 113t16.5 133zM567 1806l254 156l236 -344l-195 -119z" />
    <glyph glyph-name="uni01F9" unicode="&#x1f9;" horiz-adv-x="1280" 
d="M506 846l8 -4q32 63 115.5 112.5t199.5 49.5q144 0 237 -78t93 -236q0 -21 -4 -67l-47 -377q-23 -207 -27 -246h-362q2 18 14.5 113t16.5 133l34 286q2 14 2 43q0 69 -32.5 105.5t-91.5 36.5q-66 0 -117.5 -42.5t-61.5 -129.5l-37 -299q-10 -90 -26 -246h-363
q2 18 14.5 113t16.5 133l57 471q4 36 15.5 131t13.5 115h356q-18 -105 -24 -117zM299 1434l254 155l235 -344l-194 -119z" />
    <glyph glyph-name="AEacute" unicode="&#x1fc;" horiz-adv-x="1861" 
d="M889 0l20 172h-397l-12 -16l-117 -156h-436q143 176 209 260l905 1174h524q40 0 136.5 1t111.5 1l-43 -340q-15 0 -110.5 1t-135.5 1h-160l-24 -213h82q40 0 135.5 1t110.5 1l-43 -340q-15 0 -110.5 1t-135.5 1h-82l-25 -213h193q40 0 135.5 1t110.5 1l-43 -340
q-15 0 -109.5 1t-134.5 1h-555zM723 451q4 4 25.5 8t46.5 4h149l23 186q13 120 37 164l-11 4q-13 -30 -25 -49.5t-55 -75.5l-139 -180q-23 -31 -55 -53zM1382 1962l213 -156l-368 -307l-166 119z" />
    <glyph glyph-name="aeacute" unicode="&#x1fd;" horiz-adv-x="1892" 
d="M1763 422h-700q-2 -10 -2 -33q0 -84 40.5 -130t119.5 -46q134 0 200 129l275 -166q-62 -90 -185 -153.5t-301 -63.5q-210 0 -340 102q-61 -40 -157.5 -71t-206.5 -31q-119 0 -208.5 25t-141.5 69t-77.5 99t-25.5 120q0 161 120.5 268t330.5 107q87 0 152.5 -27.5
t86.5 -68.5l9 4q-7 21 -7 59q0 4 1.5 12t1.5 11q0 71 -48 108t-129 37q-139 0 -266 -67l-74 205q53 25 94 40t125 29.5t187 14.5q238 0 356 -93q145 93 318 93q220 0 343.5 -124.5t123.5 -318.5q0 -34 -15 -139zM547 184q88 0 153 52l15 120q-16 37 -57.5 68t-98.5 31
q-71 0 -113.5 -43.5t-42.5 -106.5q0 -53 39.5 -87t104.5 -34zM1290 774q-64 0 -117 -39t-71 -112h346q0 3 1 9t1 9q0 51 -41.5 92t-118.5 41zM1108 1589l213 -155l-369 -308l-166 119z" />
    <glyph glyph-name="Oslashacute" unicode="&#x1fe;" horiz-adv-x="1785" 
d="M999 1475q243 0 426 -127l129 116l168 -190l-123 -107q103 -159 103 -354q0 -170 -72 -327.5t-191.5 -273t-284 -184.5t-341.5 -69q-243 0 -426 127q-106 -94 -129 -117l-168 191l121 106q-102 158 -102 359q0 169 72.5 326t192.5 271.5t284.5 183.5t340.5 69zM954 1110
q-116 0 -219.5 -59.5t-166 -161t-62.5 -217.5q0 -69 20 -125l592 526q-73 37 -164 37zM1286 887l-594 -529q72 -34 166 -34q118 0 221.5 60.5t165.5 163.5t62 222q0 52 -21 117zM1268 1962l213 -156l-369 -307l-166 119z" />
    <glyph glyph-name="oslashacute" unicode="&#x1ff;" horiz-adv-x="1335" 
d="M717 1004q46 0 114 -11q18 23 47 61.5t49.5 65.5t30.5 39l279 -198l-102 -130q106 -118 106 -288q0 -156 -85.5 -290t-236.5 -214t-331 -80q-59 0 -117 10q-105 -136 -127 -166l-278 199q6 9 21 28.5t39.5 50.5t39.5 50q-105 120 -105 287q0 117 51.5 225t138.5 187
t209 126.5t257 47.5zM680 717q-104 0 -181 -79t-77 -185q0 -89 56 -148t145 -59q106 0 182 79.5t76 186.5q0 88 -56 146.5t-145 58.5zM829 1569l213 -156l-368 -307l-166 119z" />
    <glyph glyph-name="uni0202" unicode="&#x202;" 
d="M879 1483h41l460 -1260q50 -137 86 -223h-407q-6 22 -25 73.5t-24 69.5l-9 29h-522l-16 -29q-4 -8 -35.5 -62.5t-44.5 -80.5h-420q9 15 34.5 56t58 92.5t46.5 74.5zM709 463h129q56 0 71 -10l4 8q-10 5 -26 51l-37 104q-35 97 -35 152v4h-8q-7 -36 -74 -156l-59 -104
q-23 -42 -41 -51l4 -8q10 10 72 10zM711 1546l-191 80q52 136 167 213.5t261 77.5t243 -78t116 -213l-211 -80q-10 60 -57 92.5t-119 32.5q-74 0 -128.5 -31.5t-80.5 -93.5z" />
    <glyph glyph-name="uni0203" unicode="&#x203;" horiz-adv-x="1218" 
d="M469 1044l-190 80q52 136 167 213.5t261 77.5t242.5 -77.5t115.5 -213.5l-211 -80q-10 60 -57 92.5t-119 32.5q-74 0 -128.5 -31.5t-80.5 -93.5zM741 555l9 4q-7 21 -7 57q0 4 1 11t1 10q0 72 -48 110.5t-128 38.5q-146 0 -276 -69l-74 205q54 26 98 42t131.5 32
t188.5 16q93 0 172.5 -16.5t144.5 -51t102.5 -94.5t37.5 -141q0 -20 -9 -99l-63 -516q-50 -32 -109.5 -59.5t-173.5 -55.5t-233 -28q-125 0 -216.5 25.5t-143.5 70.5t-76.5 100t-24.5 121q0 164 121.5 271.5t333.5 107.5q90 0 155 -26.5t86 -65.5zM541 176q93 0 157 57
l17 123q-16 36 -57.5 65.5t-98.5 29.5q-73 0 -117.5 -43t-44.5 -105q0 -56 38 -91.5t106 -35.5z" />
    <glyph glyph-name="uni0206" unicode="&#x206;" horiz-adv-x="1060" 
d="M80 0l174 1434h530q40 0 136.5 1t111.5 1l-43 -340q-15 0 -110.5 1t-135.5 1h-168l-24 -213h90q40 0 135.5 1t110.5 1l-43 -340q-15 0 -110.5 1t-135.5 1h-90l-25 -213h201q40 0 135.5 1t110.5 1l-43 -340q-15 0 -109.5 1t-134.5 1h-563zM459 1546l-191 80
q52 136 167 213.5t261 77.5t243 -78t116 -213l-211 -80q-10 60 -57 92.5t-119 32.5q-74 0 -128.5 -31.5t-80.5 -93.5z" />
    <glyph glyph-name="uni0207" unicode="&#x207;" horiz-adv-x="1249" 
d="M1120 422h-700q-2 -10 -2 -33q0 -84 40.5 -130t119.5 -46q134 0 200 129l275 -166q-62 -90 -185 -153.5t-301 -63.5q-122 0 -217 34.5t-153.5 96t-88.5 140.5t-30 171q0 175 82.5 314.5t216.5 214t291 74.5q220 0 343.5 -124.5t123.5 -318.5q0 -34 -15 -139zM647 774
q-64 0 -117 -39t-71 -112h346q0 3 1 9t1 9q0 51 -41.5 92t-118.5 41zM483 1044l-190 80q52 136 167 213.5t261 77.5t242.5 -77.5t115.5 -213.5l-211 -80q-10 60 -57 92.5t-119 32.5q-74 0 -128.5 -31.5t-80.5 -93.5z" />
    <glyph glyph-name="uni020A" unicode="&#x20a;" horiz-adv-x="720" 
d="M262 1434h397q-2 -19 -14 -114t-16 -132l-117 -942q-23 -207 -27 -246h-397q2 18 14.5 113t16.5 133l117 942q10 90 26 246zM285 1546l-191 80q52 136 167 213.5t261 77.5t243 -78t116 -213l-211 -80q-10 60 -57 92.5t-119 32.5q-74 0 -128.5 -31.5t-80.5 -93.5z" />
    <glyph glyph-name="uni020B" unicode="&#x20b;" horiz-adv-x="645" 
d="M547 963q-2 -17 -15.5 -112t-17.5 -134l-57 -471q-23 -207 -27 -246h-362q2 19 14 114t16 132l58 471q3 31 14.5 128t13.5 118h363zM182 1044l-190 80q52 136 167 213.5t261 77.5t242.5 -77.5t115.5 -213.5l-211 -80q-10 60 -57 92.5t-119 32.5q-74 0 -128.5 -31.5
t-80.5 -93.5z" />
    <glyph glyph-name="uni020E" unicode="&#x20e;" horiz-adv-x="1785" 
d="M999 1475q152 0 284 -51.5t223.5 -140.5t143.5 -211.5t52 -260.5q0 -135 -46 -264.5t-129 -234.5t-192.5 -185t-244.5 -124t-277 -44q-204 0 -365.5 88t-250 240t-88.5 338q0 169 72.5 326t192.5 271.5t284.5 183.5t340.5 69zM954 1110q-117 0 -221 -60t-166.5 -162.5
t-62.5 -219.5q0 -147 100.5 -245.5t253.5 -98.5q179 0 313 131.5t134 310.5q0 146 -99.5 245t-251.5 99zM815 1546l-190 80q52 136 167 213.5t261 77.5t242.5 -77.5t115.5 -213.5l-211 -80q-10 60 -57 92.5t-119 32.5q-74 0 -128.5 -31.5t-80.5 -93.5z" />
    <glyph glyph-name="uni020F" unicode="&#x20f;" horiz-adv-x="1335" 
d="M717 1004q234 0 379 -131t145 -328q0 -117 -50.5 -225t-137 -187t-208.5 -126.5t-257 -47.5q-235 0 -381 131.5t-146 329.5q0 117 51.5 224.5t138.5 186.5t209 126t257 47zM680 717q-104 0 -181 -79t-77 -185q0 -89 56 -148t145 -59q106 0 182 79.5t76 186.5
q0 88 -56 146.5t-145 58.5zM528 1044l-190 80q52 136 167 213.5t261 77.5t242.5 -77.5t115.5 -213.5l-211 -80q-10 60 -57 92.5t-119 32.5q-74 0 -128.5 -31.5t-80.5 -93.5z" />
    <glyph glyph-name="uni0212" unicode="&#x212;" horiz-adv-x="1306" 
d="M532 1546l-190 80q52 136 167 213.5t261 77.5t242.5 -77.5t115.5 -213.5l-210 -80q-10 60 -57 92.5t-120 32.5q-74 0 -128.5 -31.5t-80.5 -93.5zM254 1434h616q188 0 299 -111t111 -291q0 -164 -71.5 -280.5t-192.5 -171.5l104 -357l64 -223h-412q-9 35 -25.5 96
t-23.5 86l-94 350h-92l-35 -286q-23 -207 -27 -246h-397q2 18 14.5 113t16.5 133zM610 1118l-39 -311h123q75 0 129 51t54 121q0 60 -37.5 99.5t-98.5 39.5h-131z" />
    <glyph glyph-name="uni0213" unicode="&#x213;" horiz-adv-x="901" 
d="M322 1044l-191 80q52 136 167 213.5t261 77.5t243 -78t116 -213l-211 -80q-10 60 -57 92.5t-120 32.5q-74 0 -128 -31.5t-80 -93.5zM899 958l-39 -321q-60 27 -125 27q-110 0 -181 -61.5t-83 -160.5l-25 -196q-10 -90 -26 -246h-363q2 18 14.5 113t16.5 133l57 471
q4 36 15.5 131t13.5 115h356q-10 -98 -22 -140l10 -4q37 67 119 109.5t176 42.5q60 0 86 -13z" />
    <glyph glyph-name="uni0216" unicode="&#x216;" horiz-adv-x="1579" 
d="M649 1434q-2 -18 -14.5 -113t-16.5 -133l-83 -676q-3 -15 -3 -29q0 -96 64 -144t182 -48q128 0 223 61l103 836q10 90 26 246h398q-2 -18 -14.5 -113t-16.5 -133l-131 -1057q-36 -24 -65 -41t-89.5 -44t-122.5 -44t-155.5 -30t-196.5 -13q-315 0 -459.5 106t-144.5 338
q0 31 8 109l84 676q23 207 27 246h397zM711 1546l-191 80q52 136 167 213.5t261 77.5t243 -78t116 -213l-211 -80q-10 60 -57 92.5t-119 32.5q-74 0 -128.5 -31.5t-80.5 -93.5z" />
    <glyph glyph-name="uni0217" unicode="&#x217;" horiz-adv-x="1302" 
d="M1214 963q-2 -18 -15 -113t-17 -133l-78 -635q-67 -42 -211 -82.5t-311 -40.5q-482 0 -482 340q0 45 4 70l41 348q3 27 10 83.5t12.5 101t6.5 61.5h363q-1 -21 -15 -117.5t-18 -128.5l-35 -297q-2 -10 -2 -31q0 -65 40 -104t122 -39q72 0 141 33l53 438q4 36 15.5 131
t13.5 115h362zM510 1044l-191 80q52 136 167.5 213.5t261.5 77.5t242.5 -77.5t115.5 -213.5l-211 -80q-10 60 -57 92.5t-119 32.5q-74 0 -128.5 -31.5t-80.5 -93.5z" />
    <glyph glyph-name="Scommaaccent" unicode="&#x218;" horiz-adv-x="1181" 
d="M1159 1243l-256 -213q-92 150 -211 150q-45 0 -73.5 -28t-28.5 -65q0 -26 11 -49.5t35.5 -46t44 -37.5t56 -39.5t51.5 -35.5q130 -97 173 -138q121 -117 132 -255q1 -15 1 -31q0 -143 -76.5 -257.5t-206.5 -176.5t-287 -62q-184 0 -313.5 83.5t-196.5 223.5l320 174
q33 -82 92 -132t139 -50q62 0 104 36t42 87q0 37 -27.5 74t-71.5 70.5t-97 70t-106 79t-97 90t-71.5 111t-27.5 134.5q0 119 70 226.5t188 173t250 65.5q263 0 438 -232zM489 -66l-251 -262l120 -106l279 233z" />
    <glyph glyph-name="scommaaccent" unicode="&#x219;" horiz-adv-x="958" 
d="M420 -66l-252 -262l121 -106l278 233zM934 877l-217 -211q-23 47 -70 86t-108 39q-51 0 -75 -22t-24 -48q0 -24 24.5 -46.5t63 -41.5t85.5 -40t94.5 -48t86 -59.5t63 -80t24.5 -104.5q0 -157 -123.5 -257.5t-343.5 -100.5q-315 0 -463 166l270 219q20 -35 45 -65
t72.5 -58.5t99.5 -28.5q49 0 76 22t27 56q0 24 -24 46t-62.5 42t-85 41.5t-93.5 49.5t-85.5 61t-62.5 80.5t-24 103.5q0 142 120.5 242t326.5 100q122 0 225.5 -40t157.5 -103z" />
    <glyph glyph-name="uni021E" unicode="&#x21e;" horiz-adv-x="1622" 
d="M1540 1188l-117 -942q-10 -90 -26 -246h-398q2 18 14.5 113t16.5 133l41 327h-528l-41 -327q-23 -207 -27 -246h-397q2 18 14.5 113t16.5 133l116 942q23 207 27 246h397q-2 -18 -14.5 -113t-16.5 -133l-38 -307h528l39 307q23 207 27 246h397q-2 -18 -14.5 -113
t-16.5 -133zM1237 1958l113 -168l-426 -256l-361 256l154 168l241 -139z" />
    <glyph glyph-name="uni021F" unicode="&#x21f;" horiz-adv-x="1292" 
d="M612 1577q-1 -21 -15 -118t-17 -128l-35 -291q-5 -46 -23 -103.5t-26 -74.5l8 -4q43 59 136 102.5t200 43.5q147 0 237 -77t90 -235q0 -19 -4 -69l-47 -377q-10 -90 -26 -246h-363q2 18 14.5 113t16.5 133l35 286q2 14 2 41q0 69 -35 104.5t-96 35.5q-68 0 -119.5 -44
t-63.5 -143l-35 -280q-10 -90 -26 -246h-363q2 18 14.5 113t16.5 133l133 1085q4 36 15.5 131t13.5 115h362zM1047 1999l112 -168l-426 -256l-360 256l153 168l242 -139z" />
    <glyph glyph-name="uni0226" unicode="&#x226;" 
d="M879 1483h41l460 -1260q50 -137 86 -223h-407q-6 22 -25 73.5t-24 69.5l-9 29h-522l-16 -29q-4 -8 -35.5 -62.5t-44.5 -80.5h-420q9 15 34.5 56t58 92.5t46.5 74.5zM709 463h129q56 0 71 -10l4 8q-10 5 -26 51l-37 104q-35 97 -35 152v4h-8q-7 -36 -74 -156l-59 -104
q-23 -42 -41 -51l4 -8q10 10 72 10zM952 1946q73 0 122.5 -49.5t49.5 -120.5q0 -88 -66 -154t-153 -66q-73 0 -123.5 50.5t-50.5 122.5q0 87 67.5 152t153.5 65z" />
    <glyph glyph-name="uni0227" unicode="&#x227;" horiz-adv-x="1218" 
d="M709 1444q73 0 122.5 -49.5t49.5 -120.5q0 -87 -66 -153t-153 -66q-73 0 -124 50t-51 122q0 87 68 152t154 65zM741 555l9 4q-7 21 -7 57q0 4 1 11t1 10q0 72 -48 110.5t-128 38.5q-146 0 -276 -69l-74 205q54 26 98 42t131.5 32t188.5 16q93 0 172.5 -16.5t144.5 -51
t102.5 -94.5t37.5 -141q0 -20 -9 -99l-63 -516q-50 -32 -109.5 -59.5t-173.5 -55.5t-233 -28q-125 0 -216.5 25.5t-143.5 70.5t-76.5 100t-24.5 121q0 164 121.5 271.5t333.5 107.5q90 0 155 -26.5t86 -65.5zM541 176q93 0 157 57l17 123q-16 36 -57.5 65.5t-98.5 29.5
q-73 0 -117.5 -43t-44.5 -105q0 -56 38 -91.5t106 -35.5z" />
    <glyph glyph-name="uni0228" unicode="&#x228;" horiz-adv-x="1060" 
d="M80 0l174 1434h530q40 0 136.5 1t111.5 1l-43 -340q-15 0 -110.5 1t-135.5 1h-168l-24 -213h90q40 0 135.5 1t110.5 1l-43 -340q-15 0 -110.5 1t-135.5 1h-90l-25 -213h201q40 0 135.5 1t110.5 1l-43 -340q-15 0 -109.5 1t-134.5 1h-563zM506 -66l-252 -262l121 -106
l278 233z" />
    <glyph glyph-name="uni0229" unicode="&#x229;" horiz-adv-x="1249" 
d="M1120 422h-700q-2 -10 -2 -33q0 -84 40.5 -130t119.5 -46q134 0 200 129l275 -166q-62 -90 -185 -153.5t-301 -63.5q-122 0 -217 34.5t-153.5 96t-88.5 140.5t-30 171q0 175 82.5 314.5t216.5 214t291 74.5q220 0 343.5 -124.5t123.5 -318.5q0 -34 -15 -139zM647 774
q-64 0 -117 -39t-71 -112h346q0 3 1 9t1 9q0 51 -41.5 92t-118.5 41zM592 -66l-252 -262l121 -106l278 233z" />
    <glyph glyph-name="uni022E" unicode="&#x22e;" horiz-adv-x="1785" 
d="M995 1475q152 0 284 -51.5t223.5 -140.5t143.5 -211.5t52 -260.5q0 -135 -46 -264.5t-129 -234.5t-192.5 -185t-244.5 -124t-277 -44q-153 0 -285 51.5t-224 140.5t-144 212t-52 262q0 169 72.5 326t193 271.5t285 183.5t340.5 69zM950 1110q-117 0 -221 -60
t-166.5 -162.5t-62.5 -219.5q0 -147 100.5 -245.5t253.5 -98.5q179 0 312.5 131.5t133.5 310.5q0 146 -99 245t-251 99zM1053 1925q73 0 122.5 -49.5t49.5 -120.5q0 -87 -66 -153t-153 -66q-73 0 -124 50t-51 122q0 87 68 152t154 65z" />
    <glyph glyph-name="uni022F" unicode="&#x22f;" horiz-adv-x="1335" 
d="M717 1004q234 0 379 -131t145 -328q0 -117 -50.5 -225t-137 -187t-208.5 -126.5t-257 -47.5q-235 0 -381 131.5t-146 329.5q0 117 51.5 224.5t138.5 186.5t209 126t257 47zM680 717q-104 0 -181 -79t-77 -185q0 -89 56 -148t145 -59q106 0 182 79.5t76 186.5
q0 88 -56 146.5t-145 58.5zM770 1444q73 0 122.5 -49.5t49.5 -120.5q0 -87 -66 -153t-153 -66q-73 0 -123.5 50t-50.5 122q0 87 67.5 152t153.5 65z" />
    <glyph glyph-name="uni0232" unicode="&#x232;" horiz-adv-x="1474" 
d="M481 0q2 18 14.5 113t16.5 133l55 446l-291 486q-13 22 -79 129.5t-76 126.5h465q57 -111 84 -158l69 -123q21 -38 37.5 -80.5t16.5 -60.5h8q0 8 27 52.5t61 88.5l96 125q83 109 123 156h446q-26 -34 -206 -252l-400 -482l-55 -454q-23 -207 -27 -246h-385zM610 1835
q7 0 55 -1t68 -1h307q20 0 68 1t55 1l-30 -250q-7 0 -54 1t-67 1h-307q-20 0 -69 -1t-56 -1z" />
    <glyph glyph-name="uni0233" unicode="&#x233;" horiz-adv-x="1318" 
d="M1341 963q-12 -21 -172 -267l-622 -968q-23 -36 -64 -103t-47 -76h-395q12 16 43.5 64.5t73 113.5t53.5 83l219 348l-246 542q-100 210 -121 263h408q25 -72 64 -168l65 -164q21 -55 35 -109.5t14 -75.5h8q3 15 33.5 73.5t63.5 111.5l94 149q23 35 60.5 101.5t47.5 81.5
h385zM481 1333q7 0 55 -1t68 -1h307q20 0 68 1t55 1l-30 -250q-7 0 -54 1t-67 1h-308q-20 0 -68.5 -1t-55.5 -1z" />
    <glyph glyph-name="dotlessj" unicode="&#x237;" horiz-adv-x="645" 
d="M-203 -471l35 283q35 -7 57 -7q79 0 123.5 47.5t57.5 147.5l86 717q3 25 10 83t12 102t6 61h363q-2 -17 -15.5 -112t-17.5 -134l-80 -656q-18 -146 -63 -254.5t-111 -173t-145.5 -95t-173.5 -30.5q-93 0 -144 21z" />
    <glyph glyph-name="uni0245" unicode="&#x245;" 
d="M922 1483l460 -1260q64 -175 84 -223h-407q-7 22 -25 73.5t-24 69.5l-162 473q-33 106 -33 150v4h-8q-9 -45 -72 -154l-272 -473q-4 -8 -35.5 -62.5t-44.5 -80.5h-420q9 15 34.5 56t58 92.5t46.5 74.5l777 1260h43z" />
    <glyph glyph-name="apostrophe" unicode="&#x2bc;" horiz-adv-x="520" 
d="M184 1270l37 307h316l-39 -324q-12 -99 -89.5 -207t-172.5 -169l-91 124q65 47 111.5 112t56.5 140l2 17h-131z" />
    <glyph glyph-name="circumflex" unicode="&#x2c6;" horiz-adv-x="933" 
d="M932 1198l-154 -168l-241 139l-279 -139l-113 168l426 256z" />
    <glyph glyph-name="caron" unicode="&#x2c7;" horiz-adv-x="933" 
d="M831 1456l113 -168l-426 -256l-360 256l153 168l242 -139z" />
    <glyph glyph-name="breve" unicode="&#x2d8;" horiz-adv-x="950" 
d="M172 1335l209 80q10 -62 57 -93.5t121 -31.5q73 0 127.5 33t79.5 92l192 -80q-52 -136 -168 -213.5t-262 -77.5t-241.5 77.5t-114.5 213.5z" />
    <glyph glyph-name="dotaccent" unicode="&#x2d9;" horiz-adv-x="798" 
d="M502 1444q73 0 122.5 -49.5t49.5 -120.5q0 -87 -66 -153t-153 -66q-73 0 -123.5 50t-50.5 122q0 87 67.5 152t153.5 65z" />
    <glyph glyph-name="ring" unicode="&#x2da;" horiz-adv-x="819" 
d="M524 1536q112 0 176 -59t64 -150q0 -108 -84 -185t-215 -77q-112 0 -175 57.5t-63 147.5q0 110 82.5 188t214.5 78zM502 1364q-42 0 -66 -21.5t-24 -52.5q0 -24 19.5 -38.5t55.5 -14.5q40 0 65.5 20.5t25.5 49.5q0 25 -20 41t-56 16z" />
    <glyph glyph-name="ogonek" unicode="&#x2db;" horiz-adv-x="921" 
d="M346 123l193 -55q-162 -122 -162 -226q0 -44 27.5 -66t72.5 -22q64 0 133 41l76 -209q-123 -78 -280 -78q-142 0 -218.5 68.5t-76.5 177.5q0 55 19.5 110.5t48 96.5t63 76.5t60.5 55.5t44 30z" />
    <glyph glyph-name="tilde" unicode="&#x2dc;" horiz-adv-x="1130" 
d="M881 1413l237 -41q-37 -120 -149.5 -204.5t-235.5 -84.5q-35 0 -51 4l-154 27q-3 0 -8 1t-8 1q-35 0 -69 -28t-44 -66l-237 41q35 119 147.5 204t235.5 85q17 0 53 -4l152 -27q4 -2 16 -2q37 0 70.5 28t44.5 66z" />
    <glyph glyph-name="hungarumlaut" unicode="&#x2dd;" horiz-adv-x="839" 
d="M309 1071l-133 62l150 268l178 -82zM608 1071l-133 62l150 268l178 -82z" />
    <glyph glyph-name="uni0311" unicode="&#x311;" horiz-adv-x="950" 
d="M336 1044l-191 80q52 136 167 213.5t261 77.5t243 -78t116 -213l-211 -80q-10 60 -57 92.5t-119 32.5q-74 0 -128.5 -31.5t-80.5 -93.5z" />
    <glyph glyph-name="delta" unicode="&#x3b4;" horiz-adv-x="1335" 
d="M821 1638q61 -152 88 -217l293 -694q39 -80 39 -186q0 -156 -86.5 -289.5t-237 -213t-329.5 -79.5q-235 0 -381 131.5t-146 329.5q0 117 52 225.5t134.5 185t188 122.5t209.5 46q16 0 29.5 -3.5t21 -7.5t17 -9.5t12.5 -7.5l4 6q-39 27 -70 100l-73 178q-12 30 -37.5 84
t-43 91.5t-16.5 37.5zM680 717q-100 0 -179 -79t-79 -183q0 -89 57 -149t144 -60q103 0 180.5 79.5t77.5 186.5q0 87 -57 146t-144 59z" />
    <glyph glyph-name="pi" unicode="&#x3c0;" horiz-adv-x="1404" 
d="M1176 0h-345q-18 41 -29 90t-17.5 86t-6.5 102.5v93.5t7.5 107.5t9.5 96t12 104.5h-180l-164 -680h-352l225 680q-40 0 -145.5 -1t-120.5 -1l34 287q15 0 110.5 -1t135.5 -1h791q40 0 135 1t110 1l-34 -287q-14 0 -92.5 1t-120.5 1q-51 -443 37 -680z" />
    <glyph glyph-name="uni1E02" unicode="&#x1e02;" horiz-adv-x="1372" 
d="M252 1434h627q173 0 278 -89.5t105 -242.5q0 -148 -77 -232.5t-188 -109.5v-8q110 -24 174 -102.5t64 -196.5q0 -71 -17 -135.5t-54.5 -123t-92 -101.5t-136.5 -68t-181 -25h-676q7 64 174 1434zM530 602l-36 -295h153q85 0 137 46t52 118q0 59 -39 95t-109 36h-158z
M598 1159l-35 -287h113q186 0 186 164q0 55 -39 89t-112 34h-113zM793 1946q73 0 122.5 -49.5t49.5 -120.5q0 -87 -66.5 -153.5t-153.5 -66.5q-73 0 -123.5 50.5t-50.5 122.5q0 87 68 152t154 65z" />
    <glyph glyph-name="uni1E03" unicode="&#x1e03;" horiz-adv-x="1363" 
d="M236 1464h362q-3 -22 -15.5 -123.5t-17.5 -138.5l-26 -207q-11 -70 -21 -94l6 -4q45 44 133 75.5t179 31.5q190 0 310 -113t120 -311q0 -131 -47.5 -245t-134 -197.5t-214 -131t-280.5 -47.5q-97 0 -185.5 19t-151 50t-106 62t-69.5 62l129 1050q23 221 29 262zM489 594
l-30 -256q26 -33 73 -56.5t107 -23.5q107 0 179.5 73.5t72.5 180.5q0 84 -50.5 138.5t-135.5 54.5q-134 0 -216 -111zM977 1587q73 0 122.5 -49.5t49.5 -120.5q0 -87 -66 -153t-153 -66q-73 0 -123.5 50t-50.5 122q0 87 67.5 152t153.5 65z" />
    <glyph glyph-name="uni1E08" unicode="&#x1e08;" horiz-adv-x="1564" 
d="M1231 463l221 -264q-123 -114 -292 -177t-351 -63q-165 0 -298 50.5t-220 140t-133.5 209t-46.5 259.5q0 175 66 332.5t180.5 273t279.5 183.5t354 68q354 0 553 -232l-276 -254q-132 150 -318 150q-86 0 -165.5 -33t-141.5 -92t-99.5 -151t-37.5 -201
q0 -162 99.5 -260.5t246.5 -98.5q116 0 200 40t179 120zM549 -328l252 262l147 -135l-278 -233zM1169 2071l213 -156l-368 -307l-166 118z" />
    <glyph glyph-name="uni1E09" unicode="&#x1e09;" horiz-adv-x="1249" 
d="M864 1589l213 -155l-368 -308l-166 119zM717 1004q150 0 254 -57t164 -142l-281 -201q-57 105 -172 105q-99 0 -167.5 -74.5t-68.5 -173.5q0 -85 52 -140t135 -55q63 0 118 33t91 82l262 -180q-35 -42 -80.5 -80.5t-109.5 -77t-149 -61.5t-177 -23q-227 0 -365.5 129.5
t-138.5 331.5q0 156 84 290.5t230 214t319 79.5zM295 -328l252 262l147 -135l-278 -233z" />
    <glyph glyph-name="uni1E0A" unicode="&#x1e0a;" horiz-adv-x="1525" 
d="M254 1434h571q186 0 327.5 -81.5t215.5 -221t74 -314.5q0 -130 -38 -251.5t-111 -223.5t-173.5 -179t-233 -120t-280.5 -43h-526zM608 1110l-96 -782h131q162 0 283 133.5t121 316.5q0 146 -87.5 239t-228.5 93h-123zM825 1987q73 0 122.5 -49.5t49.5 -120.5
q0 -87 -66.5 -153.5t-152.5 -66.5q-73 0 -123.5 50t-50.5 122q0 87 67.5 152.5t153.5 65.5z" />
    <glyph glyph-name="uni1E0B" unicode="&#x1e0b;" horiz-adv-x="1349" 
d="M963 1464h362q-22 -158 -33 -262l-129 -1050q-82 -72 -230 -132.5t-331 -60.5q-258 0 -400.5 127.5t-142.5 335.5q0 134 47 246t125 184t177 112t206 40q91 0 171 -32t112 -75l10 4q-4 12 -4 33q0 15 4 61l27 207q5 41 15.5 142t13.5 120zM827 338l31 256
q-53 111 -186 111q-101 0 -172.5 -75.5t-71.5 -178.5q0 -86 54.5 -139.5t144.5 -53.5q112 0 200 80zM662 1587q73 0 122.5 -49.5t49.5 -120.5q0 -87 -66.5 -153t-153.5 -66q-73 0 -123.5 50t-50.5 122q0 87 68 152t154 65z" />
    <glyph glyph-name="Wgrave" unicode="&#x1e80;" horiz-adv-x="2195" 
d="M1098 717q-1 -19 -31 -84t-63 -121l-328 -569h-37l-428 1228q-84 242 -90 263h391q45 -141 66 -197l127 -348q15 -42 29 -113.5t14 -91.5h8q3 20 30 81t62 124l317 561h37l189 -561q20 -59 31.5 -120t11.5 -85h8q3 17 36 88t60 117l209 348q42 72 108 197h420
q-73 -117 -159 -263l-740 -1228h-37l-194 569q-17 50 -30 117t-13 88h-4zM791 1806l253 156l236 -344l-195 -119z" />
    <glyph glyph-name="wgrave" unicode="&#x1e81;" horiz-adv-x="1843" 
d="M926 528h-8q-4 -45 -89 -204l-172 -324h-245l-252 705q-15 43 -31.5 86t-35.5 92t-30 80h390q33 -127 53 -187l45 -137q53 -165 53 -205h8q3 17 35 86t60 119l178 324h172l110 -308q16 -42 34 -113t20 -91h8q6 37 94 204l63 121q15 27 31 58.5t35 70t29 58.5h387
q-106 -171 -156 -258l-414 -705h-225l-104 324q-20 58 -31.5 119t-11.5 85zM575 1434l254 155l236 -344l-195 -119z" />
    <glyph glyph-name="Wacute" unicode="&#x1e82;" horiz-adv-x="2195" 
d="M1098 717q-1 -19 -31 -84t-63 -121l-328 -569h-37l-428 1228q-84 242 -90 263h391q45 -141 66 -197l127 -348q15 -42 29 -113.5t14 -91.5h8q3 20 30 81t62 124l317 561h37l189 -561q20 -59 31.5 -120t11.5 -85h8q3 17 36 88t60 117l209 348q42 72 108 197h420
q-73 -117 -159 -263l-740 -1228h-37l-194 569q-17 50 -30 117t-13 88h-4zM1444 1962l213 -156l-369 -307l-166 119z" />
    <glyph glyph-name="wacute" unicode="&#x1e83;" horiz-adv-x="1843" 
d="M926 528h-8q-4 -45 -89 -204l-172 -324h-245l-252 705q-15 43 -31.5 86t-35.5 92t-30 80h390q33 -127 53 -187l45 -137q53 -165 53 -205h8q3 17 35 86t60 119l178 324h172l110 -308q16 -42 34 -113t20 -91h8q6 37 94 204l63 121q15 27 31 58.5t35 70t29 58.5h387
q-106 -171 -156 -258l-414 -705h-225l-104 324q-20 58 -31.5 119t-11.5 85zM1206 1589l213 -155l-368 -308l-166 119z" />
    <glyph glyph-name="Wdieresis" unicode="&#x1e84;" horiz-adv-x="2195" 
d="M1098 717q-1 -19 -31 -84t-63 -121l-328 -569h-37l-428 1228q-84 242 -90 263h391q45 -141 66 -197l127 -348q15 -42 29 -113.5t14 -91.5h8q3 20 30 81t62 124l317 561h37l189 -561q20 -59 31.5 -120t11.5 -85h8q3 17 36 88t60 117l209 348q42 72 108 197h420
q-73 -117 -159 -263l-740 -1228h-37l-194 569q-17 50 -30 117t-13 88h-4zM995 1966q73 0 122.5 -50t49.5 -122q0 -87 -66.5 -152t-152.5 -65q-73 0 -122.5 49t-49.5 121q0 88 65.5 153.5t153.5 65.5zM1507 1966q73 0 122.5 -50t49.5 -122q0 -87 -66.5 -152t-152.5 -65
q-73 0 -122.5 49t-49.5 121q0 88 65.5 153.5t153.5 65.5z" />
    <glyph glyph-name="wdieresis" unicode="&#x1e85;" horiz-adv-x="1843" 
d="M926 528h-8q-4 -45 -89 -204l-172 -324h-245l-252 705q-15 43 -31.5 86t-35.5 92t-30 80h390q33 -127 53 -187l45 -137q53 -165 53 -205h8q3 17 35 86t60 119l178 324h172l110 -308q16 -42 34 -113t20 -91h8q6 37 94 204l63 121q15 27 31 58.5t35 70t29 58.5h387
q-106 -171 -156 -258l-414 -705h-225l-104 324q-20 58 -31.5 119t-11.5 85zM778 1464q73 0 122.5 -50t49.5 -122q0 -87 -66.5 -152t-152.5 -65q-73 0 -122.5 49t-49.5 121q0 88 65.5 153.5t153.5 65.5zM1290 1464q73 0 122.5 -50t49.5 -122q0 -87 -66.5 -152t-152.5 -65
q-73 0 -122.5 49t-49.5 121q0 88 65.5 153.5t153.5 65.5z" />
    <glyph glyph-name="uni1E86" unicode="&#x1e86;" horiz-adv-x="2195" 
d="M1098 717q-1 -19 -31 -84t-63 -121l-328 -569h-37l-428 1228q-84 242 -90 263h391q45 -141 66 -197l127 -348q15 -42 29 -113.5t14 -91.5h8q3 20 30 81t62 124l317 561h37l189 -561q20 -59 31.5 -120t11.5 -85h8q3 17 36 88t60 117l209 348q42 72 108 197h420
q-73 -117 -159 -263l-740 -1228h-37l-194 569q-17 50 -30 117t-13 88h-4zM1247 1946q73 0 122.5 -49.5t49.5 -120.5q0 -88 -66.5 -154t-152.5 -66q-73 0 -123.5 50.5t-50.5 122.5q0 87 67.5 152t153.5 65z" />
    <glyph glyph-name="uni1E87" unicode="&#x1e87;" horiz-adv-x="1843" 
d="M926 528h-8q-4 -45 -89 -204l-172 -324h-245l-252 705q-15 43 -31.5 86t-35.5 92t-30 80h390q33 -127 53 -187l45 -137q53 -165 53 -205h8q3 17 35 86t60 119l178 324h172l110 -308q16 -42 34 -113t20 -91h8q6 37 94 204l63 121q15 27 31 58.5t35 70t29 58.5h387
q-106 -171 -156 -258l-414 -705h-225l-104 324q-20 58 -31.5 119t-11.5 85zM1022 1444q73 0 122.5 -49.5t49.5 -120.5q0 -87 -66 -153t-153 -66q-73 0 -123.5 50t-50.5 122q0 87 67.5 152t153.5 65z" />
    <glyph glyph-name="uni1E8A" unicode="&#x1e8a;" horiz-adv-x="1622" 
d="M1587 1434q-5 -6 -91.5 -113.5t-115.5 -142.5l-336 -412l304 -506q39 -66 159 -260h-475q-25 51 -82 160l-108 207q-15 29 -25.5 60t-14 48.5t-3.5 24.5h-8q-1 -6 -9.5 -24t-27.5 -49t-41 -60l-162 -207q-92 -116 -119 -160h-465q147 175 217 260l416 506l-250 412
q-18 30 -85.5 135.5t-76.5 120.5h486q41 -91 78 -156l55 -100q15 -28 26.5 -61.5t16 -54t4.5 -26.5h8q0 5 8.5 26t27.5 54.5t40 61.5l76 100q21 28 61 84t51 72h461zM973 1987q73 0 122.5 -49.5t49.5 -120.5q0 -87 -66.5 -153.5t-152.5 -66.5q-73 0 -123.5 50t-50.5 122
q0 87 67.5 152.5t153.5 65.5z" />
    <glyph glyph-name="uni1E8B" unicode="&#x1e8b;" horiz-adv-x="1495" 
d="M948 963h469q-30 -30 -250 -242l-213 -205l205 -252q36 -44 111.5 -133.5t109.5 -130.5h-477q-198 266 -198 311h-9q-3 -19 -39 -63.5t-116.5 -133t-102.5 -114.5h-471q49 49 145.5 137.5t133.5 124.5l260 254l-160 199q-175 208 -205 248h484l65 -103q22 -34 31.5 -50
t18 -36.5t10.5 -38.5h8q5 35 92 125zM838 1444q73 0 122.5 -49.5t49.5 -120.5q0 -87 -66 -153t-153 -66q-73 0 -124 50t-51 122q0 87 68 152t154 65z" />
    <glyph glyph-name="uni1E8C" unicode="&#x1e8c;" horiz-adv-x="1622" 
d="M1587 1434q-5 -6 -91.5 -113.5t-115.5 -142.5l-336 -412l304 -506q39 -66 159 -260h-475q-25 51 -82 160l-108 207q-15 29 -25.5 60t-14 48.5t-3.5 24.5h-8q-1 -6 -9.5 -24t-27.5 -49t-41 -60l-162 -207q-92 -116 -119 -160h-465q147 175 217 260l416 506l-250 412
q-18 30 -85.5 135.5t-76.5 120.5h486q41 -91 78 -156l55 -100q15 -28 26.5 -61.5t16 -54t4.5 -26.5h8q0 5 8.5 26t27.5 54.5t40 61.5l76 100q21 28 61 84t51 72h461zM725 2007q73 0 122.5 -50t49.5 -122q0 -87 -66.5 -152t-152.5 -65q-73 0 -122.5 49t-49.5 121
q0 88 65.5 153.5t153.5 65.5zM1237 2007q73 0 122.5 -50t49.5 -122q0 -87 -66.5 -152t-152.5 -65q-73 0 -122.5 49t-49.5 121q0 88 65.5 153.5t153.5 65.5z" />
    <glyph glyph-name="uni1E8D" unicode="&#x1e8d;" horiz-adv-x="1495" 
d="M948 963h469q-30 -30 -250 -242l-213 -205l205 -252q36 -44 111.5 -133.5t109.5 -130.5h-477q-198 266 -198 311h-9q-3 -19 -39 -63.5t-116.5 -133t-102.5 -114.5h-471q49 49 145.5 137.5t133.5 124.5l260 254l-160 199q-175 208 -205 248h484l65 -103q22 -34 31.5 -50
t18 -36.5t10.5 -38.5h8q5 35 92 125zM586 1464q73 0 122.5 -50t49.5 -122q0 -87 -66.5 -152t-152.5 -65q-73 0 -122.5 49t-49.5 121q0 88 65.5 153.5t153.5 65.5zM1098 1464q73 0 122.5 -50t49.5 -122q0 -87 -66.5 -152t-152.5 -65q-73 0 -122.5 49t-49.5 121
q0 88 65.5 153.5t153.5 65.5z" />
    <glyph glyph-name="uni1E8E" unicode="&#x1e8e;" horiz-adv-x="1474" 
d="M481 0q2 18 14.5 113t16.5 133l55 446l-291 486q-13 22 -79 129.5t-76 126.5h465q57 -111 84 -158l69 -123q21 -38 37.5 -80.5t16.5 -60.5h8q0 8 27 52.5t61 88.5l96 125q83 109 123 156h446q-26 -34 -206 -252l-400 -482l-55 -454q-23 -207 -27 -246h-385zM901 1946
q73 0 122.5 -49.5t49.5 -120.5q0 -88 -66.5 -154t-152.5 -66q-73 0 -123.5 50.5t-50.5 122.5q0 87 67.5 152t153.5 65z" />
    <glyph glyph-name="uni1E8F" unicode="&#x1e8f;" horiz-adv-x="1318" 
d="M1341 963q-12 -21 -172 -267l-622 -968q-23 -36 -64 -103t-47 -76h-395q12 16 43.5 64.5t73 113.5t53.5 83l219 348l-246 542q-100 210 -121 263h408q25 -72 64 -168l65 -164q21 -55 35 -109.5t14 -75.5h8q3 15 33.5 73.5t63.5 111.5l94 149q23 35 60.5 101.5t47.5 81.5
h385zM772 1444q73 0 122.5 -49.5t49.5 -120.5q0 -87 -66 -153t-153 -66q-73 0 -123.5 50t-50.5 122q0 87 67.5 152t153.5 65z" />
    <glyph glyph-name="uni1E90" unicode="&#x1e90;" horiz-adv-x="1368" 
d="M807 319h158q40 0 135 1.5t110 1.5l-41 -324q-15 0 -109 1t-134 1h-971l682 948q54 76 95 121.5t56 52.5l-4 8q-27 -12 -219 -12h-129q-40 0 -136.5 -1t-111.5 -1l41 320q15 0 109.5 -1t134.5 -1h934l-672 -945q-42 -60 -90 -114t-63 -60l4 -8q30 12 221 12zM1210 1741
l-153 -168l-242 139l-278 -139l-113 168l426 256z" />
    <glyph glyph-name="uni1E91" unicode="&#x1e91;" horiz-adv-x="1073" 
d="M657 274h72q40 0 135.5 1t110.5 1l-35 -278q-15 0 -109.5 1t-134.5 1h-729l436 592q44 61 99 108l-4 9q-34 -21 -136 -21h-20q-40 0 -135.5 -1t-110.5 -1l33 279q15 0 110.5 -1t135.5 -1h672l-431 -590q-12 -17 -25.5 -32t-23.5 -25t-22 -20t-18 -14.5t-15 -11.5l-10 -6
l6 -8q24 18 149 18zM1006 1198l-154 -168l-242 139l-278 -139l-113 168l426 256z" />
    <glyph glyph-name="uni1E9E" unicode="&#x1e9e;" horiz-adv-x="1820" 
d="M1591 1268l-159 -242q-70 -106 -146 -131l6 -10q32 14 70 14q58 0 119.5 -29t112.5 -78t83.5 -122.5t32.5 -155.5q0 -166 -88.5 -293.5t-239.5 -194.5t-340 -67q-238 0 -405 109l98 333q141 -114 320 -114q116 0 191 60.5t75 148.5q0 75 -70 125.5t-174 50.5
q-142 0 -295 -58l318 486q-95 43 -248 43q-108 0 -181.5 -56.5t-82.5 -140.5l-86 -700q-23 -207 -27 -246h-397q2 18 14.5 113t16.5 133l92 741q17 134 107.5 245t244 177t340.5 66q411 0 698 -207z" />
    <glyph glyph-name="Ygrave" unicode="&#x1ef2;" horiz-adv-x="1474" 
d="M481 0q2 18 14.5 113t16.5 133l55 446l-291 486q-13 22 -79 129.5t-76 126.5h465q57 -111 84 -158l69 -123q21 -38 37.5 -80.5t16.5 -60.5h8q0 8 27 52.5t61 88.5l96 125q83 109 123 156h446q-26 -34 -206 -252l-400 -482l-55 -454q-23 -207 -27 -246h-385zM551 1806
l254 156l235 -344l-194 -119z" />
    <glyph glyph-name="ygrave" unicode="&#x1ef3;" horiz-adv-x="1318" 
d="M1341 963q-12 -21 -172 -267l-622 -968q-23 -36 -64 -103t-47 -76h-395q12 16 43.5 64.5t73 113.5t53.5 83l219 348l-246 542q-100 210 -121 263h408q25 -72 64 -168l65 -164q21 -55 35 -109.5t14 -75.5h8q3 15 33.5 73.5t63.5 111.5l94 149q23 35 60.5 101.5t47.5 81.5
h385zM381 1434l254 155l235 -344l-194 -119z" />
    <glyph glyph-name="uni1EF8" unicode="&#x1ef8;" horiz-adv-x="1474" 
d="M481 0q2 18 14.5 113t16.5 133l55 446l-291 486q-13 22 -79 129.5t-76 126.5h465q57 -111 84 -158l69 -123q21 -38 37.5 -80.5t16.5 -60.5h8q0 8 27 52.5t61 88.5l96 125q83 109 123 156h446q-26 -34 -206 -252l-400 -482l-55 -454q-23 -207 -27 -246h-385zM1122 1956
l238 -41q-37 -120 -149.5 -204.5t-235.5 -84.5q-35 0 -51 4l-154 27q-3 0 -8 1t-8 1q-35 0 -69 -28t-44 -66l-238 41q35 119 147.5 203.5t235.5 84.5q18 0 54 -4l151 -26q4 -2 17 -2q37 0 70 28t44 66z" />
    <glyph glyph-name="uni1EF9" unicode="&#x1ef9;" horiz-adv-x="1318" 
d="M1341 963q-12 -21 -172 -267l-622 -968q-23 -36 -64 -103t-47 -76h-395q12 16 43.5 64.5t73 113.5t53.5 83l219 348l-246 542q-100 210 -121 263h408q25 -72 64 -168l65 -164q21 -55 35 -109.5t14 -75.5h8q3 15 33.5 73.5t63.5 111.5l94 149q23 35 60.5 101.5t47.5 81.5
h385zM975 1413l237 -41q-37 -120 -149.5 -204.5t-235.5 -84.5q-35 0 -51 4l-153 27q-3 0 -8.5 1t-8.5 1q-35 0 -68 -28t-44 -66l-238 41q35 119 147.5 204t235.5 85q17 0 53 -4l152 -27q4 -2 16 -2q37 0 70.5 28t44.5 66z" />
    <glyph glyph-name="endash" unicode="&#x2013;" horiz-adv-x="2273" 
d="M682 831h963q40 0 135 1.5t110 1.5l-39 -332q-15 0 -110 1t-135 1h-963q-40 0 -135.5 -1t-110.5 -1l39 332q15 0 110.5 -1.5t135.5 -1.5z" />
    <glyph glyph-name="emdash" unicode="&#x2014;" horiz-adv-x="2764" 
d="M682 831h1454q40 0 135.5 1.5t110.5 1.5l-39 -332q-15 0 -110.5 1t-135.5 1h-1454q-40 0 -135.5 -1t-110.5 -1l39 332q15 0 110.5 -1.5t135.5 -1.5z" />
    <glyph glyph-name="quoteleft" unicode="&#x2018;" horiz-adv-x="520" 
d="M492 1204l-39 -307h-316l41 324q12 100 88.5 208t171.5 168l92 -124q-67 -46 -113.5 -111.5t-54.5 -140.5l-2 -17h132z" />
    <glyph glyph-name="quoteright" unicode="&#x2019;" horiz-adv-x="520" 
d="M184 1270l37 307h316l-39 -324q-12 -99 -89.5 -207t-172.5 -169l-91 124q65 47 111.5 112t56.5 140l2 17h-131z" />
    <glyph glyph-name="quotesinglbase" unicode="&#x201a;" horiz-adv-x="520" 
d="M29 0l37 307h315l-39 -323q-12 -99 -89.5 -207.5t-172.5 -169.5l-92 125q67 46 113.5 111.5t56.5 140.5l2 16h-131z" />
    <glyph glyph-name="quotedblleft" unicode="&#x201c;" horiz-adv-x="1372" 
d="M776 1532l-311 -666h-352l434 666h229zM1407 1532l-311 -666h-353l435 666h229z" />
    <glyph glyph-name="quotedblright" unicode="&#x201d;" horiz-adv-x="1372" 
d="M338 866l-148 666h230l270 -666h-352zM969 866l-148 666h230l270 -666h-352z" />
    <glyph glyph-name="quotedblbase" unicode="&#x201e;" horiz-adv-x="1372" 
d="M188 -362l-147 665h229l271 -665h-353zM819 -362l-147 665h229l270 -665h-352z" />
    <glyph glyph-name="dagger" unicode="&#x2020;" horiz-adv-x="1417" 
d="M1065 815h-135l-94 -774q-23 -207 -29 -246h-397q17 109 32 246l95 774h-136q-40 0 -135 -1t-110 -1l43 340q15 0 110 -1t135 -1h136l26 229q3 27 10 83.5t12.5 101t6.5 61.5h397q-1 -21 -15 -117.5t-18 -128.5l-26 -229h135q40 0 135.5 1t110.5 1l-43 -340
q-15 0 -110.5 1t-135.5 1z" />
    <glyph glyph-name="daggerdbl" unicode="&#x2021;" horiz-adv-x="1417" 
d="M987 180h-135l-16 -139q-23 -207 -29 -246h-397q17 109 32 246l17 139h-135q-40 0 -135.5 -1t-110.5 -1l43 340q15 0 109.5 -1t134.5 -1h135l43 340h-135q-40 0 -135.5 -1t-110.5 -1l41 340q15 0 110.5 -1t135.5 -1h135l22 188q3 27 10 83.5t12.5 101t6.5 61.5h397
q-1 -21 -15 -117.5t-18 -128.5l-22 -188h135q40 0 135.5 1t110.5 1l-41 -340q-15 0 -110.5 1t-135.5 1h-135l-43 -340h135q40 0 136.5 1t111.5 1l-43 -340q-15 0 -110.5 1t-135.5 1z" />
    <glyph glyph-name="bullet" unicode="&#x2022;" horiz-adv-x="1462" 
d="M807 1219q171 0 284 -115t113 -283q0 -133 -71.5 -250t-189 -185.5t-247.5 -68.5q-171 0 -285 114t-114 282q0 133 71.5 250.5t189.5 186.5t249 69z" />
    <glyph glyph-name="ellipsis" unicode="&#x2026;" horiz-adv-x="1851" 
d="M307 410q89 0 147 -57t58 -142q0 -101 -79.5 -176.5t-180.5 -75.5q-88 0 -145.5 56t-57.5 141q0 102 77.5 178t180.5 76zM901 410q89 0 147 -57t58 -142q0 -101 -79.5 -176.5t-180.5 -75.5q-88 0 -145.5 56t-57.5 141q0 102 77.5 178t180.5 76zM1495 410q89 0 147 -57
t58 -142q0 -101 -79.5 -176.5t-180.5 -75.5q-88 0 -145.5 56t-57.5 141q0 102 77.5 178t180.5 76z" />
    <glyph glyph-name="perthousand" unicode="&#x2030;" horiz-adv-x="2293" 
d="M1337 1479l158 -144q-48 -45 -184 -186l-969 -1006q-20 -21 -60.5 -64.5t-72.5 -77.5t-45 -46l-158 143q39 36 184 187l969 1005q41 42 178 189zM1073 594q147 0 233.5 -81t86.5 -204q0 -154 -112.5 -262t-287.5 -108q-148 0 -234.5 81.5t-86.5 206.5q0 151 114.5 259
t286.5 108zM1049 397q-56 0 -100 -44t-44 -103q0 -48 32 -81.5t81 -33.5q57 0 99 45t42 105q0 47 -31.5 79.5t-78.5 32.5zM508 1495q147 0 233 -80.5t86 -204.5q0 -154 -112 -262t-287 -108q-148 0 -235 81.5t-87 206.5q0 151 115 259t287 108zM483 1298q-56 0 -99.5 -44
t-43.5 -103q0 -48 32 -81.5t81 -33.5q57 0 99 45t42 105q0 47 -32 79.5t-79 32.5zM1892 594q147 0 233.5 -81t86.5 -204q0 -154 -112.5 -262t-287.5 -108q-148 0 -234.5 81.5t-86.5 206.5q0 151 114.5 259t286.5 108zM1868 397q-56 0 -100 -44t-44 -103q0 -48 32 -81.5
t81 -33.5q57 0 99 45t42 105q0 47 -31.5 79.5t-78.5 32.5z" />
    <glyph glyph-name="guilsinglleft" unicode="&#x2039;" horiz-adv-x="681" 
d="M219 250l-153 262l219 262q153 186 174 211l170 -137l-277 -336l195 -336l-205 -137q-23 37 -64 109.5t-59 101.5z" />
    <glyph glyph-name="guilsinglright" unicode="&#x203a;" horiz-adv-x="681" 
d="M592 512l-219 -262q-12 -15 -75.5 -93.5t-96.5 -117.5l-172 137l276 336l-194 336l206 137q22 -36 62 -107.5t59 -103.5z" />
    <glyph glyph-name="zerosuperior" unicode="&#x2070;" horiz-adv-x="786" 
d="M514 1597q147 0 237.5 -93.5t90.5 -235.5q0 -172 -124.5 -300t-295.5 -128q-147 0 -237.5 93t-90.5 234q0 175 122.5 302.5t297.5 127.5zM492 1417q-75 0 -128 -68t-53 -165q0 -71 37 -117.5t96 -46.5q73 0 128 68t55 161q0 73 -37 120.5t-98 47.5z" />
    <glyph glyph-name="foursuperior" unicode="&#x2074;" horiz-adv-x="786" 
d="M737 1577l-49 -408h98l-20 -168h-98q-2 -12 -8 -66t-9 -75h-209q10 76 21 141h-361l17 142l350 434h268zM512 1389q-32 -46 -47 -64l-90 -111q-22 -28 -47 -49q40 4 67 4h88l17 146q1 7 5 34t7 40z" />
    <glyph glyph-name="fivesuperior" unicode="&#x2075;" horiz-adv-x="786" 
d="M215 1186l119 391h268q22 0 67 1t68 1l-20 -176q-20 0 -65.5 1t-69.5 1h-123l-23 -57q24 6 56 6q108 0 177.5 -62.5t69.5 -161.5q0 -130 -101.5 -210t-256.5 -80q-84 0 -148.5 24t-97.5 54l55 186q88 -84 197 -84q57 0 93 30t36 72t-38.5 69.5t-98.5 27.5q-81 0 -164 -33
z" />
    <glyph glyph-name="sixsuperior" unicode="&#x2076;" horiz-adv-x="786" 
d="M721 1577q-43 -40 -103 -100l-88 -88q-7 -6 -21 -19t-20 -18q24 6 60 6q103 0 166 -60.5t63 -154.5q0 -125 -95 -214t-265 -89q-142 0 -216.5 65t-74.5 164q0 82 45.5 159t124.5 163l94 102q9 10 34.5 38.5t41.5 45.5h254zM459 1204q-50 0 -86.5 -33.5t-36.5 -83.5
q0 -36 28 -59.5t70 -23.5q48 0 85.5 31.5t37.5 76.5q0 41 -27.5 66.5t-70.5 25.5z" />
    <glyph glyph-name="sevensuperior" unicode="&#x2077;" horiz-adv-x="792" 
d="M872 1577l-4 -39l-385 -528q-15 -21 -56.5 -79.5t-49.5 -70.5h-252q109 136 131 168l262 354q13 18 23 25q-12 -2 -33 -2h-148q-22 0 -67 -1t-68 -1l21 176q26 0 77 -1t58 -1h491z" />
    <glyph glyph-name="eightsuperior" unicode="&#x2078;" horiz-adv-x="786" 
d="M745 1067q-11 -98 -94.5 -162.5t-228.5 -64.5q-135 0 -203.5 56t-68.5 144q0 67 41 121.5t108 79.5q-37 15 -57.5 50t-20.5 79q0 89 77 158t216 69q121 0 182.5 -52.5t61.5 -129.5q0 -56 -31.5 -105t-83.5 -69q48 -21 76.5 -61t28.5 -90q0 -4 -1.5 -11.5t-1.5 -11.5z
M461 1155q-37 0 -65.5 -24.5t-28.5 -57.5q0 -29 20.5 -49t54.5 -20q39 0 66 26.5t27 61.5q0 27 -21 45t-53 18zM481 1323q30 0 54 21.5t24 52.5q0 22 -18 37.5t-45 15.5q-32 0 -54 -20t-22 -48q0 -26 16.5 -42.5t44.5 -16.5z" />
    <glyph glyph-name="ninesuperior" unicode="&#x2079;" horiz-adv-x="788" 
d="M514 1597q133 0 211 -66.5t78 -168.5q0 -52 -27.5 -115.5t-62.5 -103.5l-156 -180q-14 -18 -90 -103h-248q27 32 98 98l95 93q7 7 20 18.5t19 17.5q-24 -6 -56 -6q-117 0 -182.5 66.5t-65.5 155.5q0 122 107 208t260 86zM496 1442q-52 0 -90.5 -35t-38.5 -80
q0 -37 30 -62.5t74 -25.5q50 0 88.5 33.5t38.5 77.5q0 39 -29 65.5t-73 26.5z" />
    <glyph glyph-name="zeroinferior" unicode="&#x2080;" horiz-adv-x="786" 
d="M381 512q145 0 236.5 -94t91.5 -234q0 -173 -123.5 -301.5t-296.5 -128.5q-148 0 -239 94.5t-91 235.5q0 114 57 212.5t154.5 157t210.5 58.5zM358 332q-73 0 -127.5 -68t-54.5 -162q0 -73 37 -120.5t98 -47.5q75 0 128 69t53 165q0 71 -37.5 117.5t-96.5 46.5z" />
    <glyph glyph-name="oneinferior" unicode="&#x2081;" horiz-adv-x="786" 
d="M502 492l-58 -472q-3 -25 -10 -82.5t-12 -101.5t-6 -61h-217q1 21 15 117.5t17 127.5l37 304h-100l20 168h314z" />
    <glyph glyph-name="twoinferior" unicode="&#x2082;" horiz-adv-x="796" 
d="M-39 -225q260 229 348 319q33 34 51.5 56t37 56.5t18.5 63.5q0 68 -64 68q-43 0 -68.5 -30.5t-31.5 -82.5h-213q15 125 105 206t229 81q122 0 194 -64.5t72 -162.5q0 -69 -28 -122t-91 -106l-98 -82q-6 -5 -18.5 -14t-18.5 -14q24 4 53 4h172l-22 -176h-627z" />
    <glyph glyph-name="threeinferior" unicode="&#x2083;" horiz-adv-x="786" 
d="M381 512q105 0 168 -52.5t63 -133.5q0 -55 -26 -95.5t-62 -60.5q44 -15 70.5 -55.5t26.5 -94.5q0 -120 -95 -193t-231 -73q-127 0 -204 71t-77 177q0 4 1 11.5t1 11.5h207q7 -95 88 -95q50 0 75.5 27t25.5 68q0 28 -23 46.5t-70 18.5h-26l16 135h15q42 0 65 19t23 53
q0 22 -16 36.5t-42 14.5q-33 0 -56 -24t-28 -58h-192q12 101 97.5 173.5t205.5 72.5z" />
    <glyph glyph-name="fourinferior" unicode="&#x2084;" horiz-adv-x="786" 
d="M604 492l-49 -408h98l-22 -168h-99q-9 -108 -14 -141h-209q2 18 6.5 50t8 56.5t4.5 34.5h-361l19 141l350 435h268zM350 84l17 145q4 42 12 72q-4 -6 -21 -26t-28 -35l-88 -111q-22 -28 -47 -49q40 4 67 4h88z" />
    <glyph glyph-name="fiveinferior" unicode="&#x2085;" horiz-adv-x="786" 
d="M82 100l119 392h268q23 0 68 1t67 1l-20 -177q-20 0 -65.5 1t-69.5 1h-123l-23 -57q21 6 55 6q106 0 176 -61.5t70 -157.5q0 -132 -100 -213.5t-256 -81.5q-84 0 -148 24t-100 54l57 186q88 -84 197 -84q57 0 93 30t36 73q0 41 -39.5 68.5t-99.5 27.5q-79 0 -162 -33z
" />
    <glyph glyph-name="sixinferior" unicode="&#x2086;" horiz-adv-x="786" 
d="M588 492q-29 -27 -103 -101l-88 -88q-5 -4 -13.5 -12t-16 -14.5t-13.5 -10.5q27 6 62 6q103 0 166 -60.5t63 -154.5q0 -125 -95 -214t-265 -89q-142 0 -216.5 65.5t-74.5 164.5q0 82 45.5 158t124.5 163l94 103q9 10 34.5 38.5t41.5 45.5h254zM326 119q-47 0 -85 -33.5
t-38 -79.5q0 -38 28 -63t70 -25q51 0 86 32t35 81q0 38 -27.5 63t-68.5 25z" />
    <glyph glyph-name="seveninferior" unicode="&#x2087;" horiz-adv-x="792" 
d="M739 492l-4 -39l-385 -529q-16 -22 -59 -82.5t-47 -66.5h-252q108 137 131 168l262 354q13 18 23 25q-18 -3 -33 -3h-148q-23 0 -67.5 -1t-67.5 -1l21 177q26 0 77 -1t58 -1h491z" />
    <glyph glyph-name="eightinferior" unicode="&#x2088;" horiz-adv-x="786" 
d="M612 -18q-11 -98 -94.5 -163t-228.5 -65q-135 0 -204 56.5t-69 144.5q0 67 41.5 121.5t108.5 79.5q-37 15 -57.5 50t-20.5 79q0 89 77 158t216 69q121 0 182.5 -52.5t61.5 -129.5q0 -56 -31.5 -105t-83.5 -69q48 -20 76 -61t28 -91q0 -4 -1 -11t-1 -11zM328 70
q-37 0 -66 -24.5t-29 -57.5q0 -29 21 -49.5t55 -20.5q39 0 65.5 26.5t26.5 61.5q0 27 -20.5 45.5t-52.5 18.5zM348 238q30 0 54 21t24 52q0 22 -18.5 38t-45.5 16q-33 0 -55 -21t-22 -49q0 -25 18 -41t45 -16z" />
    <glyph glyph-name="nineinferior" unicode="&#x2089;" horiz-adv-x="788" 
d="M381 512q133 0 211 -66.5t78 -169.5q0 -52 -27.5 -115.5t-62.5 -103.5l-156 -180q-8 -10 -90 -102h-248q27 32 98 98l95 92q7 7 19.5 19t18.5 18q-24 -6 -55 -6q-117 0 -182.5 66t-65.5 155q0 122 107 208.5t260 86.5zM362 356q-52 0 -90.5 -34.5t-38.5 -79.5
q0 -37 30.5 -62.5t74.5 -25.5q50 0 88.5 33t38.5 77q0 39 -29.5 65.5t-73.5 26.5z" />
    <glyph glyph-name="lira" unicode="&#x20a4;" horiz-adv-x="1370" 
d="M1309 1077l-373 -73q-3 68 -50.5 111.5t-140.5 43.5q-75 0 -134.5 -48.5t-59.5 -141.5q0 -17 2 -27h201q40 0 135 1t110 1l-22 -188q-15 0 -110.5 1t-135.5 1h-129q19 -69 21 -111h94q40 0 135.5 1t110.5 1l-23 -188q-15 0 -110.5 1t-135.5 1h-106q-40 -81 -125 -121
l2 -6q45 20 110 20q60 0 174 -36.5t164 -36.5q141 0 285 112l66 -303q-206 -133 -410 -133q-69 0 -138 23.5t-134.5 47t-126.5 23.5q-101 0 -181 -20.5t-194 -73.5l-78 322q83 25 139.5 73.5t83.5 108.5q-42 0 -119 -1t-88 -1l23 188q11 0 87 -1t118 -1q-3 31 -25 111
q-68 -2 -166 -2l23 188q5 0 37.5 -1t56.5 -1q-4 32 -4 51q0 100 37 182.5t98.5 137t143 92t168.5 54t178 16.5q142 0 242.5 -29.5t157 -86t83.5 -124.5t33 -158z" />
    <glyph glyph-name="Euro" unicode="&#x20ac;" horiz-adv-x="1597" 
d="M1313 463l221 -264q-123 -114 -292 -177t-351 -63q-150 0 -274.5 42.5t-210.5 118.5t-138.5 178.5t-68.5 225.5q-61 -2 -148 -2l21 176q6 0 50 -1t73 -1l4 29q9 69 14 84h-127l23 176q9 0 66 -1t95 -1q106 223 317.5 357.5t485.5 134.5q326 0 514 -191l-274 -258
q-119 113 -281 113q-98 0 -186.5 -41t-149.5 -115h326q40 0 136.5 1t111.5 1l-193 -176q-15 0 -110.5 1t-135.5 1h-223q-11 -49 -16 -86l-4 -29h127q40 0 135.5 1t110.5 1l-191 -176q-97 0 -160 2q36 -103 124 -162t200 -59q116 0 200 40t179 120z" />
    <glyph glyph-name="trademark" unicode="&#x2122;" horiz-adv-x="1615" 
d="M1075 700h-22l-131 263q-13 26 -23 61q-19 -54 -25 -68l-61 -133q-8 -18 -22.5 -53.5t-22.5 -52.5h-229q28 53 61 131l270 616h21l182 -352q17 -35 31 -84q31 61 49 84l268 352h21l129 -614l28 -133h-235q-6 34 -21 108l-26 127q-2 11 -3.5 39t-2.5 33q-6 -18 -45 -74z
M674 1436l-25 -191q-17 0 -49 1t-49 1h-57l-50 -399q-12 -115 -14 -131h-233q1 9 4.5 35.5t7 52t6.5 43.5l49 399h-59q-17 0 -50 -1t-49 -1l25 191q2 0 42.5 -1t53.5 -1h346q11 0 55 1t46 1z" />
    <glyph glyph-name="Ohm" unicode="&#x2126;" horiz-adv-x="1843" 
d="M983 1110q-117 0 -221.5 -60.5t-167 -163.5t-62.5 -220q0 -110 54.5 -199.5t148.5 -130.5l-41 -336h-450q-40 0 -136.5 -1t-111.5 -1l43 340q8 0 55.5 1.5t86 2t85.5 -3t72 -12.5l4 8q-85 47 -140 149t-55 224q0 158 72 301.5t192 245t281.5 161.5t335.5 60
q208 0 370.5 -80.5t250.5 -221t88 -317.5q0 -168 -86.5 -313.5t-214.5 -208.5v-8q26 9 73 12.5t86.5 3t87.5 -2t56 -1.5l-43 -340q-15 0 -109.5 1t-134.5 1h-451l41 336q124 50 207.5 171t83.5 257q0 147 -99.5 246.5t-250.5 99.5z" />
    <glyph glyph-name="uni2206" unicode="&#x2206;" 
d="M879 1483h41l460 -1260q50 -137 86 -223h-1503q9 15 34.5 56t58 92.5t46.5 74.5zM610 291h285q60 0 70 -10l6 8q-11 4 -27 51l-96 276q-33 106 -33 150v4h-8q-9 -45 -72 -154l-160 -276q-23 -43 -40 -51l2 -8q15 10 73 10z" />
    <glyph glyph-name="minus" unicode="&#x2212;" horiz-adv-x="1466" 
d="M1303 895v-311q-15 0 -110.5 1t-135.5 1h-647q-40 0 -135.5 -1t-110.5 -1v311q15 0 110.5 -1t135.5 -1h647q40 0 135.5 1t110.5 1z" />
    <glyph glyph-name="infinity" unicode="&#x221e;" horiz-adv-x="1888" 
d="M45 696q0 119 62.5 220.5t170 161t234.5 59.5q126 0 219.5 -47.5t173.5 -133.5q90 106 195 164t252 58q131 0 243 -65t178 -176t66 -241t-66 -241t-178 -175.5t-243 -64.5q-146 0 -252 58t-193 161q-80 -85 -174.5 -131.5t-220.5 -46.5q-127 0 -234.5 59t-170 160.5
t-62.5 220.5zM1352 891q-70 0 -133 -51.5t-134 -145.5q68 -91 131.5 -141.5t135.5 -50.5q65 0 112 56.5t47 137.5t-47 138t-112 57zM373 696q0 -64 40 -108.5t99 -44.5q56 0 108 39.5t109 113.5q-58 74 -110 114t-107 40q-58 0 -98.5 -44.5t-40.5 -109.5z" />
    <glyph glyph-name="uni261A" unicode="&#x261a;" horiz-adv-x="2314" 
d="M1776 1010l313 22l78 -143l-88 -58l129 -204q-32 -42 -47 -56l82 -333q0 -14 -13 -11l-303 31l-78 150l-61 -9l-84 168l-33 -2q-171 -157 -311 -157q-41 0 -143.5 18t-159.5 18q-60 0 -189.5 -27.5t-193.5 -27.5q-112 0 -176 57l-19 17q-11 11 0 18l7 3q7 4 11.5 8.5
t8.5 11.5q25 52 80.5 70t146.5 22q61 3 201 -2q54 38 120.5 68t100.5 30q12 0 12 6t-14 9q-92 19 -195 -80q-180 0 -346 -31l-30 51q-14 23 6 43l76 86l69 2q15 0 27 -8q28 -24 59 -72l-31 -51q-6 -10 2 -11q5 1 11 5l39 33q59 -26 71 -29q10 -3 11.5 1.5t-4.5 10.5l-80 68
q1 1 -0.5 5t-0.5 5t9 0l88 -8q11 -21 43 -47q17 -15 17 -7l-5 13q-33 53 -59 123q-15 39 -15 -4q0 -30 7 -49q3 -8 0.5 -9t-9.5 1h-2q-91 17 -178 57q-54 -12 -130.5 -21.5t-117.5 -9.5q-21 0 -61 5t-62 5h-86q-61 0 -107 27.5t-71 67.5q-9 15 -14 20q-3 2 -12.5 4t-12.5 4
q-5 5 -1 9t12 6q34 6 147 10q31 0 12 -19l-14 -14q-9 -9 1 -9q6 0 15 3q34 11 60 41q131 12 303 41q86 -4 129 -4q60 0 145.5 21.5t120.5 21.5q65 0 156.5 -20t210 -42.5t241.5 -25.5l29 37l143 16zM1819 932l-140 14q132 -255 123 -514l125 -8q10 287 -108 508zM1116 420
q27 0 51 -6q13 -4 13 -15q0 -34 -45 -45q-6 -3 -11 2q-2 4 -5.5 23t-6.5 27q0 1 -1 3q-3 4 -2.5 7.5t7.5 3.5zM1018 418l59 2q13 0 17 -27q5 -24 -9 -46.5t-38 -22.5q-11 0 -11 10q0 27 -22 69q-9 15 4 15zM993 403q22 -54 8 -102q-6 -12 -14 -10q-30 5 -101 32t-104 56
q-4 6 -3 7t12 3q131 12 186 25q10 3 16 -11zM616 530q-20 0 -20 -6q0 -4 12 -4q35 0 64.5 -19.5t29.5 -45.5q0 -23 -34 -39q-2 -1 -3.5 -4.5t0.5 -6t11 0.5q25 8 38 26t13 37q0 61 -111 61z" />
    <glyph glyph-name="uni261B" unicode="&#x261b;" horiz-adv-x="2314" 
d="M225 1032l314 -22l6 -31l143 -16l29 -37q123 3 241.5 25.5t210 42.5t156.5 20q35 0 120.5 -21.5t145.5 -21.5q43 0 129 4q172 -29 303 -41q26 -30 60 -41q21 -8 20 0q0 2 -4 6l-14 14q-19 19 12 19q114 -4 148 -10q8 -2 11.5 -6t-1.5 -9q-3 -2 -12.5 -4t-12.5 -4
q-5 -5 -14 -20q-25 -40 -71 -67.5t-107 -27.5h-86q-22 0 -62 -5t-61 -5q-41 0 -117.5 9.5t-130.5 21.5q-87 -40 -178 -57q-9 -2 -10.5 -1.5t0.5 9.5q6 16 6 49q0 43 -15 4q-26 -70 -59 -123q-9 -16 -2 -15q5 1 14 9q33 26 43 47l88 8q8 1 9 0t0 -5t0 -5l-80 -68
q-7 -6 -5.5 -10.5t11.5 -1.5q14 4 72 29l38 -33q13 -11 15 -2q1 3 -2 8l-31 51q31 48 59 72q12 8 27 8l70 -2l75 -86q21 -21 7 -43l-31 -51q-166 31 -346 31q-103 99 -195 80q-14 -3 -14 -9t12 -6q34 0 100.5 -30t120.5 -68q140 5 201 2q91 -4 146.5 -22t80.5 -70
q4 -7 8.5 -11.5t11.5 -8.5l7 -3q11 -7 0 -18l-18 -17q-64 -57 -177 -57q-64 0 -193.5 27.5t-189.5 27.5q-57 0 -159.5 -18t-143.5 -18q-140 0 -311 157l-33 2l-84 -168l-61 9l-78 -150l-303 -31q-12 -2 -12 11l82 333q-18 17 -48 56l130 204l-89 58zM635 946l-139 -14
q-119 -223 -109 -508l125 8q-9 259 123 514zM1198 420q10 0 5 -11q-1 -2 -1 -3q-3 -8 -6.5 -27t-5.5 -23q-5 -5 -10 -2q-45 11 -45 45q0 11 12 15q24 6 51 6zM1237 420l59 -2q13 0 4 -15q-22 -42 -22 -69q0 -7 -2 -8.5t-8 -1.5q-24 0 -38 22.5t-9 46.5q0 2 0.5 5t1 4.5t1 4
t1 4.5t1.5 3.5t2.5 3t3.5 2t5 0.5zM1321 403q6 14 16 11q54 -13 187 -25q12 -2 12.5 -3.5t-4.5 -6.5q-33 -29 -104 -56t-101 -32q-8 -2 -14 10q-14 48 8 102zM1698 530q-111 0 -111 -61q0 -19 13 -37t38 -26q12 -4 13 2t-4 8q-35 17 -35 39q0 26 29.5 45.5t64.5 19.5
q12 0 12 4q0 6 -20 6z" />
    <glyph glyph-name="uni261C" unicode="&#x261c;" horiz-adv-x="2314" 
d="M1102 1014q91 0 313 -63t295 -77l19 68h69q2 4 2 14t1.5 17.5t4.5 7.5q65 8 156 8q119 0 152 -6q8 -2 8 -8q0 -8 -13 -8q-47 0 -235 -43q113 -232 113 -482q0 -72 -7 -118q118 -25 242 -35q10 0 10 -8q0 -7 -8 -9q-32 -5 -117.5 -10.5t-119.5 -5.5q-35 48 -78 129l-86 10
l-84 137q-46 -14 -110.5 -49t-122 -58.5t-113.5 -23.5q-30 0 -76 8t-60 9q0 -2 1.5 -5.5t1.5 -4.5q0 -18 -11.5 -25.5t-36.5 -7.5q-22 0 -36 4q1 -4 4.5 -14.5t3.5 -14.5q0 -8 -6 -8q-26 0 -93 25q2 -10 2 -29q0 -6 -6 -6q-69 1 -147.5 23.5t-104.5 45.5q-91 2 -172.5 18.5
t-117.5 45.5q-7 7 -4 18q22 52 56.5 79.5t88.5 43.5q-27 20 -27 58q0 39 62 110q-43 0 -85 3.5t-98.5 10.5t-70.5 9q-15 1 -41.5 2.5t-41.5 2.5t-35 3t-36 6q-112 24 -141 104l-10 4q-11 4 -11 9q0 8 9 8q55 8 184 8q9 0 35.5 5t36.5 5h61q23 5 95 12t126 7q21 0 69.5 -2
t88.5 -2q74 0 149 22q86 23 103 23zM1827 424l82 -6q12 68 12 141q0 165 -74 346q-49 6 -92 0q80 -135 80 -352q0 -43 -8 -129zM827 823q77 -38 172 -63q4 18 -6 51q-1 2 1 3.5t5 2t5 -1.5q11 -12 21 -24t20.5 -29.5l15 -25t17.5 -30.5t14 -26q64 27 129 27q20 0 20 -9
q0 -4 -4 -6t-17.5 -6t-19.5 -6q-41 -13 -100.5 -39t-89.5 -43q-9 0 -36 -0.5t-35.5 -0.5t-31.5 -0.5t-32 -1t-28 -1.5t-29 -1.5t-25.5 -2t-26.5 -3t-24 -3.5t-25 -4q-111 -23 -164 -95q17 -17 63.5 -28t92.5 -11q71 0 71 23q0 13 -14 27t-35 22q-5 2 -9.5 6.5t-4.5 7.5
q0 5 16 5q26 0 48 -19.5t22 -44.5q0 -18 -33 -43q14 -2 43 -2q39 0 79 7t96 21t79 19q32 -4 88 -14t103 -16.5t90 -6.5q58 0 118.5 18t103.5 40t97.5 43.5t99.5 27.5q15 54 15 127t-17 148q-158 12 -401 76q-224 61 -281 61q-38 0 -113.5 -19.5t-107.5 -19.5q-8 0 -75 3
t-95 3q-46 0 -130 -7t-126 -7q-6 0 -27 -1t-28 -1q-10 -1 -16.5 -2.5t-8.5 -2.5t-5.5 -5t-4.5 -5q-12 -21 -31 -30q-8 -4 -8 4q0 5 5 14.5t5 14.5q0 4 -4 4q-20 -1 -58.5 -3.5t-59.5 -3.5q55 -86 208 -86q11 0 41 5q170 -23 269 -23q71 0 114 12zM1081 416q0 -14 19 -25
t45 -12q12 0 12 10q0 37 -47 37q-29 0 -29 -10zM936 381q58 -14 119 -14q10 0 10 16q0 20 -19 30.5t-45 10.5q-27 0 -48 -14t-21 -25q0 -4 4 -4zM999 735q-46 4 -73 4q-7 0 -4 -8q18 -25 57 -53q41 -33 59 -33q13 0 15 19q-3 21 -31 59q-8 12 -23 12zM893 625l78 6q12 0 6 6
q-20 27 -51 27t-37 -29q0 -10 4 -10zM870 662l21 22q-5 28 -29 56t-51 28h-10.5h-11h-9.5t-10 -1t-8 -2t-8 -2.5t-6.5 -3.5t-6.5 -5q-53 -57 -53 -88q0 -24 23 -54q23 8 65 11q12 1 40 1t36 1q8 0 8 12q-12 12 -30.5 20.5t-30.5 8.5q-11 0 -11 6q0 10 25 10q29 0 57 -20z
" />
    <glyph glyph-name="uni261D" unicode="&#x261d;" horiz-adv-x="1064" 
d="M889 721q0 -91 -63 -313.5t-76 -294.5l67 -19v-69q4 -2 14 -2.5t17.5 -2t7.5 -4.5q8 -65 8 -155q0 -119 -6 -152q-2 -8 -8 -8q-8 0 -8 12q0 48 -43 236q-232 -113 -482 -113q-79 0 -118 6q-25 -119 -35 -241q0 -11 -8 -11q-7 0 -9 9q-5 32 -10.5 118t-5.5 119
q48 35 129 78l10 86l138 84q-12 39 -36.5 87.5t-44.5 84.5t-35.5 83t-15.5 91q0 30 8 75t9 60q-2 0 -5.5 -1t-4.5 -1q-18 0 -25.5 11t-7.5 36q0 23 4 37q-4 -1 -14.5 -4.5t-14.5 -3.5q-8 0 -8 6q0 25 25 92q-10 -2 -29 -2q-6 0 -6 6q1 69 23.5 147.5t45.5 104.5
q2 91 18.5 173t45.5 118q7 7 18 4q52 -22 79.5 -56.5t43.5 -88.5q19 26 58 26q41 0 110 -61q0 43 3.5 85t10.5 98.5t9 70.5q1 15 2.5 41.5t2.5 41.5t3 35t6 36q24 112 105 141l3 10q4 10 9 10q8 0 8 -8q8 -55 8 -184q0 -9 5 -35.5t5 -36.5v-61q5 -23 12 -95.5t7 -126.5
q0 -21 -2 -69t-2 -88q0 -75 22 -150q23 -86 23 -102zM299 -4l-6 -82q67 -12 141 -12q167 0 346 73q6 49 0 93q-135 -80 -352 -80q-43 0 -129 8zM698 995q-38 -77 -63 -172q18 -4 51 6q2 1 3.5 -1t2 -4.5t-1.5 -4.5q-12 -11 -24 -21t-29.5 -20.5l-25 -15t-30.5 -17.5t-26 -14
q27 -65 27 -129q0 -20 -9 -20q-4 0 -6 4t-6 17.5t-6 19.5q-13 41 -39 100.5t-43 89.5q0 9 -0.5 36t-0.5 35.5t-0.5 31.5t-1 32t-1.5 28t-1.5 29t-2 25.5t-3 26.5t-3.5 24t-4 25q-23 111 -95 164q-17 -17 -27.5 -63.5t-10.5 -92.5q0 -72 22 -72q13 0 27 14.5t22 35.5
q1 4 6.5 9t8.5 5q4 0 4 -16q0 -26 -19.5 -48t-44.5 -22q-18 0 -43 33q-2 -14 -2 -43q0 -39 7 -79t21 -96t19 -79q-4 -32 -14 -88t-16.5 -103t-6.5 -90q0 -58 18 -118.5t40 -103.5t43.5 -98t27.5 -100q50 -14 127 -14t148 16q12 160 76 402q61 224 61 280q0 38 -19.5 114
t-19.5 108q0 8 3 74.5t3 94.5q0 46 -7 130t-7 126q0 6 -1 27.5t-1 28.5q-1 8 -1.5 13.5t-2 9t-2.5 5t-4 4t-4 3.5q-23 14 -31 30q-4 9 4 9q5 0 14.5 -5.5t14.5 -5.5q4 0 4 4q-1 20 -3 59.5t-3 59.5q-86 -55 -86 -209q0 -17 4 -41q-23 -170 -23 -268q0 -72 12 -115zM291 741
q-14 0 -25 -18.5t-12 -44.5q0 -12 10 -12q37 0 37 47q0 28 -10 28zM256 887q-14 -58 -14 -119q0 -10 16 -10q20 0 30.5 18.5t10.5 44.5q0 27 -14 48.5t-25 21.5q-4 0 -4 -4zM610 823q4 46 4 74q0 7 -8 4q-25 -18 -53 -57q-33 -41 -33 -60q0 -12 19 -14q21 3 59 31
q12 8 12 22zM500 930l6 -78q0 -4 1 -5.5t2.5 -1.5t2.5 1q27 20 27 51t-29 37q-10 0 -10 -4zM537 952l22 -20q28 5 56 29t28 51v9.5v9.5v8.5t-0.5 8.5t-1 8t-1.5 7.5t-2.5 6t-3.5 6.5t-5 5q-58 54 -88 54q-24 0 -54 -23q8 -23 11 -65q1 -12 1 -40t1 -36q0 -8 12 -8
q12 12 20.5 30.5t8.5 30.5q0 10 6 10q10 0 10 -24q0 -30 -20 -58z" />
    <glyph glyph-name="uni261E" unicode="&#x261e;" horiz-adv-x="2314" 
d="M1212 1014q17 0 103 -23q75 -22 149 -22q40 0 88.5 2t69.5 2q54 0 126 -7t95 -12q10 -1 20.5 -1t22.5 0.5t19 0.5q10 0 36 -5t35 -5q130 0 185 -8q8 0 8 -8q0 -5 -11 -9l-10 -4q-29 -80 -141 -104q-16 -4 -36 -6t-35 -3t-41.5 -2.5t-41.5 -2.5q-14 -2 -70.5 -9
t-98.5 -10.5t-85 -3.5q62 -71 62 -110q0 -38 -27 -58q54 -16 89 -43.5t57 -79.5q3 -11 -4 -18q-36 -29 -118 -45.5t-173 -18.5q-26 -23 -104.5 -45.5t-147.5 -23.5q-6 0 -6 6q0 19 2 29q-67 -25 -92 -25q-7 0 -7 8q0 4 4 14.5t5 14.5q-14 -4 -37 -4q-25 0 -36 7.5t-11 25.5
q0 1 1 4.5t1 5.5q-15 -1 -60 -9t-75 -8q-56 0 -113.5 23.5t-122.5 58.5t-111 49l-83 -137l-86 -10q-43 -81 -78 -129q-34 0 -120 5.5t-118 10.5q-8 2 -8 9q0 8 10 8q124 10 242 35q-6 39 -6 118q0 252 112 482q-188 43 -235 43q-12 0 -12 8q0 6 8 8q33 6 151 6q91 0 156 -8
q3 0 4.5 -7.5t1.5 -17.5t2 -14h70l18 -68q73 14 295 77t313 63zM406 418l81 6q-8 86 -8 129q0 217 80 352q-43 6 -92 0q-74 -181 -74 -346q0 -68 13 -141zM1487 823q44 -12 115 -12q98 0 268 23q30 -5 41 -5q154 0 209 86q-20 1 -59.5 3.5t-59.5 3.5q-4 0 -4 -4
q0 -5 5 -14.5t5 -14.5q0 -8 -8 -4q-19 9 -31 30q-1 1 -3.5 4t-4 4t-5 3t-9 2.5t-13.5 1.5q-7 0 -28 1t-27 1q-43 0 -127 7t-129 7q-28 0 -95 -3t-75 -3q-32 0 -107.5 19.5t-113.5 19.5q-57 0 -281 -61q-243 -64 -401 -76q-17 -75 -17 -148t15 -127q45 -6 100 -27.5t98 -43.5
t103.5 -40t118.5 -18q43 0 89.5 6.5t102.5 16.5t88 14q23 -5 79 -19t96 -21t79 -7q29 0 43 2q-33 25 -33 43q0 25 22 44.5t48 19.5q16 0 16 -5q0 -3 -4.5 -7.5t-9.5 -6.5q-21 -8 -35 -22t-14 -27q0 -23 72 -23q46 0 92 11t63 28q-53 72 -164 95q-12 2 -25 4t-23.5 3.5
t-26.5 3t-25.5 2t-29 1.5t-28 1.5t-31.5 1t-31.5 0.5t-35.5 0.5t-36 0.5q-29 17 -89.5 43t-101.5 39q-6 2 -13 4t-11.5 3.5t-8.5 3t-6 3.5t-2 4q0 9 21 9q64 0 129 -27q1 3 14 26t17.5 30.5l15 25t20.5 29.5t21 24q2 2 4.5 1.5t4.5 -2t1 -3.5q-10 -33 -6 -51q95 25 172 63z
M1233 416q0 10 -29 10q-47 0 -47 -37q0 -10 12 -10q26 1 45 12t19 25zM1378 381q4 0 4 4q0 11 -21 25t-48 14q-26 0 -45 -10.5t-19 -30.5q0 -16 11 -16q60 0 118 14zM1315 735q-15 0 -23 -12q-27 -36 -30 -59q2 -19 14 -19q18 0 59 33q41 30 58 53q3 8 -4 8q-28 0 -74 -4z
M1343 631l78 -6q4 0 4 10q-6 29 -36 29q-32 0 -52 -27q-6 -6 6 -6zM1423 684l21 -22q28 20 57 20q25 0 25 -10q0 -6 -10 -6q-12 0 -31 -8.5t-31 -20.5q0 -12 8 -12q8 -1 36.5 -1t39.5 -1q43 -3 66 -11q22 28 22 54q0 31 -53 88q-3 3 -6.5 5t-6.5 3.5t-8 2.5t-8 2t-10 1h-9.5
h-11h-10.5q-27 0 -51 -28t-29 -56z" />
    <glyph glyph-name="uni261F" unicode="&#x261f;" horiz-adv-x="1064" 
d="M860 547q0 -21 -22 -103q-23 -79 -23 -149q0 -40 2 -88.5t2 -69.5q0 -54 -7 -126.5t-11 -94.5v-61q0 -10 -5 -36.5t-5 -35.5q0 -123 -9 -184q0 -9 -8 -9q-5 0 -8 10l-4 11q-81 29 -105 141q-4 16 -6 36t-3 35t-2.5 41.5t-2.5 41.5q-2 17 -6.5 56t-7.5 64t-5.5 62.5
t-2.5 71.5q-71 -62 -111 -62q-37 0 -57 27q-16 -54 -43.5 -88.5t-79.5 -56.5q-12 -3 -19 4q-29 36 -45 117t-18 173q-23 26 -46 104.5t-24 147.5q0 6 6 6q19 0 29 -2q-25 68 -25 93q0 6 9 6q4 0 14 -3.5t14 -4.5q-4 14 -4 36q0 25 7.5 36.5t25.5 11.5q1 0 4.5 -1.5t5.5 -1.5
q-1 13 -8.5 59t-7.5 77q0 56 23.5 113.5t58.5 122t49 110.5l-137 84l-11 86q-81 43 -129 78q0 32 5.5 118.5t11.5 118.5q2 8 8 8q8 0 8 -10q10 -124 35 -242q46 7 119 7q249 0 481 -113q43 188 43 235q0 13 8 13q6 0 8 -8q7 -38 7 -152q0 -83 -9 -156q0 -3 -7.5 -4.5
t-17.5 -1.5t-14 -2v-69l-67 -19q13 -72 76 -294.5t63 -313.5zM264 1354l6 -82q86 8 129 8q218 0 353 -80q6 43 0 92q-181 74 -346 74q-74 0 -142 -12zM670 272q-13 -47 -13 -114q0 -99 23 -269q-4 -24 -4 -41q0 -153 86 -208q1 20 3 58.5t3 59.5q0 4 -4 4q-5 0 -14.5 -5
t-14.5 -5q-8 0 -4 8q9 18 31 31q1 1 4 3.5t4 4t2.5 5t2 9t1.5 13.5q0 7 1 28t1 27q0 43 7.5 127t7.5 129q0 28 -3.5 95t-3.5 75q0 32 19.5 107.5t19.5 113.5q0 57 -61 281q-64 243 -76 401q-75 17 -147 17q-73 0 -127 -15q-6 -45 -27.5 -99.5t-43.5 -97.5t-40 -103.5
t-18 -118.5q0 -43 6.5 -90t16.5 -103t14 -88q-5 -24 -19 -79t-21.5 -95.5t-7.5 -79.5q0 -29 2 -43q25 33 43 33q25 0 44.5 -22t19.5 -48q0 -16 -4 -16q-3 0 -8 4.5t-6 9.5q-8 20 -22.5 34.5t-27.5 14.5q-22 0 -22 -71q0 -46 11 -92.5t28 -63.5q71 52 94 164q2 12 4 25
t3.5 24t3 26.5t2 25.5t1.5 29t1.5 28t1 32t0.5 31.5t0.5 35.5t0.5 36q17 30 43 89.5t39 100.5q2 5 4.5 12.5t3.5 12t3 8.5t4 6t4 2q8 0 8 -20q0 -64 -27 -129q6 -3 26.5 -14.5t30 -17t26 -15.5t29 -20t24.5 -21q2 -2 1.5 -5t-2.5 -5t-4 -1q-33 10 -51 6q24 -90 64 -172z
M262 526q10 0 10 29q0 47 -36 47q-11 0 -11 -12q1 -26 12 -45t25 -19zM227 381q0 -4 4 -4q11 0 25 21t14 48q0 26 -10.5 45t-30.5 19q-16 0 -16 -10q0 -61 14 -119zM582 444q0 14 -13 23q-38 28 -59 31q-18 -2 -18 -15q0 -19 32 -59q27 -38 54 -57q8 -3 8 4q0 27 -4 73z
M477 416l-6 -78q0 -4 10 -4q29 6 29 37t-27 51q-1 1 -2.5 1t-2.5 -1.5t-1 -5.5zM530 336l-22 -21q20 -28 20 -57q0 -25 -10 -25q-6 0 -6 11q0 12 -8.5 30.5t-20.5 30.5q-12 0 -12 -8q-1 -8 -1 -36.5t-1 -39.5q-4 -46 -10 -65q30 -23 53 -23q31 0 88 53q3 3 5 6.5t3.5 6.5
t2.5 8t2 8t1 10v9.5v11v10.5q0 27 -28 51t-56 29z" />
    </font>
</defs>
</svg>
