<?xml version="1.0" standalone="no"?>
<!DOCTYPE svg PUBLIC "-//W3C//DTD SVG 1.1//EN" "http://www.w3.org/Graphics/SVG/1.1/DTD/svg11.dtd" >
<svg xmlns="http://www.w3.org/2000/svg" xmlns:xlink="http://www.w3.org/1999/xlink" version="1.1">
<metadata>
Created by FontForge 20170731 at Wed Aug 11 02:40:28 2021
 By Aleksey,,,
Copyright (c) 2013 by Flanker. All rights reserved. Digital porting: Leonardo Di Lena. Special thanks to: Romesh Naik (:Nike) that gave me hope to create this font from original scans.
</metadata>
<defs>
<font id="Semplicita-Medium" horiz-adv-x="1486" >
  <font-face 
    font-family="Semplicita"
    font-weight="500"
    font-stretch="normal"
    units-per-em="2048"
    panose-1="2 11 3 2 2 1 2 2 3 4"
    ascent="1536"
    descent="-512"
    x-height="891"
    cap-height="1434"
    bbox="-311 -475 2355 2040"
    underline-thickness="102"
    underline-position="-307"
    unicode-range="U+0020-1F31D"
  />
<missing-glyph horiz-adv-x="1249" 
d="M100 1434h1049q0 -15 -1 -110.5t-1 -135.5v-942q0 -40 1 -135.5t1 -110.5h-1049q0 15 1 110.5t1 135.5v942q0 40 -1 135.5t-1 110.5zM195 1343v-1253h860v1253h-860z" />
    <glyph glyph-name="f_f" unicode="ff" horiz-adv-x="1187" 
d="M922 891q34 0 92.5 1t66.5 1v-184q-13 0 -80 1t-79 1v-916q0 -40 1 -135.5t1 -110.5h-189q0 15 1 110.5t1 135.5v1469q0 83 25 153q-52 68 -152 68q-139 0 -205.5 -103t-66.5 -286v-205q34 0 93 1t67 1v-184q-12 0 -80 1t-80 1v-916q0 -40 1 -135.5t1 -110.5h-188
q0 15 1 110.5t1 135.5v1301q0 259 115.5 408t340.5 149q165 0 262 -78q96 78 238 78v-180q-82 0 -135 -56t-53 -153v-373z" />
    <glyph glyph-name="f_i" unicode="fi" horiz-adv-x="1075" 
d="M922 1526v-56q0 -40 1 -135t1 -110h-189q0 14 1 95.5t1 123.5q-14 14 -50.5 27.5t-76.5 13.5q-139 0 -205.5 -103t-66.5 -286v-205q34 0 93 1t67 1v-184q-12 0 -80 1t-80 1v-916q0 -40 1 -135.5t1 -110.5h-188q0 15 1 110.5t1 135.5v1301q0 258 115.5 407.5t340.5 149.5
q120 0 199.5 -39.5t112.5 -87.5zM924 891q0 -15 -1 -110.5t-1 -135.5v-399q0 -40 1 -135.5t1 -110.5h-189q0 15 1 110.5t1 135.5v399q0 40 -1 135.5t-1 110.5h189z" />
    <glyph glyph-name="f_l" unicode="fl" horiz-adv-x="1075" 
d="M922 1526v-1280q0 -40 1 -135.5t1 -110.5h-189q0 15 1 110.5t1 135.5v1198q-14 14 -50.5 27.5t-76.5 13.5q-139 0 -205.5 -103t-66.5 -286v-205q34 0 93 1t67 1v-184q-12 0 -80 1t-80 1v-916q0 -40 1 -135.5t1 -110.5h-188q0 15 1 110.5t1 135.5v1301q0 258 115.5 407.5
t340.5 149.5q120 0 199.5 -39.5t112.5 -87.5z" />
    <glyph glyph-name="f_f_i" unicode="ffi" horiz-adv-x="1658" 
d="M1505 1526v-56q0 -40 1 -135t1 -110h-188q0 14 1 95.5t1 123.5q-14 14 -50.5 27.5t-76.5 13.5q-139 0 -205.5 -103t-66.5 -286v-205q34 0 92.5 1t66.5 1v-184q-13 0 -80 1t-79 1v-916q0 -40 1 -135.5t1 -110.5h-189q0 15 1 110.5t1 135.5v1301q0 163 45 282
q-12 42 -57.5 74.5t-114.5 32.5q-139 0 -205.5 -103t-66.5 -286v-205q34 0 93 1t67 1v-184q-12 0 -80 1t-80 1v-916q0 -40 1 -135.5t1 -110.5h-188q0 15 1 110.5t1 135.5v1301q0 259 115.5 408t340.5 149q103 0 176 -29.5t113 -71.5q119 101 295 101q120 0 199 -39t112 -88z
M1507 891q0 -15 -1 -110.5t-1 -135.5v-399q0 -40 1 -135.5t1 -110.5h-188q0 15 1 110.5t1 135.5v399q0 40 -1 135.5t-1 110.5h188z" />
    <glyph glyph-name="f_f_l" unicode="ffl" horiz-adv-x="1658" 
d="M1505 1526v-1280q0 -40 1 -135.5t1 -110.5h-188q0 15 1 110.5t1 135.5v1198q-14 14 -50.5 27.5t-76.5 13.5q-139 0 -205.5 -103t-66.5 -286v-205q34 0 92.5 1t66.5 1v-184q-13 0 -80 1t-79 1v-916q0 -40 1 -135.5t1 -110.5h-189q0 15 1 110.5t1 135.5v1301q0 163 45 282
q-12 42 -57.5 74.5t-114.5 32.5q-139 0 -205.5 -103t-66.5 -286v-205q34 0 93 1t67 1v-184q-12 0 -80 1t-80 1v-916q0 -40 1 -135.5t1 -110.5h-188q0 15 1 110.5t1 135.5v1301q0 259 115.5 408t340.5 149q103 0 176 -29.5t113 -71.5q119 101 295 101q120 0 199 -39t112 -88z
" />
    <glyph glyph-name="f_j" unicode="fj" horiz-adv-x="1075" 
d="M922 1526v-56q0 -40 1 -135t1 -110h-189q0 14 1 95.5t1 123.5q-14 14 -50.5 27.5t-76.5 13.5q-139 0 -205.5 -103t-66.5 -286v-205q34 0 93 1t67 1v-184q-12 0 -80 1t-80 1v-916q0 -40 1 -135.5t1 -110.5h-188q0 15 1 110.5t1 135.5v1301q0 258 115.5 407.5t340.5 149.5
q120 0 199.5 -39.5t112.5 -87.5zM924 891q0 -15 -1 -110.5t-1 -135.5v-850q0 -40 1 -135.5t1 -110.5h-189q0 15 1 110.5t1 135.5v850q0 40 -1 135.5t-1 110.5h189z" />
    <glyph glyph-name="f_f_j" unicode="ffj" horiz-adv-x="1658" 
d="M1505 1526v-56q0 -40 1 -135t1 -110h-188q0 14 1 95.5t1 123.5q-14 14 -50.5 27.5t-76.5 13.5q-139 0 -205.5 -103t-66.5 -286v-205q34 0 92.5 1t66.5 1v-184q-13 0 -80 1t-79 1v-916q0 -40 1 -135.5t1 -110.5h-189q0 15 1 110.5t1 135.5v1301q0 163 45 282
q-12 42 -57.5 74.5t-114.5 32.5q-139 0 -205.5 -103t-66.5 -286v-205q34 0 93 1t67 1v-184q-12 0 -80 1t-80 1v-916q0 -40 1 -135.5t1 -110.5h-188q0 15 1 110.5t1 135.5v1301q0 259 115.5 408t340.5 149q103 0 176 -29.5t113 -71.5q119 101 295 101q120 0 199 -39t112 -88z
M1507 891q0 -15 -1 -110.5t-1 -135.5v-850q0 -40 1 -135.5t1 -110.5h-188q0 15 1 110.5t1 135.5v850q0 40 -1 135.5t-1 110.5h188z" />
    <glyph glyph-name="longs_longs_j" unicode="&#x17f;&#x17f;j" horiz-adv-x="1658" 
d="M1505 1526v-56q0 -40 1 -135t1 -110h-188q0 14 1 95.5t1 123.5q-14 14 -50.5 27.5t-76.5 13.5q-139 0 -205.5 -103t-66.5 -286v-1301q0 -40 1 -135.5t1 -110.5h-189q0 15 1 110.5t1 135.5v1301q0 163 45 282q-12 42 -57.5 74.5t-114.5 32.5q-139 0 -205.5 -103
t-66.5 -286v-1301q0 -40 1 -135.5t1 -110.5h-188q0 15 1 110.5t1 135.5v1301q0 259 115.5 408t340.5 149q103 0 176 -29.5t113 -71.5q119 101 295 101q120 0 199 -39t112 -88zM1507 891q0 -15 -1 -110.5t-1 -135.5v-850q0 -40 1 -135.5t1 -110.5h-188q0 15 1 110.5t1 135.5
v850q0 40 -1 135.5t-1 110.5h188z" />
    <glyph glyph-name="longs_j" unicode="&#x17f;j" horiz-adv-x="1075" 
d="M922 1526v-56q0 -40 1 -135t1 -110h-189q0 14 1 95.5t1 123.5q-14 14 -50.5 27.5t-76.5 13.5q-139 0 -205.5 -103t-66.5 -286v-1301q0 -40 1 -135.5t1 -110.5h-188q0 15 1 110.5t1 135.5v1301q0 258 115.5 407.5t340.5 149.5q120 0 199.5 -39.5t112.5 -87.5zM924 891
q0 -15 -1 -110.5t-1 -135.5v-850q0 -40 1 -135.5t1 -110.5h-189q0 15 1 110.5t1 135.5v850q0 40 -1 135.5t-1 110.5h189z" />
    <glyph glyph-name="longs_longs" unicode="&#x17f;&#x17f;" horiz-adv-x="1187" 
d="M922 1264v-1469q0 -40 1 -135.5t1 -110.5h-189q0 15 1 110.5t1 135.5v1469q0 83 25 153q-52 68 -152 68q-139 0 -205.5 -103t-66.5 -286v-1301q0 -40 1 -135.5t1 -110.5h-188q0 15 1 110.5t1 135.5v1301q0 259 115.5 408t340.5 149q165 0 262 -78q96 78 238 78v-180
q-82 0 -135 -56t-53 -153z" />
    <glyph glyph-name="longs_i" unicode="&#x17f;i" horiz-adv-x="1075" 
d="M922 1526v-56q0 -40 1 -135t1 -110h-189q0 14 1 95.5t1 123.5q-14 14 -50.5 27.5t-76.5 13.5q-139 0 -205.5 -103t-66.5 -286v-1301q0 -40 1 -135.5t1 -110.5h-188q0 15 1 110.5t1 135.5v1301q0 258 115.5 407.5t340.5 149.5q120 0 199.5 -39.5t112.5 -87.5zM924 891
q0 -15 -1 -110.5t-1 -135.5v-399q0 -40 1 -135.5t1 -110.5h-189q0 15 1 110.5t1 135.5v399q0 40 -1 135.5t-1 110.5h189z" />
    <glyph glyph-name="longs_l" unicode="&#x17f;l" horiz-adv-x="1075" 
d="M922 1526v-1280q0 -40 1 -135.5t1 -110.5h-189q0 15 1 110.5t1 135.5v1198q-14 14 -50.5 27.5t-76.5 13.5q-139 0 -205.5 -103t-66.5 -286v-1301q0 -40 1 -135.5t1 -110.5h-188q0 15 1 110.5t1 135.5v1301q0 258 115.5 407.5t340.5 149.5q120 0 199.5 -39.5t112.5 -87.5z
" />
    <glyph glyph-name="longs_longs_i" unicode="&#x17f;&#x17f;i" horiz-adv-x="1658" 
d="M1505 1526v-56q0 -40 1 -135t1 -110h-188q0 14 1 95.5t1 123.5q-14 14 -50.5 27.5t-76.5 13.5q-139 0 -205.5 -103t-66.5 -286v-1301q0 -40 1 -135.5t1 -110.5h-189q0 15 1 110.5t1 135.5v1301q0 163 45 282q-12 42 -57.5 74.5t-114.5 32.5q-139 0 -205.5 -103
t-66.5 -286v-1301q0 -40 1 -135.5t1 -110.5h-188q0 15 1 110.5t1 135.5v1301q0 259 115.5 408t340.5 149q103 0 176 -29.5t113 -71.5q119 101 295 101q120 0 199 -39t112 -88zM1507 891q0 -15 -1 -110.5t-1 -135.5v-399q0 -40 1 -135.5t1 -110.5h-188q0 15 1 110.5t1 135.5
v399q0 40 -1 135.5t-1 110.5h188z" />
    <glyph glyph-name="longs_longs_l" unicode="&#x17f;&#x17f;l" horiz-adv-x="1658" 
d="M1505 1526v-1280q0 -40 1 -135.5t1 -110.5h-188q0 15 1 110.5t1 135.5v1198q-14 14 -50.5 27.5t-76.5 13.5q-139 0 -205.5 -103t-66.5 -286v-1301q0 -40 1 -135.5t1 -110.5h-189q0 15 1 110.5t1 135.5v1301q0 163 45 282q-12 42 -57.5 74.5t-114.5 32.5
q-139 0 -205.5 -103t-66.5 -286v-1301q0 -40 1 -135.5t1 -110.5h-188q0 15 1 110.5t1 135.5v1301q0 259 115.5 408t340.5 149q103 0 176 -29.5t113 -71.5q119 101 295 101q120 0 199 -39t112 -88z" />
    <glyph glyph-name=".notdef" horiz-adv-x="1249" 
d="M100 1434h1049q0 -15 -1 -110.5t-1 -135.5v-942q0 -40 1 -135.5t1 -110.5h-1049q0 15 1 110.5t1 135.5v942q0 40 -1 135.5t-1 110.5zM195 1343v-1253h860v1253h-860z" />
    <glyph glyph-name=".null" horiz-adv-x="0" 
 />
    <glyph glyph-name="nonmarkingreturn" horiz-adv-x="682" 
 />
    <glyph glyph-name="space" unicode=" " horiz-adv-x="614" 
 />
    <glyph glyph-name="exclam" unicode="!" horiz-adv-x="466" 
d="M330 1434q0 -15 -1 -110.5t-1 -135.5v-615q0 -40 1 -135t1 -110h-189q0 15 1 110t1 135v615q0 40 -1 135.5t-1 110.5h189zM233 197q46 0 78.5 -32.5t32.5 -78.5t-32.5 -78.5t-78.5 -32.5t-78 32.5t-32 78.5t32 78.5t78 32.5z" />
    <glyph glyph-name="quotedbl" unicode="&#x22;" horiz-adv-x="516" 
d="M209 1628v-135q0 -98 -35 -174h-78q-35 76 -35 174v135h148zM455 1628v-135q0 -98 -35 -174h-78q-35 76 -35 174v135h148z" />
    <glyph glyph-name="numbersign" unicode="#" horiz-adv-x="1327" 
d="M1266 1079v-176q-14 0 -102 1t-130 1l-92 -340q42 0 116 1t85 1v-176q-15 0 -110.5 1t-135.5 1l-61 -227q-19 -67 -62 -238l-176 47q11 40 32.5 119t33.5 119l49 180h-260l-62 -227q-10 -36 -20.5 -76t-22 -88t-18.5 -74l-176 47q46 165 65 238l47 180q-42 0 -118 -1
t-87 -1v176q15 0 110.5 -1t135.5 -1h6l93 340q-43 0 -126.5 -1t-95.5 -1v176q15 0 110.5 -1t135.5 -1h21l57 209q11 40 61 238l176 -47q-11 -37 -32 -117t-33 -121l-45 -162h260l57 209q19 67 62 238l176 -47q-18 -61 -66 -238l-45 -162q41 0 109 1t78 1zM590 905l-92 -340
h260l92 340h-260z" />
    <glyph glyph-name="dollar" unicode="$" horiz-adv-x="970" 
d="M25 246l165 90q40 -70 101 -120.5t139 -61.5v546l-35 25q-54 37 -87.5 63t-73.5 65.5t-62 77t-37.5 89t-15.5 110.5q0 122 89 214.5t222 109.5q-2 63 -2 154h135q0 -9 -1 -65.5t-1 -92.5q98 -17 171.5 -68.5t137.5 -126.5l-149 -112q-78 102 -160 131v-438
q55 -40 85.5 -63t72.5 -58.5t64.5 -61t48.5 -61.5t39 -71t21.5 -79t8.5 -94q0 -140 -96 -239.5t-244 -124.5q0 -38 1 -98t1 -70h-135q0 95 2 161q-142 10 -243.5 85.5t-161.5 183.5zM707 348q0 81 -35 139t-111 119v-440q65 21 105.5 69.5t40.5 112.5zM309 1130
q0 -65 30 -110t91 -92v350q-55 -15 -88 -56.5t-33 -91.5z" />
    <glyph glyph-name="percent" unicode="%" horiz-adv-x="1097" 
d="M334 1495q115 0 195.5 -78t80.5 -188t-80.5 -188t-195.5 -78t-196 78t-81 188t81 188t196 78zM334 1360q-54 0 -91.5 -38.5t-37.5 -92.5t37.5 -92.5t91.5 -38.5t91.5 38.5t37.5 92.5t-37.5 92.5t-91.5 38.5zM928 1538l145 -82q-74 -122 -125 -211l-657 -1136
q-48 -79 -121 -213l-145 81q74 122 125 211l657 1137q48 79 121 213zM764 471q115 0 195.5 -78t80.5 -188t-80.5 -188t-195.5 -78t-196 78t-81 188t81 188t196 78zM764 336q-54 0 -91.5 -38.5t-37.5 -92.5t37.5 -92.5t91.5 -38.5t91.5 38.5t37.5 92.5t-37.5 92.5t-91.5 38.5
z" />
    <glyph glyph-name="ampersand" unicode="&#x26;" horiz-adv-x="1302" 
d="M1292 0h-221l-162 188l-6 -8q-27 -29 -49 -50t-65.5 -52.5t-86 -52t-104 -35.5t-127.5 -15q-113 0 -211 54t-156.5 147t-58.5 201q0 65 19.5 122t47 98t76.5 84.5t87 70t100 65.5l-2 4q-85 100 -124.5 171.5t-39.5 162.5q0 110 100 194.5t236 84.5q135 0 231 -82t96 -197
q0 -107 -64.5 -190.5t-189.5 -171.5l302 -355l170 183l124 -107l-188 -201zM471 135q54 0 103 15t89 42t63.5 47.5t51.5 49.5l25 26l-326 381q-45 -29 -64 -41.5t-54 -38t-50 -40.5t-37 -40.5t-31 -47t-16.5 -50.5t-7.5 -61q0 -101 74.5 -171.5t179.5 -70.5zM381 1155
q0 -46 32.5 -100.5t94.5 -128.5l12 -17q95 64 142 120t47 126q0 57 -48 96t-116 39q-69 0 -116.5 -40t-47.5 -95z" />
    <glyph glyph-name="quotesingle" unicode="'" horiz-adv-x="352" 
d="M250 1628v-135q0 -98 -35 -174h-78q-35 76 -35 174v135h148z" />
    <glyph glyph-name="parenleft" unicode="(" horiz-adv-x="491" 
d="M475 -250l-160 -65q-116 268 -176.5 510t-60.5 507t60.5 507.5t176.5 510.5l160 -65q-110 -256 -167.5 -482.5t-57.5 -470.5t57.5 -470t167.5 -482z" />
    <glyph glyph-name="parenright" unicode=")" horiz-adv-x="491" 
d="M176 -315l-160 65q111 257 168.5 482.5t57.5 469.5t-58 470t-168 483l160 65q116 -269 177 -511t61 -507t-61 -506.5t-177 -510.5z" />
    <glyph glyph-name="asterisk" unicode="*" horiz-adv-x="815" 
d="M356 1628h103l-2 -192q0 -54 -13 -76l7 -4q6 10 22 26t33 25l166 98l51 -88l-168 -96q-48 -25 -72 -25v-8q30 0 72 -22l168 -97l-51 -88l-166 99q-17 9 -33 25t-22 26l-7 -4q13 -22 13 -76l2 -193h-103l2 193q0 54 13 76l-6 4q-6 -9 -22.5 -25.5t-33.5 -25.5l-166 -99
l-51 88l168 97q42 22 72 22v8q-24 0 -72 25l-168 96l51 88l166 -98q17 -9 33.5 -25.5t22.5 -25.5l6 4q-13 22 -13 76z" />
    <glyph glyph-name="plus" unicode="+" horiz-adv-x="1097" 
d="M389 840h62v73q0 40 -1 135.5t-1 110.5h198q0 -15 -1 -110.5t-1 -135.5v-73h64q40 0 135 1t110 1v-176q-15 0 -110 1t-135 1h-64v-74q0 -40 1 -135.5t1 -110.5h-198q0 15 1 110.5t1 135.5v74h-62q-40 0 -135.5 -1t-110.5 -1v176q15 0 110.5 -1t135.5 -1z" />
    <glyph glyph-name="comma" unicode="," horiz-adv-x="454" 
d="M0 -322l188 535l172 -66l-243 -514z" />
    <glyph glyph-name="hyphen" unicode="-" horiz-adv-x="563" 
d="M61 580q7 0 55 -1t68 -1h195q20 0 68 1t55 1v-160q-7 0 -55 1t-68 1h-195q-20 0 -68 -1t-55 -1v160z" />
    <glyph glyph-name="period" unicode="." horiz-adv-x="466" 
d="M233 197q46 0 78.5 -32.5t32.5 -78.5t-32.5 -78.5t-78.5 -32.5t-78 32.5t-32 78.5t32 78.5t78 32.5z" />
    <glyph glyph-name="slash" unicode="/" horiz-adv-x="907" 
d="M686 1487l160 -68q-7 -19 -45 -106.5t-51 -118.5l-433 -1020q-83 -203 -94 -227l-162 69q7 18 46 105.5t53 120.5l432 1018q83 203 94 227z" />
    <glyph glyph-name="zero" unicode="0" horiz-adv-x="1097" 
d="M549 -25q-114 0 -210 58.5t-161 159t-101 236t-36 288.5t36 288.5t101 236t161 158.5t210 58t210 -58t161 -158.5t101 -236t36 -288.5t-36 -288.5t-101 -236t-161 -159t-210 -58.5zM549 147q104 0 180 76.5t114 204.5t38 289q0 162 -38 291t-114.5 207.5t-179.5 78.5
t-179.5 -78.5t-114.5 -207.5t-38 -291q0 -161 38 -289t114 -204.5t180 -76.5z" />
    <glyph glyph-name="one" unicode="1" horiz-adv-x="1097" 
d="M258 1266l98 168h320v-1188q0 -40 1 -135.5t1 -110.5h-189q0 15 1.5 110.5t1.5 135.5v1020h-234z" />
    <glyph glyph-name="two" unicode="2" horiz-adv-x="1097" 
d="M100 0l562 729q64 85 94 148t30 139q0 119 -73.5 194.5t-186.5 75.5q-108 0 -184 -73t-76 -177h-184q0 175 130 298.5t314 123.5q190 0 315.5 -125.5t125.5 -316.5q0 -106 -41.5 -192.5t-128.5 -198.5l-224 -289q-42 -55 -95.5 -112.5t-67.5 -63.5l2 -8q36 12 227 12h102
q40 0 137.5 1t112.5 1v-168q-15 0 -110.5 1t-135.5 1h-645z" />
    <glyph glyph-name="three" unicode="3" horiz-adv-x="1097" 
d="M532 1458q171 0 292.5 -114t121.5 -279q0 -235 -194 -301v-10q99 -18 167 -115.5t68 -232.5q0 -118 -55.5 -216t-158 -156.5t-232.5 -58.5q-186 0 -307.5 108t-139.5 273h172q24 -100 95.5 -158.5t179.5 -58.5q117 0 191.5 74.5t74.5 192.5q0 114 -68 191t-190 77h-45
v155h24q122 0 182 65.5t60 170.5q0 96 -69.5 162.5t-168.5 66.5t-166 -60t-67 -144h-176q0 152 118.5 260t290.5 108z" />
    <glyph glyph-name="four" unicode="4" horiz-adv-x="1097" 
d="M872 365q39 0 100.5 1t71.5 1v-164q-104 0 -172 2q0 -42 1 -118t1 -87h-167q0 11 1 87t1 118h-697l852 1274q1 -71 4.5 -298t3.5 -350v-466zM709 365v399q0 180 10 213l-8 4q-23 -58 -109 -184l-174 -260q-109 -164 -139 -179l4 -8q34 15 223 15h193z" />
    <glyph glyph-name="five" unicode="5" horiz-adv-x="1097" 
d="M168 680l223 754h314q40 0 135 1t110 1v-164q-15 0 -110 1t-135 1h-195l-57 -197q-20 -68 -54 -106l7 -6q30 18 114 18q130 0 240.5 -62t177 -175.5t66.5 -253.5q0 -141 -69 -260t-189 -188t-263 -69q-81 0 -156 22.5t-130 59t-93 74t-63 74.5l123 133q42 -82 126 -138.5
t193 -56.5q145 0 246.5 101t101.5 248q0 148 -100 246t-252 98q-98 0 -177.5 -43.5t-133.5 -112.5z" />
    <glyph glyph-name="six" unicode="6" horiz-adv-x="1097" 
d="M539 1434h198q-27 -42 -84 -126t-84 -126l-90 -138q-19 -29 -29.5 -43.5t-28 -32.5t-38.5 -34l4 -6q65 35 170 35q134 0 247.5 -65.5t180 -178t66.5 -244.5q0 -136 -67.5 -251t-183.5 -182t-253 -67t-252.5 67t-182.5 182t-67 251q0 114 37 212.5t108 207.5l244 375
q19 29 54 84.5t51 79.5zM229 475q0 -134 93 -228.5t225 -94.5t225.5 94.5t93.5 228.5t-93.5 229t-225.5 95t-225 -95t-93 -229z" />
    <glyph glyph-name="seven" unicode="7" horiz-adv-x="1097" 
d="M911 1120l-569 -952q-120 -204 -125 -211l-166 100q5 8 61 95.5t76 119.5l566 914q36 60 73 82l-4 8q-28 -14 -104 -14h-412q-40 0 -135.5 -1t-110.5 -1v176q15 0 110.5 -1t135.5 -1h791q-7 -11 -78.5 -132t-108.5 -182z" />
    <glyph glyph-name="eight" unicode="8" horiz-adv-x="1097" 
d="M549 1458q177 0 301.5 -115.5t124.5 -279.5q0 -113 -64 -202t-143 -109v-9q101 -27 171.5 -125t70.5 -221q0 -177 -130.5 -299.5t-330.5 -122.5t-330.5 122.5t-130.5 299.5q0 123 70.5 221t171.5 125v9q-79 20 -143 109t-64 202q0 164 124.5 279.5t301.5 115.5zM549 668
q-115 0 -196 -78t-81 -187t81 -186.5t196 -77.5t195.5 77.5t80.5 186.5t-80.5 187t-195.5 78zM549 819q104 0 179 71t75 171t-75 171t-179 71t-179 -71t-75 -171t75 -171t179 -71z" />
    <glyph glyph-name="nine" unicode="9" horiz-adv-x="1097" 
d="M74 983q0 97 37.5 184.5t101.5 151.5t151.5 101.5t184.5 37.5t184.5 -37.5t151.5 -101.5t101.5 -151.5t37.5 -184.5q0 -149 -86 -272l-408 -561q-85 -117 -141 -199l-137 100q108 146 145 197l140 192q22 30 37 44t53 42l-4 6q-31 -14 -78 -14q-198 0 -334.5 133.5
t-136.5 331.5zM254 983q0 -126 86.5 -214.5t208.5 -88.5t208.5 88.5t86.5 214.5t-86.5 214.5t-208.5 88.5t-208.5 -88.5t-86.5 -214.5z" />
    <glyph glyph-name="colon" unicode=":" horiz-adv-x="475" 
d="M238 700q46 0 78 -32t32 -78t-32 -78.5t-78 -32.5t-78.5 32.5t-32.5 78.5t32.5 78t78.5 32zM238 197q46 0 78 -32.5t32 -78.5t-32 -78.5t-78 -32.5t-78.5 32.5t-32.5 78.5t32.5 78.5t78.5 32.5z" />
    <glyph glyph-name="semicolon" unicode=";" horiz-adv-x="454" 
d="M188 213l-188 -535l117 -45l243 514zM268 647q46 0 78.5 -32t32.5 -78t-32.5 -78.5t-78.5 -32.5t-78 32.5t-32 78.5t32 78t78 32z" />
    <glyph glyph-name="less" unicode="&#x3c;" horiz-adv-x="1097" 
d="M629 463l-473 272l473 275q212 124 213 125l88 -152q-19 -11 -105.5 -60t-107.5 -61l-131 -76q-77 -42 -109 -47v-8q55 -16 109 -47l129 -74q21 -12 107.5 -61t105.5 -60l-86 -151q-1 1 -213 125z" />
    <glyph glyph-name="equal" unicode="=" horiz-adv-x="1097" 
d="M389 655h320q40 0 135 1t110 1v-176q-15 0 -110 1t-135 1h-320q-40 0 -135.5 -1t-110.5 -1v176q15 0 110.5 -1t135.5 -1zM389 1024h320q40 0 135 1t110 1v-176q-15 0 -110 1t-135 1h-320q-40 0 -135.5 -1t-110.5 -1v176q15 0 110.5 -1t135.5 -1z" />
    <glyph glyph-name="greater" unicode="&#x3e;" horiz-adv-x="1097" 
d="M942 735l-473 -272q-212 -124 -213 -125l-86 151q19 11 105.5 60t107.5 61l129 74q54 31 109 47v8q-32 5 -109 47l-131 76q-21 12 -107.5 61t-105.5 60l88 152q1 -1 213 -125z" />
    <glyph glyph-name="question" unicode="?" horiz-adv-x="765" 
d="M537 633l157 -8q-8 -133 -89.5 -219.5t-217.5 -86.5q-125 0 -216 86.5t-91 204.5q0 69 24 123t69.5 90.5t92 59.5t109.5 43q89 28 133.5 67t44.5 113q0 68 -47.5 116t-116.5 48q-87 0 -132.5 -61.5t-47.5 -145.5l-160 4q2 68 22 130t59.5 114t106 83t152.5 31
q134 0 231 -94.5t97 -224.5q0 -72 -21 -127t-62.5 -93t-90.5 -63.5t-117 -46.5q-39 -13 -66.5 -25.5t-56.5 -32t-44 -47t-15 -61.5q0 -55 42 -95t101 -40q65 0 105 44.5t45 113.5zM383 197q46 0 78.5 -32.5t32.5 -78.5t-32.5 -78.5t-78.5 -32.5t-78.5 32.5t-32.5 78.5
t32.5 78.5t78.5 32.5z" />
    <glyph glyph-name="at" unicode="@" horiz-adv-x="1904" 
d="M1415 842l-63 -518q-5 -41 15 -70t58 -29q108 0 182 107t74 303q0 186 -79.5 333.5t-231 232.5t-350.5 85q-161 0 -308 -64t-253 -172t-169 -257t-63 -312q0 -232 100.5 -411.5t275 -276t392.5 -96.5q276 0 537 96l33 -168q-261 -100 -570 -100q-282 0 -499.5 123.5
t-335 340.5t-117.5 492q0 203 79 385t212 311.5t313.5 205t376.5 75.5q187 0 345 -62.5t267 -171.5t169.5 -261t60.5 -328q0 -136 -34.5 -247.5t-94.5 -184t-139.5 -111.5t-170.5 -39q-92 0 -139.5 40t-52.5 104l-8 2q-17 -23 -44 -45t-68.5 -46.5t-103 -39.5t-130.5 -15
q-172 0 -280.5 105t-108.5 288q0 231 153.5 389t382.5 158q71 0 133.5 -14t111.5 -40t79 -47t63 -50zM1223 758q-90 67 -207 67q-143 0 -241.5 -103.5t-98.5 -252.5q0 -111 63 -177.5t170 -66.5q156 0 262 121z" />
    <glyph glyph-name="A" unicode="A" 
d="M1151 143l-27 58h-764l-24 -58q-49 -106 -64 -143h-211q5 11 26 55.5t42.5 91.5t34.5 76l571 1288l588 -1288q13 -31 54 -117.5t48 -105.5h-211q-23 56 -63 143zM504 381h473q54 0 72 -12l4 8q-12 6 -33 53l-227 498q-52 112 -52 153h-8q0 -42 -49 -153l-221 -498
q-19 -45 -35 -53l4 -8q4 4 25.5 8t46.5 4z" />
    <glyph glyph-name="B" unicode="B" horiz-adv-x="1064" 
d="M102 0v1434h418q160 0 273.5 -112.5t113.5 -272.5q0 -98 -43.5 -173t-115.5 -104v-8q97 -25 166 -124t69 -224q0 -172 -122 -294t-294 -122h-465zM551 655h-254v-475h254q98 0 167.5 69.5t69.5 166.5q0 100 -69.5 169.5t-167.5 69.5zM719 1049q0 91 -64 154t-155 63h-203
v-439h203q91 0 155 65t64 157z" />
    <glyph glyph-name="C" unicode="C" 
d="M1296 338l131 -133q-111 -116 -263 -181t-324 -65q-154 0 -294.5 60t-242 161.5t-161.5 242t-60 294.5t60 294.5t161.5 242t242 161.5t294.5 60q167 0 315 -68.5t254 -189.5l-139 -127q-78 95 -190.5 149.5t-239.5 54.5q-115 0 -219 -45.5t-180 -123t-120.5 -184.5
t-44.5 -224q0 -157 75.5 -290t205.5 -210.5t283 -77.5q134 0 252.5 53t203.5 146z" />
    <glyph glyph-name="D" unicode="D" horiz-adv-x="1320" 
d="M102 0v1434h400q150 0 286.5 -57t235.5 -153t157 -228.5t58 -278.5t-55 -278.5t-148 -228.5t-222 -153t-271 -57h-441zM467 1257h-170v-1077h213q145 0 268 72t194.5 195.5t71.5 269.5q0 110 -45.5 210t-123 172.5t-184 115t-224.5 42.5z" />
    <glyph glyph-name="E" unicode="E" horiz-adv-x="956" 
d="M102 0v1434h476q40 0 135 1t110 1v-185q-15 0 -110 1t-135 1h-281v-376h180q40 0 135.5 1t110.5 1v-189q-15 0 -110.5 1t-135.5 1h-180v-504h321q40 0 135.5 1t110.5 1v-192q-15 0 -110.5 1t-135.5 1h-516z" />
    <glyph glyph-name="F" unicode="F" horiz-adv-x="870" 
d="M102 246v1188h459q40 0 135.5 1t110.5 1v-181q-15 0 -110.5 1t-135.5 1h-264v-380h158q40 0 135 1t110 1v-185q-15 0 -110 1t-135 1h-158v-450q0 -40 1 -135.5t1 -110.5h-199q0 15 1 110.5t1 135.5z" />
    <glyph glyph-name="G" unicode="G" horiz-adv-x="1570" 
d="M1241 455h-178q-40 0 -135.5 -1t-110.5 -1v184q15 0 110.5 -1t135.5 -1h432q4 -46 4 -70q0 -164 -88 -303.5t-240 -221t-331 -81.5q-154 0 -294.5 60t-242 161.5t-161.5 242t-60 294.5t60 294.5t161.5 242t242 161.5t294.5 60q175 0 327.5 -78.5t255.5 -216.5l-143 -125
q-75 111 -191 175t-249 64q-115 0 -219 -45.5t-180 -123t-120.5 -184.5t-44.5 -224q0 -157 75.5 -290t205.5 -210.5t283 -77.5q143 0 265 74t167 184q18 48 39 62l-6 8q-18 -12 -64 -12z" />
    <glyph glyph-name="H" unicode="H" horiz-adv-x="1277" 
d="M1176 1188v-942q0 -40 1 -135.5t1 -110.5h-199q0 15 1 110.5t1 135.5v440h-684v-440q0 -40 1 -135.5t1 -110.5h-199q0 15 1 110.5t1 135.5v942q0 40 -1 135.5t-1 110.5h199q0 -15 -1 -110.5t-1 -135.5v-322h684v322q0 40 -1 135.5t-1 110.5h199q0 -15 -1 -110.5
t-1 -135.5z" />
    <glyph glyph-name="I" unicode="I" horiz-adv-x="481" 
d="M141 1434h199q0 -15 -1 -110.5t-1 -135.5v-942q0 -40 1 -135.5t1 -110.5h-199q0 15 1 110.5t1 135.5v942q0 40 -1 135.5t-1 110.5z" />
    <glyph glyph-name="J" unicode="J" horiz-adv-x="768" 
d="M16 23l82 153q57 -45 133 -45q83 0 141 62.5t58 150.5v844q0 40 -1 135.5t-1 110.5h199q0 -15 -1 -110.5t-1 -135.5v-836q0 -163 -115.5 -278t-278.5 -115q-120 0 -215 64z" />
    <glyph glyph-name="K" unicode="K" horiz-adv-x="1187" 
d="M1147 1434l-252 -242l-401 -393l436 -541l213 -258h-252q-13 15 -51.5 64t-59.5 75l-422 527l-61 -60v-360q0 -40 1 -135.5t1 -110.5h-199q0 15 1 110.5t1 135.5v942q0 40 -1 135.5t-1 110.5h199q0 -15 -1 -110.5t-1 -135.5v-195q0 -50 -4.5 -100.5t-9.5 -61.5l8 -4
q2 4 10.5 16.5t34 42t57.5 60.5l379 371q30 29 70.5 71t44.5 46h260z" />
    <glyph glyph-name="L" unicode="L" horiz-adv-x="780" 
d="M102 0v1188q0 40 -1 135.5t-1 110.5h199q0 -15 -1 -110.5t-1 -135.5v-1008h197q40 0 135 1t110 1v-184q-15 0 -110 1t-135 1h-392z" />
    <glyph glyph-name="M" unicode="M" horiz-adv-x="1652" 
d="M322 1495l421 -920q34 -76 56 -141.5t24 -85.5h8q2 18 26.5 87t55.5 140l408 920l252 -1253l47 -242h-197q-6 34 -17 102.5t-17 102.5l-105 547q-10 55 -15 115.5t-3 78.5l-9 2q-13 -59 -75 -198l-357 -799l-354 805q-60 134 -74 198l-8 -2q2 -23 -27 -190l-102 -559
l-35 -203h-196q37 172 49 240z" />
    <glyph glyph-name="N" unicode="N" horiz-adv-x="1476" 
d="M1374 -57l-921 931q-126 131 -164 183l-6 -4q14 -70 14 -152v-655q0 -40 1 -135.5t1 -110.5h-199q0 15 1 110.5t1 135.5v1245l922 -932q129 -133 164 -182l6 4q-14 70 -14 151v656q0 40 -1 135.5t-1 110.5h198q0 -15 -1 -110.5t-1 -135.5v-1245z" />
    <glyph glyph-name="O" unicode="O" horiz-adv-x="1679" 
d="M840 1475q154 0 294 -60t241.5 -161.5t161.5 -242t60 -294.5t-60 -294.5t-161.5 -242t-241.5 -161.5t-294 -60t-294.5 60t-242 161.5t-161.5 242t-60 294.5t60 294.5t161.5 242t242 161.5t294.5 60zM840 1294q-115 0 -219 -45.5t-180 -123t-120.5 -184.5t-44.5 -224
q0 -157 75.5 -290t205.5 -210.5t283 -77.5t282.5 77.5t205 210.5t75.5 290t-75.5 290t-205 210t-282.5 77z" />
    <glyph glyph-name="P" unicode="P" horiz-adv-x="962" 
d="M492 586h-195v-340q0 -40 1 -135.5t1 -110.5h-199q0 15 1 110.5t1 135.5v1188h390q179 0 304.5 -124.5t125.5 -301.5q0 -175 -126 -298.5t-304 -123.5zM297 758h186q103 0 176.5 73.5t73.5 176.5q0 107 -73.5 182.5t-176.5 75.5h-186v-508z" />
    <glyph glyph-name="Q" unicode="Q" horiz-adv-x="1679" 
d="M1581 123v-180q-174 0 -371 112q-175 -96 -370 -96q-154 0 -294.5 60t-242 161.5t-161.5 242t-60 294.5t60 294.5t161.5 242t242 161.5t294.5 60t294 -60t241.5 -161.5t161.5 -242t60 -294.5q0 -155 -60.5 -295.5t-166.5 -245.5q109 -53 211 -53zM840 1294
q-115 0 -219 -45.5t-180 -123t-120.5 -184.5t-44.5 -224q0 -157 75.5 -290t205.5 -210.5t283 -77.5q92 0 172 27q-32 20 -97 33q-82 14 -157 14v180q247 0 444 -119q94 81 147.5 196.5t53.5 246.5q0 157 -75.5 290t-205 210t-282.5 77z" />
    <glyph glyph-name="R" unicode="R" horiz-adv-x="1007" 
d="M762 0q-69 155 -82 182l-215 457h-168v-393q0 -40 1 -135.5t1 -110.5h-199q0 15 1 110.5t1 135.5v1188h426q176 0 287 -115t111 -283q0 -136 -75 -239.5t-196 -132.5l-2 -5q19 -19 35 -55l180 -383l107 -221h-213zM504 1266h-207v-455h207q105 0 166 65t61 162
q0 98 -61 163t-166 65z" />
    <glyph glyph-name="S" unicode="S" horiz-adv-x="970" 
d="M25 246l165 90q45 -79 117 -131.5t164 -52.5q108 0 172 56.5t64 143.5q0 43 -15 84t-35.5 70.5t-59 64.5t-66.5 56.5t-78 56.5q-140 99 -193 149q-141 132 -141 289q0 147 101 241.5t263 94.5q128 0 220 -56.5t167 -146.5l-149 -112q-104 143 -238 143q-81 0 -126.5 -45
t-45.5 -111q0 -41 17 -78t51 -70t69 -59.5t88 -63.5q7 -4 10.5 -6.5t9.5 -7t11 -7.5q60 -42 97.5 -70.5t87.5 -76t78.5 -91t49.5 -104.5t21 -127q0 -175 -117 -284.5t-313 -109.5q-82 0 -154.5 23t-127 63t-94.5 86t-70 99z" />
    <glyph glyph-name="T" unicode="T" horiz-adv-x="911" 
d="M883 1436v-185q-15 0 -110.5 1t-135.5 1h-84v-1007q0 -40 1 -135.5t1 -110.5h-199q0 15 1 110.5t1 135.5v1007h-84q-40 0 -135 -1t-110 -1v185q15 0 110 -1t135 -1h363q40 0 135.5 1t110.5 1z" />
    <glyph glyph-name="U" unicode="U" horiz-adv-x="1269" 
d="M299 1434q0 -15 -1 -110.5t-1 -135.5v-696q0 -179 74 -256q99 -105 301 -105q108 0 186.5 24.5t114.5 57.5v975q0 40 -1 135.5t-1 110.5h198q0 -15 -1 -110.5t-1 -135.5v-1053q-53 -73 -181 -124.5t-314 -51.5q-306 0 -451 154q-60 63 -89.5 142.5t-29.5 195.5v737
q0 40 -1 135.5t-1 110.5h199z" />
    <glyph glyph-name="V" unicode="V" horiz-adv-x="1355" 
d="M692 -61l-534 1228q-92 208 -117 267h211q11 -30 80 -191l293 -674q21 -48 40 -113t21 -87h8q2 23 18 82.5t40 117.5l280 676q40 93 76 189h207q-7 -19 -52.5 -124t-58.5 -136z" />
    <glyph glyph-name="W" unicode="W" horiz-adv-x="2048" 
d="M1022 1016q-2 -18 -21 -84.5t-40 -120.5l-332 -872l-500 1232q-14 34 -58 139.5t-51 123.5h209q13 -31 38 -97t40 -100l258 -639q18 -45 36 -115t20 -90h8q2 24 17.5 84t39.5 121l338 877l334 -877q56 -144 61 -205h8q2 17 22.5 87.5t39.5 117.5l260 639q15 34 40 100
t38 97h201q-7 -18 -51 -123.5t-58 -139.5l-500 -1232l-332 872q-21 54 -40 120.5t-21 84.5h-4z" />
    <glyph glyph-name="X" unicode="X" horiz-adv-x="1200" 
d="M535 465l-183 -305q-47 -77 -92 -160h-227q17 27 75 119t87 141l297 488l-263 430q-13 22 -50.5 82.5t-68 110t-38.5 63.5h225q41 -72 92 -156l146 -244q44 -72 61 -141h8q0 5 7.5 26t22.5 54t32 61l145 244q17 27 48 81t44 75h225q-8 -14 -38.5 -63.5t-68 -110
t-50.5 -82.5l-262 -430l297 -488q30 -50 90 -146t71 -114h-227q-45 83 -92 160l-182 305q-26 44 -44 87.5t-18 53.5h-8q-1 -7 -7.5 -25.5t-21 -52t-32.5 -63.5z" />
    <glyph glyph-name="Y" unicode="Y" horiz-adv-x="1220" 
d="M522 0q0 15 1 110.5t1 135.5v377l-325 555q-12 20 -50 82t-68 110.5t-38 63.5h221q13 -22 42.5 -75t47.5 -83l193 -328q26 -44 45.5 -87.5t19.5 -53.5h9q0 20 67 141l186 330q17 30 46.5 83t40.5 73h217q-52 -87 -146 -252l-313 -553v-383q0 -40 1 -135.5t1 -110.5h-199z
" />
    <glyph glyph-name="Z" unicode="Z" horiz-adv-x="1126" 
d="M537 160h268q40 0 135.5 1t110.5 1v-164q-15 0 -110.5 1t-135.5 1h-764l635 1104q43 74 79 120.5t50 53.5l-4 8q-27 -12 -219 -12h-181q-40 0 -135 -1t-110 -1v164q15 0 110 -1t135 -1h676l-633 -1104q-35 -59 -76 -113.5t-55 -60.5l4 -9q30 13 220 13z" />
    <glyph glyph-name="bracketleft" unicode="[" horiz-adv-x="593" 
d="M102 -41v1516h240q40 0 84 1t59 1v-185q-15 0 -59 1t-84 1h-55v-1155h75q40 0 84.5 1t59.5 1v-184q-15 0 -59.5 1t-84.5 1h-260z" />
    <glyph glyph-name="backslash" unicode="\" horiz-adv-x="907" 
d="M61 1419l160 68q11 -24 94 -227l433 -1018q13 -33 52 -120t46 -106l-162 -69q-11 24 -94 227l-432 1020q-13 32 -51.5 119t-45.5 106z" />
    <glyph glyph-name="bracketright" unicode="]" horiz-adv-x="593" 
d="M492 1475v-1516h-261q-40 0 -84 -1t-59 -1v184q15 0 59 -1t84 -1h76v1155h-55q-40 0 -84 -1t-59 -1v185q15 0 59 -1t84 -1h240z" />
    <glyph glyph-name="asciicircum" unicode="^" horiz-adv-x="978" 
d="M485 862q-6 -34 -102 -168l-25 -32q-25 -33 -79 -111t-62 -88l-127 92q50 72 146 199l253 348l254 -348q96 -127 146 -199l-127 -92q-8 10 -62 88t-79 111l-25 32q-96 134 -102 168h-9z" />
    <glyph glyph-name="underscore" unicode="_" horiz-adv-x="1208" 
d="M348 -86h512q40 0 135.5 1t110.5 1v-176q-15 0 -110.5 1t-135.5 1h-512q-40 0 -135.5 -1t-110.5 -1v176q15 0 110.5 -1t135.5 -1z" />
    <glyph glyph-name="grave" unicode="`" horiz-adv-x="655" 
d="M528 1137l-84 -66l-327 283l166 92z" />
    <glyph glyph-name="a" unicode="a" horiz-adv-x="999" 
d="M483 -25q-177 0 -285 94t-108 246q0 141 103.5 224.5t257.5 83.5q78 0 139 -26.5t94 -68.5l8 4q-14 43 -18 84q-6 61 -59.5 96.5t-122.5 35.5q-115 0 -240 -72l-74 153q158 86 314 86q106 0 193.5 -41.5t133.5 -121.5q37 -64 37 -162v-500q-63 -44 -164 -79.5t-209 -35.5
zM483 139q54 0 107 16.5t82 37.5v174q-24 38 -82.5 71t-138.5 33q-76 0 -130.5 -43t-54.5 -113q0 -82 58.5 -129t158.5 -47z" />
    <glyph glyph-name="b" unicode="b" horiz-adv-x="1136" 
d="M152 1628h188q0 -15 -1 -110.5t-1 -135.5v-458q0 -67 -10 -90l8 -5q89 86 256 86q196 0 319 -129t123 -335t-132.5 -341t-342.5 -135q-220 0 -405 152v1255q0 40 -1 135.5t-1 110.5zM338 623v-410q39 -26 98 -46t123 -20q128 0 209.5 86t81.5 218q0 130 -73.5 211
t-192.5 81q-89 0 -152 -37.5t-94 -82.5z" />
    <glyph glyph-name="c" unicode="c" horiz-adv-x="978" 
d="M532 915q121 0 214 -56t147 -134l-141 -111q-37 59 -94 94t-126 35q-110 0 -188 -87.5t-78 -211.5q0 -123 78 -210t188 -87q152 0 246 132l131 -123q-156 -181 -377 -181q-122 0 -225.5 63t-164 171t-60.5 235q0 195 132 333t318 138z" />
    <glyph glyph-name="d" unicode="d" horiz-adv-x="1136" 
d="M797 1628h188q0 -15 -1 -110.5t-1 -135.5v-1255q-185 -152 -405 -152q-210 0 -343 135t-133 341t123.5 335t319.5 129q167 0 256 -86l8 5q-10 23 -10 90v458q0 40 -1 135.5t-1 110.5zM799 213v410q-31 45 -94 82.5t-152 37.5q-119 0 -192.5 -81t-73.5 -211
q0 -132 81.5 -218t209.5 -86q64 0 123 20t98 46z" />
    <glyph glyph-name="e" unicode="e" horiz-adv-x="1040" 
d="M942 418h-674q14 -126 86.5 -200.5t194.5 -74.5q76 0 145 35.5t117 97.5l127 -120q-71 -80 -171 -130.5t-218 -50.5q-113 0 -203 38.5t-147 104.5t-87 153t-30 186q0 199 121.5 328.5t312.5 129.5q103 0 187 -40t135.5 -105.5t78.5 -145.5t27 -165q0 -27 -2 -41zM516 756
q-88 0 -150 -48.5t-87 -134.5h471q-10 69 -73.5 126t-160.5 57z" />
    <glyph glyph-name="f" unicode="f" horiz-adv-x="604" 
d="M338 891q34 0 93 1t67 1v-184q-12 0 -80 1t-80 1v-916q0 -40 1 -135.5t1 -110.5h-188q0 15 1 110.5t1 135.5v1469q0 181 105 285t267 104v-180q-82 0 -135 -56t-53 -153v-373z" />
    <glyph glyph-name="g" unicode="g" horiz-adv-x="1136" 
d="M799 -82v49q0 67 10 90l-8 4q-89 -86 -256 -86q-93 0 -173 31.5t-140.5 90t-95 149.5t-34.5 203q0 207 130.5 336.5t336.5 129.5q75 0 141.5 -14t118 -39.5t85.5 -48t69 -51.5v-844q0 -199 -122.5 -296t-342.5 -97q-221 0 -366 110l104 140q105 -86 262 -86
q134 0 207.5 56.5t73.5 172.5zM799 274v394q-104 75 -230 75q-125 0 -203.5 -85t-78.5 -209q0 -132 71.5 -217t202.5 -85q81 0 142.5 37.5t95.5 89.5z" />
    <glyph glyph-name="h" unicode="h" horiz-adv-x="1079" 
d="M340 1628q0 -15 -1 -110.5t-1 -135.5v-383q0 -123 -23 -188l9 -4q100 108 262 108q155 0 253.5 -89t98.5 -240v-340q0 -40 1 -135.5t1 -110.5h-188q0 15 1 110.5t1 135.5v307q0 55 -17 96t-46.5 63.5t-63.5 33t-74 10.5q-105 0 -160 -67t-55 -193v-250q0 -40 1 -135.5
t1 -110.5h-188q0 15 1 110.5t1 135.5v1136q0 40 -1 135.5t-1 110.5h188z" />
    <glyph glyph-name="i" unicode="i" horiz-adv-x="512" 
d="M348 1339v-159q0 -12 -27.5 -22.5t-64.5 -10.5t-64.5 10.5t-27.5 22.5v159q0 12 28.5 22.5t65.5 10.5q36 0 63 -10.5t27 -22.5zM350 891q0 -15 -1 -110.5t-1 -135.5v-399q0 -40 1 -135.5t1 -110.5h-188q0 15 1 110.5t1 135.5v399q0 40 -1 135.5t-1 110.5h188z" />
    <glyph glyph-name="j" unicode="j" horiz-adv-x="512" 
d="M348 1339v-159q0 -12 -27.5 -22.5t-64.5 -10.5t-64.5 10.5t-27.5 22.5v159q0 12 28.5 22.5t65.5 10.5q36 0 63 -10.5t27 -22.5zM350 891q0 -15 -1 -110.5t-1 -135.5v-850q0 -40 1 -135.5t1 -110.5h-188q0 15 1 110.5t1 135.5v850q0 40 -1 135.5t-1 110.5h188z" />
    <glyph glyph-name="k" unicode="k" horiz-adv-x="983" 
d="M668 891h243q-123 -117 -229 -223l-160 -158l217 -264q38 -46 203 -246h-235q-56 73 -107 135l-209 262l-53 -39v-112q0 -40 1 -135.5t1 -110.5h-188q0 15 1 110.5t1 135.5v1136q0 40 -1 135.5t-1 110.5h188q0 -15 -1 -110.5t-1 -135.5v-616q0 -197 -12 -225l8 -4
q21 35 147 161l74 74q2 2 113 119z" />
    <glyph glyph-name="l" unicode="l" horiz-adv-x="512" 
d="M162 1628h188q0 -15 -1 -110.5t-1 -135.5v-1136q0 -40 1 -135.5t1 -110.5h-188q0 15 1 110.5t1 135.5v1136q0 40 -1 135.5t-1 110.5z" />
    <glyph glyph-name="m" unicode="m" horiz-adv-x="1628" 
d="M328 891q-4 -96 -11 -117l9 -4q81 145 266 145q94 0 160.5 -39.5t101.5 -101.5q92 141 291 141q161 0 250.5 -96t89.5 -254v-319q0 -40 1 -135.5t1 -110.5h-189q0 15 1 110.5t1 135.5v266q0 117 -30 168q-47 80 -148 80q-96 0 -154.5 -65t-58.5 -199v-250q0 -40 1 -135.5
t1 -110.5h-188q0 15 1 110.5t1 135.5v266q0 121 -37 174q-51 74 -141 74q-93 0 -151 -71t-58 -193v-250q0 -40 1 -135.5t1 -110.5h-188q0 15 1 110.5t1 135.5v399q0 40 -1 135.5t-1 110.5h176z" />
    <glyph glyph-name="n" unicode="n" horiz-adv-x="1077" 
d="M336 891q-4 -100 -10 -117l8 -4q26 62 98.5 103.5t169.5 41.5q158 0 245 -91t87 -253v-325q0 -40 1 -135.5t1 -110.5h-188q0 15 1 110.5t1 135.5v286q0 116 -52.5 172t-136.5 56q-93 0 -158 -65t-65 -175v-274q0 -40 1 -135.5t1 -110.5h-188q0 15 1 110.5t1 135.5v399
q0 40 -1 135.5t-1 110.5h184z" />
    <glyph glyph-name="o" unicode="o" horiz-adv-x="1103" 
d="M551 743q-119 0 -202 -87.5t-83 -211.5q0 -123 83.5 -210t201.5 -87q119 0 203 87t84 210q0 124 -84 211.5t-203 87.5zM551 915q195 0 333 -138t138 -333q0 -128 -63 -236t-171.5 -170.5t-236.5 -62.5q-195 0 -332 137t-137 332q0 128 62.5 236.5t170.5 171.5t236 63z
" />
    <glyph glyph-name="p" unicode="p" horiz-adv-x="1136" 
d="M340 -451h-188q0 15 1 110.5t1 135.5v969q184 151 405 151q210 0 342.5 -134.5t132.5 -340.5t-123 -335.5t-319 -129.5q-167 0 -256 86l-8 -4q10 -23 10 -90v-172q0 -40 1 -135.5t1 -110.5zM338 678v-410q31 -45 94 -83t152 -38q118 0 192 81t74 212t-81.5 217t-209.5 86
q-64 0 -123.5 -19.5t-97.5 -45.5z" />
    <glyph glyph-name="q" unicode="q" horiz-adv-x="1136" 
d="M985 -451h-188q0 15 1 110.5t1 135.5v172q0 67 10 90l-8 4q-89 -86 -256 -86q-196 0 -319.5 129.5t-123.5 335.5t133 340.5t343 134.5q221 0 405 -151v-969q0 -40 1 -135.5t1 -110.5zM799 268v410q-38 26 -97.5 45.5t-123.5 19.5q-128 0 -209.5 -86t-81.5 -217t74 -212
t192 -81q89 0 152 38t94 83z" />
    <glyph glyph-name="r" unicode="r" horiz-adv-x="747" 
d="M713 858l-103 -158q-37 37 -90 37q-79 0 -130.5 -62.5t-51.5 -142.5v-286q0 -40 1 -135.5t1 -110.5h-188q0 15 1 110.5t1 135.5v399q0 40 -1 135.5t-1 110.5h182q0 -88 -6 -115l10 -4q22 50 84.5 93.5t138.5 43.5q48 0 92 -15.5t60 -35.5z" />
    <glyph glyph-name="s" unicode="s" horiz-adv-x="806" 
d="M649 809l-98 -121q-76 76 -154 76q-40 0 -65 -19.5t-25 -52.5q0 -17 7.5 -32.5t28 -32t32 -24.5t44 -26.5t40.5 -23.5q33 -21 39 -24.5t36.5 -23.5t38 -27.5t31.5 -28t32 -33t23.5 -34.5t21 -41t10.5 -44.5t5 -52.5q0 -110 -84 -189.5t-227 -79.5q-99 0 -179.5 36.5
t-164.5 107.5l117 133q125 -109 227 -109q54 0 90.5 30t36.5 71q0 22 -11.5 43t-37.5 42.5t-45.5 34.5t-57.5 37q-45 27 -69.5 43t-60 45.5t-53.5 56t-32 65t-14 81.5q0 90 73.5 156.5t192.5 66.5q134 0 252 -106z" />
    <glyph glyph-name="t" unicode="t" horiz-adv-x="559" 
d="M340 1198q0 -15 -1 -110.5t-1 -135.5v-61q34 0 84.5 1t58.5 1v-184q-13 0 -72 1t-71 1v-465q0 -40 1 -135.5t1 -110.5h-188q0 15 1 110.5t1 135.5v706q0 40 -1 135.5t-1 110.5h188z" />
    <glyph glyph-name="u" unicode="u" horiz-adv-x="1044" 
d="M924 891q0 -15 -1 -110.5t-1 -135.5v-561q-51 -44 -152.5 -76.5t-224.5 -32.5q-215 0 -318.5 94t-103.5 253v323q0 40 -1 135.5t-1 110.5h188q0 -15 -1 -110.5t-1 -135.5v-293q0 -213 238 -213q100 0 192 41v465q0 40 -1 135.5t-1 110.5h189z" />
    <glyph glyph-name="v" unicode="v" horiz-adv-x="942" 
d="M471 -33l-326 666q-39 83 -129 258h195q15 -30 45 -93t45 -93l94 -197q26 -54 48 -119.5t24 -85.5h8q2 20 24 85.5t48 119.5l94 197q10 21 41 86t49 100h195q-90 -175 -129 -258z" />
    <glyph glyph-name="w" unicode="w" 
d="M739 571h-8q0 -38 -69 -204l-179 -428l-338 694q-24 48 -66 131t-63 127h197q31 -70 88 -186l94 -197q26 -54 48 -119.5t24 -85.5h8q4 43 70 205l184 442l199 -452q22 -51 47 -120t26 -85h9q2 20 24.5 87.5t48.5 121.5l99 203q14 30 44 92.5t44 93.5h196l-129 -258
l-333 -684l-189 418q-29 62 -51.5 123.5t-24.5 80.5z" />
    <glyph glyph-name="x" unicode="x" horiz-adv-x="1013" 
d="M950 891q-8 -9 -50 -61t-85 -105t-63 -78l-129 -160l178 -227q96 -118 209 -260h-232q-9 11 -47.5 62.5t-64.5 82.5l-31 39q-55 69 -88 125t-35 76h-8q-2 -20 -37.5 -78t-87.5 -123l-29 -37q-22 -27 -62.5 -81l-49.5 -66h-234q202 246 215 262l182 225l-122 156
q-15 20 -61.5 78.5t-85 107t-48.5 62.5h227l76 -100q108 -140 121 -201h8q1 17 43.5 83.5t83.5 117.5l82 100h225z" />
    <glyph glyph-name="y" unicode="y" horiz-adv-x="1024" 
d="M1012 891q-23 -44 -69 -133t-69 -133l-446 -897q-16 -31 -45.5 -92t-42.5 -87h-197q39 86 131 261l168 335l-278 484q-13 22 -49 83.5t-65.5 112.5t-37.5 66h207q11 -17 44.5 -78.5t49.5 -89.5l133 -236q31 -54 55.5 -110.5t26.5 -75.5h9q2 16 25.5 75.5t49.5 110.5
l111 222q19 36 50.5 103t37.5 79h201z" />
    <glyph glyph-name="z" unicode="z" horiz-adv-x="989" 
d="M487 152h187q40 0 135.5 1t110.5 1v-156q-15 0 -110.5 1t-135.5 1h-643l520 647q59 74 108 98l-2 9q-33 -11 -157 -11h-125q-40 0 -135.5 -1t-110.5 -1v152q15 0 110.5 -1t135.5 -1h583l-522 -643q-64 -79 -108 -98l2 -9q33 11 157 11z" />
    <glyph glyph-name="braceleft" unicode="{" horiz-adv-x="583" 
d="M260 725q150 -26 150 -303v-316q0 -55 22 -80.5t74 -25.5h18v-172h-86q-213 0 -213 266v289q0 40 -2 68.5t-10.5 66t-24 61t-45 42.5t-71.5 22v172q42 3 71.5 22t45 42.5t24 61t10.5 66t2 68.5v264q0 267 213 267h86v-172h-18q-51 0 -73.5 -26t-22.5 -81v-291
q0 -277 -150 -303v-8z" />
    <glyph glyph-name="bar" unicode="|" horiz-adv-x="499" 
d="M162 1669h176q0 -15 -1 -110.5t-1 -135.5v-1382q0 -40 1 -135.5t1 -110.5h-176q0 15 1 110.5t1 135.5v1382q0 40 -1 135.5t-1 110.5z" />
    <glyph glyph-name="braceright" unicode="}" horiz-adv-x="583" 
d="M324 725v8q-150 26 -150 303v291q0 55 -22.5 81t-73.5 26h-19v172h86q213 0 213 -267v-264q0 -40 2 -68.5t10.5 -66t24.5 -61t45.5 -42.5t71.5 -22v-172q-42 -3 -71.5 -22t-45.5 -42.5t-24.5 -61t-10.5 -66t-2 -68.5v-289q0 -266 -213 -266h-86v172h19q52 0 74 25.5
t22 80.5v316q0 277 150 303z" />
    <glyph glyph-name="asciitilde" unicode="~" horiz-adv-x="1097" 
d="M287 612l-160 29q19 101 103.5 163t185.5 48l286 -39q39 -5 71 20t38 64l160 -29q-19 -101 -103.5 -163t-185.5 -48l-287 39q-38 5 -70 -19.5t-38 -64.5z" />
    <glyph glyph-name="uni00A0" unicode="&#xa0;" horiz-adv-x="614" 
 />
    <glyph glyph-name="exclamdown" unicode="&#xa1;" horiz-adv-x="466" 
d="M330 -451h-189q0 15 1 110.5t1 135.5v615q0 40 -1 135t-1 110h189q0 -15 -1 -110t-1 -135v-615q0 -40 1 -135.5t1 -110.5zM233 1008q46 0 78.5 -32.5t32.5 -78.5t-32.5 -78.5t-78.5 -32.5t-78 32.5t-32 78.5t32 78.5t78 32.5z" />
    <glyph glyph-name="cent" unicode="&#xa2;" horiz-adv-x="978" 
d="M752 614q-63 93 -150 119v-577q108 24 176 118l131 -118q-131 -153 -307 -176q0 -41 1 -110t1 -79h-168q0 123 2 195q-154 34 -255 162.5t-101 295.5t101 296t255 165q0 42 -1 123t-1 94h168q0 -12 -1 -91t-1 -122q96 -16 171 -67.5t120 -116.5zM266 444q0 -94 48 -169.5
t124 -108.5v557q-76 -31 -124 -107.5t-48 -171.5z" />
    <glyph glyph-name="sterling" unicode="&#xa3;" horiz-adv-x="1095" 
d="M983 1118l-180 -33q-15 86 -77 139.5t-173 53.5q-45 0 -87.5 -13t-79.5 -39.5t-59 -72.5t-22 -106q0 -33 11 -75t19.5 -64.5t31.5 -78.5l12 -30h104q40 0 135.5 1t110.5 1v-176q-15 0 -110.5 1t-135.5 1h-49q10 -58 10 -107q0 -121 -49 -217q-36 -64 -78 -90l2 -6
q45 20 95 20q72 0 204 -43q86 -28 130 -28q81 0 198 65l72 -170q-134 -76 -270 -76q-72 0 -191 39q-3 1 -15.5 5.5t-17 6t-16 5t-17 5t-17 4.5t-18.5 4.5t-18 3.5t-20 3t-19.5 1.5t-21.5 0.5q-64 0 -113.5 -17.5t-122.5 -60.5l-90 158q95 51 152 164t57 223q0 51 -16 107
q-42 0 -117 -1t-86 -1v176q7 0 55.5 -1t81.5 -1q-57 143 -57 248q0 85 25.5 155t68.5 116.5t99.5 78.5t116.5 46.5t122 14.5q97 0 174.5 -26.5t128.5 -73.5t82 -107t45 -133z" />
    <glyph glyph-name="currency" unicode="&#xa4;" horiz-adv-x="1105" 
d="M553 942q93 0 172 -45l121 123l133 -133l-123 -121q45 -79 45 -172t-45 -172l123 -121l-133 -133l-121 123q-79 -45 -172 -45t-172 45l-121 -123l-133 133l123 121q-45 79 -45 172t45 172l-123 121l133 133l121 -123q79 45 172 45zM553 770q-67 0 -115.5 -52t-48.5 -124
t48.5 -124t115.5 -52t115.5 52t48.5 124t-48.5 124t-115.5 52z" />
    <glyph glyph-name="yen" unicode="&#xa5;" horiz-adv-x="1220" 
d="M522 0q0 15 1 110.5t1 135.5v94h-73q-40 0 -135.5 -1t-110.5 -1v176q15 0 110.5 -1t135.5 -1h73v111l-51 86h-22q-40 0 -135.5 -1t-110.5 -1v176q8 0 68.5 -1t99.5 -1l-174 297q-12 20 -50 82t-68 110.5t-38 63.5h221l90 -158l193 -328q59 -104 65 -141h9q0 8 20.5 52.5
t46.5 88.5l186 330q17 30 46.5 83t40.5 73h217q-52 -87 -146 -252l-172 -301q36 0 91.5 1t64.5 1v-176q-15 0 -110.5 1t-135.5 1h-6l-45 -80v-117h51q40 0 135.5 1t110.5 1v-176q-15 0 -110.5 1t-135.5 1h-51v-94q0 -40 1 -135.5t1 -110.5h-199z" />
    <glyph glyph-name="brokenbar" unicode="&#xa6;" horiz-adv-x="471" 
d="M145 625h181q0 -15 -1 -110.5t-1 -135.5v-338q0 -40 1 -135.5t1 -110.5h-181q0 15 1 110.5t1 135.5v338q0 40 -1 135.5t-1 110.5zM145 1669h181q0 -15 -1 -110.5t-1 -135.5v-338q0 -40 1 -135t1 -110h-181q0 15 1 110t1 135v338q0 40 -1 135.5t-1 110.5z" />
    <glyph glyph-name="section" unicode="&#xa7;" horiz-adv-x="1011" 
d="M182 -14l185 -13q-9 -76 37.5 -131t117.5 -55q60 0 103 38t43 93q0 34 -13.5 65.5t-31.5 54t-52.5 47.5t-59 40t-67.5 39q-49 27 -74.5 41.5t-69 43t-67.5 51t-54.5 58t-46 71t-27 83.5t-11.5 102q0 121 63.5 215t172.5 134v8q-70 26 -116 104.5t-46 169.5
q0 130 95 220.5t235 90.5q113 0 194.5 -55.5t117.5 -144t28 -193.5l-185 13q6 82 -35.5 141t-119.5 59q-62 0 -104 -38t-42 -93q0 -39 16 -71t52 -60t64.5 -45t82.5 -45q38 -20 58.5 -31t56 -31.5t55.5 -36t49 -40t46 -46.5t36.5 -53.5t29.5 -64t17 -73t7 -85.5
q0 -127 -68 -219t-176 -129v-8q76 -34 125 -109.5t49 -179.5q0 -129 -96.5 -220t-233.5 -91q-153 0 -252.5 111t-87.5 268zM737 563q0 95 -52.5 156t-145.5 112q-108 6 -184 -56.5t-76 -160.5q0 -92 53.5 -153t150.5 -115q105 -6 179.5 57.5t74.5 159.5z" />
    <glyph glyph-name="dieresis" unicode="&#xa8;" horiz-adv-x="880" 
d="M258 1286q46 0 78.5 -32t32.5 -78t-32.5 -78.5t-78.5 -32.5t-78.5 32.5t-32.5 78.5t32.5 78t78.5 32zM623 1286q46 0 78 -32t32 -78t-32 -78.5t-78 -32.5t-78.5 32.5t-32.5 78.5t32.5 78t78.5 32z" />
    <glyph glyph-name="copyright" unicode="&#xa9;" horiz-adv-x="1679" 
d="M840 1475q154 0 294 -60t241.5 -161.5t161.5 -242t60 -294.5t-60 -294.5t-161.5 -242t-241.5 -161.5t-294 -60t-294.5 60t-242 161.5t-161.5 242t-60 294.5t60 294.5t161.5 242t242 161.5t294.5 60zM840 1311q-158 0 -292 -79.5t-212 -216.5t-78 -298t78 -298t212 -216.5
t292 -79.5t292 79.5t211.5 216.5t77.5 298t-77.5 298t-211.5 216.5t-292 79.5zM844 1147q99 0 184 -41.5t146 -112.5l-130 -112q-80 102 -200 102q-104 0 -179 -78t-75 -188t75 -188t179 -78q63 0 117.5 29.5t89.5 82.5l127 -117q-58 -74 -145.5 -116.5t-188.5 -42.5
q-178 0 -304 125.5t-126 304.5t126 304.5t304 125.5z" />
    <glyph glyph-name="ordfeminine" unicode="&#xaa;" horiz-adv-x="663" 
d="M315 1257q38 0 75.5 -13.5t58.5 -33.5l2 2q-1 0 -3 4t-4 10.5t-2 12.5v25q0 37 -30.5 57t-67.5 20q-78 0 -156 -45l-49 107q103 57 205 57q97 0 165.5 -52t68.5 -148v-318q-39 -28 -105.5 -52t-134.5 -24q-114 0 -183 55.5t-69 145.5q0 86 63.5 138t165.5 52zM338 985
q63 0 104 29v71q-46 58 -127 58q-39 0 -66.5 -21.5t-27.5 -54.5q0 -37 31.5 -59.5t85.5 -22.5z" />
    <glyph glyph-name="guillemotleft" unicode="&#xab;" horiz-adv-x="829" 
d="M403 961l103 -74q-37 -53 -144 -193l-159 -219l159 -219q107 -140 144 -193l-103 -73q-7 10 -62.5 88.5t-80.5 111.5l-207 285l207 285q25 33 80.5 112t62.5 89zM662 938l102 -78q-15 -20 -68.5 -87t-81.5 -105l-145 -193l145 -192l150 -193l-102 -78q-17 23 -67.5 92
t-80.5 109l-199 262l201 262q29 38 77 105.5t69 95.5z" />
    <glyph glyph-name="logicalnot" unicode="&#xac;" horiz-adv-x="1097" 
d="M389 840h565v-74q0 -40 1 -135.5t1 -110.5h-188q0 76 2 148h-381q-40 0 -135.5 -1t-110.5 -1v176q15 0 110.5 -1t135.5 -1z" />
    <glyph glyph-name="uni00AD" unicode="&#xad;" horiz-adv-x="563" 
d="M61 580q7 0 55 -1t68 -1h195q20 0 68 1t55 1v-160q-7 0 -55 1t-68 1h-195q-20 0 -68 -1t-55 -1v160z" />
    <glyph glyph-name="registered" unicode="&#xae;" horiz-adv-x="1679" 
d="M840 1475q154 0 294 -60t241.5 -161.5t161.5 -242t60 -294.5t-60 -294.5t-161.5 -242t-241.5 -161.5t-294 -60t-294.5 60t-242 161.5t-161.5 242t-60 294.5t60 294.5t161.5 242t242 161.5t294.5 60zM971 307q-34 77 -49 109l-103 221h-96v-182q0 -24 1 -81.5t1 -66.5
h-180q0 9 1 66.5t1 81.5v671h350q101 0 173.5 -72t72.5 -173q0 -151 -125 -213q-30 -15 -41 -11l-2 -4q15 -7 26 -30l89 -183l63 -133h-182zM885 963h-162v-162h162q34 0 58 23t24 57t-24 58t-58 24zM840 1311q-158 0 -292 -79.5t-212 -216.5t-78 -298t78 -298t212 -216.5
t292 -79.5t292 79.5t211.5 216.5t77.5 298t-77.5 298t-211.5 216.5t-292 79.5z" />
    <glyph glyph-name="macron" unicode="&#xaf;" horiz-adv-x="798" 
d="M164 1243q7 0 55 -1t68 -1h225q20 0 68 1t55 1v-135q-7 0 -55 1t-68 1h-225q-20 0 -68 -1t-55 -1v135z" />
    <glyph glyph-name="degree" unicode="&#xb0;" horiz-adv-x="716" 
d="M358 1458q116 0 196.5 -80.5t80.5 -195.5q0 -116 -80.5 -196.5t-196.5 -80.5q-115 0 -195.5 80.5t-80.5 196.5t80 196t196 80zM358 1331q-60 0 -102.5 -43.5t-42.5 -105.5t42.5 -106t102.5 -44t103 44t43 106q0 61 -43 105t-103 44z" />
    <glyph glyph-name="plusminus" unicode="&#xb1;" horiz-adv-x="1097" 
d="M389 963h62v73q0 40 -1 135.5t-1 110.5h198q0 -15 -1 -110.5t-1 -135.5v-73h64q40 0 135 1t110 1v-177q-15 0 -110 1.5t-135 1.5h-64v-74q0 -40 1 -135.5t1 -110.5h-198q0 15 1 110.5t1 135.5v74h-62q-40 0 -135.5 -1.5t-110.5 -1.5v177q15 0 110.5 -1t135.5 -1zM389 348
h320q40 0 135 1t110 1v-176q-15 0 -110 1t-135 1h-320q-40 0 -135.5 -1t-110.5 -1v176q15 0 110.5 -1t135.5 -1z" />
    <glyph glyph-name="twosuperior" unicode="&#x2072;" horiz-adv-x="634" 
d="M25 840l309 372q67 78 67 123q0 36 -23.5 61t-62.5 25q-41 0 -67.5 -33t-26.5 -81h-160q0 109 74 185.5t180 76.5t176 -68t70 -166q0 -40 -15 -79.5t-27.5 -57.5t-35.5 -47l-67 -82q-46 -63 -84 -82l2 -4q20 4 117 4q29 0 72.5 1t49.5 1v-151q-8 0 -55.5 1t-66.5 1h-426z
" />
    <glyph glyph-name="twosuperior" unicode="&#xb2;" horiz-adv-x="634" 
d="M25 840l309 372q67 78 67 123q0 36 -23.5 61t-62.5 25q-41 0 -67.5 -33t-26.5 -81h-160q0 109 74 185.5t180 76.5t176 -68t70 -166q0 -40 -15 -79.5t-27.5 -57.5t-35.5 -47l-67 -82q-46 -63 -84 -82l2 -4q20 4 117 4q29 0 72.5 1t49.5 1v-151q-8 0 -55.5 1t-66.5 1h-426z
" />
    <glyph glyph-name="threesuperior" unicode="&#x2073;" horiz-adv-x="634" 
d="M324 1569q96 0 163.5 -62t67.5 -151q0 -56 -21.5 -89.5t-56.5 -43.5v-9q43 -14 69.5 -54.5t26.5 -100.5q0 -97 -72.5 -164.5t-185.5 -67.5q-103 0 -172 69t-80 175h152q4 -42 34 -69t66 -27q43 0 71 23t28 61q0 36 -21 62t-57 26h-55v133h49q33 0 49 22t16 54
q0 29 -20.5 47t-50.5 18q-31 0 -52.5 -26.5t-21.5 -63.5h-158q0 98 67.5 168t164.5 70z" />
    <glyph glyph-name="threesuperior" unicode="&#xb3;" horiz-adv-x="634" 
d="M324 1569q96 0 163.5 -62t67.5 -151q0 -56 -21.5 -89.5t-56.5 -43.5v-9q43 -14 69.5 -54.5t26.5 -100.5q0 -97 -72.5 -164.5t-185.5 -67.5q-103 0 -172 69t-80 175h152q4 -42 34 -69t66 -27q43 0 71 23t28 61q0 36 -21 62t-57 26h-55v133h49q33 0 49 22t16 54
q0 29 -20.5 47t-50.5 18q-31 0 -52.5 -26.5t-21.5 -63.5h-158q0 98 67.5 168t164.5 70z" />
    <glyph glyph-name="acute" unicode="&#xb4;" horiz-adv-x="655" 
d="M211 1071l-84 66l246 309l166 -92z" />
    <glyph glyph-name="mu" unicode="&#xb5;" horiz-adv-x="1044" 
d="M924 891q0 -15 -1 -110.5t-1 -135.5v-557q-53 -46 -151 -79.5t-218 -33.5q-107 0 -163.5 19t-86.5 57l-8 -4q12 -36 12 -158v-94q0 -40 1 -135.5t1 -110.5h-188q0 15 1 110.5t1 135.5v850q0 40 -1 135.5t-1 110.5h188q0 -15 -1 -110.5t-1 -135.5v-311q0 -85 61.5 -138
t176.5 -53q109 0 192 37v465q0 40 -1 135.5t-1 110.5h189z" />
    <glyph glyph-name="paragraph" unicode="&#xb6;" horiz-adv-x="1136" 
d="M1079 1436v-185q-74 0 -127 2v-1458q0 -40 1 -135.5t1 -110.5h-188q0 15 1 110.5t1 135.5v1458h-195v-1458q0 -40 1 -135.5t1 -110.5h-188q0 15 1 110.5t1 135.5v963q-149 0 -253.5 99t-104.5 239t104.5 239t253.5 99h379h147q38 0 96.5 1t67.5 1z" />
    <glyph glyph-name="periodcentered" unicode="&#xb7;" horiz-adv-x="1097" 
d="M549 864q46 0 78 -32t32 -78t-32 -78.5t-78 -32.5t-78.5 32.5t-32.5 78.5t32.5 78t78.5 32z" />
    <glyph glyph-name="cedilla" unicode="&#xb8;" horiz-adv-x="614" 
d="M117 -307l155 231l136 -102l-187 -205z" />
    <glyph glyph-name="onesuperior" unicode="&#x2071;" horiz-adv-x="634" 
d="M127 1409l86 147h207v-593q0 -21 1 -68.5t1 -54.5h-168q0 7 1 54.5t1 68.5v446h-129z" />
    <glyph glyph-name="onesuperior" unicode="&#xb9;" horiz-adv-x="634" 
d="M127 1409l86 147h207v-593q0 -21 1 -68.5t1 -54.5h-168q0 7 1 54.5t1 68.5v446h-129z" />
    <glyph glyph-name="ordmasculine" unicode="&#xba;" horiz-adv-x="790" 
d="M395 1458q123 0 210 -87t87 -210t-87 -210t-210 -87t-210 87t-87 210t87 210t210 87zM395 1331q-67 0 -114.5 -49.5t-47.5 -120.5t47.5 -120.5t114.5 -49.5t114.5 49.5t47.5 120.5t-47.5 120.5t-114.5 49.5z" />
    <glyph glyph-name="guillemotright" unicode="&#xbb;" horiz-adv-x="829" 
d="M168 938q21 -29 68.5 -96t76.5 -105l201 -262l-199 -262q-29 -39 -78.5 -107t-68.5 -94l-102 78q4 5 62 79.5t87 113.5l145 192l-145 193q-25 31 -75 95.5t-74 96.5zM426 961q7 -10 62.5 -89t80.5 -112l207 -285l-207 -285q-25 -33 -80.5 -111.5t-62.5 -88.5l-102 73
q47 68 143 193l160 219l-160 219q-96 125 -143 193z" />
    <glyph glyph-name="onequarter" unicode="&#xbc;" horiz-adv-x="1005" 
d="M344 756h320q40 0 135 1t110 1v-148q-15 0 -110 1t-135 1h-320q-40 0 -135.5 -1t-110.5 -1v148q15 0 110.5 -1t135.5 -1zM307 1409l86 147h207v-593q0 -21 1 -68.5t1 -54.5h-168q0 7 1 54.5t1 68.5v446h-129zM147 -76l527 631v-500q21 0 52 1t36 1v-135q-5 0 -36 1t-52 1
q0 -25 1 -63.5t1 -44.5h-152q0 6 1 44.5t1 63.5h-379zM424 55h102v123z" />
    <glyph glyph-name="onehalf" unicode="&#xbd;" horiz-adv-x="1005" 
d="M344 756h320q40 0 135 1t110 1v-148q-15 0 -110 1t-135 1h-320q-40 0 -135.5 -1t-110.5 -1v148q15 0 110.5 -1t135.5 -1zM225 -184l310 372q67 78 67 123q0 36 -23.5 61t-62.5 25q-41 0 -67.5 -33t-26.5 -81h-160q0 109 74 185.5t180 76.5t176 -68t70 -166
q0 -40 -15 -79.5t-27.5 -57.5t-35.5 -47l-68 -82q-46 -63 -84 -82l3 -4q20 4 116 4q29 0 73 1t50 1v-151q-8 0 -56 1t-67 1h-426zM307 1409l86 147h207v-593q0 -21 1 -68.5t1 -54.5h-168q0 7 1 54.5t1 68.5v446h-129z" />
    <glyph glyph-name="threequarters" unicode="&#xbe;" horiz-adv-x="1005" 
d="M344 756h320q40 0 135 1t110 1v-148q-15 0 -110 1t-135 1h-320q-40 0 -135.5 -1t-110.5 -1v148q15 0 110.5 -1t135.5 -1zM489 1569q96 0 164 -62t68 -151q0 -56 -21.5 -89.5t-56.5 -43.5v-9q43 -14 69.5 -54.5t26.5 -100.5q0 -97 -72.5 -164.5t-185.5 -67.5
q-103 0 -172 69t-80 175h152q4 -42 34 -69t66 -27q43 0 71 23t28 61q0 36 -21 62t-57 26h-56v133h50q33 0 49 22t16 54q0 29 -21 47t-51 18q-31 0 -52 -26.5t-21 -63.5h-158q0 98 67 168t164 70zM147 -76l527 631v-500q21 0 52 1t36 1v-135q-5 0 -36 1t-52 1q0 -25 1 -63.5
t1 -44.5h-152q0 6 1 44.5t1 63.5h-379zM424 55h102v123z" />
    <glyph glyph-name="questiondown" unicode="&#xbf;" horiz-adv-x="765" 
d="M379 664q125 0 216 -86.5t91 -204.5q0 -69 -24 -123t-69.5 -90.5t-92 -59.5t-109.5 -43q-89 -28 -133.5 -67t-44.5 -113q0 -68 47.5 -116t116.5 -48q87 0 132.5 61.5t47.5 145.5l160 -4q-2 -68 -22 -130t-59.5 -114t-106 -83t-152.5 -31q-134 0 -231 94.5t-97 224.5
q0 72 21 127t62.5 93t90.5 63.5t117 46.5q39 13 66.5 25.5t56.5 32t44 47t15 61.5q0 55 -42 95t-101 40q-65 0 -105 -44.5t-45 -113.5l-157 8q8 133 89.5 219.5t217.5 86.5zM383 1008q46 0 78.5 -32.5t32.5 -78.5t-32.5 -78.5t-78.5 -32.5t-78.5 32.5t-32.5 78.5t32.5 78.5
t78.5 32.5z" />
    <glyph glyph-name="Agrave" unicode="&#xc0;" 
d="M1151 143l-27 58h-764l-24 -58q-49 -106 -64 -143h-211q5 11 26 55.5t42.5 91.5t34.5 76l571 1288l588 -1288q13 -31 54 -117.5t48 -105.5h-211q-23 56 -63 143zM504 381h473q54 0 72 -12l4 8q-12 6 -33 53l-227 498q-52 112 -52 153h-8q0 -42 -49 -153l-221 -498
q-19 -45 -35 -53l4 -8q4 4 25.5 8t46.5 4zM684 1618l-84 -66l-328 283l166 92z" />
    <glyph glyph-name="Aacute" unicode="&#xc1;" 
d="M1151 143l-27 58h-764l-24 -58q-49 -106 -64 -143h-211q5 11 26 55.5t42.5 91.5t34.5 76l571 1288l588 -1288q13 -31 54 -117.5t48 -105.5h-211q-23 56 -63 143zM504 381h473q54 0 72 -12l4 8q-12 6 -33 53l-227 498q-52 112 -52 153h-8q0 -42 -49 -153l-221 -498
q-19 -45 -35 -53l4 -8q4 4 25.5 8t46.5 4zM846 1552l-84 66l246 309l166 -92z" />
    <glyph glyph-name="Acircumflex" unicode="&#xc2;" 
d="M1151 143l-27 58h-764l-24 -58q-49 -106 -64 -143h-211q5 11 26 55.5t42.5 91.5t34.5 76l571 1288l588 -1288q13 -31 54 -117.5t48 -105.5h-211q-23 56 -63 143zM504 381h473q54 0 72 -12l4 8q-12 6 -33 53l-227 498q-52 112 -52 153h-8q0 -42 -49 -153l-221 -498
q-19 -45 -35 -53l4 -8q4 4 25.5 8t46.5 4zM735 1675l-137 -137l-82 82l219 217l219 -217l-82 -82z" />
    <glyph glyph-name="Atilde" unicode="&#xc3;" 
d="M1151 143l-27 58h-764l-24 -58q-49 -106 -64 -143h-211q5 11 26 55.5t42.5 91.5t34.5 76l571 1288l588 -1288q13 -31 54 -117.5t48 -105.5h-211q-23 56 -63 143zM504 381h473q54 0 72 -12l4 8q-12 6 -33 53l-227 498q-52 112 -52 153h-8q0 -42 -49 -153l-221 -498
q-19 -45 -35 -53l4 -8q4 4 25.5 8t46.5 4zM502 1554l-127 21q17 93 97 150.5t173 46.5l197 -27q43 -6 80.5 22.5t46.5 75.5l127 -20q-17 -93 -97.5 -150.5t-173.5 -46.5l-196 27q-43 6 -80.5 -23t-46.5 -76z" />
    <glyph glyph-name="Adieresis" unicode="&#xc4;" 
d="M1151 143l-27 58h-764l-24 -58q-49 -106 -64 -143h-211q5 11 26 55.5t42.5 91.5t34.5 76l571 1288l588 -1288q13 -31 54 -117.5t48 -105.5h-211q-23 56 -63 143zM504 381h473q54 0 72 -12l4 8q-12 6 -33 53l-227 498q-52 112 -52 153h-8q0 -42 -49 -153l-221 -498
q-19 -45 -35 -53l4 -8q4 4 25.5 8t46.5 4zM555 1829q46 0 78.5 -32.5t32.5 -78.5t-32.5 -78t-78.5 -32t-78.5 32t-32.5 78t32.5 78.5t78.5 32.5zM920 1829q46 0 78 -32.5t32 -78.5t-32 -78t-78 -32t-78.5 32t-32.5 78t32.5 78.5t78.5 32.5z" />
    <glyph glyph-name="Aring" unicode="&#xc5;" 
d="M1151 143l-27 58h-764l-24 -58q-49 -106 -64 -143h-211q5 11 26 55.5t42.5 91.5t34.5 76l571 1288l588 -1288q13 -31 54 -117.5t48 -105.5h-211q-23 56 -63 143zM504 381h473q54 0 72 -12l4 8q-12 6 -33 53l-227 498q-52 112 -52 153h-8q0 -42 -49 -153l-221 -498
q-19 -45 -35 -53l4 -8q4 4 25.5 8t46.5 4zM735 1976q88 0 150.5 -59.5t62.5 -144.5t-62.5 -145t-150.5 -60t-150.5 60t-62.5 145t62.5 144.5t150.5 59.5zM735 1862q-37 0 -63.5 -26.5t-26.5 -63.5t26.5 -64t63.5 -27t63.5 27t26.5 64t-26.5 63.5t-63.5 26.5z" />
    <glyph glyph-name="AE" unicode="&#xc6;" horiz-adv-x="1814" 
d="M961 0v201h-570l-29 -45l-98 -156h-244q124 176 179 260l762 1174h475q40 0 135 1t110 1v-185q-15 0 -110 1t-135 1h-281v-376h180q40 0 135.5 1t110.5 1v-189q-15 0 -110.5 1t-135.5 1h-180v-504h322q40 0 135 1t110 1v-192q-15 0 -110 1t-135 1h-516zM496 369
q12 12 71 12h394v561q0 127 16 164l-10 4q-9 -29 -19 -48t-47 -77l-360 -555q-23 -35 -49 -53z" />
    <glyph glyph-name="Ccedilla" unicode="&#xc7;" 
d="M1296 338l131 -133q-111 -116 -263 -181t-324 -65q-154 0 -294.5 60t-242 161.5t-161.5 242t-60 294.5t60 294.5t161.5 242t242 161.5t294.5 60q167 0 315 -68.5t254 -189.5l-139 -127q-78 95 -190.5 149.5t-239.5 54.5q-115 0 -219 -45.5t-180 -123t-120.5 -184.5
t-44.5 -224q0 -157 75.5 -290t205.5 -210.5t283 -77.5q134 0 252.5 53t203.5 146zM846 -76l-156 -231l105 -76l186 205z" />
    <glyph glyph-name="Egrave" unicode="&#xc8;" horiz-adv-x="956" 
d="M102 0v1434h476q40 0 135 1t110 1v-185q-15 0 -110 1t-135 1h-281v-376h180q40 0 135.5 1t110.5 1v-189q-15 0 -110.5 1t-135.5 1h-180v-504h321q40 0 135.5 1t110.5 1v-192q-15 0 -110.5 1t-135.5 1h-516zM586 1618l-84 -66l-328 283l166 92z" />
    <glyph glyph-name="Eacute" unicode="&#xc9;" horiz-adv-x="956" 
d="M102 0v1434h476q40 0 135 1t110 1v-185q-15 0 -110 1t-135 1h-281v-376h180q40 0 135.5 1t110.5 1v-189q-15 0 -110.5 1t-135.5 1h-180v-504h321q40 0 135.5 1t110.5 1v-192q-15 0 -110.5 1t-135.5 1h-516zM348 1552l-84 66l246 309l166 -92z" />
    <glyph glyph-name="Ecircumflex" unicode="&#xca;" horiz-adv-x="956" 
d="M102 0v1434h476q40 0 135 1t110 1v-185q-15 0 -110 1t-135 1h-281v-376h180q40 0 135.5 1t110.5 1v-189q-15 0 -110.5 1t-135.5 1h-180v-504h321q40 0 135.5 1t110.5 1v-192q-15 0 -110.5 1t-135.5 1h-516zM475 1675l-137 -137l-82 82l219 217l219 -217l-82 -82z" />
    <glyph glyph-name="Edieresis" unicode="&#xcb;" horiz-adv-x="956" 
d="M102 0v1434h476q40 0 135 1t110 1v-185q-15 0 -110 1t-135 1h-281v-376h180q40 0 135.5 1t110.5 1v-189q-15 0 -110.5 1t-135.5 1h-180v-504h321q40 0 135.5 1t110.5 1v-192q-15 0 -110.5 1t-135.5 1h-516zM287 1829q46 0 78 -32.5t32 -78.5t-32 -78t-78 -32t-78.5 32
t-32.5 78t32.5 78.5t78.5 32.5zM651 1829q46 0 78.5 -32.5t32.5 -78.5t-32.5 -78t-78.5 -32t-78 32t-32 78t32 78.5t78 32.5z" />
    <glyph glyph-name="Igrave" unicode="&#xcc;" horiz-adv-x="481" 
d="M141 1434h199q0 -15 -1 -110.5t-1 -135.5v-942q0 -40 1 -135.5t1 -110.5h-199q0 15 1 110.5t1 135.5v942q0 40 -1 135.5t-1 110.5zM344 1618l-84 -66l-328 283l166 92z" />
    <glyph glyph-name="Iacute" unicode="&#xcd;" horiz-adv-x="481" 
d="M141 1434h199q0 -15 -1 -110.5t-1 -135.5v-942q0 -40 1 -135.5t1 -110.5h-199q0 15 1 110.5t1 135.5v942q0 40 -1 135.5t-1 110.5zM233 1552l-83 66l245 309l166 -92z" />
    <glyph glyph-name="Icircumflex" unicode="&#xce;" horiz-adv-x="481" 
d="M141 1434h199q0 -15 -1 -110.5t-1 -135.5v-942q0 -40 1 -135.5t1 -110.5h-199q0 15 1 110.5t1 135.5v942q0 40 -1 135.5t-1 110.5zM240 1675l-138 -137l-82 82l220 217l219 -217l-82 -82z" />
    <glyph glyph-name="Idieresis" unicode="&#xcf;" horiz-adv-x="481" 
d="M141 1434h199q0 -15 -1 -110.5t-1 -135.5v-942q0 -40 1 -135.5t1 -110.5h-199q0 15 1 110.5t1 135.5v942q0 40 -1 135.5t-1 110.5zM57 1829q46 0 78.5 -32.5t32.5 -78.5t-32.5 -78t-78.5 -32t-78 32t-32 78t32 78.5t78 32.5zM422 1829q46 0 78 -32.5t32 -78.5t-32 -78
t-78 -32t-78.5 32t-32.5 78t32.5 78.5t78.5 32.5z" />
    <glyph glyph-name="Eth" unicode="&#xd0;" horiz-adv-x="1351" 
d="M154 0v696q-55 -2 -134 -2v185q1 0 51 -1t83 -1v557h378q150 0 287 -57t235.5 -153t157 -228.5t58.5 -278.5t-55 -278.5t-148.5 -228.5t-222.5 -153t-271 -57h-419zM532 1253h-184v-376h51q20 0 109 1t96 1v-185q-7 0 -96 1t-109 1h-51v-516h225q102 0 194.5 42.5
t160 114.5t107.5 171.5t40 208.5q0 146 -73 269.5t-198 195t-272 71.5z" />
    <glyph glyph-name="Ntilde" unicode="&#xd1;" horiz-adv-x="1484" 
d="M1374 -57l-921 931q-126 131 -164 183l-6 -4q14 -70 14 -152v-655q0 -40 1 -135.5t1 -110.5h-199q0 15 1 110.5t1 135.5v1245l922 -932q129 -133 164 -182l6 4q-14 70 -14 151v656q0 40 -1 135.5t-1 110.5h198q0 -15 -1 -110.5t-1 -135.5v-1245zM508 1554l-127 21
q17 93 97 150.5t173 46.5l197 -27q43 -6 80.5 22.5t46.5 75.5l127 -20q-17 -93 -97.5 -150.5t-173.5 -46.5l-196 27q-43 6 -80.5 -23t-46.5 -76z" />
    <glyph glyph-name="Ograve" unicode="&#xd2;" horiz-adv-x="1679" 
d="M840 1475q154 0 294 -60t241.5 -161.5t161.5 -242t60 -294.5t-60 -294.5t-161.5 -242t-241.5 -161.5t-294 -60t-294.5 60t-242 161.5t-161.5 242t-60 294.5t60 294.5t161.5 242t242 161.5t294.5 60zM840 1294q-115 0 -219 -45.5t-180 -123t-120.5 -184.5t-44.5 -224
q0 -157 75.5 -290t205.5 -210.5t283 -77.5t282.5 77.5t205 210.5t75.5 290t-75.5 290t-205 210t-282.5 77zM971 1618l-84 -66l-328 283l166 92z" />
    <glyph glyph-name="Oacute" unicode="&#xd3;" horiz-adv-x="1679" 
d="M840 1475q154 0 294 -60t241.5 -161.5t161.5 -242t60 -294.5t-60 -294.5t-161.5 -242t-241.5 -161.5t-294 -60t-294.5 60t-242 161.5t-161.5 242t-60 294.5t60 294.5t161.5 242t242 161.5t294.5 60zM840 1294q-115 0 -219 -45.5t-180 -123t-120.5 -184.5t-44.5 -224
q0 -157 75.5 -290t205.5 -210.5t283 -77.5t282.5 77.5t205 210.5t75.5 290t-75.5 290t-205 210t-282.5 77zM805 1552l-84 66l246 309l166 -92z" />
    <glyph glyph-name="Ocircumflex" unicode="&#xd4;" horiz-adv-x="1679" 
d="M840 1475q154 0 294 -60t241.5 -161.5t161.5 -242t60 -294.5t-60 -294.5t-161.5 -242t-241.5 -161.5t-294 -60t-294.5 60t-242 161.5t-161.5 242t-60 294.5t60 294.5t161.5 242t242 161.5t294.5 60zM840 1294q-115 0 -219 -45.5t-180 -123t-120.5 -184.5t-44.5 -224
q0 -157 75.5 -290t205.5 -210.5t283 -77.5t282.5 77.5t205 210.5t75.5 290t-75.5 290t-205 210t-282.5 77zM840 1675l-138 -137l-81 82l219 217l219 -217l-82 -82z" />
    <glyph glyph-name="Otilde" unicode="&#xd5;" horiz-adv-x="1679" 
d="M840 1475q154 0 294 -60t241.5 -161.5t161.5 -242t60 -294.5t-60 -294.5t-161.5 -242t-241.5 -161.5t-294 -60t-294.5 60t-242 161.5t-161.5 242t-60 294.5t60 294.5t161.5 242t242 161.5t294.5 60zM840 1294q-115 0 -219 -45.5t-180 -123t-120.5 -184.5t-44.5 -224
q0 -157 75.5 -290t205.5 -210.5t283 -77.5t282.5 77.5t205 210.5t75.5 290t-75.5 290t-205 210t-282.5 77zM606 1554l-127 21q17 93 97.5 150.5t173.5 46.5l196 -27q43 -6 80.5 22.5t46.5 75.5l127 -20q-17 -93 -97 -150.5t-173 -46.5l-197 27q-43 6 -80.5 -23t-46.5 -76z
" />
    <glyph glyph-name="Odieresis" unicode="&#xd6;" horiz-adv-x="1679" 
d="M840 1475q154 0 294 -60t241.5 -161.5t161.5 -242t60 -294.5t-60 -294.5t-161.5 -242t-241.5 -161.5t-294 -60t-294.5 60t-242 161.5t-161.5 242t-60 294.5t60 294.5t161.5 242t242 161.5t294.5 60zM840 1294q-115 0 -219 -45.5t-180 -123t-120.5 -184.5t-44.5 -224
q0 -157 75.5 -290t205.5 -210.5t283 -77.5t282.5 77.5t205 210.5t75.5 290t-75.5 290t-205 210t-282.5 77zM657 1829q46 0 78.5 -32.5t32.5 -78.5t-32.5 -78t-78.5 -32t-78 32t-32 78t32 78.5t78 32.5zM1022 1829q46 0 78.5 -32.5t32.5 -78.5t-32.5 -78t-78.5 -32t-78.5 32
t-32.5 78t32.5 78.5t78.5 32.5z" />
    <glyph glyph-name="multiply" unicode="&#xd7;" horiz-adv-x="1097" 
d="M549 874l51 54q16 16 58 58.5t72.5 73t43.5 42.5l123 -123q-12 -13 -42.5 -43.5t-73 -72.5t-58.5 -58l-53 -51l53 -52q16 -16 58.5 -58t73 -72.5t42.5 -43.5l-123 -122l-174 174l-51 53l-51 -53l-174 -174l-123 122l174 174l53 52l-53 51l-174 174l123 123
q13 -12 43.5 -42.5t72.5 -73t58 -58.5z" />
    <glyph glyph-name="Oslash" unicode="&#xd8;" horiz-adv-x="1679" 
d="M840 1475q256 0 465 -162l120 123l134 -133l-123 -121q161 -208 161 -465q0 -154 -60 -294.5t-161.5 -242t-241.5 -161.5t-294 -60q-261 0 -467 160l-119 -121l-133 133l121 119q-160 206 -160 467q0 154 60 294.5t161.5 242t242 161.5t294.5 60zM1403 717
q0 178 -103 332l-796 -797q152 -113 336 -113q153 0 282.5 77.5t205 210.5t75.5 290zM840 1294q-115 0 -219 -45.5t-180 -123t-120.5 -184.5t-44.5 -224q0 -185 103 -332l795 795q-146 114 -334 114z" />
    <glyph glyph-name="Ugrave" unicode="&#xd9;" horiz-adv-x="1275" 
d="M299 1434q0 -15 -1 -110.5t-1 -135.5v-696q0 -179 74 -256q99 -105 301 -105q108 0 186.5 24.5t114.5 57.5v975q0 40 -1 135.5t-1 110.5h198q0 -15 -1 -110.5t-1 -135.5v-1053q-53 -73 -181 -124.5t-314 -51.5q-306 0 -451 154q-60 63 -89.5 142.5t-29.5 195.5v737
q0 40 -1 135.5t-1 110.5h199zM799 1618l-84 -66l-328 283l166 92z" />
    <glyph glyph-name="Uacute" unicode="&#xda;" horiz-adv-x="1275" 
d="M299 1434q0 -15 -1 -110.5t-1 -135.5v-696q0 -179 74 -256q99 -105 301 -105q108 0 186.5 24.5t114.5 57.5v975q0 40 -1 135.5t-1 110.5h198q0 -15 -1 -110.5t-1 -135.5v-1053q-53 -73 -181 -124.5t-314 -51.5q-306 0 -451 154q-60 63 -89.5 142.5t-29.5 195.5v737
q0 40 -1 135.5t-1 110.5h199zM522 1552l-84 66l246 309l166 -92z" />
    <glyph glyph-name="Ucircumflex" unicode="&#xdb;" horiz-adv-x="1275" 
d="M299 1434q0 -15 -1 -110.5t-1 -135.5v-696q0 -179 74 -256q99 -105 301 -105q108 0 186.5 24.5t114.5 57.5v975q0 40 -1 135.5t-1 110.5h198q0 -15 -1 -110.5t-1 -135.5v-1053q-53 -73 -181 -124.5t-314 -51.5q-306 0 -451 154q-60 63 -89.5 142.5t-29.5 195.5v737
q0 40 -1 135.5t-1 110.5h199zM639 1675l-137 -137l-82 82l219 217l219 -217l-82 -82z" />
    <glyph glyph-name="Udieresis" unicode="&#xdc;" horiz-adv-x="1275" 
d="M442 1808q46 0 78.5 -32t32.5 -78t-32.5 -78.5t-78.5 -32.5t-78 32.5t-32 78.5t32 78t78 32zM848 1808q46 0 78 -32t32 -78t-32 -78.5t-78 -32.5t-78.5 32.5t-32.5 78.5t32.5 78t78.5 32zM299 1434q0 -15 -1 -110.5t-1 -135.5v-696q0 -179 74 -256q99 -105 301 -105
q108 0 186.5 24.5t114.5 57.5v975q0 40 -1 135.5t-1 110.5h198q0 -15 -1 -110.5t-1 -135.5v-1053q-53 -73 -181 -124.5t-314 -51.5q-306 0 -451 154q-60 63 -89.5 142.5t-29.5 195.5v737q0 40 -1 135.5t-1 110.5h199z" />
    <glyph glyph-name="Yacute" unicode="&#xdd;" horiz-adv-x="1220" 
d="M522 0q0 15 1 110.5t1 135.5v377l-325 555q-12 20 -50 82t-68 110.5t-38 63.5h221q13 -22 42.5 -75t47.5 -83l193 -328q26 -44 45.5 -87.5t19.5 -53.5h9q0 20 67 141l186 330q17 30 46.5 83t40.5 73h217q-52 -87 -146 -252l-313 -553v-383q0 -40 1 -135.5t1 -110.5h-199z
M571 1552l-84 66l246 309l166 -92z" />
    <glyph glyph-name="Thorn" unicode="&#xde;" horiz-adv-x="983" 
d="M492 328h-195v-82q0 -40 1 -135.5t1 -110.5h-199q0 15 1 110.5t1 135.5v942q0 40 -1 135.5t-1 110.5h199q0 -15 -1 -110.5t-1 -135.5v-12h195q179 0 304.5 -124.5t125.5 -301.5q0 -175 -126 -298.5t-304 -123.5zM483 500q103 0 176.5 73.5t73.5 176.5q0 107 -73.5 182.5
t-176.5 75.5h-186v-508h186z" />
    <glyph glyph-name="germandbls" unicode="&#xdf;" horiz-adv-x="1208" 
d="M537 1653q98 0 175.5 -33.5t124.5 -90t71 -126t24 -146.5q0 -56 -8.5 -103.5t-30 -95.5t-33.5 -69.5t-44 -71.5q-7 -12 -11 -18q-28 -40 -42.5 -64.5t-28 -62t-13.5 -72.5q0 -19 7.5 -35.5t27.5 -33.5t31.5 -25.5t44.5 -28t40 -24.5q107 -67 146 -104q92 -86 92 -205
q0 -110 -84 -189.5t-227 -79.5q-99 0 -179.5 36.5t-164.5 107.5l116 133q120 -105 228 -105q52 0 89.5 28.5t37.5 68.5q0 22 -11.5 43t-37.5 42.5t-45.5 34.5t-57.5 37q-56 35 -86.5 57t-69 60t-56 82.5t-17.5 99.5q0 45 7.5 83t28.5 81.5t31 61t41 67.5q3 5 16.5 27
t18 29.5t16 28.5t16 32.5t12.5 31.5t11 36t6 37t3 42q0 93 -55.5 158.5t-159.5 65.5q-93 0 -146 -59.5t-53 -157.5v-1469q0 -40 1 -135.5t1 -110.5h-188q0 15 1 110.5t1 135.5v1469q0 181 100.5 285t282.5 104z" />
    <glyph glyph-name="agrave" unicode="&#xe0;" horiz-adv-x="999" 
d="M682 1137l-84 -66l-328 283l166 92zM483 -25q-177 0 -285 94t-108 246q0 141 103.5 224.5t257.5 83.5q78 0 139 -26.5t94 -68.5l8 4q-14 43 -18 84q-6 61 -59.5 96.5t-122.5 35.5q-115 0 -240 -72l-74 153q158 86 314 86q106 0 193.5 -41.5t133.5 -121.5q37 -64 37 -162
v-500q-63 -44 -164 -79.5t-209 -35.5zM483 139q54 0 107 16.5t82 37.5v174q-24 38 -82.5 71t-138.5 33q-76 0 -130.5 -43t-54.5 -113q0 -82 58.5 -129t158.5 -47z" />
    <glyph glyph-name="aacute" unicode="&#xe1;" horiz-adv-x="999" 
d="M426 1071l-84 66l246 309l166 -92zM483 -25q-177 0 -285 94t-108 246q0 141 103.5 224.5t257.5 83.5q78 0 139 -26.5t94 -68.5l8 4q-14 43 -18 84q-6 61 -59.5 96.5t-122.5 35.5q-115 0 -240 -72l-74 153q158 86 314 86q106 0 193.5 -41.5t133.5 -121.5q37 -64 37 -162
v-500q-63 -44 -164 -79.5t-209 -35.5zM483 139q54 0 107 16.5t82 37.5v174q-24 38 -82.5 71t-138.5 33q-76 0 -130.5 -43t-54.5 -113q0 -82 58.5 -129t158.5 -47z" />
    <glyph glyph-name="acircumflex" unicode="&#xe2;" horiz-adv-x="999" 
d="M512 1194l-137 -137l-82 82l219 217l219 -217l-82 -82zM483 -25q-177 0 -285 94t-108 246q0 141 103.5 224.5t257.5 83.5q78 0 139 -26.5t94 -68.5l8 4q-14 43 -18 84q-6 61 -59.5 96.5t-122.5 35.5q-115 0 -240 -72l-74 153q158 86 314 86q106 0 193.5 -41.5
t133.5 -121.5q37 -64 37 -162v-500q-63 -44 -164 -79.5t-209 -35.5zM483 139q54 0 107 16.5t82 37.5v174q-24 38 -82.5 71t-138.5 33q-76 0 -130.5 -43t-54.5 -113q0 -82 58.5 -129t158.5 -47z" />
    <glyph glyph-name="atilde" unicode="&#xe3;" horiz-adv-x="999" 
d="M250 1012l-127 20q17 93 97 150.5t173 46.5l197 -27q43 -6 80.5 22.5t46.5 75.5l127 -20q-17 -93 -97.5 -150.5t-173.5 -46.5l-196 27q-43 6 -80.5 -22.5t-46.5 -75.5zM483 -25q-177 0 -285 94t-108 246q0 141 103.5 224.5t257.5 83.5q78 0 139 -26.5t94 -68.5l8 4
q-14 43 -18 84q-6 61 -59.5 96.5t-122.5 35.5q-115 0 -240 -72l-74 153q158 86 314 86q106 0 193.5 -41.5t133.5 -121.5q37 -64 37 -162v-500q-63 -44 -164 -79.5t-209 -35.5zM483 139q54 0 107 16.5t82 37.5v174q-24 38 -82.5 71t-138.5 33q-76 0 -130.5 -43t-54.5 -113
q0 -82 58.5 -129t158.5 -47z" />
    <glyph glyph-name="adieresis" unicode="&#xe4;" horiz-adv-x="999" 
d="M340 1286q46 0 78.5 -32t32.5 -78t-32.5 -78.5t-78.5 -32.5t-78.5 32.5t-32.5 78.5t32.5 78t78.5 32zM705 1286q46 0 78 -32t32 -78t-32 -78.5t-78 -32.5t-78.5 32.5t-32.5 78.5t32.5 78t78.5 32zM483 -25q-177 0 -285 94t-108 246q0 141 103.5 224.5t257.5 83.5
q78 0 139 -26.5t94 -68.5l8 4q-14 43 -18 84q-6 61 -59.5 96.5t-122.5 35.5q-115 0 -240 -72l-74 153q158 86 314 86q106 0 193.5 -41.5t133.5 -121.5q37 -64 37 -162v-500q-63 -44 -164 -79.5t-209 -35.5zM483 139q54 0 107 16.5t82 37.5v174q-24 38 -82.5 71t-138.5 33
q-76 0 -130.5 -43t-54.5 -113q0 -82 58.5 -129t158.5 -47z" />
    <glyph glyph-name="aring" unicode="&#xe5;" horiz-adv-x="999" 
d="M483 -25q-177 0 -285 94t-108 246q0 141 103.5 224.5t257.5 83.5q78 0 139 -26.5t94 -68.5l8 4q-14 43 -18 84q-6 61 -59.5 96.5t-122.5 35.5q-115 0 -240 -72l-74 153q158 86 314 86q106 0 193.5 -41.5t133.5 -121.5q37 -64 37 -162v-500q-63 -44 -164 -79.5t-209 -35.5
zM483 139q54 0 107 16.5t82 37.5v174q-24 38 -82.5 71t-138.5 33q-76 0 -130.5 -43t-54.5 -113q0 -82 58.5 -129t158.5 -47zM500 1434q88 0 150.5 -60t62.5 -145t-62.5 -145t-150.5 -60t-150.5 60t-62.5 145t62.5 145t150.5 60zM500 1319q-37 0 -63.5 -26.5t-26.5 -63.5
t26.5 -63.5t63.5 -26.5t63.5 26.5t26.5 63.5t-26.5 63.5t-63.5 26.5z" />
    <glyph glyph-name="ae" unicode="&#xe6;" horiz-adv-x="1626" 
d="M682 526l8 4q-17 51 -20 86q-7 61 -60.5 96.5t-122.5 35.5q-122 0 -239 -72l-74 153q158 86 313 86q93 0 174.5 -33t129.5 -96q123 129 311 129q103 0 187 -40t135.5 -105.5t78.5 -145.5t27 -165q0 -27 -2 -41h-674q14 -126 86.5 -200.5t194.5 -74.5q76 0 145 35.5
t117 97.5l127 -120q-71 -80 -171 -130.5t-218 -50.5q-184 0 -306 101q-67 -41 -160 -71t-190 -30q-174 0 -285.5 95.5t-111.5 248.5q0 139 104.5 223.5t259.5 84.5q78 0 141.5 -29t94.5 -72zM1102 756q-88 0 -150.5 -48.5t-87.5 -134.5h471q-10 69 -73 126t-160 57zM479 139
q54 0 105.5 16.5t83.5 37.5v174q-26 37 -84.5 68.5t-137.5 31.5q-73 0 -126.5 -40.5t-53.5 -107.5q0 -82 58 -131t155 -49z" />
    <glyph glyph-name="ccedilla" unicode="&#xe7;" horiz-adv-x="978" 
d="M532 915q121 0 214 -56t147 -134l-141 -111q-37 59 -94 94t-126 35q-110 0 -188 -87.5t-78 -211.5q0 -123 78 -210t188 -87q152 0 246 132l131 -123q-156 -181 -377 -181q-122 0 -225.5 63t-164 171t-60.5 235q0 195 132 333t318 138zM504 -76l-156 -231l105 -76l186 205
z" />
    <glyph glyph-name="egrave" unicode="&#xe8;" horiz-adv-x="1040" 
d="M942 418h-674q14 -126 86.5 -200.5t194.5 -74.5q76 0 145 35.5t117 97.5l127 -120q-71 -80 -171 -130.5t-218 -50.5q-113 0 -203 38.5t-147 104.5t-87 153t-30 186q0 199 121.5 328.5t312.5 129.5q103 0 187 -40t135.5 -105.5t78.5 -145.5t27 -165q0 -27 -2 -41zM516 756
q-88 0 -150 -48.5t-87 -134.5h471q-10 69 -73.5 126t-160.5 57zM692 1137l-84 -66l-327 283l165 92z" />
    <glyph glyph-name="eacute" unicode="&#xe9;" horiz-adv-x="1040" 
d="M942 418h-674q14 -126 86.5 -200.5t194.5 -74.5q76 0 145 35.5t117 97.5l127 -120q-71 -80 -171 -130.5t-218 -50.5q-113 0 -203 38.5t-147 104.5t-87 153t-30 186q0 199 121.5 328.5t312.5 129.5q103 0 187 -40t135.5 -105.5t78.5 -145.5t27 -165q0 -27 -2 -41zM516 756
q-88 0 -150 -48.5t-87 -134.5h471q-10 69 -73.5 126t-160.5 57zM494 1071l-84 66l245 309l166 -92z" />
    <glyph glyph-name="ecircumflex" unicode="&#xea;" horiz-adv-x="1040" 
d="M942 418h-674q14 -126 86.5 -200.5t194.5 -74.5q76 0 145 35.5t117 97.5l127 -120q-71 -80 -171 -130.5t-218 -50.5q-113 0 -203 38.5t-147 104.5t-87 153t-30 186q0 199 121.5 328.5t312.5 129.5q103 0 187 -40t135.5 -105.5t78.5 -145.5t27 -165q0 -27 -2 -41zM516 756
q-88 0 -150 -48.5t-87 -134.5h471q-10 69 -73.5 126t-160.5 57zM532 1194l-137 -137l-82 82l219 217l220 -217l-82 -82z" />
    <glyph glyph-name="edieresis" unicode="&#xeb;" horiz-adv-x="1040" 
d="M942 418h-674q14 -126 86.5 -200.5t194.5 -74.5q76 0 145 35.5t117 97.5l127 -120q-71 -80 -171 -130.5t-218 -50.5q-113 0 -203 38.5t-147 104.5t-87 153t-30 186q0 199 121.5 328.5t312.5 129.5q103 0 187 -40t135.5 -105.5t78.5 -145.5t27 -165q0 -27 -2 -41zM516 756
q-88 0 -150 -48.5t-87 -134.5h471q-10 69 -73.5 126t-160.5 57zM348 1286q46 0 78.5 -32t32.5 -78t-32.5 -78.5t-78.5 -32.5t-78 32.5t-32 78.5t32 78t78 32zM713 1286q46 0 78 -32t32 -78t-32 -78.5t-78 -32.5t-78.5 32.5t-32.5 78.5t32.5 78t78.5 32z" />
    <glyph glyph-name="igrave" unicode="&#xec;" horiz-adv-x="512" 
d="M164 246v399q0 40 -1 135.5t-1 110.5h188q0 -15 -1 -110.5t-1 -135.5v-399q0 -40 1 -135.5t1 -110.5h-188q0 15 1 110.5t1 135.5zM383 1137l-84 -66l-328 283l166 92z" />
    <glyph glyph-name="iacute" unicode="&#xed;" horiz-adv-x="512" 
d="M164 246v399q0 40 -1 135.5t-1 110.5h188q0 -15 -1 -110.5t-1 -135.5v-399q0 -40 1 -135.5t1 -110.5h-188q0 15 1 110.5t1 135.5zM213 1071l-84 66l246 309l166 -92z" />
    <glyph glyph-name="icircumflex" unicode="&#xee;" horiz-adv-x="512" 
d="M164 246v399q0 40 -1 135.5t-1 110.5h188q0 -15 -1 -110.5t-1 -135.5v-399q0 -40 1 -135.5t1 -110.5h-188q0 15 1 110.5t1 135.5zM256 1194l-137 -137l-82 82l219 217l219 -217l-82 -82z" />
    <glyph glyph-name="idieresis" unicode="&#xef;" horiz-adv-x="512" 
d="M86 1327q46 0 78.5 -32t32.5 -78t-32.5 -78.5t-78.5 -32.5t-78.5 32.5t-32.5 78.5t32.5 78t78.5 32zM426 1327q46 0 78.5 -32t32.5 -78t-32.5 -78.5t-78.5 -32.5t-78.5 32.5t-32.5 78.5t32.5 78t78.5 32zM164 246v399q0 40 -1 135.5t-1 110.5h188q0 -15 -1 -110.5
t-1 -135.5v-399q0 -40 1 -135.5t1 -110.5h-188q0 15 1 110.5t1 135.5z" />
    <glyph glyph-name="eth" unicode="&#xf0;" horiz-adv-x="1103" 
d="M745 1475l78 -158q-5 -2 -32 -15.5l-55 -27.5l-42 -21l-39 -20l318 -578q49 -90 49 -211q0 -128 -63 -236t-171.5 -170.5t-236.5 -62.5q-195 0 -332 137t-137 332q0 128 62.5 236.5t170.5 171.5t236 63q59 0 106 -26l5 6q-41 25 -82 100l-86 158l-41 -20
q-20 -10 -41 -21.5t-46 -25t-40 -21.5l-78 158q2 1 56.5 27.5t72.5 35.5l33 17l-17 32l-119 215l162 88q34 -66 117 -217l20 -37l45 23q20 10 62.5 33.5t64.5 34.5zM551 743q-119 0 -202 -87.5t-83 -211.5q0 -123 83.5 -210t201.5 -87q119 0 203 87t84 210q0 124 -84 211.5
t-203 87.5z" />
    <glyph glyph-name="ntilde" unicode="&#xf1;" horiz-adv-x="1077" 
d="M336 891q-4 -100 -10 -117l8 -4q26 62 98.5 103.5t169.5 41.5q158 0 245 -91t87 -253v-325q0 -40 1 -135.5t1 -110.5h-188q0 15 1 110.5t1 135.5v286q0 116 -52.5 172t-136.5 56q-93 0 -158 -65t-65 -175v-274q0 -40 1 -135.5t1 -110.5h-188q0 15 1 110.5t1 135.5v399
q0 40 -1 135.5t-1 110.5h184zM301 1012l-127 20q17 93 97 150.5t173 46.5l197 -27q43 -6 80.5 22.5t46.5 75.5l127 -20q-17 -93 -97 -150.5t-173 -46.5l-197 27q-43 6 -80.5 -22.5t-46.5 -75.5z" />
    <glyph glyph-name="ograve" unicode="&#xf2;" horiz-adv-x="1103" 
d="M551 743q-119 0 -202 -87.5t-83 -211.5q0 -123 83.5 -210t201.5 -87q119 0 203 87t84 210q0 124 -84 211.5t-203 87.5zM551 915q195 0 333 -138t138 -333q0 -128 -63 -236t-171.5 -170.5t-236.5 -62.5q-195 0 -332 137t-137 332q0 128 62.5 236.5t170.5 171.5t236 63z
M690 1137l-84 -66l-327 283l165 92z" />
    <glyph glyph-name="oacute" unicode="&#xf3;" horiz-adv-x="1103" 
d="M551 743q-119 0 -202 -87.5t-83 -211.5q0 -123 83.5 -210t201.5 -87q119 0 203 87t84 210q0 124 -84 211.5t-203 87.5zM551 915q195 0 333 -138t138 -333q0 -128 -63 -236t-171.5 -170.5t-236.5 -62.5q-195 0 -332 137t-137 332q0 128 62.5 236.5t170.5 171.5t236 63z
M551 1051l-84 65l246 309l166 -92z" />
    <glyph glyph-name="ocircumflex" unicode="&#xf4;" horiz-adv-x="1103" 
d="M551 743q-119 0 -202 -87.5t-83 -211.5q0 -123 83.5 -210t201.5 -87q119 0 203 87t84 210q0 124 -84 211.5t-203 87.5zM551 915q195 0 333 -138t138 -333q0 -128 -63 -236t-171.5 -170.5t-236.5 -62.5q-195 0 -332 137t-137 332q0 128 62.5 236.5t170.5 171.5t236 63z
M551 1194l-137 -137l-82 82l219 217l219 -217l-82 -82z" />
    <glyph glyph-name="otilde" unicode="&#xf5;" horiz-adv-x="1103" 
d="M551 743q-119 0 -202 -87.5t-83 -211.5q0 -123 83.5 -210t201.5 -87q119 0 203 87t84 210q0 124 -84 211.5t-203 87.5zM551 915q195 0 333 -138t138 -333q0 -128 -63 -236t-171.5 -170.5t-236.5 -62.5q-195 0 -332 137t-137 332q0 128 62.5 236.5t170.5 171.5t236 63z
M317 1012l-127 20q17 93 97.5 150.5t173.5 46.5l196 -27q43 -6 80.5 22.5t46.5 75.5l127 -20q-17 -93 -97 -150.5t-173 -46.5l-197 27q-43 6 -80.5 -22.5t-46.5 -75.5z" />
    <glyph glyph-name="odieresis" unicode="&#xf6;" horiz-adv-x="1103" 
d="M551 743q-119 0 -202 -87.5t-83 -211.5q0 -123 83.5 -210t201.5 -87q119 0 203 87t84 210q0 124 -84 211.5t-203 87.5zM551 915q195 0 333 -138t138 -333q0 -128 -63 -236t-171.5 -170.5t-236.5 -62.5q-195 0 -332 137t-137 332q0 128 62.5 236.5t170.5 171.5t236 63z
M369 1286q46 0 78 -32t32 -78t-32 -78.5t-78 -32.5t-78.5 32.5t-32.5 78.5t32.5 78t78.5 32zM733 1286q46 0 78.5 -32t32.5 -78t-32.5 -78.5t-78.5 -32.5t-78 32.5t-32 78.5t32 78t78 32z" />
    <glyph glyph-name="divide" unicode="&#xf7;" horiz-adv-x="1097" 
d="M549 1202q46 0 78 -32t32 -78t-32 -78.5t-78 -32.5t-78.5 32.5t-32.5 78.5t32.5 78t78.5 32zM549 526q46 0 78 -32t32 -78t-32 -78.5t-78 -32.5t-78.5 32.5t-32.5 78.5t32.5 78t78.5 32zM389 840h320q40 0 135 1t110 1v-176q-15 0 -110 1t-135 1h-320q-40 0 -135.5 -1
t-110.5 -1v176q15 0 110.5 -1t135.5 -1z" />
    <glyph glyph-name="oslash" unicode="&#xf8;" horiz-adv-x="1103" 
d="M551 915q144 0 260 -77l76 75l133 -133l-78 -75q80 -121 80 -261q0 -128 -63 -236t-171.5 -170.5t-236.5 -62.5q-142 0 -260 78l-76 -76l-133 134l78 73q-78 118 -78 260q0 128 62.5 236.5t170.5 171.5t236 63zM809 573l-391 -391q62 -35 133 -35q119 0 203 87t84 210
q0 66 -29 129zM551 743q-119 0 -202 -87.5t-83 -211.5q0 -68 27 -127l391 392q-61 34 -133 34z" />
    <glyph glyph-name="ugrave" unicode="&#xf9;" horiz-adv-x="1044" 
d="M924 891q0 -15 -1 -110.5t-1 -135.5v-561q-51 -44 -152.5 -76.5t-224.5 -32.5q-215 0 -318.5 94t-103.5 253v323q0 40 -1 135.5t-1 110.5h188q0 -15 -1 -110.5t-1 -135.5v-293q0 -213 238 -213q100 0 192 41v465q0 40 -1 135.5t-1 110.5h189zM651 1137l-84 -66l-327 283
l166 92z" />
    <glyph glyph-name="uacute" unicode="&#xfa;" horiz-adv-x="1044" 
d="M924 891q0 -15 -1 -110.5t-1 -135.5v-561q-51 -44 -152.5 -76.5t-224.5 -32.5q-215 0 -318.5 94t-103.5 253v323q0 40 -1 135.5t-1 110.5h188q0 -15 -1 -110.5t-1 -135.5v-293q0 -213 238 -213q100 0 192 41v465q0 40 -1 135.5t-1 110.5h189zM457 1071l-84 66l245 309
l166 -92z" />
    <glyph glyph-name="ucircumflex" unicode="&#xfb;" horiz-adv-x="1044" 
d="M924 891q0 -15 -1 -110.5t-1 -135.5v-561q-51 -44 -152.5 -76.5t-224.5 -32.5q-215 0 -318.5 94t-103.5 253v323q0 40 -1 135.5t-1 110.5h188q0 -15 -1 -110.5t-1 -135.5v-293q0 -213 238 -213q100 0 192 41v465q0 40 -1 135.5t-1 110.5h189zM522 1194l-137 -137l-82 82
l219 217l219 -217l-82 -82z" />
    <glyph glyph-name="udieresis" unicode="&#xfc;" horiz-adv-x="1044" 
d="M924 891q0 -15 -1 -110.5t-1 -135.5v-561q-51 -44 -152.5 -76.5t-224.5 -32.5q-215 0 -318.5 94t-103.5 253v323q0 40 -1 135.5t-1 110.5h188q0 -15 -1 -110.5t-1 -135.5v-293q0 -213 238 -213q100 0 192 41v465q0 40 -1 135.5t-1 110.5h189zM348 1286q46 0 78.5 -32
t32.5 -78t-32.5 -78.5t-78.5 -32.5t-78 32.5t-32 78.5t32 78t78 32zM713 1286q46 0 78 -32t32 -78t-32 -78.5t-78 -32.5t-78.5 32.5t-32.5 78.5t32.5 78t78.5 32z" />
    <glyph glyph-name="yacute" unicode="&#xfd;" horiz-adv-x="1024" 
d="M1012 891q-23 -44 -69 -133t-69 -133l-446 -897q-16 -31 -45.5 -92t-42.5 -87h-197q39 86 131 261l168 335l-278 484q-13 22 -49 83.5t-65.5 112.5t-37.5 66h207q11 -17 44.5 -78.5t49.5 -89.5l133 -236q31 -54 55.5 -110.5t26.5 -75.5h9q2 16 25.5 75.5t49.5 110.5
l111 222q19 36 50.5 103t37.5 79h201zM440 1071l-84 66l246 309l166 -92z" />
    <glyph glyph-name="thorn" unicode="&#xfe;" horiz-adv-x="1136" 
d="M340 -451h-188q0 15 1 110.5t1 135.5v1587q0 40 -1 135.5t-1 110.5h188q0 -15 -1 -110.5t-1 -135.5v-458q0 -67 -10 -90l8 -5q89 86 256 86q197 0 319.5 -128.5t122.5 -335.5q0 -206 -132.5 -341t-342.5 -135q-149 0 -223 68l-8 -4q10 -23 10 -90v-154q0 -40 1 -135.5
t1 -110.5zM338 623v-410q38 -26 98 -46t123 -20q127 0 209 86.5t82 217.5q0 130 -73.5 211t-192.5 81q-155 0 -246 -120z" />
    <glyph glyph-name="ydieresis" unicode="&#xff;" horiz-adv-x="1024" 
d="M1012 891q-23 -44 -69 -133t-69 -133l-446 -897q-16 -31 -45.5 -92t-42.5 -87h-197q39 86 131 261l168 335l-278 484q-13 22 -49 83.5t-65.5 112.5t-37.5 66h207q11 -17 44.5 -78.5t49.5 -89.5l133 -236q31 -54 55.5 -110.5t26.5 -75.5h9q2 16 25.5 75.5t49.5 110.5
l111 222q19 36 50.5 103t37.5 79h201zM332 1286q46 0 78 -32t32 -78t-32 -78.5t-78 -32.5t-78.5 32.5t-32.5 78.5t32.5 78t78.5 32zM696 1286q46 0 78.5 -32t32.5 -78t-32.5 -78.5t-78.5 -32.5t-78 32.5t-32 78.5t32 78t78 32z" />
    <glyph glyph-name="Amacron" unicode="&#x100;" 
d="M1151 143l-27 58h-764l-24 -58q-49 -106 -64 -143h-211q5 11 26 55.5t42.5 91.5t34.5 76l571 1288l588 -1288q13 -31 54 -117.5t48 -105.5h-211q-23 56 -63 143zM504 381h473q54 0 72 -12l4 8q-12 6 -33 53l-227 498q-52 112 -52 153h-8q0 -42 -49 -153l-221 -498
q-19 -45 -35 -53l4 -8q4 4 25.5 8t46.5 4zM508 1786q7 0 55 -1t68 -1h225q20 0 68 1t55 1v-135q-7 0 -55 1t-68 1h-225q-20 0 -68 -1t-55 -1v135z" />
    <glyph glyph-name="amacron" unicode="&#x101;" horiz-adv-x="999" 
d="M258 1243q7 0 55 -1t68 -1h225q20 0 68 1t55 1v-135q-7 0 -55 1t-68 1h-225q-20 0 -68 -1t-55 -1v135zM483 -25q-177 0 -285 94t-108 246q0 141 103.5 224.5t257.5 83.5q78 0 139 -26.5t94 -68.5l8 4q-14 43 -18 84q-6 61 -59.5 96.5t-122.5 35.5q-115 0 -240 -72
l-74 153q158 86 314 86q106 0 193.5 -41.5t133.5 -121.5q37 -64 37 -162v-500q-63 -44 -164 -79.5t-209 -35.5zM483 139q54 0 107 16.5t82 37.5v174q-24 38 -82.5 71t-138.5 33q-76 0 -130.5 -43t-54.5 -113q0 -82 58.5 -129t158.5 -47z" />
    <glyph glyph-name="Abreve" unicode="&#x102;" 
d="M1151 143l-27 58h-764l-24 -58q-49 -106 -64 -143h-211q5 11 26 55.5t42.5 91.5t34.5 76l571 1288l588 -1288q13 -31 54 -117.5t48 -105.5h-211q-23 56 -63 143zM504 381h473q54 0 72 -12l4 8q-12 6 -33 53l-227 498q-52 112 -52 153h-8q0 -42 -49 -153l-221 -498
q-19 -45 -35 -53l4 -8q4 4 25.5 8t46.5 4zM901 1853l123 -32q-28 -95 -102 -147t-179 -52t-178.5 52t-101.5 147l123 32q15 -54 56.5 -83t100.5 -29t101 29.5t57 82.5z" />
    <glyph glyph-name="abreve" unicode="&#x103;" horiz-adv-x="999" 
d="M659 1311l123 -33q-28 -95 -101.5 -147t-178.5 -52t-179 52t-102 147l123 33q15 -54 57 -83.5t101 -29.5t100.5 29.5t56.5 83.5zM483 -25q-177 0 -285 94t-108 246q0 141 103.5 224.5t257.5 83.5q78 0 139 -26.5t94 -68.5l8 4q-14 43 -18 84q-6 61 -59.5 96.5
t-122.5 35.5q-115 0 -240 -72l-74 153q158 86 314 86q106 0 193.5 -41.5t133.5 -121.5q37 -64 37 -162v-500q-63 -44 -164 -79.5t-209 -35.5zM483 139q54 0 107 16.5t82 37.5v174q-24 38 -82.5 71t-138.5 33q-76 0 -130.5 -43t-54.5 -113q0 -82 58.5 -129t158.5 -47z" />
    <glyph glyph-name="Aogonek" unicode="&#x104;" 
d="M735 1511l588 -1288q13 -31 54 -117.5t48 -105.5h-143q-43 -64 -43 -115q0 -29 17.5 -49t48.5 -20q39 0 94 20l45 -129q-65 -35 -139 -35q-60 0 -104.5 18.5t-69 50t-36.5 67.5t-12 77q0 99 95 201l-54 115h-764l-24 -58q-49 -106 -64 -143h-211q5 11 26 55.5t42.5 91.5
t34.5 76zM741 1081h-8q0 -42 -49 -153l-221 -498q-19 -45 -35 -53l4 -8q4 4 25.5 8t46.5 4h473q54 0 72 -12l4 8q-12 6 -33 53l-227 498q-52 112 -52 153z" />
    <glyph glyph-name="aogonek" unicode="&#x105;" horiz-adv-x="999" 
d="M479 -25q-175 2 -282 95t-107 245q0 141 103.5 224.5t257.5 83.5q78 0 139 -26.5t94 -68.5l8 4q-14 43 -18 84q-6 61 -59.5 96.5t-122.5 35.5q-115 0 -240 -72l-74 153q158 86 314 86q106 0 193.5 -41.5t133.5 -121.5q37 -64 37 -162v-500q-89 -60 -201 -90h2
q-43 -64 -43 -115q0 -29 17.5 -49t48.5 -20q39 0 94 20l45 -129q-65 -35 -139 -35q-60 0 -104.5 18.5t-69 50t-36 67.5t-11.5 77q0 45 20 90zM483 139q54 0 107 16.5t82 37.5v174q-24 38 -82.5 71t-138.5 33q-76 0 -130.5 -43t-54.5 -113q0 -82 58.5 -129t158.5 -47z" />
    <glyph glyph-name="Cacute" unicode="&#x106;" 
d="M1296 338l131 -133q-111 -116 -263 -181t-324 -65q-154 0 -294.5 60t-242 161.5t-161.5 242t-60 294.5t60 294.5t161.5 242t242 161.5t294.5 60q167 0 315 -68.5t254 -189.5l-139 -127q-78 95 -190.5 149.5t-239.5 54.5q-115 0 -219 -45.5t-180 -123t-120.5 -184.5
t-44.5 -224q0 -157 75.5 -290t205.5 -210.5t283 -77.5q134 0 252.5 53t203.5 146zM805 1552l-84 66l246 309l166 -92z" />
    <glyph glyph-name="cacute" unicode="&#x107;" horiz-adv-x="942" 
d="M532 915q121 0 214 -56t147 -134l-141 -111q-37 59 -94 94t-126 35q-110 0 -188 -87.5t-78 -211.5q0 -123 78 -210t188 -87q152 0 246 132l131 -123q-156 -181 -377 -181q-122 0 -225.5 63t-164 171t-60.5 235q0 195 132 333t318 138zM465 1071l-84 66l246 309l166 -92z
" />
    <glyph glyph-name="Ccircumflex" unicode="&#x108;" 
d="M1296 338l131 -133q-111 -116 -263 -181t-324 -65q-154 0 -294.5 60t-242 161.5t-161.5 242t-60 294.5t60 294.5t161.5 242t242 161.5t294.5 60q167 0 315 -68.5t254 -189.5l-139 -127q-78 95 -190.5 149.5t-239.5 54.5q-115 0 -219 -45.5t-180 -123t-120.5 -184.5
t-44.5 -224q0 -157 75.5 -290t205.5 -210.5t283 -77.5q134 0 252.5 53t203.5 146zM840 1737l-138 -138l-81 82l219 217l219 -217l-82 -82z" />
    <glyph glyph-name="ccircumflex" unicode="&#x109;" horiz-adv-x="978" 
d="M532 915q121 0 214 -56t147 -134l-141 -111q-37 59 -94 94t-126 35q-110 0 -188 -87.5t-78 -211.5q0 -123 78 -210t188 -87q152 0 246 132l131 -123q-156 -181 -377 -181q-122 0 -225.5 63t-164 171t-60.5 235q0 195 132 333t318 138zM528 1194l-137 -137l-82 82l219 217
l220 -217l-82 -82z" />
    <glyph glyph-name="Cdotaccent" unicode="&#x10a;" 
d="M1296 338l131 -133q-111 -116 -263 -181t-324 -65q-154 0 -294.5 60t-242 161.5t-161.5 242t-60 294.5t60 294.5t161.5 242t242 161.5t294.5 60q167 0 315 -68.5t254 -189.5l-139 -127q-78 95 -190.5 149.5t-239.5 54.5q-115 0 -219 -45.5t-180 -123t-120.5 -184.5
t-44.5 -224q0 -157 75.5 -290t205.5 -210.5t283 -77.5q134 0 252.5 53t203.5 146zM827 1829q46 0 78.5 -32.5t32.5 -78.5t-32.5 -78t-78.5 -32t-78 32t-32 78t32 78.5t78 32.5z" />
    <glyph glyph-name="cdotaccent" unicode="&#x10b;" horiz-adv-x="978" 
d="M532 915q121 0 214 -56t147 -134l-141 -111q-37 59 -94 94t-126 35q-110 0 -188 -87.5t-78 -211.5q0 -123 78 -210t188 -87q152 0 246 132l131 -123q-156 -181 -377 -181q-122 0 -225.5 63t-164 171t-60.5 235q0 195 132 333t318 138zM522 1286q46 0 78.5 -32t32.5 -78
t-32.5 -78.5t-78.5 -32.5t-78 32.5t-32 78.5t32 78t78 32z" />
    <glyph glyph-name="Ccaron" unicode="&#x10c;" 
d="M1296 338l131 -133q-111 -116 -263 -181t-324 -65q-154 0 -294.5 60t-242 161.5t-161.5 242t-60 294.5t60 294.5t161.5 242t242 161.5t294.5 60q167 0 315 -68.5t254 -189.5l-139 -127q-78 95 -190.5 149.5t-239.5 54.5q-115 0 -219 -45.5t-180 -123t-120.5 -184.5
t-44.5 -224q0 -157 75.5 -290t205.5 -210.5t283 -77.5q134 0 252.5 53t203.5 146zM707 1860l137 -138l137 138l82 -82l-219 -217l-219 217z" />
    <glyph glyph-name="ccaron" unicode="&#x10d;" horiz-adv-x="978" 
d="M532 915q121 0 214 -56t147 -134l-141 -111q-37 59 -94 94t-126 35q-110 0 -188 -87.5t-78 -211.5q0 -123 78 -210t188 -87q152 0 246 132l131 -123q-156 -181 -377 -181q-122 0 -225.5 63t-164 171t-60.5 235q0 195 132 333t318 138zM395 1317l137 -137l138 137l82 -82
l-220 -217l-219 217z" />
    <glyph glyph-name="Dcaron" unicode="&#x10e;" horiz-adv-x="1320" 
d="M102 0v1434h400q150 0 286.5 -57t235.5 -153t157 -228.5t58 -278.5t-55 -278.5t-148 -228.5t-222 -153t-271 -57h-441zM467 1257h-170v-1077h213q145 0 268 72t194.5 195.5t71.5 269.5q0 110 -45.5 210t-123 172.5t-184 115t-224.5 42.5zM387 1860l137 -138l138 138
l81 -82l-219 -217l-219 217z" />
    <glyph glyph-name="dcaron" unicode="&#x10f;" horiz-adv-x="1454" 
d="M797 1628h188q0 -15 -1 -110.5t-1 -135.5v-1255q-185 -152 -405 -152q-210 0 -343 135t-133 341t123.5 335t319.5 129q167 0 256 -86l8 5q-10 23 -10 90v458q0 40 -1 135.5t-1 110.5zM799 213v410q-31 45 -94 82.5t-152 37.5q-119 0 -192.5 -81t-73.5 -211
q0 -132 81.5 -218t209.5 -86q64 0 123 20t98 46zM1188 1452v176h176v-223q0 -73 -57 -141l-45 -52l-70 62l45 51q33 41 33 80v47h-82z" />
    <glyph glyph-name="Dcroat" unicode="&#x110;" horiz-adv-x="1351" 
d="M154 0v696q-55 -2 -134 -2v185q1 0 51 -1t83 -1v557h378q150 0 287 -57t235.5 -153t157 -228.5t58.5 -278.5t-55 -278.5t-148.5 -228.5t-222.5 -153t-271 -57h-419zM532 1253h-184v-376h51q20 0 109 1t96 1v-185q-7 0 -96 1t-109 1h-51v-516h225q102 0 194.5 42.5
t160 114.5t107.5 171.5t40 208.5q0 146 -73 269.5t-198 195t-272 71.5z" />
    <glyph glyph-name="dcroat" unicode="&#x111;" horiz-adv-x="1136" 
d="M797 1628h188q0 -14 -1 -101.5t-1 -129.5q20 0 67 1t54 1v-176q-7 0 -54 1t-67 1v-1096q-36 -29 -69 -51.5t-85 -48.5t-118.5 -40t-141.5 -14q-206 0 -336.5 131t-130.5 340q0 221 125.5 345t317.5 124q167 0 256 -86l8 5q-10 23 -10 90v301h-207q-20 0 -68 -1t-55 -1
v176q7 0 55 -1t68 -1h207q0 42 -1 129.5t-1 101.5zM799 223v393q-34 52 -95.5 89.5t-142.5 37.5q-131 0 -202.5 -83.5t-71.5 -213.5q0 -126 78.5 -212.5t203.5 -86.5t230 76z" />
    <glyph glyph-name="Emacron" unicode="&#x112;" horiz-adv-x="956" 
d="M102 0v1434h476q40 0 135 1t110 1v-185q-15 0 -110 1t-135 1h-281v-376h180q40 0 135.5 1t110.5 1v-189q-15 0 -110.5 1t-135.5 1h-180v-504h321q40 0 135.5 1t110.5 1v-192q-15 0 -110.5 1t-135.5 1h-516zM225 1786q7 0 55 -1t68 -1h225q20 0 68 1t55 1v-135q-7 0 -55 1
t-68 1h-225q-20 0 -68 -1t-55 -1v135z" />
    <glyph glyph-name="emacron" unicode="&#x113;" horiz-adv-x="1040" 
d="M942 418h-674q14 -126 86.5 -200.5t194.5 -74.5q76 0 145 35.5t117 97.5l127 -120q-71 -80 -171 -130.5t-218 -50.5q-113 0 -203 38.5t-147 104.5t-87 153t-30 186q0 199 121.5 328.5t312.5 129.5q103 0 187 -40t135.5 -105.5t78.5 -145.5t27 -165q0 -27 -2 -41zM516 756
q-88 0 -150 -48.5t-87 -134.5h471q-10 69 -73.5 126t-160.5 57zM295 1243q7 0 55 -1t68 -1h225q20 0 68 1t55 1v-135q-7 0 -55 1t-68 1h-225q-20 0 -68 -1t-55 -1v135z" />
    <glyph glyph-name="Ebreve" unicode="&#x114;" horiz-adv-x="956" 
d="M102 0v1434h476q40 0 135 1t110 1v-185q-15 0 -110 1t-135 1h-281v-376h180q40 0 135.5 1t110.5 1v-189q-15 0 -110.5 1t-135.5 1h-180v-504h321q40 0 135.5 1t110.5 1v-192q-15 0 -110.5 1t-135.5 1h-516zM627 1853l123 -32q-28 -95 -102 -147t-179 -52t-179 52
t-102 147l123 32q15 -53 57 -82.5t101 -29.5t101 29.5t57 82.5z" />
    <glyph glyph-name="ebreve" unicode="&#x115;" horiz-adv-x="1040" 
d="M942 418h-674q14 -126 86.5 -200.5t194.5 -74.5q76 0 145 35.5t117 97.5l127 -120q-71 -80 -171 -130.5t-218 -50.5q-113 0 -203 38.5t-147 104.5t-87 153t-30 186q0 199 121.5 328.5t312.5 129.5q103 0 187 -40t135.5 -105.5t78.5 -145.5t27 -165q0 -27 -2 -41zM516 756
q-88 0 -150 -48.5t-87 -134.5h471q-10 69 -73.5 126t-160.5 57zM684 1311l123 -33q-28 -95 -102 -147t-179 -52t-178.5 52t-101.5 147l123 33q15 -54 56.5 -83.5t100.5 -29.5t101 29.5t57 83.5z" />
    <glyph glyph-name="Edotaccent" unicode="&#x116;" horiz-adv-x="956" 
d="M102 0v1434h476q40 0 135 1t110 1v-185q-15 0 -110 1t-135 1h-281v-376h180q40 0 135.5 1t110.5 1v-189q-15 0 -110.5 1t-135.5 1h-180v-504h321q40 0 135.5 1t110.5 1v-192q-15 0 -110.5 1t-135.5 1h-516zM457 1829q46 0 78 -32.5t32 -78.5t-32 -78t-78 -32t-78.5 32
t-32.5 78t32.5 78.5t78.5 32.5z" />
    <glyph glyph-name="edotaccent" unicode="&#x117;" horiz-adv-x="1040" 
d="M942 418h-674q14 -126 86.5 -200.5t194.5 -74.5q76 0 145 35.5t117 97.5l127 -120q-71 -80 -171 -130.5t-218 -50.5q-113 0 -203 38.5t-147 104.5t-87 153t-30 186q0 199 121.5 328.5t312.5 129.5q103 0 187 -40t135.5 -105.5t78.5 -145.5t27 -165q0 -27 -2 -41zM516 756
q-88 0 -150 -48.5t-87 -134.5h471q-10 69 -73.5 126t-160.5 57zM530 1286q46 0 78.5 -32t32.5 -78t-32.5 -78.5t-78.5 -32.5t-78 32.5t-32 78.5t32 78t78 32z" />
    <glyph glyph-name="Eogonek" unicode="&#x118;" horiz-adv-x="956" 
d="M102 0v1434h476q40 0 135 1t110 1v-185q-15 0 -110 1t-135 1h-281v-376h180q40 0 135.5 1t110.5 1v-189q-15 0 -110.5 1t-135.5 1h-180v-504h321q40 0 135.5 1t110.5 1v-192q-15 0 -110.5 1t-135.5 1h-6q-43 -64 -43 -115q0 -29 17.5 -49t48.5 -20q39 0 94 20l45 -129
q-65 -35 -139 -35q-60 0 -104.5 18.5t-69 50t-36 67.5t-11.5 77q0 60 30 115h-342z" />
    <glyph glyph-name="eogonek" unicode="&#x119;" horiz-adv-x="1040" 
d="M942 418h-674q14 -126 86.5 -200.5t194.5 -74.5q76 0 145 35.5t117 97.5l127 -120q-100 -112 -236 -156q-43 -64 -43 -115q0 -29 17.5 -49t48.5 -20q39 0 94 20l45 -129q-65 -35 -139 -35q-60 0 -104.5 18.5t-69 50t-36 67.5t-11.5 77q0 45 20 90q-211 9 -326.5 144.5
t-115.5 337.5q0 199 121.5 328.5t312.5 129.5q103 0 187 -40t135.5 -105.5t78.5 -145.5t27 -165q0 -27 -2 -41zM516 756q-88 0 -150 -48.5t-87 -134.5h471q-10 69 -73.5 126t-160.5 57z" />
    <glyph glyph-name="Ecaron" unicode="&#x11a;" horiz-adv-x="956" 
d="M102 0v1434h476q40 0 135 1t110 1v-185q-15 0 -110 1t-135 1h-281v-376h180q40 0 135.5 1t110.5 1v-189q-15 0 -110.5 1t-135.5 1h-180v-504h321q40 0 135.5 1t110.5 1v-192q-15 0 -110.5 1t-135.5 1h-516zM322 1860l137 -138l137 138l82 -82l-219 -217l-219 217z" />
    <glyph glyph-name="ecaron" unicode="&#x11b;" horiz-adv-x="1040" 
d="M942 418h-674q14 -126 86.5 -200.5t194.5 -74.5q76 0 145 35.5t117 97.5l127 -120q-71 -80 -171 -130.5t-218 -50.5q-113 0 -203 38.5t-147 104.5t-87 153t-30 186q0 199 121.5 328.5t312.5 129.5q103 0 187 -40t135.5 -105.5t78.5 -145.5t27 -165q0 -27 -2 -41zM516 756
q-88 0 -150 -48.5t-87 -134.5h471q-10 69 -73.5 126t-160.5 57zM379 1317l137 -137l137 137l82 -82l-219 -217l-219 217z" />
    <glyph glyph-name="Gcircumflex" unicode="&#x11c;" horiz-adv-x="1570" 
d="M1241 455h-178q-40 0 -135.5 -1t-110.5 -1v184q15 0 110.5 -1t135.5 -1h432q4 -46 4 -70q0 -164 -88 -303.5t-240 -221t-331 -81.5q-154 0 -294.5 60t-242 161.5t-161.5 242t-60 294.5t60 294.5t161.5 242t242 161.5t294.5 60q175 0 327.5 -78.5t255.5 -216.5l-143 -125
q-75 111 -191 175t-249 64q-115 0 -219 -45.5t-180 -123t-120.5 -184.5t-44.5 -224q0 -157 75.5 -290t205.5 -210.5t283 -77.5q143 0 265 74t167 184q18 48 39 62l-6 8q-18 -12 -64 -12zM827 1737l-137 -138l-82 82l219 217l220 -217l-82 -82z" />
    <glyph glyph-name="gcircumflex" unicode="&#x11d;" horiz-adv-x="1136" 
d="M799 -82v49q0 67 10 90l-8 4q-89 -86 -256 -86q-93 0 -173 31.5t-140.5 90t-95 149.5t-34.5 203q0 207 130.5 336.5t336.5 129.5q75 0 141.5 -14t118 -39.5t85.5 -48t69 -51.5v-844q0 -199 -122.5 -296t-342.5 -97q-221 0 -366 110l104 140q105 -86 262 -86
q134 0 207.5 56.5t73.5 172.5zM799 274v394q-104 75 -230 75q-125 0 -203.5 -85t-78.5 -209q0 -132 71.5 -217t202.5 -85q81 0 142.5 37.5t95.5 89.5zM582 1194l-138 -137l-82 82l220 217l219 -217l-82 -82z" />
    <glyph glyph-name="Gbreve" unicode="&#x11e;" horiz-adv-x="1570" 
d="M1241 455h-178q-40 0 -135.5 -1t-110.5 -1v184q15 0 110.5 -1t135.5 -1h432q4 -46 4 -70q0 -164 -88 -303.5t-240 -221t-331 -81.5q-154 0 -294.5 60t-242 161.5t-161.5 242t-60 294.5t60 294.5t161.5 242t242 161.5t294.5 60q175 0 327.5 -78.5t255.5 -216.5l-143 -125
q-75 111 -191 175t-249 64q-115 0 -219 -45.5t-180 -123t-120.5 -184.5t-44.5 -224q0 -157 75.5 -290t205.5 -210.5t283 -77.5q143 0 265 74t167 184q18 48 39 62l-6 8q-18 -12 -64 -12zM987 1853l123 -32q-28 -95 -102 -147t-179 -52t-178.5 52t-101.5 147l123 32
q15 -54 56.5 -83t100.5 -29t101 29.5t57 82.5z" />
    <glyph glyph-name="gbreve" unicode="&#x11f;" horiz-adv-x="1136" 
d="M799 -82v49q0 67 10 90l-8 4q-89 -86 -256 -86q-93 0 -173 31.5t-140.5 90t-95 149.5t-34.5 203q0 207 130.5 336.5t336.5 129.5q75 0 141.5 -14t118 -39.5t85.5 -48t69 -51.5v-844q0 -199 -122.5 -296t-342.5 -97q-221 0 -366 110l104 140q105 -86 262 -86
q134 0 207.5 56.5t73.5 172.5zM799 274v394q-104 75 -230 75q-125 0 -203.5 -85t-78.5 -209q0 -132 71.5 -217t202.5 -85q81 0 142.5 37.5t95.5 89.5zM725 1311l123 -33q-28 -95 -102 -147t-179 -52t-178.5 52t-101.5 147l123 33q15 -54 56.5 -83.5t100.5 -29.5t101 29.5
t57 83.5z" />
    <glyph glyph-name="Gdotaccent" unicode="&#x120;" horiz-adv-x="1570" 
d="M1241 455h-178q-40 0 -135.5 -1t-110.5 -1v184q15 0 110.5 -1t135.5 -1h432q4 -46 4 -70q0 -164 -88 -303.5t-240 -221t-331 -81.5q-154 0 -294.5 60t-242 161.5t-161.5 242t-60 294.5t60 294.5t161.5 242t242 161.5t294.5 60q175 0 327.5 -78.5t255.5 -216.5l-143 -125
q-75 111 -191 175t-249 64q-115 0 -219 -45.5t-180 -123t-120.5 -184.5t-44.5 -224q0 -157 75.5 -290t205.5 -210.5t283 -77.5q143 0 265 74t167 184q18 48 39 62l-6 8q-18 -12 -64 -12zM842 1829q46 0 78 -32.5t32 -78.5t-32 -78t-78 -32t-78.5 32t-32.5 78t32.5 78.5
t78.5 32.5z" />
    <glyph glyph-name="gdotaccent" unicode="&#x121;" horiz-adv-x="1136" 
d="M799 -82v49q0 67 10 90l-8 4q-89 -86 -256 -86q-93 0 -173 31.5t-140.5 90t-95 149.5t-34.5 203q0 207 130.5 336.5t336.5 129.5q75 0 141.5 -14t118 -39.5t85.5 -48t69 -51.5v-844q0 -199 -122.5 -296t-342.5 -97q-221 0 -366 110l104 140q105 -86 262 -86
q134 0 207.5 56.5t73.5 172.5zM799 274v394q-104 75 -230 75q-125 0 -203.5 -85t-78.5 -209q0 -132 71.5 -217t202.5 -85q81 0 142.5 37.5t95.5 89.5zM575 1286q46 0 78.5 -32t32.5 -78t-32.5 -78.5t-78.5 -32.5t-78 32.5t-32 78.5t32 78t78 32z" />
    <glyph glyph-name="Hcircumflex" unicode="&#x124;" horiz-adv-x="1277" 
d="M1176 1188v-942q0 -40 1 -135.5t1 -110.5h-199q0 15 1 110.5t1 135.5v440h-684v-440q0 -40 1 -135.5t1 -110.5h-199q0 15 1 110.5t1 135.5v942q0 40 -1 135.5t-1 110.5h199q0 -15 -1 -110.5t-1 -135.5v-322h684v322q0 40 -1 135.5t-1 110.5h199q0 -15 -1 -110.5
t-1 -135.5zM639 1675l-137 -137l-82 82l219 217l219 -217l-82 -82z" />
    <glyph glyph-name="hcircumflex" unicode="&#x125;" horiz-adv-x="1069" 
d="M340 1485q0 -15 -1 -110.5t-1 -135.5v-240q0 -123 -23 -188l9 -4q100 108 262 108q155 0 253.5 -89t98.5 -240v-340q0 -40 1 -135.5t1 -110.5h-188q0 15 1 110.5t1 135.5v307q0 55 -17 96t-46.5 63.5t-63.5 33t-74 10.5q-105 0 -160 -67t-55 -193v-250q0 -40 1 -135.5
t1 -110.5h-188q0 15 1 110.5t1 135.5v993q0 40 -1 135.5t-1 110.5h188zM520 1737l-137 -138l-82 82l219 217l219 -217l-82 -82z" />
    <glyph glyph-name="Itilde" unicode="&#x128;" horiz-adv-x="481" 
d="M141 1434h199q0 -15 -1 -110.5t-1 -135.5v-942q0 -40 1 -135.5t1 -110.5h-199q0 15 1 110.5t1 135.5v942q0 40 -1 135.5t-1 110.5zM6 1554l-127 21q17 93 97.5 150.5t173.5 46.5l196 -27q43 -6 80.5 22.5t46.5 75.5l127 -20q-17 -93 -97 -150.5t-173 -46.5l-197 27
q-43 6 -80.5 -23t-46.5 -76z" />
    <glyph glyph-name="itilde" unicode="&#x129;" horiz-adv-x="512" 
d="M164 246v399q0 40 -1 135.5t-1 110.5h188q0 -15 -1 -110.5t-1 -135.5v-399q0 -40 1 -135.5t1 -110.5h-188q0 15 1 110.5t1 135.5zM23 1012l-127 20q17 93 97 150.5t173 46.5l196 -27q43 -6 80.5 22.5t46.5 75.5l127 -20q-17 -93 -97 -150.5t-173 -46.5l-196 27
q-43 6 -80.5 -22.5t-46.5 -75.5z" />
    <glyph glyph-name="Imacron" unicode="&#x12a;" horiz-adv-x="481" 
d="M141 1434h199q0 -15 -1 -110.5t-1 -135.5v-942q0 -40 1 -135.5t1 -110.5h-199q0 15 1 110.5t1 135.5v942q0 40 -1 135.5t-1 110.5zM4 1786q7 0 55 -1t68 -1h225q20 0 68 1t55 1v-135q-7 0 -55 1t-68 1h-225q-20 0 -68 -1t-55 -1v135z" />
    <glyph glyph-name="imacron" unicode="&#x12b;" horiz-adv-x="512" 
d="M164 246v399q0 40 -1 135.5t-1 110.5h188q0 -15 -1 -110.5t-1 -135.5v-399q0 -40 1 -135.5t1 -110.5h-188q0 15 1 110.5t1 135.5zM20 1243q7 0 55 -1t68 -1h226q20 0 68 1t55 1v-135q-7 0 -55 1t-68 1h-226q-20 0 -68 -1t-55 -1v135z" />
    <glyph glyph-name="Ibreve" unicode="&#x12c;" horiz-adv-x="481" 
d="M141 1434h199q0 -15 -1 -110.5t-1 -135.5v-942q0 -40 1 -135.5t1 -110.5h-199q0 15 1 110.5t1 135.5v942q0 40 -1 135.5t-1 110.5zM397 1853l123 -32q-28 -95 -101.5 -147t-178.5 -52t-179 52t-102 147l123 32q15 -53 57 -82.5t101 -29.5t100.5 29t56.5 83z" />
    <glyph glyph-name="ibreve" unicode="&#x12d;" horiz-adv-x="512" 
d="M164 246v399q0 40 -1 135.5t-1 110.5h188q0 -15 -1 -110.5t-1 -135.5v-399q0 -40 1 -135.5t1 -110.5h-188q0 15 1 110.5t1 135.5zM414 1311l123 -33q-28 -95 -102 -147t-179 -52t-179 52t-102 147l123 33q15 -54 57 -83.5t101 -29.5t101 29.5t57 83.5z" />
    <glyph glyph-name="Iogonek" unicode="&#x12e;" horiz-adv-x="481" 
d="M141 1434h199q0 -15 -1 -110.5t-1 -135.5v-942q0 -40 1 -135.5t1 -110.5h-33q-43 -64 -43 -115q0 -29 17.5 -49t48.5 -20q39 0 94 20l45 -129q-65 -35 -139 -35q-60 0 -104.5 18.5t-69 50t-36 67.5t-11.5 77q0 58 32 117q0 17 1 110.5t1 133.5v942q0 40 -1 135.5
t-1 110.5z" />
    <glyph glyph-name="iogonek" unicode="&#x12f;" horiz-adv-x="512" 
d="M350 891q0 -15 -1 -110.5t-1 -135.5v-399q0 -40 1 -135.5t1 -110.5h-22q-43 -64 -43 -115q0 -29 17 -49t48 -20q39 0 94 20l45 -129q-65 -35 -139 -35q-60 0 -104.5 18.5t-69 50t-36 67.5t-11.5 77q0 56 33 117q0 17 1 110.5t1 133.5v399q0 40 -1 135.5t-1 110.5h188z
M348 1339v-159q0 -12 -27.5 -22.5t-64.5 -10.5t-64.5 10.5t-27.5 22.5v159q0 12 28.5 22.5t65.5 10.5q36 0 63 -10.5t27 -22.5z" />
    <glyph glyph-name="Idotaccent" unicode="&#x130;" horiz-adv-x="481" 
d="M141 1434h199q0 -15 -1 -110.5t-1 -135.5v-942q0 -40 1 -135.5t1 -110.5h-199q0 15 1 110.5t1 135.5v942q0 40 -1 135.5t-1 110.5zM240 1829q46 0 78 -32.5t32 -78.5t-32 -78t-78 -32t-78.5 32t-32.5 78t32.5 78.5t78.5 32.5z" />
    <glyph glyph-name="dotlessi" unicode="&#x131;" horiz-adv-x="512" 
d="M164 246v399q0 40 -1 135.5t-1 110.5h188q0 -15 -1 -110.5t-1 -135.5v-399q0 -40 1 -135.5t1 -110.5h-188q0 15 1 110.5t1 135.5z" />
    <glyph glyph-name="Jcircumflex" unicode="&#x134;" horiz-adv-x="768" 
d="M16 23l82 153q57 -45 133 -45q83 0 141 62.5t58 150.5v844q0 40 -1 135.5t-1 110.5h199q0 -15 -1 -110.5t-1 -135.5v-836q0 -163 -115.5 -278t-278.5 -115q-120 0 -215 64zM387 1737l-137 -138l-82 82l219 217l219 -217l-82 -82z" />
    <glyph glyph-name="jcircumflex" unicode="&#x135;" horiz-adv-x="512" 
d="M256 1194l-137 -137l-82 82l219 217l219 -217l-82 -82zM-25 -475v180q82 0 135.5 56t53.5 153v731q0 40 -1 135.5t-1 110.5h188q0 -15 -1 -110.5t-1 -135.5v-731q0 -181 -105.5 -285t-267.5 -104z" />
    <glyph glyph-name="kgreenlandic" unicode="&#x138;" horiz-adv-x="983" 
d="M911 891q-123 -117 -229 -223l-160 -158l217 -264q38 -46 203 -246h-235q-56 73 -107 135l-209 262l-53 -39v-112q0 -40 1 -135.5t1 -110.5h-188q0 15 1 110.5t1 135.5v399q0 40 -1 135.5t-1 110.5h188q0 -21 -1 -66t-1 -59q0 -197 -12 -225l8 -4q21 35 147 161l74 74
q2 2 113 119h243z" />
    <glyph glyph-name="Lacute" unicode="&#x139;" horiz-adv-x="780" 
d="M102 0v1188q0 40 -1 135.5t-1 110.5h199q0 -15 -1 -110.5t-1 -135.5v-1008h197q40 0 135 1t110 1v-184q-15 0 -110 1t-135 1h-392zM238 1552l-84 66l245 309l166 -92z" />
    <glyph glyph-name="lacute" unicode="&#x13a;" horiz-adv-x="512" 
d="M162 1628h188q0 -15 -1 -110.5t-1 -135.5v-1136q0 -40 1 -135.5t1 -110.5h-188q0 15 1 110.5t1 135.5v1136q0 40 -1 135.5t-1 110.5zM160 1665l-84 66l246 309l165 -92z" />
    <glyph glyph-name="Lcaron" unicode="&#x13d;" horiz-adv-x="921" 
d="M102 0v1188q0 40 -1 135.5t-1 110.5h199q0 -15 -1 -110.5t-1 -135.5v-1008h197q40 0 135 1t110 1v-184q-15 0 -110 1t-135 1h-392zM668 1452v176h176v-223q0 -72 -58 -141l-45 -52l-69 62l45 51q33 41 33 80v47h-82z" />
    <glyph glyph-name="lcaron" unicode="&#x13e;" horiz-adv-x="655" 
d="M115 1628h188q0 -15 -1 -110.5t-1 -135.5v-1136q0 -40 1 -135.5t1 -110.5h-188q0 15 1 110.5t1 135.5v1136q0 40 -1 135.5t-1 110.5zM434 1452v176h176v-223q0 -73 -57 -141l-45 -52l-70 62l45 51q33 41 33 80v47h-82z" />
    <glyph glyph-name="Lslash" unicode="&#x141;" horiz-adv-x="882" 
d="M205 0v541q-29 -31 -82 -84l-125 125q88 84 176 172l31 30v404q0 40 -1 135.5t-1 110.5h198q0 -15 -1 -110.5t-1 -135.5v-209l58.5 58.5t71 72t42.5 43.5l125 -125q-88 -84 -176 -172l-121 -121v-555h197q40 0 135.5 1t110.5 1v-184q-15 0 -110.5 1t-135.5 1h-391z" />
    <glyph glyph-name="lslash" unicode="&#x142;" horiz-adv-x="655" 
d="M422 1628q0 -15 -1 -110.5t-1 -135.5v-346q101 105 133 133l123 -122q-14 -14 -174 -175l-82 -81v-545q0 -40 1 -135.5t1 -110.5h-189q0 15 1.5 110.5t1.5 135.5v358q-111 -111 -134 -131l-122 123q12 13 42.5 43.5t73 72.5t58.5 58l82 82v530q0 40 -1.5 135.5
t-1.5 110.5h189z" />
    <glyph glyph-name="Nacute" unicode="&#x143;" horiz-adv-x="1476" 
d="M1374 -57l-921 931q-126 131 -164 183l-6 -4q14 -70 14 -152v-655q0 -40 1 -135.5t1 -110.5h-199q0 15 1 110.5t1 135.5v1245l922 -932q129 -133 164 -182l6 4q-14 70 -14 151v656q0 40 -1 135.5t-1 110.5h198q0 -15 -1 -110.5t-1 -135.5v-1245zM655 1552l-84 66l246 309
l166 -92z" />
    <glyph glyph-name="nacute" unicode="&#x144;" horiz-adv-x="1077" 
d="M336 891q-4 -100 -10 -117l8 -4q26 62 98.5 103.5t169.5 41.5q158 0 245 -91t87 -253v-325q0 -40 1 -135.5t1 -110.5h-188q0 15 1 110.5t1 135.5v286q0 116 -52.5 172t-136.5 56q-93 0 -158 -65t-65 -175v-274q0 -40 1 -135.5t1 -110.5h-188q0 15 1 110.5t1 135.5v399
q0 40 -1 135.5t-1 110.5h184zM477 1071l-84 66l246 309l166 -92z" />
    <glyph glyph-name="Ncaron" unicode="&#x147;" horiz-adv-x="1476" 
d="M1374 -57l-921 931q-126 131 -164 183l-6 -4q14 -70 14 -152v-655q0 -40 1 -135.5t1 -110.5h-199q0 15 1 110.5t1 135.5v1245l922 -932q129 -133 164 -182l6 4q-14 70 -14 151v656q0 40 -1 135.5t-1 110.5h198q0 -15 -1 -110.5t-1 -135.5v-1245zM604 1860l137 -138
l138 138l82 -82l-220 -217l-219 217z" />
    <glyph glyph-name="ncaron" unicode="&#x148;" horiz-adv-x="1077" 
d="M336 891q-4 -100 -10 -117l8 -4q26 62 98.5 103.5t169.5 41.5q158 0 245 -91t87 -253v-325q0 -40 1 -135.5t1 -110.5h-188q0 15 1 110.5t1 135.5v286q0 116 -52.5 172t-136.5 56q-93 0 -158 -65t-65 -175v-274q0 -40 1 -135.5t1 -110.5h-188q0 15 1 110.5t1 135.5v399
q0 40 -1 135.5t-1 110.5h184zM397 1317l138 -137l137 137l82 -82l-219 -217l-220 217z" />
    <glyph glyph-name="Eng" unicode="&#x14a;" horiz-adv-x="1484" 
d="M774 -412l82 154q57 -45 133 -45q83 0 141 62.5t58 150.5v213l-735 762q-78 80 -164 182l-6 -4q14 -70 14 -152v-665q0 -40 1 -135.5t1 -110.5h-199q0 15 1 110.5t1 135.5v1274l930 -951q78 -80 164 -182l6 4q-14 70 -14 152v645q0 40 -1 135.5t-1 110.5h198
q0 -15 -1 -110.5t-1 -135.5v-1270q0 -163 -115 -278t-278 -115q-121 0 -215 63z" />
    <glyph glyph-name="eng" unicode="&#x14b;" horiz-adv-x="1077" 
d="M326 774l8 -4q26 62 98.5 103.5t169.5 41.5q158 0 245 -91t87 -253v-657q0 -181 -105.5 -285t-267.5 -104v180q82 0 135.5 56t53.5 153v618q0 116 -52.5 172t-136.5 56q-93 0 -158 -65t-65 -175v-274q0 -40 1 -135.5t1 -110.5h-188q0 15 1 110.5t1 135.5v399
q0 40 -1 135.5t-1 110.5h184q-4 -100 -10 -117z" />
    <glyph glyph-name="Omacron" unicode="&#x14c;" horiz-adv-x="1679" 
d="M840 1475q154 0 294 -60t241.5 -161.5t161.5 -242t60 -294.5t-60 -294.5t-161.5 -242t-241.5 -161.5t-294 -60t-294.5 60t-242 161.5t-161.5 242t-60 294.5t60 294.5t161.5 242t242 161.5t294.5 60zM840 1294q-115 0 -219 -45.5t-180 -123t-120.5 -184.5t-44.5 -224
q0 -157 75.5 -290t205.5 -210.5t283 -77.5t282.5 77.5t205 210.5t75.5 290t-75.5 290t-205 210t-282.5 77zM604 1786q7 0 55 -1t68 -1h225q20 0 68 1t55 1v-135q-7 0 -55 1t-68 1h-225q-20 0 -68 -1t-55 -1v135z" />
    <glyph glyph-name="omacron" unicode="&#x14d;" horiz-adv-x="1103" 
d="M551 743q-119 0 -202 -87.5t-83 -211.5q0 -123 83.5 -210t201.5 -87q119 0 203 87t84 210q0 124 -84 211.5t-203 87.5zM551 915q195 0 333 -138t138 -333q0 -128 -63 -236t-171.5 -170.5t-236.5 -62.5q-195 0 -332 137t-137 332q0 128 62.5 236.5t170.5 171.5t236 63z
M315 1243q7 0 55 -1t68 -1h226q20 0 67.5 1t54.5 1v-135q-7 0 -54.5 1t-67.5 1h-226q-20 0 -68 -1t-55 -1v135z" />
    <glyph glyph-name="Obreve" unicode="&#x14e;" horiz-adv-x="1679" 
d="M840 1475q154 0 294 -60t241.5 -161.5t161.5 -242t60 -294.5t-60 -294.5t-161.5 -242t-241.5 -161.5t-294 -60t-294.5 60t-242 161.5t-161.5 242t-60 294.5t60 294.5t161.5 242t242 161.5t294.5 60zM840 1294q-115 0 -219 -45.5t-180 -123t-120.5 -184.5t-44.5 -224
q0 -157 75.5 -290t205.5 -210.5t283 -77.5t282.5 77.5t205 210.5t75.5 290t-75.5 290t-205 210t-282.5 77zM997 1853l123 -32q-28 -95 -101.5 -147t-178.5 -52t-179 52t-102 147l123 32q15 -53 57 -82.5t101 -29.5t100.5 29t56.5 83z" />
    <glyph glyph-name="obreve" unicode="&#x14f;" horiz-adv-x="1103" 
d="M551 743q-119 0 -202 -87.5t-83 -211.5q0 -123 83.5 -210t201.5 -87q119 0 203 87t84 210q0 124 -84 211.5t-203 87.5zM551 915q195 0 333 -138t138 -333q0 -128 -63 -236t-171.5 -170.5t-236.5 -62.5q-195 0 -332 137t-137 332q0 128 62.5 236.5t170.5 171.5t236 63z
M709 1311l122 -33q-28 -95 -101.5 -147t-178.5 -52t-179 52t-102 147l123 33q15 -54 57 -83.5t101 -29.5t101 29.5t57 83.5z" />
    <glyph glyph-name="Ohungarumlaut" unicode="&#x150;" horiz-adv-x="1679" 
d="M840 1475q154 0 294 -60t241.5 -161.5t161.5 -242t60 -294.5t-60 -294.5t-161.5 -242t-241.5 -161.5t-294 -60t-294.5 60t-242 161.5t-161.5 242t-60 294.5t60 294.5t161.5 242t242 161.5t294.5 60zM840 1294q-115 0 -219 -45.5t-180 -123t-120.5 -184.5t-44.5 -224
q0 -157 75.5 -290t205.5 -210.5t283 -77.5t282.5 77.5t205 210.5t75.5 290t-75.5 290t-205 210t-282.5 77zM723 1552l-74 62l203 248l96 -78zM981 1552l-74 62l203 248l96 -78z" />
    <glyph glyph-name="ohungarumlaut" unicode="&#x151;" horiz-adv-x="1103" 
d="M551 743q-119 0 -202 -87.5t-83 -211.5q0 -123 83.5 -210t201.5 -87q119 0 203 87t84 210q0 124 -84 211.5t-203 87.5zM551 915q195 0 333 -138t138 -333q0 -128 -63 -236t-171.5 -170.5t-236.5 -62.5q-195 0 -332 137t-137 332q0 128 62.5 236.5t170.5 171.5t236 63z
M416 1071l-74 62l203 247l96 -77zM674 1071l-74 62l203 247l96 -77z" />
    <glyph glyph-name="OE" unicode="&#x152;" horiz-adv-x="2256" 
d="M1403 0v211q-106 -119 -252 -185.5t-311 -66.5q-154 0 -294.5 60t-242 161.5t-161.5 242t-60 294.5t60 294.5t161.5 242t242 161.5t294.5 60q164 0 310 -67t253 -185v211h475q40 0 135.5 1t110.5 1v-185q-15 0 -110.5 1t-135.5 1h-281v-376h172q40 0 135.5 1t110.5 1
v-185q-15 0 -110.5 1t-135.5 1h-172v-516h322q40 0 135.5 1t110.5 1v-184q-15 0 -110.5 1t-135.5 1h-516zM840 1294q-115 0 -219 -45.5t-180 -123t-120.5 -184.5t-44.5 -224q0 -157 75.5 -290t205.5 -210.5t283 -77.5t282.5 77.5t205 210.5t75.5 290t-75.5 290t-205 210
t-282.5 77z" />
    <glyph glyph-name="oe" unicode="&#x153;" horiz-adv-x="1796" 
d="M1698 418h-674q14 -126 86.5 -200.5t194.5 -74.5q76 0 145 35.5t117 97.5l127 -120q-71 -80 -171 -130.5t-218 -50.5q-256 0 -381 183q-66 -85 -163.5 -134t-209.5 -49q-195 0 -332 137t-137 332q0 128 62.5 236.5t170.5 171.5t236 63q111 0 207 -47.5t162 -130.5
q58 84 149 131t203 47q103 0 187 -40t135.5 -105.5t78.5 -145.5t27 -165q0 -27 -2 -41zM1272 756q-88 0 -150.5 -48.5t-87.5 -134.5h471q-10 69 -73 126t-160 57zM551 743q-119 0 -202 -87.5t-83 -211.5q0 -123 83.5 -210t201.5 -87q119 0 203 87t84 210q0 124 -84 211.5
t-203 87.5z" />
    <glyph glyph-name="Racute" unicode="&#x154;" horiz-adv-x="1007" 
d="M383 1552l-84 66l246 309l166 -92zM762 0q-69 155 -82 182l-215 457h-168v-393q0 -40 1 -135.5t1 -110.5h-199q0 15 1 110.5t1 135.5v1188h426q176 0 287 -115t111 -283q0 -136 -75 -239.5t-196 -132.5l-2 -5q19 -19 35 -55l180 -383l107 -221h-213zM504 1266h-207v-455
h207q105 0 166 65t61 162q0 98 -61 163t-166 65z" />
    <glyph glyph-name="racute" unicode="&#x155;" horiz-adv-x="747" 
d="M281 1071l-84 66l245 309l166 -92zM713 858l-103 -158q-37 37 -90 37q-79 0 -130.5 -62.5t-51.5 -142.5v-286q0 -40 1 -135.5t1 -110.5h-188q0 15 1 110.5t1 135.5v399q0 40 -1 135.5t-1 110.5h182q0 -88 -6 -115l10 -4q22 50 84.5 93.5t138.5 43.5q48 0 92 -15.5
t60 -35.5z" />
    <glyph glyph-name="Rcaron" unicode="&#x158;" horiz-adv-x="1007" 
d="M322 1860l137 -138l137 138l82 -82l-219 -217l-219 217zM762 0q-69 155 -82 182l-215 457h-168v-393q0 -40 1 -135.5t1 -110.5h-199q0 15 1 110.5t1 135.5v1188h426q176 0 287 -115t111 -283q0 -136 -75 -239.5t-196 -132.5l-2 -5q19 -19 35 -55l180 -383l107 -221h-213z
M504 1266h-207v-455h207q105 0 166 65t61 162q0 98 -61 163t-166 65z" />
    <glyph glyph-name="rcaron" unicode="&#x159;" horiz-adv-x="747" 
d="M276 1317l138 -137l137 137l82 -82l-219 -217l-219 217zM713 858l-103 -158q-37 37 -90 37q-79 0 -130.5 -62.5t-51.5 -142.5v-286q0 -40 1 -135.5t1 -110.5h-188q0 15 1 110.5t1 135.5v399q0 40 -1 135.5t-1 110.5h182q0 -88 -6 -115l10 -4q22 50 84.5 93.5t138.5 43.5
q48 0 92 -15.5t60 -35.5z" />
    <glyph glyph-name="Sacute" unicode="&#x15a;" horiz-adv-x="970" 
d="M25 246l165 90q45 -79 117 -131.5t164 -52.5q108 0 172 56.5t64 143.5q0 43 -15 84t-35.5 70.5t-59 64.5t-66.5 56.5t-78 56.5q-140 99 -193 149q-141 132 -141 289q0 147 101 241.5t263 94.5q128 0 220 -56.5t167 -146.5l-149 -112q-104 143 -238 143q-81 0 -126.5 -45
t-45.5 -111q0 -41 17 -78t51 -70t69 -59.5t88 -63.5q7 -4 10.5 -6.5t9.5 -7t11 -7.5q60 -42 97.5 -70.5t87.5 -76t78.5 -91t49.5 -104.5t21 -127q0 -175 -117 -284.5t-313 -109.5q-82 0 -154.5 23t-127 63t-94.5 86t-70 99zM463 1552l-84 66l246 309l166 -92z" />
    <glyph glyph-name="sacute" unicode="&#x15b;" horiz-adv-x="806" 
d="M649 809l-98 -121q-76 76 -154 76q-40 0 -65 -19.5t-25 -52.5q0 -17 7.5 -32.5t28 -32t32 -24.5t44 -26.5t40.5 -23.5q33 -21 39 -24.5t36.5 -23.5t38 -27.5t31.5 -28t32 -33t23.5 -34.5t21 -41t10.5 -44.5t5 -52.5q0 -110 -84 -189.5t-227 -79.5q-99 0 -179.5 36.5
t-164.5 107.5l117 133q125 -109 227 -109q54 0 90.5 30t36.5 71q0 22 -11.5 43t-37.5 42.5t-45.5 34.5t-57.5 37q-45 27 -69.5 43t-60 45.5t-53.5 56t-32 65t-14 81.5q0 90 73.5 156.5t192.5 66.5q134 0 252 -106zM334 1071l-84 66l246 309l166 -92z" />
    <glyph glyph-name="Scircumflex" unicode="&#x15c;" horiz-adv-x="970" 
d="M25 246l165 90q45 -79 117 -131.5t164 -52.5q108 0 172 56.5t64 143.5q0 43 -15 84t-35.5 70.5t-59 64.5t-66.5 56.5t-78 56.5q-140 99 -193 149q-141 132 -141 289q0 147 101 241.5t263 94.5q128 0 220 -56.5t167 -146.5l-149 -112q-104 143 -238 143q-81 0 -126.5 -45
t-45.5 -111q0 -41 17 -78t51 -70t69 -59.5t88 -63.5q7 -4 10.5 -6.5t9.5 -7t11 -7.5q60 -42 97.5 -70.5t87.5 -76t78.5 -91t49.5 -104.5t21 -127q0 -175 -117 -284.5t-313 -109.5q-82 0 -154.5 23t-127 63t-94.5 86t-70 99zM487 1737l-137 -138l-82 82l219 217l220 -217
l-82 -82z" />
    <glyph glyph-name="scircumflex" unicode="&#x15d;" horiz-adv-x="806" 
d="M649 809l-98 -121q-76 76 -154 76q-40 0 -65 -19.5t-25 -52.5q0 -17 7.5 -32.5t28 -32t32 -24.5t44 -26.5t40.5 -23.5q33 -21 39 -24.5t36.5 -23.5t38 -27.5t31.5 -28t32 -33t23.5 -34.5t21 -41t10.5 -44.5t5 -52.5q0 -110 -84 -189.5t-227 -79.5q-99 0 -179.5 36.5
t-164.5 107.5l117 133q125 -109 227 -109q54 0 90.5 30t36.5 71q0 22 -11.5 43t-37.5 42.5t-45.5 34.5t-57.5 37q-45 27 -69.5 43t-60 45.5t-53.5 56t-32 65t-14 81.5q0 90 73.5 156.5t192.5 66.5q134 0 252 -106zM397 1194l-137 -137l-82 82l219 217l219 -217l-81 -82z" />
    <glyph glyph-name="Scedilla" unicode="&#x15e;" horiz-adv-x="970" 
d="M25 246l165 90q45 -79 117 -131.5t164 -52.5q108 0 172 56.5t64 143.5q0 43 -15 84t-35.5 70.5t-59 64.5t-66.5 56.5t-78 56.5q-140 99 -193 149q-141 132 -141 289q0 147 101 241.5t263 94.5q128 0 220 -56.5t167 -146.5l-149 -112q-104 143 -238 143q-81 0 -126.5 -45
t-45.5 -111q0 -41 17 -78t51 -70t69 -59.5t88 -63.5q7 -4 10.5 -6.5t9.5 -7t11 -7.5q60 -42 97.5 -70.5t87.5 -76t78.5 -91t49.5 -104.5t21 -127q0 -175 -117 -284.5t-313 -109.5q-82 0 -154.5 23t-127 63t-94.5 86t-70 99zM457 -76l-156 -231l105 -76l186 205z" />
    <glyph glyph-name="scedilla" unicode="&#x15f;" horiz-adv-x="806" 
d="M649 809l-98 -121q-76 76 -154 76q-40 0 -65 -19.5t-25 -52.5q0 -17 7.5 -32.5t28 -32t32 -24.5t44 -26.5t40.5 -23.5q33 -21 39 -24.5t36.5 -23.5t38 -27.5t31.5 -28t32 -33t23.5 -34.5t21 -41t10.5 -44.5t5 -52.5q0 -110 -84 -189.5t-227 -79.5q-99 0 -179.5 36.5
t-164.5 107.5l117 133q125 -109 227 -109q54 0 90.5 30t36.5 71q0 22 -11.5 43t-37.5 42.5t-45.5 34.5t-57.5 37q-45 27 -69.5 43t-60 45.5t-53.5 56t-32 65t-14 81.5q0 90 73.5 156.5t192.5 66.5q134 0 252 -106zM383 -76l-156 -231l105 -76l186 205z" />
    <glyph glyph-name="Scaron" unicode="&#x160;" horiz-adv-x="970" 
d="M25 246l165 90q45 -79 117 -131.5t164 -52.5q108 0 172 56.5t64 143.5q0 43 -15 84t-35.5 70.5t-59 64.5t-66.5 56.5t-78 56.5q-140 99 -193 149q-141 132 -141 289q0 147 101 241.5t263 94.5q128 0 220 -56.5t167 -146.5l-149 -112q-104 143 -238 143q-81 0 -126.5 -45
t-45.5 -111q0 -41 17 -78t51 -70t69 -59.5t88 -63.5q7 -4 10.5 -6.5t9.5 -7t11 -7.5q60 -42 97.5 -70.5t87.5 -76t78.5 -91t49.5 -104.5t21 -127q0 -175 -117 -284.5t-313 -109.5q-82 0 -154.5 23t-127 63t-94.5 86t-70 99zM354 1860l138 -138l137 138l82 -82l-219 -217
l-220 217z" />
    <glyph glyph-name="scaron" unicode="&#x161;" horiz-adv-x="806" 
d="M649 809l-98 -121q-76 76 -154 76q-40 0 -65 -19.5t-25 -52.5q0 -17 7.5 -32.5t28 -32t32 -24.5t44 -26.5t40.5 -23.5q33 -21 39 -24.5t36.5 -23.5t38 -27.5t31.5 -28t32 -33t23.5 -34.5t21 -41t10.5 -44.5t5 -52.5q0 -110 -84 -189.5t-227 -79.5q-99 0 -179.5 36.5
t-164.5 107.5l117 133q125 -109 227 -109q54 0 90.5 30t36.5 71q0 22 -11.5 43t-37.5 42.5t-45.5 34.5t-57.5 37q-45 27 -69.5 43t-60 45.5t-53.5 56t-32 65t-14 81.5q0 90 73.5 156.5t192.5 66.5q134 0 252 -106zM260 1317l137 -137l138 137l81 -82l-219 -217l-219 217z
" />
    <glyph glyph-name="Tcommaaccent" unicode="&#x162;" horiz-adv-x="911" 
d="M883 1436v-185q-15 0 -110.5 1t-135.5 1h-84v-1007q0 -40 1 -135.5t1 -110.5h-199q0 15 1 110.5t1 135.5v1007h-84q-40 0 -135 -1t-110 -1v185q15 0 110 -1t135 -1h363q40 0 135.5 1t110.5 1zM416 -76l-156 -231l105 -76l186 205z" />
    <glyph glyph-name="tcommaaccent" unicode="&#x163;" horiz-adv-x="559" 
d="M340 1198q0 -15 -1 -110.5t-1 -135.5v-61q34 0 84.5 1t58.5 1v-184q-13 0 -72 1t-71 1v-465q0 -40 1 -135.5t1 -110.5h-188q0 15 1 110.5t1 135.5v706q0 40 -1 135.5t-1 110.5h188zM240 -76l-156 -231l104 -76l187 205z" />
    <glyph glyph-name="Tcaron" unicode="&#x164;" horiz-adv-x="911" 
d="M883 1436v-185q-15 0 -110.5 1t-135.5 1h-84v-1007q0 -40 1 -135.5t1 -110.5h-199q0 15 1 110.5t1 135.5v1007h-84q-40 0 -135 -1t-110 -1v185q15 0 110 -1t135 -1h363q40 0 135.5 1t110.5 1zM317 1860l138 -138l137 138l82 -82l-219 -217l-219 217z" />
    <glyph glyph-name="tcaron" unicode="&#x165;" horiz-adv-x="716" 
d="M340 1198q0 -15 -1 -110.5t-1 -135.5v-61q34 0 84.5 1t58.5 1v-184q-13 0 -72 1t-71 1v-465q0 -40 1 -135.5t1 -110.5h-188q0 15 1 110.5t1 135.5v706q0 40 -1 135.5t-1 110.5h188zM512 1452v176h176v-223q0 -73 -57 -141l-45 -52l-70 62l45 51q33 41 33 80v47h-82z" />
    <glyph glyph-name="Utilde" unicode="&#x168;" horiz-adv-x="1269" 
d="M299 1434q0 -15 -1 -110.5t-1 -135.5v-696q0 -179 74 -256q99 -105 301 -105q108 0 186.5 24.5t114.5 57.5v975q0 40 -1 135.5t-1 110.5h198q0 -15 -1 -110.5t-1 -135.5v-1053q-53 -73 -181 -124.5t-314 -51.5q-306 0 -451 154q-60 63 -89.5 142.5t-29.5 195.5v737
q0 40 -1 135.5t-1 110.5h199zM401 1554l-127 21q17 93 97.5 150.5t173.5 46.5l196 -27q43 -6 80.5 22.5t46.5 75.5l127 -20q-17 -93 -97 -150.5t-173 -46.5l-197 27q-43 6 -80.5 -23t-46.5 -76z" />
    <glyph glyph-name="utilde" unicode="&#x169;" horiz-adv-x="1044" 
d="M924 891q0 -15 -1 -110.5t-1 -135.5v-561q-51 -44 -152.5 -76.5t-224.5 -32.5q-215 0 -318.5 94t-103.5 253v323q0 40 -1 135.5t-1 110.5h188q0 -15 -1 -110.5t-1 -135.5v-293q0 -213 238 -213q100 0 192 41v465q0 40 -1 135.5t-1 110.5h189zM289 1012l-127 20
q17 93 97 150.5t173 46.5l197 -27q43 -6 80.5 22.5t46.5 75.5l127 -20q-17 -93 -97.5 -150.5t-173.5 -46.5l-196 27q-43 6 -80.5 -22.5t-46.5 -75.5z" />
    <glyph glyph-name="Umacron" unicode="&#x16a;" horiz-adv-x="1269" 
d="M299 1434q0 -15 -1 -110.5t-1 -135.5v-696q0 -179 74 -256q99 -105 301 -105q108 0 186.5 24.5t114.5 57.5v975q0 40 -1 135.5t-1 110.5h198q0 -15 -1 -110.5t-1 -135.5v-1053q-53 -73 -181 -124.5t-314 -51.5q-306 0 -451 154q-60 63 -89.5 142.5t-29.5 195.5v737
q0 40 -1 135.5t-1 110.5h199zM399 1786q7 0 55 -1t68 -1h226q20 0 67.5 1t54.5 1v-135q-7 0 -54.5 1t-67.5 1h-226q-20 0 -68 -1t-55 -1v135z" />
    <glyph glyph-name="umacron" unicode="&#x16b;" horiz-adv-x="1044" 
d="M924 891q0 -15 -1 -110.5t-1 -135.5v-561q-51 -44 -152.5 -76.5t-224.5 -32.5q-215 0 -318.5 94t-103.5 253v323q0 40 -1 135.5t-1 110.5h188q0 -15 -1 -110.5t-1 -135.5v-293q0 -213 238 -213q100 0 192 41v465q0 40 -1 135.5t-1 110.5h189zM287 1243q7 0 55 -1t68 -1
h225q20 0 68 1t55 1v-135q-7 0 -55 1t-68 1h-225q-20 0 -68 -1t-55 -1v135z" />
    <glyph glyph-name="Ubreve" unicode="&#x16c;" horiz-adv-x="1269" 
d="M299 1434q0 -15 -1 -110.5t-1 -135.5v-696q0 -179 74 -256q99 -105 301 -105q108 0 186.5 24.5t114.5 57.5v975q0 40 -1 135.5t-1 110.5h198q0 -15 -1 -110.5t-1 -135.5v-1053q-53 -73 -181 -124.5t-314 -51.5q-306 0 -451 154q-60 63 -89.5 142.5t-29.5 195.5v737
q0 40 -1 135.5t-1 110.5h199zM782 1853l123 -32q-28 -95 -101.5 -147t-178.5 -52t-179 52t-102 147l123 32q15 -53 57 -82.5t101 -29.5t100.5 29t56.5 83z" />
    <glyph glyph-name="ubreve" unicode="&#x16d;" horiz-adv-x="1044" 
d="M924 891q0 -15 -1 -110.5t-1 -135.5v-561q-51 -44 -152.5 -76.5t-224.5 -32.5q-215 0 -318.5 94t-103.5 253v323q0 40 -1 135.5t-1 110.5h188q0 -15 -1 -110.5t-1 -135.5v-293q0 -213 238 -213q100 0 192 41v465q0 40 -1 135.5t-1 110.5h189zM684 1311l123 -33
q-28 -95 -102 -147t-179 -52t-178.5 52t-101.5 147l123 33q15 -54 56.5 -83.5t100.5 -29.5t101 29.5t57 83.5z" />
    <glyph glyph-name="Uring" unicode="&#x16e;" horiz-adv-x="1269" 
d="M299 1434q0 -15 -1 -110.5t-1 -135.5v-696q0 -179 74 -256q99 -105 301 -105q108 0 186.5 24.5t114.5 57.5v975q0 40 -1 135.5t-1 110.5h198q0 -15 -1 -110.5t-1 -135.5v-1053q-53 -73 -181 -124.5t-314 -51.5q-306 0 -451 154q-60 63 -89.5 142.5t-29.5 195.5v737
q0 40 -1 135.5t-1 110.5h199zM635 1976q88 0 150.5 -59.5t62.5 -144.5t-62.5 -145t-150.5 -60t-150.5 60t-62.5 145t62.5 144.5t150.5 59.5zM635 1862q-37 0 -63.5 -26.5t-26.5 -63.5t26.5 -64t63.5 -27t63.5 27t26.5 64t-26.5 63.5t-63.5 26.5z" />
    <glyph glyph-name="uring" unicode="&#x16f;" horiz-adv-x="1044" 
d="M924 891q0 -15 -1 -110.5t-1 -135.5v-561q-51 -44 -152.5 -76.5t-224.5 -32.5q-215 0 -318.5 94t-103.5 253v323q0 40 -1 135.5t-1 110.5h188q0 -15 -1 -110.5t-1 -135.5v-293q0 -213 238 -213q100 0 192 41v465q0 40 -1 135.5t-1 110.5h189zM522 1434q88 0 150.5 -60
t62.5 -145t-62.5 -145t-150.5 -60t-150.5 60t-62.5 145t62.5 145t150.5 60zM522 1319q-37 0 -63.5 -26.5t-26.5 -63.5t26.5 -63.5t63.5 -26.5t63.5 26.5t26.5 63.5t-26.5 63.5t-63.5 26.5z" />
    <glyph glyph-name="Uhungarumlaut" unicode="&#x170;" horiz-adv-x="1269" 
d="M299 1434q0 -15 -1 -110.5t-1 -135.5v-696q0 -179 74 -256q99 -105 301 -105q108 0 186.5 24.5t114.5 57.5v975q0 40 -1 135.5t-1 110.5h198q0 -15 -1 -110.5t-1 -135.5v-1053q-53 -73 -181 -124.5t-314 -51.5q-306 0 -451 154q-60 63 -89.5 142.5t-29.5 195.5v737
q0 40 -1 135.5t-1 110.5h199zM477 1552l-74 62l203 248l96 -78zM735 1552l-73 62l202 248l97 -78z" />
    <glyph glyph-name="uhungarumlaut" unicode="&#x171;" horiz-adv-x="1044" 
d="M924 891q0 -15 -1 -110.5t-1 -135.5v-561q-51 -44 -152.5 -76.5t-224.5 -32.5q-215 0 -318.5 94t-103.5 253v323q0 40 -1 135.5t-1 110.5h188q0 -15 -1 -110.5t-1 -135.5v-293q0 -213 238 -213q100 0 192 41v465q0 40 -1 135.5t-1 110.5h189zM375 1071l-74 62l203 247
l96 -77zM633 1071l-74 62l203 247l96 -77z" />
    <glyph glyph-name="Uogonek" unicode="&#x172;" horiz-adv-x="1269" 
d="M299 1434q0 -15 -1 -110.5t-1 -135.5v-696q0 -179 74 -256q99 -105 301 -105q108 0 186.5 24.5t114.5 57.5v975q0 40 -1 135.5t-1 110.5h198q0 -15 -1 -110.5t-1 -135.5v-1053q-68 -89 -211 -135q-43 -64 -43 -115q0 -29 17.5 -49t48.5 -20q39 0 94 20l45 -129
q-65 -35 -139 -35q-60 0 -104.5 18.5t-69 50t-36 67.5t-11.5 77q0 36 14 80q-46 -6 -100 -6q-306 0 -451 154q-60 63 -89.5 142.5t-29.5 195.5v737q0 40 -1 135.5t-1 110.5h199z" />
    <glyph glyph-name="uogonek" unicode="&#x173;" horiz-adv-x="1044" 
d="M924 891q0 -15 -1 -110.5t-1 -135.5v-557q-66 -59 -179 -88q-43 -64 -43 -115q0 -29 17.5 -49t48.5 -20q39 0 94 20l45 -129q-65 -35 -139 -35q-60 0 -104.5 18.5t-69 50t-36 67.5t-11.5 77q0 45 20 90h-12q-239 0 -350 117q-80 83 -80 217v336q0 40 -1 135.5t-1 110.5
h188q0 -15 -1 -110.5t-1 -135.5v-311q0 -86 61 -140.5t177 -54.5q100 0 192 41v465q0 40 -1 135.5t-1 110.5h189z" />
    <glyph glyph-name="Wcircumflex" unicode="&#x174;" horiz-adv-x="2048" 
d="M1022 1016q-2 -18 -21 -84.5t-40 -120.5l-332 -872l-500 1232q-14 34 -58 139.5t-51 123.5h209q13 -31 38 -97t40 -100l258 -639q18 -45 36 -115t20 -90h8q2 24 17.5 84t39.5 121l338 877l334 -877q56 -144 61 -205h8q2 17 22.5 87.5t39.5 117.5l260 639q15 34 40 100
t38 97h201q-7 -18 -51 -123.5t-58 -139.5l-500 -1232l-332 872q-21 54 -40 120.5t-21 84.5h-4zM1024 1737l-137 -138l-82 82l219 217l219 -217l-82 -82z" />
    <glyph glyph-name="wcircumflex" unicode="&#x175;" 
d="M739 571h-8q0 -38 -69 -204l-179 -428l-338 694q-24 48 -66 131t-63 127h197q31 -70 88 -186l94 -197q26 -54 48 -119.5t24 -85.5h8q4 43 70 205l184 442l199 -452q22 -51 47 -120t26 -85h9q2 20 24.5 87.5t48.5 121.5l99 203q14 30 44 92.5t44 93.5h196l-129 -258
l-333 -684l-189 418q-29 62 -51.5 123.5t-24.5 80.5zM733 1194l-137 -137l-82 82l219 217l219 -217l-82 -82z" />
    <glyph glyph-name="Ycircumflex" unicode="&#x176;" horiz-adv-x="1220" 
d="M522 0q0 15 1 110.5t1 135.5v377l-325 555q-12 20 -50 82t-68 110.5t-38 63.5h221q13 -22 42.5 -75t47.5 -83l193 -328q26 -44 45.5 -87.5t19.5 -53.5h9q0 20 67 141l186 330q17 30 46.5 83t40.5 73h217q-52 -87 -146 -252l-313 -553v-383q0 -40 1 -135.5t1 -110.5h-199z
M614 1737l-137 -138l-82 82l219 217l220 -217l-82 -82z" />
    <glyph glyph-name="ycircumflex" unicode="&#x177;" horiz-adv-x="1024" 
d="M1012 891q-23 -44 -69 -133t-69 -133l-446 -897q-16 -31 -45.5 -92t-42.5 -87h-197q39 86 131 261l168 335l-278 484q-13 22 -49 83.5t-65.5 112.5t-37.5 66h207q11 -17 44.5 -78.5t49.5 -89.5l133 -236q31 -54 55.5 -110.5t26.5 -75.5h9q2 16 25.5 75.5t49.5 110.5
l111 222q19 36 50.5 103t37.5 79h201zM508 1194l-137 -137l-82 82l219 217l219 -217l-82 -82z" />
    <glyph glyph-name="Ydieresis" unicode="&#x178;" horiz-adv-x="1220" 
d="M522 0q0 15 1 110.5t1 135.5v377l-325 555q-12 20 -50 82t-68 110.5t-38 63.5h221q13 -22 42.5 -75t47.5 -83l193 -328q26 -44 45.5 -87.5t19.5 -53.5h9q0 20 67 141l186 330q17 30 46.5 83t40.5 73h217q-52 -87 -146 -252l-313 -553v-383q0 -40 1 -135.5t1 -110.5h-199z
M434 1829q46 0 78.5 -32.5t32.5 -78.5t-32.5 -78t-78.5 -32t-78 32t-32 78t32 78.5t78 32.5zM799 1829q46 0 78 -32.5t32 -78.5t-32 -78t-78 -32t-78.5 32t-32.5 78t32.5 78.5t78.5 32.5z" />
    <glyph glyph-name="Zacute" unicode="&#x179;" horiz-adv-x="1126" 
d="M537 160h268q40 0 135.5 1t110.5 1v-164q-15 0 -110.5 1t-135.5 1h-764l635 1104q43 74 79 120.5t50 53.5l-4 8q-27 -12 -219 -12h-181q-40 0 -135 -1t-110 -1v164q15 0 110 -1t135 -1h676l-633 -1104q-35 -59 -76 -113.5t-55 -60.5l4 -9q30 13 220 13zM508 1552l-84 66
l246 309l166 -92z" />
    <glyph glyph-name="zacute" unicode="&#x17a;" horiz-adv-x="989" 
d="M487 152h187q40 0 135.5 1t110.5 1v-156q-15 0 -110.5 1t-135.5 1h-643l520 647q59 74 108 98l-2 9q-33 -11 -157 -11h-125q-40 0 -135.5 -1t-110.5 -1v152q15 0 110.5 -1t135.5 -1h583l-522 -643q-64 -79 -108 -98l2 -9q33 11 157 11zM463 1071l-84 66l246 309l166 -92z
" />
    <glyph glyph-name="Zdotaccent" unicode="&#x17b;" horiz-adv-x="1126" 
d="M537 160h268q40 0 135.5 1t110.5 1v-164q-15 0 -110.5 1t-135.5 1h-764l635 1104q43 74 79 120.5t50 53.5l-4 8q-27 -12 -219 -12h-181q-40 0 -135 -1t-110 -1v164q15 0 110 -1t135 -1h676l-633 -1104q-35 -59 -76 -113.5t-55 -60.5l4 -9q30 13 220 13zM563 1829
q46 0 78.5 -32.5t32.5 -78.5t-32.5 -78t-78.5 -32t-78 32t-32 78t32 78.5t78 32.5z" />
    <glyph glyph-name="zdotaccent" unicode="&#x17c;" horiz-adv-x="989" 
d="M487 152h187q40 0 135.5 1t110.5 1v-156q-15 0 -110.5 1t-135.5 1h-643l520 647q59 74 108 98l-2 9q-33 -11 -157 -11h-125q-40 0 -135.5 -1t-110.5 -1v152q15 0 110.5 -1t135.5 -1h583l-522 -643q-64 -79 -108 -98l2 -9q33 11 157 11zM500 1286q46 0 78 -32t32 -78
t-32 -78.5t-78 -32.5t-78.5 32.5t-32.5 78.5t32.5 78t78.5 32z" />
    <glyph glyph-name="Zcaron" unicode="&#x17d;" horiz-adv-x="1126" 
d="M537 160h268q40 0 135.5 1t110.5 1v-164q-15 0 -110.5 1t-135.5 1h-764l635 1104q43 74 79 120.5t50 53.5l-4 8q-27 -12 -219 -12h-181q-40 0 -135 -1t-110 -1v164q15 0 110 -1t135 -1h676l-633 -1104q-35 -59 -76 -113.5t-55 -60.5l4 -9q30 13 220 13zM432 1860
l137 -138l138 138l81 -82l-219 -217l-219 217z" />
    <glyph glyph-name="zcaron" unicode="&#x17e;" horiz-adv-x="989" 
d="M487 152h187q40 0 135.5 1t110.5 1v-156q-15 0 -110.5 1t-135.5 1h-643l520 647q59 74 108 98l-2 9q-33 -11 -157 -11h-125q-40 0 -135.5 -1t-110.5 -1v152q15 0 110.5 -1t135.5 -1h583l-522 -643q-64 -79 -108 -98l2 -9q33 11 157 11zM383 1317l137 -137l137 137l82 -82
l-219 -217l-219 217z" />
    <glyph glyph-name="longs" unicode="&#x17f;" horiz-adv-x="542" 
d="M526 1653v-180q-82 0 -135 -56t-53 -153v-1469q0 -40 1 -135.5t1 -110.5h-188q0 15 1 110.5t1 135.5v1469q0 181 105 285t267 104z" />
    <glyph glyph-name="uni018E" unicode="&#x18e;" horiz-adv-x="956" 
d="M854 1434v-1434h-516q-40 0 -135.5 -1t-110.5 -1v184q15 0 110.5 -1t135.5 -1h321v516h-172q-40 0 -135 -1t-110 -1v185q15 0 110 -1t135 -1h172v376h-280q-40 0 -135.5 -1t-110.5 -1v185q15 0 110.5 -1t135.5 -1h475z" />
    <glyph glyph-name="Schwa" unicode="&#x18f;" horiz-adv-x="1570" 
d="M1294 717q0 157 -75.5 290t-205 210t-282.5 77q-133 0 -249 -64t-191 -175l-144 125q103 138 255.5 216.5t328.5 78.5q154 0 294.5 -60t242 -161.5t161.5 -242t60 -294.5t-60 -294.5t-161.5 -242t-242 -161.5t-294.5 -60q-179 0 -331 81.5t-240 221t-88 303.5q0 24 4 70
h1212q6 41 6 82zM1233 455h-899q-46 0 -64 12l-6 -8q13 -9 39 -62q56 -117 171.5 -187.5t256.5 -70.5q162 0 296 86.5t206 229.5z" />
    <glyph glyph-name="uni0191" unicode="&#x191;" horiz-adv-x="870" 
d="M807 1436v-181q-15 0 -110.5 1t-135.5 1h-264v-380h158q40 0 135 1t110 1v-185q-15 0 -110 1t-135 1h-158v-778q0 -163 -115 -278t-278 -115q-121 0 -215 63l82 154q57 -45 133 -45q83 0 140.5 62.5t57.5 150.5v1524h459q40 0 135.5 1t110.5 1z" />
    <glyph glyph-name="florin" unicode="&#x192;" horiz-adv-x="604" 
d="M154 -86v1364q0 181 105 285t267 104v-180q-82 0 -135 -56t-53 -153v-387q34 0 93 1t67 1v-184q-12 0 -80 1t-80 1v-797q0 -181 -105.5 -285t-267.5 -104v180q82 0 135.5 56t53.5 153z" />
    <glyph glyph-name="uni01B5" unicode="&#x1b5;" horiz-adv-x="1126" 
d="M537 160h268q40 0 135.5 1t110.5 1v-164q-15 0 -110.5 1t-135.5 1h-764l383 668q-40 0 -135.5 -1t-110.5 -1v176q15 0 110.5 -1t135.5 -1h100l152 264q43 74 79 120.5t50 53.5l-4 8q-27 -12 -219 -12h-181q-40 0 -135 -1t-110 -1v164q15 0 110 -1t135 -1h676l-342 -594h8
q40 0 135.5 1t110.5 1v-176q-15 0 -110.5 1t-135.5 1h-106l-193 -338q-35 -59 -76 -113.5t-55 -60.5l4 -9q30 13 220 13z" />
    <glyph glyph-name="uni01B6" unicode="&#x1b6;" horiz-adv-x="989" 
d="M537 143h147q40 0 135.5 1t110.5 1v-147q-15 0 -110.5 1t-135.5 1h-653l315 393q-70 -2 -184 -2v156q15 0 110.5 -1t135.5 -1h61l39 49q53 66 96 107t60 49l-2 8q-30 -10 -220 -10h-73q-40 0 -135.5 -1.5t-110.5 -1.5v148q15 0 110.5 -1t135.5 -1h589l-284 -346
q40 0 103.5 1t72.5 1v-156q-15 0 -110.5 1t-135.5 1h-55l-78 -96q-133 -146 -156 -156l2 -8q30 10 220 10z" />
    <glyph glyph-name="Acaron" unicode="&#x1cd;" 
d="M1151 143l-27 58h-764l-24 -58q-49 -106 -64 -143h-211q5 11 26 55.5t42.5 91.5t34.5 76l571 1288l588 -1288q13 -31 54 -117.5t48 -105.5h-211q-23 56 -63 143zM504 381h473q54 0 72 -12l4 8q-12 6 -33 53l-227 498q-52 112 -52 153h-8q0 -42 -49 -153l-221 -498
q-19 -45 -35 -53l4 -8q4 4 25.5 8t46.5 4zM598 1860l137 -138l137 138l82 -82l-219 -217l-219 217z" />
    <glyph glyph-name="acaron" unicode="&#x1ce;" horiz-adv-x="999" 
d="M354 1317l138 -137l137 137l82 -82l-219 -217l-220 217zM483 -25q-177 0 -285 94t-108 246q0 141 103.5 224.5t257.5 83.5q78 0 139 -26.5t94 -68.5l8 4q-14 43 -18 84q-6 61 -59.5 96.5t-122.5 35.5q-115 0 -240 -72l-74 153q158 86 314 86q106 0 193.5 -41.5
t133.5 -121.5q37 -64 37 -162v-500q-63 -44 -164 -79.5t-209 -35.5zM483 139q54 0 107 16.5t82 37.5v174q-24 38 -82.5 71t-138.5 33q-76 0 -130.5 -43t-54.5 -113q0 -82 58.5 -129t158.5 -47z" />
    <glyph glyph-name="uni01CF" unicode="&#x1cf;" horiz-adv-x="481" 
d="M141 1434h199q0 -15 -1 -110.5t-1 -135.5v-942q0 -40 1 -135.5t1 -110.5h-199q0 15 1 110.5t1 135.5v942q0 40 -1 135.5t-1 110.5zM102 1860l138 -138l137 138l82 -82l-219 -217l-220 217z" />
    <glyph glyph-name="uni01D0" unicode="&#x1d0;" horiz-adv-x="512" 
d="M164 246v399q0 40 -1 135.5t-1 110.5h188q0 -15 -1 -110.5t-1 -135.5v-399q0 -40 1 -135.5t1 -110.5h-188q0 15 1 110.5t1 135.5zM119 1317l137 -137l137 137l82 -82l-219 -217l-219 217z" />
    <glyph glyph-name="uni01D1" unicode="&#x1d1;" horiz-adv-x="1679" 
d="M840 1475q154 0 294 -60t241.5 -161.5t161.5 -242t60 -294.5t-60 -294.5t-161.5 -242t-241.5 -161.5t-294 -60t-294.5 60t-242 161.5t-161.5 242t-60 294.5t60 294.5t161.5 242t242 161.5t294.5 60zM840 1294q-115 0 -219 -45.5t-180 -123t-120.5 -184.5t-44.5 -224
q0 -157 75.5 -290t205.5 -210.5t283 -77.5t282.5 77.5t205 210.5t75.5 290t-75.5 290t-205 210t-282.5 77zM702 1860l138 -138l137 138l82 -82l-219 -217l-219 217z" />
    <glyph glyph-name="uni01D2" unicode="&#x1d2;" horiz-adv-x="1103" 
d="M551 743q-119 0 -202 -87.5t-83 -211.5q0 -123 83.5 -210t201.5 -87q119 0 203 87t84 210q0 124 -84 211.5t-203 87.5zM551 915q195 0 333 -138t138 -333q0 -128 -63 -236t-171.5 -170.5t-236.5 -62.5q-195 0 -332 137t-137 332q0 128 62.5 236.5t170.5 171.5t236 63z
M414 1317l137 -137l137 137l82 -82l-219 -217l-219 217z" />
    <glyph glyph-name="uni01D3" unicode="&#x1d3;" horiz-adv-x="1269" 
d="M299 1434q0 -15 -1 -110.5t-1 -135.5v-696q0 -179 74 -256q99 -105 301 -105q108 0 186.5 24.5t114.5 57.5v975q0 40 -1 135.5t-1 110.5h198q0 -15 -1 -110.5t-1 -135.5v-1053q-53 -73 -181 -124.5t-314 -51.5q-306 0 -451 154q-60 63 -89.5 142.5t-29.5 195.5v737
q0 40 -1 135.5t-1 110.5h199zM489 1860l138 -138l137 138l82 -82l-219 -217l-219 217z" />
    <glyph glyph-name="uni01D4" unicode="&#x1d4;" horiz-adv-x="1044" 
d="M924 891q0 -15 -1 -110.5t-1 -135.5v-561q-51 -44 -152.5 -76.5t-224.5 -32.5q-215 0 -318.5 94t-103.5 253v323q0 40 -1 135.5t-1 110.5h188q0 -15 -1 -110.5t-1 -135.5v-293q0 -213 238 -213q100 0 192 41v465q0 40 -1 135.5t-1 110.5h189zM387 1317l137 -137l138 137
l81 -82l-219 -217l-219 217z" />
    <glyph glyph-name="uni01DD" unicode="&#x1dd;" horiz-adv-x="1044" 
d="M102 473h674q-14 126 -86 200.5t-194 74.5q-76 0 -145.5 -36t-117.5 -98l-127 121q71 79 171.5 129.5t218.5 50.5q113 0 203 -38t147 -104.5t87 -153t30 -185.5q0 -199 -122 -329t-313 -130q-103 0 -187 40t-135.5 106t-78.5 146t-27 165q0 27 2 41zM528 135
q88 0 150.5 48t87.5 134h-471q10 -69 73 -125.5t160 -56.5z" />
    <glyph glyph-name="uni01E2" unicode="&#x1e2;" horiz-adv-x="1814" 
d="M961 0v201h-570l-29 -45l-98 -156h-244q124 176 179 260l762 1174h475q40 0 135 1t110 1v-185q-15 0 -110 1t-135 1h-281v-376h180q40 0 135.5 1t110.5 1v-189q-15 0 -110.5 1t-135.5 1h-180v-504h322q40 0 135 1t110 1v-192q-15 0 -110 1t-135 1h-516zM496 369
q12 12 71 12h394v561q0 127 16 164l-10 4q-9 -29 -19 -48t-47 -77l-360 -555q-23 -35 -49 -53zM877 1786q7 0 54.5 -1t67.5 -1h226q20 0 68 1t55 1v-135q-7 0 -55 1t-68 1h-226q-20 0 -67.5 -1t-54.5 -1v135z" />
    <glyph glyph-name="uni01E3" unicode="&#x1e3;" horiz-adv-x="1626" 
d="M682 526l8 4q-17 51 -20 86q-7 61 -60.5 96.5t-122.5 35.5q-122 0 -239 -72l-74 153q158 86 313 86q93 0 174.5 -33t129.5 -96q123 129 311 129q103 0 187 -40t135.5 -105.5t78.5 -145.5t27 -165q0 -27 -2 -41h-674q14 -126 86.5 -200.5t194.5 -74.5q76 0 145 35.5
t117 97.5l127 -120q-71 -80 -171 -130.5t-218 -50.5q-184 0 -306 101q-67 -41 -160 -71t-190 -30q-174 0 -285.5 95.5t-111.5 248.5q0 139 104.5 223.5t259.5 84.5q78 0 141.5 -29t94.5 -72zM1102 756q-88 0 -150.5 -48.5t-87.5 -134.5h471q-10 69 -73 126t-160 57zM479 139
q54 0 105.5 16.5t83.5 37.5v174q-26 37 -84.5 68.5t-137.5 31.5q-73 0 -126.5 -40.5t-53.5 -107.5q0 -82 58 -131t155 -49zM561 1243q7 0 55 -1t68 -1h225q20 0 68 1t55 1v-135q-7 0 -55 1t-68 1h-225q-20 0 -68 -1t-55 -1v135z" />
    <glyph glyph-name="Gcaron" unicode="&#x1e6;" horiz-adv-x="1570" 
d="M1241 455h-178q-40 0 -135.5 -1t-110.5 -1v184q15 0 110.5 -1t135.5 -1h432q4 -46 4 -70q0 -164 -88 -303.5t-240 -221t-331 -81.5q-154 0 -294.5 60t-242 161.5t-161.5 242t-60 294.5t60 294.5t161.5 242t242 161.5t294.5 60q175 0 327.5 -78.5t255.5 -216.5l-143 -125
q-75 111 -191 175t-249 64q-115 0 -219 -45.5t-180 -123t-120.5 -184.5t-44.5 -224q0 -157 75.5 -290t205.5 -210.5t283 -77.5q143 0 265 74t167 184q18 48 39 62l-6 8q-18 -12 -64 -12zM700 1860l138 -138l137 138l82 -82l-219 -217l-220 217z" />
    <glyph glyph-name="gcaron" unicode="&#x1e7;" horiz-adv-x="1136" 
d="M799 -82v49q0 67 10 90l-8 4q-89 -86 -256 -86q-93 0 -173 31.5t-140.5 90t-95 149.5t-34.5 203q0 207 130.5 336.5t336.5 129.5q75 0 141.5 -14t118 -39.5t85.5 -48t69 -51.5v-844q0 -199 -122.5 -296t-342.5 -97q-221 0 -366 110l104 140q105 -86 262 -86
q134 0 207.5 56.5t73.5 172.5zM799 274v394q-104 75 -230 75q-125 0 -203.5 -85t-78.5 -209q0 -132 71.5 -217t202.5 -85q81 0 142.5 37.5t95.5 89.5zM436 1317l137 -137l138 137l82 -82l-220 -217l-219 217z" />
    <glyph glyph-name="uni01E8" unicode="&#x1e8;" horiz-adv-x="1187" 
d="M1147 1434l-252 -242l-401 -393l436 -541l213 -258h-252q-13 15 -51.5 64t-59.5 75l-422 527l-61 -60v-360q0 -40 1 -135.5t1 -110.5h-199q0 15 1 110.5t1 135.5v942q0 40 -1 135.5t-1 110.5h199q0 -15 -1 -110.5t-1 -135.5v-195q0 -50 -4.5 -100.5t-9.5 -61.5l8 -4
q2 4 10.5 16.5t34 42t57.5 60.5l379 371q30 29 70.5 71t44.5 46h260zM408 1860l137 -138l137 138l82 -82l-219 -217l-219 217z" />
    <glyph glyph-name="uni01E9" unicode="&#x1e9;" horiz-adv-x="983" 
d="M668 891h243q-123 -117 -229 -223l-160 -158l217 -264q38 -46 203 -246h-235q-56 73 -107 135l-209 262l-53 -39v-112q0 -40 1 -135.5t1 -110.5h-188q0 15 1 110.5t1 135.5v1136q0 40 -1 135.5t-1 110.5h188q0 -15 -1 -110.5t-1 -135.5v-616q0 -197 -12 -225l8 -4
q21 35 147 161l74 74q2 2 113 119zM373 1860l137 -138l137 138l82 -82l-219 -217l-219 217z" />
    <glyph glyph-name="uni01EA" unicode="&#x1ea;" horiz-adv-x="1679" 
d="M840 1475q154 0 294 -60t241.5 -161.5t161.5 -242t60 -294.5q0 -246 -143 -442.5t-369 -274.5q-43 -64 -43 -115q0 -29 17.5 -49t48.5 -20q39 0 94 20l45 -129q-65 -35 -139 -35q-60 0 -104.5 18.5t-69 50t-36 67.5t-11.5 77q0 44 14 76q-20 -2 -61 -2q-154 0 -294.5 60
t-242 161.5t-161.5 242t-60 294.5t60 294.5t161.5 242t242 161.5t294.5 60zM840 1294q-115 0 -219 -45.5t-180 -123t-120.5 -184.5t-44.5 -224q0 -157 75.5 -290t205.5 -210.5t283 -77.5t282.5 77.5t205 210.5t75.5 290t-75.5 290t-205 210t-282.5 77z" />
    <glyph glyph-name="uni01EB" unicode="&#x1eb;" horiz-adv-x="1103" 
d="M551 915q195 0 333 -138t138 -333q0 -153 -90 -275.5t-230 -168.5q-43 -64 -43 -115q0 -29 17.5 -49t48.5 -20q39 0 94 20l45 -129q-65 -35 -139 -35q-60 0 -104.5 18.5t-69 50t-36 67.5t-11.5 77q0 44 20 92q-186 9 -314 143.5t-128 323.5q0 128 62.5 236.5t170.5 171.5
t236 63zM551 743q-119 0 -202 -87.5t-83 -211.5q0 -123 83.5 -210t201.5 -87q119 0 203 87t84 210q0 124 -84 211.5t-203 87.5z" />
    <glyph glyph-name="uni01EC" unicode="&#x1ec;" horiz-adv-x="1679" 
d="M840 1475q154 0 294 -60t241.5 -161.5t161.5 -242t60 -294.5q0 -246 -143 -442.5t-369 -274.5q-43 -64 -43 -115q0 -29 17.5 -49t48.5 -20q39 0 94 20l45 -129q-65 -35 -139 -35q-60 0 -104.5 18.5t-69 50t-36 67.5t-11.5 77q0 44 14 76q-20 -2 -61 -2q-154 0 -294.5 60
t-242 161.5t-161.5 242t-60 294.5t60 294.5t161.5 242t242 161.5t294.5 60zM840 1294q-115 0 -219 -45.5t-180 -123t-120.5 -184.5t-44.5 -224q0 -157 75.5 -290t205.5 -210.5t283 -77.5t282.5 77.5t205 210.5t75.5 290t-75.5 290t-205 210t-282.5 77zM604 1786q7 0 55 -1
t68 -1h225q20 0 68 1t55 1v-135q-7 0 -55 1t-68 1h-225q-20 0 -68 -1t-55 -1v135z" />
    <glyph glyph-name="uni01ED" unicode="&#x1ed;" horiz-adv-x="1103" 
d="M551 915q195 0 333 -138t138 -333q0 -153 -90 -275.5t-230 -168.5q-43 -64 -43 -115q0 -29 17.5 -49t48.5 -20q39 0 94 20l45 -129q-65 -35 -139 -35q-60 0 -104.5 18.5t-69 50t-36 67.5t-11.5 77q0 44 20 92q-186 9 -314 143.5t-128 323.5q0 128 62.5 236.5t170.5 171.5
t236 63zM551 743q-119 0 -202 -87.5t-83 -211.5q0 -123 83.5 -210t201.5 -87q119 0 203 87t84 210q0 124 -84 211.5t-203 87.5zM315 1243q7 0 55 -1t68 -1h226q20 0 67.5 1t54.5 1v-135q-7 0 -54.5 1t-67.5 1h-226q-20 0 -68 -1t-55 -1v135z" />
    <glyph glyph-name="uni01F0" unicode="&#x1f0;" horiz-adv-x="512" 
d="M-25 -475v180q82 0 135.5 56t53.5 153v731q0 40 -1 135.5t-1 110.5h188q0 -15 -1 -110.5t-1 -135.5v-731q0 -181 -105.5 -285t-267.5 -104zM119 1317l137 -137l137 137l82 -82l-219 -217l-219 217z" />
    <glyph glyph-name="Gacute" unicode="&#x1f4;" horiz-adv-x="1570" 
d="M1241 455h-178q-40 0 -135.5 -1t-110.5 -1v184q15 0 110.5 -1t135.5 -1h432q4 -46 4 -70q0 -164 -88 -303.5t-240 -221t-331 -81.5q-154 0 -294.5 60t-242 161.5t-161.5 242t-60 294.5t60 294.5t161.5 242t242 161.5t294.5 60q175 0 327.5 -78.5t255.5 -216.5l-143 -125
q-75 111 -191 175t-249 64q-115 0 -219 -45.5t-180 -123t-120.5 -184.5t-44.5 -224q0 -157 75.5 -290t205.5 -210.5t283 -77.5q143 0 265 74t167 184q18 48 39 62l-6 8q-18 -12 -64 -12zM772 1552l-84 66l246 309l166 -92z" />
    <glyph glyph-name="gacute" unicode="&#x1f5;" horiz-adv-x="1136" 
d="M799 -82v49q0 67 10 90l-8 4q-89 -86 -256 -86q-93 0 -173 31.5t-140.5 90t-95 149.5t-34.5 203q0 207 130.5 336.5t336.5 129.5q75 0 141.5 -14t118 -39.5t85.5 -48t69 -51.5v-844q0 -199 -122.5 -296t-342.5 -97q-221 0 -366 110l104 140q105 -86 262 -86
q134 0 207.5 56.5t73.5 172.5zM799 274v394q-104 75 -230 75q-125 0 -203.5 -85t-78.5 -209q0 -132 71.5 -217t202.5 -85q81 0 142.5 37.5t95.5 89.5zM502 1071l-84 66l246 309l165 -92z" />
    <glyph glyph-name="uni01F8" unicode="&#x1f8;" horiz-adv-x="1476" 
d="M1374 -57l-921 931q-126 131 -164 183l-6 -4q14 -70 14 -152v-655q0 -40 1 -135.5t1 -110.5h-199q0 15 1 110.5t1 135.5v1245l922 -932q129 -133 164 -182l6 4q-14 70 -14 151v656q0 40 -1 135.5t-1 110.5h198q0 -15 -1 -110.5t-1 -135.5v-1245zM868 1618l-84 -66
l-327 283l166 92z" />
    <glyph glyph-name="uni01F9" unicode="&#x1f9;" horiz-adv-x="1077" 
d="M336 891q-4 -100 -10 -117l8 -4q26 62 98.5 103.5t169.5 41.5q158 0 245 -91t87 -253v-325q0 -40 1 -135.5t1 -110.5h-188q0 15 1 110.5t1 135.5v286q0 116 -52.5 172t-136.5 56q-93 0 -158 -65t-65 -175v-274q0 -40 1 -135.5t1 -110.5h-188q0 15 1 110.5t1 135.5v399
q0 40 -1 135.5t-1 110.5h184zM686 1137l-84 -66l-328 283l166 92z" />
    <glyph glyph-name="AEacute" unicode="&#x1fc;" horiz-adv-x="1814" 
d="M961 0v201h-570l-29 -45l-98 -156h-244q124 176 179 260l762 1174h475q40 0 135 1t110 1v-185q-15 0 -110 1t-135 1h-281v-376h180q40 0 135.5 1t110.5 1v-189q-15 0 -110.5 1t-135.5 1h-180v-504h322q40 0 135 1t110 1v-192q-15 0 -110 1t-135 1h-516zM496 369
q12 12 71 12h394v561q0 127 16 164l-10 4q-9 -29 -19 -48t-47 -77l-360 -555q-23 -35 -49 -53zM1104 1614l-84 65l246 310l166 -93z" />
    <glyph glyph-name="aeacute" unicode="&#x1fd;" horiz-adv-x="1626" 
d="M682 526l8 4q-17 51 -20 86q-7 61 -60.5 96.5t-122.5 35.5q-122 0 -239 -72l-74 153q158 86 313 86q93 0 174.5 -33t129.5 -96q123 129 311 129q103 0 187 -40t135.5 -105.5t78.5 -145.5t27 -165q0 -27 -2 -41h-674q14 -126 86.5 -200.5t194.5 -74.5q76 0 145 35.5
t117 97.5l127 -120q-71 -80 -171 -130.5t-218 -50.5q-184 0 -306 101q-67 -41 -160 -71t-190 -30q-174 0 -285.5 95.5t-111.5 248.5q0 139 104.5 223.5t259.5 84.5q78 0 141.5 -29t94.5 -72zM1102 756q-88 0 -150.5 -48.5t-87.5 -134.5h471q-10 69 -73 126t-160 57zM479 139
q54 0 105.5 16.5t83.5 37.5v174q-26 37 -84.5 68.5t-137.5 31.5q-73 0 -126.5 -40.5t-53.5 -107.5q0 -82 58 -131t155 -49zM784 1071l-84 66l246 309l166 -92z" />
    <glyph glyph-name="Oslashacute" unicode="&#x1fe;" horiz-adv-x="1679" 
d="M840 1475q256 0 465 -162l120 123l134 -133l-123 -121q161 -208 161 -465q0 -154 -60 -294.5t-161.5 -242t-241.5 -161.5t-294 -60q-261 0 -467 160l-119 -121l-133 133l121 119q-160 206 -160 467q0 154 60 294.5t161.5 242t242 161.5t294.5 60zM1403 717
q0 178 -103 332l-796 -797q152 -113 336 -113q153 0 282.5 77.5t205 210.5t75.5 290zM840 1294q-115 0 -219 -45.5t-180 -123t-120.5 -184.5t-44.5 -224q0 -185 103 -332l795 795q-146 114 -334 114zM805 1552l-84 66l246 309l166 -92z" />
    <glyph glyph-name="oslashacute" unicode="&#x1ff;" horiz-adv-x="1103" 
d="M551 915q144 0 260 -77l76 75l133 -133l-78 -75q80 -121 80 -261q0 -128 -63 -236t-171.5 -170.5t-236.5 -62.5q-142 0 -260 78l-76 -76l-133 134l78 73q-78 118 -78 260q0 128 62.5 236.5t170.5 171.5t236 63zM809 573l-391 -391q62 -35 133 -35q119 0 203 87t84 210
q0 66 -29 129zM551 743q-119 0 -202 -87.5t-83 -211.5q0 -68 27 -127l391 392q-61 34 -133 34zM551 1051l-84 65l246 309l166 -92z" />
    <glyph glyph-name="uni0202" unicode="&#x202;" 
d="M1151 143l-27 58h-764l-24 -58q-49 -106 -64 -143h-211q5 11 26 55.5t42.5 91.5t34.5 76l571 1288l588 -1288q13 -31 54 -117.5t48 -105.5h-211q-23 56 -63 143zM504 381h473q54 0 72 -12l4 8q-12 6 -33 53l-227 498q-52 112 -52 153h-8q0 -42 -49 -153l-221 -498
q-19 -45 -35 -53l4 -8q4 4 25.5 8t46.5 4zM586 1608l-140 39q29 99 106.5 153.5t184.5 54.5t184.5 -54.5t106.5 -153.5l-139 -39q-15 50 -54.5 77t-97.5 27q-120 0 -151 -104z" />
    <glyph glyph-name="uni0203" unicode="&#x203;" horiz-adv-x="999" 
d="M350 1065l-139 39q29 99 106.5 154t184.5 55t184.5 -55t106.5 -154l-140 -39q-31 104 -151 104q-58 0 -97.5 -27t-54.5 -77zM483 -25q-177 0 -285 94t-108 246q0 141 103.5 224.5t257.5 83.5q78 0 139 -26.5t94 -68.5l8 4q-14 43 -18 84q-6 61 -59.5 96.5t-122.5 35.5
q-115 0 -240 -72l-74 153q158 86 314 86q106 0 193.5 -41.5t133.5 -121.5q37 -64 37 -162v-500q-63 -44 -164 -79.5t-209 -35.5zM483 139q54 0 107 16.5t82 37.5v174q-24 38 -82.5 71t-138.5 33q-76 0 -130.5 -43t-54.5 -113q0 -82 58.5 -129t158.5 -47z" />
    <glyph glyph-name="uni0206" unicode="&#x206;" horiz-adv-x="956" 
d="M102 0v1434h476q40 0 135 1t110 1v-185q-15 0 -110 1t-135 1h-281v-376h180q40 0 135.5 1t110.5 1v-189q-15 0 -110.5 1t-135.5 1h-180v-504h321q40 0 135.5 1t110.5 1v-192q-15 0 -110.5 1t-135.5 1h-516zM317 1608l-139 39q29 99 106.5 153.5t184.5 54.5t184.5 -54.5
t106.5 -153.5l-139 -39q-15 50 -54.5 77t-97.5 27t-97.5 -27t-54.5 -77z" />
    <glyph glyph-name="uni0207" unicode="&#x207;" horiz-adv-x="1044" 
d="M942 418h-674q14 -126 86.5 -200.5t194.5 -74.5q76 0 145 35.5t117 97.5l127 -120q-71 -80 -171 -130.5t-218 -50.5q-113 0 -203 38.5t-147 104.5t-87 153t-30 186q0 199 121.5 328.5t312.5 129.5q103 0 187 -40t135.5 -105.5t78.5 -145.5t27 -165q0 -27 -2 -41zM516 756
q-88 0 -150 -48.5t-87 -134.5h471q-10 69 -73.5 126t-160.5 57zM379 1065l-139 39q29 99 106 154t184 55t184.5 -55t106.5 -154l-139 -39q-15 50 -54.5 77t-97.5 27q-120 0 -151 -104z" />
    <glyph glyph-name="uni020A" unicode="&#x20a;" horiz-adv-x="481" 
d="M141 1434h199q0 -15 -1 -110.5t-1 -135.5v-942q0 -40 1 -135.5t1 -110.5h-199q0 15 1 110.5t1 135.5v942q0 40 -1 135.5t-1 110.5zM88 1608l-139 39q29 99 106.5 153.5t184.5 54.5t184 -54.5t106 -153.5l-139 -39q-31 104 -151 104q-58 0 -97.5 -27t-54.5 -77z" />
    <glyph glyph-name="uni020B" unicode="&#x20b;" horiz-adv-x="512" 
d="M164 246v399q0 40 -1 135.5t-1 110.5h188q0 -15 -1 -110.5t-1 -135.5v-399q0 -40 1 -135.5t1 -110.5h-188q0 15 1 110.5t1 135.5zM104 1065l-139 39q29 99 106.5 154t184.5 55t184.5 -55t106.5 -154l-139 -39q-15 50 -54.5 77t-97.5 27t-97.5 -27t-54.5 -77z" />
    <glyph glyph-name="uni020E" unicode="&#x20e;" horiz-adv-x="1679" 
d="M840 1475q154 0 294 -60t241.5 -161.5t161.5 -242t60 -294.5t-60 -294.5t-161.5 -242t-241.5 -161.5t-294 -60t-294.5 60t-242 161.5t-161.5 242t-60 294.5t60 294.5t161.5 242t242 161.5t294.5 60zM840 1294q-115 0 -219 -45.5t-180 -123t-120.5 -184.5t-44.5 -224
q0 -157 75.5 -290t205.5 -210.5t283 -77.5t282.5 77.5t205 210.5t75.5 290t-75.5 290t-205 210t-282.5 77zM688 1608l-139 39q29 99 106.5 153.5t184.5 54.5t184 -54.5t106 -153.5l-139 -39q-31 104 -151 104q-58 0 -97.5 -27t-54.5 -77z" />
    <glyph glyph-name="uni020F" unicode="&#x20f;" horiz-adv-x="1103" 
d="M551 743q-119 0 -202 -87.5t-83 -211.5q0 -123 83.5 -210t201.5 -87q119 0 203 87t84 210q0 124 -84 211.5t-203 87.5zM551 915q195 0 333 -138t138 -333q0 -128 -63 -236t-171.5 -170.5t-236.5 -62.5q-195 0 -332 137t-137 332q0 128 62.5 236.5t170.5 171.5t236 63z
M399 1065l-139 39q29 99 106.5 154t184.5 55t184.5 -55t106.5 -154l-140 -39q-31 104 -151 104q-58 0 -97.5 -27t-54.5 -77z" />
    <glyph glyph-name="uni0212" unicode="&#x212;" horiz-adv-x="1007" 
d="M305 1608l-139 39q29 99 106.5 153.5t184.5 54.5t184.5 -54.5t106.5 -153.5l-140 -39q-31 104 -151 104q-58 0 -97.5 -27t-54.5 -77zM762 0q-69 155 -82 182l-215 457h-168v-393q0 -40 1 -135.5t1 -110.5h-199q0 15 1 110.5t1 135.5v1188h426q176 0 287 -115t111 -283
q0 -136 -75 -239.5t-196 -132.5l-2 -5q19 -19 35 -55l180 -383l107 -221h-213zM504 1266h-207v-455h207q105 0 166 65t61 162q0 98 -61 163t-166 65z" />
    <glyph glyph-name="uni0213" unicode="&#x213;" horiz-adv-x="747" 
d="M260 1065l-139 39q29 99 106.5 154t184.5 55t184 -55t106 -154l-139 -39q-31 104 -151 104q-58 0 -97.5 -27t-54.5 -77zM713 858l-103 -158q-37 37 -90 37q-79 0 -130.5 -62.5t-51.5 -142.5v-286q0 -40 1 -135.5t1 -110.5h-188q0 15 1 110.5t1 135.5v399q0 40 -1 135.5
t-1 110.5h182q0 -88 -6 -115l10 -4q22 50 84.5 93.5t138.5 43.5q48 0 92 -15.5t60 -35.5z" />
    <glyph glyph-name="uni0216" unicode="&#x216;" horiz-adv-x="1275" 
d="M299 1434q0 -15 -1 -110.5t-1 -135.5v-696q0 -179 74 -256q99 -105 301 -105q108 0 186.5 24.5t114.5 57.5v975q0 40 -1 135.5t-1 110.5h198q0 -15 -1 -110.5t-1 -135.5v-1053q-53 -73 -181 -124.5t-314 -51.5q-306 0 -451 154q-60 63 -89.5 142.5t-29.5 195.5v737
q0 40 -1 135.5t-1 110.5h199zM489 1608l-139 39q29 99 106.5 153.5t184.5 54.5t184.5 -54.5t106.5 -153.5l-139 -39q-15 50 -54.5 77t-97.5 27t-97.5 -27t-54.5 -77z" />
    <glyph glyph-name="uni0217" unicode="&#x217;" horiz-adv-x="1044" 
d="M924 891q0 -15 -1 -110.5t-1 -135.5v-561q-51 -44 -152.5 -76.5t-224.5 -32.5q-215 0 -318.5 94t-103.5 253v323q0 40 -1 135.5t-1 110.5h188q0 -15 -1 -110.5t-1 -135.5v-293q0 -213 238 -213q100 0 192 41v465q0 40 -1 135.5t-1 110.5h189zM367 1065l-140 39
q29 99 106.5 154t184.5 55t184.5 -55t106.5 -154l-139 -39q-15 50 -54.5 77t-97.5 27q-120 0 -151 -104z" />
    <glyph glyph-name="Scommaaccent" unicode="&#x218;" horiz-adv-x="970" 
d="M25 246l165 90q45 -79 117 -131.5t164 -52.5q108 0 172 56.5t64 143.5q0 43 -15 84t-35.5 70.5t-59 64.5t-66.5 56.5t-78 56.5q-140 99 -193 149q-141 132 -141 289q0 147 101 241.5t263 94.5q128 0 220 -56.5t167 -146.5l-149 -112q-104 143 -238 143q-81 0 -126.5 -45
t-45.5 -111q0 -41 17 -78t51 -70t69 -59.5t88 -63.5q7 -4 10.5 -6.5t9.5 -7t11 -7.5q60 -42 97.5 -70.5t87.5 -76t78.5 -91t49.5 -104.5t21 -127q0 -175 -117 -284.5t-313 -109.5q-82 0 -154.5 23t-127 63t-94.5 86t-70 99zM457 -76l-156 -231l105 -76l186 205z" />
    <glyph glyph-name="scommaaccent" unicode="&#x219;" horiz-adv-x="806" 
d="M649 809l-98 -121q-76 76 -154 76q-40 0 -65 -19.5t-25 -52.5q0 -17 7.5 -32.5t28 -32t32 -24.5t44 -26.5t40.5 -23.5q33 -21 39 -24.5t36.5 -23.5t38 -27.5t31.5 -28t32 -33t23.5 -34.5t21 -41t10.5 -44.5t5 -52.5q0 -110 -84 -189.5t-227 -79.5q-99 0 -179.5 36.5
t-164.5 107.5l117 133q125 -109 227 -109q54 0 90.5 30t36.5 71q0 22 -11.5 43t-37.5 42.5t-45.5 34.5t-57.5 37q-45 27 -69.5 43t-60 45.5t-53.5 56t-32 65t-14 81.5q0 90 73.5 156.5t192.5 66.5q134 0 252 -106zM383 -76l-156 -231l105 -76l186 205z" />
    <glyph glyph-name="uni021E" unicode="&#x21e;" horiz-adv-x="1277" 
d="M1176 1188v-942q0 -40 1 -135.5t1 -110.5h-199q0 15 1 110.5t1 135.5v440h-684v-440q0 -40 1 -135.5t1 -110.5h-199q0 15 1 110.5t1 135.5v942q0 40 -1 135.5t-1 110.5h199q0 -15 -1 -110.5t-1 -135.5v-322h684v322q0 40 -1 135.5t-1 110.5h199q0 -15 -1 -110.5
t-1 -135.5zM502 1860l137 -138l137 138l82 -82l-219 -217l-219 217z" />
    <glyph glyph-name="uni021F" unicode="&#x21f;" horiz-adv-x="1079" 
d="M340 1628q0 -15 -1 -110.5t-1 -135.5v-383q0 -123 -23 -188l9 -4q100 108 262 108q155 0 253.5 -89t98.5 -240v-340q0 -40 1 -135.5t1 -110.5h-188q0 15 1 110.5t1 135.5v307q0 55 -17 96t-46.5 63.5t-63.5 33t-74 10.5q-105 0 -160 -67t-55 -193v-250q0 -40 1 -135.5
t1 -110.5h-188q0 15 1 110.5t1 135.5v1136q0 40 -1 135.5t-1 110.5h188zM391 1860l137 -138l138 138l82 -82l-220 -217l-219 217z" />
    <glyph glyph-name="uni0226" unicode="&#x226;" 
d="M1151 143l-27 58h-764l-24 -58q-49 -106 -64 -143h-211q5 11 26 55.5t42.5 91.5t34.5 76l571 1288l588 -1288q13 -31 54 -117.5t48 -105.5h-211q-23 56 -63 143zM504 381h473q54 0 72 -12l4 8q-12 6 -33 53l-227 498q-52 112 -52 153h-8q0 -42 -49 -153l-221 -498
q-19 -45 -35 -53l4 -8q4 4 25.5 8t46.5 4zM737 1829q46 0 78.5 -32.5t32.5 -78.5t-32.5 -78t-78.5 -32t-78 32t-32 78t32 78.5t78 32.5z" />
    <glyph glyph-name="uni0227" unicode="&#x227;" horiz-adv-x="999" 
d="M502 1286q46 0 78 -32t32 -78t-32 -78.5t-78 -32.5t-78.5 32.5t-32.5 78.5t32.5 78t78.5 32zM483 -25q-177 0 -285 94t-108 246q0 141 103.5 224.5t257.5 83.5q78 0 139 -26.5t94 -68.5l8 4q-14 43 -18 84q-6 61 -59.5 96.5t-122.5 35.5q-115 0 -240 -72l-74 153
q158 86 314 86q106 0 193.5 -41.5t133.5 -121.5q37 -64 37 -162v-500q-63 -44 -164 -79.5t-209 -35.5zM483 139q54 0 107 16.5t82 37.5v174q-24 38 -82.5 71t-138.5 33q-76 0 -130.5 -43t-54.5 -113q0 -82 58.5 -129t158.5 -47z" />
    <glyph glyph-name="uni0228" unicode="&#x228;" horiz-adv-x="854" 
d="M102 0v1434h476q40 0 135 1t110 1v-185q-15 0 -110 1t-135 1h-281v-376h180q40 0 135.5 1t110.5 1v-189q-15 0 -110.5 1t-135.5 1h-180v-504h321q40 0 135.5 1t110.5 1v-192q-15 0 -110.5 1t-135.5 1h-516zM481 -76l-155 -231l104 -76l186 205z" />
    <glyph glyph-name="uni0229" unicode="&#x229;" horiz-adv-x="1040" 
d="M942 418h-674q14 -126 86.5 -200.5t194.5 -74.5q76 0 145 35.5t117 97.5l127 -120q-71 -80 -171 -130.5t-218 -50.5q-113 0 -203 38.5t-147 104.5t-87 153t-30 186q0 199 121.5 328.5t312.5 129.5q103 0 187 -40t135.5 -105.5t78.5 -145.5t27 -165q0 -27 -2 -41zM516 756
q-88 0 -150 -48.5t-87 -134.5h471q-10 69 -73.5 126t-160.5 57zM539 -76l-156 -231l104 -76l187 205z" />
    <glyph glyph-name="uni022E" unicode="&#x22e;" horiz-adv-x="1679" 
d="M840 1475q154 0 294 -60t241.5 -161.5t161.5 -242t60 -294.5t-60 -294.5t-161.5 -242t-241.5 -161.5t-294 -60t-294.5 60t-242 161.5t-161.5 242t-60 294.5t60 294.5t161.5 242t242 161.5t294.5 60zM840 1294q-115 0 -219 -45.5t-180 -123t-120.5 -184.5t-44.5 -224
q0 -157 75.5 -290t205.5 -210.5t283 -77.5t282.5 77.5t205 210.5t75.5 290t-75.5 290t-205 210t-282.5 77zM840 1767q46 0 78 -32t32 -78t-32 -78.5t-78 -32.5t-78.5 32.5t-32.5 78.5t32.5 78t78.5 32z" />
    <glyph glyph-name="uni022F" unicode="&#x22f;" horiz-adv-x="1103" 
d="M551 743q-119 0 -202 -87.5t-83 -211.5q0 -123 83.5 -210t201.5 -87q119 0 203 87t84 210q0 124 -84 211.5t-203 87.5zM551 915q195 0 333 -138t138 -333q0 -128 -63 -236t-171.5 -170.5t-236.5 -62.5q-195 0 -332 137t-137 332q0 128 62.5 236.5t170.5 171.5t236 63z
M551 1286q46 0 78.5 -32t32.5 -78t-32.5 -78.5t-78.5 -32.5t-78.5 32.5t-32.5 78.5t32.5 78t78.5 32z" />
    <glyph glyph-name="uni0232" unicode="&#x232;" horiz-adv-x="1220" 
d="M522 0q0 15 1 110.5t1 135.5v377l-325 555q-12 20 -50 82t-68 110.5t-38 63.5h221q13 -22 42.5 -75t47.5 -83l193 -328q26 -44 45.5 -87.5t19.5 -53.5h9q0 20 67 141l186 330q17 30 46.5 83t40.5 73h217q-52 -87 -146 -252l-313 -553v-383q0 -40 1 -135.5t1 -110.5h-199z
M379 1786q7 0 55 -1t68 -1h225q20 0 68 1t55 1v-135q-7 0 -55 1t-68 1h-225q-20 0 -68 -1t-55 -1v135z" />
    <glyph glyph-name="uni0233" unicode="&#x233;" horiz-adv-x="1024" 
d="M1012 891q-23 -44 -69 -133t-69 -133l-446 -897q-16 -31 -45.5 -92t-42.5 -87h-197q39 86 131 261l168 335l-278 484q-13 22 -49 83.5t-65.5 112.5t-37.5 66h207q11 -17 44.5 -78.5t49.5 -89.5l133 -236q31 -54 55.5 -110.5t26.5 -75.5h9q2 16 25.5 75.5t49.5 110.5
l111 222q19 36 50.5 103t37.5 79h201zM264 1243q7 0 55 -1t68 -1h225q20 0 68 1t55 1v-135q-7 0 -55 1t-68 1h-225q-20 0 -68 -1t-55 -1v135z" />
    <glyph glyph-name="dotlessj" unicode="&#x237;" horiz-adv-x="512" 
d="M-25 -475v180q82 0 135.5 56t53.5 153v731q0 40 -1 135.5t-1 110.5h188q0 -15 -1 -110.5t-1 -135.5v-731q0 -181 -105.5 -285t-267.5 -104z" />
    <glyph glyph-name="uni0245" unicode="&#x245;" 
d="M735 1511l588 -1288q13 -31 54 -117.5t48 -105.5h-211q-23 56 -63 143l-358 785q-52 112 -52 153h-8q0 -42 -49 -153l-348 -785q-49 -106 -64 -143h-211q5 11 26 55.5t42.5 91.5t34.5 76z" />
    <glyph glyph-name="apostrophe" unicode="&#x2bc;" horiz-adv-x="544" 
d="M184 1452v176h176v-223q0 -73 -57 -141l-45 -52l-70 62l45 51q33 41 33 80v47h-82z" />
    <glyph glyph-name="circumflex" unicode="&#x2c6;" horiz-adv-x="770" 
d="M385 1194l-137 -137l-82 82l219 217l219 -217l-82 -82z" />
    <glyph glyph-name="caron" unicode="&#x2c7;" horiz-adv-x="770" 
d="M248 1317l137 -137l137 137l82 -82l-219 -217l-219 217z" />
    <glyph glyph-name="breve" unicode="&#x2d8;" horiz-adv-x="798" 
d="M557 1311l123 -33q-28 -95 -102 -147t-179 -52t-178.5 52t-101.5 147l123 33q15 -54 56.5 -83.5t100.5 -29.5t101 29.5t57 83.5z" />
    <glyph glyph-name="dotaccent" unicode="&#x2d9;" horiz-adv-x="798" 
d="M399 1286q46 0 78.5 -32t32.5 -78t-32.5 -78.5t-78.5 -32.5t-78 32.5t-32 78.5t32 78t78 32z" />
    <glyph glyph-name="ring" unicode="&#x2da;" horiz-adv-x="819" 
d="M410 1434q88 0 150.5 -60t62.5 -145t-62.5 -145t-150.5 -60t-150.5 60t-62.5 145t62.5 145t150.5 60zM410 1319q-37 0 -64 -26.5t-27 -63.5t27 -63.5t64 -26.5t63.5 26.5t26.5 63.5t-26.5 63.5t-63.5 26.5z" />
    <glyph glyph-name="ogonek" unicode="&#x2db;" horiz-adv-x="921" 
d="M381 86l104 -86q-43 -64 -43 -115q0 -29 17.5 -49t48.5 -20q39 0 94 20l45 -129q-65 -35 -139 -35q-60 0 -104.5 18.5t-69 50t-36 67.5t-11.5 77q0 100 94 201z" />
    <glyph glyph-name="tilde" unicode="&#x2dc;" horiz-adv-x="1048" 
d="M291 1012l-127 20q17 93 97 150.5t173 46.5l197 -27q43 -6 80.5 22.5t46.5 75.5l127 -20q-17 -93 -97.5 -150.5t-173.5 -46.5l-196 27q-43 6 -80.5 -22.5t-46.5 -75.5z" />
    <glyph glyph-name="hungarumlaut" unicode="&#x2dd;" horiz-adv-x="839" 
d="M231 1071l-73 62l202 247l97 -77zM489 1071l-73 62l202 247l97 -77z" />
    <glyph glyph-name="uni0311" unicode="&#x311;" horiz-adv-x="798" 
d="M248 1065l-139 39q29 99 106 154t184 55t184.5 -55t106.5 -154l-139 -39q-15 50 -54.5 77t-97.5 27q-120 0 -151 -104z" />
    <glyph glyph-name="delta" unicode="&#x3b4;" horiz-adv-x="1103" 
d="M436 1638q34 -66 117 -217l420 -766q49 -90 49 -211q0 -128 -63 -236t-171.5 -170.5t-236.5 -62.5q-195 0 -332 137t-137 332q0 128 62.5 236.5t170.5 171.5t236 63q59 0 106 -26l5 6q-41 25 -82 100l-187 340l-119 215zM551 743q-119 0 -202 -87.5t-83 -211.5
q0 -123 83.5 -210t201.5 -87q119 0 203 87t84 210q0 124 -84 211.5t-203 87.5z" />
    <glyph glyph-name="pi" unicode="&#x3c0;" horiz-adv-x="1218" 
d="M764 735h-309v-489q0 -40 1 -135.5t1 -110.5h-189q0 15 1 110.5t1 135.5v489q-42 0 -119 -1t-90 -1v160q15 0 110.5 -1t135.5 -1h604q40 0 135.5 1t110.5 1v-160q-13 0 -90 1t-119 1v-489q0 -40 1 -135.5t1 -110.5h-188q0 15 1 110.5t1 135.5v489z" />
    <glyph glyph-name="uni1E02" unicode="&#x1e02;" horiz-adv-x="1064" 
d="M102 0v1434h418q160 0 273.5 -112.5t113.5 -272.5q0 -98 -43.5 -173t-115.5 -104v-8q97 -25 166 -124t69 -224q0 -172 -122 -294t-294 -122h-465zM551 655h-254v-475h254q98 0 167.5 69.5t69.5 166.5q0 100 -69.5 169.5t-167.5 69.5zM719 1049q0 91 -64 154t-155 63h-203
v-439h203q91 0 155 65t64 157zM457 1829q46 0 78 -32.5t32 -78.5t-32 -78t-78 -32t-78.5 32t-32.5 78t32.5 78.5t78.5 32.5z" />
    <glyph glyph-name="uni1E03" unicode="&#x1e03;" horiz-adv-x="1136" 
d="M152 1628h188q0 -15 -1 -110.5t-1 -135.5v-458q0 -67 -10 -90l8 -5q89 86 256 86q196 0 319 -129t123 -335t-132.5 -341t-342.5 -135q-220 0 -405 152v1255q0 40 -1 135.5t-1 110.5zM338 623v-410q39 -26 98 -46t123 -20q128 0 209.5 86t81.5 218q0 130 -73.5 211
t-192.5 81q-89 0 -152 -37.5t-94 -82.5zM633 1286q46 0 78 -32t32 -78t-32 -78.5t-78 -32.5t-78.5 32.5t-32.5 78.5t32.5 78t78.5 32z" />
    <glyph glyph-name="uni1E08" unicode="&#x1e08;" 
d="M1296 338l131 -133q-111 -116 -263 -181t-324 -65q-154 0 -294.5 60t-242 161.5t-161.5 242t-60 294.5t60 294.5t161.5 242t242 161.5t294.5 60q167 0 315 -68.5t254 -189.5l-139 -127q-78 95 -190.5 149.5t-239.5 54.5q-115 0 -219 -45.5t-180 -123t-120.5 -184.5
t-44.5 -224q0 -157 75.5 -290t205.5 -210.5t283 -77.5q134 0 252.5 53t203.5 146zM858 -76l-156 -231l105 -76l186 205zM805 1552l-84 66l246 309l166 -92z" />
    <glyph glyph-name="uni1E09" unicode="&#x1e09;" horiz-adv-x="978" 
d="M463 1071l-84 66l246 309l166 -92zM532 915q121 0 214 -56t147 -134l-141 -111q-37 59 -94 94t-126 35q-110 0 -188 -87.5t-78 -211.5q0 -123 78 -210t188 -87q152 0 246 132l131 -123q-156 -181 -377 -181q-122 0 -225.5 63t-164 171t-60.5 235q0 195 132 333t318 138z
M504 -76l-156 -231l105 -76l186 205z" />
    <glyph glyph-name="uni1E0A" unicode="&#x1e0a;" horiz-adv-x="1320" 
d="M102 0v1434h400q150 0 286.5 -57t235.5 -153t157 -228.5t58 -278.5t-55 -278.5t-148 -228.5t-222 -153t-271 -57h-441zM467 1257h-170v-1077h213q145 0 268 72t194.5 195.5t71.5 269.5q0 110 -45.5 210t-123 172.5t-184 115t-224.5 42.5zM555 1829q46 0 78.5 -32.5
t32.5 -78.5t-32.5 -78t-78.5 -32t-78.5 32t-32.5 78t32.5 78.5t78.5 32.5z" />
    <glyph glyph-name="uni1E0B" unicode="&#x1e0b;" horiz-adv-x="1136" 
d="M797 1628h188q0 -15 -1 -110.5t-1 -135.5v-1255q-185 -152 -405 -152q-210 0 -343 135t-133 341t123.5 335t319.5 129q167 0 256 -86l8 5q-10 23 -10 90v458q0 40 -1 135.5t-1 110.5zM799 213v410q-31 45 -94 82.5t-152 37.5q-119 0 -192.5 -81t-73.5 -211
q0 -132 81.5 -218t209.5 -86q64 0 123 20t98 46zM522 1286q46 0 78.5 -32t32.5 -78t-32.5 -78.5t-78.5 -32.5t-78 32.5t-32 78.5t32 78t78 32z" />
    <glyph glyph-name="Wgrave" unicode="&#x1e80;" horiz-adv-x="2048" 
d="M1022 1016q-2 -18 -21 -84.5t-40 -120.5l-332 -872l-500 1232q-14 34 -58 139.5t-51 123.5h209q13 -31 38 -97t40 -100l258 -639q18 -45 36 -115t20 -90h8q2 24 17.5 84t39.5 121l338 877l334 -877q56 -144 61 -205h8q2 17 22.5 87.5t39.5 117.5l260 639q15 34 40 100
t38 97h201q-7 -18 -51 -123.5t-58 -139.5l-500 -1232l-332 872q-21 54 -40 120.5t-21 84.5h-4zM1204 1679l-84 -65l-327 282l165 93z" />
    <glyph glyph-name="wgrave" unicode="&#x1e81;" 
d="M739 571h-8q0 -38 -69 -204l-179 -428l-338 694q-24 48 -66 131t-63 127h197q31 -70 88 -186l94 -197q26 -54 48 -119.5t24 -85.5h8q4 43 70 205l184 442l199 -452q22 -51 47 -120t26 -85h9q2 20 24.5 87.5t48.5 121.5l99 203q14 30 44 92.5t44 93.5h196l-129 -258
l-333 -684l-189 418q-29 62 -51.5 123.5t-24.5 80.5zM877 1137l-84 -66l-328 283l166 92z" />
    <glyph glyph-name="Wacute" unicode="&#x1e82;" horiz-adv-x="2048" 
d="M1022 1016q-2 -18 -21 -84.5t-40 -120.5l-332 -872l-500 1232q-14 34 -58 139.5t-51 123.5h209q13 -31 38 -97t40 -100l258 -639q18 -45 36 -115t20 -90h8q2 24 17.5 84t39.5 121l338 877l334 -877q56 -144 61 -205h8q2 17 22.5 87.5t39.5 117.5l260 639q15 34 40 100
t38 97h201q-7 -18 -51 -123.5t-58 -139.5l-500 -1232l-332 872q-21 54 -40 120.5t-21 84.5h-4zM948 1614l-84 65l246 310l166 -93z" />
    <glyph glyph-name="wacute" unicode="&#x1e83;" 
d="M739 571h-8q0 -38 -69 -204l-179 -428l-338 694q-24 48 -66 131t-63 127h197q31 -70 88 -186l94 -197q26 -54 48 -119.5t24 -85.5h8q4 43 70 205l184 442l199 -452q22 -51 47 -120t26 -85h9q2 20 24.5 87.5t48.5 121.5l99 203q14 30 44 92.5t44 93.5h196l-129 -258
l-333 -684l-189 418q-29 62 -51.5 123.5t-24.5 80.5zM662 1071l-84 66l245 309l166 -92z" />
    <glyph glyph-name="Wdieresis" unicode="&#x1e84;" horiz-adv-x="2048" 
d="M1022 1016q-2 -18 -21 -84.5t-40 -120.5l-332 -872l-500 1232q-14 34 -58 139.5t-51 123.5h209q13 -31 38 -97t40 -100l258 -639q18 -45 36 -115t20 -90h8q2 24 17.5 84t39.5 121l338 877l334 -877q56 -144 61 -205h8q2 17 22.5 87.5t39.5 117.5l260 639q15 34 40 100
t38 97h201q-7 -18 -51 -123.5t-58 -139.5l-500 -1232l-332 872q-21 54 -40 120.5t-21 84.5h-4zM842 1829q46 0 78 -32.5t32 -78.5t-32 -78t-78 -32t-78.5 32t-32.5 78t32.5 78.5t78.5 32.5zM1206 1829q46 0 78.5 -32.5t32.5 -78.5t-32.5 -78t-78.5 -32t-78 32t-32 78
t32 78.5t78 32.5z" />
    <glyph glyph-name="wdieresis" unicode="&#x1e85;" 
d="M739 571h-8q0 -38 -69 -204l-179 -428l-338 694q-24 48 -66 131t-63 127h197q31 -70 88 -186l94 -197q26 -54 48 -119.5t24 -85.5h8q4 43 70 205l184 442l199 -452q22 -51 47 -120t26 -85h9q2 20 24.5 87.5t48.5 121.5l99 203q14 30 44 92.5t44 93.5h196l-129 -258
l-333 -684l-189 418q-29 62 -51.5 123.5t-24.5 80.5zM551 1286q46 0 78.5 -32t32.5 -78t-32.5 -78.5t-78.5 -32.5t-78.5 32.5t-32.5 78.5t32.5 78t78.5 32zM915 1286q46 0 78.5 -32t32.5 -78t-32.5 -78.5t-78.5 -32.5t-78 32.5t-32 78.5t32 78t78 32z" />
    <glyph glyph-name="uni1E86" unicode="&#x1e86;" horiz-adv-x="2048" 
d="M1022 1016q-2 -18 -21 -84.5t-40 -120.5l-332 -872l-500 1232q-14 34 -58 139.5t-51 123.5h209q13 -31 38 -97t40 -100l258 -639q18 -45 36 -115t20 -90h8q2 24 17.5 84t39.5 121l338 877l334 -877q56 -144 61 -205h8q2 17 22.5 87.5t39.5 117.5l260 639q15 34 40 100
t38 97h201q-7 -18 -51 -123.5t-58 -139.5l-500 -1232l-332 872q-21 54 -40 120.5t-21 84.5h-4zM1024 1829q46 0 78.5 -32.5t32.5 -78.5t-32.5 -78t-78.5 -32t-78.5 32t-32.5 78t32.5 78.5t78.5 32.5z" />
    <glyph glyph-name="uni1E87" unicode="&#x1e87;" 
d="M739 571h-8q0 -38 -69 -204l-179 -428l-338 694q-24 48 -66 131t-63 127h197q31 -70 88 -186l94 -197q26 -54 48 -119.5t24 -85.5h8q4 43 70 205l184 442l199 -452q22 -51 47 -120t26 -85h9q2 20 24.5 87.5t48.5 121.5l99 203q14 30 44 92.5t44 93.5h196l-129 -258
l-333 -684l-189 418q-29 62 -51.5 123.5t-24.5 80.5zM731 1286q46 0 78.5 -32t32.5 -78t-32.5 -78.5t-78.5 -32.5t-78 32.5t-32 78.5t32 78t78 32z" />
    <glyph glyph-name="uni1E8A" unicode="&#x1e8a;" horiz-adv-x="1200" 
d="M535 465l-183 -305q-47 -77 -92 -160h-227q17 27 75 119t87 141l297 488l-263 430q-13 22 -50.5 82.5t-68 110t-38.5 63.5h225q41 -72 92 -156l146 -244q44 -72 61 -141h8q0 5 7.5 26t22.5 54t32 61l145 244q17 27 48 81t44 75h225q-8 -14 -38.5 -63.5t-68 -110
t-50.5 -82.5l-262 -430l297 -488q30 -50 90 -146t71 -114h-227q-45 83 -92 160l-182 305q-26 44 -44 87.5t-18 53.5h-8q-1 -7 -7.5 -25.5t-21 -52t-32.5 -63.5zM600 1829q46 0 78.5 -32.5t32.5 -78.5t-32.5 -78t-78.5 -32t-78.5 32t-32.5 78t32.5 78.5t78.5 32.5z" />
    <glyph glyph-name="uni1E8B" unicode="&#x1e8b;" horiz-adv-x="1013" 
d="M950 891q-8 -9 -50 -61t-85 -105t-63 -78l-129 -160l178 -227q96 -118 209 -260h-232q-9 11 -47.5 62.5t-64.5 82.5l-31 39q-55 69 -88 125t-35 76h-8q-2 -20 -37.5 -78t-87.5 -123l-29 -37q-22 -27 -62.5 -81l-49.5 -66h-234q202 246 215 262l182 225l-122 156
q-15 20 -61.5 78.5t-85 107t-48.5 62.5h227l76 -100q108 -140 121 -201h8q1 17 43.5 83.5t83.5 117.5l82 100h225zM510 1286q46 0 78.5 -32t32.5 -78t-32.5 -78.5t-78.5 -32.5t-78.5 32.5t-32.5 78.5t32.5 78t78.5 32z" />
    <glyph glyph-name="uni1E8C" unicode="&#x1e8c;" horiz-adv-x="1200" 
d="M535 465l-183 -305q-47 -77 -92 -160h-227q17 27 75 119t87 141l297 488l-263 430q-13 22 -50.5 82.5t-68 110t-38.5 63.5h225q41 -72 92 -156l146 -244q44 -72 61 -141h8q0 5 7.5 26t22.5 54t32 61l145 244q17 27 48 81t44 75h225q-8 -14 -38.5 -63.5t-68 -110
t-50.5 -82.5l-262 -430l297 -488q30 -50 90 -146t71 -114h-227q-45 83 -92 160l-182 305q-26 44 -44 87.5t-18 53.5h-8q-1 -7 -7.5 -25.5t-21 -52t-32.5 -63.5zM418 1829q46 0 78 -32.5t32 -78.5t-32 -78t-78 -32t-78.5 32t-32.5 78t32.5 78.5t78.5 32.5zM782 1829
q46 0 78.5 -32.5t32.5 -78.5t-32.5 -78t-78.5 -32t-78 32t-32 78t32 78.5t78 32.5z" />
    <glyph glyph-name="uni1E8D" unicode="&#x1e8d;" horiz-adv-x="1013" 
d="M950 891q-8 -9 -50 -61t-85 -105t-63 -78l-129 -160l178 -227q96 -118 209 -260h-232q-9 11 -47.5 62.5t-64.5 82.5l-31 39q-55 69 -88 125t-35 76h-8q-2 -20 -37.5 -78t-87.5 -123l-29 -37q-22 -27 -62.5 -81l-49.5 -66h-234q202 246 215 262l182 225l-122 156
q-15 20 -61.5 78.5t-85 107t-48.5 62.5h227l76 -100q108 -140 121 -201h8q1 17 43.5 83.5t83.5 117.5l82 100h225zM332 1286q46 0 78 -32t32 -78t-32 -78.5t-78 -32.5t-78.5 32.5t-32.5 78.5t32.5 78t78.5 32zM696 1286q46 0 78.5 -32t32.5 -78t-32.5 -78.5t-78.5 -32.5
t-78 32.5t-32 78.5t32 78t78 32z" />
    <glyph glyph-name="uni1E8E" unicode="&#x1e8e;" horiz-adv-x="1220" 
d="M522 0q0 15 1 110.5t1 135.5v377l-325 555q-12 20 -50 82t-68 110.5t-38 63.5h221q13 -22 42.5 -75t47.5 -83l193 -328q26 -44 45.5 -87.5t19.5 -53.5h9q0 20 67 141l186 330q17 30 46.5 83t40.5 73h217q-52 -87 -146 -252l-313 -553v-383q0 -40 1 -135.5t1 -110.5h-199z
M612 1829q46 0 78.5 -32.5t32.5 -78.5t-32.5 -78t-78.5 -32t-78 32t-32 78t32 78.5t78 32.5z" />
    <glyph glyph-name="uni1E8F" unicode="&#x1e8f;" horiz-adv-x="1024" 
d="M1012 891q-23 -44 -69 -133t-69 -133l-446 -897q-16 -31 -45.5 -92t-42.5 -87h-197q39 86 131 261l168 335l-278 484q-13 22 -49 83.5t-65.5 112.5t-37.5 66h207q11 -17 44.5 -78.5t49.5 -89.5l133 -236q31 -54 55.5 -110.5t26.5 -75.5h9q2 16 25.5 75.5t49.5 110.5
l111 222q19 36 50.5 103t37.5 79h201zM506 1286q46 0 78 -32t32 -78t-32 -78.5t-78 -32.5t-78.5 32.5t-32.5 78.5t32.5 78t78.5 32z" />
    <glyph glyph-name="uni1E90" unicode="&#x1e90;" horiz-adv-x="1126" 
d="M537 160h268q40 0 135.5 1t110.5 1v-164q-15 0 -110.5 1t-135.5 1h-764l635 1104q43 74 79 120.5t50 53.5l-4 8q-27 -12 -219 -12h-181q-40 0 -135 -1t-110 -1v164q15 0 110 -1t135 -1h676l-633 -1104q-35 -59 -76 -113.5t-55 -60.5l4 -9q30 13 220 13zM590 1737
l-137 -138l-82 82l219 217l219 -217l-82 -82z" />
    <glyph glyph-name="uni1E91" unicode="&#x1e91;" horiz-adv-x="989" 
d="M487 152h187q40 0 135.5 1t110.5 1v-156q-15 0 -110.5 1t-135.5 1h-643l520 647q59 74 108 98l-2 9q-33 -11 -157 -11h-125q-40 0 -135.5 -1t-110.5 -1v152q15 0 110.5 -1t135.5 -1h583l-522 -643q-64 -79 -108 -98l2 -9q33 11 157 11zM508 1194l-137 -137l-82 82
l219 217l219 -217l-82 -82z" />
    <glyph glyph-name="uni1E9E" unicode="&#x1e9e;" horiz-adv-x="1433" 
d="M522 125l121 149q36 -50 97.5 -84t138.5 -34q119 0 202.5 86t83.5 213q0 134 -101.5 226.5t-246.5 92.5q-147 0 -237 -90l374 555q-105 55 -286 55q-371 0 -371 -356v-692q0 -40 1 -135.5t1 -110.5h-199q0 15 1 110.5t1 135.5v737q0 125 43.5 220.5t121 154t179 88
t222.5 29.5q314 0 553 -160l-269 -402q107 -12 199.5 -72t150.5 -162.5t58 -223.5q0 -133 -64.5 -244t-175 -173.5t-241.5 -62.5q-116 0 -209 45t-148 105z" />
    <glyph glyph-name="Ygrave" unicode="&#x1ef2;" horiz-adv-x="1220" 
d="M522 0q0 15 1 110.5t1 135.5v377l-325 555q-12 20 -50 82t-68 110.5t-38 63.5h221q13 -22 42.5 -75t47.5 -83l193 -328q26 -44 45.5 -87.5t19.5 -53.5h9q0 20 67 141l186 330q17 30 46.5 83t40.5 73h217q-52 -87 -146 -252l-313 -553v-383q0 -40 1 -135.5t1 -110.5h-199z
M774 1679l-84 -65l-328 282l166 93z" />
    <glyph glyph-name="ygrave" unicode="&#x1ef3;" horiz-adv-x="1024" 
d="M1012 891q-23 -44 -69 -133t-69 -133l-446 -897q-16 -31 -45.5 -92t-42.5 -87h-197q39 86 131 261l168 335l-278 484q-13 22 -49 83.5t-65.5 112.5t-37.5 66h207q11 -17 44.5 -78.5t49.5 -89.5l133 -236q31 -54 55.5 -110.5t26.5 -75.5h9q2 16 25.5 75.5t49.5 110.5
l111 222q19 36 50.5 103t37.5 79h201zM645 1137l-84 -66l-328 283l166 92z" />
    <glyph glyph-name="uni1EF8" unicode="&#x1ef8;" horiz-adv-x="1220" 
d="M522 0q0 15 1 110.5t1 135.5v377l-325 555q-12 20 -50 82t-68 110.5t-38 63.5h221q13 -22 42.5 -75t47.5 -83l193 -328q26 -44 45.5 -87.5t19.5 -53.5h9q0 20 67 141l186 330q17 30 46.5 83t40.5 73h217q-52 -87 -146 -252l-313 -553v-383q0 -40 1 -135.5t1 -110.5h-199z
M389 1554l-127 21q17 93 97 150.5t173 46.5l197 -27q43 -6 80.5 22.5t46.5 75.5l127 -20q-17 -93 -97 -150.5t-173 -46.5l-197 27q-43 6 -80.5 -23t-46.5 -76z" />
    <glyph glyph-name="uni1EF9" unicode="&#x1ef9;" horiz-adv-x="1024" 
d="M1012 891q-23 -44 -69 -133t-69 -133l-446 -897q-16 -31 -45.5 -92t-42.5 -87h-197q39 86 131 261l168 335l-278 484q-13 22 -49 83.5t-65.5 112.5t-37.5 66h207q11 -17 44.5 -78.5t49.5 -89.5l133 -236q31 -54 55.5 -110.5t26.5 -75.5h9q2 16 25.5 75.5t49.5 110.5
l111 222q19 36 50.5 103t37.5 79h201zM291 1012l-127 20q17 93 97 150.5t173 46.5l197 -27q43 -6 80.5 22.5t46.5 75.5l127 -20q-17 -93 -97.5 -150.5t-173.5 -46.5l-196 27q-43 6 -80.5 -22.5t-46.5 -75.5z" />
    <glyph glyph-name="endash" unicode="&#x2013;" horiz-adv-x="2273" 
d="M655 754h963q40 0 135.5 1t110.5 1v-176q-15 0 -110.5 1t-135.5 1h-963q-40 0 -135 -1t-110 -1v176q15 0 110 -1t135 -1z" />
    <glyph glyph-name="emdash" unicode="&#x2014;" horiz-adv-x="2764" 
d="M655 754h1454q40 0 135.5 1t110.5 1v-176q-15 0 -110.5 1t-135.5 1h-1454q-40 0 -135 -1t-110 -1v176q15 0 110 -1t135 -1z" />
    <glyph glyph-name="quoteleft" unicode="&#x2018;" horiz-adv-x="544" 
d="M360 1389v-177h-176v224q0 72 58 141l45 51l69 -61l-45 -51q-32 -40 -32 -80v-47h81z" />
    <glyph glyph-name="quoteright" unicode="&#x2019;" horiz-adv-x="544" 
d="M184 1452v176h176v-223q0 -73 -57 -141l-45 -52l-70 62l45 51q33 41 33 80v47h-82z" />
    <glyph glyph-name="quotesinglbase" unicode="&#x201a;" horiz-adv-x="544" 
d="M184 0v176h176v-223q0 -73 -57 -141l-45 -52l-70 62l45 51q33 41 33 80v47h-82z" />
    <glyph glyph-name="quotedblleft" unicode="&#x201c;" horiz-adv-x="1105" 
d="M946 1411l-219 -493l-141 75l268 461zM594 1440l-248 -484l-143 80l301 453z" />
    <glyph glyph-name="quotedblright" unicode="&#x201d;" horiz-adv-x="1105" 
d="M379 918l-219 493l92 43l268 -461zM760 956l-248 484l90 49l301 -453z" />
    <glyph glyph-name="quotedblbase" unicode="&#x201e;" horiz-adv-x="1095" 
d="M379 -291l-219 494l92 43l268 -461zM760 -252l-248 483l90 50l301 -453z" />
    <glyph glyph-name="dagger" unicode="&#x2020;" horiz-adv-x="1208" 
d="M512 989v393q0 40 -1 135.5t-1 110.5h188q0 -15 -1 -110.5t-1 -135.5v-393h174q40 0 135.5 1t110.5 1v-184q-15 0 -110.5 1t-135.5 1h-174v-1014q0 -40 1 -135.5t1 -110.5h-188q0 15 1 110.5t1 135.5v1014h-174q-40 0 -135.5 -1t-110.5 -1v184q15 0 110.5 -1t135.5 -1
h174z" />
    <glyph glyph-name="daggerdbl" unicode="&#x2021;" horiz-adv-x="1208" 
d="M696 195v-400q0 -40 1 -135.5t1 -110.5h-188q0 15 1 110.5t1 135.5v400h-174q-40 0 -135.5 -1t-110.5 -1v184q15 0 110.5 -1t135.5 -1h174v434h-174q-40 0 -135.5 -1t-110.5 -1v184q15 0 110.5 -1t135.5 -1h174v393q0 40 -1 135.5t-1 110.5h188q0 -15 -1 -110.5
t-1 -135.5v-393h174q40 0 135.5 1t110.5 1v-184q-15 0 -110.5 1t-135.5 1h-174v-434h174q40 0 135.5 1t110.5 1v-184q-15 0 -110.5 1t-135.5 1h-174z" />
    <glyph glyph-name="bullet" unicode="&#x2022;" horiz-adv-x="942" 
d="M471 819q101 0 173.5 -72.5t72.5 -173.5t-72.5 -173t-173.5 -72t-173.5 72t-72.5 173t72.5 173.5t173.5 72.5z" />
    <glyph glyph-name="ellipsis" unicode="&#x2026;" horiz-adv-x="1286" 
d="M233 197q46 0 78.5 -32.5t32.5 -78.5t-32.5 -78.5t-78.5 -32.5t-78 32.5t-32 78.5t32 78.5t78 32.5zM643 197q46 0 78.5 -32.5t32.5 -78.5t-32.5 -78.5t-78.5 -32.5t-78.5 32.5t-32.5 78.5t32.5 78.5t78.5 32.5zM1053 197q46 0 78 -32.5t32 -78.5t-32 -78.5t-78 -32.5
t-78.5 32.5t-32.5 78.5t32.5 78.5t78.5 32.5z" />
    <glyph glyph-name="perthousand" unicode="&#x2030;" horiz-adv-x="1712" 
d="M334 1495q115 0 195.5 -78t80.5 -188t-80.5 -188t-195.5 -78t-196 78t-81 188t81 188t196 78zM334 1360q-54 0 -91.5 -38.5t-37.5 -92.5t37.5 -92.5t91.5 -38.5t91.5 38.5t37.5 92.5t-37.5 92.5t-91.5 38.5zM928 1538l145 -82q-74 -122 -125 -211l-657 -1136
q-48 -79 -121 -213l-145 81q74 122 125 211l657 1137q48 79 121 213zM764 471q115 0 195.5 -78t80.5 -188t-80.5 -188t-195.5 -78t-196 78t-81 188t81 188t196 78zM764 336q-54 0 -91.5 -38.5t-37.5 -92.5t37.5 -92.5t91.5 -38.5t91.5 38.5t37.5 92.5t-37.5 92.5t-91.5 38.5
zM1378 471q115 0 196 -78t81 -188t-81 -188t-196 -78t-195.5 78t-80.5 188t80.5 188t195.5 78zM1378 336q-54 0 -91.5 -38.5t-37.5 -92.5t37.5 -92.5t91.5 -38.5t91.5 38.5t37.5 92.5t-37.5 92.5t-91.5 38.5z" />
    <glyph glyph-name="guilsinglleft" unicode="&#x2039;" horiz-adv-x="573" 
d="M403 961l103 -74q-37 -53 -144 -193l-159 -219l159 -219q107 -140 144 -193l-103 -73q-7 10 -62.5 88.5t-80.5 111.5l-207 285l207 285q25 33 80.5 112t62.5 89z" />
    <glyph glyph-name="guilsinglright" unicode="&#x203a;" horiz-adv-x="573" 
d="M68 887l102 74q7 -10 62.5 -89t80.5 -112l207 -285l-207 -285q-25 -33 -80.5 -111.5t-62.5 -88.5l-102 73q47 68 143 193l160 219l-160 219q-96 125 -143 193z" />
    <glyph glyph-name="zerosuperior" unicode="&#x2070;" horiz-adv-x="634" 
d="M317 1569q126 0 204.5 -107t78.5 -264t-78.5 -264t-204.5 -107t-204 106.5t-78 264.5t78 264.5t204 106.5zM317 1421q-58 0 -90 -63t-32 -160t32 -160t90 -63t90.5 63.5t32.5 159.5t-32.5 159.5t-90.5 63.5z" />
    <glyph glyph-name="foursuperior" unicode="&#x2074;" horiz-adv-x="634" 
d="M0 948l526 631v-500q21 0 52 1t36 1v-135q-5 0 -36 1t-52 1q0 -25 1 -63.5t1 -44.5h-151q0 6 1 44.5t1 63.5h-379zM276 1079h103v123z" />
    <glyph glyph-name="fivesuperior" unicode="&#x2075;" horiz-adv-x="634" 
d="M422 1409h-98l-21 -61q114 0 193 -76t79 -178q0 -111 -83 -189t-203 -78q-89 0 -160.5 48t-112.5 108l121 98q26 -44 67 -75t85 -31q53 0 90 35t37 84t-37 83.5t-90 34.5q-71 0 -135 -73l-64 24l121 393h211q29 0 73 1.5t50 1.5v-152q-8 0 -56 1t-67 1z" />
    <glyph glyph-name="sixsuperior" unicode="&#x2076;" horiz-adv-x="634" 
d="M479 1556l-82 -116l-47 -66q-18 -26 -37 -35l2 -4q21 9 47 6q98 -11 166 -84t68 -170q0 -108 -81 -184t-200 -76q-118 0 -198 76t-80 184q0 103 76 209l118 168q6 9 27.5 41.5t34.5 50.5h186zM315 1200q-49 0 -83.5 -33.5t-34.5 -79.5t34.5 -79t83.5 -33q51 0 86 33
t35 79t-35 79.5t-86 33.5z" />
    <glyph glyph-name="sevensuperior" unicode="&#x2077;" horiz-adv-x="634" 
d="M635 1556l-406 -626l-79 -121l-140 80q36 51 88 129l264 391h-210q-19 0 -67 -1t-56 -1v152q6 0 50 -1.5t73 -1.5h483z" />
    <glyph glyph-name="eightsuperior" unicode="&#x2078;" horiz-adv-x="634" 
d="M317 1569q101 0 172.5 -63t71.5 -152q0 -84 -63 -140q84 -66 84 -159q0 -96 -74.5 -162t-190.5 -66t-190 66t-74 162q0 93 84 159q-63 56 -63 140q0 89 71 152t172 63zM317 1139q-41 0 -70.5 -24.5t-29.5 -59.5q0 -34 29.5 -57t70.5 -23q42 0 71.5 23t29.5 57
q0 35 -29.5 59.5t-71.5 24.5zM317 1421q-36 0 -60 -19t-24 -48q0 -30 24.5 -53t59.5 -23t59.5 23t24.5 53q0 29 -24 48t-60 19z" />
    <glyph glyph-name="ninesuperior" unicode="&#x2079;" horiz-adv-x="634" 
d="M317 1569q110 0 188.5 -73.5t78.5 -176.5q0 -81 -49 -143l-248 -318q-6 -8 -19.5 -25.5t-19.5 -25.5l-129 86q15 18 45 53l82 105q8 11 39 32l-2 4q-25 -9 -54 -2q-79 24 -128.5 88t-49.5 146q0 103 78 176.5t188 73.5zM317 1421q-44 0 -75 -29.5t-31 -72.5t31 -72.5
t75 -29.5t75.5 29.5t31.5 72.5t-31.5 72.5t-75.5 29.5z" />
    <glyph glyph-name="zeroinferior" unicode="&#x2080;" horiz-adv-x="634" 
d="M317 545q126 0 204.5 -107t78.5 -264t-78.5 -264t-204.5 -107t-204 106.5t-78 264.5t78 264.5t204 106.5zM317 397q-58 0 -90 -63t-32 -160t32 -160t90 -63t90.5 63.5t32.5 159.5t-32.5 159.5t-90.5 63.5z" />
    <glyph glyph-name="oneinferior" unicode="&#x2081;" horiz-adv-x="634" 
d="M127 385l86 147h207v-593q0 -21 1 -68.5t1 -54.5h-168q0 7 1 54.5t1 68.5v446h-129z" />
    <glyph glyph-name="twoinferior" unicode="&#x2082;" horiz-adv-x="634" 
d="M25 -184l309 372q67 78 67 123q0 36 -23.5 61t-62.5 25q-41 0 -67.5 -33t-26.5 -81h-160q0 109 74 185.5t180 76.5t176 -68t70 -166q0 -40 -15 -79.5t-27.5 -57.5t-35.5 -47l-67 -82q-46 -63 -84 -82l2 -4q20 4 117 4q29 0 72.5 1t49.5 1v-151q-8 0 -55.5 1t-66.5 1h-426
z" />
    <glyph glyph-name="threeinferior" unicode="&#x2083;" horiz-adv-x="634" 
d="M324 545q96 0 163.5 -62t67.5 -151q0 -56 -21.5 -89.5t-56.5 -43.5v-9q43 -14 69.5 -54.5t26.5 -100.5q0 -97 -72.5 -164.5t-185.5 -67.5q-103 0 -172 69t-80 175h152q4 -42 34 -69t66 -27q43 0 71 23t28 61q0 36 -21 62t-57 26h-55v133h49q33 0 49 22t16 54
q0 29 -20.5 47t-50.5 18q-31 0 -52.5 -26.5t-21.5 -63.5h-158q0 98 67.5 168t164.5 70z" />
    <glyph glyph-name="fourinferior" unicode="&#x2084;" horiz-adv-x="634" 
d="M0 -76l526 631v-500q21 0 52 1t36 1v-135q-5 0 -36 1t-52 1q0 -25 1 -63.5t1 -44.5h-151q0 6 1 44.5t1 63.5h-379zM276 55h103v123z" />
    <glyph glyph-name="fiveinferior" unicode="&#x2085;" horiz-adv-x="634" 
d="M422 385h-98l-21 -61q114 0 193 -76t79 -178q0 -111 -83 -189t-203 -78q-89 0 -160.5 48t-112.5 108l121 98q26 -44 67 -75t85 -31q53 0 90 35t37 84t-37 83.5t-90 34.5q-71 0 -135 -73l-64 24l121 393h211q29 0 73 1.5t50 1.5v-152q-8 0 -56 1t-67 1z" />
    <glyph glyph-name="sixinferior" unicode="&#x2086;" horiz-adv-x="634" 
d="M479 532l-82 -116l-47 -66q-18 -26 -37 -35l2 -4q21 9 47 6q98 -11 166 -84t68 -170q0 -108 -81 -184t-200 -76q-118 0 -198 76t-80 184q0 103 76 209l118 168q6 9 27.5 41.5t34.5 50.5h186zM315 176q-49 0 -83.5 -33.5t-34.5 -79.5t34.5 -79t83.5 -33q51 0 86 33t35 79
t-35 79.5t-86 33.5z" />
    <glyph glyph-name="seveninferior" unicode="&#x2087;" horiz-adv-x="634" 
d="M635 532l-406 -626l-79 -121l-140 80q36 51 88 129l264 391h-210q-19 0 -67 -1t-56 -1v152q6 0 50 -1.5t73 -1.5h483z" />
    <glyph glyph-name="eightinferior" unicode="&#x2088;" horiz-adv-x="634" 
d="M317 545q101 0 172.5 -63t71.5 -152q0 -84 -63 -140q84 -66 84 -159q0 -96 -74.5 -162t-190.5 -66t-190 66t-74 162q0 93 84 159q-63 56 -63 140q0 89 71 152t172 63zM317 115q-41 0 -70.5 -24.5t-29.5 -59.5q0 -34 29.5 -57t70.5 -23q42 0 71.5 23t29.5 57
q0 35 -29.5 59.5t-71.5 24.5zM317 397q-36 0 -60 -19t-24 -48q0 -30 24.5 -53t59.5 -23t59.5 23t24.5 53q0 29 -24 48t-60 19z" />
    <glyph glyph-name="nineinferior" unicode="&#x2089;" horiz-adv-x="634" 
d="M317 545q110 0 188.5 -73.5t78.5 -176.5q0 -81 -49 -143l-248 -318q-6 -8 -19.5 -25.5t-19.5 -25.5l-129 86q15 18 45 53l82 105q8 11 39 32l-2 4q-25 -9 -54 -2q-79 24 -128.5 88t-49.5 146q0 103 78 176.5t188 73.5zM317 397q-44 0 -75 -29.5t-31 -72.5t31 -72.5
t75 -29.5t75.5 29.5t31.5 72.5t-31.5 72.5t-75.5 29.5z" />
    <glyph glyph-name="lira" unicode="&#x20a4;" horiz-adv-x="1095" 
d="M983 1118l-180 -33q-15 86 -77 139.5t-173 53.5q-45 0 -87.5 -13t-79.5 -39.5t-59 -72.5t-22 -106q0 -48 25 -125h153q40 0 135.5 1t110.5 1v-176q-15 0 -110.5 1t-135.5 1h-86q30 -83 41 -156h45q40 0 135.5 1t110.5 1v-176q-15 0 -110.5 1t-135.5 1h-49
q-11 -61 -39 -119q-36 -64 -78 -90l2 -6q45 20 95 20q72 0 204 -43q86 -28 130 -28q81 0 198 65l72 -170q-134 -76 -270 -76q-72 0 -191 39q-3 1 -15.5 5.5t-17 6t-16 5t-17 5t-17 4.5t-18.5 4.5t-18 3.5t-20 3t-19.5 1.5t-21.5 0.5q-64 0 -113.5 -17.5t-122.5 -60.5
l-90 158q73 40 125 119t72 170q-42 0 -119 -1t-88 -1v176q11 0 89.5 -1t121.5 -1q-11 49 -53 156q-63 -2 -158 -2v176q5 0 38.5 -1t57.5 -1q-16 62 -16 125q0 85 25.5 155t68.5 116.5t99.5 78.5t116.5 46.5t122 14.5q97 0 174.5 -26.5t128.5 -73.5t82 -107t45 -133z" />
    <glyph glyph-name="Euro" unicode="&#x20ac;" horiz-adv-x="1566" 
d="M1477 1253l-123 -129q-164 170 -391 170q-156 0 -286.5 -78.5t-203.5 -211.5h524q40 0 135.5 1t110.5 1l-170 -177q-15 0 -110.5 1t-135.5 1h-417q-11 -68 -11 -114v-41h285q40 0 135.5 1t110.5 1l-170 -176q-15 0 -110.5 1t-135.5 1h-76q62 -163 205 -264t320 -101
q120 0 219.5 47t171.5 121l131 -127q-101 -104 -236.5 -162.5t-285.5 -58.5q-255 0 -456 153t-271 392q-70 -2 -175 -2v176q7 0 58.5 -1t85.5 -1v41q0 62 8 114q-61 -2 -152 -2v177q10 0 83.5 -1t115.5 -1q88 210 278.5 340.5t424.5 130.5q148 0 281 -58.5t233 -163.5z" />
    <glyph glyph-name="trademark" unicode="&#x2122;" horiz-adv-x="1372" 
d="M1169 1468l146 -614l31 -137h-142q-3 12 -10 51t-12 59l-43 189q-16 80 -11 112h-4q-24 -74 -37 -96l-178 -342l-172 336q-27 56 -41 102l-4 -2q4 -18 -12 -94l-45 -205l-21 -110h-143q27 106 33 135l141 616l213 -399q51 -93 51 -115h4q6 33 50 117zM469 1436v-140
q-7 0 -54.5 1t-68.5 1h-31v-458q0 -21 1 -68.5t1 -54.5h-143q0 7 1 54.5t1 68.5v458h-31q-21 0 -68 -1t-54 -1v140q7 0 54 -1t68 -1h201q21 0 68.5 1t54.5 1z" />
    <glyph glyph-name="Ohm" unicode="&#x2126;" horiz-adv-x="1679" 
d="M840 1475q154 0 294 -58t241.5 -156.5t161.5 -234t60 -285.5q0 -143 -54.5 -273t-156.5 -226q-48 -44 -86 -64l3 -8q40 10 139 10q41 0 87 1t58 1v-184q-15 0 -110.5 1t-135.5 1h-389v164q130 42 233 122t165.5 199t62.5 256q0 112 -45.5 214.5t-122 176.5t-182.5 118
t-223 44q-156 0 -288 -74t-209 -201.5t-77 -277.5q0 -137 62.5 -256t165.5 -199t233 -122v-164h-389q-40 0 -135.5 -1t-110.5 -1v184q12 0 58.5 -1t87.5 -1q99 0 139 -10l2 8q-38 20 -86 64q-102 96 -156.5 226t-54.5 273q0 120 38.5 232t108.5 202t163 158t209 105t239 37z
" />
    <glyph glyph-name="uni2206" unicode="&#x2206;" 
d="M735 1511l588 -1288q13 -31 54 -117.5t48 -105.5h-1364q5 11 26 55.5t42.5 91.5t34.5 76zM741 1081h-8q0 -42 -49 -153l-309 -699q-19 -45 -35 -53l4 -8q4 4 25.5 8t46.5 4h653q54 0 72 -12l4 8q-12 6 -33 53l-319 699q-52 112 -52 153z" />
    <glyph glyph-name="minus" unicode="&#x2212;" horiz-adv-x="1097" 
d="M389 840h320q40 0 135 1t110 1v-176q-15 0 -110 1t-135 1h-320q-40 0 -135.5 -1t-110.5 -1v176q15 0 110.5 -1t135.5 -1z" />
    <glyph glyph-name="infinity" unicode="&#x221e;" horiz-adv-x="1847" 
d="M887 850q45 65 86 111.5t95.5 90.5t120.5 66.5t142 22.5q169 0 291.5 -131t122.5 -314q0 -90 -33.5 -172.5t-89 -142t-132 -94.5t-159.5 -35q-76 0 -142 22.5t-120.5 65.5t-95.5 89t-86 110q-39 -55 -77 -96t-86.5 -77t-106.5 -54.5t-125 -18.5q-163 0 -278.5 118
t-115.5 285q0 166 116 285t278 119q67 0 125 -19t106.5 -55.5t86.5 -78t77 -97.5zM987 696q40 -61 74 -104t77 -84.5t91.5 -62.5t101.5 -21q96 0 163 78.5t67 193.5q0 114 -67.5 193.5t-162.5 79.5q-53 0 -101 -21.5t-92 -64.5t-76.5 -84t-74.5 -103zM788 696
q-48 71 -88.5 117t-96 80.5t-111.5 34.5q-88 0 -148.5 -67.5t-60.5 -164.5q0 -98 60.5 -164.5t148.5 -66.5q82 0 152.5 61t143.5 170z" />
    <glyph glyph-name="uni261A" unicode="&#x261a;" horiz-adv-x="2314" 
d="M1776 1010l313 22l78 -143l-88 -58l129 -204q-32 -42 -47 -56l82 -333q0 -14 -13 -11l-303 31l-78 150l-61 -9l-84 168l-33 -2q-171 -157 -311 -157q-41 0 -143.5 18t-159.5 18q-60 0 -189.5 -27.5t-193.5 -27.5q-112 0 -176 57l-19 17q-11 11 0 18l7 3q7 4 11.5 8.5
t8.5 11.5q25 52 80.5 70t146.5 22q61 3 201 -2q54 38 120.5 68t100.5 30q12 0 12 6t-14 9q-92 19 -195 -80q-180 0 -346 -31l-30 51q-14 23 6 43l76 86l69 2q15 0 27 -8q28 -24 59 -72l-31 -51q-6 -10 2 -11q5 1 11 5l39 33q59 -26 71 -29q10 -3 11.5 1.5t-4.5 10.5l-80 68
q1 1 -0.5 5t-0.5 5t9 0l88 -8q11 -21 43 -47q17 -15 17 -7l-5 13q-33 53 -59 123q-15 39 -15 -4q0 -30 7 -49q3 -8 0.5 -9t-9.5 1h-2q-91 17 -178 57q-54 -12 -130.5 -21.5t-117.5 -9.5q-21 0 -61 5t-62 5h-86q-61 0 -107 27.5t-71 67.5q-9 15 -14 20q-3 2 -12.5 4t-12.5 4
q-5 5 -1 9t12 6q34 6 147 10q31 0 12 -19l-14 -14q-9 -9 1 -9q6 0 15 3q34 11 60 41q131 12 303 41q86 -4 129 -4q60 0 145.5 21.5t120.5 21.5q65 0 156.5 -20t210 -42.5t241.5 -25.5l29 37l143 16zM1819 932l-140 14q132 -255 123 -514l125 -8q10 287 -108 508zM1116 420
q27 0 51 -6q13 -4 13 -15q0 -34 -45 -45q-6 -3 -11 2q-2 4 -5.5 23t-6.5 27q0 1 -1 3q-3 4 -2.5 7.5t7.5 3.5zM1018 418l59 2q13 0 17 -27q5 -24 -9 -46.5t-38 -22.5q-11 0 -11 10q0 27 -22 69q-9 15 4 15zM993 403q22 -54 8 -102q-6 -12 -14 -10q-30 5 -101 32t-104 56
q-4 6 -3 7t12 3q131 12 186 25q10 3 16 -11zM616 530q-20 0 -20 -6q0 -4 12 -4q35 0 64.5 -19.5t29.5 -45.5q0 -23 -34 -39q-2 -1 -3.5 -4.5t0.5 -6t11 0.5q25 8 38 26t13 37q0 61 -111 61z" />
    <glyph glyph-name="uni261B" unicode="&#x261b;" horiz-adv-x="2314" 
d="M225 1032l314 -22l6 -31l143 -16l29 -37q123 3 241.5 25.5t210 42.5t156.5 20q35 0 120.5 -21.5t145.5 -21.5q43 0 129 4q172 -29 303 -41q26 -30 60 -41q21 -8 20 0q0 2 -4 6l-14 14q-19 19 12 19q114 -4 148 -10q8 -2 11.5 -6t-1.5 -9q-3 -2 -12.5 -4t-12.5 -4
q-5 -5 -14 -20q-25 -40 -71 -67.5t-107 -27.5h-86q-22 0 -62 -5t-61 -5q-41 0 -117.5 9.5t-130.5 21.5q-87 -40 -178 -57q-9 -2 -10.5 -1.5t0.5 9.5q6 16 6 49q0 43 -15 4q-26 -70 -59 -123q-9 -16 -2 -15q5 1 14 9q33 26 43 47l88 8q8 1 9 0t0 -5t0 -5l-80 -68
q-7 -6 -5.5 -10.5t11.5 -1.5q14 4 72 29l38 -33q13 -11 15 -2q1 3 -2 8l-31 51q31 48 59 72q12 8 27 8l70 -2l75 -86q21 -21 7 -43l-31 -51q-166 31 -346 31q-103 99 -195 80q-14 -3 -14 -9t12 -6q34 0 100.5 -30t120.5 -68q140 5 201 2q91 -4 146.5 -22t80.5 -70
q4 -7 8.5 -11.5t11.5 -8.5l7 -3q11 -7 0 -18l-18 -17q-64 -57 -177 -57q-64 0 -193.5 27.5t-189.5 27.5q-57 0 -159.5 -18t-143.5 -18q-140 0 -311 157l-33 2l-84 -168l-61 9l-78 -150l-303 -31q-12 -2 -12 11l82 333q-18 17 -48 56l130 204l-89 58zM635 946l-139 -14
q-119 -223 -109 -508l125 8q-9 259 123 514zM1198 420q10 0 5 -11q-1 -2 -1 -3q-3 -8 -6.5 -27t-5.5 -23q-5 -5 -10 -2q-45 11 -45 45q0 11 12 15q24 6 51 6zM1237 420l59 -2q13 0 4 -15q-22 -42 -22 -69q0 -7 -2 -8.5t-8 -1.5q-24 0 -38 22.5t-9 46.5q0 2 0.5 5t1 4.5t1 4
t1 4.5t1.5 3.5t2.5 3t3.5 2t5 0.5zM1321 403q6 14 16 11q54 -13 187 -25q12 -2 12.5 -3.5t-4.5 -6.5q-33 -29 -104 -56t-101 -32q-8 -2 -14 10q-14 48 8 102zM1698 530q-111 0 -111 -61q0 -19 13 -37t38 -26q12 -4 13 2t-4 8q-35 17 -35 39q0 26 29.5 45.5t64.5 19.5
q12 0 12 4q0 6 -20 6z" />
    <glyph glyph-name="uni261C" unicode="&#x261c;" horiz-adv-x="2314" 
d="M1102 1014q91 0 313 -63t295 -77l19 68h69q2 4 2 14t1.5 17.5t4.5 7.5q65 8 156 8q119 0 152 -6q8 -2 8 -8q0 -8 -13 -8q-47 0 -235 -43q113 -232 113 -482q0 -72 -7 -118q118 -25 242 -35q10 0 10 -8q0 -7 -8 -9q-32 -5 -117.5 -10.5t-119.5 -5.5q-35 48 -78 129l-86 10
l-84 137q-46 -14 -110.5 -49t-122 -58.5t-113.5 -23.5q-30 0 -76 8t-60 9q0 -2 1.5 -5.5t1.5 -4.5q0 -18 -11.5 -25.5t-36.5 -7.5q-22 0 -36 4q1 -4 4.5 -14.5t3.5 -14.5q0 -8 -6 -8q-26 0 -93 25q2 -10 2 -29q0 -6 -6 -6q-69 1 -147.5 23.5t-104.5 45.5q-91 2 -172.5 18.5
t-117.5 45.5q-7 7 -4 18q22 52 56.5 79.5t88.5 43.5q-27 20 -27 58q0 39 62 110q-43 0 -85 3.5t-98.5 10.5t-70.5 9q-15 1 -41.5 2.5t-41.5 2.5t-35 3t-36 6q-112 24 -141 104l-10 4q-11 4 -11 9q0 8 9 8q55 8 184 8q9 0 35.5 5t36.5 5h61q23 5 95 12t126 7q21 0 69.5 -2
t88.5 -2q74 0 149 22q86 23 103 23zM1827 424l82 -6q12 68 12 141q0 165 -74 346q-49 6 -92 0q80 -135 80 -352q0 -43 -8 -129zM827 823q77 -38 172 -63q4 18 -6 51q-1 2 1 3.5t5 2t5 -1.5q11 -12 21 -24t20.5 -29.5l15 -25t17.5 -30.5t14 -26q64 27 129 27q20 0 20 -9
q0 -4 -4 -6t-17.5 -6t-19.5 -6q-41 -13 -100.5 -39t-89.5 -43q-9 0 -36 -0.5t-35.5 -0.5t-31.5 -0.5t-32 -1t-28 -1.5t-29 -1.5t-25.5 -2t-26.5 -3t-24 -3.5t-25 -4q-111 -23 -164 -95q17 -17 63.5 -28t92.5 -11q71 0 71 23q0 13 -14 27t-35 22q-5 2 -9.5 6.5t-4.5 7.5
q0 5 16 5q26 0 48 -19.5t22 -44.5q0 -18 -33 -43q14 -2 43 -2q39 0 79 7t96 21t79 19q32 -4 88 -14t103 -16.5t90 -6.5q58 0 118.5 18t103.5 40t97.5 43.5t99.5 27.5q15 54 15 127t-17 148q-158 12 -401 76q-224 61 -281 61q-38 0 -113.5 -19.5t-107.5 -19.5q-8 0 -75 3
t-95 3q-46 0 -130 -7t-126 -7q-6 0 -27 -1t-28 -1q-10 -1 -16.5 -2.5t-8.5 -2.5t-5.5 -5t-4.5 -5q-12 -21 -31 -30q-8 -4 -8 4q0 5 5 14.5t5 14.5q0 4 -4 4q-20 -1 -58.5 -3.5t-59.5 -3.5q55 -86 208 -86q11 0 41 5q170 -23 269 -23q71 0 114 12zM1081 416q0 -14 19 -25
t45 -12q12 0 12 10q0 37 -47 37q-29 0 -29 -10zM936 381q58 -14 119 -14q10 0 10 16q0 20 -19 30.5t-45 10.5q-27 0 -48 -14t-21 -25q0 -4 4 -4zM999 735q-46 4 -73 4q-7 0 -4 -8q18 -25 57 -53q41 -33 59 -33q13 0 15 19q-3 21 -31 59q-8 12 -23 12zM893 625l78 6q12 0 6 6
q-20 27 -51 27t-37 -29q0 -10 4 -10zM870 662l21 22q-5 28 -29 56t-51 28h-10.5h-11h-9.5t-10 -1t-8 -2t-8 -2.5t-6.5 -3.5t-6.5 -5q-53 -57 -53 -88q0 -24 23 -54q23 8 65 11q12 1 40 1t36 1q8 0 8 12q-12 12 -30.5 20.5t-30.5 8.5q-11 0 -11 6q0 10 25 10q29 0 57 -20z
" />
    <glyph glyph-name="uni261D" unicode="&#x261d;" horiz-adv-x="1064" 
d="M889 721q0 -91 -63 -313.5t-76 -294.5l67 -19v-69q4 -2 14 -2.5t17.5 -2t7.5 -4.5q8 -65 8 -155q0 -119 -6 -152q-2 -8 -8 -8q-8 0 -8 12q0 48 -43 236q-232 -113 -482 -113q-79 0 -118 6q-25 -119 -35 -241q0 -11 -8 -11q-7 0 -9 9q-5 32 -10.5 118t-5.5 119
q48 35 129 78l10 86l138 84q-12 39 -36.5 87.5t-44.5 84.5t-35.5 83t-15.5 91q0 30 8 75t9 60q-2 0 -5.5 -1t-4.5 -1q-18 0 -25.5 11t-7.5 36q0 23 4 37q-4 -1 -14.5 -4.5t-14.5 -3.5q-8 0 -8 6q0 25 25 92q-10 -2 -29 -2q-6 0 -6 6q1 69 23.5 147.5t45.5 104.5
q2 91 18.5 173t45.5 118q7 7 18 4q52 -22 79.5 -56.5t43.5 -88.5q19 26 58 26q41 0 110 -61q0 43 3.5 85t10.5 98.5t9 70.5q1 15 2.5 41.5t2.5 41.5t3 35t6 36q24 112 105 141l3 10q4 10 9 10q8 0 8 -8q8 -55 8 -184q0 -9 5 -35.5t5 -36.5v-61q5 -23 12 -95.5t7 -126.5
q0 -21 -2 -69t-2 -88q0 -75 22 -150q23 -86 23 -102zM299 -4l-6 -82q67 -12 141 -12q167 0 346 73q6 49 0 93q-135 -80 -352 -80q-43 0 -129 8zM698 995q-38 -77 -63 -172q18 -4 51 6q2 1 3.5 -1t2 -4.5t-1.5 -4.5q-12 -11 -24 -21t-29.5 -20.5l-25 -15t-30.5 -17.5t-26 -14
q27 -65 27 -129q0 -20 -9 -20q-4 0 -6 4t-6 17.5t-6 19.5q-13 41 -39 100.5t-43 89.5q0 9 -0.5 36t-0.5 35.5t-0.5 31.5t-1 32t-1.5 28t-1.5 29t-2 25.5t-3 26.5t-3.5 24t-4 25q-23 111 -95 164q-17 -17 -27.5 -63.5t-10.5 -92.5q0 -72 22 -72q13 0 27 14.5t22 35.5
q1 4 6.5 9t8.5 5q4 0 4 -16q0 -26 -19.5 -48t-44.5 -22q-18 0 -43 33q-2 -14 -2 -43q0 -39 7 -79t21 -96t19 -79q-4 -32 -14 -88t-16.5 -103t-6.5 -90q0 -58 18 -118.5t40 -103.5t43.5 -98t27.5 -100q50 -14 127 -14t148 16q12 160 76 402q61 224 61 280q0 38 -19.5 114
t-19.5 108q0 8 3 74.5t3 94.5q0 46 -7 130t-7 126q0 6 -1 27.5t-1 28.5q-1 8 -1.5 13.5t-2 9t-2.5 5t-4 4t-4 3.5q-23 14 -31 30q-4 9 4 9q5 0 14.5 -5.5t14.5 -5.5q4 0 4 4q-1 20 -3 59.5t-3 59.5q-86 -55 -86 -209q0 -17 4 -41q-23 -170 -23 -268q0 -72 12 -115zM291 741
q-14 0 -25 -18.5t-12 -44.5q0 -12 10 -12q37 0 37 47q0 28 -10 28zM256 887q-14 -58 -14 -119q0 -10 16 -10q20 0 30.5 18.5t10.5 44.5q0 27 -14 48.5t-25 21.5q-4 0 -4 -4zM610 823q4 46 4 74q0 7 -8 4q-25 -18 -53 -57q-33 -41 -33 -60q0 -12 19 -14q21 3 59 31
q12 8 12 22zM500 930l6 -78q0 -4 1 -5.5t2.5 -1.5t2.5 1q27 20 27 51t-29 37q-10 0 -10 -4zM537 952l22 -20q28 5 56 29t28 51v9.5v9.5v8.5t-0.5 8.5t-1 8t-1.5 7.5t-2.5 6t-3.5 6.5t-5 5q-58 54 -88 54q-24 0 -54 -23q8 -23 11 -65q1 -12 1 -40t1 -36q0 -8 12 -8
q12 12 20.5 30.5t8.5 30.5q0 10 6 10q10 0 10 -24q0 -30 -20 -58z" />
    <glyph glyph-name="uni261E" unicode="&#x261e;" horiz-adv-x="2314" 
d="M1212 1014q17 0 103 -23q75 -22 149 -22q40 0 88.5 2t69.5 2q54 0 126 -7t95 -12q10 -1 20.5 -1t22.5 0.5t19 0.5q10 0 36 -5t35 -5q130 0 185 -8q8 0 8 -8q0 -5 -11 -9l-10 -4q-29 -80 -141 -104q-16 -4 -36 -6t-35 -3t-41.5 -2.5t-41.5 -2.5q-14 -2 -70.5 -9
t-98.5 -10.5t-85 -3.5q62 -71 62 -110q0 -38 -27 -58q54 -16 89 -43.5t57 -79.5q3 -11 -4 -18q-36 -29 -118 -45.5t-173 -18.5q-26 -23 -104.5 -45.5t-147.5 -23.5q-6 0 -6 6q0 19 2 29q-67 -25 -92 -25q-7 0 -7 8q0 4 4 14.5t5 14.5q-14 -4 -37 -4q-25 0 -36 7.5t-11 25.5
q0 1 1 4.5t1 5.5q-15 -1 -60 -9t-75 -8q-56 0 -113.5 23.5t-122.5 58.5t-111 49l-83 -137l-86 -10q-43 -81 -78 -129q-34 0 -120 5.5t-118 10.5q-8 2 -8 9q0 8 10 8q124 10 242 35q-6 39 -6 118q0 252 112 482q-188 43 -235 43q-12 0 -12 8q0 6 8 8q33 6 151 6q91 0 156 -8
q3 0 4.5 -7.5t1.5 -17.5t2 -14h70l18 -68q73 14 295 77t313 63zM406 418l81 6q-8 86 -8 129q0 217 80 352q-43 6 -92 0q-74 -181 -74 -346q0 -68 13 -141zM1487 823q44 -12 115 -12q98 0 268 23q30 -5 41 -5q154 0 209 86q-20 1 -59.5 3.5t-59.5 3.5q-4 0 -4 -4
q0 -5 5 -14.5t5 -14.5q0 -8 -8 -4q-19 9 -31 30q-1 1 -3.5 4t-4 4t-5 3t-9 2.5t-13.5 1.5q-7 0 -28 1t-27 1q-43 0 -127 7t-129 7q-28 0 -95 -3t-75 -3q-32 0 -107.5 19.5t-113.5 19.5q-57 0 -281 -61q-243 -64 -401 -76q-17 -75 -17 -148t15 -127q45 -6 100 -27.5t98 -43.5
t103.5 -40t118.5 -18q43 0 89.5 6.5t102.5 16.5t88 14q23 -5 79 -19t96 -21t79 -7q29 0 43 2q-33 25 -33 43q0 25 22 44.5t48 19.5q16 0 16 -5q0 -3 -4.5 -7.5t-9.5 -6.5q-21 -8 -35 -22t-14 -27q0 -23 72 -23q46 0 92 11t63 28q-53 72 -164 95q-12 2 -25 4t-23.5 3.5
t-26.5 3t-25.5 2t-29 1.5t-28 1.5t-31.5 1t-31.5 0.5t-35.5 0.5t-36 0.5q-29 17 -89.5 43t-101.5 39q-6 2 -13 4t-11.5 3.5t-8.5 3t-6 3.5t-2 4q0 9 21 9q64 0 129 -27q1 3 14 26t17.5 30.5l15 25t20.5 29.5t21 24q2 2 4.5 1.5t4.5 -2t1 -3.5q-10 -33 -6 -51q95 25 172 63z
M1233 416q0 10 -29 10q-47 0 -47 -37q0 -10 12 -10q26 1 45 12t19 25zM1378 381q4 0 4 4q0 11 -21 25t-48 14q-26 0 -45 -10.5t-19 -30.5q0 -16 11 -16q60 0 118 14zM1315 735q-15 0 -23 -12q-27 -36 -30 -59q2 -19 14 -19q18 0 59 33q41 30 58 53q3 8 -4 8q-28 0 -74 -4z
M1343 631l78 -6q4 0 4 10q-6 29 -36 29q-32 0 -52 -27q-6 -6 6 -6zM1423 684l21 -22q28 20 57 20q25 0 25 -10q0 -6 -10 -6q-12 0 -31 -8.5t-31 -20.5q0 -12 8 -12q8 -1 36.5 -1t39.5 -1q43 -3 66 -11q22 28 22 54q0 31 -53 88q-3 3 -6.5 5t-6.5 3.5t-8 2.5t-8 2t-10 1h-9.5
h-11h-10.5q-27 0 -51 -28t-29 -56z" />
    <glyph glyph-name="uni261F" unicode="&#x261f;" horiz-adv-x="1064" 
d="M860 547q0 -21 -22 -103q-23 -79 -23 -149q0 -40 2 -88.5t2 -69.5q0 -54 -7 -126.5t-11 -94.5v-61q0 -10 -5 -36.5t-5 -35.5q0 -123 -9 -184q0 -9 -8 -9q-5 0 -8 10l-4 11q-81 29 -105 141q-4 16 -6 36t-3 35t-2.5 41.5t-2.5 41.5q-2 17 -6.5 56t-7.5 64t-5.5 62.5
t-2.5 71.5q-71 -62 -111 -62q-37 0 -57 27q-16 -54 -43.5 -88.5t-79.5 -56.5q-12 -3 -19 4q-29 36 -45 117t-18 173q-23 26 -46 104.5t-24 147.5q0 6 6 6q19 0 29 -2q-25 68 -25 93q0 6 9 6q4 0 14 -3.5t14 -4.5q-4 14 -4 36q0 25 7.5 36.5t25.5 11.5q1 0 4.5 -1.5t5.5 -1.5
q-1 13 -8.5 59t-7.5 77q0 56 23.5 113.5t58.5 122t49 110.5l-137 84l-11 86q-81 43 -129 78q0 32 5.5 118.5t11.5 118.5q2 8 8 8q8 0 8 -10q10 -124 35 -242q46 7 119 7q249 0 481 -113q43 188 43 235q0 13 8 13q6 0 8 -8q7 -38 7 -152q0 -83 -9 -156q0 -3 -7.5 -4.5
t-17.5 -1.5t-14 -2v-69l-67 -19q13 -72 76 -294.5t63 -313.5zM264 1354l6 -82q86 8 129 8q218 0 353 -80q6 43 0 92q-181 74 -346 74q-74 0 -142 -12zM670 272q-13 -47 -13 -114q0 -99 23 -269q-4 -24 -4 -41q0 -153 86 -208q1 20 3 58.5t3 59.5q0 4 -4 4q-5 0 -14.5 -5
t-14.5 -5q-8 0 -4 8q9 18 31 31q1 1 4 3.5t4 4t2.5 5t2 9t1.5 13.5q0 7 1 28t1 27q0 43 7.5 127t7.5 129q0 28 -3.5 95t-3.5 75q0 32 19.5 107.5t19.5 113.5q0 57 -61 281q-64 243 -76 401q-75 17 -147 17q-73 0 -127 -15q-6 -45 -27.5 -99.5t-43.5 -97.5t-40 -103.5
t-18 -118.5q0 -43 6.5 -90t16.5 -103t14 -88q-5 -24 -19 -79t-21.5 -95.5t-7.5 -79.5q0 -29 2 -43q25 33 43 33q25 0 44.5 -22t19.5 -48q0 -16 -4 -16q-3 0 -8 4.5t-6 9.5q-8 20 -22.5 34.5t-27.5 14.5q-22 0 -22 -71q0 -46 11 -92.5t28 -63.5q71 52 94 164q2 12 4 25
t3.5 24t3 26.5t2 25.5t1.5 29t1.5 28t1 32t0.5 31.5t0.5 35.5t0.5 36q17 30 43 89.5t39 100.5q2 5 4.5 12.5t3.5 12t3 8.5t4 6t4 2q8 0 8 -20q0 -64 -27 -129q6 -3 26.5 -14.5t30 -17t26 -15.5t29 -20t24.5 -21q2 -2 1.5 -5t-2.5 -5t-4 -1q-33 10 -51 6q24 -90 64 -172z
M262 526q10 0 10 29q0 47 -36 47q-11 0 -11 -12q1 -26 12 -45t25 -19zM227 381q0 -4 4 -4q11 0 25 21t14 48q0 26 -10.5 45t-30.5 19q-16 0 -16 -10q0 -61 14 -119zM582 444q0 14 -13 23q-38 28 -59 31q-18 -2 -18 -15q0 -19 32 -59q27 -38 54 -57q8 -3 8 4q0 27 -4 73z
M477 416l-6 -78q0 -4 10 -4q29 6 29 37t-27 51q-1 1 -2.5 1t-2.5 -1.5t-1 -5.5zM530 336l-22 -21q20 -28 20 -57q0 -25 -10 -25q-6 0 -6 11q0 12 -8.5 30.5t-20.5 30.5q-12 0 -12 -8q-1 -8 -1 -36.5t-1 -39.5q-4 -46 -10 -65q30 -23 53 -23q31 0 88 53q3 3 5 6.5t3.5 6.5
t2.5 8t2 8t1 10v9.5v11v10.5q0 27 -28 51t-56 29z" />
    <glyph glyph-name="uni2720" unicode="&#x2720;" horiz-adv-x="1701" 
d="M356 1526h992q-147 -153 -265.5 -359.5t-158.5 -380.5q168 39 363 156.5t353 267.5v-989q-158 150 -352.5 266.5t-363.5 155.5q39 -171 158 -376t266 -359h-992q146 154 264.5 359t157.5 378q-170 -39 -364.5 -155.5t-352.5 -266.5v987q158 -152 353.5 -269.5
t365.5 -154.5q-39 172 -158 378t-266 362z" />
    <glyph glyph-name="u1F31A" unicode="&#x1f31a;" horiz-adv-x="1699" 
d="M850 1526q166 0 317 -64t260 -172.5t173.5 -258.5t64.5 -314t-64.5 -314t-173.5 -258.5t-260 -172.5t-317 -64t-317 64t-260 172.5t-173.5 258.5t-64.5 314t64.5 314t173.5 258.5t260 172.5t317 64zM850 1456q-203 0 -374.5 -99t-271.5 -269t-100 -371q0 -150 59 -287
t159 -236.5t238 -158t290 -58.5t290 58.5t237.5 158t158.5 236.5t59 287t-59 287t-158.5 236t-237.5 157.5t-290 58.5zM877 0v156h-7q-29 0 -47 -2v-154h-28v150q-27 -6 -54 -15v-129q-12 0 -28 4v113q-38 -21 -54 -35v-65q-7 3 -28 8v282l-53 -53v-211l-29 12v172l-19 -12
q-10 -8 -34 -20v-113l-29 18v84q-40 -12 -53 -12v-37l-29 25v721q-2 0 -4.5 -1t-3.5 -1q-41 -13 -45 -13v-657l-29 31v735h-4q-25 -3 -49 -12v-656q-22 30 -29 45v603q-2 -1 -3.5 -2t-2.5 -2t-2 -1q-12 -4 -16 0q-11 14 24 35v84l29 45v-110l53 26v152l29 31v-170
q3 1 22.5 10.5t30.5 13.5v152q-8 3 -8 6q0 7 8 10v27q12 11 29 22v-39q16 6 35 9q1 0 7 1t11 1v65q13 9 29 16v-77q8 0 25.5 1t25.5 1h2v102l29 12v-34q4 11 53 20v33q8 4 28 8v-37h5q16 2 49 2v47l28 6v-57q4 0 13 -1t14 -1l27 -4v70h28v-72h54v72h28v-72q6 0 23 1t30 1v63
l29 -6v-55q23 2 53 2v41q24 -6 29 -8v-35q1 0 3 -1t3 -1q21 -7 21 -10q0 -7 -27 -11v-79q18 2 53 2v116l29 -12v-104q37 0 53 -2v79q7 -3 29 -16v-65l41 -9l12 -4v41q6 -4 29 -22v-215q9 -3 27.5 -12.5t25.5 -12.5v191l29 -31v-174l47 -29l6 -6v141l29 -45v-717l-29 -45v648
q-10 0 -12 2l-41 12v-729l-29 -31v768l-53 10v-82v-4v-706q22 -9 20 -17q-3 -6 -16 -6h-4v-12l-29 -25v41q-23 6 -53 17v-93l-29 -18v121q-6 2 -12 8q-16 8 -41 33v-189l-29 -12v232q-11 12 -43 57q-1 0 -5 -1t-5 -1v-215l16 -19q5 -6 3 -11.5t-7.5 -6.5t-9.5 2q-2 0 -2 2
v-57q-22 -4 -29 -8v86q-14 8 -53 26v-125q-20 -4 -29 -4v139q-22 6 -53 9v-154h-28zM414 201q22 5 53 22v680q-39 -5 -53 -8v-694zM1233 250q24 -21 53 -37v684l-4 2q-40 9 -49 10v-659zM854 532q11 -14 23 -20v662q-27 -3 -54 -3v-616q10 -5 31 -23zM770 539q11 11 25 14
v618q-12 1 -50 11h-4v-107q18 -9 21 -12q7 -9 0 -29.5t-21 -40.5v-75q15 -15 15 -33q0 -21 -15 -29v-223q15 -2 15 -19q0 -4 -1.5 -6.5t-5.5 -7t-6 -6.5l-2 -2v-66q16 0 29 13zM1151 334q35 -44 53 -60v637h-20v-8q0 -43 -33 -69v-500zM496 244q31 28 53 55v516
q-37 10 -53 39v-610zM709 618l4 5v235q-5 2 -12 11.5t-9 11.5q-6 6 -26 16h-4q0 -3 -1.5 -9t-1.5 -9v-500l41 8h13v107q-32 32 -29 73q4 33 25 51zM993 518l-6 -12v-111q27 7 53 4v432q-31 22 -34 64l-19 -4v-197q35 -114 6 -176zM578 344q36 69 53 129v363q-27 -23 -53 -23
v-469zM1081 471q10 -40 41 -94v442q-10 -4 -28 -4q-17 0 -25 2v-315q4 -4 12 -31zM139 862q7 38 29 99v-490q-22 62 -29 100v291zM1561 571q-12 -55 -29 -100v490q15 -41 29 -99v-291zM920 748l-15 51v-293q47 3 53 80v14q0 30 -12 76q-3 10 -13 36t-13 36zM713 305
q-30 9 -54 12v-196q31 31 54 45v139zM1233 1083l24 -8t29 -10v178q-14 -5 -51 -2h-2v-158zM1040 328l-53 -19v-125q30 -16 53 -34v178zM1151 1102q33 -3 53 -10v147q-17 0 -53 -4v-133zM414 1081q29 10 53 15v133h-12q-7 0 -21 -1t-20 -1v-146zM496 1102q32 4 53 4v119
q-32 4 -53 4v-127zM1110 1104h12v125q-27 -3 -53 -12v-113h41zM578 1106q17 0 53 -4v110l-53 11v-117zM827 479l-4 -4v-102q18 -4 54 -4v98l-7 4q-21 10 -27 11.5t-16 -3.5zM670 1096q40 -10 43 -11v105l-39 10q-7 0 -15 4v-106q2 -2 11 -2zM928 1079q12 8 30 13v96
q-35 -8 -53 -10v-131q9 21 23 32zM987 1098q28 4 53 4v108l-28 -8l-25 -6v-98zM795 287q-11 1 -54 12v-119q30 15 54 23v84zM958 301q-9 -3 -53 -14v-78q25 -3 53 -12v104zM950 473q-27 -12 -45 -12v-88q25 4 53 12v90q-1 0 -4 -1t-4 -1zM752 471q-2 0 -6 1t-5 1v-86
q7 -1 25.5 -5t28.5 -5v90q-22 -3 -43 4zM741 1251q36 -4 54 -4v82q-12 1 -32.5 4.5t-21.5 3.5v-86zM694 1257q6 -2 19 -2v84q-20 2 -54 2v-79q25 -5 35 -5zM999 1257q30 5 41 5v79l-53 -8v-78q8 0 12 2zM905 1247l53 4v80h-4q-48 -6 -49 -6v-78zM877 1323q-40 0 -54 2v-78
h54v76zM578 1268l53 -4v77q-53 -3 -53 5v-78zM381 999q-25 -9 -49 -14v-80q18 18 53 29v65h-4zM856 281q-23 0 -33 2v-74q28 4 43 4h11v68h-21zM928 944q0 -44 5.5 -73.5t24.5 -86.5v107q-22 3 -22 20q0 16 22 27v53h-2q-19 -9 -23.5 -17t-4.5 -30zM467 1010l-53 -4v-64
l20 4q20 4 33 4v60zM1286 997l-53 7v-52q21 -2 53 -14v59zM549 1010h-53v-56l53 4v52zM1171 1008h-20v-50q8 0 26 -1t27 -1v50q-12 2 -33 2zM1034 1004l-47 -5v-51q12 3 53 8v48h-6zM1122 1008q-37 0 -53 -2v-50q18 2 53 2v50zM582 958q10 0 26 -1t23 -1v45h-4l-49 7v-50h4z
M684 983q-17 8 -25 10v-41q24 -2 43 -10l11 -6v37q-12 0 -29 10z" />
    <glyph glyph-name="u1F31B" unicode="&#x1f31b;" horiz-adv-x="1699" 
d="M197 1305l-39 59q237 162 551 162q178 0 340 -64t279.5 -172.5t187 -258.5t69.5 -314t-69.5 -314t-187 -258.5t-279.5 -172.5t-340 -64q-162 0 -308.5 55.5t-248.5 136.5l38 54q134 -99 295 -146q75 -18 128.5 -17t76.5 11q66 27 80 80q11 36 22.5 52.5t41.5 39.5
q40 31 42.5 56.5t-28.5 66.5q-42 52 0 88q12 9 26 12l-18 15q-23 19 -14 47q8 20 14 46.5t4 33.5q-12 12 -47 4q-105 -17 -133 59q-19 50 16 119q19 37 60 94q43 62 61 98q39 77 -37 156q-32 37 -39 55t-4 70q11 163 -116 217q-37 16 -86.5 18t-77.5 -8q-124 -36 -260 -116z
M709 1456q-10 0 -31 -1t-31 -1q8 -5 19 -8q58 -23 92 -86q18 -32 22.5 -58t7.5 -94q1 -9 1.5 -25t1 -27.5t2.5 -18.5q2 -9 30 -46.5t37 -54.5q17 -31 16 -73t-20 -74q-7 -14 -57 -88q-56 -78 -70 -123t2 -70q11 -21 28.5 -19.5t31.5 23.5q19 27 49 23.5t55 -33.5
q12 -17 21.5 -20t29.5 6q18 9 23 29t2 67q-3 45 4 59q8 16 16 2q6 -12 6 -24q0 -39 29 -105t68 -112q59 -68 159 -133q23 -16 11 -22q-3 -1 -7 -1q-19 0 -73 26.5t-86 51.5q-20 15 -46 47t-36 55q-10 21 -15.5 25t-21.5 -4q-11 -8 -37 -8q-21 0 -27 -4q-3 -3 -4.5 -8
t-3.5 -13.5t-4 -15.5q-9 -34 -5.5 -42.5t30.5 -17.5q46 -15 63 -26q29 -14 58.5 -43.5t29.5 -42.5q0 -6 -2 -9t-8.5 -3t-16 3.5t-26.5 10.5q-59 21 -84 22q-53 3 -59 -8q-2 -3 0 -7.5t9 -15t11 -18.5q33 -56 10 -104q-4 -9 -49 -60q-26 -26 -32 -36.5t-11 -34.5
q-5 -23 -10 -32t-25 -26q-24 -24 -28 -30q139 10 262.5 72t213 159.5t141.5 229.5t52 276q0 201 -96 371t-261.5 269t-360.5 99zM877 1073q4 0 36 -8q37 -4 70 -12q63 -11 139 -60q7 -4 28.5 -19t29.5 -18q19 -8 20.5 -14.5t-6.5 -19.5q-8 -11 -51 -9q-32 3 -81 -5.5
t-71 -18.5q-3 -2 -9.5 -4t-18 -5.5t-17.5 -5.5q-18 -6 -27 -0.5t-6 15.5q1 3 4.5 6t6.5 5l4 1q18 13 43 23q68 30 143 30q-19 19 -57.5 32t-69.5 15q-2 -3 -2 -14t-2 -20q-7 -23 -18.5 -33t-20.5 -2q-6 5 -10.5 14.5t-6.5 17t-5 21.5t-4 19q-3 20 -25 40q-5 5 -13 11.5
t-10.5 9.5t0.5 6q2 2 7 2zM823 1167q0 50 111 50q42 -3 86.5 -35t109.5 -97q57 -57 154 -98q3 -1 6.5 -2.5t7.5 -4t5.5 -5t-0.5 -4.5q-5 -7 -29.5 -3.5t-52.5 15.5q-37 16 -107 66q-73 53 -121 72.5t-102 15.5q-40 -3 -54 2.5t-14 27.5z" />
    </font>
</defs>
</svg>
