<?xml version="1.0" standalone="no"?>
<!DOCTYPE svg PUBLIC "-//W3C//DTD SVG 1.1//EN" "http://www.w3.org/Graphics/SVG/1.1/DTD/svg11.dtd" >
<svg xmlns="http://www.w3.org/2000/svg" xmlns:xlink="http://www.w3.org/1999/xlink" version="1.1">
<metadata>
Created by FontForge 20170731 at Wed Aug 11 02:40:26 2021
 By Aleksey,,,
Copyright (c) 2013 by Flanker. All rights reserved. Digital porting: Leonardo Di Lena. Special thanks to: Romesh Naik (:Nike) that gave me hope to create this font from original scans.
</metadata>
<defs>
<font id="Semplicita-Bold" horiz-adv-x="1576" >
  <font-face 
    font-family="Semplicita"
    font-weight="700"
    font-stretch="normal"
    units-per-em="2048"
    panose-1="2 11 3 2 2 1 2 2 3 4"
    ascent="1536"
    descent="-512"
    x-height="963"
    cap-height="1434"
    bbox="-303 -492 2355 2142"
    underline-thickness="102"
    underline-position="-307"
    unicode-range="U+0020-1F31D"
  />
<missing-glyph horiz-adv-x="1249" 
d="M100 1434h1049q0 -15 -1 -110.5t-1 -135.5v-942q0 -40 1 -135.5t1 -110.5h-1049q0 15 1 110.5t1 135.5v942q0 40 -1 135.5t-1 110.5zM195 1343v-1253h858v1253h-858z" />
    <glyph glyph-name="f_f" unicode="ff" horiz-adv-x="1474" 
d="M1403 1454v-283q-40 9 -62 9q-153 0 -153 -176v-41q42 0 119 1t90 1v-258q-13 0 -90 1t-119 1v-914q0 -40 1 -135.5t1 -110.5h-363q0 15 1 110.5t1 135.5v1127q0 133 25 239q-70 27 -152 27q-210 0 -210 -184v-41q42 0 118.5 1t89.5 1v-258q-13 0 -89.5 1t-118.5 1v-914
q0 -40 1 -135.5t1 -110.5h-363q0 15 1 110.5t1 135.5v1147q0 533 610 533q141 0 299 -56q95 56 213 56q97 0 148 -21z" />
    <glyph glyph-name="f_i" unicode="fi" horiz-adv-x="1341" 
d="M1198 1368v-37q0 -40 1 -135.5t1 -110.5h-362v82q-1 0 -23.5 6.5t-50 10.5t-62.5 4q-210 0 -210 -184v-41q42 0 118.5 1t89.5 1v-258q-13 0 -89.5 1t-118.5 1v-914q0 -40 1 -135.5t1 -110.5h-363q0 15 1 110.5t1 135.5v1147q0 533 612 533q146 0 277 -38t176 -69z
M1200 963q0 -15 -1 -110.5t-1 -135.5v-471q0 -40 1 -135.5t1 -110.5h-362q0 15 1 110.5t1 135.5v471q0 40 -1 135.5t-1 110.5h362z" />
    <glyph glyph-name="f_l" unicode="fl" horiz-adv-x="1341" 
d="M840 1167q-4 1 -19 5t-28.5 7t-38.5 6t-52 3q-210 0 -210 -184v-41q42 0 118.5 1t89.5 1v-258q-13 0 -89.5 1t-118.5 1v-914q0 -40 1 -135.5t1 -110.5h-363q0 15 1 110.5t1 135.5v1147q0 533 612 533q146 0 277 -38t176 -69v-1122q0 -40 1 -135.5t1 -110.5h-362
q0 15 1 110.5t1 135.5v921z" />
    <glyph glyph-name="f_f_i" unicode="ffi" horiz-adv-x="2037" 
d="M1894 1368v-37q0 -40 1 -135.5t1 -110.5h-362v82q-1 0 -23.5 6.5t-49.5 10.5t-62 4q-211 0 -211 -184v-41q42 0 119 1t90 1v-258q-13 0 -90 1t-119 1v-914q0 -40 1 -135.5t1 -110.5h-363q0 15 1 110.5t1 135.5v1147q0 128 31 217q-78 29 -158 29q-210 0 -210 -184v-41
q42 0 118.5 1t89.5 1v-258q-13 0 -89.5 1t-118.5 1v-914q0 -40 1 -135.5t1 -110.5h-363q0 15 1 110.5t1 135.5v1147q0 533 610 533q168 0 336 -70q143 70 363 70q146 0 276.5 -38t175.5 -69zM1896 963q0 -15 -1 -110.5t-1 -135.5v-471q0 -40 1 -135.5t1 -110.5h-362
q0 15 1 110.5t1 135.5v471q0 40 -1 135.5t-1 110.5h362z" />
    <glyph glyph-name="f_f_l" unicode="ffl" horiz-adv-x="2037" 
d="M1536 1167l-24 7q-23 6 -50.5 10t-62.5 4q-211 0 -211 -184v-41q42 0 119 1t90 1v-258q-13 0 -90 1t-119 1v-914q0 -40 1 -135.5t1 -110.5h-363q0 15 1 110.5t1 135.5v1147q0 128 31 217q-78 29 -158 29q-210 0 -210 -184v-41q42 0 118.5 1t89.5 1v-258q-13 0 -89.5 1
t-118.5 1v-914q0 -40 1 -135.5t1 -110.5h-363q0 15 1 110.5t1 135.5v1147q0 533 610 533q168 0 336 -70q143 70 363 70q146 0 276.5 -38t175.5 -69v-1122q0 -40 1 -135.5t1 -110.5h-362q0 15 1 110.5t1 135.5v921z" />
    <glyph glyph-name="f_j" unicode="fj" horiz-adv-x="1341" 
d="M1198 1368v-37q0 -40 1 -135.5t1 -110.5h-362v82q-1 0 -23.5 6.5t-50 10.5t-62.5 4q-210 0 -210 -184v-41q42 0 118.5 1t89.5 1v-258q-13 0 -89.5 1t-118.5 1v-914q0 -40 1 -135.5t1 -110.5h-363q0 15 1 110.5t1 135.5v1147q0 533 612 533q146 0 277 -38t176 -69z
M1200 963q0 -15 -1 -110.5t-1 -135.5v-922q0 -40 1 -135.5t1 -110.5h-362q0 15 1 110.5t1 135.5v922q0 40 -1 135.5t-1 110.5h362z" />
    <glyph glyph-name="f_f_j" unicode="ffj" horiz-adv-x="2037" 
d="M1894 1368v-37q0 -40 1 -135.5t1 -110.5h-362v82q-1 0 -23.5 6.5t-49.5 10.5t-62 4q-211 0 -211 -184v-41q42 0 119 1t90 1v-258q-13 0 -90 1t-119 1v-914q0 -40 1 -135.5t1 -110.5h-363q0 15 1 110.5t1 135.5v1147q0 128 31 217q-78 29 -158 29q-210 0 -210 -184v-41
q42 0 118.5 1t89.5 1v-258q-13 0 -89.5 1t-118.5 1v-914q0 -40 1 -135.5t1 -110.5h-363q0 15 1 110.5t1 135.5v1147q0 533 610 533q168 0 336 -70q143 70 363 70q146 0 276.5 -38t175.5 -69zM1896 963q0 -15 -1 -110.5t-1 -135.5v-922q0 -40 1 -135.5t1 -110.5h-362
q0 15 1 110.5t1 135.5v922q0 40 -1 135.5t-1 110.5h362z" />
    <glyph glyph-name="longs_longs_j" unicode="&#x17f;&#x17f;j" horiz-adv-x="2037" 
d="M1894 1368v-37q0 -40 1 -135.5t1 -110.5h-362v82q-1 0 -23.5 6.5t-49.5 10.5t-62 4q-211 0 -211 -184v-1209q0 -40 1 -135.5t1 -110.5h-363q0 15 1 110.5t1 135.5v1147q0 128 31 217q-78 29 -158 29q-210 0 -210 -184v-1209q0 -40 1 -135.5t1 -110.5h-363q0 15 1 110.5
t1 135.5v1147q0 533 610 533q168 0 336 -70q143 70 363 70q146 0 276.5 -38t175.5 -69zM1896 963q0 -15 -1 -110.5t-1 -135.5v-922q0 -40 1 -135.5t1 -110.5h-362q0 15 1 110.5t1 135.5v922q0 40 -1 135.5t-1 110.5h362z" />
    <glyph glyph-name="longs_j" unicode="&#x17f;j" horiz-adv-x="1341" 
d="M1198 1368v-37q0 -40 1 -135.5t1 -110.5h-362v82q-1 0 -23.5 6.5t-50 10.5t-62.5 4q-210 0 -210 -184v-1209q0 -40 1 -135.5t1 -110.5h-363q0 15 1 110.5t1 135.5v1147q0 533 612 533q146 0 277 -38t176 -69zM1200 963q0 -15 -1 -110.5t-1 -135.5v-922q0 -40 1 -135.5
t1 -110.5h-362q0 15 1 110.5t1 135.5v922q0 40 -1 135.5t-1 110.5h362z" />
    <glyph glyph-name="longs_longs" unicode="&#x17f;&#x17f;" horiz-adv-x="1474" 
d="M1403 1454v-283q-40 9 -62 9q-153 0 -153 -176v-1209q0 -40 1 -135.5t1 -110.5h-363q0 15 1 110.5t1 135.5v1127q0 133 25 239q-70 27 -152 27q-210 0 -210 -184v-1209q0 -40 1 -135.5t1 -110.5h-363q0 15 1 110.5t1 135.5v1147q0 533 610 533q141 0 299 -56
q95 56 213 56q97 0 148 -21z" />
    <glyph glyph-name="longs_i" unicode="&#x17f;i" horiz-adv-x="1341" 
d="M1198 1368v-37q0 -40 1 -135.5t1 -110.5h-362v82q-1 0 -23.5 6.5t-50 10.5t-62.5 4q-210 0 -210 -184v-1209q0 -40 1 -135.5t1 -110.5h-363q0 15 1 110.5t1 135.5v1147q0 533 612 533q146 0 277 -38t176 -69zM1200 963q0 -15 -1 -110.5t-1 -135.5v-471q0 -40 1 -135.5
t1 -110.5h-362q0 15 1 110.5t1 135.5v471q0 40 -1 135.5t-1 110.5h362z" />
    <glyph glyph-name="longs_l" unicode="&#x17f;l" horiz-adv-x="1341" 
d="M840 1167q-4 1 -19 5t-28.5 7t-38.5 6t-52 3q-210 0 -210 -184v-1209q0 -40 1 -135.5t1 -110.5h-363q0 15 1 110.5t1 135.5v1147q0 533 612 533q146 0 277 -38t176 -69v-1122q0 -40 1 -135.5t1 -110.5h-362q0 15 1 110.5t1 135.5v921z" />
    <glyph glyph-name="longs_longs_i" unicode="&#x17f;&#x17f;i" horiz-adv-x="2037" 
d="M1894 1368v-37q0 -40 1 -135.5t1 -110.5h-362v82q-1 0 -23.5 6.5t-49.5 10.5t-62 4q-211 0 -211 -184v-1209q0 -40 1 -135.5t1 -110.5h-363q0 15 1 110.5t1 135.5v1147q0 128 31 217q-78 29 -158 29q-210 0 -210 -184v-1209q0 -40 1 -135.5t1 -110.5h-363q0 15 1 110.5
t1 135.5v1147q0 533 610 533q168 0 336 -70q143 70 363 70q146 0 276.5 -38t175.5 -69zM1896 963q0 -15 -1 -110.5t-1 -135.5v-471q0 -40 1 -135.5t1 -110.5h-362q0 15 1 110.5t1 135.5v471q0 40 -1 135.5t-1 110.5h362z" />
    <glyph glyph-name="longs_longs_l" unicode="&#x17f;&#x17f;l" horiz-adv-x="2037" 
d="M1536 1167l-24 7q-23 6 -50.5 10t-62.5 4q-211 0 -211 -184v-1209q0 -40 1 -135.5t1 -110.5h-363q0 15 1 110.5t1 135.5v1147q0 128 31 217q-78 29 -158 29q-210 0 -210 -184v-1209q0 -40 1 -135.5t1 -110.5h-363q0 15 1 110.5t1 135.5v1147q0 533 610 533q168 0 336 -70
q143 70 363 70q146 0 276.5 -38t175.5 -69v-1122q0 -40 1 -135.5t1 -110.5h-362q0 15 1 110.5t1 135.5v921z" />
    <glyph glyph-name=".notdef" horiz-adv-x="1249" 
d="M100 1434h1049q0 -15 -1 -110.5t-1 -135.5v-942q0 -40 1 -135.5t1 -110.5h-1049q0 15 1 110.5t1 135.5v942q0 40 -1 135.5t-1 110.5zM195 1343v-1253h858v1253h-858z" />
    <glyph glyph-name=".null" horiz-adv-x="0" 
 />
    <glyph glyph-name="nonmarkingreturn" horiz-adv-x="682" 
 />
    <glyph glyph-name="space" unicode=" " horiz-adv-x="819" 
 />
    <glyph glyph-name="exclam" unicode="!" horiz-adv-x="643" 
d="M512 1434q0 -15 -1 -110.5t-1 -135.5v-451q0 -40 1 -135t1 -110h-381q0 15 1 110t1 135v451q0 40 -1 135.5t-1 110.5h381zM326 410q95 0 162 -66t67 -160t-67 -159.5t-162 -65.5t-162.5 65.5t-67.5 159.5t67.5 160t162.5 66z" />
    <glyph glyph-name="quotedbl" unicode="&#x22;" horiz-adv-x="968" 
d="M416 1577v-264q0 -155 -56 -277h-202q-56 122 -56 277v264h314zM866 1577v-264q0 -158 -55 -277h-203q-55 119 -55 277v264h313z" />
    <glyph glyph-name="numbersign" unicode="#" horiz-adv-x="1327" 
d="M1286 1120v-258q-15 0 -108.5 1t-133.5 1l-69 -258q41 0 109.5 1t78.5 1v-258q-15 0 -110 1t-135 1h-13l-49 -186l-61 -238l-215 58l65 237l35 129h-219l-49 -186l-62 -238l-215 58l66 237l35 129q-74 -2 -195 -2v258q15 0 110.5 -1t135.5 -1h16l70 258q-42 0 -120 -1
t-89 -1v258q15 0 110.5 -1t135.5 -1h32l45 168l62 238l215 -58l-66 -237l-30 -111h219l45 168l61 238l215 -58l-65 -237l-31 -111q40 0 102.5 1t71.5 1zM600 864l-70 -258h218l69 258h-217z" />
    <glyph glyph-name="dollar" unicode="$" horiz-adv-x="1181" 
d="M475 1679h291v-227q178 -51 315 -209l-229 -213q-111 150 -229 150q-39 0 -66 -23.5t-27 -54.5q0 -28 13 -53.5t40.5 -49.5t50 -40t63.5 -42t59 -38q145 -100 193 -141q135 -118 160 -258q7 -38 7 -79q0 -158 -95 -270t-255 -151v-226h-291v217q-137 25 -244 103
t-174 192l297 174q42 -82 107.5 -132t146.5 -50q57 0 94 32t37 79q0 30 -15.5 58.5t-44.5 54t-64 50t-79 53.5l-24 15q-61 40 -99 67t-91.5 74t-84 89.5t-53 102.5t-22.5 124q0 134 88 243.5t225 151.5v227z" />
    <glyph glyph-name="percent" unicode="%" horiz-adv-x="1474" 
d="M1231 1479l174 -144q-64 -69 -160 -186l-846 -1006q-132 -161 -155 -188l-174 143q49 53 159 187l846 1005q64 74 156 189zM1075 594q160 0 259.5 -94.5t99.5 -233.5t-99 -233t-260 -94q-160 0 -259 94t-99 233t99 233.5t259 94.5zM1075 397q-52 0 -88.5 -38.5
t-36.5 -92.5t36.5 -92.5t88.5 -38.5t88.5 38.5t36.5 92.5t-36.5 92.5t-88.5 38.5zM399 1495q160 0 259.5 -94.5t99.5 -233.5t-99 -233t-260 -94q-160 0 -259 94t-99 233t99 233.5t259 94.5zM399 1298q-52 0 -88.5 -38.5t-36.5 -92.5t36.5 -92.5t88.5 -38.5t88.5 38.5
t36.5 92.5t-36.5 92.5t-88.5 38.5z" />
    <glyph glyph-name="ampersand" unicode="&#x26;" horiz-adv-x="1622" 
d="M1602 0h-486l-112 121q-256 -162 -494 -162q-100 0 -186 35.5t-142.5 94t-88.5 133.5t-32 155q0 79 26.5 143.5t76.5 112.5t104.5 81t126.5 64q-64 73 -98.5 141t-34.5 150q0 159 129 268t326 109q192 0 315 -113t123 -276q0 -204 -256 -340l164 -168q116 113 194 211
l224 -228q-82 -90 -203 -202zM606 295q81 0 187 53l-213 230q-62 -32 -93.5 -68.5t-31.5 -87.5q0 -54 40.5 -90.5t110.5 -36.5zM614 1077q0 -42 26 -81.5t79 -96.5q61 31 91 71t30 99q0 51 -33 85t-82 34q-45 0 -78 -31.5t-33 -79.5z" />
    <glyph glyph-name="quotesingle" unicode="'" horiz-adv-x="518" 
d="M416 1577v-264q0 -155 -56 -277h-202q-56 122 -56 277v264h314z" />
    <glyph glyph-name="parenleft" unicode="(" horiz-adv-x="581" 
d="M319 639q0 -244 47.5 -448t153.5 -427l-178 -96q-115 227 -171 462.5t-56 508.5t56 508.5t171 462.5l178 -97q-106 -223 -153.5 -426.5t-47.5 -447.5z" />
    <glyph glyph-name="parenright" unicode=")" horiz-adv-x="581" 
d="M262 639q0 244 -47.5 447.5t-153.5 426.5l179 97q115 -227 171 -462.5t56 -508.5t-56 -508.5t-171 -462.5l-179 96q106 223 153.5 427t47.5 448z" />
    <glyph glyph-name="asterisk" unicode="*" horiz-adv-x="815" 
d="M324 1628h168v-100q0 -68 -19 -119l6 -4q27 38 92 78l84 51l84 -145l-86 -50q-65 -37 -112 -43v-8q52 -6 112 -41l86 -49l-84 -145l-84 51q-65 40 -92 78l-6 -4q19 -51 19 -119v-101h-168v101q0 71 18 119l-6 4q-27 -38 -92 -78l-84 -51l-84 145l86 49q60 35 112 41v8
q-47 6 -112 43l-86 50l84 145l84 -51q65 -40 92 -78l6 4q-18 48 -18 119v100z" />
    <glyph glyph-name="plus" unicode="+" horiz-adv-x="1466" 
d="M889 1309q0 -15 -1 -110.5t-1 -135.5v-170h170q40 0 135.5 1t110.5 1v-311q-15 0 -110.5 1t-135.5 1h-170v-170q0 -40 1 -135.5t1 -110.5h-311q0 15 1 110.5t1 135.5v170h-170q-40 0 -135.5 -1t-110.5 -1v311q15 0 110.5 -1t135.5 -1h170v170q0 40 -1 135.5t-1 110.5h311
z" />
    <glyph glyph-name="comma" unicode="," horiz-adv-x="663" 
d="M-27 -246l242 645h365l-367 -645h-240z" />
    <glyph glyph-name="hyphen" unicode="-" horiz-adv-x="870" 
d="M82 662q7 0 55 -1.5t68 -1.5h461q20 0 67.5 1.5t54.5 1.5v-332q-7 0 -54.5 1t-67.5 1h-461q-20 0 -68 -1t-55 -1v332z" />
    <glyph glyph-name="period" unicode="." horiz-adv-x="663" 
d="M332 410q95 0 162 -66t67 -160t-67 -159.5t-162 -65.5t-162.5 65.5t-67.5 159.5t67.5 160t162.5 66z" />
    <glyph glyph-name="slash" unicode="/" horiz-adv-x="907" 
d="M727 1645l254 -113q-32 -74 -102 -223l-562 -1264q-11 -25 -50 -115t-48 -110l-254 112q26 59 103 224l561 1263q12 28 50.5 117.5t47.5 108.5z" />
    <glyph glyph-name="zero" unicode="0" horiz-adv-x="1466" 
d="M733 1475q148 0 277.5 -60t220 -162t142.5 -241.5t52 -294.5t-52 -294.5t-142.5 -241.5t-220 -162t-277.5 -60t-277.5 60t-220 162t-142.5 241.5t-52 294.5t52 294.5t142.5 241.5t220 162t277.5 60zM733 1155q-88 0 -159.5 -59t-111.5 -159t-40 -220q0 -180 88.5 -305
t222.5 -125t222.5 125t88.5 305q0 120 -40 220t-111.5 159t-159.5 59z" />
    <glyph glyph-name="one" unicode="1" horiz-adv-x="1466" 
d="M954 1434v-1188q0 -40 1 -135.5t1 -110.5h-381q0 15 1.5 110.5t1.5 135.5v880h-193v308h569z" />
    <glyph glyph-name="two" unicode="2" horiz-adv-x="1466" 
d="M1016 0h-893q11 12 80.5 85t87.5 92.5t75.5 81.5t85 93t73.5 83t83 97t74 91q39 49 61 79.5t51.5 78t43.5 93t14 89.5q0 87 -39.5 139.5t-116.5 52.5q-168 0 -168 -229h-393q0 156 65.5 279.5t194 196.5t301.5 73q243 0 396 -146t153 -362q0 -126 -44.5 -217.5
t-149.5 -196.5l-162 -164q-75 -75 -105 -92l4 -8q47 14 146 14h78q40 0 137.5 1t112.5 1v-307q-15 0 -110.5 1t-135.5 1z" />
    <glyph glyph-name="three" unicode="3" horiz-adv-x="1466" 
d="M733 1475q211 0 341 -118.5t130 -295.5q0 -106 -40 -173.5t-105 -94.5v-11q105 -28 170 -122.5t65 -229.5q0 -145 -72.5 -253t-196 -163t-280.5 -55q-160 0 -291 69.5t-205.5 186t-80.5 256.5h373q13 -86 62 -137t134 -51q91 0 140 51.5t49 132.5q0 78 -51.5 127
t-157.5 49h-51v242h24q170 0 170 151q0 58 -38 96.5t-101 38.5q-68 0 -110 -47.5t-42 -115.5h-340q0 93 37 178t102 149t160 102t205 38z" />
    <glyph glyph-name="four" unicode="4" horiz-adv-x="1466" 
d="M1151 1434v-840q39 0 106.5 1t77.5 1v-311q-116 0 -184 2q0 -42 1 -159t1 -128h-356q0 11 1 128t1 159h-699v266l559 881h492zM799 594v317q0 54 4.5 126t9.5 87l-8 4q-29 -72 -105 -184l-153 -227q-34 -50 -67 -85.5t-50 -43.5l4 -8q32 14 172 14h193z" />
    <glyph glyph-name="five" unicode="5" horiz-adv-x="1466" 
d="M279 676l127 758h499q40 0 135.5 1t110.5 1v-318q-15 0 -110.5 1t-135.5 1h-246l-16 -76q-12 -60 -29 -88l7 -6q12 10 50.5 17.5t76.5 7.5q140 0 256.5 -63.5t184.5 -178t68 -256.5q0 -238 -164.5 -378t-437.5 -140q-157 0 -281 45t-190 100l56 342q175 -159 387 -159
q110 0 175.5 60t65.5 149q0 101 -88 169t-219 68q-157 0 -282 -57z" />
    <glyph glyph-name="six" unicode="6" horiz-adv-x="1466" 
d="M1094 1434q-27 -38 -62.5 -80t-82.5 -96t-66 -76l-101 -119q-3 -4 -15.5 -19t-17.5 -20.5t-16 -18t-18.5 -19.5t-18.5 -16.5t-22 -17.5l4 -6q68 37 174 37q207 0 343 -140.5t136 -346.5q0 -86 -23 -164.5t-72 -147t-119.5 -118.5t-172 -78.5t-223.5 -28.5
q-118 0 -216.5 28t-168.5 76.5t-118.5 115t-71.5 142t-23 158.5q0 144 86 316q56 113 166 264l155 211q36 49 115 164h449zM717 705q-95 0 -160 -65.5t-65 -162.5q0 -96 65 -159.5t160 -63.5t160 63t65 160t-65 162.5t-160 65.5z" />
    <glyph glyph-name="seven" unicode="7" horiz-adv-x="1466" 
d="M1368 1376l-653 -1165q-85 -149 -117 -211h-440q2 3 28.5 46t55 89.5t47.5 79.5l479 827q36 59 74 82l-4 9q-30 -15 -105 -15h-287q-40 0 -135 -1t-110 -1v320q15 0 110 -1t135 -1h922v-58z" />
    <glyph glyph-name="eight" unicode="8" horiz-adv-x="1466" 
d="M426 1401q123 74 307 74t307 -74q92 -55 138.5 -142.5t46.5 -187.5q0 -109 -57 -194.5t-156 -112.5v-8q120 -31 195 -129.5t75 -223.5q0 -93 -33 -172t-98.5 -140.5t-172.5 -96.5t-245 -35t-245 35t-172.5 96.5t-98.5 140.5t-33 172q0 125 75.5 223.5t195.5 129.5v8
q-99 27 -156 112.5t-57 194.5q0 100 46 187.5t138 142.5zM733 606q-74 0 -123 -50t-49 -122q0 -73 48 -124.5t124 -51.5t124 51.5t48 124.5q0 72 -49 122t-123 50zM733 913q63 0 105.5 46t42.5 112q0 61 -42.5 103.5t-105.5 42.5q-62 0 -104.5 -42.5t-42.5 -103.5
q0 -66 42 -112t105 -46z" />
    <glyph glyph-name="nine" unicode="9" horiz-adv-x="1466" 
d="M119 942q0 146 78 268t219.5 193.5t316.5 71.5q137 0 251 -42t190.5 -114t118.5 -169.5t42 -207.5q0 -90 -38.5 -196t-86.5 -177l-252 -370q-25 -38 -73.5 -103.5t-69.5 -95.5h-432q23 30 164 197l155 186q24 33 41 50.5t50 41.5l-5 6q-58 -26 -153 -26
q-122 0 -222.5 43.5t-163 114.5t-96.5 156t-34 173zM504 963q0 -94 68 -160t165 -66t165.5 66t68.5 160q0 95 -68.5 162t-165.5 67t-165 -67t-68 -162z" />
    <glyph glyph-name="colon" unicode=":" horiz-adv-x="663" 
d="M332 410q95 0 162 -66t67 -160t-67 -159.5t-162 -65.5t-162.5 65.5t-67.5 159.5t67.5 160t162.5 66zM332 1012q95 0 162 -66t67 -160t-67 -159.5t-162 -65.5t-162.5 65.5t-67.5 159.5t67.5 160t162.5 66z" />
    <glyph glyph-name="semicolon" unicode=";" horiz-adv-x="663" 
d="M553 369h-360l-213 -645h243zM332 1012q95 0 162 -66t67 -160t-67 -159.5t-162 -65.5t-162.5 65.5t-67.5 159.5t67.5 160t162.5 66z" />
    <glyph glyph-name="less" unicode="&#x3c;" horiz-adv-x="1097" 
d="M545 739v-8q28 -5 82 -29t96 -51l135 -88q114 -75 203 -127l-168 -258q-81 56 -207 137l-649 420l649 420q126 81 207 137l168 -258q-89 -52 -203 -127l-135 -88q-42 -27 -96 -51t-82 -29z" />
    <glyph glyph-name="equal" unicode="=" horiz-adv-x="1466" 
d="M1303 629v-312q-15 0 -110.5 1t-135.5 1h-647q-40 0 -135.5 -1t-110.5 -1v312q15 0 110.5 -1t135.5 -1h647q40 0 135.5 1t110.5 1zM1303 1161v-311q-15 0 -110.5 1t-135.5 1h-647q-40 0 -135.5 -1t-110.5 -1v311q15 0 110.5 -1t135.5 -1h647q40 0 135.5 1t110.5 1z" />
    <glyph glyph-name="greater" unicode="&#x3e;" horiz-adv-x="1097" 
d="M553 739q-28 5 -82 29t-96 51l-135 88q-114 75 -203 127l168 258q81 -56 207 -137l649 -420l-649 -420q-126 -81 -207 -137l-168 258q89 52 203 127l135 88q42 27 96 51t82 29v8z" />
    <glyph glyph-name="question" unicode="?" horiz-adv-x="1142" 
d="M373 848h92q85 0 150 50t65 122q0 56 -36.5 95.5t-90.5 39.5q-60 0 -93.5 -40t-33.5 -103h-381q0 108 40.5 197t110 146.5t161.5 88.5t196 31q217 0 362.5 -130t145.5 -317q0 -85 -30 -158t-79 -121t-105.5 -78.5t-113.5 -39.5h-2q0 -35 1 -89.5t1 -62.5h-362
q0 15 1 110.5t1 135.5v123zM567 410q95 0 162.5 -66t67.5 -160t-67.5 -159.5t-162.5 -65.5t-162 65.5t-67 159.5t67 160t162 66z" />
    <glyph glyph-name="at" unicode="@" horiz-adv-x="2314" 
d="M1753 893l-57 -473q-7 -80 49 -80q79 0 140 108t61 248q0 262 -191.5 426t-497.5 164q-188 0 -351 -63.5t-275.5 -172t-177 -256.5t-64.5 -313q0 -145 54 -273.5t149.5 -223.5t235 -150t302.5 -55q139 0 249.5 23t246.5 73l74 -250q-261 -100 -570 -100q-228 0 -422 75.5
t-326 204.5t-206 304t-74 372q0 174 53.5 334t156 291.5t242.5 229t322 151t386 53.5q215 0 397 -63.5t307.5 -175t195.5 -267.5t70 -338q0 -146 -48.5 -270t-131 -207.5t-193 -130.5t-233.5 -47q-195 0 -299 125q-48 -50 -136.5 -87.5t-195.5 -37.5q-191 0 -310.5 113.5
t-119.5 314.5q0 130 48 243t134.5 195.5t214 130t279.5 47.5q184 0 317.5 -60.5t194.5 -131.5zM1341 451l31 256q-67 79 -180 79q-106 0 -180 -73t-74 -178q0 -85 51 -140t137 -55q133 0 215 111z" />
    <glyph glyph-name="A" unicode="A" 
d="M772 1483h41l614 -1260q72 -147 113 -223h-407q-10 23 -34.5 75t-31.5 68l-12 29h-523l-12 -29q-4 -10 -28.5 -63.5t-34.5 -79.5h-420q9 19 54 107t59 116zM727 463h129q57 0 72 -10l4 8q-14 7 -33 51l-49 104q-19 40 -32 76.5t-18 55t-5 24.5h-9q0 -36 -53 -156
l-47 -104q-6 -15 -14 -27t-13 -17.5t-8 -6.5l4 -8q10 10 72 10z" />
    <glyph glyph-name="B" unicode="B" horiz-adv-x="1372" 
d="M152 1434h626q190 0 308 -105t118 -280q0 -124 -64 -195t-161 -94v-8q129 -27 203.5 -121.5t74.5 -237.5q0 -81 -23.5 -149.5t-72.5 -124t-134.5 -87.5t-199.5 -32h-675v1434zM530 602v-295h154q80 0 124 39.5t44 104.5q0 66 -44 108.5t-120 42.5h-158zM530 1159v-287
h113q88 0 128 36t40 108q0 63 -44 103t-124 40h-113z" />
    <glyph glyph-name="C" unicode="C" horiz-adv-x="1564" 
d="M1249 463l254 -264q-109 -114 -270.5 -177t-343.5 -63q-179 0 -328.5 60.5t-249 164.5t-154.5 243.5t-55 297.5q0 157 56 295t156.5 238.5t248 158.5t322.5 58q356 0 581 -232l-245 -254q-150 150 -336 150q-167 0 -278 -111.5t-111 -302.5q0 -188 115.5 -305t277.5 -117
q116 0 195.5 40t164.5 120z" />
    <glyph glyph-name="D" unicode="D" horiz-adv-x="1525" 
d="M154 1434h571q153 0 284 -56t221.5 -152.5t141.5 -228.5t51 -280q0 -147 -51 -277t-144.5 -228t-235 -155t-312.5 -57h-526v1434zM547 1110v-782h131q148 0 250 113t102 276q0 169 -101.5 281t-258.5 112h-123z" />
    <glyph glyph-name="E" unicode="E" horiz-adv-x="1060" 
d="M154 0v1434h530q40 0 135.5 1t110.5 1v-340q-15 0 -110.5 1t-135.5 1h-168v-213h90q40 0 135.5 1t110.5 1v-340q-15 0 -110.5 1t-135.5 1h-90v-213h201q40 0 135.5 1t110.5 1v-340q-15 0 -110.5 1t-135.5 1h-563z" />
    <glyph glyph-name="F" unicode="F" horiz-adv-x="1073" 
d="M154 246v1188h563q40 0 135.5 1t110.5 1v-340q-15 0 -110.5 1t-135.5 1h-170v-213h98q40 0 135.5 1t110.5 1v-340q-15 0 -110.5 1t-135.5 1h-98v-303q0 -40 1 -135.5t1 -110.5h-397q0 15 1 110.5t1 135.5z" />
    <glyph glyph-name="G" unicode="G" horiz-adv-x="1712" 
d="M1159 442h-16q-40 0 -134.5 -1t-109.5 -1v324q15 0 110.5 -1t135.5 -1h461q4 -46 4 -115q0 -138 -48.5 -261.5t-138.5 -219t-230.5 -151.5t-311.5 -56q-173 0 -320 60t-247 162.5t-156 241t-56 294.5q0 155 59 294.5t161 241.5t247.5 162t311.5 60q188 0 338 -73
t247 -202l-270 -250q-120 180 -315 180q-169 0 -277 -119.5t-108 -293.5q0 -196 106.5 -317t278.5 -121q120 0 187.5 28t119.5 80q12 12 21 26t13.5 23t6.5 10l-6 9q-19 -13 -64 -13z" />
    <glyph glyph-name="H" unicode="H" horiz-adv-x="1622" 
d="M1468 1188v-942q0 -40 1 -135.5t1 -110.5h-397q0 15 1 110.5t1 135.5v327h-528v-327q0 -40 1 -135.5t1 -110.5h-397q0 15 1 110.5t1 135.5v942q0 40 -1 135.5t-1 110.5h397q0 -15 -1 -110.5t-1 -135.5v-307h528v307q0 40 -1 135.5t-1 110.5h397q0 -15 -1 -110.5
t-1 -135.5z" />
    <glyph glyph-name="I" unicode="I" horiz-adv-x="720" 
d="M162 1434h397q0 -15 -1 -110.5t-1 -135.5v-942q0 -40 1 -135.5t1 -110.5h-397q0 15 1 110.5t1 135.5v942q0 40 -1 135.5t-1 110.5z" />
    <glyph glyph-name="J" unicode="J" horiz-adv-x="1048" 
d="M43 178l238 252q16 -46 51.5 -92.5t81.5 -46.5q37 0 62.5 31.5t25.5 78.5v787q0 40 -1 135.5t-1 110.5h397q0 -15 -1 -110.5t-1 -135.5v-811q0 -73 -31.5 -146t-88.5 -134t-147.5 -99.5t-197.5 -38.5q-262 0 -387 219z" />
    <glyph glyph-name="K" unicode="K" horiz-adv-x="1533" 
d="M993 1434h480q-26 -33 -205 -242l-373 -449l408 -485q36 -43 107.5 -129t107.5 -129h-506q-1 1 -105 139l-278 363q-49 64 -84 133l-8 -4q14 -84 10 -164v-221q0 -40 1 -135.5t1 -110.5h-397q0 15 1 110.5t1 135.5v942q0 40 -1 135.5t-1 110.5h397q0 -15 -1 -110.5
t-1 -135.5v-207q0 -141 -10 -158l8 -4l9 15q8 14 28.5 45.5t46.5 66.5l270 371q59 82 94 117z" />
    <glyph glyph-name="L" unicode="L" horiz-adv-x="1052" 
d="M154 0v1188q0 40 -1 135.5t-1 110.5h397q0 -15 -1 -110.5t-1 -135.5v-856h203q40 0 135 1t110 1v-336q-15 0 -110 1t-135 1h-596z" />
    <glyph glyph-name="M" unicode="M" horiz-adv-x="1986" 
d="M1006 -33h-31l-295 527q-68 116 -74 143l-8 -2q2 -25 -35 -156l-82 -276q-42 -150 -55 -203h-397q53 174 71 240l359 1255h30l416 -696q78 -131 82 -170h8q3 32 82 170l402 696h30l373 -1253l76 -242h-402q-10 34 -30.5 102.5t-30.5 102.5l-82 264q-40 121 -37 149l-8 3
q-9 -41 -74 -152z" />
    <glyph glyph-name="N" unicode="N" horiz-adv-x="1644" 
d="M154 1470h36l799 -634q47 -38 64.5 -57t50.5 -64l8 2q-14 70 -14 151v320q0 40 -1 135.5t-1 110.5h397q0 -15 -1 -110.5t-1 -135.5v-1225h-37l-799 658q-47 38 -64 56.5t-50 63.5l-9 -2q15 -75 15 -151v-342q0 -40 1 -135.5t1 -110.5h-397q0 15 1 110.5t1 135.5v1224z
" />
    <glyph glyph-name="O" unicode="O" horiz-adv-x="1785" 
d="M893 1475q165 0 312.5 -60t251.5 -162t165 -241.5t61 -294.5t-61 -294.5t-165 -241.5t-251.5 -162t-312.5 -60t-312.5 60t-252 162t-165.5 241.5t-61 294.5t61 294.5t165.5 241.5t252 162t312.5 60zM893 1110q-165 0 -281 -115t-116 -278t116 -278t281 -115t281 115
t116 278t-116 278t-281 115z" />
    <glyph glyph-name="P" unicode="P" horiz-adv-x="1269" 
d="M696 471h-215v-225q0 -40 1 -135.5t1 -110.5h-397q0 15 1 110.5t1 135.5v1188h625q146 0 253 -65.5t159.5 -174.5t52.5 -248q0 -102 -26 -185.5t-81 -150t-150.5 -103t-224.5 -36.5zM481 770h135q83 0 131 49t48 127q0 82 -47 133t-132 51h-135v-360z" />
    <glyph glyph-name="Q" unicode="Q" horiz-adv-x="1785" 
d="M1683 246v-307q-216 0 -376 129q-191 -109 -414 -109q-165 0 -312.5 60t-252 162t-165.5 241.5t-61 294.5t61 294.5t165.5 241.5t252 162t312.5 60t312.5 -60t251.5 -162t165 -241.5t61 -294.5q0 -242 -143 -441q72 -30 143 -30zM893 1110q-165 0 -281 -115t-116 -278
t116 -278t281 -115q61 0 129 20q-77 57 -166 57v308q122 0 214.5 -45.5t174.5 -126.5q45 82 45 180q0 163 -116 278t-281 115z" />
    <glyph glyph-name="R" unicode="R" horiz-adv-x="1306" 
d="M1257 0h-411q-37 103 -70 182l-137 350h-92v-286q0 -40 1 -135.5t1 -110.5h-397q0 15 1 110.5t1 135.5v1188h616q209 0 336 -133.5t127 -342.5q0 -138 -56 -233.5t-157 -144.5l147 -357zM678 1118h-131v-311h123q69 0 116.5 44t47.5 107q0 67 -44.5 113.5t-111.5 46.5z
" />
    <glyph glyph-name="S" unicode="S" horiz-adv-x="1181" 
d="M1081 1243l-229 -213q-111 150 -229 150q-39 0 -66 -23.5t-27 -54.5q0 -28 13 -53.5t40.5 -49.5t50 -40t63.5 -42t59 -38q145 -100 193 -141q135 -118 160 -258q7 -38 7 -79q0 -197 -143.5 -319.5t-368.5 -122.5q-184 0 -324.5 84t-222.5 223l297 174q42 -82 107.5 -132
t146.5 -50q57 0 94 32t37 79q0 30 -15.5 58.5t-44.5 54t-64 50t-79 53.5l-24 15q-61 40 -99 67t-91.5 74t-84 89.5t-53 102.5t-22.5 124q0 82 36 159t96 134t144 91t176 34q266 0 467 -232z" />
    <glyph glyph-name="T" unicode="T" horiz-adv-x="1097" 
d="M1036 1436v-340q-15 0 -110 1t-135 1h-46v-852q0 -40 1.5 -135.5t1.5 -110.5h-398q0 15 1 110.5t1 135.5v852h-45q-40 0 -135.5 -1t-110.5 -1v340q15 0 110.5 -1t135.5 -1h484q40 0 135 1t110 1z" />
    <glyph glyph-name="U" unicode="U" horiz-adv-x="1579" 
d="M549 1434q0 -15 -1 -110.5t-1 -135.5v-676q0 -52 21 -97t57 -73q68 -51 192 -51q65 0 122.5 18t92.5 43v836q0 40 -1 135.5t-1 110.5h397q0 -15 -1 -110.5t-1 -135.5v-1057q-34 -25 -60.5 -41.5t-84 -43.5t-117 -44t-151.5 -30t-195 -13q-166 0 -278.5 26t-194.5 83
q-190 133 -190 444v676q0 40 -1 135.5t-1 110.5h397z" />
    <glyph glyph-name="V" unicode="V" horiz-adv-x="1605" 
d="M821 -31h-33l-608 1198q-53 106 -139 267h434q35 -81 90 -191l162 -332q25 -52 51 -119t27 -85h8q2 21 22.5 83.5t47.5 120.5l155 334q64 137 84 189h443q-8 -17 -31.5 -62.5t-55 -105t-48.5 -92.5z" />
    <glyph glyph-name="W" unicode="W" horiz-adv-x="2195" 
d="M1085 717q-2 -20 -23.5 -87t-45.5 -118l-258 -569h-37l-580 1228q-111 235 -121 263h392q63 -147 88 -197l170 -348q21 -42 43 -114t24 -91h8q2 21 21.5 82.5t46.5 122.5l250 561h37l256 -561q28 -59 46.5 -120.5t20.5 -84.5h9q2 17 26 88t45 117l166 348q18 38 86 197
h420q-5 -11 -32.5 -66t-55 -111.5t-41.5 -85.5l-588 -1228h-37l-264 569q-24 50 -44.5 117t-22.5 88h-5z" />
    <glyph glyph-name="X" unicode="X" horiz-adv-x="1622" 
d="M1487 1434q-10 -15 -82 -119.5t-94 -136.5l-285 -412l365 -506q26 -36 190 -260h-475q-27 50 -100 160l-134 207q-19 29 -33 60t-20 49t-6 24h-8q-11 -54 -62 -133l-137 -207q-73 -110 -100 -160h-465q22 32 88 123t98 137l355 506l-301 412q-16 21 -61 81t-83 110.5
t-49 64.5h485q49 -86 97 -156l67 -100q45 -64 64 -142h8q0 5 6 26t20.5 54.5t32.5 61.5l64 100q18 28 51.5 85t42.5 71h461z" />
    <glyph glyph-name="Y" unicode="Y" horiz-adv-x="1474" 
d="M555 0q0 15 1 110.5t1 135.5v446l-350 486q-14 20 -59.5 81.5t-81.5 110.5t-46 64h465q60 -97 103 -158l84 -123q26 -36 47 -79t24 -62h9q0 10 21 55t48 86l82 125q12 17 48 72t57 84h446q-57 -85 -176 -252l-340 -482v-454q0 -40 1 -135.5t1 -110.5h-385z" />
    <glyph glyph-name="Z" unicode="Z" horiz-adv-x="1368" 
d="M842 319h157q40 0 135.5 1.5t110.5 1.5v-324q-15 0 -110.5 1t-135.5 1h-970l567 948q95 157 129 174l-4 8q-27 -12 -219 -12h-129q-40 0 -135.5 -1t-110.5 -1v320q15 0 110.5 -1t135.5 -1h934l-557 -945q-34 -58 -76 -113t-56 -61l5 -8q28 12 219 12z" />
    <glyph glyph-name="bracketleft" unicode="[" horiz-adv-x="655" 
d="M82 -61v1556h321q40 0 84.5 1t59.5 1v-266q-15 0 -59.5 1t-84.5 1h-55v-1032h76q40 0 84 1t59 1v-266q-15 0 -59 1t-84 1h-342z" />
    <glyph glyph-name="backslash" unicode="\" horiz-adv-x="907" 
d="M-35 1532l254 113q9 -19 47.5 -108.5t50.5 -117.5l562 -1263q65 -138 102 -224l-254 -112q-9 20 -48 110t-50 115l-561 1264q-83 176 -103 223z" />
    <glyph glyph-name="bracketright" unicode="]" horiz-adv-x="655" 
d="M573 1495v-1556h-342q-40 0 -84 -1t-59 -1v266q15 0 59 -1t84 -1h76v1032h-55q-40 0 -84 -1t-59 -1v266q15 0 59 -1t84 -1h321z" />
    <glyph glyph-name="asciicircum" unicode="^" horiz-adv-x="1327" 
d="M668 883h-9q-5 -25 -34.5 -71t-73.5 -95l-35 -39l-162 -182l-252 227q128 137 172 186l390 432l389 -432q44 -49 172 -186l-252 -227l-162 182l-35 39q-44 49 -73.5 95t-34.5 71z" />
    <glyph glyph-name="underscore" unicode="_" horiz-adv-x="1413" 
d="M1311 -84v-332q-15 0 -110.5 1t-135.5 1h-717q-40 0 -135.5 -1t-110.5 -1v332q15 0 110.5 -1t135.5 -1h717q40 0 135.5 1t110.5 1z" />
    <glyph glyph-name="grave" unicode="`" horiz-adv-x="655" 
d="M49 1434l234 155l278 -344l-180 -119z" />
    <glyph glyph-name="a" unicode="a" horiz-adv-x="1216" 
d="M588 1012q162 0 288.5 -50.5t178.5 -156.5q30 -61 30 -195v-516q-32 -22 -72 -43t-103 -45.5t-148 -39.5t-176 -15q-110 0 -196.5 20t-142.5 54t-93 81.5t-52.5 99t-15.5 109.5q0 147 107 239.5t303 92.5q90 0 158 -26.5t94 -65.5l8 4q-11 33 -15 78q-6 71 -60 110
t-134 39q-146 0 -266 -69l-101 205q51 26 93.5 42t128 32t186.5 16zM578 451q-66 0 -105 -36t-39 -91q0 -64 43 -106t117 -42q87 0 151 57v123q-20 37 -65 66t-102 29z" />
    <glyph glyph-name="b" unicode="b" horiz-adv-x="1363" 
d="M131 1464h363q0 -17 -1 -118.5t-1 -143.5v-207q0 -68 -11 -94l8 -4q39 44 122.5 75.5t174.5 31.5q137 0 246.5 -58.5t175.5 -175.5t66 -274q0 -116 -41 -214.5t-117 -170t-190.5 -112t-255.5 -40.5q-127 0 -243.5 34.5t-183.5 75t-110 83.5v1050q0 42 -1 143.5t-1 118.5z
M492 594v-256q76 -80 190 -80q98 0 160.5 62.5t62.5 158.5q0 95 -59.5 160.5t-153.5 65.5q-133 0 -200 -111z" />
    <glyph glyph-name="c" unicode="c" horiz-adv-x="1249" 
d="M659 1004q82 0 153.5 -17t126 -48t93 -62t76.5 -72l-256 -201q-72 105 -184 105q-92 0 -149.5 -64t-57.5 -158q0 -91 61 -156t150 -65q122 0 196 115l283 -180q-31 -44 -70.5 -82t-98.5 -76.5t-141.5 -61t-176.5 -22.5q-244 0 -403 147.5t-159 376.5q0 221 158.5 371
t398.5 150z" />
    <glyph glyph-name="d" unicode="d" horiz-adv-x="1363" 
d="M870 1464h363q0 -17 -1 -118.5t-1 -143.5v-1050q-43 -43 -110 -83.5t-183.5 -75t-243.5 -34.5q-141 0 -255.5 40.5t-190.5 112t-117 170t-41 214.5q0 157 66 274t175.5 175.5t246.5 58.5q91 0 174 -31.5t122 -75.5l9 4q-11 26 -11 94v207q0 42 -1 143.5t-1 118.5z
M872 338v256q-67 111 -200 111q-94 0 -153.5 -65.5t-59.5 -160.5q0 -96 62.5 -158.5t160.5 -62.5q114 0 190 80z" />
    <glyph glyph-name="e" unicode="e" horiz-adv-x="1249" 
d="M1143 422h-701q5 -100 52 -154.5t133 -54.5q41 0 75 12.5t55 34t33.5 41t20.5 41.5l295 -166q-50 -90 -165.5 -153.5t-293.5 -63.5q-133 0 -239 42t-173 113.5t-102 162.5t-35 194q0 238 147 385.5t373 147.5q162 0 284 -71t183.5 -188t61.5 -262q0 -41 -4 -61zM627 774
q-64 0 -112.5 -39t-57.5 -112h346q2 55 -44.5 103t-131.5 48z" />
    <glyph glyph-name="f" unicode="f" horiz-adv-x="757" 
d="M707 1454v-283q-41 9 -62 9q-153 0 -153 -176v-41q42 0 118.5 1t89.5 1v-258q-13 0 -89.5 1t-118.5 1v-914q0 -40 1 -135.5t1 -110.5h-363q0 15 1 110.5t1 135.5v1127q0 245 78 370q57 90 149.5 136.5t198.5 46.5q97 0 148 -21z" />
    <glyph glyph-name="g" unicode="g" horiz-adv-x="1363" 
d="M1231 811v-852q0 -146 -74.5 -249.5t-198.5 -152.5t-286 -49q-332 0 -518 142l186 237q62 -56 120.5 -82t164.5 -26q68 0 119.5 21.5t77.5 53.5t38 61t12 52q0 68 11 94l-9 5q-39 -44 -121 -75.5t-173 -31.5q-210 0 -350 136.5t-140 371.5q0 237 162.5 387t443.5 150
q183 0 323 -60.5t212 -132.5zM872 369v256q-76 80 -190 80q-98 0 -160.5 -63t-62.5 -159q0 -95 59.5 -160t153.5 -65q133 0 200 111z" />
    <glyph glyph-name="h" unicode="h" horiz-adv-x="1292" 
d="M494 1577q0 -15 -1 -110.5t-1 -135.5v-291q0 -46 -10.5 -102.5t-16.5 -75.5l8 -4q37 59 124 102.5t194 43.5q78 0 143.5 -22t117 -66t80.5 -119t29 -174v-377q0 -40 1 -135.5t1 -110.5h-362q0 15 1 110.5t1 135.5v286q0 90 -40.5 135.5t-111.5 45.5q-68 0 -113.5 -44
t-45.5 -143v-280q0 -40 1 -135.5t1 -110.5h-363q0 15 1 110.5t1 135.5v1085q0 40 -1 135.5t-1 110.5h363z" />
    <glyph glyph-name="i" unicode="i" horiz-adv-x="645" 
d="M504 963q0 -15 -1 -110.5t-1 -135.5v-471q0 -40 1 -135.5t1 -110.5h-363q0 15 1 110.5t1 135.5v471q0 40 -1 135.5t-1 110.5h363zM322 1511q80 0 137 -57.5t57 -136.5q0 -80 -57.5 -137.5t-136.5 -57.5q-80 0 -137.5 58t-57.5 137t57.5 136.5t137.5 57.5z" />
    <glyph glyph-name="j" unicode="j" horiz-adv-x="645" 
d="M504 963q0 -15 -1 -110.5t-1 -135.5v-922q0 -40 1 -135.5t1 -110.5h-363q0 15 1 110.5t1 135.5v922q0 40 -1 135.5t-1 110.5h363zM322 1511q80 0 137 -57.5t57 -136.5q0 -80 -57.5 -137.5t-136.5 -57.5q-80 0 -137.5 58t-57.5 137t57.5 136.5t137.5 57.5z" />
    <glyph glyph-name="k" unicode="k" horiz-adv-x="1370" 
d="M129 1577h363q0 -15 -1.5 -110.5t-1.5 -135.5v-725l238 238q2 2 113 119h467q-31 -29 -117.5 -112.5t-116.5 -111.5l-242 -231l263 -262q27 -27 116.5 -114.5t132.5 -131.5h-491q-27 31 -121 135l-242 254v-143q0 -40 1.5 -135.5t1.5 -110.5h-363q0 15 1 110.5t1 135.5
v1085q0 40 -1 135.5t-1 110.5z" />
    <glyph glyph-name="l" unicode="l" horiz-adv-x="645" 
d="M141 1577h363q0 -15 -1 -110.5t-1 -135.5v-1085q0 -40 1 -135.5t1 -110.5h-363q0 15 1 110.5t1 135.5v1085q0 40 -1 135.5t-1 110.5z" />
    <glyph glyph-name="m" unicode="m" horiz-adv-x="1906" 
d="M477 846l8 -4q25 61 110 111.5t200 50.5q187 0 266 -142q18 -36 26 -74h9q17 55 49 93q49 58 123.5 90.5t158.5 32.5q160 0 253.5 -93t93.5 -288v-377q0 -40 1 -135.5t1 -110.5h-363q0 15 1 110.5t1 135.5v286q0 185 -129 185q-63 0 -108 -40t-45 -132v-299
q0 -40 1 -135.5t1 -110.5h-363q0 15 1 110.5t1 135.5v286q0 185 -135 185q-65 0 -106 -43t-41 -129v-299q0 -40 1 -135.5t1 -110.5h-363q0 15 1 110.5t1 135.5v471q0 40 -1 135.5t-1 110.5h356q-4 -100 -10 -117z" />
    <glyph glyph-name="n" unicode="n" horiz-adv-x="1286" 
d="M477 846l8 -4q25 63 102.5 112.5t192.5 49.5q76 0 141.5 -22t118.5 -66t83 -119t30 -174v-377q0 -40 1 -135.5t1 -110.5h-362q0 15 1 110.5t1 135.5v286q0 89 -39.5 137t-106.5 48q-66 0 -111.5 -42.5t-45.5 -129.5v-299q0 -40 1 -135.5t1 -110.5h-363q0 15 1 110.5
t1 135.5v471q0 40 -1 135.5t-1 110.5h356q-4 -100 -10 -117z" />
    <glyph glyph-name="o" unicode="o" horiz-adv-x="1335" 
d="M668 1004q126 0 236 -41t186 -111.5t119.5 -167t43.5 -203.5t-43.5 -203t-119.5 -166.5t-186 -111.5t-236 -41t-236 41t-186.5 111.5t-120 166.5t-43.5 203q0 144 74 263t209 189.5t303 70.5zM668 717q-97 0 -162.5 -69t-65.5 -167t65.5 -166.5t162.5 -68.5t162 68.5
t65 166.5t-65 167t-162 69z" />
    <glyph glyph-name="p" unicode="p" horiz-adv-x="1363" 
d="M494 -451h-363q0 17 1 119t1 144v999q43 43 110 83.5t183.5 75t243.5 34.5q141 0 255.5 -40.5t190.5 -112t117 -170t41 -214.5q0 -157 -66 -274t-175.5 -175.5t-246.5 -58.5q-91 0 -174.5 31.5t-122.5 75.5l-8 -5q11 -26 11 -94v-155q0 -42 1 -144t1 -119zM492 625v-256
q67 -111 200 -111q94 0 153.5 65t59.5 160q0 96 -62.5 159t-160.5 63q-114 0 -190 -80z" />
    <glyph glyph-name="q" unicode="q" horiz-adv-x="1363" 
d="M1233 -451h-363q0 17 1 119t1 144v155q0 68 11 94l-9 5q-39 -44 -122 -75.5t-174 -31.5q-137 0 -246.5 58.5t-175.5 175.5t-66 274q0 116 41 214.5t117 170t190.5 112t255.5 40.5q127 0 243.5 -34.5t183.5 -75t110 -83.5v-999q0 -42 1 -144t1 -119zM872 369v256
q-76 80 -190 80q-98 0 -160.5 -63t-62.5 -159q0 -95 59.5 -160t153.5 -65q133 0 200 111z" />
    <glyph glyph-name="r" unicode="r" horiz-adv-x="901" 
d="M856 958v-321q-64 27 -127 27q-110 0 -173.5 -61.5t-63.5 -160.5v-196q0 -40 1 -135.5t1 -110.5h-363q0 15 1 110.5t1 135.5v471q0 40 -1 135.5t-1 110.5h356q0 -113 -6 -140l11 -4q29 68 105.5 110t170.5 42q62 0 88 -13z" />
    <glyph glyph-name="s" unicode="s" horiz-adv-x="958" 
d="M901 877l-190 -211q-29 47 -81.5 86t-113.5 39q-46 0 -68 -19t-22 -43q0 -21 10.5 -37t33.5 -30t44.5 -23.5t60 -25.5t62.5 -27q47 -22 82 -41.5t75.5 -49.5t66.5 -61.5t43.5 -75t17.5 -92.5q0 -145 -108.5 -234t-317.5 -89q-314 0 -484 166l244 219q38 -57 99.5 -104.5
t136.5 -47.5q45 0 69.5 19.5t24.5 50.5q0 12 -4.5 23t-15.5 21.5t-21 18t-30 18.5t-33 17t-40 18t-41 19q-43 21 -62.5 30.5t-59 32t-59.5 38.5t-48.5 43t-42.5 53t-24.5 61t-10.5 74q0 131 106.5 219t299.5 88q122 0 230.5 -40t170.5 -103z" />
    <glyph glyph-name="t" unicode="t" horiz-adv-x="735" 
d="M492 1229q0 -15 -1.5 -110.5t-1.5 -135.5v-20q41 0 110 1t79 1v-308q-117 0 -189 2v-413q0 -40 1.5 -135.5t1.5 -110.5h-363q0 15 1 110.5t1 135.5v737q0 40 -1 135.5t-1 110.5h363z" />
    <glyph glyph-name="u" unicode="u" horiz-adv-x="1302" 
d="M1171 963q0 -15 -1 -110.5t-1 -135.5v-635q-62 -42 -201 -82.5t-306 -40.5q-529 0 -529 410v348q0 40 -1 135.5t-1 110.5h363q0 -15 -1 -110.5t-1 -135.5v-297q0 -77 45 -125.5t137 -48.5q74 0 137 33v438q0 40 -1 135.5t-1 110.5h362z" />
    <glyph glyph-name="v" unicode="v" horiz-adv-x="1282" 
d="M537 0l-377 705q-17 33 -74 136.5t-66 121.5h402q10 -21 27.5 -60t31.5 -70t27 -57l63 -129q26 -53 50 -117.5t26 -83.5h8q3 39 76 201l57 129q29 64 82 187h392q-10 -22 -64.5 -127t-67.5 -131l-360 -705h-233z" />
    <glyph glyph-name="w" unicode="w" horiz-adv-x="1843" 
d="M936 528h-8q0 -19 -19 -80.5t-45 -123.5l-133 -324h-246l-338 705q-27 56 -70 142.5t-57 115.5h390q53 -141 75 -187l62 -137q75 -166 78 -205h8q2 18 25 87.5t44 117.5l140 324h172l147 -308q23 -48 50 -117.5t28 -86.5h8q3 38 70 204l49 121q12 31 36 94t36 93h387
q-80 -160 -125 -258l-328 -705h-225l-143 324q-63 148 -68 204z" />
    <glyph glyph-name="x" unicode="x" horiz-adv-x="1437" 
d="M877 963h469q-14 -17 -108 -118.5t-114 -123.5l-186 -205l236 -252q232 -243 251 -264h-477q-38 47 -123 143q-108 124 -112 168h-8q-4 -46 -107 -168q-17 -20 -115 -143h-471q45 49 130.5 138.5t117.5 123.5l229 254l-184 199q-114 119 -235 248h483l78 -103
q26 -35 37 -50.5t22 -36t15 -38.5h8q3 37 78 125z" />
    <glyph glyph-name="y" unicode="y" horiz-adv-x="1318" 
d="M1298 963q-24 -50 -73.5 -143t-65.5 -124l-504 -968q-50 -98 -88 -179h-395q3 6 137 261l176 348l-311 542q-12 20 -78 131.5t-76 131.5h408q38 -82 84 -168l86 -164q28 -53 49 -109t23 -76h8q2 16 25 75t49 110l75 149q19 36 49 103t37 80h385z" />
    <glyph glyph-name="z" unicode="z" horiz-adv-x="1073" 
d="M698 274h72q40 0 135.5 1t110.5 1v-278q-15 0 -110.5 1t-135.5 1h-729l365 592q43 71 86 108l-7 9q-11 -8 -49.5 -14.5t-83.5 -6.5h-20q-40 0 -135.5 -1t-110.5 -1v279q15 0 110.5 -1t135.5 -1h672l-359 -590q-12 -20 -25 -37t-25.5 -29.5t-20.5 -19.5t-18 -15l-11 -8
l6 -8q21 18 147 18z" />
    <glyph glyph-name="braceleft" unicode="{" horiz-adv-x="671" 
d="M381 725q149 -26 149 -303v-254q0 -55 22.5 -81t74.5 -26h18v-274h-188q-108 0 -171 77t-63 210v288q0 39 -2 64t-10.5 56t-24 49.5t-45 33t-71.5 17.5v295q42 3 71.5 17.5t45 32.5t24 49t10.5 56t2 64v264q0 133 63 210t171 77h188v-275h-18q-52 0 -74.5 -25.5
t-22.5 -80.5v-230q0 -277 -149 -303v-8z" />
    <glyph glyph-name="bar" unicode="|" horiz-adv-x="602" 
d="M162 1669h278q0 -15 -1 -110.5t-1 -135.5v-1382q0 -40 1 -135.5t1 -110.5h-278q0 15 1 110.5t1 135.5v1382q0 40 -1 135.5t-1 110.5z" />
    <glyph glyph-name="braceright" unicode="}" horiz-adv-x="671" 
d="M289 725v8q-150 26 -150 303v230q0 55 -22 80.5t-74 25.5h-18v275h188q108 0 170.5 -77t62.5 -210v-264q0 -39 2 -64t10.5 -56t24.5 -49t45.5 -32.5t71.5 -17.5v-295q-42 -3 -71.5 -17.5t-45.5 -33t-24.5 -49t-10.5 -56t-2 -64.5v-288q0 -133 -62.5 -210t-170.5 -77h-188
v274h18q51 0 73.5 26t22.5 81v254q0 277 150 303z" />
    <glyph glyph-name="asciitilde" unicode="~" horiz-adv-x="1486" 
d="M319 508l-278 49q21 116 96 206.5t183.5 134t224.5 28.5l434 -58q68 -9 123 33.5t65 112.5l279 -49q-21 -116 -96 -207t-183.5 -134.5t-224.5 -27.5l-432 59q-66 9 -123.5 -34.5t-67.5 -112.5z" />
    <glyph glyph-name="uni00A0" unicode="&#xa0;" horiz-adv-x="819" 
 />
    <glyph glyph-name="exclamdown" unicode="&#xa1;" horiz-adv-x="643" 
d="M512 -451h-381q0 15 1 110.5t1 135.5v451q0 40 -1 135.5t-1 110.5h381q0 -15 -1 -110.5t-1 -135.5v-451q0 -40 1 -135.5t1 -110.5zM326 573q-95 0 -162.5 66t-67.5 160t67.5 159.5t162.5 65.5t162 -65.5t67 -159.5t-67 -160t-162 -66z" />
    <glyph glyph-name="cent" unicode="&#xa2;" horiz-adv-x="1249" 
d="M477 -209q0 121 2 193q-168 51 -272.5 189t-104.5 314q0 171 104.5 305.5t272.5 184.5q-2 74 -2 194h363q0 -12 -1 -82.5t-1 -111.5q92 -28 163.5 -75.5t106.5 -96.5l-256 -201q-68 105 -180 105q-94 0 -152.5 -64t-58.5 -158q0 -91 63 -156t152 -65q118 0 192 115
l283 -178q-111 -163 -313 -219q0 -41 1 -112t1 -81h-363z" />
    <glyph glyph-name="sterling" unicode="&#xa3;" horiz-adv-x="1370" 
d="M1251 1077l-364 -73q-11 68 -63.5 111.5t-145.5 43.5q-65 0 -119.5 -39t-54.5 -114q0 -50 37 -144h131q40 0 135.5 1t110.5 1v-299q-15 0 -110.5 1t-135.5 1h-45q-3 -79 -37 -137.5t-94 -87.5l2 -6q45 20 108 20q60 0 179 -36.5t169 -36.5q141 0 271 112l102 -303
q-51 -35 -95 -59.5t-127 -49t-171 -24.5q-69 0 -141 23.5t-141 47t-130 23.5q-101 0 -177.5 -20.5t-184.5 -73.5l-117 322q107 33 161 107t54 153q0 16 -2 26q-42 0 -124 -1t-95 -1v299q6 0 49 -1t72 -1q-39 97 -39 185q0 89 32 162t86 121.5t127.5 82t154 48t167.5 14.5
q142 0 246 -29.5t167.5 -86t98.5 -124.5t53 -158z" />
    <glyph glyph-name="currency" unicode="&#xa4;" horiz-adv-x="1556" 
d="M778 1200q121 0 223 -51l170 174l222 -221l-174 -170q51 -105 51 -223q0 -121 -51 -226l174 -168l-222 -221q-75 81 -170 172q-104 -49 -223 -49q-121 0 -225 49l-168 -172l-221 221l172 168q-49 101 -49 226q0 122 49 223q-91 95 -172 170l221 221l168 -174
q102 51 225 51zM778 926q-85 0 -145 -63t-60 -154t60 -154t145 -63t145 63t60 154t-60 154t-145 63z" />
    <glyph glyph-name="yen" unicode="&#xa5;" horiz-adv-x="1474" 
d="M1276 915v-258q-15 0 -110.5 1t-135.5 1h-92v-147h92q40 0 135.5 1t110.5 1v-258q-15 0 -110.5 1t-135.5 1h-92v-12q0 -40 1 -135.5t1 -110.5h-385q0 15 1 110.5t1 135.5v12h-92q-40 0 -135.5 -1t-110.5 -1v258q15 0 110.5 -1t135.5 -1h92v147h-92q-40 0 -135.5 -1
t-110.5 -1v258q9 0 73.5 -1t104.5 -1l-190 265q-14 20 -59.5 81.5t-81.5 110.5t-46 64h465q60 -97 103 -158l84 -123q26 -36 47 -79t24 -62h9q0 10 21 55t48 86l82 125q12 17 48 72t57 84h446q-57 -85 -176 -252l-191 -269q41 0 110 1t79 1z" />
    <glyph glyph-name="brokenbar" unicode="&#xa6;" horiz-adv-x="602" 
d="M162 625h278q0 -15 -1 -110.5t-1 -135.5v-338q0 -40 1 -135.5t1 -110.5h-278q0 15 1 110.5t1 135.5v338q0 40 -1 135.5t-1 110.5zM162 1669h278q0 -15 -1 -110.5t-1 -135.5v-338q0 -40 1 -135t1 -110h-278q0 15 1 110t1 135v338q0 40 -1 135.5t-1 110.5z" />
    <glyph glyph-name="section" unicode="&#xa7;" horiz-adv-x="1294" 
d="M1192 594q0 -238 -193 -332q140 -110 140 -262q0 -170 -138 -281.5t-364 -111.5q-244 0 -375 114.5t-131 307.5h369q0 -60 41 -102t114 -42q59 0 97.5 33.5t38.5 85.5q0 20 -3.5 36t-12.5 29t-17.5 22.5t-26.5 17.5t-30.5 13t-39.5 11t-43 9.5t-50.5 9.5t-53.5 10
q-204 39 -308 132.5t-104 274.5q0 240 191 330q-137 108 -137 264q0 170 137.5 281.5t363.5 111.5q245 0 375.5 -114t130.5 -307h-368q0 60 -41.5 101.5t-114.5 41.5q-59 0 -97 -33.5t-38 -85.5q0 -20 3.5 -36t12.5 -29t17 -22.5t26.5 -17.5t31 -13t39 -11t42.5 -9.5
t50.5 -9.5t53.5 -10q204 -39 308 -132.5t104 -274.5zM831 582q0 37 -11.5 63t-39 44t-53 28t-72.5 24q-192 -16 -192 -159q0 -70 42 -102.5t134 -57.5q192 16 192 160z" />
    <glyph glyph-name="dieresis" unicode="&#xa8;" horiz-adv-x="1105" 
d="M297 1464q80 0 137.5 -57.5t57.5 -136.5q0 -80 -58 -137.5t-137 -57.5t-137 57.5t-58 137.5q0 79 57.5 136.5t137.5 57.5zM809 1464q80 0 137.5 -57.5t57.5 -136.5q0 -80 -58 -137.5t-137 -57.5t-137 57.5t-58 137.5q0 79 57.5 136.5t137.5 57.5z" />
    <glyph glyph-name="copyright" unicode="&#xa9;" horiz-adv-x="1679" 
d="M840 1475q154 0 294 -60t241.5 -161.5t161.5 -242t60 -294.5t-60 -294.5t-161.5 -242t-241.5 -161.5t-294 -60t-294.5 60t-242 161.5t-161.5 242t-60 294.5t60 294.5t161.5 242t242 161.5t294.5 60zM840 1270q-147 0 -271.5 -74t-197 -201.5t-72.5 -277.5t72.5 -277.5
t197 -201.5t271.5 -74q110 0 210 44t172.5 118t115 176.5t42.5 214.5t-42.5 214.5t-115 176.5t-172.5 118t-210 44zM844 1106q174 0 297 -137l-162 -138q-24 33 -60.5 51.5t-74.5 18.5q-71 0 -121.5 -54t-50.5 -130t50.5 -130.5t121.5 -54.5q88 0 145 84l160 -141
q-56 -68 -134.5 -107.5t-170.5 -39.5q-161 0 -275 114t-114 275t114 275t275 114z" />
    <glyph glyph-name="ordfeminine" unicode="&#xaa;" horiz-adv-x="700" 
d="M451 1208l2 2q-7 35 -7 39q-3 37 -36.5 57.5t-81.5 20.5q-83 0 -160 -37l-64 119q109 51 248 51q96 0 171 -28.5t108 -88.5q18 -30 18 -108v-289q-121 -80 -299 -80q-157 0 -228 59t-71 148q0 83 64 135t182 52q54 0 96 -15.5t58 -38.5v2zM356 1001q53 0 90 31v62
q-11 18 -38 33.5t-62 15.5q-39 0 -62.5 -19t-23.5 -47q0 -33 25.5 -54.5t70.5 -21.5z" />
    <glyph glyph-name="guillemotleft" unicode="&#xab;" horiz-adv-x="1146" 
d="M729 250l-186 262l186 262q15 21 67.5 97t80.5 114l188 -137l-137 -195l-99 -141l99 -141l137 -195l-188 -137q-28 38 -80.5 114t-67.5 97zM264 250l-186 262l186 262q15 21 67.5 97t80.5 114l188 -137l-137 -195l-98 -141l98 -141l137 -195l-188 -137q-28 38 -80.5 114
t-67.5 97z" />
    <glyph glyph-name="logicalnot" unicode="&#xac;" horiz-adv-x="1466" 
d="M410 893h893v-291q0 -40 1 -135.5t1 -110.5h-324q0 158 2 230h-573q-40 0 -135.5 -1t-110.5 -1v311q15 0 110.5 -1t135.5 -1z" />
    <glyph glyph-name="uni00AD" unicode="&#xad;" horiz-adv-x="870" 
d="M82 662q7 0 55 -1.5t68 -1.5h461q20 0 67.5 1.5t54.5 1.5v-332q-7 0 -54.5 1t-67.5 1h-461q-20 0 -68 -1t-55 -1v332z" />
    <glyph glyph-name="registered" unicode="&#xae;" horiz-adv-x="1679" 
d="M555 1085h358q103 0 168.5 -69.5t65.5 -171.5q0 -157 -115 -209q-28 -14 -37 -10l-2 -4q22 -11 31 -29l68 -125q40 -72 69 -119h-229q-6 13 -25.5 47.5t-27.5 50.5l-82 158h-25v-123q0 -22 1 -73.5t1 -59.5h-221q0 8 1 59.5t1 73.5v604zM772 918v-146h88q29 0 49.5 21.5
t20.5 50.5q0 31 -20.5 52.5t-49.5 21.5h-88zM840 1475q154 0 294 -60t241.5 -161.5t161.5 -242t60 -294.5t-60 -294.5t-161.5 -242t-241.5 -161.5t-294 -60t-294.5 60t-242 161.5t-161.5 242t-60 294.5t60 294.5t161.5 242t242 161.5t294.5 60zM840 1270q-147 0 -271.5 -74
t-197 -201.5t-72.5 -277.5t72.5 -277.5t197 -201.5t271.5 -74q110 0 210 44t172.5 118t115 176.5t42.5 214.5t-42.5 214.5t-115 176.5t-172.5 118t-210 44z" />
    <glyph glyph-name="macron" unicode="&#xaf;" horiz-adv-x="962" 
d="M205 1333q7 0 55 -1t68 -1h307q20 0 68 1t55 1v-250q-7 0 -55 1t-68 1h-307q-20 0 -68 -1t-55 -1v250z" />
    <glyph glyph-name="degree" unicode="&#xb0;" horiz-adv-x="733" 
d="M367 1458q143 0 244.5 -99.5t101.5 -238.5t-101.5 -238.5t-244.5 -99.5t-245 99.5t-102 238.5t102 238.5t245 99.5zM367 1270q-63 0 -108.5 -44.5t-45.5 -105.5t45.5 -105t108.5 -44t108 44t45 105q0 62 -45 106t-108 44z" />
    <glyph glyph-name="plusminus" unicode="&#xb1;" horiz-adv-x="1466" 
d="M889 1513q0 -15 -1 -110t-1 -135v-170h170q40 0 135.5 1t110.5 1v-312q-15 0 -110.5 1.5t-135.5 1.5h-170v-170q0 -40 1 -135.5t1 -110.5h-311q0 15 1 110.5t1 135.5v170h-170q-40 0 -135.5 -1.5t-110.5 -1.5v312q15 0 110.5 -1t135.5 -1h170v170q0 40 -1 135t-1 110h311
zM1303 219v-311q-15 0 -110.5 1t-135.5 1h-647q-40 0 -135.5 -1t-110.5 -1v311q15 0 110.5 -1t135.5 -1h647q40 0 135.5 1t110.5 1z" />
    <glyph glyph-name="twosuperior" unicode="&#x2072;" horiz-adv-x="796" 
d="M63 860q221 218 310 320q28 34 41.5 51.5t29 49.5t15.5 58q0 37 -18.5 60.5t-55.5 23.5q-43 0 -64.5 -30t-21.5 -82h-213q0 125 80 205.5t219 80.5q131 0 213 -74t82 -182q0 -62 -20.5 -107t-71.5 -91l-88 -82q-5 -5 -16.5 -14.5t-16.5 -14.5q24 4 51 4h172v-176h-627z
" />
    <glyph glyph-name="twosuperior" unicode="&#xb2;" horiz-adv-x="796" 
d="M63 860q221 218 310 320q28 34 41.5 51.5t29 49.5t15.5 58q0 37 -18.5 60.5t-55.5 23.5q-43 0 -64.5 -30t-21.5 -82h-213q0 125 80 205.5t219 80.5q131 0 213 -74t82 -182q0 -62 -20.5 -107t-71.5 -91l-88 -82q-5 -5 -16.5 -14.5t-16.5 -14.5q24 4 51 4h172v-176h-627z
" />
    <glyph glyph-name="threesuperior" unicode="&#x2073;" horiz-adv-x="786" 
d="M393 1597q114 0 184 -60t70 -151q0 -94 -69 -131q52 -18 84 -64.5t32 -111.5q0 -110 -83 -174.5t-212 -64.5q-133 0 -219.5 78.5t-91.5 191.5h207q18 -94 100 -94q45 0 67.5 23t22.5 59q0 34 -25 56t-77 22h-27v135h15q80 0 80 63q0 25 -17.5 42.5t-46.5 17.5
q-33 0 -53.5 -24.5t-20.5 -57.5h-192q0 101 76 173t196 72z" />
    <glyph glyph-name="threesuperior" unicode="&#xb3;" horiz-adv-x="786" 
d="M393 1597q114 0 184 -60t70 -151q0 -94 -69 -131q52 -18 84 -64.5t32 -111.5q0 -110 -83 -174.5t-212 -64.5q-133 0 -219.5 78.5t-91.5 191.5h207q18 -94 100 -94q45 0 67.5 23t22.5 59q0 34 -25 56t-77 22h-27v135h15q80 0 80 63q0 25 -17.5 42.5t-46.5 17.5
q-33 0 -53.5 -24.5t-20.5 -57.5h-192q0 101 76 173t196 72z" />
    <glyph glyph-name="acute" unicode="&#xb4;" horiz-adv-x="655" 
d="M373 1589l233 -155l-332 -308l-180 119z" />
    <glyph glyph-name="mu" unicode="&#xb5;" horiz-adv-x="1302" 
d="M1171 963q0 -15 -1 -110.5t-1 -135.5v-635q-63 -42 -200.5 -82.5t-304.5 -40.5q-104 0 -175 41l-8 -4q11 -26 11 -94v-90q0 -42 1 -144t1 -119h-363q0 17 1 119t1 144v905q0 40 -1 135.5t-1 110.5h363q0 -15 -1 -110.5t-1 -135.5v-297q0 -78 45 -126t139 -48q72 0 135 33
v438q0 40 -1 135.5t-1 110.5h362z" />
    <glyph glyph-name="paragraph" unicode="&#xb6;" horiz-adv-x="1382" 
d="M10 1075q0 149 111 254t268 105h690q38 0 96.5 1t67.5 1v-287q-74 0 -127 2v-1356q0 -40 1 -135.5t1 -110.5h-270q0 15 1 110.5t1 135.5v1356h-195v-1356q0 -40 1 -135.5t1 -110.5h-270q0 15 1 110.5t1 135.5v922q-157 0 -268 104.5t-111 253.5z" />
    <glyph glyph-name="periodcentered" unicode="&#xb7;" horiz-adv-x="1097" 
d="M549 963q95 0 162 -66t67 -160t-67 -159.5t-162 -65.5t-162.5 65.5t-67.5 159.5t67.5 160t162.5 66z" />
    <glyph glyph-name="cedilla" unicode="&#xb8;" horiz-adv-x="614" 
d="M106 -328l220 262l166 -135l-250 -233z" />
    <glyph glyph-name="onesuperior" unicode="&#x2071;" horiz-adv-x="786" 
d="M516 1577v-471q0 -40 1 -135.5t1 -110.5h-217q0 15 1 110.5t1 135.5v303h-100v168h313z" />
    <glyph glyph-name="onesuperior" unicode="&#xb9;" horiz-adv-x="786" 
d="M516 1577v-471q0 -40 1 -135.5t1 -110.5h-217q0 15 1 110.5t1 135.5v303h-100v168h313z" />
    <glyph glyph-name="ordmasculine" unicode="&#xba;" horiz-adv-x="790" 
d="M399 1458q153 0 252 -86.5t99 -210.5t-99 -210.5t-252 -86.5q-151 0 -250.5 86.5t-99.5 210.5t99.5 210.5t250.5 86.5zM399 1286q-58 0 -96.5 -36t-38.5 -89q0 -52 38.5 -88.5t96.5 -36.5q59 0 98.5 36.5t39.5 88.5q0 53 -39 89t-99 36z" />
    <glyph glyph-name="guillemotright" unicode="&#xbb;" horiz-adv-x="1146" 
d="M604 512l-186 -262q-15 -21 -67.5 -97t-80.5 -114l-188 137l137 195l98 141l-98 141l-137 195l188 137q28 -38 80.5 -114t67.5 -97zM1069 512l-186 -262q-15 -21 -67.5 -97t-80.5 -114l-188 137l137 195l98 141l-98 141l-137 195l188 137q28 -38 80.5 -114t67.5 -97z" />
    <glyph glyph-name="onequarter" unicode="&#xbc;" horiz-adv-x="1005" 
d="M344 776h320q40 0 135 1t110 1v-188q-15 0 -110 1t-135 1h-320q-40 0 -135.5 -1t-110.5 -1v188q15 0 110.5 -1t135.5 -1zM604 1577v-471q0 -40 1 -135.5t1 -110.5h-217q0 15 1 110.5t1 135.5v303h-100v168h313zM721 492v-408h98v-168h-98q0 -9 1 -63t1 -78h-209
q0 27 1 80t1 61h-360v141l297 435h268zM518 303q-11 -21 -39 -63l-76 -111q-19 -27 -41 -49q40 4 66 4h88v145q0 51 2 74z" />
    <glyph glyph-name="onehalf" unicode="&#xbd;" horiz-adv-x="1005" 
d="M344 776h320q40 0 135 1t110 1v-188q-15 0 -110 1t-135 1h-320q-40 0 -135.5 -1t-110.5 -1v188q15 0 110.5 -1t135.5 -1zM166 -225q220 217 309 319q27 33 41 51.5t29.5 50.5t15.5 58q0 37 -18.5 60.5t-55.5 23.5q-43 0 -64.5 -30.5t-21.5 -82.5h-213q0 125 80 206
t219 81q131 0 213 -74t82 -182q0 -62 -20.5 -107.5t-71.5 -91.5l-88 -82q-5 -5 -16.5 -14t-16.5 -14q24 4 52 4h172v-176h-627zM604 1577v-471q0 -40 1 -135.5t1 -110.5h-217q0 15 1 110.5t1 135.5v303h-100v168h313z" />
    <glyph glyph-name="threequarters" unicode="&#xbe;" horiz-adv-x="1005" 
d="M344 776h320q40 0 135 1t110 1v-188q-15 0 -110 1t-135 1h-320q-40 0 -135.5 -1t-110.5 -1v188q15 0 110.5 -1t135.5 -1zM508 1597q114 0 184 -60t70 -151q0 -93 -70 -131q52 -18 84.5 -65t32.5 -111q0 -110 -83 -174.5t-212 -64.5q-133 0 -219.5 78.5t-91.5 191.5h207
q18 -94 100 -94q45 0 67.5 23t22.5 59q0 34 -25 56t-77 22h-27v135h14q80 0 80 63q0 26 -17.5 43t-45.5 17q-33 0 -53.5 -24.5t-20.5 -57.5h-192q0 101 76 173t196 72zM721 492v-408h98v-168h-98q0 -9 1 -63t1 -78h-209q0 27 1 80t1 61h-360v141l297 435h268zM518 303
q-11 -21 -39 -63l-76 -111q-19 -27 -41 -49q40 4 66 4h88v145q0 51 2 74z" />
    <glyph glyph-name="questiondown" unicode="&#xbf;" horiz-adv-x="1142" 
d="M770 135h-92q-85 0 -150 -50t-65 -122q0 -56 36.5 -95.5t90.5 -39.5q60 0 93.5 40t33.5 103h381q0 -108 -40.5 -197t-110 -146.5t-161.5 -88.5t-196 -31q-217 0 -362.5 130t-145.5 317q0 85 30 158t79 121t105.5 78.5t113.5 39.5h2q0 35 -1 89.5t-1 62.5h362
q0 -15 -1 -110.5t-1 -135.5v-123zM575 1024q95 0 162.5 -65.5t67.5 -159.5t-67.5 -160t-162.5 -66t-162 66t-67 160t67 159.5t162 65.5z" />
    <glyph glyph-name="Agrave" unicode="&#xc0;" 
d="M772 1483h41l614 -1260q72 -147 113 -223h-407q-10 23 -34.5 75t-31.5 68l-12 29h-523l-12 -29q-4 -10 -28.5 -63.5t-34.5 -79.5h-420q9 19 54 107t59 116zM727 463h129q57 0 72 -10l4 8q-14 7 -33 51l-49 104q-19 40 -32 76.5t-18 55t-5 24.5h-9q0 -36 -53 -156
l-47 -104q-6 -15 -14 -27t-13 -17.5t-8 -6.5l4 -8q10 10 72 10zM250 1806l233 156l279 -344l-180 -119z" />
    <glyph glyph-name="Aacute" unicode="&#xc1;" 
d="M772 1483h41l614 -1260q72 -147 113 -223h-407q-10 23 -34.5 75t-31.5 68l-12 29h-523l-12 -29q-4 -10 -28.5 -63.5t-34.5 -79.5h-420q9 19 54 107t59 116zM727 463h129q57 0 72 -10l4 8q-14 7 -33 51l-49 104q-19 40 -32 76.5t-18 55t-5 24.5h-9q0 -36 -53 -156
l-47 -104q-6 -15 -14 -27t-13 -17.5t-8 -6.5l4 -8q10 10 72 10zM1094 1962l233 -156l-332 -307l-180 119z" />
    <glyph glyph-name="Acircumflex" unicode="&#xc2;" 
d="M772 1483h41l614 -1260q72 -147 113 -223h-407q-10 23 -34.5 75t-31.5 68l-12 29h-523l-12 -29q-4 -10 -28.5 -63.5t-34.5 -79.5h-420q9 19 54 107t59 116zM727 463h129q57 0 72 -10l4 8q-14 7 -33 51l-49 104q-19 40 -32 76.5t-18 55t-5 24.5h-9q0 -36 -53 -156
l-47 -104q-6 -15 -14 -27t-13 -17.5t-8 -6.5l4 -8q10 10 72 10zM1184 1679l-133 -168l-260 140l-261 -140l-133 168l394 256z" />
    <glyph glyph-name="Atilde" unicode="&#xc3;" 
d="M772 1483h41l614 -1260q72 -147 113 -223h-407q-10 23 -34.5 75t-31.5 68l-12 29h-523l-12 -29q-4 -10 -28.5 -63.5t-34.5 -79.5h-420q9 19 54 107t59 116zM727 463h129q57 0 72 -10l4 8q-14 7 -33 51l-49 104q-19 40 -32 76.5t-18 55t-5 24.5h-9q0 -36 -53 -156
l-47 -104q-6 -15 -14 -27t-13 -17.5t-8 -6.5l4 -8q10 10 72 10zM1006 1956l241 -41q-15 -87 -76 -158.5t-148.5 -106.5t-176.5 -20l-156 27q-41 7 -76 -21t-43 -71l-241 41q24 134 145 221t256 63l154 -26q42 -7 77.5 20.5t43.5 71.5z" />
    <glyph glyph-name="Adieresis" unicode="&#xc4;" 
d="M772 1483h41l614 -1260q72 -147 113 -223h-407q-10 23 -34.5 75t-31.5 68l-12 29h-523l-12 -29q-4 -10 -28.5 -63.5t-34.5 -79.5h-420q9 19 54 107t59 116zM727 463h129q57 0 72 -10l4 8q-14 7 -33 51l-49 104q-19 40 -32 76.5t-18 55t-5 24.5h-9q0 -36 -53 -156
l-47 -104q-6 -15 -14 -27t-13 -17.5t-8 -6.5l4 -8q10 10 72 10zM537 1966q79 0 136.5 -57t57.5 -137t-57.5 -137.5t-136.5 -57.5t-137 57.5t-58 137.5q0 79 57.5 136.5t137.5 57.5zM1049 1966q79 0 136.5 -57t57.5 -137t-57.5 -137.5t-136.5 -57.5t-137 57.5t-58 137.5
q0 79 57.5 136.5t137.5 57.5z" />
    <glyph glyph-name="Aring" unicode="&#xc5;" 
d="M772 1483h41l614 -1260q72 -147 113 -223h-407q-10 23 -34.5 75t-31.5 68l-12 29h-523l-12 -29q-4 -10 -28.5 -63.5t-34.5 -79.5h-420q9 19 54 107t59 116zM727 463h129q57 0 72 -10l4 8q-14 7 -33 51l-49 104q-19 40 -32 76.5t-18 55t-5 24.5h-9q0 -36 -53 -156
l-47 -104q-6 -15 -14 -27t-13 -17.5t-8 -6.5l4 -8q10 10 72 10zM788 1997q121 0 194 -68t73 -168t-72.5 -167.5t-194.5 -67.5t-194 67.5t-72 167.5t72 168t194 68zM788 1825q-38 0 -59.5 -18t-21.5 -46q0 -27 21.5 -45t59.5 -18q40 0 61 17.5t21 45.5q0 27 -22 45.5
t-60 18.5z" />
    <glyph glyph-name="AE" unicode="&#xc6;" horiz-adv-x="1861" 
d="M963 0v172h-398l-10 -16l-98 -156h-437q124 176 179 260l762 1174h524q40 0 135.5 1t110.5 1v-340q-15 0 -110.5 1t-135.5 1h-160v-213h82q40 0 135.5 1t110.5 1v-340q-15 0 -110.5 1t-135.5 1h-82v-213h193q40 0 135 1t110 1v-340q-15 0 -110 1t-135 1h-555zM741 451
q4 4 25.5 8t46.5 4h150v186q0 127 16 164l-10 4q-9 -29 -19 -48t-47 -77l-117 -180q-23 -35 -49 -53z" />
    <glyph glyph-name="Ccedilla" unicode="&#xc7;" horiz-adv-x="1564" 
d="M1249 463l254 -264q-109 -114 -270.5 -177t-343.5 -63q-179 0 -328.5 60.5t-249 164.5t-154.5 243.5t-55 297.5q0 157 56 295t156.5 238.5t248 158.5t322.5 58q356 0 581 -232l-245 -254q-150 150 -336 150q-167 0 -278 -111.5t-111 -302.5q0 -188 115.5 -305t277.5 -117
q116 0 195.5 40t164.5 120zM883 -66l-219 -262l135 -106l250 233z" />
    <glyph glyph-name="Egrave" unicode="&#xc8;" horiz-adv-x="1060" 
d="M154 0v1434h530q40 0 135.5 1t110.5 1v-340q-15 0 -110.5 1t-135.5 1h-168v-213h90q40 0 135.5 1t110.5 1v-340q-15 0 -110.5 1t-135.5 1h-90v-213h201q40 0 135.5 1t110.5 1v-340q-15 0 -110.5 1t-135.5 1h-563zM160 1806l233 156l279 -344l-180 -119z" />
    <glyph glyph-name="Eacute" unicode="&#xc9;" horiz-adv-x="1060" 
d="M154 0v1434h530q40 0 135.5 1t110.5 1v-340q-15 0 -110.5 1t-135.5 1h-168v-213h90q40 0 135.5 1t110.5 1v-340q-15 0 -110.5 1t-135.5 1h-90v-213h201q40 0 135.5 1t110.5 1v-340q-15 0 -110.5 1t-135.5 1h-563zM565 1962l234 -156l-332 -307l-180 119z" />
    <glyph glyph-name="Ecircumflex" unicode="&#xca;" horiz-adv-x="1060" 
d="M154 0v1434h530q40 0 135.5 1t110.5 1v-340q-15 0 -110.5 1t-135.5 1h-168v-213h90q40 0 135.5 1t110.5 1v-340q-15 0 -110.5 1t-135.5 1h-90v-213h201q40 0 135.5 1t110.5 1v-340q-15 0 -110.5 1t-135.5 1h-563zM924 1679l-133 -168l-261 140l-260 -140l-133 168
l393 256z" />
    <glyph glyph-name="Edieresis" unicode="&#xcb;" horiz-adv-x="1060" 
d="M154 0v1434h530q40 0 135.5 1t110.5 1v-340q-15 0 -110.5 1t-135.5 1h-168v-213h90q40 0 135.5 1t110.5 1v-340q-15 0 -110.5 1t-135.5 1h-90v-213h201q40 0 135.5 1t110.5 1v-340q-15 0 -110.5 1t-135.5 1h-563zM274 1966q80 0 137.5 -57.5t57.5 -136.5
q0 -80 -57.5 -137.5t-137.5 -57.5q-79 0 -136.5 57.5t-57.5 137.5t57 137t137 57zM786 1966q80 0 137.5 -57.5t57.5 -136.5q0 -80 -57.5 -137.5t-137.5 -57.5q-79 0 -136.5 57.5t-57.5 137.5t57 137t137 57z" />
    <glyph glyph-name="Igrave" unicode="&#xcc;" horiz-adv-x="720" 
d="M162 1434h397q0 -15 -1 -110.5t-1 -135.5v-942q0 -40 1 -135.5t1 -110.5h-397q0 15 1 110.5t1 135.5v942q0 40 -1 135.5t-1 110.5zM-39 1915l234 156l278 -345l-180 -118z" />
    <glyph glyph-name="Iacute" unicode="&#xcd;" horiz-adv-x="720" 
d="M162 1434h397q0 -15 -1 -110.5t-1 -135.5v-942q0 -40 1 -135.5t1 -110.5h-397q0 15 1 110.5t1 135.5v942q0 40 -1 135.5t-1 110.5zM492 2071l233 -156l-332 -307l-180 118z" />
    <glyph glyph-name="Icircumflex" unicode="&#xce;" horiz-adv-x="720" 
d="M162 1434h397q0 -15 -1 -110.5t-1 -135.5v-942q0 -40 1 -135.5t1 -110.5h-397q0 15 1 110.5t1 135.5v942q0 40 -1 135.5t-1 110.5zM754 1679l-133 -168l-261 140l-260 -140l-133 168l393 256z" />
    <glyph glyph-name="Idieresis" unicode="&#xcf;" horiz-adv-x="720" 
d="M162 1434h397q0 -15 -1 -110.5t-1 -135.5v-942q0 -40 1 -135.5t1 -110.5h-397q0 15 1 110.5t1 135.5v942q0 40 -1 135.5t-1 110.5zM104 1966q80 0 137.5 -57.5t57.5 -136.5q0 -80 -57.5 -137.5t-137.5 -57.5q-79 0 -136.5 57.5t-57.5 137.5t57 137t137 57zM616 1966
q80 0 137.5 -57.5t57.5 -136.5q0 -80 -57.5 -137.5t-137.5 -57.5q-79 0 -136.5 57.5t-57.5 137.5t57 137t137 57z" />
    <glyph glyph-name="Eth" unicode="&#xd0;" horiz-adv-x="1566" 
d="M41 879q7 0 55 -1t68 -1h31v557h571q153 0 284 -56t221.5 -152.5t141.5 -228.5t51 -280q0 -147 -51 -277t-144.5 -228t-235 -155t-312.5 -57h-526v549h-31q-20 0 -68 -1t-55 -1v332zM588 1110v-233h78q20 0 67.5 1t54.5 1v-332q-7 0 -54.5 1t-67.5 1h-78v-221h131
q148 0 250 113t102 276q0 169 -101.5 281t-258.5 112h-123z" />
    <glyph glyph-name="Ntilde" unicode="&#xd1;" horiz-adv-x="1644" 
d="M154 1470h36l799 -634q47 -38 64.5 -57t50.5 -64l8 2q-14 70 -14 151v320q0 40 -1 135.5t-1 110.5h397q0 -15 -1 -110.5t-1 -135.5v-1225h-37l-799 658q-47 38 -64 56.5t-50 63.5l-9 -2q15 -75 15 -151v-342q0 -40 1 -135.5t1 -110.5h-397q0 15 1 110.5t1 135.5v1224z
M1018 1915l242 -41q-15 -87 -76 -158.5t-149 -106.5t-177 -20l-156 27q-41 7 -75.5 -21t-42.5 -71l-242 41q24 134 145 221t256 63l154 -26q42 -7 77.5 20.5t43.5 71.5z" />
    <glyph glyph-name="Ograve" unicode="&#xd2;" horiz-adv-x="1785" 
d="M889 1475q165 0 312.5 -60t251.5 -162t165 -241.5t61 -294.5t-61 -294.5t-165 -241.5t-251.5 -162t-312.5 -60t-312.5 60t-252 162t-165.5 241.5t-61 294.5t61 294.5t165.5 241.5t252 162t312.5 60zM889 1110q-165 0 -281 -115t-116 -278t116 -278t281 -115t281 115
t116 278t-116 278t-281 115zM430 1806l234 156l278 -344l-180 -119z" />
    <glyph glyph-name="Oacute" unicode="&#xd3;" horiz-adv-x="1785" 
d="M889 1475q165 0 312.5 -60t251.5 -162t165 -241.5t61 -294.5t-61 -294.5t-165 -241.5t-251.5 -162t-312.5 -60t-312.5 60t-252 162t-165.5 241.5t-61 294.5t61 294.5t165.5 241.5t252 162t312.5 60zM889 1110q-165 0 -281 -115t-116 -278t116 -278t281 -115t281 115
t116 278t-116 278t-281 115zM1102 1962l233 -156l-331 -307l-181 119z" />
    <glyph glyph-name="Ocircumflex" unicode="&#xd4;" horiz-adv-x="1785" 
d="M889 1475q165 0 312.5 -60t251.5 -162t165 -241.5t61 -294.5t-61 -294.5t-165 -241.5t-251.5 -162t-312.5 -60t-312.5 60t-252 162t-165.5 241.5t-61 294.5t61 294.5t165.5 241.5t252 162t312.5 60zM889 1110q-165 0 -281 -115t-116 -278t116 -278t281 -115t281 115
t116 278t-116 278t-281 115zM1286 1679l-133 -168l-260 140l-260 -140l-133 168l393 256z" />
    <glyph glyph-name="Otilde" unicode="&#xd5;" horiz-adv-x="1785" 
d="M893 1475q165 0 312.5 -60t251.5 -162t165 -241.5t61 -294.5t-61 -294.5t-165 -241.5t-251.5 -162t-312.5 -60t-312.5 60t-252 162t-165.5 241.5t-61 294.5t61 294.5t165.5 241.5t252 162t312.5 60zM893 1110q-165 0 -281 -115t-116 -278t116 -278t281 -115t281 115
t116 278t-116 278t-281 115zM1090 1915l241 -41q-15 -87 -76 -158.5t-148.5 -106.5t-176.5 -20l-156 27q-41 7 -76 -21t-43 -71l-241 41q24 134 145 221t256 63l154 -26q42 -7 77.5 20.5t43.5 71.5z" />
    <glyph glyph-name="Odieresis" unicode="&#xd6;" horiz-adv-x="1785" 
d="M889 1475q165 0 312.5 -60t251.5 -162t165 -241.5t61 -294.5t-61 -294.5t-165 -241.5t-251.5 -162t-312.5 -60t-312.5 60t-252 162t-165.5 241.5t-61 294.5t61 294.5t165.5 241.5t252 162t312.5 60zM889 1110q-165 0 -281 -115t-116 -278t116 -278t281 -115t281 115
t116 278t-116 278t-281 115zM637 1966q79 0 136.5 -57t57.5 -137t-57.5 -137.5t-136.5 -57.5t-137 57.5t-58 137.5q0 79 57.5 136.5t137.5 57.5zM1149 1966q79 0 136.5 -57t57.5 -137t-57.5 -137.5t-136.5 -57.5t-137 57.5t-58 137.5q0 79 57.5 136.5t137.5 57.5z" />
    <glyph glyph-name="multiply" unicode="&#xd7;" horiz-adv-x="1466" 
d="M733 956l121 121q126 131 172 174l219 -219q-43 -46 -174 -172l-121 -121l121 -121q131 -126 174 -172l-219 -219q-46 43 -172 174l-121 121l-121 -121q-126 -131 -172 -174l-219 219q43 46 174 172l121 121l-121 121q-131 126 -174 172l219 219q46 -43 172 -174z" />
    <glyph glyph-name="Oslash" unicode="&#xd8;" horiz-adv-x="1785" 
d="M893 1475q244 0 442 -127l115 116l190 -190l-108 -107q151 -200 151 -450q0 -155 -61 -294.5t-165 -241.5t-251.5 -162t-312.5 -60q-244 0 -442 127q-97 -97 -115 -117l-191 191l109 106q-152 198 -152 451q0 155 61 294.5t165.5 241.5t252 162t312.5 60zM893 1110
q-165 0 -281 -115t-116 -278q0 -90 39 -170l526 526q-75 37 -168 37zM1251 887l-528 -529q75 -34 170 -34q165 0 281 115t116 278q0 90 -39 170z" />
    <glyph glyph-name="Ugrave" unicode="&#xd9;" horiz-adv-x="1579" 
d="M549 1434q0 -15 -1 -110.5t-1 -135.5v-676q0 -52 21 -97t57 -73q68 -51 192 -51q65 0 122.5 18t92.5 43v836q0 40 -1 135.5t-1 110.5h397q0 -15 -1 -110.5t-1 -135.5v-1057q-34 -25 -60.5 -41.5t-84 -43.5t-117 -44t-151.5 -30t-195 -13q-166 0 -278.5 26t-194.5 83
q-190 133 -190 444v676q0 40 -1 135.5t-1 110.5h397zM420 1806l233 156l279 -344l-180 -119z" />
    <glyph glyph-name="Uacute" unicode="&#xda;" horiz-adv-x="1579" 
d="M549 1434q0 -15 -1 -110.5t-1 -135.5v-676q0 -52 21 -97t57 -73q68 -51 192 -51q65 0 122.5 18t92.5 43v836q0 40 -1 135.5t-1 110.5h397q0 -15 -1 -110.5t-1 -135.5v-1057q-34 -25 -60.5 -41.5t-84 -43.5t-117 -44t-151.5 -30t-195 -13q-166 0 -278.5 26t-194.5 83
q-190 133 -190 444v676q0 40 -1 135.5t-1 110.5h397zM887 1962l233 -156l-332 -307l-180 119z" />
    <glyph glyph-name="Ucircumflex" unicode="&#xdb;" horiz-adv-x="1579" 
d="M549 1434q0 -15 -1 -110.5t-1 -135.5v-676q0 -52 21 -97t57 -73q68 -51 192 -51q65 0 122.5 18t92.5 43v836q0 40 -1 135.5t-1 110.5h397q0 -15 -1 -110.5t-1 -135.5v-1057q-34 -25 -60.5 -41.5t-84 -43.5t-117 -44t-151.5 -30t-195 -13q-166 0 -278.5 26t-194.5 83
q-190 133 -190 444v676q0 40 -1 135.5t-1 110.5h397zM1182 1679l-133 -168l-261 140l-260 -140l-133 168l393 256z" />
    <glyph glyph-name="Udieresis" unicode="&#xdc;" horiz-adv-x="1579" 
d="M549 1434q0 -15 -1 -110.5t-1 -135.5v-676q0 -52 21 -97t57 -73q68 -51 192 -51q65 0 122.5 18t92.5 43v836q0 40 -1 135.5t-1 110.5h397q0 -15 -1 -110.5t-1 -135.5v-1057q-34 -25 -60.5 -41.5t-84 -43.5t-117 -44t-151.5 -30t-195 -13q-166 0 -278.5 26t-194.5 83
q-190 133 -190 444v676q0 40 -1 135.5t-1 110.5h397zM532 1966q80 0 137.5 -57.5t57.5 -136.5q0 -80 -57.5 -137.5t-137.5 -57.5q-79 0 -136.5 57.5t-57.5 137.5t57 137t137 57zM1044 1966q80 0 137.5 -57.5t57.5 -136.5q0 -80 -57.5 -137.5t-137.5 -57.5q-79 0 -136.5 57.5
t-57.5 137.5t57 137t137 57z" />
    <glyph glyph-name="Yacute" unicode="&#xdd;" horiz-adv-x="1474" 
d="M555 0q0 15 1 110.5t1 135.5v446l-350 486q-14 20 -59.5 81.5t-81.5 110.5t-46 64h465q60 -97 103 -158l84 -123q26 -36 47 -79t24 -62h9q0 10 21 55t48 86l82 125q12 17 48 72t57 84h446q-57 -85 -176 -252l-340 -482v-454q0 -40 1 -135.5t1 -110.5h-385zM864 1962
l234 -156l-332 -307l-180 119z" />
    <glyph glyph-name="Thorn" unicode="&#xde;" horiz-adv-x="1269" 
d="M86 1434h397q0 -14 -1 -101t-1 -129h215q146 0 257 -65.5t168 -175.5t57 -246q0 -102 -26 -185.5t-81 -150t-150.5 -103t-224.5 -36.5h-215q0 -42 1 -135t1 -107h-397q0 15 1 110.5t1 135.5v942q0 40 -1 135.5t-1 110.5zM481 541h135q82 0 130.5 50.5t48.5 125.5
q0 79 -48.5 131.5t-130.5 52.5h-135v-360z" />
    <glyph glyph-name="germandbls" unicode="&#xdf;" horiz-adv-x="1548" 
d="M494 -451h-363q0 15 1 110.5t1 135.5v1004q0 152 34.5 274t104.5 212.5t183 140t262 49.5q246 0 393 -102t147 -271q0 -45 -14 -83.5t-36.5 -65t-49.5 -49t-53.5 -41t-49 -36t-36.5 -38.5t-14 -44q0 -17 10 -33.5t23 -28t38.5 -26t44 -23t54 -24.5t53.5 -24
q60 -28 103 -54t88 -64.5t69 -89.5t24 -112q0 -145 -108.5 -234t-317.5 -89q-313 0 -483 166l244 219q39 -57 99.5 -104.5t135.5 -47.5q46 0 70.5 19.5t24.5 50.5q0 12 -4.5 23t-15.5 21.5t-21 18t-30 18.5t-33 17t-40 18t-41 19q-43 21 -62.5 30.5t-59 32t-59.5 38.5
t-48.5 43t-42.5 53t-24.5 61t-10.5 74q0 57 25 103t60.5 76t71 57t60.5 58.5t25 67.5q0 53 -52.5 89t-136.5 36q-122 0 -183.5 -83t-61.5 -234v-1088q0 -40 1 -135.5t1 -110.5z" />
    <glyph glyph-name="agrave" unicode="&#xe0;" horiz-adv-x="1216" 
d="M588 1012q162 0 288.5 -50.5t178.5 -156.5q30 -61 30 -195v-516q-32 -22 -72 -43t-103 -45.5t-148 -39.5t-176 -15q-110 0 -196.5 20t-142.5 54t-93 81.5t-52.5 99t-15.5 109.5q0 147 107 239.5t303 92.5q90 0 158 -26.5t94 -65.5l8 4q-11 33 -15 78q-6 71 -60 110
t-134 39q-146 0 -266 -69l-101 205q51 26 93.5 42t128 32t186.5 16zM578 451q-66 0 -105 -36t-39 -91q0 -64 43 -106t117 -42q87 0 151 57v123q-20 37 -65 66t-102 29zM272 1434l234 155l278 -344l-180 -119z" />
    <glyph glyph-name="aacute" unicode="&#xe1;" horiz-adv-x="1216" 
d="M633 1589l233 -155l-331 -308l-181 119zM588 1012q162 0 288.5 -50.5t178.5 -156.5q30 -61 30 -195v-516q-32 -22 -72 -43t-103 -45.5t-148 -39.5t-176 -15q-110 0 -196.5 20t-142.5 54t-93 81.5t-52.5 99t-15.5 109.5q0 147 107 239.5t303 92.5q90 0 158 -26.5t94 -65.5
l8 4q-11 33 -15 78q-6 71 -60 110t-134 39q-146 0 -266 -69l-101 205q51 26 93.5 42t128 32t186.5 16zM578 451q-66 0 -105 -36t-39 -91q0 -64 43 -106t117 -42q87 0 151 57v123q-20 37 -65 66t-102 29z" />
    <glyph glyph-name="acircumflex" unicode="&#xe2;" horiz-adv-x="1216" 
d="M1012 1198l-133 -168l-261 139l-260 -139l-133 168l393 256zM588 1012q162 0 288.5 -50.5t178.5 -156.5q30 -61 30 -195v-516q-32 -22 -72 -43t-103 -45.5t-148 -39.5t-176 -15q-110 0 -196.5 20t-142.5 54t-93 81.5t-52.5 99t-15.5 109.5q0 147 107 239.5t303 92.5
q90 0 158 -26.5t94 -65.5l8 4q-11 33 -15 78q-6 71 -60 110t-134 39q-146 0 -266 -69l-101 205q51 26 93.5 42t128 32t186.5 16zM578 451q-66 0 -105 -36t-39 -91q0 -64 43 -106t117 -42q87 0 151 57v123q-20 37 -65 66t-102 29z" />
    <glyph glyph-name="atilde" unicode="&#xe3;" horiz-adv-x="1216" 
d="M803 1413l241 -41q-15 -87 -76 -158.5t-148.5 -106.5t-176.5 -20l-156 27q-41 7 -75.5 -21t-42.5 -71l-242 41q24 134 145 221.5t256 63.5l154 -27q42 -7 77.5 20.5t43.5 71.5zM588 1012q162 0 288.5 -50.5t178.5 -156.5q30 -61 30 -195v-516q-32 -22 -72 -43t-103 -45.5
t-148 -39.5t-176 -15q-110 0 -196.5 20t-142.5 54t-93 81.5t-52.5 99t-15.5 109.5q0 147 107 239.5t303 92.5q90 0 158 -26.5t94 -65.5l8 4q-11 33 -15 78q-6 71 -60 110t-134 39q-146 0 -266 -69l-101 205q51 26 93.5 42t128 32t186.5 16zM578 451q-66 0 -105 -36t-39 -91
q0 -64 43 -106t117 -42q87 0 151 57v123q-20 37 -65 66t-102 29z" />
    <glyph glyph-name="adieresis" unicode="&#xe4;" horiz-adv-x="1216" 
d="M350 1464q80 0 137.5 -57.5t57.5 -136.5q0 -80 -57.5 -137.5t-137.5 -57.5q-79 0 -136.5 57.5t-57.5 137.5t57 137t137 57zM862 1464q80 0 137.5 -57.5t57.5 -136.5q0 -80 -57.5 -137.5t-137.5 -57.5q-79 0 -136.5 57.5t-57.5 137.5t57 137t137 57zM588 1012
q162 0 288.5 -50.5t178.5 -156.5q30 -61 30 -195v-516q-32 -22 -72 -43t-103 -45.5t-148 -39.5t-176 -15q-110 0 -196.5 20t-142.5 54t-93 81.5t-52.5 99t-15.5 109.5q0 147 107 239.5t303 92.5q90 0 158 -26.5t94 -65.5l8 4q-11 33 -15 78q-6 71 -60 110t-134 39
q-146 0 -266 -69l-101 205q51 26 93.5 42t128 32t186.5 16zM578 451q-66 0 -105 -36t-39 -91q0 -64 43 -106t117 -42q87 0 151 57v123q-20 37 -65 66t-102 29z" />
    <glyph glyph-name="aring" unicode="&#xe5;" horiz-adv-x="1216" 
d="M588 1012q162 0 288.5 -50.5t178.5 -156.5q30 -61 30 -195v-516q-32 -22 -72 -43t-103 -45.5t-148 -39.5t-176 -15q-110 0 -196.5 20t-142.5 54t-93 81.5t-52.5 99t-15.5 109.5q0 147 107 239.5t303 92.5q90 0 158 -26.5t94 -65.5l8 4q-11 33 -15 78q-6 71 -60 110
t-134 39q-146 0 -266 -69l-101 205q51 26 93.5 42t128 32t186.5 16zM578 451q-66 0 -105 -36t-39 -91q0 -64 43 -106t117 -42q87 0 151 57v123q-20 37 -65 66t-102 29zM584 1536q121 0 193.5 -68t72.5 -168t-72 -167.5t-194 -67.5t-194.5 67.5t-72.5 167.5t72.5 168
t194.5 68zM584 1364q-38 0 -60 -18.5t-22 -45.5t22 -45t60 -18q40 0 61 17.5t21 45.5q0 27 -22 45.5t-60 18.5z" />
    <glyph glyph-name="ae" unicode="&#xe6;" horiz-adv-x="1892" 
d="M1786 422h-701q5 -100 52 -154.5t133 -54.5q41 0 75 12.5t55 34t33.5 41t20.5 41.5l295 -166q-50 -90 -165.5 -153.5t-293.5 -63.5q-210 0 -352 102q-56 -40 -149 -71t-203 -31q-129 0 -226.5 29.5t-154.5 80t-85 112.5t-28 134q0 146 106.5 239t301.5 93
q87 0 155.5 -27.5t94.5 -68.5l8 4q-11 32 -15 82q-6 71 -59 108t-133 37q-141 0 -258 -67l-100 205q52 26 90 40.5t120 29t185 14.5q239 0 368 -93q132 93 306 93q122 0 223 -41t167 -112t102 -165.5t36 -202.5q0 -41 -4 -61zM598 184q88 0 147 52v120q-21 37 -65.5 68
t-101.5 31q-65 0 -101.5 -37.5t-36.5 -93.5q0 -60 43.5 -100t114.5 -40zM1270 774q-64 0 -112.5 -39t-57.5 -112h346q2 55 -44.5 103t-131.5 48z" />
    <glyph glyph-name="ccedilla" unicode="&#xe7;" horiz-adv-x="1249" 
d="M659 1004q82 0 153.5 -17t126 -48t93 -62t76.5 -72l-256 -201q-72 105 -184 105q-92 0 -149.5 -64t-57.5 -158q0 -91 61 -156t150 -65q122 0 196 115l283 -180q-31 -44 -70.5 -82t-98.5 -76.5t-141.5 -61t-176.5 -22.5q-244 0 -403 147.5t-159 376.5q0 221 158.5 371
t398.5 150zM629 -66l-219 -262l135 -106l250 233z" />
    <glyph glyph-name="egrave" unicode="&#xe8;" horiz-adv-x="1249" 
d="M1143 422h-701q5 -100 52 -154.5t133 -54.5q41 0 75 12.5t55 34t33.5 41t20.5 41.5l295 -166q-50 -90 -165.5 -153.5t-293.5 -63.5q-133 0 -239 42t-173 113.5t-102 162.5t-35 194q0 238 147 385.5t373 147.5q162 0 284 -71t183.5 -188t61.5 -262q0 -41 -4 -61zM627 774
q-64 0 -112.5 -39t-57.5 -112h346q2 55 -44.5 103t-131.5 48zM283 1434l233 155l279 -344l-181 -119z" />
    <glyph glyph-name="eacute" unicode="&#xe9;" horiz-adv-x="1249" 
d="M1143 422h-701q5 -100 52 -154.5t133 -54.5q41 0 75 12.5t55 34t33.5 41t20.5 41.5l295 -166q-50 -90 -165.5 -153.5t-293.5 -63.5q-133 0 -239 42t-173 113.5t-102 162.5t-35 194q0 238 147 385.5t373 147.5q162 0 284 -71t183.5 -188t61.5 -262q0 -41 -4 -61zM627 774
q-64 0 -112.5 -39t-57.5 -112h346q2 55 -44.5 103t-131.5 48zM750 1589l233 -155l-332 -308l-180 119z" />
    <glyph glyph-name="ecircumflex" unicode="&#xea;" horiz-adv-x="1249" 
d="M1143 422h-701q5 -100 52 -154.5t133 -54.5q41 0 75 12.5t55 34t33.5 41t20.5 41.5l295 -166q-50 -90 -165.5 -153.5t-293.5 -63.5q-133 0 -239 42t-173 113.5t-102 162.5t-35 194q0 238 147 385.5t373 147.5q162 0 284 -71t183.5 -188t61.5 -262q0 -41 -4 -61zM627 774
q-64 0 -112.5 -39t-57.5 -112h346q2 55 -44.5 103t-131.5 48zM1020 1198l-133 -168l-260 139l-260 -139l-134 168l394 256z" />
    <glyph glyph-name="edieresis" unicode="&#xeb;" horiz-adv-x="1249" 
d="M1143 422h-701q5 -100 52 -154.5t133 -54.5q41 0 75 12.5t55 34t33.5 41t20.5 41.5l295 -166q-50 -90 -165.5 -153.5t-293.5 -63.5q-133 0 -239 42t-173 113.5t-102 162.5t-35 194q0 238 147 385.5t373 147.5q162 0 284 -71t183.5 -188t61.5 -262q0 -41 -4 -61zM627 774
q-64 0 -112.5 -39t-57.5 -112h346q2 55 -44.5 103t-131.5 48zM371 1464q79 0 136.5 -57t57.5 -137t-57.5 -137.5t-136.5 -57.5t-137 57.5t-58 137.5q0 79 57.5 136.5t137.5 57.5zM883 1464q79 0 136.5 -57t57.5 -137t-57.5 -137.5t-136.5 -57.5t-137 57.5t-58 137.5
q0 79 57.5 136.5t137.5 57.5z" />
    <glyph glyph-name="igrave" unicode="&#xec;" horiz-adv-x="604" 
d="M504 963q0 -15 -1 -110.5t-1 -135.5v-471q0 -40 1 -135.5t1 -110.5h-363q0 15 1 110.5t1 135.5v471q0 40 -1 135.5t-1 110.5h363zM-94 1434l233 155l279 -344l-180 -119z" />
    <glyph glyph-name="iacute" unicode="&#xed;" horiz-adv-x="604" 
d="M504 963q0 -15 -1 -110.5t-1 -135.5v-471q0 -40 1 -135.5t1 -110.5h-363q0 15 1 110.5t1 135.5v471q0 40 -1 135.5t-1 110.5h363zM465 1589l233 -155l-331 -308l-181 119z" />
    <glyph glyph-name="icircumflex" unicode="&#xee;" horiz-adv-x="604" 
d="M504 963q0 -15 -1 -110.5t-1 -135.5v-471q0 -40 1 -135.5t1 -110.5h-363q0 15 1 110.5t1 135.5v471q0 40 -1 135.5t-1 110.5h363zM694 1198l-133 -168l-260 139l-260 -139l-133 168l393 256z" />
    <glyph glyph-name="idieresis" unicode="&#xef;" horiz-adv-x="645" 
d="M162 1464q55 0 94 -57t39 -137t-39 -137.5t-94 -57.5t-94 57.5t-39 137.5t39 137t94 57zM479 1464q55 0 94 -57t39 -137t-39 -137.5t-94 -57.5t-94 57.5t-39 137.5t39 137t94 57zM504 963q0 -15 -1 -110.5t-1 -135.5v-471q0 -40 1 -135.5t1 -110.5h-363q0 15 1 110.5
t1 135.5v471q0 40 -1 135.5t-1 110.5h363z" />
    <glyph glyph-name="eth" unicode="&#xf0;" horiz-adv-x="1335" 
d="M694 1638q9 -20 90 -174l86 43q20 10 62.5 33.5t64.5 34.5l78 -158q-2 -1 -56.5 -27.5t-72.5 -35.5l-80 -41l322 -586q27 -41 46 -109.5t19 -136.5q0 -107 -43.5 -203t-119.5 -166.5t-186 -111.5t-236 -41t-236 41t-186.5 111.5t-120 166.5t-43.5 203q0 108 41 201.5
t110 157.5t156.5 104.5t183.5 52.5q13 3 28 1.5t23 -2.5t19 -5.5t15 -6.5t12 -7t10 -6l4 6q-41 25 -82 100l-45 82l-86 -43q-39 -20 -127 -67l-78 157q5 2 32 15.5l55 27.5l42 21l80 39l-92 159zM668 717q-94 0 -161 -69.5t-67 -166.5t67 -166t161 -69q95 0 161 69t66 166
t-66 166.5t-161 69.5z" />
    <glyph glyph-name="ntilde" unicode="&#xf1;" horiz-adv-x="1286" 
d="M477 846l8 -4q25 63 102.5 112.5t192.5 49.5q76 0 141.5 -22t118.5 -66t83 -119t30 -174v-377q0 -40 1 -135.5t1 -110.5h-362q0 15 1 110.5t1 135.5v286q0 89 -39.5 137t-106.5 48q-66 0 -111.5 -42.5t-45.5 -129.5v-299q0 -40 1 -135.5t1 -110.5h-363q0 15 1 110.5
t1 135.5v471q0 40 -1 135.5t-1 110.5h356q-4 -100 -10 -117zM856 1413l242 -41q-15 -87 -76 -158.5t-149 -106.5t-177 -20l-155 27q-41 7 -76 -21t-43 -71l-242 41q24 134 145.5 221.5t256.5 63.5l153 -27q42 -7 77.5 20.5t43.5 71.5z" />
    <glyph glyph-name="ograve" unicode="&#xf2;" horiz-adv-x="1335" 
d="M668 1004q126 0 236 -41t186 -111.5t119.5 -167t43.5 -203.5t-43.5 -203t-119.5 -166.5t-186 -111.5t-236 -41t-236 41t-186.5 111.5t-120 166.5t-43.5 203q0 144 74 263t209 189.5t303 70.5zM668 717q-97 0 -162.5 -69t-65.5 -167t65.5 -166.5t162.5 -68.5t162 68.5
t65 166.5t-65 167t-162 69zM303 1434l234 155l278 -344l-180 -119z" />
    <glyph glyph-name="oacute" unicode="&#xf3;" horiz-adv-x="1335" 
d="M668 1004q126 0 236 -41t186 -111.5t119.5 -167t43.5 -203.5t-43.5 -203t-119.5 -166.5t-186 -111.5t-236 -41t-236 41t-186.5 111.5t-120 166.5t-43.5 203q0 144 74 263t209 189.5t303 70.5zM668 717q-97 0 -162.5 -69t-65.5 -167t65.5 -166.5t162.5 -68.5t162 68.5
t65 166.5t-65 167t-162 69zM764 1589l233 -155l-331 -308l-181 119z" />
    <glyph glyph-name="ocircumflex" unicode="&#xf4;" horiz-adv-x="1335" 
d="M668 1004q126 0 236 -41t186 -111.5t119.5 -167t43.5 -203.5t-43.5 -203t-119.5 -166.5t-186 -111.5t-236 -41t-236 41t-186.5 111.5t-120 166.5t-43.5 203q0 144 74 263t209 189.5t303 70.5zM668 717q-97 0 -162.5 -69t-65.5 -167t65.5 -166.5t162.5 -68.5t162 68.5
t65 166.5t-65 167t-162 69zM1061 1198l-133 -168l-260 139l-260 -139l-134 168l394 256z" />
    <glyph glyph-name="otilde" unicode="&#xf5;" horiz-adv-x="1335" 
d="M668 1004q126 0 236 -41t186 -111.5t119.5 -167t43.5 -203.5t-43.5 -203t-119.5 -166.5t-186 -111.5t-236 -41t-236 41t-186.5 111.5t-120 166.5t-43.5 203q0 144 74 263t209 189.5t303 70.5zM668 717q-97 0 -162.5 -69t-65.5 -167t65.5 -166.5t162.5 -68.5t162 68.5
t65 166.5t-65 167t-162 69zM864 1413l242 -41q-15 -87 -76 -158.5t-148.5 -106.5t-176.5 -20l-156 27q-41 7 -76 -21t-43 -71l-242 41q24 134 145.5 221.5t256.5 63.5l153 -27q42 -7 77.5 20.5t43.5 71.5z" />
    <glyph glyph-name="odieresis" unicode="&#xf6;" horiz-adv-x="1335" 
d="M668 1004q126 0 236 -41t186 -111.5t119.5 -167t43.5 -203.5t-43.5 -203t-119.5 -166.5t-186 -111.5t-236 -41t-236 41t-186.5 111.5t-120 166.5t-43.5 203q0 144 74 263t209 189.5t303 70.5zM668 717q-97 0 -162.5 -69t-65.5 -167t65.5 -166.5t162.5 -68.5t162 68.5
t65 166.5t-65 167t-162 69zM412 1464q80 0 137 -57t57 -137t-57.5 -137.5t-136.5 -57.5q-80 0 -137.5 57.5t-57.5 137.5q0 79 57.5 136.5t137.5 57.5zM924 1464q80 0 137 -57t57 -137t-57.5 -137.5t-136.5 -57.5q-80 0 -137.5 57.5t-57.5 137.5q0 79 57.5 136.5t137.5 57.5z
" />
    <glyph glyph-name="divide" unicode="&#xf7;" horiz-adv-x="1466" 
d="M1303 895v-311q-15 0 -110.5 1t-135.5 1h-647q-40 0 -135.5 -1t-110.5 -1v311q15 0 110.5 -1t135.5 -1h647q40 0 135.5 1t110.5 1zM733 471q95 0 162.5 -65.5t67.5 -159.5t-67.5 -160t-162.5 -66t-162 66t-67 160t67 159.5t162 65.5zM733 1458q95 0 162.5 -65.5
t67.5 -159.5t-67.5 -159.5t-162.5 -65.5t-162 65.5t-67 159.5t67 159.5t162 65.5z" />
    <glyph glyph-name="oslash" unicode="&#xf8;" horiz-adv-x="1335" 
d="M668 1004q48 0 116 -11q86 134 107 166l303 -198l-86 -130q145 -145 145 -350q0 -107 -43.5 -203t-119.5 -166.5t-186 -111.5t-236 -41q-57 0 -119 10q-86 -134 -107 -166l-303 199q5 9 18.5 29t33.5 49.5t34 50.5q-143 143 -143 350q0 144 74 263t209 189.5t303 70.5z
M668 717q-97 0 -162.5 -69t-65.5 -167t65.5 -166.5t162.5 -68.5t162 68.5t65 166.5t-65 167t-162 69z" />
    <glyph glyph-name="ugrave" unicode="&#xf9;" horiz-adv-x="1302" 
d="M1171 963q0 -15 -1 -110.5t-1 -135.5v-635q-62 -42 -201 -82.5t-306 -40.5q-529 0 -529 410v348q0 40 -1 135.5t-1 110.5h363q0 -15 -1 -110.5t-1 -135.5v-297q0 -77 45 -125.5t137 -48.5q74 0 137 33v438q0 40 -1 135.5t-1 110.5h362zM225 1434l234 155l278 -344
l-180 -119z" />
    <glyph glyph-name="uacute" unicode="&#xfa;" horiz-adv-x="1302" 
d="M1171 963q0 -15 -1 -110.5t-1 -135.5v-635q-62 -42 -201 -82.5t-306 -40.5q-529 0 -529 410v348q0 40 -1 135.5t-1 110.5h363q0 -15 -1 -110.5t-1 -135.5v-297q0 -77 45 -125.5t137 -48.5q74 0 137 33v438q0 40 -1 135.5t-1 110.5h362zM692 1589l234 -155l-332 -308
l-180 119z" />
    <glyph glyph-name="ucircumflex" unicode="&#xfb;" horiz-adv-x="1302" 
d="M1171 963q0 -15 -1 -110.5t-1 -135.5v-635q-62 -42 -201 -82.5t-306 -40.5q-529 0 -529 410v348q0 40 -1 135.5t-1 110.5h363q0 -15 -1 -110.5t-1 -135.5v-297q0 -77 45 -125.5t137 -48.5q74 0 137 33v438q0 40 -1 135.5t-1 110.5h362zM1044 1198l-133 -168l-260 139
l-260 -139l-133 168l393 256z" />
    <glyph glyph-name="udieresis" unicode="&#xfc;" horiz-adv-x="1302" 
d="M1171 963q0 -15 -1 -110.5t-1 -135.5v-635q-62 -42 -201 -82.5t-306 -40.5q-529 0 -529 410v348q0 40 -1 135.5t-1 110.5h363q0 -15 -1 -110.5t-1 -135.5v-297q0 -77 45 -125.5t137 -48.5q74 0 137 33v438q0 40 -1 135.5t-1 110.5h362zM395 1464q80 0 137.5 -57.5
t57.5 -136.5q0 -80 -58 -137.5t-137 -57.5t-136.5 57.5t-57.5 137.5t57.5 137t136.5 57zM907 1464q80 0 137.5 -57.5t57.5 -136.5q0 -80 -58 -137.5t-137 -57.5t-136.5 57.5t-57.5 137.5t57.5 137t136.5 57z" />
    <glyph glyph-name="yacute" unicode="&#xfd;" horiz-adv-x="1318" 
d="M1298 963q-24 -50 -73.5 -143t-65.5 -124l-504 -968q-50 -98 -88 -179h-395q3 6 137 261l176 348l-311 542q-12 20 -78 131.5t-76 131.5h408q38 -82 84 -168l86 -164q28 -53 49 -109t23 -76h8q2 16 25 75t49 110l75 149q19 36 49 103t37 80h385zM721 1589l233 -155
l-331 -308l-181 119z" />
    <glyph glyph-name="thorn" unicode="&#xfe;" horiz-adv-x="1359" 
d="M492 -451h-363q0 17 1 119t1 144v1396q0 42 -1 143.5t-1 118.5h363q0 -17 -1.5 -118.5t-1.5 -143.5v-213q0 -71 -10 -94l8 -4q39 44 120 75.5t171 31.5q211 0 351.5 -139.5t140.5 -372.5q0 -155 -63.5 -275t-188 -189t-291.5 -69q-69 0 -138 22t-102 50l-8 -4
q10 -23 10 -95v-120q0 -42 1.5 -144t1.5 -119zM489 594v-256q76 -80 189 -80q98 0 160.5 62.5t62.5 158.5q0 95 -60 160.5t-153 65.5q-132 0 -199 -111z" />
    <glyph glyph-name="ydieresis" unicode="&#xff;" horiz-adv-x="1318" 
d="M1298 963q-24 -50 -73.5 -143t-65.5 -124l-504 -968q-50 -98 -88 -179h-395q3 6 137 261l176 348l-311 542q-12 20 -78 131.5t-76 131.5h408q38 -82 84 -168l86 -164q28 -53 49 -109t23 -76h8q2 16 25 75t49 110l75 149q19 36 49 103t37 80h385zM420 1464q80 0 137 -57
t57 -137t-57.5 -137.5t-136.5 -57.5q-80 0 -137.5 57.5t-57.5 137.5q0 79 57.5 136.5t137.5 57.5zM932 1464q80 0 137 -57t57 -137t-57.5 -137.5t-136.5 -57.5q-80 0 -137.5 57.5t-57.5 137.5q0 79 57.5 136.5t137.5 57.5z" />
    <glyph glyph-name="Amacron" unicode="&#x100;" 
d="M772 1483h41l614 -1260q72 -147 113 -223h-407q-10 23 -34.5 75t-31.5 68l-12 29h-523l-12 -29q-4 -10 -28.5 -63.5t-34.5 -79.5h-420q9 19 54 107t59 116zM727 463h129q57 0 72 -10l4 8q-14 7 -33 51l-49 104q-19 40 -32 76.5t-18 55t-5 24.5h-9q0 -36 -53 -156
l-47 -104q-6 -15 -14 -27t-13 -17.5t-8 -6.5l4 -8q10 10 72 10zM512 1876q7 0 55 -1t68 -1h307q20 0 68 1t55 1v-250q-7 0 -55 1t-68 1h-307q-20 0 -68 -1t-55 -1v250z" />
    <glyph glyph-name="amacron" unicode="&#x101;" horiz-adv-x="1218" 
d="M311 1333q7 0 55 -1t68 -1h307q20 0 68 1t55 1v-250q-7 0 -55 1t-68 1h-307q-20 0 -68 -1t-55 -1v250zM588 1012q162 0 288.5 -50.5t178.5 -156.5q30 -61 30 -195v-516q-32 -22 -72 -43t-103 -45.5t-148 -39.5t-176 -15q-110 0 -196.5 20t-142.5 54t-93 81.5t-52.5 99
t-15.5 109.5q0 147 107 239.5t303 92.5q90 0 158 -26.5t94 -65.5l8 4q-11 33 -15 78q-6 71 -60 110t-134 39q-146 0 -266 -69l-101 205q51 26 93.5 42t128 32t186.5 16zM578 451q-66 0 -105 -36t-39 -91q0 -64 43 -106t117 -42q87 0 151 57v123q-20 37 -65 66t-102 29z" />
    <glyph glyph-name="Abreve" unicode="&#x102;" 
d="M772 1483h41l614 -1260q72 -147 113 -223h-407q-10 23 -34.5 75t-31.5 68l-12 29h-523l-12 -29q-4 -10 -28.5 -63.5t-34.5 -79.5h-420q9 19 54 107t59 116zM727 463h129q57 0 72 -10l4 8q-14 7 -33 51l-49 104q-19 40 -32 76.5t-18 55t-5 24.5h-9q0 -36 -53 -156
l-47 -104q-6 -15 -14 -27t-13 -17.5t-8 -6.5l4 -8q10 10 72 10zM395 1837l201 80q18 -62 68 -93.5t124 -31.5q72 0 123 32.5t70 92.5l201 -80q-35 -135 -141.5 -213t-252.5 -78t-252 77.5t-141 213.5z" />
    <glyph glyph-name="abreve" unicode="&#x103;" horiz-adv-x="1218" 
d="M201 1335l200 80q18 -62 68.5 -93.5t124.5 -31.5q72 0 122.5 32.5t69.5 92.5l201 -80q-35 -136 -141 -213.5t-252 -77.5t-252 77.5t-141 213.5zM588 1012q162 0 288.5 -50.5t178.5 -156.5q30 -61 30 -195v-516q-32 -22 -72 -43t-103 -45.5t-148 -39.5t-176 -15
q-110 0 -196.5 20t-142.5 54t-93 81.5t-52.5 99t-15.5 109.5q0 147 107 239.5t303 92.5q90 0 158 -26.5t94 -65.5l8 4q-11 33 -15 78q-6 71 -60 110t-134 39q-146 0 -266 -69l-101 205q51 26 93.5 42t128 32t186.5 16zM578 451q-66 0 -105 -36t-39 -91q0 -64 43 -106
t117 -42q87 0 151 57v123q-20 37 -65 66t-102 29z" />
    <glyph glyph-name="Aogonek" unicode="&#x104;" 
d="M772 1483h41l614 -1260q72 -147 113 -223q-63 -70 -63 -141q0 -52 31 -78.5t79 -26.5q65 0 129 41l101 -209q-113 -78 -271 -78q-154 0 -240.5 80.5t-86.5 202.5q0 112 69 209h-155q-10 23 -34.5 75t-31.5 68l-12 29h-523l-12 -29q-4 -10 -28.5 -63.5t-34.5 -79.5h-420
q9 19 54 107t59 116zM727 463h129q57 0 72 -10l4 8q-14 7 -33 51l-49 104q-19 40 -32 76.5t-18 55t-5 24.5h-9q0 -36 -53 -156l-47 -104q-6 -15 -14 -27t-13 -17.5t-8 -6.5l4 -8q10 10 72 10z" />
    <glyph glyph-name="aogonek" unicode="&#x105;" horiz-adv-x="1216" 
d="M748 555l8 4q-11 33 -15 78q-6 71 -60 110t-134 39q-146 0 -266 -69l-101 205q51 26 93.5 42t128 32t186.5 16q162 0 288.5 -50.5t178.5 -156.5q30 -61 30 -195v-516q-85 -64 -130.5 -118.5t-45.5 -116.5q0 -52 31 -78.5t80 -26.5q65 0 129 41l100 -209
q-113 -78 -270 -78q-154 0 -241 80.5t-87 202.5q0 91 43 166q-52 -6 -108 -6q-110 0 -196.5 20t-142.5 54t-93 81.5t-52.5 99t-15.5 109.5q0 147 107 239.5t303 92.5q90 0 158 -26.5t94 -65.5zM594 176q87 0 151 57v123q-20 37 -65 66t-102 29q-66 0 -105 -36t-39 -91
q0 -64 43 -106t117 -42z" />
    <glyph glyph-name="Cacute" unicode="&#x106;" horiz-adv-x="1564" 
d="M1249 463l254 -264q-109 -114 -270.5 -177t-343.5 -63q-179 0 -328.5 60.5t-249 164.5t-154.5 243.5t-55 297.5q0 157 56 295t156.5 238.5t248 158.5t322.5 58q356 0 581 -232l-245 -254q-150 150 -336 150q-167 0 -278 -111.5t-111 -302.5q0 -188 115.5 -305t277.5 -117
q116 0 195.5 40t164.5 120zM991 1962l234 -156l-332 -307l-180 119z" />
    <glyph glyph-name="cacute" unicode="&#x107;" horiz-adv-x="1249" 
d="M659 1004q82 0 153.5 -17t126 -48t93 -62t76.5 -72l-256 -201q-72 105 -184 105q-92 0 -149.5 -64t-57.5 -158q0 -91 61 -156t150 -65q122 0 196 115l283 -180q-31 -44 -70.5 -82t-98.5 -76.5t-141.5 -61t-176.5 -22.5q-244 0 -403 147.5t-159 376.5q0 221 158.5 371
t398.5 150zM705 1589l233 -155l-332 -308l-180 119z" />
    <glyph glyph-name="Ccircumflex" unicode="&#x108;" horiz-adv-x="1564" 
d="M1249 463l254 -264q-109 -114 -270.5 -177t-343.5 -63q-179 0 -328.5 60.5t-249 164.5t-154.5 243.5t-55 297.5q0 157 56 295t156.5 238.5t248 158.5t322.5 58q356 0 581 -232l-245 -254q-150 150 -336 150q-167 0 -278 -111.5t-111 -302.5q0 -188 115.5 -305t277.5 -117
q116 0 195.5 40t164.5 120zM1278 1741l-133 -168l-260 139l-260 -139l-133 168l393 256z" />
    <glyph glyph-name="ccircumflex" unicode="&#x109;" horiz-adv-x="1249" 
d="M659 1004q82 0 153.5 -17t126 -48t93 -62t76.5 -72l-256 -201q-72 105 -184 105q-92 0 -149.5 -64t-57.5 -158q0 -91 61 -156t150 -65q122 0 196 115l283 -180q-31 -44 -70.5 -82t-98.5 -76.5t-141.5 -61t-176.5 -22.5q-244 0 -403 147.5t-159 376.5q0 221 158.5 371
t398.5 150zM1049 1198l-134 -168l-260 139l-260 -139l-133 168l393 256z" />
    <glyph glyph-name="Cdotaccent" unicode="&#x10a;" horiz-adv-x="1564" 
d="M1249 463l254 -264q-109 -114 -270.5 -177t-343.5 -63q-179 0 -328.5 60.5t-249 164.5t-154.5 243.5t-55 297.5q0 157 56 295t156.5 238.5t248 158.5t322.5 58q356 0 581 -232l-245 -254q-150 150 -336 150q-167 0 -278 -111.5t-111 -302.5q0 -188 115.5 -305t277.5 -117
q116 0 195.5 40t164.5 120zM874 1946q80 0 137.5 -58t57.5 -137t-57.5 -137t-137.5 -58q-79 0 -136.5 57.5t-57.5 137.5t57.5 137.5t136.5 57.5z" />
    <glyph glyph-name="cdotaccent" unicode="&#x10b;" horiz-adv-x="1249" 
d="M659 1004q82 0 153.5 -17t126 -48t93 -62t76.5 -72l-256 -201q-72 105 -184 105q-92 0 -149.5 -64t-57.5 -158q0 -91 61 -156t150 -65q122 0 196 115l283 -180q-31 -44 -70.5 -82t-98.5 -76.5t-141.5 -61t-176.5 -22.5q-244 0 -403 147.5t-159 376.5q0 221 158.5 371
t398.5 150zM657 1444q79 0 137 -58t58 -137t-57.5 -136.5t-137.5 -57.5q-79 0 -136.5 57.5t-57.5 136.5q0 80 57.5 137.5t136.5 57.5z" />
    <glyph glyph-name="Ccaron" unicode="&#x10c;" horiz-adv-x="1564" 
d="M1249 463l254 -264q-109 -114 -270.5 -177t-343.5 -63q-179 0 -328.5 60.5t-249 164.5t-154.5 243.5t-55 297.5q0 157 56 295t156.5 238.5t248 158.5t322.5 58q356 0 581 -232l-245 -254q-150 150 -336 150q-167 0 -278 -111.5t-111 -302.5q0 -188 115.5 -305t277.5 -117
q116 0 195.5 40t164.5 120zM1141 1958l133 -168l-393 -256l-394 256l134 168l260 -139z" />
    <glyph glyph-name="ccaron" unicode="&#x10d;" horiz-adv-x="1249" 
d="M659 1004q82 0 153.5 -17t126 -48t93 -62t76.5 -72l-256 -201q-72 105 -184 105q-92 0 -149.5 -64t-57.5 -158q0 -91 61 -156t150 -65q122 0 196 115l283 -180q-31 -44 -70.5 -82t-98.5 -76.5t-141.5 -61t-176.5 -22.5q-244 0 -403 147.5t-159 376.5q0 221 158.5 371
t398.5 150zM915 1456l134 -168l-394 -256l-393 256l133 168l260 -139z" />
    <glyph glyph-name="Dcaron" unicode="&#x10e;" horiz-adv-x="1525" 
d="M154 1434h571q153 0 284 -56t221.5 -152.5t141.5 -228.5t51 -280q0 -147 -51 -277t-144.5 -228t-235 -155t-312.5 -57h-526v1434zM547 1110v-782h131q148 0 250 113t102 276q0 169 -101.5 281t-258.5 112h-123zM889 1958l133 -168l-393 -256l-393 256l133 168l260 -139z
" />
    <glyph glyph-name="dcaron" unicode="&#x10f;" horiz-adv-x="1830" 
d="M870 1464h363q0 -17 -1 -118.5t-1 -143.5v-1050q-43 -43 -110 -83.5t-183.5 -75t-243.5 -34.5q-141 0 -255.5 40.5t-190.5 112t-117 170t-41 214.5q0 157 66 274t175.5 175.5t246.5 58.5q91 0 174 -31.5t122 -75.5l9 4q-11 26 -11 94v207q0 42 -1 143.5t-1 118.5z
M872 338v256q-67 111 -200 111q-94 0 -153.5 -65.5t-59.5 -160.5q0 -96 62.5 -158.5t160.5 -62.5q114 0 190 80zM1434 1270v307h315v-324q0 -100 -63.5 -207.5t-151.5 -168.5l-107 124q61 47 99.5 112t38.5 140v17h-131z" />
    <glyph glyph-name="Dcroat" unicode="&#x110;" horiz-adv-x="1566" 
d="M41 879q7 0 55 -1t68 -1h31v557h571q153 0 284 -56t221.5 -152.5t141.5 -228.5t51 -280q0 -147 -51 -277t-144.5 -228t-235 -155t-312.5 -57h-526v549h-31q-20 0 -68 -1t-55 -1v332zM588 1110v-233h78q20 0 67.5 1t54.5 1v-332q-7 0 -54.5 1t-67.5 1h-78v-221h131
q148 0 250 113t102 276q0 169 -101.5 281t-258.5 112h-123z" />
    <glyph glyph-name="dcroat" unicode="&#x111;" horiz-adv-x="1363" 
d="M870 1464h363q0 -8 -1 -52t-1 -73q39 0 102.5 1t73.5 1v-204q-108 0 -176 2v-987q-43 -43 -110 -83.5t-183.5 -75t-243.5 -34.5q-141 0 -255.5 40.5t-190.5 112t-117 170t-41 214.5q0 157 66 274t175.5 175.5t246.5 58.5q91 0 174 -31.5t122 -75.5l9 4q-11 26 -11 94v144
h-120q-40 0 -135.5 -1t-110.5 -1v204q15 0 110.5 -1t135.5 -1h118v125zM872 338v256q-67 111 -200 111q-94 0 -153.5 -65.5t-59.5 -160.5q0 -96 62.5 -158.5t160.5 -62.5q114 0 190 80z" />
    <glyph glyph-name="Emacron" unicode="&#x112;" horiz-adv-x="1060" 
d="M154 0v1434h530q40 0 135.5 1t110.5 1v-340q-15 0 -110.5 1t-135.5 1h-168v-213h90q40 0 135.5 1t110.5 1v-340q-15 0 -110.5 1t-135.5 1h-90v-213h201q40 0 135.5 1t110.5 1v-340q-15 0 -110.5 1t-135.5 1h-563zM254 1835q7 0 55 -1t68 -1h307q20 0 68 1t55 1v-250
q-7 0 -55 1t-68 1h-307q-20 0 -68 -1t-55 -1v250z" />
    <glyph glyph-name="emacron" unicode="&#x113;" horiz-adv-x="1249" 
d="M1143 422h-701q5 -100 52 -154.5t133 -54.5q41 0 75 12.5t55 34t33.5 41t20.5 41.5l295 -166q-50 -90 -165.5 -153.5t-293.5 -63.5q-133 0 -239 42t-173 113.5t-102 162.5t-35 194q0 238 147 385.5t373 147.5q162 0 284 -71t183.5 -188t61.5 -262q0 -41 -4 -61zM627 774
q-64 0 -112.5 -39t-57.5 -112h346q2 55 -44.5 103t-131.5 48zM340 1333q7 0 55 -1t68 -1h307q20 0 68 1t55 1v-250q-7 0 -55 1t-68 1h-307q-20 0 -68 -1t-55 -1v250z" />
    <glyph glyph-name="Ebreve" unicode="&#x114;" horiz-adv-x="1060" 
d="M154 0v1434h530q40 0 135.5 1t110.5 1v-340q-15 0 -110.5 1t-135.5 1h-168v-213h90q40 0 135.5 1t110.5 1v-340q-15 0 -110.5 1t-135.5 1h-90v-213h201q40 0 135.5 1t110.5 1v-340q-15 0 -110.5 1t-135.5 1h-563zM143 1837l201 80q18 -62 68.5 -93.5t124.5 -31.5
q72 0 122.5 32.5t69.5 92.5l201 -80q-35 -136 -141 -213.5t-252 -77.5t-252.5 78t-141.5 213z" />
    <glyph glyph-name="ebreve" unicode="&#x115;" horiz-adv-x="1249" 
d="M1143 422h-701q5 -100 52 -154.5t133 -54.5q41 0 75 12.5t55 34t33.5 41t20.5 41.5l295 -166q-50 -90 -165.5 -153.5t-293.5 -63.5q-133 0 -239 42t-173 113.5t-102 162.5t-35 194q0 238 147 385.5t373 147.5q162 0 284 -71t183.5 -188t61.5 -262q0 -41 -4 -61zM627 774
q-64 0 -112.5 -39t-57.5 -112h346q2 55 -44.5 103t-131.5 48zM225 1335l201 80q18 -62 68 -93.5t124 -31.5q72 0 123 32.5t70 92.5l201 -80q-35 -135 -141.5 -213t-252.5 -78t-252 77.5t-141 213.5z" />
    <glyph glyph-name="Edotaccent" unicode="&#x116;" horiz-adv-x="1060" 
d="M154 0v1434h530q40 0 135.5 1t110.5 1v-340q-15 0 -110.5 1t-135.5 1h-168v-213h90q40 0 135.5 1t110.5 1v-340q-15 0 -110.5 1t-135.5 1h-90v-213h201q40 0 135.5 1t110.5 1v-340q-15 0 -110.5 1t-135.5 1h-563zM530 1987q80 0 137.5 -57.5t57.5 -137.5t-57.5 -137.5
t-137.5 -57.5q-79 0 -136.5 57.5t-57.5 137.5t57.5 137.5t136.5 57.5z" />
    <glyph glyph-name="edotaccent" unicode="&#x117;" horiz-adv-x="1249" 
d="M1143 422h-701q5 -100 52 -154.5t133 -54.5q41 0 75 12.5t55 34t33.5 41t20.5 41.5l295 -166q-50 -90 -165.5 -153.5t-293.5 -63.5q-133 0 -239 42t-173 113.5t-102 162.5t-35 194q0 238 147 385.5t373 147.5q162 0 284 -71t183.5 -188t61.5 -262q0 -41 -4 -61zM627 774
q-64 0 -112.5 -39t-57.5 -112h346q2 55 -44.5 103t-131.5 48zM612 1444q80 0 137.5 -58t57.5 -137t-57.5 -136.5t-137.5 -57.5t-137 57.5t-57 136.5q0 80 57.5 137.5t136.5 57.5z" />
    <glyph glyph-name="Eogonek" unicode="&#x118;" horiz-adv-x="1060" 
d="M154 0v1434h530q40 0 135.5 1t110.5 1v-340q-15 0 -110.5 1t-135.5 1h-168v-213h90q40 0 135.5 1t110.5 1v-340q-15 0 -110.5 1t-135.5 1h-90v-213h201q40 0 135.5 1t110.5 1v-340q-10 0 -80 1t-111 1q-61 -72 -61 -141q0 -52 31 -78.5t79 -26.5q65 0 129 41l101 -209
q-113 -78 -271 -78q-154 0 -240.5 80.5t-86.5 202.5q0 112 69 209h-368z" />
    <glyph glyph-name="eogonek" unicode="&#x119;" horiz-adv-x="1249" 
d="M1143 422h-701q5 -100 52 -154.5t133 -54.5q41 0 75 12.5t55 34t33.5 41t20.5 41.5l295 -166q-35 -62 -102 -115q-127 -101 -127 -202q0 -52 31 -78.5t79 -26.5q65 0 129 41l101 -209q-113 -78 -271 -78q-154 0 -241 80.5t-87 202.5q0 85 44 168h-15q-133 0 -239 42
t-173 113.5t-102 162.5t-35 194q0 238 147 385.5t373 147.5q162 0 284 -71t183.5 -188t61.5 -262q0 -41 -4 -61zM627 774q-64 0 -112.5 -39t-57.5 -112h346q2 55 -44.5 103t-131.5 48z" />
    <glyph glyph-name="Ecaron" unicode="&#x11a;" horiz-adv-x="1060" 
d="M154 0v1434h530q40 0 135.5 1t110.5 1v-340q-15 0 -110.5 1t-135.5 1h-168v-213h90q40 0 135.5 1t110.5 1v-340q-15 0 -110.5 1t-135.5 1h-90v-213h201q40 0 135.5 1t110.5 1v-340q-15 0 -110.5 1t-135.5 1h-563zM782 1958l133 -168l-393 -256l-393 256l133 168l260 -139
z" />
    <glyph glyph-name="ecaron" unicode="&#x11b;" horiz-adv-x="1249" 
d="M1143 422h-701q5 -100 52 -154.5t133 -54.5q41 0 75 12.5t55 34t33.5 41t20.5 41.5l295 -166q-50 -90 -165.5 -153.5t-293.5 -63.5q-133 0 -239 42t-173 113.5t-102 162.5t-35 194q0 238 147 385.5t373 147.5q162 0 284 -71t183.5 -188t61.5 -262q0 -41 -4 -61zM627 774
q-64 0 -112.5 -39t-57.5 -112h346q2 55 -44.5 103t-131.5 48zM858 1456l133 -168l-393 -256l-393 256l133 168l260 -139z" />
    <glyph glyph-name="Gcircumflex" unicode="&#x11c;" horiz-adv-x="1712" 
d="M1159 442h-16q-40 0 -134.5 -1t-109.5 -1v324q15 0 110.5 -1t135.5 -1h461q4 -46 4 -115q0 -138 -48.5 -261.5t-138.5 -219t-230.5 -151.5t-311.5 -56q-173 0 -320 60t-247 162.5t-156 241t-56 294.5q0 155 59 294.5t161 241.5t247.5 162t311.5 60q188 0 338 -73
t247 -202l-270 -250q-120 180 -315 180q-169 0 -277 -119.5t-108 -293.5q0 -196 106.5 -317t278.5 -121q120 0 187.5 28t119.5 80q12 12 21 26t13.5 23t6.5 10l-6 9q-19 -13 -64 -13zM1253 1700l-133 -168l-260 139l-260 -139l-133 168l393 256z" />
    <glyph glyph-name="gcircumflex" unicode="&#x11d;" horiz-adv-x="1363" 
d="M1231 811v-852q0 -146 -74.5 -249.5t-198.5 -152.5t-286 -49q-332 0 -518 142l186 237q62 -56 120.5 -82t164.5 -26q68 0 119.5 21.5t77.5 53.5t38 61t12 52q0 68 11 94l-9 5q-39 -44 -121 -75.5t-173 -31.5q-210 0 -350 136.5t-140 371.5q0 237 162.5 387t443.5 150
q183 0 323 -60.5t212 -132.5zM872 369v256q-76 80 -190 80q-98 0 -160.5 -63t-62.5 -159q0 -95 59.5 -160t153.5 -65q133 0 200 111zM1081 1198l-133 -168l-260 139l-260 -139l-133 168l393 256z" />
    <glyph glyph-name="Gbreve" unicode="&#x11e;" horiz-adv-x="1712" 
d="M1159 442h-16q-40 0 -134.5 -1t-109.5 -1v324q15 0 110.5 -1t135.5 -1h461q4 -46 4 -115q0 -138 -48.5 -261.5t-138.5 -219t-230.5 -151.5t-311.5 -56q-173 0 -320 60t-247 162.5t-156 241t-56 294.5q0 155 59 294.5t161 241.5t247.5 162t311.5 60q188 0 338 -73
t247 -202l-270 -250q-120 180 -315 180q-169 0 -277 -119.5t-108 -293.5q0 -196 106.5 -317t278.5 -121q120 0 187.5 28t119.5 80q12 12 21 26t13.5 23t6.5 10l-6 9q-19 -13 -64 -13zM487 1837l201 80q18 -62 68.5 -93.5t124.5 -31.5q72 0 122.5 32.5t69.5 92.5l201 -80
q-35 -136 -141 -213.5t-252 -77.5t-252.5 78t-141.5 213z" />
    <glyph glyph-name="gbreve" unicode="&#x11f;" horiz-adv-x="1363" 
d="M1231 811v-852q0 -146 -74.5 -249.5t-198.5 -152.5t-286 -49q-332 0 -518 142l186 237q62 -56 120.5 -82t164.5 -26q68 0 119.5 21.5t77.5 53.5t38 61t12 52q0 68 11 94l-9 5q-39 -44 -121 -75.5t-173 -31.5q-210 0 -350 136.5t-140 371.5q0 237 162.5 387t443.5 150
q183 0 323 -60.5t212 -132.5zM872 369v256q-76 80 -190 80q-98 0 -160.5 -63t-62.5 -159q0 -95 59.5 -160t153.5 -65q133 0 200 111zM297 1335l201 80q18 -62 68 -93.5t124 -31.5q72 0 123 32.5t70 92.5l200 -80q-35 -136 -141 -213.5t-252 -77.5t-252 77.5t-141 213.5z" />
    <glyph glyph-name="Gdotaccent" unicode="&#x120;" horiz-adv-x="1712" 
d="M1159 442h-16q-40 0 -134.5 -1t-109.5 -1v324q15 0 110.5 -1t135.5 -1h461q4 -46 4 -115q0 -138 -48.5 -261.5t-138.5 -219t-230.5 -151.5t-311.5 -56q-173 0 -320 60t-247 162.5t-156 241t-56 294.5q0 155 59 294.5t161 241.5t247.5 162t311.5 60q188 0 338 -73
t247 -202l-270 -250q-120 180 -315 180q-169 0 -277 -119.5t-108 -293.5q0 -196 106.5 -317t278.5 -121q120 0 187.5 28t119.5 80q12 12 21 26t13.5 23t6.5 10l-6 9q-19 -13 -64 -13zM862 1946q80 0 137.5 -58t57.5 -137t-57.5 -137t-137.5 -58q-79 0 -136.5 57.5
t-57.5 137.5t57.5 137.5t136.5 57.5z" />
    <glyph glyph-name="gdotaccent" unicode="&#x121;" horiz-adv-x="1363" 
d="M1231 811v-852q0 -146 -74.5 -249.5t-198.5 -152.5t-286 -49q-332 0 -518 142l186 237q62 -56 120.5 -82t164.5 -26q68 0 119.5 21.5t77.5 53.5t38 61t12 52q0 68 11 94l-9 5q-39 -44 -121 -75.5t-173 -31.5q-210 0 -350 136.5t-140 371.5q0 237 162.5 387t443.5 150
q183 0 323 -60.5t212 -132.5zM872 369v256q-76 80 -190 80q-98 0 -160.5 -63t-62.5 -159q0 -95 59.5 -160t153.5 -65q133 0 200 111zM678 1444q79 0 136.5 -57.5t57.5 -137.5q0 -79 -57 -136.5t-137 -57.5t-137.5 57.5t-57.5 136.5t57.5 137t137.5 58z" />
    <glyph glyph-name="Hcircumflex" unicode="&#x124;" horiz-adv-x="1622" 
d="M1468 1188v-942q0 -40 1 -135.5t1 -110.5h-397q0 15 1 110.5t1 135.5v327h-528v-327q0 -40 1 -135.5t1 -110.5h-397q0 15 1 110.5t1 135.5v942q0 40 -1 135.5t-1 110.5h397q0 -15 -1 -110.5t-1 -135.5v-307h528v307q0 40 -1 135.5t-1 110.5h397q0 -15 -1 -110.5
t-1 -135.5zM1204 1700l-133 -168l-260 139l-260 -139l-133 168l393 256z" />
    <glyph glyph-name="hcircumflex" unicode="&#x125;" horiz-adv-x="1292" 
d="M494 1516q0 -15 -1 -110.5t-1 -135.5v-230q0 -46 -10.5 -102.5t-16.5 -75.5l8 -4q37 59 124 102.5t194 43.5q164 0 266 -94t102 -287v-377q0 -40 1 -135.5t1 -110.5h-362q0 15 1 110.5t1 135.5v286q0 90 -39.5 135.5t-110.5 45.5q-68 0 -113.5 -44t-45.5 -143v-280
q0 -40 1 -135.5t1 -110.5h-363q0 15 1 110.5t1 135.5v753v271q0 40 -1 135.5t-1 110.5h363zM1038 1741l-133 -168l-260 139l-260 -139l-133 168l393 256z" />
    <glyph glyph-name="Itilde" unicode="&#x128;" horiz-adv-x="720" 
d="M162 1434h397q0 -15 -1 -110.5t-1 -135.5v-942q0 -40 1 -135.5t1 -110.5h-397q0 15 1 110.5t1 135.5v942q0 40 -1 135.5t-1 110.5zM578 1956l241 -41q-15 -87 -76 -158.5t-148.5 -106.5t-176.5 -20l-156 27q-41 7 -76 -21t-43 -71l-241 41q24 134 145 221t256 63l154 -26
q42 -7 77.5 20.5t43.5 71.5z" />
    <glyph glyph-name="itilde" unicode="&#x129;" horiz-adv-x="645" 
d="M504 963q0 -15 -1 -110.5t-1 -135.5v-471q0 -40 1 -135.5t1 -110.5h-363q0 15 1 110.5t1 135.5v471q0 40 -1 135.5t-1 110.5h363zM539 1413l241 -41q-15 -87 -76 -158.5t-148.5 -106.5t-176.5 -20l-156 27q-41 7 -76 -21t-43 -71l-241 41q24 134 145 221.5t256 63.5
l154 -27q42 -7 77.5 20.5t43.5 71.5z" />
    <glyph glyph-name="Imacron" unicode="&#x12a;" horiz-adv-x="700" 
d="M152 1434h397q0 -15 -1 -110.5t-1 -135.5v-942q0 -40 1 -135.5t1 -110.5h-397q0 15 1 110.5t1 135.5v942q0 40 -1 135.5t-1 110.5zM74 1835q7 0 55 -1t68 -1h307q20 0 68 1t55 1v-250q-7 0 -55 1t-68 1h-307q-20 0 -68 -1t-55 -1v250z" />
    <glyph glyph-name="imacron" unicode="&#x12b;" horiz-adv-x="645" 
d="M504 963q0 -15 -1 -110.5t-1 -135.5v-471q0 -40 1 -135.5t1 -110.5h-363q0 15 1 110.5t1 135.5v471q0 40 -1 135.5t-1 110.5h363zM45 1333q7 0 55 -1t68 -1h307q20 0 68 1t55 1v-250q-7 0 -55 1t-68 1h-307q-20 0 -68 -1t-55 -1v250z" />
    <glyph glyph-name="Ibreve" unicode="&#x12c;" horiz-adv-x="720" 
d="M162 1434h397q0 -15 -1 -110.5t-1 -135.5v-942q0 -40 1 -135.5t1 -110.5h-397q0 15 1 110.5t1 135.5v942q0 40 -1 135.5t-1 110.5zM-33 1837l201 80q18 -62 68 -93.5t124 -31.5q72 0 123 32.5t70 92.5l201 -80q-35 -135 -141.5 -213t-252.5 -78t-252 77.5t-141 213.5z
" />
    <glyph glyph-name="ibreve" unicode="&#x12d;" horiz-adv-x="645" 
d="M504 963q0 -15 -1 -110.5t-1 -135.5v-471q0 -40 1 -135.5t1 -110.5h-363q0 15 1 110.5t1 135.5v471q0 40 -1 135.5t-1 110.5h363zM-72 1335l201 80q18 -62 68.5 -93.5t124.5 -31.5q72 0 122.5 32.5t69.5 92.5l201 -80q-35 -136 -141 -213.5t-252 -77.5t-252.5 78
t-141.5 213z" />
    <glyph glyph-name="Iogonek" unicode="&#x12e;" horiz-adv-x="720" 
d="M162 1434h397q0 -15 -1 -110.5t-1 -135.5v-942q0 -40 1 -135.5t1 -110.5q-63 -70 -63 -141q0 -52 31 -78.5t79 -26.5q65 0 129 41l101 -209q-113 -78 -271 -78q-154 0 -240.5 80.5t-86.5 202.5q0 112 69 209h-145q0 15 1 110.5t1 135.5v942q0 40 -1 135.5t-1 110.5z" />
    <glyph glyph-name="iogonek" unicode="&#x12f;" horiz-adv-x="645" 
d="M504 963q0 -15 -1 -110.5t-1 -135.5v-471q0 -40 1 -135.5t1 -110.5q-64 -71 -64 -141q0 -52 31 -78.5t80 -26.5q65 0 129 41l100 -209q-113 -78 -270 -78q-154 0 -241 80.5t-87 202.5q0 110 70 209h-111q0 15 1 110.5t1 135.5v471q0 40 -1 135.5t-1 110.5h363zM322 1511
q80 0 137 -57.5t57 -136.5q0 -80 -57.5 -137.5t-136.5 -57.5q-80 0 -137.5 58t-57.5 137t57.5 136.5t137.5 57.5z" />
    <glyph glyph-name="Idotaccent" unicode="&#x130;" horiz-adv-x="720" 
d="M162 1434h397q0 -15 -1 -110.5t-1 -135.5v-942q0 -40 1 -135.5t1 -110.5h-397q0 15 1 110.5t1 135.5v942q0 40 -1 135.5t-1 110.5zM360 1987q80 0 137.5 -57.5t57.5 -137.5t-57.5 -137.5t-137.5 -57.5q-79 0 -136.5 57.5t-57.5 137.5t57.5 137.5t136.5 57.5z" />
    <glyph glyph-name="dotlessi" unicode="&#x131;" horiz-adv-x="645" 
d="M504 963q0 -15 -1 -110.5t-1 -135.5v-471q0 -40 1 -135.5t1 -110.5h-363q0 15 1 110.5t1 135.5v471q0 40 -1 135.5t-1 110.5h363z" />
    <glyph glyph-name="Jcircumflex" unicode="&#x134;" horiz-adv-x="1048" 
d="M43 178l238 252q16 -46 51.5 -92.5t81.5 -46.5q37 0 62.5 31.5t25.5 78.5v787q0 40 -1 135.5t-1 110.5h397q0 -15 -1 -110.5t-1 -135.5v-811q0 -73 -31.5 -146t-88.5 -134t-147.5 -99.5t-197.5 -38.5q-262 0 -387 219zM1004 1700l-134 -168l-260 139l-260 -139l-133 168
l393 256z" />
    <glyph glyph-name="jcircumflex" unicode="&#x135;" horiz-adv-x="645" 
d="M715 1198l-133 -168l-260 139l-261 -139l-133 168l394 256zM-72 -471v283q35 -7 58 -7q80 0 118.5 47t38.5 148v717q0 40 -1 135.5t-1 110.5h363q0 -15 -1 -110.5t-1 -135.5v-656q0 -245 -78 -370q-57 -90 -149.5 -136.5t-198.5 -46.5q-97 0 -148 21z" />
    <glyph glyph-name="kgreenlandic" unicode="&#x138;" horiz-adv-x="1372" 
d="M131 963h363q0 -15 -1 -110.5t-1 -135.5v-111l237 238q2 2 113 119h467q-31 -29 -117.5 -112.5t-116.5 -111.5l-241 -231l262 -262q29 -29 118 -115.5t132 -130.5h-492q-27 31 -121 135l-241 254v-143q0 -40 1 -135.5t1 -110.5h-363q0 15 1 110.5t1 135.5v471
q0 40 -1 135.5t-1 110.5z" />
    <glyph glyph-name="Lacute" unicode="&#x139;" horiz-adv-x="1052" 
d="M154 0v1188q0 40 -1 135.5t-1 110.5h397q0 -15 -1 -110.5t-1 -135.5v-856h203q40 0 135 1t110 1v-336q-15 0 -110 1t-135 1h-596zM553 1962l233 -156l-331 -307l-181 119z" />
    <glyph glyph-name="lacute" unicode="&#x13a;" horiz-adv-x="645" 
d="M141 1577h363q0 -15 -1 -110.5t-1 -135.5v-1085q0 -40 1 -135.5t1 -110.5h-363q0 15 1 110.5t1 135.5v1085q0 40 -1 135.5t-1 110.5zM414 2142l233 -155l-332 -308l-180 119z" />
    <glyph glyph-name="Lcaron" unicode="&#x13d;" horiz-adv-x="1427" 
d="M154 0v1188q0 40 -1 135.5t-1 110.5h397q0 -15 -1 -110.5t-1 -135.5v-856h203q40 0 135 1t110 1v-336q-15 0 -110 1t-135 1h-596zM1004 1270v307h315v-324q0 -100 -63.5 -207.5t-151.5 -168.5l-107 124q61 47 99.5 112t38.5 140v17h-131z" />
    <glyph glyph-name="lcaron" unicode="&#x13e;" horiz-adv-x="1177" 
d="M141 1577h363q0 -15 -1 -110.5t-1 -135.5v-1085q0 -40 1 -135.5t1 -110.5h-363q0 15 1 110.5t1 135.5v1085q0 40 -1 135.5t-1 110.5zM758 1270v307h315v-324q0 -100 -63.5 -207.5t-151.5 -168.5l-106 124q60 47 98.5 112t38.5 140v17h-131z" />
    <glyph glyph-name="Lslash" unicode="&#x141;" horiz-adv-x="1052" 
d="M154 0v524l-117 -84l-152 209l201 144l68 49v346q0 40 -1 135.5t-1 110.5h397q0 -15 -1 -110.5t-1 -135.5v-62l6 4l199 146l151 -209l-201 -143l-155 -113v-479h203q40 0 135 1t110 1v-336q-15 0 -110 1t-135 1h-596z" />
    <glyph glyph-name="lslash" unicode="&#x142;" horiz-adv-x="645" 
d="M141 1577h363q0 -15 -1 -110.5t-1 -135.5v-180l123 90l151 -209q-16 -13 -96 -69t-105 -74l-73 -53v-590q0 -40 1 -135.5t1 -110.5h-363q0 15 1 110.5t1 135.5v327l-123 -88l-151 209l201 144l73 53v440q0 40 -1 135.5t-1 110.5z" />
    <glyph glyph-name="Nacute" unicode="&#x143;" horiz-adv-x="1644" 
d="M154 1470h36l799 -634q47 -38 64.5 -57t50.5 -64l8 2q-14 70 -14 151v320q0 40 -1 135.5t-1 110.5h397q0 -15 -1 -110.5t-1 -135.5v-1225h-37l-799 658q-47 38 -64 56.5t-50 63.5l-9 -2q15 -75 15 -151v-342q0 -40 1 -135.5t1 -110.5h-397q0 15 1 110.5t1 135.5v1224z
M868 1962l234 -156l-332 -307l-180 119z" />
    <glyph glyph-name="nacute" unicode="&#x144;" horiz-adv-x="1280" 
d="M477 846l8 -4q25 63 102.5 112.5t192.5 49.5q76 0 141.5 -22t118.5 -66t83 -119t30 -174v-377q0 -40 1 -135.5t1 -110.5h-362q0 15 1 110.5t1 135.5v286q0 89 -39.5 137t-106.5 48q-66 0 -111.5 -42.5t-45.5 -129.5v-299q0 -40 1 -135.5t1 -110.5h-363q0 15 1 110.5
t1 135.5v471q0 40 -1 135.5t-1 110.5h356q-4 -100 -10 -117zM631 1589l233 -155l-332 -308l-180 119z" />
    <glyph glyph-name="Ncaron" unicode="&#x147;" horiz-adv-x="1644" 
d="M154 1470h36l799 -634q47 -38 64.5 -57t50.5 -64l8 2q-14 70 -14 151v320q0 40 -1 135.5t-1 110.5h397q0 -15 -1 -110.5t-1 -135.5v-1225h-37l-799 658q-47 38 -64 56.5t-50 63.5l-9 -2q15 -75 15 -151v-342q0 -40 1 -135.5t1 -110.5h-397q0 15 1 110.5t1 135.5v1224z
M1053 1958l133 -168l-393 -256l-394 256l133 168l261 -139z" />
    <glyph glyph-name="ncaron" unicode="&#x148;" horiz-adv-x="1286" 
d="M477 846l8 -4q25 63 102.5 112.5t192.5 49.5q76 0 141.5 -22t118.5 -66t83 -119t30 -174v-377q0 -40 1 -135.5t1 -110.5h-362q0 15 1 110.5t1 135.5v286q0 89 -39.5 137t-106.5 48q-66 0 -111.5 -42.5t-45.5 -129.5v-299q0 -40 1 -135.5t1 -110.5h-363q0 15 1 110.5
t1 135.5v471q0 40 -1 135.5t-1 110.5h356q-4 -100 -10 -117zM850 1456l133 -168l-393 -256l-393 256l133 168l260 -139z" />
    <glyph glyph-name="Eng" unicode="&#x14a;" horiz-adv-x="1644" 
d="M641 -270l240 252q13 -56 45.5 -99t83.5 -43q37 0 62.5 34t25.5 81v301l-443 365q-47 38 -64 56.5t-50 63.5l-9 -2q15 -75 15 -151v-342q0 -40 1 -135.5t1 -110.5h-397q0 15 1 110.5t1 135.5v1224h36l799 -634q47 -38 64.5 -57t50.5 -64l8 2q-14 70 -14 151v320
q0 40 -1 135.5t-1 110.5h397q0 -15 -1 -110.5t-1 -135.5v-1233q0 -83 -31 -162t-88 -143t-147 -103t-199 -39q-263 0 -385 222z" />
    <glyph glyph-name="eng" unicode="&#x14b;" horiz-adv-x="1286" 
d="M580 -471v283q35 -7 57 -7q80 0 119 47.5t39 147.5v532q0 89 -39.5 137t-106.5 48q-66 0 -111.5 -46t-45.5 -145v-280q0 -40 1 -135.5t1 -110.5h-363q0 15 1 110.5t1 135.5v471q0 40 -1 135.5t-1 110.5h356q-4 -100 -10 -117l8 -4q25 63 102.5 112.5t192.5 49.5
q76 0 141.5 -22t118.5 -66t83 -119t30 -174v-562q0 -245 -78 -370q-57 -90 -149.5 -136.5t-198.5 -46.5q-96 0 -147 21z" />
    <glyph glyph-name="Omacron" unicode="&#x14c;" horiz-adv-x="1785" 
d="M893 1475q165 0 312.5 -60t251.5 -162t165 -241.5t61 -294.5t-61 -294.5t-165 -241.5t-251.5 -162t-312.5 -60t-312.5 60t-252 162t-165.5 241.5t-61 294.5t61 294.5t165.5 241.5t252 162t312.5 60zM893 1110q-165 0 -281 -115t-116 -278t116 -278t281 -115t281 115
t116 278t-116 278t-281 115zM616 1835q7 0 55 -1t68 -1h308q20 0 67.5 1t54.5 1v-250q-7 0 -54.5 1t-67.5 1h-308q-20 0 -68 -1t-55 -1v250z" />
    <glyph glyph-name="omacron" unicode="&#x14d;" horiz-adv-x="1335" 
d="M668 1004q126 0 236 -41t186 -111.5t119.5 -167t43.5 -203.5t-43.5 -203t-119.5 -166.5t-186 -111.5t-236 -41t-236 41t-186.5 111.5t-120 166.5t-43.5 203q0 144 74 263t209 189.5t303 70.5zM668 717q-97 0 -162.5 -69t-65.5 -167t65.5 -166.5t162.5 -68.5t162 68.5
t65 166.5t-65 167t-162 69zM391 1333q7 0 55 -1t68 -1h307q20 0 68 1t55 1v-250q-7 0 -55 1t-68 1h-307q-20 0 -68 -1t-55 -1v250z" />
    <glyph glyph-name="Obreve" unicode="&#x14e;" horiz-adv-x="1785" 
d="M893 1475q165 0 312.5 -60t251.5 -162t165 -241.5t61 -294.5t-61 -294.5t-165 -241.5t-251.5 -162t-312.5 -60t-312.5 60t-252 162t-165.5 241.5t-61 294.5t61 294.5t165.5 241.5t252 162t312.5 60zM893 1110q-165 0 -281 -115t-116 -278t116 -278t281 -115t281 115
t116 278t-116 278t-281 115zM500 1837l200 80q18 -62 68.5 -93.5t124.5 -31.5q72 0 122.5 32.5t69.5 92.5l201 -80q-35 -136 -141 -213.5t-252 -77.5t-252 77.5t-141 213.5z" />
    <glyph glyph-name="obreve" unicode="&#x14f;" horiz-adv-x="1335" 
d="M668 1004q126 0 236 -41t186 -111.5t119.5 -167t43.5 -203.5t-43.5 -203t-119.5 -166.5t-186 -111.5t-236 -41t-236 41t-186.5 111.5t-120 166.5t-43.5 203q0 144 74 263t209 189.5t303 70.5zM668 717q-97 0 -162.5 -69t-65.5 -167t65.5 -166.5t162.5 -68.5t162 68.5
t65 166.5t-65 167t-162 69zM274 1335l201 80q18 -62 68.5 -93.5t124.5 -31.5q72 0 122.5 32.5t69.5 92.5l201 -80q-35 -136 -141 -213.5t-252 -77.5t-252.5 78t-141.5 213z" />
    <glyph glyph-name="Ohungarumlaut" unicode="&#x150;" horiz-adv-x="1785" 
d="M893 1475q165 0 312.5 -60t251.5 -162t165 -241.5t61 -294.5t-61 -294.5t-165 -241.5t-251.5 -162t-312.5 -60t-312.5 60t-252 162t-165.5 241.5t-61 294.5t61 294.5t165.5 241.5t252 162t312.5 60zM893 1110q-165 0 -281 -115t-116 -278t116 -278t281 -115t281 115
t116 278t-116 278t-281 115zM784 1552l-139 62l117 268l186 -82zM1083 1552l-139 62l117 268l186 -82z" />
    <glyph glyph-name="ohungarumlaut" unicode="&#x151;" horiz-adv-x="1335" 
d="M668 1004q126 0 236 -41t186 -111.5t119.5 -167t43.5 -203.5t-43.5 -203t-119.5 -166.5t-186 -111.5t-236 -41t-236 41t-186.5 111.5t-120 166.5t-43.5 203q0 144 74 263t209 189.5t303 70.5zM668 717q-97 0 -162.5 -69t-65.5 -167t65.5 -166.5t162.5 -68.5t162 68.5
t65 166.5t-65 167t-162 69zM559 1071l-139 62l117 268l186 -82zM858 1071l-139 62l117 268l186 -82z" />
    <glyph glyph-name="OE" unicode="&#x152;" horiz-adv-x="2179" 
d="M1272 0v51q0 41 8 111l-4 2q-73 -87 -190 -146t-275 -59q-196 0 -361 101.5t-260.5 276t-95.5 380.5q0 154 56 294t151.5 242t228.5 162t281 60q152 0 274.5 -57.5t190.5 -149.5l4 2q-8 41 -8 96v68h530q40 0 135.5 1t110.5 1v-340q-15 0 -110.5 1t-135.5 1h-168v-213h90
q40 0 135.5 1t110.5 1v-340q-15 0 -110.5 1t-135.5 1h-90v-213h201q40 0 135.5 1t110.5 1v-340q-15 0 -110.5 1t-135.5 1h-563zM877 1110q-158 0 -270.5 -115t-112.5 -278t112.5 -278t270.5 -115q164 0 279.5 115t115.5 278t-115.5 278t-279.5 115z" />
    <glyph glyph-name="oe" unicode="&#x153;" horiz-adv-x="2058" 
d="M1952 422h-701q5 -100 52 -154.5t133 -54.5q41 0 75 12.5t55 34t33.5 41t20.5 41.5l295 -166q-50 -90 -165.5 -153.5t-293.5 -63.5q-243 0 -389 133q-162 -133 -399 -133q-126 0 -236 41t-186.5 111.5t-120 166.5t-43.5 203q0 144 74 263t209 189.5t303 70.5
q230 0 399 -136q145 136 360 136q162 0 284 -71t183.5 -188t61.5 -262q0 -41 -4 -61zM668 717q-97 0 -162.5 -69t-65.5 -167t65.5 -166.5t162.5 -68.5t162 68.5t65 166.5t-65 167t-162 69zM1436 774q-64 0 -112.5 -39t-57.5 -112h346q2 55 -44.5 103t-131.5 48z" />
    <glyph glyph-name="Racute" unicode="&#x154;" horiz-adv-x="1306" 
d="M682 1962l233 -156l-331 -307l-181 119zM1257 0h-411q-37 103 -70 182l-137 350h-92v-286q0 -40 1 -135.5t1 -110.5h-397q0 15 1 110.5t1 135.5v1188h616q209 0 336 -133.5t127 -342.5q0 -138 -56 -233.5t-157 -144.5l147 -357zM678 1118h-131v-311h123q69 0 116.5 44
t47.5 107q0 67 -44.5 113.5t-111.5 46.5z" />
    <glyph glyph-name="racute" unicode="&#x155;" horiz-adv-x="901" 
d="M504 1589l233 -155l-331 -308l-181 119zM856 958v-321q-64 27 -127 27q-110 0 -173.5 -61.5t-63.5 -160.5v-196q0 -40 1 -135.5t1 -110.5h-363q0 15 1 110.5t1 135.5v471q0 40 -1 135.5t-1 110.5h356q0 -113 -6 -140l11 -4q29 68 105.5 110t170.5 42q62 0 88 -13z" />
    <glyph glyph-name="Rcaron" unicode="&#x158;" horiz-adv-x="1306" 
d="M827 1999l134 -168l-394 -256l-393 256l133 168l260 -139zM1257 0h-411q-37 103 -70 182l-137 350h-92v-286q0 -40 1 -135.5t1 -110.5h-397q0 15 1 110.5t1 135.5v1188h616q209 0 336 -133.5t127 -342.5q0 -138 -56 -233.5t-157 -144.5l147 -357zM678 1118h-131v-311h123
q69 0 116.5 44t47.5 107q0 67 -44.5 113.5t-111.5 46.5z" />
    <glyph glyph-name="rcaron" unicode="&#x159;" horiz-adv-x="901" 
d="M707 1456l133 -168l-394 -256l-393 256l133 168l260 -139zM856 958v-321q-64 27 -127 27q-110 0 -173.5 -61.5t-63.5 -160.5v-196q0 -40 1 -135.5t1 -110.5h-363q0 15 1 110.5t1 135.5v471q0 40 -1 135.5t-1 110.5h356q0 -113 -6 -140l11 -4q29 68 105.5 110t170.5 42
q62 0 88 -13z" />
    <glyph glyph-name="Sacute" unicode="&#x15a;" horiz-adv-x="1181" 
d="M1081 1243l-229 -213q-111 150 -229 150q-39 0 -66 -23.5t-27 -54.5q0 -28 13 -53.5t40.5 -49.5t50 -40t63.5 -42t59 -38q145 -100 193 -141q135 -118 160 -258q7 -38 7 -79q0 -197 -143.5 -319.5t-368.5 -122.5q-184 0 -324.5 84t-222.5 223l297 174q42 -82 107.5 -132
t146.5 -50q57 0 94 32t37 79q0 30 -15.5 58.5t-44.5 54t-64 50t-79 53.5l-24 15q-61 40 -99 67t-91.5 74t-84 89.5t-53 102.5t-22.5 124q0 82 36 159t96 134t144 91t176 34q266 0 467 -232zM809 1962l233 -156l-331 -307l-181 119z" />
    <glyph glyph-name="sacute" unicode="&#x15b;" horiz-adv-x="958" 
d="M561 1589l234 -155l-332 -308l-180 119zM901 877l-190 -211q-29 47 -81.5 86t-113.5 39q-46 0 -68 -19t-22 -43q0 -21 10.5 -37t33.5 -30t44.5 -23.5t60 -25.5t62.5 -27q47 -22 82 -41.5t75.5 -49.5t66.5 -61.5t43.5 -75t17.5 -92.5q0 -145 -108.5 -234t-317.5 -89
q-314 0 -484 166l244 219q38 -57 99.5 -104.5t136.5 -47.5q45 0 69.5 19.5t24.5 50.5q0 12 -4.5 23t-15.5 21.5t-21 18t-30 18.5t-33 17t-40 18t-41 19q-43 21 -62.5 30.5t-59 32t-59.5 38.5t-48.5 43t-42.5 53t-24.5 61t-10.5 74q0 131 106.5 219t299.5 88q122 0 230.5 -40
t170.5 -103z" />
    <glyph glyph-name="Scircumflex" unicode="&#x15c;" horiz-adv-x="1181" 
d="M1081 1243l-229 -213q-111 150 -229 150q-39 0 -66 -23.5t-27 -54.5q0 -28 13 -53.5t40.5 -49.5t50 -40t63.5 -42t59 -38q145 -100 193 -141q135 -118 160 -258q7 -38 7 -79q0 -197 -143.5 -319.5t-368.5 -122.5q-184 0 -324.5 84t-222.5 223l297 174q42 -82 107.5 -132
t146.5 -50q57 0 94 32t37 79q0 30 -15.5 58.5t-44.5 54t-64 50t-79 53.5l-24 15q-61 40 -99 67t-91.5 74t-84 89.5t-53 102.5t-22.5 124q0 82 36 159t96 134t144 91t176 34q266 0 467 -232zM1004 1679l-134 -168l-260 140l-260 -140l-133 168l393 256z" />
    <glyph glyph-name="scircumflex" unicode="&#x15d;" horiz-adv-x="958" 
d="M893 1198l-133 -168l-260 139l-260 -139l-134 168l394 256zM901 877l-190 -211q-29 47 -81.5 86t-113.5 39q-46 0 -68 -19t-22 -43q0 -21 10.5 -37t33.5 -30t44.5 -23.5t60 -25.5t62.5 -27q47 -22 82 -41.5t75.5 -49.5t66.5 -61.5t43.5 -75t17.5 -92.5
q0 -145 -108.5 -234t-317.5 -89q-314 0 -484 166l244 219q38 -57 99.5 -104.5t136.5 -47.5q45 0 69.5 19.5t24.5 50.5q0 12 -4.5 23t-15.5 21.5t-21 18t-30 18.5t-33 17t-40 18t-41 19q-43 21 -62.5 30.5t-59 32t-59.5 38.5t-48.5 43t-42.5 53t-24.5 61t-10.5 74
q0 131 106.5 219t299.5 88q122 0 230.5 -40t170.5 -103z" />
    <glyph glyph-name="Scedilla" unicode="&#x15e;" horiz-adv-x="1181" 
d="M1081 1243l-229 -213q-111 150 -229 150q-39 0 -66 -23.5t-27 -54.5q0 -28 13 -53.5t40.5 -49.5t50 -40t63.5 -42t59 -38q145 -100 193 -141q135 -118 160 -258q7 -38 7 -79q0 -197 -143.5 -319.5t-368.5 -122.5q-184 0 -324.5 84t-222.5 223l297 174q42 -82 107.5 -132
t146.5 -50q57 0 94 32t37 79q0 30 -15.5 58.5t-44.5 54t-64 50t-79 53.5l-24 15q-61 40 -99 67t-91.5 74t-84 89.5t-53 102.5t-22.5 124q0 82 36 159t96 134t144 91t176 34q266 0 467 -232zM571 -66l-219 -262l135 -106l250 233z" />
    <glyph glyph-name="scedilla" unicode="&#x15f;" horiz-adv-x="958" 
d="M502 -66l-219 -262l135 -106l250 233zM901 877l-190 -211q-29 47 -81.5 86t-113.5 39q-46 0 -68 -19t-22 -43q0 -21 10.5 -37t33.5 -30t44.5 -23.5t60 -25.5t62.5 -27q47 -22 82 -41.5t75.5 -49.5t66.5 -61.5t43.5 -75t17.5 -92.5q0 -145 -108.5 -234t-317.5 -89
q-314 0 -484 166l244 219q38 -57 99.5 -104.5t136.5 -47.5q45 0 69.5 19.5t24.5 50.5q0 12 -4.5 23t-15.5 21.5t-21 18t-30 18.5t-33 17t-40 18t-41 19q-43 21 -62.5 30.5t-59 32t-59.5 38.5t-48.5 43t-42.5 53t-24.5 61t-10.5 74q0 131 106.5 219t299.5 88q122 0 230.5 -40
t170.5 -103z" />
    <glyph glyph-name="Scaron" unicode="&#x160;" horiz-adv-x="1181" 
d="M1081 1243l-229 -213q-111 150 -229 150q-39 0 -66 -23.5t-27 -54.5q0 -28 13 -53.5t40.5 -49.5t50 -40t63.5 -42t59 -38q145 -100 193 -141q135 -118 160 -258q7 -38 7 -79q0 -197 -143.5 -319.5t-368.5 -122.5q-184 0 -324.5 84t-222.5 223l297 174q42 -82 107.5 -132
t146.5 -50q57 0 94 32t37 79q0 30 -15.5 58.5t-44.5 54t-64 50t-79 53.5l-24 15q-61 40 -99 67t-91.5 74t-84 89.5t-53 102.5t-22.5 124q0 82 36 159t96 134t144 91t176 34q266 0 467 -232zM850 1999l133 -168l-393 -256l-393 256l133 168l260 -139z" />
    <glyph glyph-name="scaron" unicode="&#x161;" horiz-adv-x="958" 
d="M901 877l-190 -211q-29 47 -81.5 86t-113.5 39q-46 0 -68 -19t-22 -43q0 -21 10.5 -37t33.5 -30t44.5 -23.5t60 -25.5t62.5 -27q47 -22 82 -41.5t75.5 -49.5t66.5 -61.5t43.5 -75t17.5 -92.5q0 -145 -108.5 -234t-317.5 -89q-314 0 -484 166l244 219q38 -57 99.5 -104.5
t136.5 -47.5q45 0 69.5 19.5t24.5 50.5q0 12 -4.5 23t-15.5 21.5t-21 18t-30 18.5t-33 17t-40 18t-41 19q-43 21 -62.5 30.5t-59 32t-59.5 38.5t-48.5 43t-42.5 53t-24.5 61t-10.5 74q0 131 106.5 219t299.5 88q122 0 230.5 -40t170.5 -103zM768 1456l133 -168l-393 -256
l-393 256l133 168l260 -139z" />
    <glyph glyph-name="Tcommaaccent" unicode="&#x162;" horiz-adv-x="1097" 
d="M1036 1436v-340q-15 0 -110 1t-135 1h-46v-852q0 -40 1.5 -135.5t1.5 -110.5h-398q0 15 1 110.5t1 135.5v852h-45q-40 0 -135.5 -1t-110.5 -1v340q15 0 110.5 -1t135.5 -1h484q40 0 135 1t110 1zM543 -66l-219 -262l135 -106l250 233z" />
    <glyph glyph-name="tcommaaccent" unicode="&#x163;" horiz-adv-x="737" 
d="M494 1229q0 -15 -1 -110.5t-1 -135.5v-20q41 0 109.5 1t78.5 1v-308q-116 0 -188 2v-413q0 -40 1 -135.5t1 -110.5h-363q0 15 1 110.5t1 135.5v737q0 40 -1 135.5t-1 110.5h363zM283 -66l-220 -262l136 -106l250 233z" />
    <glyph glyph-name="Tcaron" unicode="&#x164;" horiz-adv-x="1097" 
d="M1036 1436v-340q-15 0 -110 1t-135 1h-46v-852q0 -40 1.5 -135.5t1.5 -110.5h-398q0 15 1 110.5t1 135.5v852h-45q-40 0 -135.5 -1t-110.5 -1v340q15 0 110.5 -1t135.5 -1h484q40 0 135 1t110 1zM809 1958l133 -168l-393 -256l-393 256l133 168l260 -139z" />
    <glyph glyph-name="tcaron" unicode="&#x165;" horiz-adv-x="1230" 
d="M494 1229q0 -15 -1 -110.5t-1 -135.5v-20q41 0 109.5 1t78.5 1v-308q-116 0 -188 2v-413q0 -40 1 -135.5t1 -110.5h-363q0 15 1 110.5t1 135.5v737q0 40 -1 135.5t-1 110.5h363zM829 1270v307h316v-324q0 -100 -63.5 -207.5t-151.5 -168.5l-107 124q61 47 99.5 112
t38.5 140v17h-132z" />
    <glyph glyph-name="Utilde" unicode="&#x168;" horiz-adv-x="1579" 
d="M549 1434q0 -15 -1 -110.5t-1 -135.5v-676q0 -52 21 -97t57 -73q68 -51 192 -51q65 0 122.5 18t92.5 43v836q0 40 -1 135.5t-1 110.5h397q0 -15 -1 -110.5t-1 -135.5v-1057q-34 -25 -60.5 -41.5t-84 -43.5t-117 -44t-151.5 -30t-195 -13q-166 0 -278.5 26t-194.5 83
q-190 133 -190 444v676q0 40 -1 135.5t-1 110.5h397zM1006 1915l241 -41q-15 -87 -76 -158.5t-148.5 -106.5t-176.5 -20l-156 27q-41 7 -76 -21t-43 -71l-241 41q24 134 145 221t256 63l154 -26q42 -7 77.5 20.5t43.5 71.5z" />
    <glyph glyph-name="utilde" unicode="&#x169;" horiz-adv-x="1302" 
d="M1171 963q0 -15 -1 -110.5t-1 -135.5v-635q-62 -42 -201 -82.5t-306 -40.5q-529 0 -529 410v348q0 40 -1 135.5t-1 110.5h363q0 -15 -1 -110.5t-1 -135.5v-297q0 -77 45 -125.5t137 -48.5q74 0 137 33v438q0 40 -1 135.5t-1 110.5h362zM866 1413l242 -41
q-15 -87 -76 -158.5t-148.5 -106.5t-176.5 -20l-156 27q-41 7 -76 -21t-43 -71l-242 41q24 134 145.5 221.5t256.5 63.5l153 -27q42 -7 77.5 20.5t43.5 71.5z" />
    <glyph glyph-name="Umacron" unicode="&#x16a;" horiz-adv-x="1579" 
d="M549 1434q0 -15 -1 -110.5t-1 -135.5v-676q0 -52 21 -97t57 -73q68 -51 192 -51q65 0 122.5 18t92.5 43v836q0 40 -1 135.5t-1 110.5h397q0 -15 -1 -110.5t-1 -135.5v-1057q-34 -25 -60.5 -41.5t-84 -43.5t-117 -44t-151.5 -30t-195 -13q-166 0 -278.5 26t-194.5 83
q-190 133 -190 444v676q0 40 -1 135.5t-1 110.5h397zM512 1835q7 0 55 -1t68 -1h307q20 0 68 1t55 1v-250q-7 0 -55 1t-68 1h-307q-20 0 -68 -1t-55 -1v250z" />
    <glyph glyph-name="umacron" unicode="&#x16b;" horiz-adv-x="1302" 
d="M1171 963q0 -15 -1 -110.5t-1 -135.5v-635q-62 -42 -201 -82.5t-306 -40.5q-529 0 -529 410v348q0 40 -1 135.5t-1 110.5h363q0 -15 -1 -110.5t-1 -135.5v-297q0 -77 45 -125.5t137 -48.5q74 0 137 33v438q0 40 -1 135.5t-1 110.5h362zM373 1333q7 0 55 -1t68 -1h307
q20 0 68 1t55 1v-250q-7 0 -55 1t-68 1h-307q-20 0 -68 -1t-55 -1v250z" />
    <glyph glyph-name="Ubreve" unicode="&#x16c;" horiz-adv-x="1579" 
d="M549 1434q0 -15 -1 -110.5t-1 -135.5v-676q0 -52 21 -97t57 -73q68 -51 192 -51q65 0 122.5 18t92.5 43v836q0 40 -1 135.5t-1 110.5h397q0 -15 -1 -110.5t-1 -135.5v-1057q-34 -25 -60.5 -41.5t-84 -43.5t-117 -44t-151.5 -30t-195 -13q-166 0 -278.5 26t-194.5 83
q-190 133 -190 444v676q0 40 -1 135.5t-1 110.5h397zM395 1837l201 80q18 -62 68 -93.5t124 -31.5q72 0 123 32.5t70 92.5l201 -80q-35 -135 -141.5 -213t-252.5 -78t-252 77.5t-141 213.5z" />
    <glyph glyph-name="ubreve" unicode="&#x16d;" horiz-adv-x="1302" 
d="M1171 963q0 -15 -1 -110.5t-1 -135.5v-635q-62 -42 -201 -82.5t-306 -40.5q-529 0 -529 410v348q0 40 -1 135.5t-1 110.5h363q0 -15 -1 -110.5t-1 -135.5v-297q0 -77 45 -125.5t137 -48.5q74 0 137 33v438q0 40 -1 135.5t-1 110.5h362zM256 1335l201 80q18 -62 68 -93.5
t124 -31.5q72 0 123 32.5t70 92.5l200 -80q-35 -136 -141 -213.5t-252 -77.5t-252 77.5t-141 213.5z" />
    <glyph glyph-name="Uring" unicode="&#x16e;" horiz-adv-x="1579" 
d="M549 1434q0 -15 -1 -110.5t-1 -135.5v-676q0 -52 21 -97t57 -73q68 -51 192 -51q65 0 122.5 18t92.5 43v836q0 40 -1 135.5t-1 110.5h397q0 -15 -1 -110.5t-1 -135.5v-1057q-34 -25 -60.5 -41.5t-84 -43.5t-117 -44t-151.5 -30t-195 -13q-166 0 -278.5 26t-194.5 83
q-190 133 -190 444v676q0 40 -1 135.5t-1 110.5h397zM788 1997q121 0 194 -68t73 -168t-72.5 -167.5t-194.5 -67.5t-194 67.5t-72 167.5t72 168t194 68zM788 1825q-38 0 -59.5 -18t-21.5 -46q0 -27 21.5 -45t59.5 -18q40 0 61 17.5t21 45.5q0 27 -22 45.5t-60 18.5z" />
    <glyph glyph-name="uring" unicode="&#x16f;" horiz-adv-x="1302" 
d="M1171 963q0 -15 -1 -110.5t-1 -135.5v-635q-62 -42 -201 -82.5t-306 -40.5q-529 0 -529 410v348q0 40 -1 135.5t-1 110.5h363q0 -15 -1 -110.5t-1 -135.5v-297q0 -77 45 -125.5t137 -48.5q74 0 137 33v438q0 40 -1 135.5t-1 110.5h362zM651 1536q121 0 194 -68t73 -168
t-72.5 -167.5t-194.5 -67.5t-194 67.5t-72 167.5t72 168t194 68zM651 1364q-38 0 -60 -18.5t-22 -45.5t22 -45t60 -18q40 0 61 17.5t21 45.5q0 27 -22 45.5t-60 18.5z" />
    <glyph glyph-name="Uhungarumlaut" unicode="&#x170;" horiz-adv-x="1579" 
d="M549 1434q0 -15 -1 -110.5t-1 -135.5v-676q0 -52 21 -97t57 -73q68 -51 192 -51q65 0 122.5 18t92.5 43v836q0 40 -1 135.5t-1 110.5h397q0 -15 -1 -110.5t-1 -135.5v-1057q-34 -25 -60.5 -41.5t-84 -43.5t-117 -44t-151.5 -30t-195 -13q-166 0 -278.5 26t-194.5 83
q-190 133 -190 444v676q0 40 -1 135.5t-1 110.5h397zM670 1552l-140 62l117 268l187 -82zM969 1552l-140 62l117 268l187 -82z" />
    <glyph glyph-name="uhungarumlaut" unicode="&#x171;" horiz-adv-x="1302" 
d="M1171 963q0 -15 -1 -110.5t-1 -135.5v-635q-62 -42 -201 -82.5t-306 -40.5q-529 0 -529 410v348q0 40 -1 135.5t-1 110.5h363q0 -15 -1 -110.5t-1 -135.5v-297q0 -77 45 -125.5t137 -48.5q74 0 137 33v438q0 40 -1 135.5t-1 110.5h362zM530 1071l-139 62l117 268l186 -82
zM829 1071l-139 62l117 268l186 -82z" />
    <glyph glyph-name="Uogonek" unicode="&#x172;" horiz-adv-x="1579" 
d="M1425 131q-12 -8 -47.5 -32t-54 -37t-48 -39t-44.5 -47.5t-27 -52.5t-12 -64q0 -52 31 -78.5t80 -26.5q65 0 129 41l100 -209q-113 -78 -270 -78q-154 0 -241 80.5t-87 202.5q0 93 49 176q-102 -8 -166 -8q-166 0 -278.5 26t-194.5 83q-190 133 -190 444v676
q0 40 -1 135.5t-1 110.5h397q0 -15 -1 -110.5t-1 -135.5v-676q0 -52 21 -97t57 -73q68 -51 192 -51q65 0 122.5 18t92.5 43v836q0 40 -1 135.5t-1 110.5h397q0 -15 -1 -110.5t-1 -135.5v-1057z" />
    <glyph glyph-name="uogonek" unicode="&#x173;" horiz-adv-x="1302" 
d="M1171 963q0 -15 -1 -110.5t-1 -135.5v-635q-71 -54 -114 -108t-43 -115q0 -52 31 -78.5t79 -26.5q65 0 129 41l101 -209q-113 -78 -271 -78q-154 0 -240.5 80.5t-86.5 202.5q0 92 49 178q-75 -10 -141 -10q-529 0 -529 410v348q0 40 -1 135.5t-1 110.5h363
q0 -15 -1 -110.5t-1 -135.5v-297q0 -77 45 -125.5t137 -48.5q74 0 137 33v438q0 40 -1 135.5t-1 110.5h362z" />
    <glyph glyph-name="Wcircumflex" unicode="&#x174;" horiz-adv-x="2195" 
d="M1085 717q-2 -20 -23.5 -87t-45.5 -118l-258 -569h-37l-580 1228q-111 235 -121 263h392q63 -147 88 -197l170 -348q21 -42 43 -114t24 -91h8q2 21 21.5 82.5t46.5 122.5l250 561h37l256 -561q28 -59 46.5 -120.5t20.5 -84.5h9q2 17 26 88t45 117l166 348q18 38 86 197
h420q-5 -11 -32.5 -66t-55 -111.5t-41.5 -85.5l-588 -1228h-37l-264 569q-24 50 -44.5 117t-22.5 88h-5zM1475 1700l-134 -168l-260 139l-260 -139l-133 168l393 256z" />
    <glyph glyph-name="wcircumflex" unicode="&#x175;" horiz-adv-x="1843" 
d="M936 528h-8q0 -19 -19 -80.5t-45 -123.5l-133 -324h-246l-338 705q-27 56 -70 142.5t-57 115.5h390q53 -141 75 -187l62 -137q75 -166 78 -205h8q2 18 25 87.5t44 117.5l140 324h172l147 -308q23 -48 50 -117.5t28 -86.5h8q3 38 70 204l49 121q12 31 36 94t36 93h387
q-80 -160 -125 -258l-328 -705h-225l-143 324q-63 148 -68 204zM1319 1198l-133 -168l-260 139l-260 -139l-134 168l394 256z" />
    <glyph glyph-name="Ycircumflex" unicode="&#x176;" horiz-adv-x="1474" 
d="M555 0q0 15 1 110.5t1 135.5v446l-350 486q-14 20 -59.5 81.5t-81.5 110.5t-46 64h465q60 -97 103 -158l84 -123q26 -36 47 -79t24 -62h9q0 10 21 55t48 86l82 125q12 17 48 72t57 84h446q-57 -85 -176 -252l-340 -482v-454q0 -40 1 -135.5t1 -110.5h-385zM1130 1700
l-133 -168l-260 139l-260 -139l-133 168l393 256z" />
    <glyph glyph-name="ycircumflex" unicode="&#x177;" horiz-adv-x="1318" 
d="M1298 963q-24 -50 -73.5 -143t-65.5 -124l-504 -968q-50 -98 -88 -179h-395q3 6 137 261l176 348l-311 542q-12 20 -78 131.5t-76 131.5h408q38 -82 84 -168l86 -164q28 -53 49 -109t23 -76h8q2 16 25 75t49 110l75 149q19 36 49 103t37 80h385zM1065 1198l-133 -168
l-260 139l-260 -139l-133 168l393 256z" />
    <glyph glyph-name="Ydieresis" unicode="&#x178;" horiz-adv-x="1474" 
d="M555 0q0 15 1 110.5t1 135.5v446l-350 486q-14 20 -59.5 81.5t-81.5 110.5t-46 64h465q60 -97 103 -158l84 -123q26 -36 47 -79t24 -62h9q0 10 21 55t48 86l82 125q12 17 48 72t57 84h446q-57 -85 -176 -252l-340 -482v-454q0 -40 1 -135.5t1 -110.5h-385zM481 1966
q80 0 137.5 -57.5t57.5 -136.5q0 -80 -58 -137.5t-137 -57.5t-136.5 57.5t-57.5 137.5t57.5 137t136.5 57zM993 1966q80 0 137.5 -57.5t57.5 -136.5q0 -80 -58 -137.5t-137 -57.5t-136.5 57.5t-57.5 137.5t57.5 137t136.5 57z" />
    <glyph glyph-name="Zacute" unicode="&#x179;" horiz-adv-x="1368" 
d="M842 319h157q40 0 135.5 1.5t110.5 1.5v-324q-15 0 -110.5 1t-135.5 1h-970l567 948q95 157 129 174l-4 8q-27 -12 -219 -12h-129q-40 0 -135.5 -1t-110.5 -1v320q15 0 110.5 -1t135.5 -1h934l-557 -945q-34 -58 -76 -113t-56 -61l5 -8q28 12 219 12zM688 1962l234 -156
l-332 -307l-180 119z" />
    <glyph glyph-name="zacute" unicode="&#x17a;" horiz-adv-x="1073" 
d="M698 274h72q40 0 135.5 1t110.5 1v-278q-15 0 -110.5 1t-135.5 1h-729l365 592q43 71 86 108l-7 9q-11 -8 -49.5 -14.5t-83.5 -6.5h-20q-40 0 -135.5 -1t-110.5 -1v279q15 0 110.5 -1t135.5 -1h672l-359 -590q-12 -20 -25 -37t-25.5 -29.5t-20.5 -19.5t-18 -15l-11 -8
l6 -8q21 18 147 18zM627 1589l233 -155l-332 -308l-180 119z" />
    <glyph glyph-name="Zdotaccent" unicode="&#x17b;" horiz-adv-x="1368" 
d="M842 319h157q40 0 135.5 1.5t110.5 1.5v-324q-15 0 -110.5 1t-135.5 1h-970l567 948q95 157 129 174l-4 8q-27 -12 -219 -12h-129q-40 0 -135.5 -1t-110.5 -1v320q15 0 110.5 -1t135.5 -1h934l-557 -945q-34 -58 -76 -113t-56 -61l5 -8q28 12 219 12zM678 1946
q79 0 136.5 -57.5t57.5 -137.5t-57.5 -137.5t-136.5 -57.5q-80 0 -137.5 58t-57.5 137t57.5 137t137.5 58z" />
    <glyph glyph-name="zdotaccent" unicode="&#x17c;" horiz-adv-x="1073" 
d="M698 274h72q40 0 135.5 1t110.5 1v-278q-15 0 -110.5 1t-135.5 1h-729l365 592q43 71 86 108l-7 9q-11 -8 -49.5 -14.5t-83.5 -6.5h-20q-40 0 -135.5 -1t-110.5 -1v279q15 0 110.5 -1t135.5 -1h672l-359 -590q-12 -20 -25 -37t-25.5 -29.5t-20.5 -19.5t-18 -15l-11 -8
l6 -8q21 18 147 18zM537 1444q79 0 136.5 -57.5t57.5 -137.5q0 -79 -57.5 -136.5t-136.5 -57.5q-80 0 -137.5 57.5t-57.5 136.5t58 137t137 58z" />
    <glyph glyph-name="Zcaron" unicode="&#x17d;" horiz-adv-x="1368" 
d="M842 319h157q40 0 135.5 1.5t110.5 1.5v-324q-15 0 -110.5 1t-135.5 1h-970l567 948q95 157 129 174l-4 8q-27 -12 -219 -12h-129q-40 0 -135.5 -1t-110.5 -1v320q15 0 110.5 -1t135.5 -1h934l-557 -945q-34 -58 -76 -113t-56 -61l5 -8q28 12 219 12zM944 1999l133 -168
l-393 -256l-393 256l133 168l260 -139z" />
    <glyph glyph-name="zcaron" unicode="&#x17e;" horiz-adv-x="1073" 
d="M698 274h72q40 0 135.5 1t110.5 1v-278q-15 0 -110.5 1t-135.5 1h-729l365 592q43 71 86 108l-7 9q-11 -8 -49.5 -14.5t-83.5 -6.5h-20q-40 0 -135.5 -1t-110.5 -1v279q15 0 110.5 -1t135.5 -1h672l-359 -590q-12 -20 -25 -37t-25.5 -29.5t-20.5 -19.5t-18 -15l-11 -8
l6 -8q21 18 147 18zM770 1456l133 -168l-393 -256l-393 256l133 168l260 -139z" />
    <glyph glyph-name="longs" unicode="&#x17f;" horiz-adv-x="675" 
d="M707 1454v-283q-41 9 -62 9q-153 0 -153 -176v-1209q0 -40 1 -135.5t1 -110.5h-363q0 15 1 110.5t1 135.5v1127q0 245 78 370q57 90 149.5 136.5t198.5 46.5q97 0 148 -21z" />
    <glyph glyph-name="uni018E" unicode="&#x18e;" horiz-adv-x="1060" 
d="M881 1434v-1434h-564q-40 0 -135 -1t-110 -1v340q15 0 110 -1t135 -1h201v213h-90q-40 0 -135.5 -1t-110.5 -1v340q15 0 110.5 -1t135.5 -1h90v213h-168q-40 0 -135.5 -1t-110.5 -1v340q15 0 110.5 -1t135.5 -1h531z" />
    <glyph glyph-name="Schwa" unicode="&#x18f;" horiz-adv-x="1712" 
d="M831 1130q-195 0 -315 -180l-270 250q97 129 247 202t338 73q166 0 311.5 -60t247.5 -162t161 -241.5t59 -294.5q0 -156 -56 -294.5t-156 -241t-247 -162.5t-320 -60q-171 0 -311.5 56t-230.5 151.5t-138.5 219t-48.5 261.5q0 69 4 115h1108q-15 158 -121 263t-262 105z
M1155 463h-612q-46 0 -64 12l-6 -8q2 -1 5.5 -9t11 -22.5t18.5 -27.5q23 -28 45 -47t59.5 -39.5t92.5 -31.5t126 -11q107 0 190.5 48t133.5 136z" />
    <glyph glyph-name="uni0191" unicode="&#x191;" horiz-adv-x="1073" 
d="M-303 -270l240 252q13 -56 45.5 -99t83.5 -43q37 0 62.5 34t25.5 81v1479h563q40 0 135.5 1t110.5 1v-340q-15 0 -110.5 1t-135.5 1h-170v-213h98q40 0 135.5 1t110.5 1v-340q-15 0 -110.5 1t-135.5 1h-98v-594q0 -83 -31 -162t-88 -143t-147 -103t-199 -39
q-263 0 -385 222z" />
    <glyph glyph-name="florin" unicode="&#x192;" horiz-adv-x="778" 
d="M707 1454v-283q-35 7 -58 7q-80 0 -118.5 -47t-38.5 -148v-20q42 0 118.5 1t89.5 1v-260q-13 0 -89.5 1t-118.5 1v-646q0 -245 -78 -370q-57 -90 -149.5 -136.5t-198.5 -46.5q-97 0 -148 21v283q35 -7 57 -7q80 0 119 47.5t39 147.5v922q0 245 78 370q57 90 149.5 136.5
t198.5 46.5q97 0 148 -21z" />
    <glyph glyph-name="uni01B5" unicode="&#x1b5;" horiz-adv-x="1368" 
d="M164 858q7 0 55 -1t68 -1h254l55 92q95 157 129 174l-4 8q-27 -12 -219 -12h-129q-40 0 -135.5 -1t-110.5 -1v320q15 0 110.5 -1t135.5 -1h934l-342 -578h90q20 0 68 1t55 1v-291q-7 0 -55 1t-68 1h-258l-47 -80q-34 -58 -76 -113t-56 -61l5 -8q28 12 219 12h157
q40 0 135.5 1.5t110.5 1.5v-324q-15 0 -110.5 1t-135.5 1h-970l340 569h-82q-20 0 -68 -1t-55 -1v291z" />
    <glyph glyph-name="uni01B6" unicode="&#x1b6;" horiz-adv-x="1073" 
d="M127 606q7 0 55 -1t68 -1h162q37 59 80 96l-7 9q-11 -8 -49.5 -14.5t-83.5 -6.5h-20q-40 0 -135.5 -1t-110.5 -1v279q15 0 110.5 -1t135.5 -1h672l-220 -359h27q20 0 68 1t55 1v-209q-7 0 -55 1t-68 1h-149l-17 -26q-12 -20 -25 -37t-25.5 -29.5t-20.5 -19.5t-18 -15
l-11 -8l6 -8q21 18 147 18h72q40 0 135.5 1t110.5 1v-278q-15 0 -110.5 1t-135.5 1h-729l246 399h-37q-20 0 -68 -1t-55 -1v209z" />
    <glyph glyph-name="Acaron" unicode="&#x1cd;" 
d="M772 1483h41l614 -1260q72 -147 113 -223h-407q-10 23 -34.5 75t-31.5 68l-12 29h-523l-12 -29q-4 -10 -28.5 -63.5t-34.5 -79.5h-420q9 19 54 107t59 116zM727 463h129q57 0 72 -10l4 8q-14 7 -33 51l-49 104q-19 40 -32 76.5t-18 55t-5 24.5h-9q0 -36 -53 -156
l-47 -104q-6 -15 -14 -27t-13 -17.5t-8 -6.5l4 -8q10 10 72 10zM1020 1999l133 -168l-393 -256l-393 256l133 168l260 -139z" />
    <glyph glyph-name="acaron" unicode="&#x1ce;" horiz-adv-x="1218" 
d="M870 1456l134 -168l-394 -256l-393 256l133 168l260 -139zM588 1012q162 0 288.5 -50.5t178.5 -156.5q30 -61 30 -195v-516q-32 -22 -72 -43t-103 -45.5t-148 -39.5t-176 -15q-110 0 -196.5 20t-142.5 54t-93 81.5t-52.5 99t-15.5 109.5q0 147 107 239.5t303 92.5
q90 0 158 -26.5t94 -65.5l8 4q-11 33 -15 78q-6 71 -60 110t-134 39q-146 0 -266 -69l-101 205q51 26 93.5 42t128 32t186.5 16zM578 451q-66 0 -105 -36t-39 -91q0 -64 43 -106t117 -42q87 0 151 57v123q-20 37 -65 66t-102 29z" />
    <glyph glyph-name="uni01CF" unicode="&#x1cf;" horiz-adv-x="720" 
d="M162 1434h397q0 -15 -1 -110.5t-1 -135.5v-942q0 -40 1 -135.5t1 -110.5h-397q0 15 1 110.5t1 135.5v942q0 40 -1 135.5t-1 110.5zM592 1999l133 -168l-393 -256l-393 256l133 168l260 -139z" />
    <glyph glyph-name="uni01D0" unicode="&#x1d0;" horiz-adv-x="645" 
d="M504 963q0 -15 -1 -110.5t-1 -135.5v-471q0 -40 1 -135.5t1 -110.5h-363q0 15 1 110.5t1 135.5v471q0 40 -1 135.5t-1 110.5h363zM553 1456l133 -168l-393 -256l-393 256l133 168l260 -139z" />
    <glyph glyph-name="uni01D1" unicode="&#x1d1;" horiz-adv-x="1785" 
d="M893 1475q165 0 312.5 -60t251.5 -162t165 -241.5t61 -294.5t-61 -294.5t-165 -241.5t-251.5 -162t-312.5 -60t-312.5 60t-252 162t-165.5 241.5t-61 294.5t61 294.5t165.5 241.5t252 162t312.5 60zM893 1110q-165 0 -281 -115t-116 -278t116 -278t281 -115t281 115
t116 278t-116 278t-281 115zM1124 1958l133 -168l-393 -256l-393 256l133 168l260 -139z" />
    <glyph glyph-name="uni01D2" unicode="&#x1d2;" horiz-adv-x="1335" 
d="M668 1004q126 0 236 -41t186 -111.5t119.5 -167t43.5 -203.5t-43.5 -203t-119.5 -166.5t-186 -111.5t-236 -41t-236 41t-186.5 111.5t-120 166.5t-43.5 203q0 144 74 263t209 189.5t303 70.5zM668 717q-97 0 -162.5 -69t-65.5 -167t65.5 -166.5t162.5 -68.5t162 68.5
t65 166.5t-65 167t-162 69zM899 1456l133 -168l-393 -256l-393 256l133 168l260 -139z" />
    <glyph glyph-name="uni01D3" unicode="&#x1d3;" horiz-adv-x="1585" 
d="M551 1434q0 -15 -1 -110.5t-1 -135.5v-676q0 -52 21 -97t57 -73q68 -51 192 -51q65 0 122.5 18t92.5 43v836q0 40 -1 135.5t-1 110.5h398q0 -15 -1.5 -110.5t-1.5 -135.5v-1057q-34 -25 -60.5 -41.5t-84 -43.5t-117 -44t-151.5 -30t-195 -13q-166 0 -278.5 26t-194.5 83
q-190 133 -190 444v676q0 40 -1 135.5t-1 110.5h397zM1024 1999l133 -168l-393 -256l-393 256l133 168l260 -139z" />
    <glyph glyph-name="uni01D4" unicode="&#x1d4;" horiz-adv-x="1306" 
d="M1176 963q0 -15 -1 -110.5t-1 -135.5v-635q-62 -42 -201.5 -82.5t-306.5 -40.5q-529 0 -529 410v348q0 40 -1 135.5t-1 110.5h363q0 -15 -1 -110.5t-1 -135.5v-297q0 -77 45 -125.5t137 -48.5q74 0 137 33v438q0 40 -1 135.5t-1 110.5h363zM885 1456l133 -168l-393 -256
l-394 256l134 168l260 -139z" />
    <glyph glyph-name="uni01DD" unicode="&#x1dd;" horiz-adv-x="1249" 
d="M106 541h701q-5 100 -51.5 154.5t-132.5 54.5q-54 0 -95.5 -23.5t-60 -49.5t-29.5 -56l-295 165q50 90 165.5 154t293.5 64q133 0 239 -42t173 -113.5t102 -162.5t35 -194q0 -238 -147 -385.5t-373 -147.5q-162 0 -284 70.5t-183.5 187.5t-61.5 262q0 42 4 62zM623 188
q64 0 112.5 39.5t57.5 112.5h-347q-2 -55 45 -103.5t132 -48.5z" />
    <glyph glyph-name="uni01E2" unicode="&#x1e2;" horiz-adv-x="1861" 
d="M963 0v172h-398l-10 -16l-98 -156h-437q124 176 179 260l762 1174h524q40 0 135.5 1t110.5 1v-340q-15 0 -110.5 1t-135.5 1h-160v-213h82q40 0 135.5 1t110.5 1v-340q-15 0 -110.5 1t-135.5 1h-82v-213h193q40 0 135 1t110 1v-340q-15 0 -110 1t-135 1h-555zM741 451
q4 4 25.5 8t46.5 4h150v186q0 127 16 164l-10 4q-9 -29 -19 -48t-47 -77l-117 -180q-23 -35 -49 -53zM776 1835q7 0 55 -1t68 -1h307q20 0 68 1t55 1v-250q-7 0 -55 1t-68 1h-307q-20 0 -68 -1t-55 -1v250z" />
    <glyph glyph-name="uni01E3" unicode="&#x1e3;" horiz-adv-x="1892" 
d="M1786 422h-701q5 -100 52 -154.5t133 -54.5q41 0 75 12.5t55 34t33.5 41t20.5 41.5l295 -166q-50 -90 -165.5 -153.5t-293.5 -63.5q-210 0 -352 102q-56 -40 -149 -71t-203 -31q-129 0 -226.5 29.5t-154.5 80t-85 112.5t-28 134q0 146 106.5 239t301.5 93
q87 0 155.5 -27.5t94.5 -68.5l8 4q-11 32 -15 82q-6 71 -59 108t-133 37q-141 0 -258 -67l-100 205q52 26 90 40.5t120 29t185 14.5q239 0 368 -93q132 93 306 93q122 0 223 -41t167 -112t102 -165.5t36 -202.5q0 -41 -4 -61zM598 184q88 0 147 52v120q-21 37 -65.5 68
t-101.5 31q-65 0 -101.5 -37.5t-36.5 -93.5q0 -60 43.5 -100t114.5 -40zM1270 774q-64 0 -112.5 -39t-57.5 -112h346q2 55 -44.5 103t-131.5 48zM670 1333q7 0 55 -1t68 -1h307q20 0 68 1t55 1v-250q-7 0 -55 1t-68 1h-307q-20 0 -68 -1t-55 -1v250z" />
    <glyph glyph-name="Gcaron" unicode="&#x1e6;" horiz-adv-x="1712" 
d="M1159 442h-16q-40 0 -134.5 -1t-109.5 -1v324q15 0 110.5 -1t135.5 -1h461q4 -46 4 -115q0 -138 -48.5 -261.5t-138.5 -219t-230.5 -151.5t-311.5 -56q-173 0 -320 60t-247 162.5t-156 241t-56 294.5q0 155 59 294.5t161 241.5t247.5 162t311.5 60q188 0 338 -73
t247 -202l-270 -250q-120 180 -315 180q-169 0 -277 -119.5t-108 -293.5q0 -196 106.5 -317t278.5 -121q120 0 187.5 28t119.5 80q12 12 21 26t13.5 23t6.5 10l-6 9q-19 -13 -64 -13zM1108 1999l133 -168l-393 -256l-393 256l133 168l260 -139z" />
    <glyph glyph-name="gcaron" unicode="&#x1e7;" horiz-adv-x="1370" 
d="M1237 811v-852q0 -146 -74.5 -249.5t-198.5 -152.5t-286 -49q-332 0 -518 142l186 237q62 -56 120.5 -82t164.5 -26q68 0 119.5 21.5t77.5 53.5t38.5 61t12.5 52q0 71 10 94l-8 5q-39 -44 -121.5 -75.5t-173.5 -31.5q-210 0 -350 136.5t-140 371.5q0 237 162.5 387
t443.5 150q183 0 323 -60.5t212 -132.5zM879 369v256q-32 33 -81.5 56.5t-109.5 23.5q-98 0 -160.5 -63t-62.5 -159q0 -95 59.5 -160t153.5 -65q134 0 201 111zM915 1456l134 -168l-394 -256l-393 256l133 168l260 -139z" />
    <glyph glyph-name="uni01E8" unicode="&#x1e8;" horiz-adv-x="1533" 
d="M993 1434h480q-26 -33 -205 -242l-373 -449l408 -485q36 -43 107.5 -129t107.5 -129h-506q-1 1 -105 139l-278 363q-49 64 -84 133l-8 -4q14 -84 10 -164v-221q0 -40 1 -135.5t1 -110.5h-397q0 15 1 110.5t1 135.5v942q0 40 -1 135.5t-1 110.5h397q0 -15 -1 -110.5
t-1 -135.5v-207q0 -141 -10 -158l8 -4l9 15q8 14 28.5 45.5t46.5 66.5l270 371q59 82 94 117zM973 1999l133 -168l-393 -256l-394 256l134 168l260 -139z" />
    <glyph glyph-name="uni01E9" unicode="&#x1e9;" horiz-adv-x="1372" 
d="M131 1577h363q0 -15 -1 -110.5t-1 -135.5v-725l237 238q2 2 113 119h467q-31 -29 -117.5 -112.5t-116.5 -111.5l-241 -231l262 -262q29 -29 118 -115.5t132 -130.5h-492q-27 31 -121 135l-241 254v-143q0 -40 1 -135.5t1 -110.5h-363q0 15 1 110.5t1 135.5v1085
q0 40 -1 135.5t-1 110.5zM918 1999l133 -168l-394 -256l-393 256l133 168l260 -139z" />
    <glyph glyph-name="uni01EA" unicode="&#x1ea;" horiz-adv-x="1785" 
d="M893 1475q165 0 312.5 -60t251.5 -162t165 -241.5t61 -294.5q0 -206 -103.5 -379.5t-279.5 -274.5q-129 -108 -129 -204q0 -52 31 -78.5t80 -26.5q65 0 129 41l100 -209q-113 -78 -270 -78q-154 0 -241 80.5t-87 202.5q0 88 45 170q-23 -2 -65 -2q-165 0 -312.5 60
t-252 162t-165.5 241.5t-61 294.5t61 294.5t165.5 241.5t252 162t312.5 60zM893 1110q-165 0 -281 -115t-116 -278t116 -278t281 -115t281 115t116 278t-116 278t-281 115z" />
    <glyph glyph-name="uni01EB" unicode="&#x1eb;" horiz-adv-x="1335" 
d="M668 1004q126 0 236 -41t186 -111.5t119.5 -167t43.5 -203.5q0 -126 -57.5 -234t-161.5 -179q-133 -111 -133 -209q0 -52 31 -78.5t80 -26.5q65 0 129 41l100 -209q-113 -78 -270 -78q-154 0 -241 80.5t-87 202.5q0 87 43 168h-18q-126 0 -236 41t-186.5 111.5
t-120 166.5t-43.5 203q0 144 74 263t209 189.5t303 70.5zM668 717q-97 0 -162.5 -69t-65.5 -167t65.5 -166.5t162.5 -68.5t162 68.5t65 166.5t-65 167t-162 69z" />
    <glyph glyph-name="uni01EC" unicode="&#x1ec;" horiz-adv-x="1785" 
d="M616 1835q7 0 55 -1t68 -1h308q20 0 67.5 1t54.5 1v-250q-7 0 -54.5 1t-67.5 1h-308q-20 0 -68 -1t-55 -1v250zM893 1475q165 0 312.5 -60t251.5 -162t165 -241.5t61 -294.5q0 -206 -103.5 -379.5t-279.5 -274.5q-129 -108 -129 -204q0 -52 31 -78.5t80 -26.5
q65 0 129 41l100 -209q-113 -78 -270 -78q-154 0 -241 80.5t-87 202.5q0 88 45 170q-23 -2 -65 -2q-165 0 -312.5 60t-252 162t-165.5 241.5t-61 294.5t61 294.5t165.5 241.5t252 162t312.5 60zM893 1110q-165 0 -281 -115t-116 -278t116 -278t281 -115t281 115t116 278
t-116 278t-281 115z" />
    <glyph glyph-name="uni01ED" unicode="&#x1ed;" horiz-adv-x="1335" 
d="M391 1333q7 0 55 -1t68 -1h307q20 0 68 1t55 1v-250q-7 0 -55 1t-68 1h-307q-20 0 -68 -1t-55 -1v250zM668 1004q126 0 236 -41t186 -111.5t119.5 -167t43.5 -203.5q0 -126 -57.5 -234t-161.5 -179q-133 -111 -133 -209q0 -52 31 -78.5t80 -26.5q65 0 129 41l100 -209
q-113 -78 -270 -78q-154 0 -241 80.5t-87 202.5q0 87 43 168h-18q-126 0 -236 41t-186.5 111.5t-120 166.5t-43.5 203q0 144 74 263t209 189.5t303 70.5zM668 717q-97 0 -162.5 -69t-65.5 -167t65.5 -166.5t162.5 -68.5t162 68.5t65 166.5t-65 167t-162 69z" />
    <glyph glyph-name="uni01F0" unicode="&#x1f0;" horiz-adv-x="645" 
d="M-72 -471v283q35 -7 58 -7q80 0 118.5 47t38.5 148v717q0 40 -1 135.5t-1 110.5h363q0 -15 -1 -110.5t-1 -135.5v-656q0 -245 -78 -370q-57 -90 -149.5 -136.5t-198.5 -46.5q-97 0 -148 21zM553 1456l133 -168l-393 -256l-393 256l133 168l260 -139z" />
    <glyph glyph-name="Gacute" unicode="&#x1f4;" horiz-adv-x="1712" 
d="M1159 442h-16q-40 0 -134.5 -1t-109.5 -1v324q15 0 110.5 -1t135.5 -1h461q4 -46 4 -115q0 -138 -48.5 -261.5t-138.5 -219t-230.5 -151.5t-311.5 -56q-173 0 -320 60t-247 162.5t-156 241t-56 294.5q0 155 59 294.5t161 241.5t247.5 162t311.5 60q188 0 338 -73
t247 -202l-270 -250q-120 180 -315 180q-169 0 -277 -119.5t-108 -293.5q0 -196 106.5 -317t278.5 -121q120 0 187.5 28t119.5 80q12 12 21 26t13.5 23t6.5 10l-6 9q-19 -13 -64 -13zM975 1962l233 -156l-331 -307l-181 119z" />
    <glyph glyph-name="gacute" unicode="&#x1f5;" horiz-adv-x="1370" 
d="M1237 811v-852q0 -146 -74.5 -249.5t-198.5 -152.5t-286 -49q-332 0 -518 142l186 237q62 -56 120.5 -82t164.5 -26q68 0 119.5 21.5t77.5 53.5t38.5 61t12.5 52q0 71 10 94l-8 5q-39 -44 -121.5 -75.5t-173.5 -31.5q-210 0 -350 136.5t-140 371.5q0 237 162.5 387
t443.5 150q183 0 323 -60.5t212 -132.5zM879 369v256q-32 33 -81.5 56.5t-109.5 23.5q-98 0 -160.5 -63t-62.5 -159q0 -95 59.5 -160t153.5 -65q134 0 201 111zM811 1589l233 -155l-331 -308l-181 119z" />
    <glyph glyph-name="uni01F8" unicode="&#x1f8;" horiz-adv-x="1644" 
d="M154 1470h36l799 -634q47 -38 64.5 -57t50.5 -64l8 2q-14 70 -14 151v320q0 40 -1 135.5t-1 110.5h397q0 -15 -1 -110.5t-1 -135.5v-1225h-37l-799 658q-47 38 -64 56.5t-50 63.5l-9 -2q15 -75 15 -151v-342q0 -40 1 -135.5t1 -110.5h-397q0 15 1 110.5t1 135.5v1224z
M422 1806l233 156l279 -344l-180 -119z" />
    <glyph glyph-name="uni01F9" unicode="&#x1f9;" horiz-adv-x="1280" 
d="M477 846l8 -4q25 63 102.5 112.5t192.5 49.5q76 0 141.5 -22t118.5 -66t83 -119t30 -174v-377q0 -40 1 -135.5t1 -110.5h-362q0 15 1 110.5t1 135.5v286q0 89 -39.5 137t-106.5 48q-66 0 -111.5 -42.5t-45.5 -129.5v-299q0 -40 1 -135.5t1 -110.5h-363q0 15 1 110.5
t1 135.5v471q0 40 -1 135.5t-1 110.5h356q-4 -100 -10 -117zM199 1434l233 155l279 -344l-181 -119z" />
    <glyph glyph-name="AEacute" unicode="&#x1fc;" horiz-adv-x="1861" 
d="M963 0v172h-398l-10 -16l-98 -156h-437q124 176 179 260l762 1174h524q40 0 135.5 1t110.5 1v-340q-15 0 -110.5 1t-135.5 1h-160v-213h82q40 0 135.5 1t110.5 1v-340q-15 0 -110.5 1t-135.5 1h-82v-213h193q40 0 135 1t110 1v-340q-15 0 -110 1t-135 1h-555zM741 451
q4 4 25.5 8t46.5 4h150v186q0 127 16 164l-10 4q-9 -29 -19 -48t-47 -77l-117 -180q-23 -35 -49 -53zM1257 1962l234 -156l-332 -307l-180 119z" />
    <glyph glyph-name="aeacute" unicode="&#x1fd;" horiz-adv-x="1892" 
d="M1786 422h-701q5 -100 52 -154.5t133 -54.5q41 0 75 12.5t55 34t33.5 41t20.5 41.5l295 -166q-50 -90 -165.5 -153.5t-293.5 -63.5q-210 0 -352 102q-56 -40 -149 -71t-203 -31q-129 0 -226.5 29.5t-154.5 80t-85 112.5t-28 134q0 146 106.5 239t301.5 93
q87 0 155.5 -27.5t94.5 -68.5l8 4q-11 32 -15 82q-6 71 -59 108t-133 37q-141 0 -258 -67l-100 205q52 26 90 40.5t120 29t185 14.5q239 0 368 -93q132 93 306 93q122 0 223 -41t167 -112t102 -165.5t36 -202.5q0 -41 -4 -61zM598 184q88 0 147 52v120q-21 37 -65.5 68
t-101.5 31q-65 0 -101.5 -37.5t-36.5 -93.5q0 -60 43.5 -100t114.5 -40zM1270 774q-64 0 -112.5 -39t-57.5 -112h346q2 55 -44.5 103t-131.5 48zM1049 1589l233 -155l-332 -308l-180 119z" />
    <glyph glyph-name="Oslashacute" unicode="&#x1fe;" horiz-adv-x="1785" 
d="M893 1475q244 0 442 -127l115 116l190 -190l-108 -107q151 -200 151 -450q0 -155 -61 -294.5t-165 -241.5t-251.5 -162t-312.5 -60q-244 0 -442 127q-97 -97 -115 -117l-191 191l109 106q-152 198 -152 451q0 155 61 294.5t165.5 241.5t252 162t312.5 60zM893 1110
q-165 0 -281 -115t-116 -278q0 -90 39 -170l526 526q-75 37 -168 37zM1251 887l-528 -529q75 -34 170 -34q165 0 281 115t116 278q0 90 -39 170zM1102 1962l233 -156l-331 -307l-181 119z" />
    <glyph glyph-name="oslashacute" unicode="&#x1ff;" horiz-adv-x="1335" 
d="M668 1004q48 0 116 -11q86 134 107 166l303 -198l-86 -130q145 -145 145 -350q0 -107 -43.5 -203t-119.5 -166.5t-186 -111.5t-236 -41q-57 0 -119 10q-86 -134 -107 -166l-303 199q5 9 18.5 29t33.5 49.5t34 50.5q-143 143 -143 350q0 144 74 263t209 189.5t303 70.5z
M668 717q-97 0 -162.5 -69t-65.5 -167t65.5 -166.5t162.5 -68.5t162 68.5t65 166.5t-65 167t-162 69zM713 1569l233 -156l-332 -307l-180 119z" />
    <glyph glyph-name="uni0202" unicode="&#x202;" 
d="M772 1483h41l614 -1260q72 -147 113 -223h-407q-10 23 -34.5 75t-31.5 68l-12 29h-523l-12 -29q-4 -10 -28.5 -63.5t-34.5 -79.5h-420q9 19 54 107t59 116zM727 463h129q57 0 72 -10l4 8q-14 7 -33 51l-49 104q-19 40 -32 76.5t-18 55t-5 24.5h-9q0 -36 -53 -156
l-47 -104q-6 -15 -14 -27t-13 -17.5t-8 -6.5l4 -8q10 10 72 10zM596 1546l-201 80q35 136 141 213.5t252 77.5t252.5 -78t141.5 -213l-201 -80q-19 60 -70 92.5t-123 32.5q-74 0 -124 -31.5t-68 -93.5z" />
    <glyph glyph-name="uni0203" unicode="&#x203;" horiz-adv-x="1218" 
d="M416 1044l-201 80q35 136 141 213.5t252 77.5t252 -77.5t141 -213.5l-200 -80q-19 60 -70 92.5t-123 32.5q-74 0 -124 -31.5t-68 -93.5zM588 1012q162 0 288.5 -50.5t178.5 -156.5q30 -61 30 -195v-516q-32 -22 -72 -43t-103 -45.5t-148 -39.5t-176 -15q-110 0 -196.5 20
t-142.5 54t-93 81.5t-52.5 99t-15.5 109.5q0 147 107 239.5t303 92.5q90 0 158 -26.5t94 -65.5l8 4q-11 33 -15 78q-6 71 -60 110t-134 39q-146 0 -266 -69l-101 205q51 26 93.5 42t128 32t186.5 16zM578 451q-66 0 -105 -36t-39 -91q0 -64 43 -106t117 -42q87 0 151 57v123
q-20 37 -65 66t-102 29z" />
    <glyph glyph-name="uni0206" unicode="&#x206;" horiz-adv-x="1060" 
d="M154 0v1434h530q40 0 135.5 1t110.5 1v-340q-15 0 -110.5 1t-135.5 1h-168v-213h90q40 0 135.5 1t110.5 1v-340q-15 0 -110.5 1t-135.5 1h-90v-213h201q40 0 135.5 1t110.5 1v-340q-15 0 -110.5 1t-135.5 1h-563zM344 1546l-201 80q35 135 141.5 213t252.5 78t252 -77.5
t141 -213.5l-201 -80q-19 60 -69.5 92.5t-122.5 32.5q-74 0 -124.5 -31.5t-68.5 -93.5z" />
    <glyph glyph-name="uni0207" unicode="&#x207;" horiz-adv-x="1249" 
d="M1143 422h-701q5 -100 52 -154.5t133 -54.5q41 0 75 12.5t55 34t33.5 41t20.5 41.5l295 -166q-50 -90 -165.5 -153.5t-293.5 -63.5q-133 0 -239 42t-173 113.5t-102 162.5t-35 194q0 238 147 385.5t373 147.5q162 0 284 -71t183.5 -188t61.5 -262q0 -41 -4 -61zM627 774
q-64 0 -112.5 -39t-57.5 -112h346q2 55 -44.5 103t-131.5 48zM430 1044l-201 80q35 135 141.5 213t252.5 78t252 -77.5t141 -213.5l-201 -80q-19 60 -69.5 92.5t-122.5 32.5q-74 0 -124.5 -31.5t-68.5 -93.5z" />
    <glyph glyph-name="uni020A" unicode="&#x20a;" horiz-adv-x="720" 
d="M162 1434h397q0 -15 -1 -110.5t-1 -135.5v-942q0 -40 1 -135.5t1 -110.5h-397q0 15 1 110.5t1 135.5v942q0 40 -1 135.5t-1 110.5zM168 1546l-201 80q35 136 141 213.5t252 77.5t252.5 -78t141.5 -213l-201 -80q-19 60 -70 92.5t-123 32.5q-74 0 -124 -31.5t-68 -93.5z
" />
    <glyph glyph-name="uni020B" unicode="&#x20b;" horiz-adv-x="645" 
d="M504 963q0 -15 -1 -110.5t-1 -135.5v-471q0 -40 1 -135.5t1 -110.5h-363q0 15 1 110.5t1 135.5v471q0 40 -1 135.5t-1 110.5h363zM129 1044l-201 80q35 135 141.5 213t252.5 78t252 -77.5t141 -213.5l-201 -80q-19 60 -69.5 92.5t-122.5 32.5q-74 0 -124.5 -31.5
t-68.5 -93.5z" />
    <glyph glyph-name="uni020E" unicode="&#x20e;" horiz-adv-x="1785" 
d="M893 1475q165 0 312.5 -60t251.5 -162t165 -241.5t61 -294.5t-61 -294.5t-165 -241.5t-251.5 -162t-312.5 -60t-312.5 60t-252 162t-165.5 241.5t-61 294.5t61 294.5t165.5 241.5t252 162t312.5 60zM893 1110q-165 0 -281 -115t-116 -278t116 -278t281 -115t281 115
t116 278t-116 278t-281 115zM700 1546l-200 80q35 136 141 213.5t252 77.5t252 -77.5t141 -213.5l-201 -80q-19 60 -69.5 92.5t-122.5 32.5q-74 0 -124.5 -31.5t-68.5 -93.5z" />
    <glyph glyph-name="uni020F" unicode="&#x20f;" horiz-adv-x="1335" 
d="M668 1004q126 0 236 -41t186 -111.5t119.5 -167t43.5 -203.5t-43.5 -203t-119.5 -166.5t-186 -111.5t-236 -41t-236 41t-186.5 111.5t-120 166.5t-43.5 203q0 144 74 263t209 189.5t303 70.5zM668 717q-97 0 -162.5 -69t-65.5 -167t65.5 -166.5t162.5 -68.5t162 68.5
t65 166.5t-65 167t-162 69zM475 1044l-201 80q35 135 141.5 213t252.5 78t252 -77.5t141 -213.5l-201 -80q-19 60 -69.5 92.5t-122.5 32.5q-74 0 -124.5 -31.5t-68.5 -93.5z" />
    <glyph glyph-name="uni0212" unicode="&#x212;" horiz-adv-x="1306" 
d="M418 1546l-201 80q35 136 141 213.5t252 77.5t252.5 -78t141.5 -213l-201 -80q-19 60 -70 92.5t-123 32.5q-74 0 -124 -31.5t-68 -93.5zM1257 0h-411q-37 103 -70 182l-137 350h-92v-286q0 -40 1 -135.5t1 -110.5h-397q0 15 1 110.5t1 135.5v1188h616q209 0 336 -133.5
t127 -342.5q0 -138 -56 -233.5t-157 -144.5l147 -357zM678 1118h-131v-311h123q69 0 116.5 44t47.5 107q0 67 -44.5 113.5t-111.5 46.5z" />
    <glyph glyph-name="uni0213" unicode="&#x213;" horiz-adv-x="901" 
d="M268 1044l-200 80q35 136 141 213.5t252 77.5t252 -77.5t141 -213.5l-201 -80q-19 60 -69.5 92.5t-122.5 32.5q-74 0 -124.5 -31.5t-68.5 -93.5zM856 958v-321q-64 27 -127 27q-110 0 -173.5 -61.5t-63.5 -160.5v-196q0 -40 1 -135.5t1 -110.5h-363q0 15 1 110.5t1 135.5
v471q0 40 -1 135.5t-1 110.5h356q0 -113 -6 -140l11 -4q29 68 105.5 110t170.5 42q62 0 88 -13z" />
    <glyph glyph-name="uni0216" unicode="&#x216;" horiz-adv-x="1579" 
d="M549 1434q0 -15 -1 -110.5t-1 -135.5v-676q0 -52 21 -97t57 -73q68 -51 192 -51q65 0 122.5 18t92.5 43v836q0 40 -1 135.5t-1 110.5h397q0 -15 -1 -110.5t-1 -135.5v-1057q-34 -25 -60.5 -41.5t-84 -43.5t-117 -44t-151.5 -30t-195 -13q-166 0 -278.5 26t-194.5 83
q-190 133 -190 444v676q0 40 -1 135.5t-1 110.5h397zM596 1546l-201 80q35 136 141 213.5t252 77.5t252.5 -78t141.5 -213l-201 -80q-19 60 -70 92.5t-123 32.5q-74 0 -124 -31.5t-68 -93.5z" />
    <glyph glyph-name="uni0217" unicode="&#x217;" horiz-adv-x="1302" 
d="M1171 963q0 -15 -1 -110.5t-1 -135.5v-635q-62 -42 -201 -82.5t-306 -40.5q-529 0 -529 410v348q0 40 -1 135.5t-1 110.5h363q0 -15 -1 -110.5t-1 -135.5v-297q0 -77 45 -125.5t137 -48.5q74 0 137 33v438q0 40 -1 135.5t-1 110.5h362zM457 1044l-201 80
q35 136 141 213.5t252 77.5t252 -77.5t141 -213.5l-200 -80q-19 60 -70 92.5t-123 32.5q-74 0 -124 -31.5t-68 -93.5z" />
    <glyph glyph-name="Scommaaccent" unicode="&#x218;" horiz-adv-x="1181" 
d="M1081 1243l-229 -213q-111 150 -229 150q-39 0 -66 -23.5t-27 -54.5q0 -28 13 -53.5t40.5 -49.5t50 -40t63.5 -42t59 -38q145 -100 193 -141q135 -118 160 -258q7 -38 7 -79q0 -197 -143.5 -319.5t-368.5 -122.5q-184 0 -324.5 84t-222.5 223l297 174q42 -82 107.5 -132
t146.5 -50q57 0 94 32t37 79q0 30 -15.5 58.5t-44.5 54t-64 50t-79 53.5l-24 15q-61 40 -99 67t-91.5 74t-84 89.5t-53 102.5t-22.5 124q0 82 36 159t96 134t144 91t176 34q266 0 467 -232zM571 -66l-219 -262l135 -106l250 233z" />
    <glyph glyph-name="scommaaccent" unicode="&#x219;" horiz-adv-x="958" 
d="M502 -66l-219 -262l135 -106l250 233zM901 877l-190 -211q-29 47 -81.5 86t-113.5 39q-46 0 -68 -19t-22 -43q0 -21 10.5 -37t33.5 -30t44.5 -23.5t60 -25.5t62.5 -27q47 -22 82 -41.5t75.5 -49.5t66.5 -61.5t43.5 -75t17.5 -92.5q0 -145 -108.5 -234t-317.5 -89
q-314 0 -484 166l244 219q38 -57 99.5 -104.5t136.5 -47.5q45 0 69.5 19.5t24.5 50.5q0 12 -4.5 23t-15.5 21.5t-21 18t-30 18.5t-33 17t-40 18t-41 19q-43 21 -62.5 30.5t-59 32t-59.5 38.5t-48.5 43t-42.5 53t-24.5 61t-10.5 74q0 131 106.5 219t299.5 88q122 0 230.5 -40
t170.5 -103z" />
    <glyph glyph-name="uni021E" unicode="&#x21e;" horiz-adv-x="1622" 
d="M1468 1188v-942q0 -40 1 -135.5t1 -110.5h-397q0 15 1 110.5t1 135.5v327h-528v-327q0 -40 1 -135.5t1 -110.5h-397q0 15 1 110.5t1 135.5v942q0 40 -1 135.5t-1 110.5h397q0 -15 -1 -110.5t-1 -135.5v-307h528v307q0 40 -1 135.5t-1 110.5h397q0 -15 -1 -110.5
t-1 -135.5zM1071 1958l133 -168l-393 -256l-393 256l133 168l260 -139z" />
    <glyph glyph-name="uni021F" unicode="&#x21f;" horiz-adv-x="1292" 
d="M494 1577q0 -15 -1 -110.5t-1 -135.5v-291q0 -46 -10.5 -102.5t-16.5 -75.5l8 -4q37 59 124 102.5t194 43.5q78 0 143.5 -22t117 -66t80.5 -119t29 -174v-377q0 -40 1 -135.5t1 -110.5h-362q0 15 1 110.5t1 135.5v286q0 90 -40.5 135.5t-111.5 45.5q-68 0 -113.5 -44
t-45.5 -143v-280q0 -40 1 -135.5t1 -110.5h-363q0 15 1 110.5t1 135.5v1085q0 40 -1 135.5t-1 110.5h363zM877 1999l133 -168l-394 -256l-393 256l133 168l260 -139z" />
    <glyph glyph-name="uni0226" unicode="&#x226;" 
d="M772 1483h41l614 -1260q72 -147 113 -223h-407q-10 23 -34.5 75t-31.5 68l-12 29h-523l-12 -29q-4 -10 -28.5 -63.5t-34.5 -79.5h-420q9 19 54 107t59 116zM727 463h129q57 0 72 -10l4 8q-14 7 -33 51l-49 104q-19 40 -32 76.5t-18 55t-5 24.5h-9q0 -36 -53 -156
l-47 -104q-6 -15 -14 -27t-13 -17.5t-8 -6.5l4 -8q10 10 72 10zM788 1946q80 0 137.5 -58t57.5 -137t-57.5 -137t-137.5 -58q-79 0 -136.5 57.5t-57.5 137.5t57.5 137.5t136.5 57.5z" />
    <glyph glyph-name="uni0227" unicode="&#x227;" horiz-adv-x="1218" 
d="M606 1444q80 0 137.5 -58t57.5 -137t-57.5 -136.5t-137.5 -57.5t-137 57.5t-57 136.5q0 80 57.5 137.5t136.5 57.5zM588 1012q162 0 288.5 -50.5t178.5 -156.5q30 -61 30 -195v-516q-32 -22 -72 -43t-103 -45.5t-148 -39.5t-176 -15q-110 0 -196.5 20t-142.5 54t-93 81.5
t-52.5 99t-15.5 109.5q0 147 107 239.5t303 92.5q90 0 158 -26.5t94 -65.5l8 4q-11 33 -15 78q-6 71 -60 110t-134 39q-146 0 -266 -69l-101 205q51 26 93.5 42t128 32t186.5 16zM578 451q-66 0 -105 -36t-39 -91q0 -64 43 -106t117 -42q87 0 151 57v123q-20 37 -65 66
t-102 29z" />
    <glyph glyph-name="uni0228" unicode="&#x228;" horiz-adv-x="1060" 
d="M154 0v1434h530q40 0 135.5 1t110.5 1v-340q-15 0 -110.5 1t-135.5 1h-168v-213h90q40 0 135.5 1t110.5 1v-340q-15 0 -110.5 1t-135.5 1h-90v-213h201q40 0 135.5 1t110.5 1v-340q-15 0 -110.5 1t-135.5 1h-563zM588 -66l-219 -262l135 -106l250 233z" />
    <glyph glyph-name="uni0229" unicode="&#x229;" horiz-adv-x="1249" 
d="M1143 422h-701q5 -100 52 -154.5t133 -54.5q41 0 75 12.5t55 34t33.5 41t20.5 41.5l295 -166q-50 -90 -165.5 -153.5t-293.5 -63.5q-133 0 -239 42t-173 113.5t-102 162.5t-35 194q0 238 147 385.5t373 147.5q162 0 284 -71t183.5 -188t61.5 -262q0 -41 -4 -61zM627 774
q-64 0 -112.5 -39t-57.5 -112h346q2 55 -44.5 103t-131.5 48zM674 -66l-219 -262l135 -106l250 233z" />
    <glyph glyph-name="uni022E" unicode="&#x22e;" horiz-adv-x="1785" 
d="M889 1475q165 0 312.5 -60t251.5 -162t165 -241.5t61 -294.5t-61 -294.5t-165 -241.5t-251.5 -162t-312.5 -60t-312.5 60t-252 162t-165.5 241.5t-61 294.5t61 294.5t165.5 241.5t252 162t312.5 60zM889 1110q-165 0 -281 -115t-116 -278t116 -278t281 -115t281 115
t116 278t-116 278t-281 115zM893 1925q79 0 136.5 -57.5t57.5 -136.5q0 -80 -57.5 -137.5t-136.5 -57.5t-137 58t-58 137t57.5 136.5t137.5 57.5z" />
    <glyph glyph-name="uni022F" unicode="&#x22f;" horiz-adv-x="1335" 
d="M668 1004q126 0 236 -41t186 -111.5t119.5 -167t43.5 -203.5t-43.5 -203t-119.5 -166.5t-186 -111.5t-236 -41t-236 41t-186.5 111.5t-120 166.5t-43.5 203q0 144 74 263t209 189.5t303 70.5zM668 717q-97 0 -162.5 -69t-65.5 -167t65.5 -166.5t162.5 -68.5t162 68.5
t65 166.5t-65 167t-162 69zM668 1444q79 0 136.5 -57.5t57.5 -137.5q0 -79 -57 -136.5t-137 -57.5t-137.5 57.5t-57.5 136.5t57.5 137t137.5 58z" />
    <glyph glyph-name="uni0232" unicode="&#x232;" horiz-adv-x="1474" 
d="M555 0q0 15 1 110.5t1 135.5v446l-350 486q-14 20 -59.5 81.5t-81.5 110.5t-46 64h465q60 -97 103 -158l84 -123q26 -36 47 -79t24 -62h9q0 10 21 55t48 86l82 125q12 17 48 72t57 84h446q-57 -85 -176 -252l-340 -482v-454q0 -40 1 -135.5t1 -110.5h-385zM461 1835
q7 0 55 -1t68 -1h307q20 0 68 1t55 1v-250q-7 0 -55 1t-68 1h-307q-20 0 -68 -1t-55 -1v250z" />
    <glyph glyph-name="uni0233" unicode="&#x233;" horiz-adv-x="1318" 
d="M1298 963q-24 -50 -73.5 -143t-65.5 -124l-504 -968q-50 -98 -88 -179h-395q3 6 137 261l176 348l-311 542q-12 20 -78 131.5t-76 131.5h408q38 -82 84 -168l86 -164q28 -53 49 -109t23 -76h8q2 16 25 75t49 110l75 149q19 36 49 103t37 80h385zM393 1333q7 0 55 -1
t68 -1h307q20 0 68 1t55 1v-250q-7 0 -55 1t-68 1h-307q-20 0 -68 -1t-55 -1v250z" />
    <glyph glyph-name="dotlessj" unicode="&#x237;" horiz-adv-x="645" 
d="M-72 -471v283q35 -7 58 -7q80 0 118.5 47t38.5 148v717q0 40 -1 135.5t-1 110.5h363q0 -15 -1 -110.5t-1 -135.5v-656q0 -245 -78 -370q-57 -90 -149.5 -136.5t-198.5 -46.5q-97 0 -148 21z" />
    <glyph glyph-name="uni0245" unicode="&#x245;" 
d="M795 772h-9q0 -36 -53 -156l-213 -473q-4 -10 -28.5 -63.5t-34.5 -79.5h-420q9 19 54 107t59 116l622 1260h41l614 -1260q72 -147 113 -223h-407q-10 23 -34.5 75t-31.5 68l-217 473q-19 40 -32 76.5t-18 55t-5 24.5z" />
    <glyph glyph-name="apostrophe" unicode="&#x2bc;" horiz-adv-x="520" 
d="M102 1270v307h316v-324q0 -100 -63.5 -207.5t-151.5 -168.5l-107 124q60 47 98.5 112t38.5 140v17h-131z" />
    <glyph glyph-name="circumflex" unicode="&#x2c6;" horiz-adv-x="933" 
d="M860 1198l-133 -168l-260 139l-260 -139l-133 168l393 256z" />
    <glyph glyph-name="caron" unicode="&#x2c7;" horiz-adv-x="933" 
d="M727 1456l133 -168l-393 -256l-393 256l133 168l260 -139z" />
    <glyph glyph-name="breve" unicode="&#x2d8;" horiz-adv-x="950" 
d="M82 1335l201 80q18 -62 68 -93.5t124 -31.5q72 0 123 32.5t70 92.5l200 -80q-35 -136 -141 -213.5t-252 -77.5t-252 77.5t-141 213.5z" />
    <glyph glyph-name="dotaccent" unicode="&#x2d9;" horiz-adv-x="798" 
d="M399 1444q79 0 137 -58t58 -137t-57.5 -136.5t-137.5 -57.5q-79 0 -136.5 57.5t-57.5 136.5q0 80 57.5 137.5t136.5 57.5z" />
    <glyph glyph-name="ring" unicode="&#x2da;" horiz-adv-x="819" 
d="M410 1536q121 0 193.5 -68t72.5 -168t-72 -167.5t-194 -67.5t-194.5 67.5t-72.5 167.5t72.5 168t194.5 68zM410 1364q-38 0 -60 -18.5t-22 -45.5t22 -45t60 -18q40 0 61 17.5t21 45.5q0 27 -22 45.5t-60 18.5z" />
    <glyph glyph-name="ogonek" unicode="&#x2db;" horiz-adv-x="921" 
d="M406 123l198 -55q-133 -111 -133 -209q0 -52 31 -78.5t80 -26.5q65 0 129 41l100 -209q-113 -78 -270 -78q-154 0 -241 80.5t-87 202.5q0 61 23 121.5t57 102.5t63 69.5t50 38.5z" />
    <glyph glyph-name="tilde" unicode="&#x2dc;" horiz-adv-x="1130" 
d="M782 1413l242 -41q-15 -87 -76 -158.5t-148.5 -106.5t-176.5 -20l-156 27q-41 7 -76 -21t-43 -71l-242 41q24 134 145.5 221.5t256.5 63.5l154 -27q42 -7 77 20.5t43 71.5z" />
    <glyph glyph-name="hungarumlaut" unicode="&#x2dd;" horiz-adv-x="839" 
d="M252 1071l-139 62l116 268l187 -82zM551 1071l-139 62l116 268l187 -82z" />
    <glyph glyph-name="uni0311" unicode="&#x311;" horiz-adv-x="950" 
d="M283 1044l-201 80q35 136 141 213.5t252 77.5t252 -77.5t141 -213.5l-200 -80q-19 60 -70 92.5t-123 32.5q-74 0 -124 -31.5t-68 -93.5z" />
    <glyph glyph-name="delta" unicode="&#x3b4;" horiz-adv-x="1335" 
d="M694 1638q46 -89 115 -217l379 -694q27 -41 46 -109.5t19 -136.5q0 -107 -43.5 -203t-119.5 -166.5t-186 -111.5t-236 -41t-236 41t-186.5 111.5t-120 166.5t-43.5 203q0 108 41 201.5t110 157.5t156.5 104.5t183.5 52.5q13 3 28 1.5t23 -2.5t19 -5.5t15 -6.5t12 -7
t10 -6l4 6q-41 25 -82 100l-96 178l-123 213zM668 717q-94 0 -161 -69.5t-67 -166.5t67 -166t161 -69q95 0 161 69t66 166t-66 166.5t-161 69.5z" />
    <glyph glyph-name="pi" unicode="&#x3c0;" horiz-adv-x="1404" 
d="M1249 0h-344q-22 41 -39 89.5t-28 86.5t-18.5 102t-11 93.5t-6 107t-2.5 97t-1 104.5h-181l-81 -680h-353l144 680q-40 0 -146 -1t-121 -1v287q15 0 110.5 -1t135.5 -1h791q40 0 135 1t110 1v-287q-14 0 -92.5 1t-120.5 1q0 -99 7.5 -201.5t36 -242t75.5 -236.5z" />
    <glyph glyph-name="uni1E02" unicode="&#x1e02;" horiz-adv-x="1372" 
d="M152 1434h626q190 0 308 -105t118 -280q0 -124 -64 -195t-161 -94v-8q129 -27 203.5 -121.5t74.5 -237.5q0 -81 -23.5 -149.5t-72.5 -124t-134.5 -87.5t-199.5 -32h-675v1434zM530 602v-295h154q80 0 124 39.5t44 104.5q0 66 -44 108.5t-120 42.5h-158zM530 1159v-287
h113q88 0 128 36t40 108q0 63 -44 103t-124 40h-113zM629 1946q79 0 136.5 -57.5t57.5 -137.5t-57.5 -137.5t-136.5 -57.5t-137 58t-58 137t58 137t137 58z" />
    <glyph glyph-name="uni1E03" unicode="&#x1e03;" horiz-adv-x="1363" 
d="M131 1464h363q0 -17 -1 -118.5t-1 -143.5v-207q0 -68 -11 -94l8 -4q39 44 122.5 75.5t174.5 31.5q137 0 246.5 -58.5t175.5 -175.5t66 -274q0 -116 -41 -214.5t-117 -170t-190.5 -112t-255.5 -40.5q-127 0 -243.5 34.5t-183.5 75t-110 83.5v1050q0 42 -1 143.5t-1 118.5z
M492 594v-256q76 -80 190 -80q98 0 160.5 62.5t62.5 158.5q0 95 -59.5 160.5t-153.5 65.5q-133 0 -200 -111zM858 1587q80 0 137.5 -57.5t57.5 -136.5t-57.5 -137t-137.5 -58q-79 0 -136.5 57.5t-57.5 137.5q0 79 57 136.5t137 57.5z" />
    <glyph glyph-name="uni1E08" unicode="&#x1e08;" horiz-adv-x="1564" 
d="M1249 463l254 -264q-109 -114 -270.5 -177t-343.5 -63q-179 0 -328.5 60.5t-249 164.5t-154.5 243.5t-55 297.5q0 157 56 295t156.5 238.5t248 158.5t322.5 58q356 0 581 -232l-245 -254q-150 150 -336 150q-167 0 -278 -111.5t-111 -302.5q0 -188 115.5 -305t277.5 -117
q116 0 195.5 40t164.5 120zM664 -328l219 262l166 -135l-250 -233zM991 2071l234 -156l-332 -307l-180 118z" />
    <glyph glyph-name="uni1E09" unicode="&#x1e09;" horiz-adv-x="1249" 
d="M743 1589l234 -155l-332 -308l-180 119zM659 1004q82 0 153.5 -17t126 -48t93 -62t76.5 -72l-256 -201q-72 105 -184 105q-92 0 -149.5 -64t-57.5 -158q0 -91 61 -156t150 -65q122 0 196 115l283 -180q-31 -44 -70.5 -82t-98.5 -76.5t-141.5 -61t-176.5 -22.5
q-244 0 -403 147.5t-159 376.5q0 221 158.5 371t398.5 150zM410 -328l219 262l166 -135l-250 -233z" />
    <glyph glyph-name="uni1E0A" unicode="&#x1e0a;" horiz-adv-x="1525" 
d="M154 1434h571q153 0 284 -56t221.5 -152.5t141.5 -228.5t51 -280q0 -147 -51 -277t-144.5 -228t-235 -155t-312.5 -57h-526v1434zM547 1110v-782h131q148 0 250 113t102 276q0 169 -101.5 281t-258.5 112h-123zM657 1987q79 0 137 -57.5t58 -137.5t-58 -137.5t-137 -57.5
t-136.5 57.5t-57.5 137.5t57.5 137.5t136.5 57.5z" />
    <glyph glyph-name="uni1E0B" unicode="&#x1e0b;" horiz-adv-x="1349" 
d="M858 1464h363q0 -17 -1 -118.5t-1 -143.5v-1050q-43 -43 -110 -83.5t-183.5 -75t-243.5 -34.5q-141 0 -255.5 40.5t-190.5 112t-117 170t-41 214.5q0 157 66 274t175 175.5t246 58.5q91 0 174.5 -31.5t122.5 -75.5l8 4q-10 23 -10 94v207q0 42 -1 143.5t-1 118.5z
M860 338v256q-67 111 -201 111q-94 0 -153.5 -65.5t-59.5 -160.5q0 -96 63 -158.5t161 -62.5q114 0 190 80zM543 1587q79 0 136.5 -57.5t57.5 -136.5q0 -80 -57.5 -137.5t-136.5 -57.5t-137 58t-58 137t57.5 136.5t137.5 57.5z" />
    <glyph glyph-name="Wgrave" unicode="&#x1e80;" horiz-adv-x="2195" 
d="M1085 717q-2 -20 -23.5 -87t-45.5 -118l-258 -569h-37l-580 1228q-111 235 -121 263h392q63 -147 88 -197l170 -348q21 -42 43 -114t24 -91h8q2 21 21.5 82.5t46.5 122.5l250 561h37l256 -561q28 -59 46.5 -120.5t20.5 -84.5h9q2 17 26 88t45 117l166 348q18 38 86 197
h420q-5 -11 -32.5 -66t-55 -111.5t-41.5 -85.5l-588 -1228h-37l-264 569q-24 50 -44.5 117t-22.5 88h-5zM645 1806l234 156l278 -344l-180 -119z" />
    <glyph glyph-name="wgrave" unicode="&#x1e81;" horiz-adv-x="1843" 
d="M936 528h-8q0 -19 -19 -80.5t-45 -123.5l-133 -324h-246l-338 705q-27 56 -70 142.5t-57 115.5h390q53 -141 75 -187l62 -137q75 -166 78 -205h8q2 18 25 87.5t44 117.5l140 324h172l147 -308q23 -48 50 -117.5t28 -86.5h8q3 38 70 204l49 121q12 31 36 94t36 93h387
q-80 -160 -125 -258l-328 -705h-225l-143 324q-63 148 -68 204zM475 1434l234 155l278 -344l-180 -119z" />
    <glyph glyph-name="Wacute" unicode="&#x1e82;" horiz-adv-x="2195" 
d="M1085 717q-2 -20 -23.5 -87t-45.5 -118l-258 -569h-37l-580 1228q-111 235 -121 263h392q63 -147 88 -197l170 -348q21 -42 43 -114t24 -91h8q2 21 21.5 82.5t46.5 122.5l250 561h37l256 -561q28 -59 46.5 -120.5t20.5 -84.5h9q2 17 26 88t45 117l166 348q18 38 86 197
h420q-5 -11 -32.5 -66t-55 -111.5t-41.5 -85.5l-588 -1228h-37l-264 569q-24 50 -44.5 117t-22.5 88h-5zM1278 1962l233 -156l-331 -307l-181 119z" />
    <glyph glyph-name="wacute" unicode="&#x1e83;" horiz-adv-x="1843" 
d="M936 528h-8q0 -19 -19 -80.5t-45 -123.5l-133 -324h-246l-338 705q-27 56 -70 142.5t-57 115.5h390q53 -141 75 -187l62 -137q75 -166 78 -205h8q2 18 25 87.5t44 117.5l140 324h172l147 -308q23 -48 50 -117.5t28 -86.5h8q3 38 70 204l49 121q12 31 36 94t36 93h387
q-80 -160 -125 -258l-328 -705h-225l-143 324q-63 148 -68 204zM1085 1589l234 -155l-332 -308l-180 119z" />
    <glyph glyph-name="Wdieresis" unicode="&#x1e84;" horiz-adv-x="2195" 
d="M1085 717q-2 -20 -23.5 -87t-45.5 -118l-258 -569h-37l-580 1228q-111 235 -121 263h392q63 -147 88 -197l170 -348q21 -42 43 -114t24 -91h8q2 21 21.5 82.5t46.5 122.5l250 561h37l256 -561q28 -59 46.5 -120.5t20.5 -84.5h9q2 17 26 88t45 117l166 348q18 38 86 197
h420q-5 -11 -32.5 -66t-55 -111.5t-41.5 -85.5l-588 -1228h-37l-264 569q-24 50 -44.5 117t-22.5 88h-5zM829 1966q80 0 137.5 -57.5t57.5 -136.5q0 -80 -58 -137.5t-137 -57.5t-136.5 57.5t-57.5 137.5t57.5 137t136.5 57zM1341 1966q80 0 137.5 -57.5t57.5 -136.5
q0 -80 -58 -137.5t-137 -57.5t-136.5 57.5t-57.5 137.5t57.5 137t136.5 57z" />
    <glyph glyph-name="wdieresis" unicode="&#x1e85;" horiz-adv-x="1843" 
d="M936 528h-8q0 -19 -19 -80.5t-45 -123.5l-133 -324h-246l-338 705q-27 56 -70 142.5t-57 115.5h390q53 -141 75 -187l62 -137q75 -166 78 -205h8q2 18 25 87.5t44 117.5l140 324h172l147 -308q23 -48 50 -117.5t28 -86.5h8q3 38 70 204l49 121q12 31 36 94t36 93h387
q-80 -160 -125 -258l-328 -705h-225l-143 324q-63 148 -68 204zM674 1464q80 0 137 -57t57 -137t-57.5 -137.5t-136.5 -57.5q-80 0 -137.5 57.5t-57.5 137.5q0 79 57.5 136.5t137.5 57.5zM1186 1464q80 0 137 -57t57 -137t-57.5 -137.5t-136.5 -57.5q-80 0 -137.5 57.5
t-57.5 137.5q0 79 57.5 136.5t137.5 57.5z" />
    <glyph glyph-name="uni1E86" unicode="&#x1e86;" horiz-adv-x="2195" 
d="M1085 717q-2 -20 -23.5 -87t-45.5 -118l-258 -569h-37l-580 1228q-111 235 -121 263h392q63 -147 88 -197l170 -348q21 -42 43 -114t24 -91h8q2 21 21.5 82.5t46.5 122.5l250 561h37l256 -561q28 -59 46.5 -120.5t20.5 -84.5h9q2 17 26 88t45 117l166 348q18 38 86 197
h420q-5 -11 -32.5 -66t-55 -111.5t-41.5 -85.5l-588 -1228h-37l-264 569q-24 50 -44.5 117t-22.5 88h-5zM1083 1946q79 0 137 -58t58 -137t-58 -137t-137 -58t-136.5 57.5t-57.5 137.5t57.5 137.5t136.5 57.5z" />
    <glyph glyph-name="uni1E87" unicode="&#x1e87;" horiz-adv-x="1843" 
d="M936 528h-8q0 -19 -19 -80.5t-45 -123.5l-133 -324h-246l-338 705q-27 56 -70 142.5t-57 115.5h390q53 -141 75 -187l62 -137q75 -166 78 -205h8q2 18 25 87.5t44 117.5l140 324h172l147 -308q23 -48 50 -117.5t28 -86.5h8q3 38 70 204l49 121q12 31 36 94t36 93h387
q-80 -160 -125 -258l-328 -705h-225l-143 324q-63 148 -68 204zM920 1444q79 0 136.5 -57.5t57.5 -137.5q0 -79 -57 -136.5t-137 -57.5t-137.5 57.5t-57.5 136.5t57.5 137t137.5 58z" />
    <glyph glyph-name="uni1E8A" unicode="&#x1e8a;" horiz-adv-x="1622" 
d="M1487 1434q-10 -15 -82 -119.5t-94 -136.5l-285 -412l365 -506q26 -36 190 -260h-475q-27 50 -100 160l-134 207q-19 29 -33 60t-20 49t-6 24h-8q-11 -54 -62 -133l-137 -207q-73 -110 -100 -160h-465q22 32 88 123t98 137l355 506l-301 412q-16 21 -61 81t-83 110.5
t-49 64.5h485q49 -86 97 -156l67 -100q45 -64 64 -142h8q0 5 6 26t20.5 54.5t32.5 61.5l64 100q18 28 51.5 85t42.5 71h461zM805 1987q79 0 136.5 -57.5t57.5 -137.5t-57.5 -137.5t-136.5 -57.5t-137 57.5t-58 137.5t58 137.5t137 57.5z" />
    <glyph glyph-name="uni1E8B" unicode="&#x1e8b;" horiz-adv-x="1437" 
d="M877 963h469q-14 -17 -108 -118.5t-114 -123.5l-186 -205l236 -252q232 -243 251 -264h-477q-38 47 -123 143q-108 124 -112 168h-8q-4 -46 -107 -168q-17 -20 -115 -143h-471q45 49 130.5 138.5t117.5 123.5l229 254l-184 199q-114 119 -235 248h483l78 -103
q26 -35 37 -50.5t22 -36t15 -38.5h8q3 37 78 125zM707 1444q79 0 136.5 -57.5t57.5 -137.5q0 -79 -57.5 -136.5t-136.5 -57.5q-80 0 -137.5 57.5t-57.5 136.5t58 137t137 58z" />
    <glyph glyph-name="uni1E8C" unicode="&#x1e8c;" horiz-adv-x="1622" 
d="M1487 1434q-10 -15 -82 -119.5t-94 -136.5l-285 -412l365 -506q26 -36 190 -260h-475q-27 50 -100 160l-134 207q-19 29 -33 60t-20 49t-6 24h-8q-11 -54 -62 -133l-137 -207q-73 -110 -100 -160h-465q22 32 88 123t98 137l355 506l-301 412q-16 21 -61 81t-83 110.5
t-49 64.5h485q49 -86 97 -156l67 -100q45 -64 64 -142h8q0 5 6 26t20.5 54.5t32.5 61.5l64 100q18 28 51.5 85t42.5 71h461zM555 2007q79 0 137 -57.5t58 -137.5q0 -79 -57.5 -136.5t-137.5 -57.5t-137.5 57.5t-57.5 136.5q0 80 58 137.5t137 57.5zM1067 2007
q79 0 137 -57.5t58 -137.5q0 -79 -57.5 -136.5t-137.5 -57.5t-137.5 57.5t-57.5 136.5q0 80 58 137.5t137 57.5z" />
    <glyph glyph-name="uni1E8D" unicode="&#x1e8d;" horiz-adv-x="1437" 
d="M877 963h469q-14 -17 -108 -118.5t-114 -123.5l-186 -205l236 -252q232 -243 251 -264h-477q-38 47 -123 143q-108 124 -112 168h-8q-4 -46 -107 -168q-17 -20 -115 -143h-471q45 49 130.5 138.5t117.5 123.5l229 254l-184 199q-114 119 -235 248h483l78 -103
q26 -35 37 -50.5t22 -36t15 -38.5h8q3 37 78 125zM453 1464q79 0 136.5 -57t57.5 -137t-57.5 -137.5t-136.5 -57.5t-137 57.5t-58 137.5q0 79 57.5 136.5t137.5 57.5zM965 1464q79 0 136.5 -57t57.5 -137t-57.5 -137.5t-136.5 -57.5t-137 57.5t-58 137.5q0 79 57.5 136.5
t137.5 57.5z" />
    <glyph glyph-name="uni1E8E" unicode="&#x1e8e;" horiz-adv-x="1474" 
d="M555 0q0 15 1 110.5t1 135.5v446l-350 486q-14 20 -59.5 81.5t-81.5 110.5t-46 64h465q60 -97 103 -158l84 -123q26 -36 47 -79t24 -62h9q0 10 21 55t48 86l82 125q12 17 48 72t57 84h446q-57 -85 -176 -252l-340 -482v-454q0 -40 1 -135.5t1 -110.5h-385zM737 1946
q79 0 137 -58t58 -137t-58 -137t-137 -58t-136.5 57.5t-57.5 137.5t57.5 137.5t136.5 57.5z" />
    <glyph glyph-name="uni1E8F" unicode="&#x1e8f;" horiz-adv-x="1318" 
d="M1298 963q-24 -50 -73.5 -143t-65.5 -124l-504 -968q-50 -98 -88 -179h-395q3 6 137 261l176 348l-311 542q-12 20 -78 131.5t-76 131.5h408q38 -82 84 -168l86 -164q28 -53 49 -109t23 -76h8q2 16 25 75t49 110l75 149q19 36 49 103t37 80h385zM670 1444
q79 0 136.5 -57.5t57.5 -137.5q0 -79 -57 -136.5t-137 -57.5t-137.5 57.5t-57.5 136.5t57.5 137t137.5 58z" />
    <glyph glyph-name="uni1E90" unicode="&#x1e90;" horiz-adv-x="1368" 
d="M842 319h157q40 0 135.5 1.5t110.5 1.5v-324q-15 0 -110.5 1t-135.5 1h-970l567 948q95 157 129 174l-4 8q-27 -12 -219 -12h-129q-40 0 -135.5 -1t-110.5 -1v320q15 0 110.5 -1t135.5 -1h934l-557 -945q-34 -58 -76 -113t-56 -61l5 -8q28 12 219 12zM1073 1741
l-133 -168l-260 139l-260 -139l-133 168l393 256z" />
    <glyph glyph-name="uni1E91" unicode="&#x1e91;" horiz-adv-x="1073" 
d="M698 274h72q40 0 135.5 1t110.5 1v-278q-15 0 -110.5 1t-135.5 1h-729l365 592q43 71 86 108l-7 9q-11 -8 -49.5 -14.5t-83.5 -6.5h-20q-40 0 -135.5 -1t-110.5 -1v279q15 0 110.5 -1t135.5 -1h672l-359 -590q-12 -20 -25 -37t-25.5 -29.5t-20.5 -19.5t-18 -15l-11 -8
l6 -8q21 18 147 18zM934 1198l-133 -168l-260 139l-260 -139l-134 168l394 256z" />
    <glyph glyph-name="uni1E9E" unicode="&#x1e9e;" horiz-adv-x="1820" 
d="M1509 1268l-129 -242q-52 -100 -129 -131l6 -10q43 19 89 12q64 -9 128.5 -42t121.5 -86.5t92.5 -135.5t35.5 -176q0 -229 -164.5 -363.5t-437.5 -134.5q-236 0 -420 109l58 333q156 -114 334 -114q110 0 175.5 54t65.5 134q0 83 -77 140t-189 57q-145 0 -287 -58
l258 486q-101 43 -254 43q-108 0 -173.5 -56.5t-65.5 -140.5v-700q0 -40 1 -135.5t1 -110.5h-397q0 15 1 110.5t1 135.5v741q0 100 45.5 189t126.5 155.5t200.5 105t259.5 38.5q415 0 723 -207z" />
    <glyph glyph-name="Ygrave" unicode="&#x1ef2;" horiz-adv-x="1474" 
d="M555 0q0 15 1 110.5t1 135.5v446l-350 486q-14 20 -59.5 81.5t-81.5 110.5t-46 64h465q60 -97 103 -158l84 -123q26 -36 47 -79t24 -62h9q0 10 21 55t48 86l82 125q12 17 48 72t57 84h446q-57 -85 -176 -252l-340 -482v-454q0 -40 1 -135.5t1 -110.5h-385zM406 1806
l233 156l279 -344l-181 -119z" />
    <glyph glyph-name="ygrave" unicode="&#x1ef3;" horiz-adv-x="1318" 
d="M1298 963q-24 -50 -73.5 -143t-65.5 -124l-504 -968q-50 -98 -88 -179h-395q3 6 137 261l176 348l-311 542q-12 20 -78 131.5t-76 131.5h408q38 -82 84 -168l86 -164q28 -53 49 -109t23 -76h8q2 16 25 75t49 110l75 149q19 36 49 103t37 80h385zM281 1434l233 155
l279 -344l-181 -119z" />
    <glyph glyph-name="uni1EF8" unicode="&#x1ef8;" horiz-adv-x="1474" 
d="M555 0q0 15 1 110.5t1 135.5v446l-350 486q-14 20 -59.5 81.5t-81.5 110.5t-46 64h465q60 -97 103 -158l84 -123q26 -36 47 -79t24 -62h9q0 10 21 55t48 86l82 125q12 17 48 72t57 84h446q-57 -85 -176 -252l-340 -482v-454q0 -40 1 -135.5t1 -110.5h-385zM958 1956
l242 -41q-15 -87 -76 -158.5t-148.5 -106.5t-176.5 -20l-156 27q-41 7 -76 -21t-43 -71l-241 41q24 134 145 221t256 63l154 -26q42 -7 77 20.5t43 71.5z" />
    <glyph glyph-name="uni1EF9" unicode="&#x1ef9;" horiz-adv-x="1318" 
d="M1298 963q-24 -50 -73.5 -143t-65.5 -124l-504 -968q-50 -98 -88 -179h-395q3 6 137 261l176 348l-311 542q-12 20 -78 131.5t-76 131.5h408q38 -82 84 -168l86 -164q28 -53 49 -109t23 -76h8q2 16 25 75t49 110l75 149q19 36 49 103t37 80h385zM877 1413l241 -41
q-15 -87 -76 -158.5t-148.5 -106.5t-176.5 -20l-156 27q-41 7 -76 -21t-43 -71l-241 41q24 134 145 221.5t256 63.5l154 -27q42 -7 77.5 20.5t43.5 71.5z" />
    <glyph glyph-name="endash" unicode="&#x2013;" horiz-adv-x="2273" 
d="M655 831h963q40 0 135.5 1.5t110.5 1.5v-332q-15 0 -110.5 1t-135.5 1h-963q-40 0 -135 -1t-110 -1v332q15 0 110 -1.5t135 -1.5z" />
    <glyph glyph-name="emdash" unicode="&#x2014;" horiz-adv-x="2764" 
d="M655 831h1454q40 0 135.5 1.5t110.5 1.5v-332q-15 0 -110.5 1t-135.5 1h-1454q-40 0 -135 -1t-110 -1v332q15 0 110 -1.5t135 -1.5z" />
    <glyph glyph-name="quoteleft" unicode="&#x2018;" horiz-adv-x="520" 
d="M418 1204v-307h-316v324q0 100 63.5 207.5t151.5 168.5l107 -124q-60 -47 -98.5 -112t-38.5 -140v-17h131z" />
    <glyph glyph-name="quoteright" unicode="&#x2019;" horiz-adv-x="520" 
d="M102 1270v307h316v-324q0 -100 -63.5 -207.5t-151.5 -168.5l-107 124q60 47 98.5 112t38.5 140v17h-131z" />
    <glyph glyph-name="quotesinglbase" unicode="&#x201a;" horiz-adv-x="520" 
d="M102 0v307h316v-323q0 -100 -63.5 -208.5t-151.5 -168.5l-107 125q60 47 98.5 112t38.5 140v16h-131z" />
    <glyph glyph-name="quotedblleft" unicode="&#x201c;" horiz-adv-x="1372" 
d="M664 1532l-230 -666h-352l352 666h230zM1294 1532l-229 -666h-352l352 666h229z" />
    <glyph glyph-name="quotedblright" unicode="&#x201d;" horiz-adv-x="1372" 
d="M307 866l-229 666h229l352 -666h-352zM938 866l-229 666h229l352 -666h-352z" />
    <glyph glyph-name="quotedblbase" unicode="&#x201e;" horiz-adv-x="1372" 
d="M307 -362l-229 665h229l352 -665h-352zM938 -362l-229 665h229l352 -665h-352z" />
    <glyph glyph-name="dagger" unicode="&#x2020;" horiz-adv-x="1417" 
d="M1040 815h-135v-774q0 -40 1 -135.5t1 -110.5h-397q0 15 1 110.5t1 135.5v774h-135q-40 0 -135.5 -1t-110.5 -1v340q15 0 110.5 -1t135.5 -1h135v229q0 40 -1 135.5t-1 110.5h397q0 -15 -1 -110.5t-1 -135.5v-229h135q40 0 135.5 1t110.5 1v-340q-15 0 -110.5 1t-135.5 1
z" />
    <glyph glyph-name="daggerdbl" unicode="&#x2021;" horiz-adv-x="1417" 
d="M1040 180h-135v-139q0 -40 1 -135.5t1 -110.5h-397q0 15 1 110.5t1 135.5v139h-135q-40 0 -135.5 -1t-110.5 -1v340q15 0 110.5 -1t135.5 -1h135v340h-135q-40 0 -135.5 -1t-110.5 -1v340q15 0 110.5 -1t135.5 -1h135v188q0 40 -1 135.5t-1 110.5h397q0 -15 -1 -110.5
t-1 -135.5v-188h135q40 0 135.5 1t110.5 1v-340q-15 0 -110.5 1t-135.5 1h-135v-340h135q40 0 135.5 1t110.5 1v-340q-15 0 -110.5 1t-135.5 1z" />
    <glyph glyph-name="bullet" unicode="&#x2022;" horiz-adv-x="1462" 
d="M731 1219q186 0 318.5 -132.5t132.5 -318.5t-132.5 -318.5t-318.5 -132.5t-318 132.5t-132 318.5t132 318.5t318 132.5z" />
    <glyph glyph-name="ellipsis" unicode="&#x2026;" horiz-adv-x="1851" 
d="M332 410q95 0 162 -66t67 -160t-67 -159.5t-162 -65.5t-162.5 65.5t-67.5 159.5t67.5 160t162.5 66zM926 410q95 0 162 -66t67 -160t-67 -159.5t-162 -65.5t-162.5 65.5t-67.5 159.5t67.5 160t162.5 66zM1520 410q95 0 162 -66t67 -160t-67 -159.5t-162 -65.5
t-162.5 65.5t-67.5 159.5t67.5 160t162.5 66z" />
    <glyph glyph-name="perthousand" unicode="&#x2030;" horiz-adv-x="2293" 
d="M1231 1479l174 -144q-64 -69 -160 -186l-846 -1006q-132 -161 -155 -188l-174 143q49 53 159 187l846 1005q64 74 156 189zM1075 594q160 0 259.5 -94.5t99.5 -233.5t-99 -233t-260 -94q-160 0 -259 94t-99 233t99 233.5t259 94.5zM1075 397q-52 0 -88.5 -38.5
t-36.5 -92.5t36.5 -92.5t88.5 -38.5t88.5 38.5t36.5 92.5t-36.5 92.5t-88.5 38.5zM399 1495q160 0 259.5 -94.5t99.5 -233.5t-99 -233t-260 -94q-160 0 -259 94t-99 233t99 233.5t259 94.5zM399 1298q-52 0 -88.5 -38.5t-36.5 -92.5t36.5 -92.5t88.5 -38.5t88.5 38.5
t36.5 92.5t-36.5 92.5t-88.5 38.5zM1894 594q160 0 259.5 -94.5t99.5 -233.5t-99 -233t-260 -94q-160 0 -259 94t-99 233t99 233.5t259 94.5zM1894 397q-52 0 -88.5 -38.5t-36.5 -92.5t36.5 -92.5t88.5 -38.5t88.5 38.5t36.5 92.5t-36.5 92.5t-88.5 38.5z" />
    <glyph glyph-name="guilsinglleft" unicode="&#x2039;" horiz-adv-x="681" 
d="M264 250l-186 262l186 262q15 21 67.5 97t80.5 114l188 -137l-137 -195l-98 -141l98 -141l137 -195l-188 -137q-28 38 -80.5 114t-67.5 97z" />
    <glyph glyph-name="guilsinglright" unicode="&#x203a;" horiz-adv-x="681" 
d="M604 512l-186 -262q-15 -21 -67.5 -97t-80.5 -114l-188 137l137 195l98 141l-98 141l-137 195l188 137q28 -38 80.5 -114t67.5 -97z" />
    <glyph glyph-name="zerosuperior" unicode="&#x2070;" horiz-adv-x="786" 
d="M393 1597q160 0 265.5 -109.5t105.5 -268.5q0 -157 -106 -268t-265 -111q-160 0 -265 110.5t-105 268.5q0 159 104.5 268.5t265.5 109.5zM393 1417q-67 0 -111 -56.5t-44 -141.5q0 -84 44 -141.5t111 -57.5t111.5 57.5t44.5 141.5q0 85 -44.5 141.5t-111.5 56.5z" />
    <glyph glyph-name="foursuperior" unicode="&#x2074;" horiz-adv-x="786" 
d="M618 1577v-408h99v-168h-99q0 -9 1.5 -63t1.5 -78h-209q0 26 1 79t1 62h-361v142l297 434h268zM416 1389q-13 -25 -39 -64l-76 -111q-19 -27 -41 -49q40 4 66 4h88v146q0 51 2 74z" />
    <glyph glyph-name="fivesuperior" unicode="&#x2075;" horiz-adv-x="786" 
d="M143 1186l72 391h268q23 0 68 1t67 1v-176q-20 0 -65.5 1t-69.5 1h-123l-14 -57q21 6 53 6q117 0 197 -71.5t80 -180.5q0 -120 -88.5 -191t-235.5 -71q-84 0 -151.5 24t-104.5 54l33 186q100 -84 207 -84q54 0 86.5 26.5t32.5 65.5q0 45 -44 76t-108 31q-77 0 -160 -33z
" />
    <glyph glyph-name="sixsuperior" unicode="&#x2076;" horiz-adv-x="786" 
d="M602 1577q-55 -59 -90 -100l-78 -88q-4 -4 -11.5 -12t-14 -14.5t-11.5 -10.5q24 6 60 6q113 0 185.5 -71t72.5 -175q0 -115 -84 -193.5t-242 -78.5q-154 0 -237.5 76.5t-83.5 187.5q0 123 133 287l82 102q9 11 30.5 39t34.5 45h254zM385 1204q-45 0 -77 -29t-32 -73
q0 -42 32 -70t77 -28q46 0 78.5 28t32.5 70q0 44 -32.5 73t-78.5 29z" />
    <glyph glyph-name="sevensuperior" unicode="&#x2077;" horiz-adv-x="792" 
d="M754 1577v-39l-320 -528q-28 -46 -88 -150h-252q86 124 111 168l219 354q7 14 18 25q-12 -2 -32 -2h-148q-23 0 -68 -1t-67 -1v176q26 0 77 -1t58 -1h492z" />
    <glyph glyph-name="eightsuperior" unicode="&#x2078;" horiz-adv-x="786" 
d="M690 1067q0 -98 -76 -162.5t-221 -64.5t-221 64.5t-76 162.5q0 58 34.5 105t90.5 69q-44 18 -69 60t-25 92t26 95t76 73q64 36 164 36t164 -36q50 -28 76 -73t26 -95t-25 -92t-69 -60q56 -22 90.5 -69t34.5 -105zM393 1155q-35 0 -59.5 -21.5t-24.5 -52.5t24 -54t60 -23
t60 23t24 54t-24.5 52.5t-59.5 21.5zM393 1323q29 0 49.5 19.5t20.5 48.5q0 25 -20.5 42t-49.5 17t-49 -17t-20 -42q0 -29 20 -48.5t49 -19.5z" />
    <glyph glyph-name="ninesuperior" unicode="&#x2079;" horiz-adv-x="788" 
d="M393 1597q145 0 232.5 -76.5t87.5 -191.5q0 -46 -20 -99t-46 -87l-133 -180q-10 -15 -78 -103h-248q17 24 86 98l84 93q6 7 17 18.5t16 17.5q-21 -6 -53 -6q-127 0 -202 76t-75 172q0 114 93.5 191t238.5 77zM393 1442q-47 0 -80.5 -30.5t-33.5 -72.5q0 -41 33.5 -70.5
t80.5 -29.5t81 29.5t34 70.5t-34 72t-81 31z" />
    <glyph glyph-name="zeroinferior" unicode="&#x2080;" horiz-adv-x="786" 
d="M393 512q159 0 265 -110t106 -269q0 -157 -106 -268t-265 -111q-160 0 -265 110.5t-105 268.5q0 159 104.5 269t265.5 110zM393 332q-67 0 -111 -57t-44 -142q0 -84 44 -141.5t111 -57.5t111.5 57.5t44.5 141.5q0 85 -44.5 142t-111.5 57z" />
    <glyph glyph-name="oneinferior" unicode="&#x2081;" horiz-adv-x="786" 
d="M516 492v-472q0 -40 1 -135t1 -110h-217q0 15 1 110t1 135v304h-100v168h313z" />
    <glyph glyph-name="twoinferior" unicode="&#x2082;" horiz-adv-x="796" 
d="M63 -225q227 224 310 319q27 33 41 51.5t29.5 50.5t15.5 58q0 37 -18.5 60.5t-55.5 23.5q-43 0 -64.5 -30.5t-21.5 -82.5h-213q0 125 80 206t219 81q131 0 213 -74t82 -182q0 -62 -20.5 -107.5t-71.5 -91.5l-88 -82q-5 -5 -16.5 -14t-16.5 -14q24 4 51 4h172v-176h-627z
" />
    <glyph glyph-name="threeinferior" unicode="&#x2083;" horiz-adv-x="786" 
d="M393 512q114 0 184 -60t70 -151q0 -94 -69 -131q52 -18 84 -64.5t32 -111.5q0 -110 -83 -175t-212 -65q-133 0 -219.5 79t-91.5 192h207q18 -95 100 -95q45 0 67.5 23t22.5 59q0 34 -25 56t-77 22h-27v135h15q80 0 80 64q0 25 -17.5 42t-46.5 17q-33 0 -53.5 -24.5
t-20.5 -57.5h-192q0 101 76 173.5t196 72.5z" />
    <glyph glyph-name="fourinferior" unicode="&#x2084;" horiz-adv-x="786" 
d="M618 492v-408h99v-168h-99q0 -9 1.5 -63t1.5 -78h-209q0 27 1 80t1 61h-361v141l297 435h268zM414 84v145q0 49 2 72q-4 -6 -9.5 -15t-15 -22.5t-16.5 -23.5l-74 -111q-19 -27 -41 -49q40 4 66 4h88z" />
    <glyph glyph-name="fiveinferior" unicode="&#x2085;" horiz-adv-x="786" 
d="M143 100l72 392h268q23 0 68 1t67 1v-177q-20 0 -65.5 1t-69.5 1h-123l-14 -57q21 6 53 6q117 0 197 -71.5t80 -180.5q0 -120 -88.5 -191t-235.5 -71q-84 0 -151.5 24t-104.5 54l33 186q100 -84 207 -84q54 0 86.5 27t32.5 66q0 44 -44 75t-108 31q-77 0 -160 -33z" />
    <glyph glyph-name="sixinferior" unicode="&#x2086;" horiz-adv-x="786" 
d="M602 492q-43 -46 -90 -101l-78 -88q-4 -4 -11.5 -12t-14 -14.5t-11.5 -10.5q24 6 60 6q113 0 185.5 -70.5t72.5 -174.5q0 -116 -84 -194.5t-242 -78.5q-154 0 -237.5 76.5t-83.5 187.5q0 123 133 287l82 103q9 11 30.5 39t34.5 45h254zM385 119q-45 0 -77 -29.5
t-32 -73.5q0 -42 32 -70t77 -28q46 0 78.5 28t32.5 70q0 44 -32.5 73.5t-78.5 29.5z" />
    <glyph glyph-name="seveninferior" unicode="&#x2087;" horiz-adv-x="792" 
d="M754 492v-39l-320 -529q-35 -57 -88 -149h-252q86 124 111 168l219 354q7 14 18 25q-18 -3 -32 -3h-148q-23 0 -68 -1t-67 -1v177q26 0 77 -1t58 -1h492z" />
    <glyph glyph-name="eightinferior" unicode="&#x2088;" horiz-adv-x="786" 
d="M690 -18q0 -98 -76 -163t-221 -65t-221 65t-76 163q0 58 34.5 105t90.5 69q-44 19 -69 60t-25 91t26 95t76 73q66 37 164 37t164 -37q50 -28 76 -73t26 -95t-25 -91t-69 -60q56 -22 90.5 -69t34.5 -105zM393 70q-35 0 -59.5 -21.5t-24.5 -52.5q0 -32 24 -55t60 -23t60 23
t24 55q0 31 -24.5 52.5t-59.5 21.5zM393 238q30 0 50 19t20 48q0 25 -20.5 42.5t-49.5 17.5t-49 -17.5t-20 -42.5q0 -29 20 -48t49 -19z" />
    <glyph glyph-name="nineinferior" unicode="&#x2089;" horiz-adv-x="788" 
d="M393 512q145 0 232.5 -76.5t87.5 -191.5q0 -46 -20 -99.5t-46 -87.5l-133 -180q-5 -8 -78 -102h-248q17 24 86 98l84 92q6 7 17 19t16 18q-21 -6 -53 -6q-127 0 -202 76t-75 172q0 114 93.5 191t238.5 77zM393 356q-47 0 -80.5 -30.5t-33.5 -71.5t33.5 -70.5t80.5 -29.5
t81 29.5t34 70.5t-34 71.5t-81 30.5z" />
    <glyph glyph-name="lira" unicode="&#x20a4;" horiz-adv-x="1370" 
d="M1251 1077l-364 -73q-11 68 -63.5 111.5t-145.5 43.5q-65 0 -119.5 -39t-54.5 -114q0 -33 8 -64h201q40 0 135 1t110 1v-188q-15 0 -110 1t-135 1h-129q23 -62 34 -111h95q40 0 135 1t110 1v-188q-15 0 -110 1t-135 1h-107q-30 -82 -110 -121l2 -6q45 20 108 20
q60 0 179 -36.5t169 -36.5q141 0 271 112l102 -303q-51 -35 -95 -59.5t-127 -49t-171 -24.5q-69 0 -141 23.5t-141 47t-130 23.5q-101 0 -177.5 -20.5t-184.5 -73.5l-117 322q80 25 130.5 73.5t70.5 108.5q-42 0 -119 -1t-88 -1v188q11 0 87 -1t118 -1q-7 28 -39 111
q-68 -2 -166 -2v188q5 0 37.5 -1t56.5 -1q-12 50 -12 105q0 89 32 162t86 121.5t127.5 82t154 48t167.5 14.5q142 0 246 -29.5t167.5 -86t98.5 -124.5t53 -158z" />
    <glyph glyph-name="Euro" unicode="&#x20ac;" horiz-adv-x="1597" 
d="M1331 463l254 -264q-109 -114 -270.5 -177t-343.5 -63q-298 0 -499 156.5t-263 408.5q-61 -2 -148 -2v176q6 0 50 -1t73 -1v29q0 57 4 84h-127v176q9 0 67.5 -1t96.5 -1q77 223 272.5 357.5t469.5 134.5q327 0 538 -191l-243 -258q-134 113 -295 113q-97 0 -180.5 -40.5
t-135.5 -115.5h326q40 0 135.5 1t110.5 1l-170 -176q-15 0 -110.5 1t-135.5 1h-223q-6 -40 -6 -86v-29h127q40 0 135 1t110 1l-170 -176q-96 0 -159 2q49 -103 143.5 -162t206.5 -59q116 0 195.5 40t164.5 120z" />
    <glyph glyph-name="trademark" unicode="&#x2122;" horiz-adv-x="1615" 
d="M1065 700h-23l-163 263q-15 25 -31 61q-2 -7 -8 -32.5t-9 -35.5l-45 -133q-5 -15 -10 -33t-11 -39.5t-9 -33.5h-230q19 50 45 131l195 616h20l226 -352q17 -28 41 -84q21 56 39 84l225 352h20l205 -614l45 -133h-235q-17 50 -35 108l-43 127q-3 11 -7.5 38.5t-6.5 33.5
q-19 -52 -35 -74zM571 1436v-191q-17 0 -49.5 1t-48.5 1h-57v-399q0 -21 1 -69.5t1 -61.5h-234q0 13 1 61t1 70v399h-59q-17 0 -49 -1t-49 -1v191q2 0 43.5 -1t54.5 -1h346q11 0 53 1t45 1z" />
    <glyph glyph-name="Ohm" unicode="&#x2126;" horiz-adv-x="1843" 
d="M922 1110q-164 0 -281 -115t-117 -278q0 -126 67.5 -230.5t176.5 -150.5v-336h-451q-40 0 -135 -1t-110 -1v340q11 0 75.5 -1t106.5 -1q89 0 119 -10l2 8q-102 55 -173 175.5t-71 260.5q0 148 60 279t164 224.5t251 147.5t316 54q225 0 406 -92t282.5 -253.5
t101.5 -359.5q0 -140 -71 -260.5t-173 -175.5l2 -8q30 10 119 10q42 0 107 1t76 1v-340q-15 0 -110.5 1t-135.5 1h-451v336q109 46 176.5 150.5t67.5 230.5q0 163 -116.5 278t-280.5 115z" />
    <glyph glyph-name="uni2206" unicode="&#x2206;" 
d="M772 1483h41l614 -1260q72 -147 113 -223h-1503q9 19 54 107t59 116zM649 291h285q57 0 72 -10l4 8q-14 7 -33 51l-129 276q-53 120 -53 154h-9q0 -39 -51 -154l-127 -276q-6 -15 -14 -27t-13 -17.5t-8 -6.5l5 -8q10 10 71 10z" />
    <glyph glyph-name="minus" unicode="&#x2212;" horiz-adv-x="1466" 
d="M1303 895v-311q-15 0 -110.5 1t-135.5 1h-647q-40 0 -135.5 -1t-110.5 -1v311q15 0 110.5 -1t135.5 -1h647q40 0 135.5 1t110.5 1z" />
    <glyph glyph-name="infinity" unicode="&#x221e;" horiz-adv-x="1888" 
d="M45 696q0 119 62.5 220.5t170 161t234.5 59.5q126 0 219.5 -47.5t173.5 -133.5q90 106 195 164t252 58q131 0 243 -65t178 -176t66 -241t-66 -241t-178 -175.5t-243 -64.5q-146 0 -252 58t-193 161q-80 -85 -174.5 -131.5t-220.5 -46.5q-127 0 -234.5 59t-170 160.5
t-62.5 220.5zM1352 891q-70 0 -133 -51.5t-134 -145.5q68 -91 131.5 -141.5t135.5 -50.5q65 0 112 56.5t47 137.5t-47 138t-112 57zM373 696q0 -64 40 -108.5t99 -44.5q56 0 108 39.5t109 113.5q-58 74 -110 114t-107 40q-58 0 -98.5 -44.5t-40.5 -109.5z" />
    <glyph glyph-name="uni261A" unicode="&#x261a;" horiz-adv-x="2314" 
d="M1776 1010l313 22l78 -143l-88 -58l129 -204q-32 -42 -47 -56l82 -333q0 -14 -13 -11l-303 31l-78 150l-61 -9l-84 168l-33 -2q-171 -157 -311 -157q-41 0 -143.5 18t-159.5 18q-60 0 -189.5 -27.5t-193.5 -27.5q-112 0 -176 57l-19 17q-11 11 0 18l7 3q7 4 11.5 8.5
t8.5 11.5q25 52 80.5 70t146.5 22q61 3 201 -2q54 38 120.5 68t100.5 30q12 0 12 6t-14 9q-92 19 -195 -80q-180 0 -346 -31l-30 51q-14 23 6 43l76 86l69 2q15 0 27 -8q28 -24 59 -72l-31 -51q-6 -10 2 -11q5 1 11 5l39 33q59 -26 71 -29q10 -3 11.5 1.5t-4.5 10.5l-80 68
q1 1 -0.5 5t-0.5 5t9 0l88 -8q11 -21 43 -47q17 -15 17 -7l-5 13q-33 53 -59 123q-15 39 -15 -4q0 -30 7 -49q3 -8 0.5 -9t-9.5 1h-2q-91 17 -178 57q-54 -12 -130.5 -21.5t-117.5 -9.5q-21 0 -61 5t-62 5h-86q-61 0 -107 27.5t-71 67.5q-9 15 -14 20q-3 2 -12.5 4t-12.5 4
q-5 5 -1 9t12 6q34 6 147 10q31 0 12 -19l-14 -14q-9 -9 1 -9q6 0 15 3q34 11 60 41q131 12 303 41q86 -4 129 -4q60 0 145.5 21.5t120.5 21.5q65 0 156.5 -20t210 -42.5t241.5 -25.5l29 37l143 16zM1819 932l-140 14q132 -255 123 -514l125 -8q10 287 -108 508zM1116 420
q27 0 51 -6q13 -4 13 -15q0 -34 -45 -45q-6 -3 -11 2q-2 4 -5.5 23t-6.5 27q0 1 -1 3q-3 4 -2.5 7.5t7.5 3.5zM1018 418l59 2q13 0 17 -27q5 -24 -9 -46.5t-38 -22.5q-11 0 -11 10q0 27 -22 69q-9 15 4 15zM993 403q22 -54 8 -102q-6 -12 -14 -10q-30 5 -101 32t-104 56
q-4 6 -3 7t12 3q131 12 186 25q10 3 16 -11zM616 530q-20 0 -20 -6q0 -4 12 -4q35 0 64.5 -19.5t29.5 -45.5q0 -23 -34 -39q-2 -1 -3.5 -4.5t0.5 -6t11 0.5q25 8 38 26t13 37q0 61 -111 61z" />
    <glyph glyph-name="uni261B" unicode="&#x261b;" horiz-adv-x="2314" 
d="M225 1032l314 -22l6 -31l143 -16l29 -37q123 3 241.5 25.5t210 42.5t156.5 20q35 0 120.5 -21.5t145.5 -21.5q43 0 129 4q172 -29 303 -41q26 -30 60 -41q21 -8 20 0q0 2 -4 6l-14 14q-19 19 12 19q114 -4 148 -10q8 -2 11.5 -6t-1.5 -9q-3 -2 -12.5 -4t-12.5 -4
q-5 -5 -14 -20q-25 -40 -71 -67.5t-107 -27.5h-86q-22 0 -62 -5t-61 -5q-41 0 -117.5 9.5t-130.5 21.5q-87 -40 -178 -57q-9 -2 -10.5 -1.5t0.5 9.5q6 16 6 49q0 43 -15 4q-26 -70 -59 -123q-9 -16 -2 -15q5 1 14 9q33 26 43 47l88 8q8 1 9 0t0 -5t0 -5l-80 -68
q-7 -6 -5.5 -10.5t11.5 -1.5q14 4 72 29l38 -33q13 -11 15 -2q1 3 -2 8l-31 51q31 48 59 72q12 8 27 8l70 -2l75 -86q21 -21 7 -43l-31 -51q-166 31 -346 31q-103 99 -195 80q-14 -3 -14 -9t12 -6q34 0 100.5 -30t120.5 -68q140 5 201 2q91 -4 146.5 -22t80.5 -70
q4 -7 8.5 -11.5t11.5 -8.5l7 -3q11 -7 0 -18l-18 -17q-64 -57 -177 -57q-64 0 -193.5 27.5t-189.5 27.5q-57 0 -159.5 -18t-143.5 -18q-140 0 -311 157l-33 2l-84 -168l-61 9l-78 -150l-303 -31q-12 -2 -12 11l82 333q-18 17 -48 56l130 204l-89 58zM635 946l-139 -14
q-119 -223 -109 -508l125 8q-9 259 123 514zM1198 420q10 0 5 -11q-1 -2 -1 -3q-3 -8 -6.5 -27t-5.5 -23q-5 -5 -10 -2q-45 11 -45 45q0 11 12 15q24 6 51 6zM1237 420l59 -2q13 0 4 -15q-22 -42 -22 -69q0 -7 -2 -8.5t-8 -1.5q-24 0 -38 22.5t-9 46.5q0 2 0.5 5t1 4.5t1 4
t1 4.5t1.5 3.5t2.5 3t3.5 2t5 0.5zM1321 403q6 14 16 11q54 -13 187 -25q12 -2 12.5 -3.5t-4.5 -6.5q-33 -29 -104 -56t-101 -32q-8 -2 -14 10q-14 48 8 102zM1698 530q-111 0 -111 -61q0 -19 13 -37t38 -26q12 -4 13 2t-4 8q-35 17 -35 39q0 26 29.5 45.5t64.5 19.5
q12 0 12 4q0 6 -20 6z" />
    <glyph glyph-name="uni261C" unicode="&#x261c;" horiz-adv-x="2314" 
d="M1102 1014q91 0 313 -63t295 -77l19 68h69q2 4 2 14t1.5 17.5t4.5 7.5q65 8 156 8q119 0 152 -6q8 -2 8 -8q0 -8 -13 -8q-47 0 -235 -43q113 -232 113 -482q0 -72 -7 -118q118 -25 242 -35q10 0 10 -8q0 -7 -8 -9q-32 -5 -117.5 -10.5t-119.5 -5.5q-35 48 -78 129l-86 10
l-84 137q-46 -14 -110.5 -49t-122 -58.5t-113.5 -23.5q-30 0 -76 8t-60 9q0 -2 1.5 -5.5t1.5 -4.5q0 -18 -11.5 -25.5t-36.5 -7.5q-22 0 -36 4q1 -4 4.5 -14.5t3.5 -14.5q0 -8 -6 -8q-26 0 -93 25q2 -10 2 -29q0 -6 -6 -6q-69 1 -147.5 23.5t-104.5 45.5q-91 2 -172.5 18.5
t-117.5 45.5q-7 7 -4 18q22 52 56.5 79.5t88.5 43.5q-27 20 -27 58q0 39 62 110q-43 0 -85 3.5t-98.5 10.5t-70.5 9q-15 1 -41.5 2.5t-41.5 2.5t-35 3t-36 6q-112 24 -141 104l-10 4q-11 4 -11 9q0 8 9 8q55 8 184 8q9 0 35.5 5t36.5 5h61q23 5 95 12t126 7q21 0 69.5 -2
t88.5 -2q74 0 149 22q86 23 103 23zM1827 424l82 -6q12 68 12 141q0 165 -74 346q-49 6 -92 0q80 -135 80 -352q0 -43 -8 -129zM827 823q77 -38 172 -63q4 18 -6 51q-1 2 1 3.5t5 2t5 -1.5q11 -12 21 -24t20.5 -29.5l15 -25t17.5 -30.5t14 -26q64 27 129 27q20 0 20 -9
q0 -4 -4 -6t-17.5 -6t-19.5 -6q-41 -13 -100.5 -39t-89.5 -43q-9 0 -36 -0.5t-35.5 -0.5t-31.5 -0.5t-32 -1t-28 -1.5t-29 -1.5t-25.5 -2t-26.5 -3t-24 -3.5t-25 -4q-111 -23 -164 -95q17 -17 63.5 -28t92.5 -11q71 0 71 23q0 13 -14 27t-35 22q-5 2 -9.5 6.5t-4.5 7.5
q0 5 16 5q26 0 48 -19.5t22 -44.5q0 -18 -33 -43q14 -2 43 -2q39 0 79 7t96 21t79 19q32 -4 88 -14t103 -16.5t90 -6.5q58 0 118.5 18t103.5 40t97.5 43.5t99.5 27.5q15 54 15 127t-17 148q-158 12 -401 76q-224 61 -281 61q-38 0 -113.5 -19.5t-107.5 -19.5q-8 0 -75 3
t-95 3q-46 0 -130 -7t-126 -7q-6 0 -27 -1t-28 -1q-10 -1 -16.5 -2.5t-8.5 -2.5t-5.5 -5t-4.5 -5q-12 -21 -31 -30q-8 -4 -8 4q0 5 5 14.5t5 14.5q0 4 -4 4q-20 -1 -58.5 -3.5t-59.5 -3.5q55 -86 208 -86q11 0 41 5q170 -23 269 -23q71 0 114 12zM1081 416q0 -14 19 -25
t45 -12q12 0 12 10q0 37 -47 37q-29 0 -29 -10zM936 381q58 -14 119 -14q10 0 10 16q0 20 -19 30.5t-45 10.5q-27 0 -48 -14t-21 -25q0 -4 4 -4zM999 735q-46 4 -73 4q-7 0 -4 -8q18 -25 57 -53q41 -33 59 -33q13 0 15 19q-3 21 -31 59q-8 12 -23 12zM893 625l78 6q12 0 6 6
q-20 27 -51 27t-37 -29q0 -10 4 -10zM870 662l21 22q-5 28 -29 56t-51 28h-10.5h-11h-9.5t-10 -1t-8 -2t-8 -2.5t-6.5 -3.5t-6.5 -5q-53 -57 -53 -88q0 -24 23 -54q23 8 65 11q12 1 40 1t36 1q8 0 8 12q-12 12 -30.5 20.5t-30.5 8.5q-11 0 -11 6q0 10 25 10q29 0 57 -20z
" />
    <glyph glyph-name="uni261D" unicode="&#x261d;" horiz-adv-x="1064" 
d="M889 721q0 -91 -63 -313.5t-76 -294.5l67 -19v-69q4 -2 14 -2.5t17.5 -2t7.5 -4.5q8 -65 8 -155q0 -119 -6 -152q-2 -8 -8 -8q-8 0 -8 12q0 48 -43 236q-232 -113 -482 -113q-79 0 -118 6q-25 -119 -35 -241q0 -11 -8 -11q-7 0 -9 9q-5 32 -10.5 118t-5.5 119
q48 35 129 78l10 86l138 84q-12 39 -36.5 87.5t-44.5 84.5t-35.5 83t-15.5 91q0 30 8 75t9 60q-2 0 -5.5 -1t-4.5 -1q-18 0 -25.5 11t-7.5 36q0 23 4 37q-4 -1 -14.5 -4.5t-14.5 -3.5q-8 0 -8 6q0 25 25 92q-10 -2 -29 -2q-6 0 -6 6q1 69 23.5 147.5t45.5 104.5
q2 91 18.5 173t45.5 118q7 7 18 4q52 -22 79.5 -56.5t43.5 -88.5q19 26 58 26q41 0 110 -61q0 43 3.5 85t10.5 98.5t9 70.5q1 15 2.5 41.5t2.5 41.5t3 35t6 36q24 112 105 141l3 10q4 10 9 10q8 0 8 -8q8 -55 8 -184q0 -9 5 -35.5t5 -36.5v-61q5 -23 12 -95.5t7 -126.5
q0 -21 -2 -69t-2 -88q0 -75 22 -150q23 -86 23 -102zM299 -4l-6 -82q67 -12 141 -12q167 0 346 73q6 49 0 93q-135 -80 -352 -80q-43 0 -129 8zM698 995q-38 -77 -63 -172q18 -4 51 6q2 1 3.5 -1t2 -4.5t-1.5 -4.5q-12 -11 -24 -21t-29.5 -20.5l-25 -15t-30.5 -17.5t-26 -14
q27 -65 27 -129q0 -20 -9 -20q-4 0 -6 4t-6 17.5t-6 19.5q-13 41 -39 100.5t-43 89.5q0 9 -0.5 36t-0.5 35.5t-0.5 31.5t-1 32t-1.5 28t-1.5 29t-2 25.5t-3 26.5t-3.5 24t-4 25q-23 111 -95 164q-17 -17 -27.5 -63.5t-10.5 -92.5q0 -72 22 -72q13 0 27 14.5t22 35.5
q1 4 6.5 9t8.5 5q4 0 4 -16q0 -26 -19.5 -48t-44.5 -22q-18 0 -43 33q-2 -14 -2 -43q0 -39 7 -79t21 -96t19 -79q-4 -32 -14 -88t-16.5 -103t-6.5 -90q0 -58 18 -118.5t40 -103.5t43.5 -98t27.5 -100q50 -14 127 -14t148 16q12 160 76 402q61 224 61 280q0 38 -19.5 114
t-19.5 108q0 8 3 74.5t3 94.5q0 46 -7 130t-7 126q0 6 -1 27.5t-1 28.5q-1 8 -1.5 13.5t-2 9t-2.5 5t-4 4t-4 3.5q-23 14 -31 30q-4 9 4 9q5 0 14.5 -5.5t14.5 -5.5q4 0 4 4q-1 20 -3 59.5t-3 59.5q-86 -55 -86 -209q0 -17 4 -41q-23 -170 -23 -268q0 -72 12 -115zM291 741
q-14 0 -25 -18.5t-12 -44.5q0 -12 10 -12q37 0 37 47q0 28 -10 28zM256 887q-14 -58 -14 -119q0 -10 16 -10q20 0 30.5 18.5t10.5 44.5q0 27 -14 48.5t-25 21.5q-4 0 -4 -4zM610 823q4 46 4 74q0 7 -8 4q-25 -18 -53 -57q-33 -41 -33 -60q0 -12 19 -14q21 3 59 31
q12 8 12 22zM500 930l6 -78q0 -4 1 -5.5t2.5 -1.5t2.5 1q27 20 27 51t-29 37q-10 0 -10 -4zM537 952l22 -20q28 5 56 29t28 51v9.5v9.5v8.5t-0.5 8.5t-1 8t-1.5 7.5t-2.5 6t-3.5 6.5t-5 5q-58 54 -88 54q-24 0 -54 -23q8 -23 11 -65q1 -12 1 -40t1 -36q0 -8 12 -8
q12 12 20.5 30.5t8.5 30.5q0 10 6 10q10 0 10 -24q0 -30 -20 -58z" />
    <glyph glyph-name="uni261E" unicode="&#x261e;" horiz-adv-x="2314" 
d="M1212 1014q17 0 103 -23q75 -22 149 -22q40 0 88.5 2t69.5 2q54 0 126 -7t95 -12q10 -1 20.5 -1t22.5 0.5t19 0.5q10 0 36 -5t35 -5q130 0 185 -8q8 0 8 -8q0 -5 -11 -9l-10 -4q-29 -80 -141 -104q-16 -4 -36 -6t-35 -3t-41.5 -2.5t-41.5 -2.5q-14 -2 -70.5 -9
t-98.5 -10.5t-85 -3.5q62 -71 62 -110q0 -38 -27 -58q54 -16 89 -43.5t57 -79.5q3 -11 -4 -18q-36 -29 -118 -45.5t-173 -18.5q-26 -23 -104.5 -45.5t-147.5 -23.5q-6 0 -6 6q0 19 2 29q-67 -25 -92 -25q-7 0 -7 8q0 4 4 14.5t5 14.5q-14 -4 -37 -4q-25 0 -36 7.5t-11 25.5
q0 1 1 4.5t1 5.5q-15 -1 -60 -9t-75 -8q-56 0 -113.5 23.5t-122.5 58.5t-111 49l-83 -137l-86 -10q-43 -81 -78 -129q-34 0 -120 5.5t-118 10.5q-8 2 -8 9q0 8 10 8q124 10 242 35q-6 39 -6 118q0 252 112 482q-188 43 -235 43q-12 0 -12 8q0 6 8 8q33 6 151 6q91 0 156 -8
q3 0 4.5 -7.5t1.5 -17.5t2 -14h70l18 -68q73 14 295 77t313 63zM406 418l81 6q-8 86 -8 129q0 217 80 352q-43 6 -92 0q-74 -181 -74 -346q0 -68 13 -141zM1487 823q44 -12 115 -12q98 0 268 23q30 -5 41 -5q154 0 209 86q-20 1 -59.5 3.5t-59.5 3.5q-4 0 -4 -4
q0 -5 5 -14.5t5 -14.5q0 -8 -8 -4q-19 9 -31 30q-1 1 -3.5 4t-4 4t-5 3t-9 2.5t-13.5 1.5q-7 0 -28 1t-27 1q-43 0 -127 7t-129 7q-28 0 -95 -3t-75 -3q-32 0 -107.5 19.5t-113.5 19.5q-57 0 -281 -61q-243 -64 -401 -76q-17 -75 -17 -148t15 -127q45 -6 100 -27.5t98 -43.5
t103.5 -40t118.5 -18q43 0 89.5 6.5t102.5 16.5t88 14q23 -5 79 -19t96 -21t79 -7q29 0 43 2q-33 25 -33 43q0 25 22 44.5t48 19.5q16 0 16 -5q0 -3 -4.5 -7.5t-9.5 -6.5q-21 -8 -35 -22t-14 -27q0 -23 72 -23q46 0 92 11t63 28q-53 72 -164 95q-12 2 -25 4t-23.5 3.5
t-26.5 3t-25.5 2t-29 1.5t-28 1.5t-31.5 1t-31.5 0.5t-35.5 0.5t-36 0.5q-29 17 -89.5 43t-101.5 39q-6 2 -13 4t-11.5 3.5t-8.5 3t-6 3.5t-2 4q0 9 21 9q64 0 129 -27q1 3 14 26t17.5 30.5l15 25t20.5 29.5t21 24q2 2 4.5 1.5t4.5 -2t1 -3.5q-10 -33 -6 -51q95 25 172 63z
M1233 416q0 10 -29 10q-47 0 -47 -37q0 -10 12 -10q26 1 45 12t19 25zM1378 381q4 0 4 4q0 11 -21 25t-48 14q-26 0 -45 -10.5t-19 -30.5q0 -16 11 -16q60 0 118 14zM1315 735q-15 0 -23 -12q-27 -36 -30 -59q2 -19 14 -19q18 0 59 33q41 30 58 53q3 8 -4 8q-28 0 -74 -4z
M1343 631l78 -6q4 0 4 10q-6 29 -36 29q-32 0 -52 -27q-6 -6 6 -6zM1423 684l21 -22q28 20 57 20q25 0 25 -10q0 -6 -10 -6q-12 0 -31 -8.5t-31 -20.5q0 -12 8 -12q8 -1 36.5 -1t39.5 -1q43 -3 66 -11q22 28 22 54q0 31 -53 88q-3 3 -6.5 5t-6.5 3.5t-8 2.5t-8 2t-10 1h-9.5
h-11h-10.5q-27 0 -51 -28t-29 -56z" />
    <glyph glyph-name="uni261F" unicode="&#x261f;" horiz-adv-x="1064" 
d="M860 547q0 -21 -22 -103q-23 -79 -23 -149q0 -40 2 -88.5t2 -69.5q0 -54 -7 -126.5t-11 -94.5v-61q0 -10 -5 -36.5t-5 -35.5q0 -123 -9 -184q0 -9 -8 -9q-5 0 -8 10l-4 11q-81 29 -105 141q-4 16 -6 36t-3 35t-2.5 41.5t-2.5 41.5q-2 17 -6.5 56t-7.5 64t-5.5 62.5
t-2.5 71.5q-71 -62 -111 -62q-37 0 -57 27q-16 -54 -43.5 -88.5t-79.5 -56.5q-12 -3 -19 4q-29 36 -45 117t-18 173q-23 26 -46 104.5t-24 147.5q0 6 6 6q19 0 29 -2q-25 68 -25 93q0 6 9 6q4 0 14 -3.5t14 -4.5q-4 14 -4 36q0 25 7.5 36.5t25.5 11.5q1 0 4.5 -1.5t5.5 -1.5
q-1 13 -8.5 59t-7.5 77q0 56 23.5 113.5t58.5 122t49 110.5l-137 84l-11 86q-81 43 -129 78q0 32 5.5 118.5t11.5 118.5q2 8 8 8q8 0 8 -10q10 -124 35 -242q46 7 119 7q249 0 481 -113q43 188 43 235q0 13 8 13q6 0 8 -8q7 -38 7 -152q0 -83 -9 -156q0 -3 -7.5 -4.5
t-17.5 -1.5t-14 -2v-69l-67 -19q13 -72 76 -294.5t63 -313.5zM264 1354l6 -82q86 8 129 8q218 0 353 -80q6 43 0 92q-181 74 -346 74q-74 0 -142 -12zM670 272q-13 -47 -13 -114q0 -99 23 -269q-4 -24 -4 -41q0 -153 86 -208q1 20 3 58.5t3 59.5q0 4 -4 4q-5 0 -14.5 -5
t-14.5 -5q-8 0 -4 8q9 18 31 31q1 1 4 3.5t4 4t2.5 5t2 9t1.5 13.5q0 7 1 28t1 27q0 43 7.5 127t7.5 129q0 28 -3.5 95t-3.5 75q0 32 19.5 107.5t19.5 113.5q0 57 -61 281q-64 243 -76 401q-75 17 -147 17q-73 0 -127 -15q-6 -45 -27.5 -99.5t-43.5 -97.5t-40 -103.5
t-18 -118.5q0 -43 6.5 -90t16.5 -103t14 -88q-5 -24 -19 -79t-21.5 -95.5t-7.5 -79.5q0 -29 2 -43q25 33 43 33q25 0 44.5 -22t19.5 -48q0 -16 -4 -16q-3 0 -8 4.5t-6 9.5q-8 20 -22.5 34.5t-27.5 14.5q-22 0 -22 -71q0 -46 11 -92.5t28 -63.5q71 52 94 164q2 12 4 25
t3.5 24t3 26.5t2 25.5t1.5 29t1.5 28t1 32t0.5 31.5t0.5 35.5t0.5 36q17 30 43 89.5t39 100.5q2 5 4.5 12.5t3.5 12t3 8.5t4 6t4 2q8 0 8 -20q0 -64 -27 -129q6 -3 26.5 -14.5t30 -17t26 -15.5t29 -20t24.5 -21q2 -2 1.5 -5t-2.5 -5t-4 -1q-33 10 -51 6q24 -90 64 -172z
M262 526q10 0 10 29q0 47 -36 47q-11 0 -11 -12q1 -26 12 -45t25 -19zM227 381q0 -4 4 -4q11 0 25 21t14 48q0 26 -10.5 45t-30.5 19q-16 0 -16 -10q0 -61 14 -119zM582 444q0 14 -13 23q-38 28 -59 31q-18 -2 -18 -15q0 -19 32 -59q27 -38 54 -57q8 -3 8 4q0 27 -4 73z
M477 416l-6 -78q0 -4 10 -4q29 6 29 37t-27 51q-1 1 -2.5 1t-2.5 -1.5t-1 -5.5zM530 336l-22 -21q20 -28 20 -57q0 -25 -10 -25q-6 0 -6 11q0 12 -8.5 30.5t-20.5 30.5q-12 0 -12 -8q-1 -8 -1 -36.5t-1 -39.5q-4 -46 -10 -65q30 -23 53 -23q31 0 88 53q3 3 5 6.5t3.5 6.5
t2.5 8t2 8t1 10v9.5v11v10.5q0 27 -28 51t-56 29z" />
    <glyph glyph-name="uni2720" unicode="&#x2720;" horiz-adv-x="1701" 
d="M356 1526h992q-147 -153 -265.5 -359.5t-158.5 -380.5q168 39 363 156.5t353 267.5v-989q-158 150 -352.5 266.5t-363.5 155.5q39 -171 158 -376t266 -359h-992q146 154 264.5 359t157.5 378q-170 -39 -364.5 -155.5t-352.5 -266.5v987q158 -152 353.5 -269.5
t365.5 -154.5q-39 172 -158 378t-266 362z" />
    <glyph glyph-name="u1F31A" unicode="&#x1f31a;" horiz-adv-x="1699" 
d="M850 1526q166 0 317 -64t260 -172.5t173.5 -258.5t64.5 -314t-64.5 -314t-173.5 -258.5t-260 -172.5t-317 -64t-317 64t-260 172.5t-173.5 258.5t-64.5 314t64.5 314t173.5 258.5t260 172.5t317 64zM850 1456q-203 0 -374.5 -99t-271.5 -269t-100 -371q0 -150 59 -287
t159 -236.5t238 -158t290 -58.5t290 58.5t237.5 158t158.5 236.5t59 287t-59 287t-158.5 236t-237.5 157.5t-290 58.5zM877 0v156h-7q-29 0 -47 -2v-154h-28v150q-27 -6 -54 -15v-129q-12 0 -28 4v113q-38 -21 -54 -35v-65q-7 3 -28 8v282l-53 -53v-211l-29 12v172l-19 -12
q-10 -8 -34 -20v-113l-29 18v84q-40 -12 -53 -12v-37l-29 25v721q-2 0 -4.5 -1t-3.5 -1q-41 -13 -45 -13v-657l-29 31v735h-4q-25 -3 -49 -12v-656q-22 30 -29 45v603q-2 -1 -3.5 -2t-2.5 -2t-2 -1q-12 -4 -16 0q-11 14 24 35v84l29 45v-110l53 26v152l29 31v-170
q3 1 22.5 10.5t30.5 13.5v152q-8 3 -8 6q0 7 8 10v27q12 11 29 22v-39q16 6 35 9q1 0 7 1t11 1v65q13 9 29 16v-77q8 0 25.5 1t25.5 1h2v102l29 12v-34q4 11 53 20v33q8 4 28 8v-37h5q16 2 49 2v47l28 6v-57q4 0 13 -1t14 -1l27 -4v70h28v-72h54v72h28v-72q6 0 23 1t30 1v63
l29 -6v-55q23 2 53 2v41q24 -6 29 -8v-35q1 0 3 -1t3 -1q21 -7 21 -10q0 -7 -27 -11v-79q18 2 53 2v116l29 -12v-104q37 0 53 -2v79q7 -3 29 -16v-65l41 -9l12 -4v41q6 -4 29 -22v-215q9 -3 27.5 -12.5t25.5 -12.5v191l29 -31v-174l47 -29l6 -6v141l29 -45v-717l-29 -45v648
q-10 0 -12 2l-41 12v-729l-29 -31v768l-53 10v-82v-4v-706q22 -9 20 -17q-3 -6 -16 -6h-4v-12l-29 -25v41q-23 6 -53 17v-93l-29 -18v121q-6 2 -12 8q-16 8 -41 33v-189l-29 -12v232q-11 12 -43 57q-1 0 -5 -1t-5 -1v-215l16 -19q5 -6 3 -11.5t-7.5 -6.5t-9.5 2q-2 0 -2 2
v-57q-22 -4 -29 -8v86q-14 8 -53 26v-125q-20 -4 -29 -4v139q-22 6 -53 9v-154h-28zM414 201q22 5 53 22v680q-39 -5 -53 -8v-694zM1233 250q24 -21 53 -37v684l-4 2q-40 9 -49 10v-659zM854 532q11 -14 23 -20v662q-27 -3 -54 -3v-616q10 -5 31 -23zM770 539q11 11 25 14
v618q-12 1 -50 11h-4v-107q18 -9 21 -12q7 -9 0 -29.5t-21 -40.5v-75q15 -15 15 -33q0 -21 -15 -29v-223q15 -2 15 -19q0 -4 -1.5 -6.5t-5.5 -7t-6 -6.5l-2 -2v-66q16 0 29 13zM1151 334q35 -44 53 -60v637h-20v-8q0 -43 -33 -69v-500zM496 244q31 28 53 55v516
q-37 10 -53 39v-610zM709 618l4 5v235q-5 2 -12 11.5t-9 11.5q-6 6 -26 16h-4q0 -3 -1.5 -9t-1.5 -9v-500l41 8h13v107q-32 32 -29 73q4 33 25 51zM993 518l-6 -12v-111q27 7 53 4v432q-31 22 -34 64l-19 -4v-197q35 -114 6 -176zM578 344q36 69 53 129v363q-27 -23 -53 -23
v-469zM1081 471q10 -40 41 -94v442q-10 -4 -28 -4q-17 0 -25 2v-315q4 -4 12 -31zM139 862q7 38 29 99v-490q-22 62 -29 100v291zM1561 571q-12 -55 -29 -100v490q15 -41 29 -99v-291zM920 748l-15 51v-293q47 3 53 80v14q0 30 -12 76q-3 10 -13 36t-13 36zM713 305
q-30 9 -54 12v-196q31 31 54 45v139zM1233 1083l24 -8t29 -10v178q-14 -5 -51 -2h-2v-158zM1040 328l-53 -19v-125q30 -16 53 -34v178zM1151 1102q33 -3 53 -10v147q-17 0 -53 -4v-133zM414 1081q29 10 53 15v133h-12q-7 0 -21 -1t-20 -1v-146zM496 1102q32 4 53 4v119
q-32 4 -53 4v-127zM1110 1104h12v125q-27 -3 -53 -12v-113h41zM578 1106q17 0 53 -4v110l-53 11v-117zM827 479l-4 -4v-102q18 -4 54 -4v98l-7 4q-21 10 -27 11.5t-16 -3.5zM670 1096q40 -10 43 -11v105l-39 10q-7 0 -15 4v-106q2 -2 11 -2zM928 1079q12 8 30 13v96
q-35 -8 -53 -10v-131q9 21 23 32zM987 1098q28 4 53 4v108l-28 -8l-25 -6v-98zM795 287q-11 1 -54 12v-119q30 15 54 23v84zM958 301q-9 -3 -53 -14v-78q25 -3 53 -12v104zM950 473q-27 -12 -45 -12v-88q25 4 53 12v90q-1 0 -4 -1t-4 -1zM752 471q-2 0 -6 1t-5 1v-86
q7 -1 25.5 -5t28.5 -5v90q-22 -3 -43 4zM741 1251q36 -4 54 -4v82q-12 1 -32.5 4.5t-21.5 3.5v-86zM694 1257q6 -2 19 -2v84q-20 2 -54 2v-79q25 -5 35 -5zM999 1257q30 5 41 5v79l-53 -8v-78q8 0 12 2zM905 1247l53 4v80h-4q-48 -6 -49 -6v-78zM877 1323q-40 0 -54 2v-78
h54v76zM578 1268l53 -4v77q-53 -3 -53 5v-78zM381 999q-25 -9 -49 -14v-80q18 18 53 29v65h-4zM856 281q-23 0 -33 2v-74q28 4 43 4h11v68h-21zM928 944q0 -44 5.5 -73.5t24.5 -86.5v107q-22 3 -22 20q0 16 22 27v53h-2q-19 -9 -23.5 -17t-4.5 -30zM467 1010l-53 -4v-64
l20 4q20 4 33 4v60zM1286 997l-53 7v-52q21 -2 53 -14v59zM549 1010h-53v-56l53 4v52zM1171 1008h-20v-50q8 0 26 -1t27 -1v50q-12 2 -33 2zM1034 1004l-47 -5v-51q12 3 53 8v48h-6zM1122 1008q-37 0 -53 -2v-50q18 2 53 2v50zM582 958q10 0 26 -1t23 -1v45h-4l-49 7v-50h4z
M684 983q-17 8 -25 10v-41q24 -2 43 -10l11 -6v37q-12 0 -29 10z" />
    </font>
</defs>
</svg>
